<?xml version="1.0" encoding="utf-8"?>
<!DOCTYPE svg PUBLIC "-//W3C//DTD SVG 1.1 Basic//EN" "http://www.w3.org/Graphics/SVG/1.1/DTD/svg11-basic.dtd">
<svg version="1.1" baseProfile="basic" id="Layer_1"
	 xmlns="http://www.w3.org/2000/svg" xmlns:xlink="http://www.w3.org/1999/xlink" x="0px" y="0px" width="300px" height="300px"
	 viewBox="0 0 300 300" xml:space="preserve">
<g>
	<path fill="#985530" d="M348.462,713.121c0,22.312-6.896,40.4-15.399,40.4h-88.379c-8.504,0-15.399-18.088-15.399-40.4l0,0
		c1.61-1.611,6.896,4.629,15.399,4.629h88.379C341.566,717.75,348.462,708.455,348.462,713.121L348.462,713.121z"/>
	<path fill="#995631" d="M347.594,713.394c0,21.987-6.795,39.812-15.175,39.812h-87.093c-8.38,0-15.175-17.824-15.175-39.812l0,0
		c1.587-1.589,6.795,4.562,15.175,4.562h87.093C340.799,717.955,347.594,708.795,347.594,713.394L347.594,713.394z"/>
	<path fill="#9A5732" d="M346.728,713.665c0,21.663-6.695,39.225-14.951,39.225H245.97c-8.256,0-14.951-17.562-14.951-39.225l0,0
		c1.563-1.564,6.695,4.494,14.951,4.494h85.807C340.032,718.159,346.728,709.135,346.728,713.665L346.728,713.665z"/>
	<path fill="#9B5833" d="M345.86,713.938c0,21.338-6.595,38.636-14.728,38.636h-84.52c-8.133,0-14.728-17.298-14.728-38.636l0,0
		c1.54-1.541,6.595,4.427,14.728,4.427h84.52C339.266,718.364,345.86,709.476,345.86,713.938L345.86,713.938z"/>
	<path fill="#9C5934" d="M344.992,714.209c0,21.014-6.494,38.049-14.502,38.049h-83.233c-8.009,0-14.503-17.035-14.503-38.049l0,0
		c1.517-1.517,6.494,4.36,14.503,4.36h83.233C338.498,718.569,344.992,709.815,344.992,714.209L344.992,714.209z"/>
	<path fill="#9D5A35" d="M344.125,714.481c0,20.689-6.394,37.461-14.278,37.461h-81.947c-7.885,0-14.278-16.771-14.278-37.461l0,0
		c1.493-1.493,6.394,4.292,14.278,4.292h81.947C337.731,718.773,344.125,710.155,344.125,714.481L344.125,714.481z"/>
	<path fill="#9E5B36" d="M343.258,714.754c0,20.364-6.293,36.872-14.055,36.872h-80.66c-7.761,0-14.055-16.508-14.055-36.872l0,0
		c1.47-1.471,6.294,4.225,14.055,4.225h80.66C336.965,718.979,343.258,710.496,343.258,714.754L343.258,714.754z"/>
	<path fill="#9F5C37" d="M342.391,715.026c0,20.039-6.192,36.284-13.83,36.284h-79.374c-7.638,0-13.831-16.245-13.831-36.284l0,0
		c1.446-1.447,6.193,4.157,13.831,4.157h79.374C336.198,719.184,342.391,710.836,342.391,715.026L342.391,715.026z"/>
	<path fill="#A05D38" d="M341.523,715.298c0,19.714-6.093,35.696-13.606,35.696h-78.088c-7.514,0-13.606-15.982-13.606-35.696l0,0
		c1.423-1.424,6.093,4.09,13.606,4.09h78.088C335.431,719.388,341.523,711.175,341.523,715.298L341.523,715.298z"/>
	<path fill="#A15D39" d="M340.656,715.57c0,19.39-5.992,35.107-13.383,35.107h-76.801c-7.391,0-13.383-15.718-13.383-35.107l0,0
		c1.4-1.4,5.992,4.022,13.383,4.022h76.801C334.664,719.593,340.656,711.516,340.656,715.57L340.656,715.57z"/>
	<path fill="#A25E3A" d="M339.789,715.842c0,19.065-5.893,34.521-13.158,34.521h-75.516c-7.266,0-13.157-15.455-13.157-34.521l0,0
		c1.376-1.377,5.892,3.955,13.157,3.955h75.516C333.896,719.797,339.789,711.855,339.789,715.842L339.789,715.842z"/>
	<path fill="#A35F3B" d="M338.921,716.114c0,18.739-5.792,33.932-12.934,33.932h-74.229c-7.142,0-12.934-15.192-12.934-33.932l0,0
		c1.354-1.354,5.792,3.888,12.934,3.888h74.229C333.129,720.002,338.921,712.195,338.921,716.114L338.921,716.114z"/>
	<path fill="#A4603C" d="M338.054,716.386c0,18.416-5.691,33.345-12.71,33.345h-72.941c-7.02,0-12.71-14.929-12.71-33.345l0,0
		c1.329-1.329,5.69,3.821,12.71,3.821h72.941C332.362,720.207,338.054,712.535,338.054,716.386L338.054,716.386z"/>
	<path fill="#A5613D" d="M337.187,716.658c0,18.091-5.591,32.756-12.485,32.756h-71.656c-6.895,0-12.485-14.665-12.485-32.756l0,0
		c1.306-1.307,5.591,3.754,12.485,3.754h71.656C331.596,720.412,337.187,712.875,337.187,716.658L337.187,716.658z"/>
	<path fill="#A6623E" d="M336.318,716.931c0,17.766-5.49,32.168-12.261,32.168h-70.369c-6.771,0-12.261-14.402-12.261-32.168l0,0
		c1.281-1.283,5.49,3.686,12.261,3.686h70.369C330.828,720.616,336.318,713.216,336.318,716.931L336.318,716.931z"/>
	<path fill="#A7633F" d="M335.451,717.203c0,17.441-5.39,31.58-12.037,31.58h-69.082c-6.648,0-12.037-14.139-12.037-31.58l0,0
		c1.258-1.26,5.389,3.618,12.037,3.618h69.082C330.062,720.821,335.451,713.555,335.451,717.203L335.451,717.203z"/>
	<path fill="#A86440" d="M334.584,717.475c0,17.117-5.289,30.992-11.812,30.992h-67.797c-6.523,0-11.812-13.875-11.812-30.992l0,0
		c1.235-1.236,5.289,3.551,11.812,3.551h67.797C329.295,721.025,334.584,713.896,334.584,717.475L334.584,717.475z"/>
	<path fill="#A96541" d="M333.717,717.746c0,16.793-5.189,30.404-11.589,30.404h-66.51c-6.399,0-11.589-13.611-11.589-30.404l0,0
		c1.211-1.212,5.189,3.484,11.589,3.484h66.51C328.527,721.23,333.717,714.235,333.717,717.746L333.717,717.746z"/>
	<path fill="#AA6642" d="M332.85,718.019c0,16.468-5.089,29.816-11.365,29.816h-65.224c-6.275,0-11.364-13.349-11.364-29.816l0,0
		c1.188-1.188,5.089,3.417,11.364,3.417h65.224C327.761,721.436,332.85,714.575,332.85,718.019L332.85,718.019z"/>
	<path fill="#AB6742" d="M331.982,718.291c0,16.143-4.988,29.229-11.141,29.229h-63.938c-6.152,0-11.141-13.086-11.141-29.229l0,0
		c1.165-1.166,4.988,3.35,11.141,3.35h63.938C326.994,721.641,331.982,714.916,331.982,718.291L331.982,718.291z"/>
	<path fill="#AC6843" d="M331.115,718.562c0,15.818-4.889,28.641-10.916,28.641h-62.652c-6.027,0-10.916-12.822-10.916-28.641l0,0
		c1.143-1.142,4.889,3.282,10.916,3.282h62.652C326.227,721.845,331.115,715.256,331.115,718.562L331.115,718.562z"/>
	<path fill="#AD6944" d="M330.248,718.835c0,15.493-4.788,28.052-10.692,28.052h-61.364c-5.904,0-10.693-12.559-10.693-28.052l0,0
		c1.118-1.118,4.789,3.215,10.693,3.215h61.364C325.46,722.05,330.248,715.596,330.248,718.835L330.248,718.835z"/>
	<path fill="#AE6A45" d="M329.381,719.107c0,15.168-4.688,27.464-10.469,27.464h-60.078c-5.781,0-10.468-12.296-10.468-27.464l0,0
		c1.095-1.096,4.687,3.146,10.468,3.146h60.078C324.693,722.254,329.381,715.936,329.381,719.107L329.381,719.107z"/>
	<path fill="#AF6B46" d="M328.514,719.379c0,14.844-4.588,26.876-10.244,26.876h-58.793c-5.656,0-10.243-12.032-10.243-26.876l0,0
		c1.071-1.071,4.587,3.08,10.243,3.08h58.793C323.926,722.459,328.514,716.275,328.514,719.379L328.514,719.379z"/>
	<path fill="#B06C47" d="M327.646,719.651c0,14.519-4.487,26.288-10.02,26.288H260.12c-5.533,0-10.02-11.77-10.02-26.288l0,0
		c1.048-1.048,4.486,3.013,10.02,3.013h57.506C323.158,722.664,327.646,716.615,327.646,719.651L327.646,719.651z"/>
	<path fill="#B16D48" d="M326.777,719.924c0,14.193-4.386,25.699-9.795,25.699h-56.219c-5.409,0-9.796-11.506-9.796-25.699l0,0
		c1.024-1.025,4.387,2.945,9.796,2.945h56.219C322.392,722.869,326.777,716.955,326.777,719.924L326.777,719.924z"/>
	<path fill="#B26D49" d="M325.911,720.195c0,13.869-4.286,25.111-9.572,25.111h-54.933c-5.285,0-9.571-11.242-9.571-25.111l0,0
		c1.001-1.001,4.286,2.878,9.571,2.878h54.933C321.625,723.073,325.911,717.296,325.911,720.195L325.911,720.195z"/>
	<path fill="#B36E4A" d="M325.043,720.468c0,13.544-4.186,24.523-9.347,24.523H262.05c-5.162,0-9.347-10.979-9.347-24.523l0,0
		c0.977-0.978,4.185,2.81,9.347,2.81h53.646C320.857,723.277,325.043,717.636,325.043,720.468L325.043,720.468z"/>
	<path fill="#B46F4B" d="M324.176,720.74c0,13.219-4.085,23.936-9.123,23.936h-52.359c-5.038,0-9.123-10.717-9.123-23.936l0,0
		c0.954-0.955,4.085,2.742,9.123,2.742h52.359C320.091,723.482,324.176,717.976,324.176,720.74L324.176,720.74z"/>
	<path fill="#B5704C" d="M323.309,721.012c0,12.895-3.984,23.348-8.898,23.348h-51.074c-4.914,0-8.898-10.453-8.898-23.348l0,0
		c0.931-0.931,3.984,2.676,8.898,2.676h51.074C319.324,723.688,323.309,718.315,323.309,721.012L323.309,721.012z"/>
	<path fill="#B6714D" d="M322.441,721.284c0,12.569-3.885,22.76-8.675,22.76h-49.787c-4.79,0-8.675-10.19-8.675-22.76l0,0
		c0.907-0.907,3.885,2.608,8.675,2.608h49.787C318.557,723.893,322.441,718.656,322.441,721.284L322.441,721.284z"/>
	<path fill="#B7724E" d="M321.574,721.557c0,12.244-3.784,22.171-8.451,22.171h-48.5c-4.667,0-8.451-9.927-8.451-22.171l0,0
		c0.884-0.885,3.784,2.541,8.451,2.541h48.5C317.79,724.098,321.574,718.996,321.574,721.557L321.574,721.557z"/>
	<path fill="#B7734F" d="M320.707,721.828c0,11.92-3.684,21.584-8.227,21.584h-47.215c-4.543,0-8.227-9.664-8.227-21.584l0,0
		c0.86-0.86,3.684,2.474,8.227,2.474h47.215C317.023,724.302,320.707,719.336,320.707,721.828L320.707,721.828z"/>
	<path fill="#B87450" d="M319.84,722.101c0,11.596-3.584,20.995-8.003,20.995h-45.928c-4.419,0-8.003-9.399-8.003-20.995l0,0
		c0.838-0.837,3.584,2.405,8.003,2.405h45.928C316.256,724.506,319.84,719.676,319.84,722.101L319.84,722.101z"/>
	<path fill="#B97551" d="M318.972,722.373c0,11.271-3.482,20.406-7.778,20.406h-44.641c-4.296,0-7.778-9.136-7.778-20.406l0,0
		c0.813-0.814,3.482,2.338,7.778,2.338h44.641C315.489,724.711,318.972,720.016,318.972,722.373L318.972,722.373z"/>
	<path fill="#BA7652" d="M318.104,722.645c0,10.946-3.383,19.819-7.554,19.819h-43.355c-4.171,0-7.554-8.873-7.554-19.819l0,0
		c0.79-0.79,3.383,2.271,7.554,2.271h43.355C314.722,724.916,318.104,720.355,318.104,722.645L318.104,722.645z"/>
	<path fill="#BB7753" d="M317.237,722.917c0,10.621-3.282,19.231-7.33,19.231h-42.068c-4.048,0-7.33-8.61-7.33-19.231l0,0
		c0.767-0.767,3.282,2.203,7.33,2.203h42.068C313.955,725.12,317.237,720.696,317.237,722.917L317.237,722.917z"/>
	<path fill="#BC7854" d="M316.37,723.189c0,10.296-3.182,18.643-7.105,18.643h-40.782c-3.924,0-7.106-8.347-7.106-18.643l0,0
		c0.743-0.744,3.183,2.136,7.106,2.136h40.782C313.188,725.325,316.37,721.036,316.37,723.189L316.37,723.189z"/>
	<path fill="#BD7955" d="M315.503,723.461c0,9.972-3.082,18.056-6.882,18.056h-39.496c-3.8,0-6.882-8.084-6.882-18.056l0,0
		c0.72-0.72,3.082,2.069,6.882,2.069h39.496C312.421,725.53,315.503,721.376,315.503,723.461L315.503,723.461z"/>
	<path fill="#BE7A56" d="M314.635,723.733c0,9.646-2.98,17.467-6.657,17.467h-38.21c-3.676,0-6.657-7.82-6.657-17.467l0,0
		c0.696-0.696,2.981,2.002,6.657,2.002h38.21C311.654,725.735,314.635,721.716,314.635,723.733L314.635,723.733z"/>
	<path fill="#BF7B57" d="M313.768,724.005c0,9.322-2.881,16.88-6.433,16.88h-36.924c-3.552,0-6.434-7.558-6.434-16.88l0,0
		c0.674-0.673,2.882,1.935,6.434,1.935h36.924C310.887,725.939,313.768,722.057,313.768,724.005L313.768,724.005z"/>
	<path fill="#C07C58" d="M312.9,724.277c0,8.997-2.78,16.291-6.209,16.291h-35.637c-3.429,0-6.209-7.294-6.209-16.291l0,0
		c0.648-0.65,2.78,1.867,6.209,1.867h35.637C310.12,726.145,312.9,722.396,312.9,724.277L312.9,724.277z"/>
	<path fill="#C17D59" d="M312.033,724.55c0,8.672-2.68,15.703-5.984,15.703h-34.351c-3.306,0-5.985-7.031-5.985-15.703l0,0
		c0.626-0.626,2.68,1.799,5.985,1.799h34.351C309.354,726.349,312.033,722.736,312.033,724.55L312.033,724.55z"/>
	<path fill="#C27E5A" d="M311.166,724.821c0,8.348-2.58,15.115-5.761,15.115h-33.064c-3.181,0-5.761-6.768-5.761-15.115l0,0
		c0.603-0.603,2.58,1.732,5.761,1.732h33.064C308.586,726.554,311.166,723.076,311.166,724.821L311.166,724.821z"/>
	<path fill="#C37E5B" d="M310.299,725.094c0,8.023-2.479,14.526-5.537,14.526h-31.777c-3.058,0-5.537-6.503-5.537-14.526l0,0
		c0.579-0.58,2.479,1.665,5.537,1.665h31.777C307.819,726.759,310.299,723.416,310.299,725.094L310.299,725.094z"/>
	<path fill="#C47F5C" d="M309.432,725.366c0,7.698-2.379,13.938-5.313,13.938h-30.49c-2.935,0-5.313-6.24-5.313-13.938l0,0
		c0.557-0.556,2.379,1.597,5.313,1.597h30.49C307.053,726.963,309.432,723.756,309.432,725.366L309.432,725.366z"/>
	<path fill="#C5805D" d="M308.564,725.639c0,7.372-2.279,13.35-5.089,13.35h-29.205c-2.81,0-5.089-5.978-5.089-13.35l0,0
		c0.532-0.533,2.279,1.529,5.089,1.529h29.205C306.285,727.168,308.564,724.096,308.564,725.639L308.564,725.639z"/>
	<path fill="#C6815E" d="M307.696,725.909c0,7.05-2.178,12.764-4.864,12.764h-27.918c-2.687,0-4.865-5.714-4.865-12.764l0,0
		c0.51-0.508,2.179,1.464,4.865,1.464h27.918C305.519,727.373,307.696,724.436,307.696,725.909L307.696,725.909z"/>
	<path fill="#C7825F" d="M306.829,726.182c0,6.724-2.078,12.175-4.64,12.175h-26.633c-2.562,0-4.64-5.451-4.64-12.175l0,0
		c0.485-0.484,2.078,1.396,4.64,1.396h26.633C304.751,727.577,306.829,724.776,306.829,726.182L306.829,726.182z"/>
	<path fill="#C88360" d="M305.962,726.454c0,6.399-1.978,11.587-4.416,11.587H276.2c-2.438,0-4.416-5.188-4.416-11.587l0,0
		c0.462-0.462,1.978,1.328,4.416,1.328h25.346C303.984,727.782,305.962,725.116,305.962,726.454L305.962,726.454z"/>
</g>
<g>
	<path fill="#FCBEC3" d="M352,708.951c0,12.703-9.547,26.7-22.25,26.7c-4.312,0-5-7.901-10-8.151
		c-3.434-0.172-6.312,4.451-9.75,4.451c-4.938,0-13.062-5.201-18-5.201c-3.983,0-13.699,5.201-17.683,5.201
		c-3.808,0-9.136-4.701-12.942-4.701c-2.582,0-10.034,4.701-12.617,4.701c-12.702,0-23-10.297-23-23l0,0c0-12.702,10.298-23,23-23
		c0,0,22.02-5.502,29.767-5.502c12.313,0,50.476,5.502,50.476,5.502C341.703,685.951,352,696.249,352,708.951L352,708.951z"/>
	<path fill="#FCBFC4" d="M351.79,708.874c0,12.451-9.515,26.171-22.176,26.171c-4.227,0-4.983-7.745-9.967-7.99
		c-3.422-0.168-6.291,4.363-9.718,4.363c-4.921,0-13.019-5.099-17.94-5.099c-3.97,0-13.653,5.099-17.623,5.099
		c-3.795,0-9.105-4.608-12.899-4.608c-2.574,0-10.001,4.608-12.576,4.608c-12.659,0-22.923-10.093-22.923-22.544l0,0
		c0-12.451,10.264-22.545,22.923-22.545c0,0,21.947-5.392,29.668-5.392c12.273,0,50.309,5.392,50.309,5.392
		C341.527,686.329,351.79,696.423,351.79,708.874L351.79,708.874z"/>
	<path fill="#FCC0C5" d="M351.581,708.796c0,12.199-9.483,25.642-22.103,25.642c-4.142,0-4.967-7.588-9.934-7.828
		c-3.411-0.166-6.271,4.274-9.686,4.274c-4.904,0-12.976-4.995-17.88-4.995c-3.957,0-13.609,4.995-17.565,4.995
		c-3.782,0-9.075-4.515-12.856-4.515c-2.565,0-9.968,4.515-12.534,4.515c-12.617,0-22.847-9.889-22.847-22.088l0,0
		c0-12.198,10.229-22.088,22.847-22.088c0,0,21.874-5.285,29.569-5.285c12.232,0,50.141,5.285,50.141,5.285
		C341.353,686.708,351.581,696.598,351.581,708.796L351.581,708.796z"/>
	<path fill="#FCC1C6" d="M351.371,708.719c0,11.947-9.451,25.112-22.028,25.112c-4.056,0-4.95-7.432-9.9-7.667
		c-3.399-0.162-6.249,4.187-9.653,4.187c-4.888,0-12.932-4.892-17.82-4.892c-3.943,0-13.562,4.892-17.506,4.892
		c-3.771,0-9.045-4.422-12.814-4.422c-2.557,0-9.934,4.422-12.491,4.422c-12.576,0-22.771-9.685-22.771-21.632l0,0
		c0-11.947,10.195-21.633,22.771-21.633c0,0,21.8-5.175,29.47-5.175c12.191,0,49.974,5.175,49.974,5.175
		C341.177,687.086,351.371,696.771,351.371,708.719L351.371,708.719z"/>
	<path fill="#FCC2C7" d="M351.162,708.641c0,11.696-9.42,24.584-21.954,24.584c-3.971,0-4.934-7.275-9.868-7.506
		c-3.388-0.158-6.229,4.099-9.62,4.099c-4.872,0-12.889-4.789-17.761-4.789c-3.931,0-13.518,4.789-17.448,4.789
		c-3.757,0-9.015-4.329-12.771-4.329c-2.548,0-9.901,4.329-12.45,4.329c-12.533,0-22.694-9.48-22.694-21.177l0,0
		c0-11.695,10.161-21.177,22.694-21.177c0,0,21.728-5.065,29.372-5.065c12.149,0,49.806,5.065,49.806,5.065
		C341.002,687.464,351.162,696.945,351.162,708.641L351.162,708.641z"/>
	<path fill="#FCC3C7" d="M350.953,708.563c0,11.443-9.389,24.054-21.881,24.054c-3.886,0-4.917-7.118-9.835-7.343
		c-3.376-0.155-6.207,4.01-9.587,4.01c-4.856,0-12.846-4.687-17.702-4.687c-3.917,0-13.472,4.687-17.39,4.687
		c-3.744,0-8.984-4.235-12.727-4.235c-2.539,0-9.868,4.235-12.408,4.235c-12.492,0-22.619-9.277-22.619-20.721l0,0
		c0-11.444,10.127-20.722,22.619-20.722c0,0,21.654-4.956,29.272-4.956c12.109,0,49.638,4.956,49.638,4.956
		C340.827,687.842,350.953,697.119,350.953,708.563L350.953,708.563z"/>
	<path fill="#FCC4C8" d="M350.743,708.486c0,11.191-9.356,23.524-21.807,23.524c-3.8,0-4.9-6.962-9.801-7.182
		c-3.365-0.151-6.187,3.921-9.556,3.921c-4.839,0-12.803-4.582-17.642-4.582c-3.904,0-13.427,4.582-17.331,4.582
		c-3.731,0-8.954-4.142-12.685-4.142c-2.53,0-9.835,4.142-12.366,4.142c-12.449,0-22.542-9.072-22.542-20.264l0,0
		c0-11.192,10.093-20.266,22.542-20.266c0,0,21.581-4.848,29.174-4.848c12.068,0,49.471,4.848,49.471,4.848
		C340.651,688.221,350.743,697.294,350.743,708.486L350.743,708.486z"/>
	<path fill="#FCC5C9" d="M350.534,708.407c0,10.94-9.325,22.996-21.733,22.996c-3.715,0-4.884-6.805-9.769-7.021
		c-3.353-0.147-6.165,3.834-9.522,3.834c-4.823,0-12.76-4.479-17.582-4.479c-3.892,0-13.381,4.479-17.272,4.479
		c-3.719,0-8.924-4.049-12.642-4.049c-2.521,0-9.801,4.049-12.324,4.049c-12.407,0-22.466-8.869-22.466-19.81l0,0
		c0-10.939,10.059-19.809,22.466-19.809c0,0,21.508-4.738,29.075-4.738c12.027,0,49.303,4.738,49.303,4.738
		C340.476,688.599,350.534,697.468,350.534,708.407L350.534,708.407z"/>
	<path fill="#FCC5CA" d="M350.324,708.33c0,10.689-9.294,22.467-21.659,22.467c-3.629,0-4.867-6.648-9.734-6.859
		c-3.343-0.145-6.145,3.746-9.491,3.746c-4.807,0-12.716-4.377-17.522-4.377c-3.878,0-13.335,4.377-17.213,4.377
		c-3.706,0-8.894-3.956-12.599-3.956c-2.514,0-9.769,3.956-12.282,3.956c-12.365,0-22.39-8.664-22.39-19.354l0,0
		c0-10.688,10.024-19.354,22.39-19.354c0,0,21.435-4.629,28.976-4.629c11.986,0,49.136,4.629,49.136,4.629
		C340.301,688.977,350.324,697.643,350.324,708.33L350.324,708.33z"/>
	<path fill="#FCC6CB" d="M350.115,708.253c0,10.437-9.262,21.938-21.586,21.938c-3.543,0-4.851-6.492-9.701-6.698
		c-3.331-0.141-6.123,3.658-9.459,3.658c-4.789,0-12.672-4.273-17.462-4.273c-3.865,0-13.29,4.273-17.155,4.273
		c-3.693,0-8.862-3.863-12.556-3.863c-2.505,0-9.734,3.863-12.24,3.863c-12.323,0-22.313-8.461-22.313-18.897l0,0
		c0-10.437,9.99-18.897,22.313-18.897c0,0,21.362-4.521,28.878-4.521c11.945,0,48.968,4.521,48.968,4.521
		C340.126,689.355,350.115,697.816,350.115,708.253L350.115,708.253z"/>
	<path fill="#FCC7CC" d="M349.905,708.175c0,10.185-9.23,21.408-21.512,21.408c-3.458,0-4.834-6.335-9.668-6.536
		c-3.319-0.138-6.103,3.568-9.427,3.568c-4.773,0-12.629-4.17-17.402-4.17c-3.852,0-13.245,4.17-17.096,4.17
		c-3.682,0-8.833-3.769-12.514-3.769c-2.496,0-9.701,3.769-12.198,3.769c-12.28,0-22.236-8.256-22.236-18.44l0,0
		c0-10.185,9.956-18.441,22.236-18.441c0,0,21.289-4.412,28.778-4.412c11.905,0,48.801,4.412,48.801,4.412
		C339.949,689.733,349.905,697.99,349.905,708.175L349.905,708.175z"/>
	<path fill="#FCC8CD" d="M349.695,708.098c0,9.933-9.197,20.879-21.438,20.879c-3.372,0-4.816-6.179-9.635-6.375
		c-3.308-0.134-6.082,3.481-9.395,3.481c-4.756,0-12.585-4.067-17.342-4.067c-3.839,0-13.199,4.067-17.038,4.067
		c-3.668,0-8.802-3.677-12.47-3.677c-2.487,0-9.668,3.677-12.156,3.677c-12.238,0-22.16-8.053-22.16-17.985l0,0
		c0-9.934,9.922-17.986,22.16-17.986c0,0,21.216-4.303,28.68-4.303c11.864,0,48.633,4.303,48.633,4.303
		C339.774,690.111,349.695,698.164,349.695,708.098L349.695,708.098z"/>
	<path fill="#FCC9CE" d="M349.486,708.021c0,9.681-9.166,20.35-21.363,20.35c-3.287,0-4.801-6.022-9.603-6.213
		c-3.296-0.132-6.061,3.393-9.36,3.393c-4.741,0-12.543-3.965-17.284-3.965c-3.825,0-13.153,3.965-16.979,3.965
		c-3.655,0-8.772-3.583-12.427-3.583c-2.479,0-9.635,3.583-12.115,3.583c-12.196,0-22.084-7.849-22.084-17.529l0,0
		c0-9.682,9.888-17.53,22.084-17.53c0,0,21.143-4.193,28.581-4.193c11.823,0,48.466,4.193,48.466,4.193
		C339.6,690.49,349.486,698.339,349.486,708.021L349.486,708.021z"/>
	<path fill="#FCCACF" d="M349.277,707.941c0,9.43-9.136,19.821-21.291,19.821c-3.201,0-4.783-5.866-9.568-6.051
		c-3.285-0.128-6.039,3.304-9.329,3.304c-4.724,0-12.499-3.86-17.224-3.86c-3.812,0-13.108,3.86-16.92,3.86
		c-3.643,0-8.741-3.49-12.384-3.49c-2.471,0-9.602,3.49-12.073,3.49c-12.154,0-22.008-7.645-22.008-17.074l0,0
		c0-9.429,9.854-17.073,22.008-17.073c0,0,21.07-4.085,28.482-4.085c11.782,0,48.299,4.085,48.299,4.085
		C339.424,690.868,349.277,698.513,349.277,707.941L349.277,707.941z"/>
	<path fill="#FCCBCF" d="M349.067,707.864c0,9.178-9.104,19.291-21.217,19.291c-3.115,0-4.767-5.709-9.535-5.89
		c-3.273-0.124-6.019,3.217-9.297,3.217c-4.708,0-12.455-3.758-17.164-3.758c-3.799,0-13.062,3.758-16.86,3.758
		c-3.631,0-8.712-3.396-12.342-3.396c-2.462,0-9.568,3.396-12.031,3.396c-12.111,0-21.931-7.44-21.931-16.618l0,0
		c0-9.178,9.819-16.618,21.931-16.618c0,0,20.997-3.976,28.384-3.976c11.741,0,48.131,3.976,48.131,3.976
		C339.248,691.246,349.067,698.687,349.067,707.864L349.067,707.864z"/>
	<path fill="#FCCCD0" d="M348.858,707.787c0,8.926-9.072,18.762-21.144,18.762c-3.029,0-4.75-5.553-9.502-5.728
		c-3.262-0.121-5.997,3.128-9.264,3.128c-4.691,0-12.412-3.655-17.104-3.655c-3.786,0-13.018,3.655-16.803,3.655
		c-3.617,0-8.681-3.305-12.298-3.305c-2.453,0-9.535,3.305-11.989,3.305c-12.069,0-21.854-7.236-21.854-16.162l0,0
		c0-8.926,9.785-16.162,21.854-16.162c0,0,20.923-3.867,28.284-3.867c11.701,0,47.964,3.867,47.964,3.867
		C339.074,691.625,348.858,698.861,348.858,707.787L348.858,707.787z"/>
	<path fill="#FCCDD1" d="M348.648,707.709c0,8.675-9.039,18.233-21.068,18.233c-2.945,0-4.734-5.396-9.469-5.566
		c-3.251-0.117-5.977,3.04-9.232,3.04c-4.675,0-12.368-3.553-17.045-3.553c-3.771,0-12.971,3.553-16.743,3.553
		c-3.604,0-8.651-3.211-12.256-3.211c-2.444,0-9.501,3.211-11.946,3.211c-12.028,0-21.779-7.032-21.779-15.707l0,0
		c0-8.674,9.751-15.706,21.779-15.706c0,0,20.851-3.758,28.186-3.758c11.659,0,47.795,3.758,47.795,3.758
		C338.898,692.003,348.648,699.035,348.648,707.709L348.648,707.709z"/>
	<path fill="#FCCED2" d="M348.439,707.632c0,8.422-9.009,17.704-20.995,17.704c-2.859,0-4.718-5.239-9.437-5.405
		c-3.238-0.114-5.955,2.951-9.199,2.951c-4.658,0-12.325-3.448-16.984-3.448c-3.76,0-12.927,3.448-16.686,3.448
		c-3.593,0-8.62-3.117-12.212-3.117c-2.437,0-9.469,3.117-11.906,3.117c-11.985,0-21.702-6.828-21.702-15.25l0,0
		c0-8.423,9.717-15.251,21.702-15.251c0,0,20.778-3.648,28.088-3.648c11.618,0,47.628,3.648,47.628,3.648
		C338.723,692.381,348.439,699.209,348.439,707.632L348.439,707.632z"/>
	<path fill="#FCCFD3" d="M348.229,707.554c0,8.171-8.978,17.175-20.921,17.175c-2.773,0-4.701-5.082-9.403-5.243
		c-3.228-0.11-5.935,2.862-9.167,2.862c-4.642,0-12.281-3.346-16.925-3.346c-3.746,0-12.881,3.346-16.626,3.346
		c-3.581,0-8.591-3.023-12.17-3.023c-2.428,0-9.436,3.023-11.864,3.023c-11.942,0-21.626-6.623-21.626-14.794l0,0
		c0-8.171,9.684-14.795,21.626-14.795c0,0,20.705-3.539,27.989-3.539c11.578,0,47.46,3.539,47.46,3.539
		C338.548,692.759,348.229,699.383,348.229,707.554L348.229,707.554z"/>
	<path fill="#FCD0D4" d="M348.02,707.477c0,7.918-8.944,16.646-20.847,16.646c-2.688,0-4.685-4.927-9.37-5.082
		c-3.216-0.107-5.913,2.774-9.134,2.774c-4.626,0-12.239-3.242-16.865-3.242c-3.733,0-12.836,3.242-16.568,3.242
		c-3.567,0-8.56-2.93-12.126-2.93c-2.419,0-9.402,2.93-11.822,2.93c-11.9,0-21.549-6.42-21.549-14.338l0,0
		c0-7.919,9.648-14.339,21.549-14.339c0,0,20.632-3.431,27.89-3.431c11.538,0,47.293,3.431,47.293,3.431
		C338.372,693.138,348.02,699.558,348.02,707.477L348.02,707.477z"/>
	<path fill="#FCD1D5" d="M347.811,707.398c0,7.668-8.913,16.117-20.773,16.117c-2.603,0-4.668-4.77-9.336-4.921
		c-3.205-0.104-5.893,2.687-9.103,2.687c-4.609,0-12.195-3.139-16.806-3.139c-3.72,0-12.79,3.139-16.509,3.139
		c-3.555,0-8.53-2.838-12.083-2.838c-2.411,0-9.369,2.838-11.78,2.838c-11.86,0-21.474-6.215-21.474-13.883l0,0
		c0-7.667,9.613-13.883,21.474-13.883c0,0,20.558-3.321,27.79-3.321c11.496,0,47.126,3.321,47.126,3.321
		C338.197,693.516,347.811,699.731,347.811,707.398L347.811,707.398z"/>
	<path fill="#FCD2D6" d="M347.602,707.321c0,7.415-8.882,15.587-20.699,15.587c-2.518,0-4.651-4.613-9.304-4.759
		c-3.194-0.101-5.872,2.599-9.07,2.599c-4.593,0-12.151-3.036-16.746-3.036c-3.706,0-12.744,3.036-16.45,3.036
		c-3.542,0-8.499-2.745-12.04-2.745c-2.402,0-9.335,2.745-11.738,2.745c-11.817,0-21.397-6.012-21.397-13.427l0,0
		c0-7.416,9.58-13.428,21.397-13.428c0,0,20.485-3.212,27.692-3.212c11.455,0,46.958,3.212,46.958,3.212
		C338.021,693.894,347.602,699.905,347.602,707.321L347.602,707.321z"/>
	<path fill="#FCD3D7" d="M347.392,707.244c0,7.163-8.85,15.058-20.626,15.058c-2.432,0-4.634-4.456-9.27-4.598
		c-3.183-0.097-5.851,2.511-9.037,2.511c-4.577,0-12.109-2.934-16.687-2.934c-3.693,0-12.699,2.934-16.392,2.934
		c-3.529,0-8.47-2.652-11.998-2.652c-2.394,0-9.302,2.652-11.696,2.652c-11.774,0-21.321-5.808-21.321-12.971l0,0
		c0-7.164,9.547-12.973,21.321-12.973c0,0,20.412-3.103,27.593-3.103c11.415,0,46.791,3.103,46.791,3.103
		C337.846,694.271,347.392,700.08,347.392,707.244L347.392,707.244z"/>
	<path fill="#FCD4D7" d="M347.183,707.166c0,6.912-8.818,14.528-20.553,14.528c-2.346,0-4.617-4.3-9.236-4.436
		c-3.171-0.093-5.829,2.423-9.005,2.423c-4.561,0-12.065-2.831-16.627-2.831c-3.681,0-12.653,2.831-16.333,2.831
		c-3.517,0-8.438-2.559-11.954-2.559c-2.385,0-9.27,2.559-11.654,2.559c-11.733,0-21.245-5.604-21.245-12.516l0,0
		c0-6.912,9.512-12.516,21.245-12.516c0,0,20.339-2.994,27.494-2.994c11.373,0,46.623,2.994,46.623,2.994
		C337.671,694.65,347.183,700.254,347.183,707.166L347.183,707.166z"/>
	<path fill="#FCD5D8" d="M346.973,707.088c0,6.66-8.786,14-20.478,14c-2.261,0-4.601-4.144-9.204-4.274
		c-3.159-0.09-5.809,2.334-8.973,2.334c-4.544,0-12.021-2.728-16.566-2.728c-3.668,0-12.608,2.728-16.275,2.728
		c-3.504,0-8.408-2.465-11.911-2.465c-2.376,0-9.235,2.465-11.612,2.465c-11.69,0-21.168-5.399-21.168-12.06l0,0
		c0-6.66,9.478-12.06,21.168-12.06c0,0,20.266-2.885,27.396-2.885c11.333,0,46.456,2.885,46.456,2.885
		C337.496,695.028,346.973,700.428,346.973,707.088L346.973,707.088z"/>
	<path fill="#FCD6D9" d="M346.764,707.011c0,6.408-8.756,13.47-20.404,13.47c-2.176,0-4.585-3.986-9.171-4.112
		c-3.147-0.086-5.787,2.245-8.94,2.245c-4.527,0-11.979-2.623-16.507-2.623c-3.654,0-12.563,2.623-16.216,2.623
		c-3.491,0-8.378-2.371-11.869-2.371c-2.367,0-9.201,2.371-11.57,2.371c-11.648,0-21.092-5.194-21.092-11.603l0,0
		c0-6.409,9.443-11.604,21.092-11.604c0,0,20.193-2.775,27.297-2.775c11.292,0,46.288,2.775,46.288,2.775
		C337.32,695.406,346.764,700.602,346.764,707.011L346.764,707.011z"/>
	<path fill="#FCD7DA" d="M346.555,706.933c0,6.157-8.725,12.941-20.331,12.941c-2.09,0-4.567-3.83-9.138-3.951
		c-3.137-0.083-5.767,2.157-8.908,2.157c-4.51,0-11.935-2.521-16.447-2.521c-3.641,0-12.518,2.521-16.156,2.521
		c-3.479,0-8.348-2.279-11.826-2.279c-2.359,0-9.169,2.279-11.528,2.279c-11.606,0-21.016-4.99-21.016-11.147l0,0
		c0-6.156,9.409-11.147,21.016-11.147c0,0,20.12-2.668,27.197-2.668c11.252,0,46.121,2.668,46.121,2.668
		C337.146,695.785,346.555,700.776,346.555,706.933L346.555,706.933z"/>
	<path fill="#FCD8DB" d="M346.345,706.855c0,5.904-8.692,12.412-20.257,12.412c-2.004,0-4.551-3.674-9.104-3.789
		c-3.124-0.08-5.745,2.068-8.875,2.068c-4.495,0-11.892-2.418-16.388-2.418c-3.628,0-12.473,2.418-16.099,2.418
		c-3.466,0-8.317-2.186-11.782-2.186c-2.352,0-9.137,2.186-11.488,2.186c-11.563,0-20.938-4.787-20.938-10.691l0,0
		c0-5.905,9.375-10.692,20.938-10.692c0,0,20.048-2.558,27.1-2.558c11.211,0,45.954,2.558,45.954,2.558
		C336.97,696.163,346.345,700.95,346.345,706.855L346.345,706.855z"/>
	<path fill="#FCD9DC" d="M346.135,706.777c0,5.653-8.66,11.883-20.183,11.883c-1.919,0-4.534-3.516-9.071-3.627
		c-3.113-0.077-5.724,1.98-8.843,1.98c-4.478,0-11.849-2.315-16.328-2.315c-3.614,0-12.426,2.315-16.04,2.315
		c-3.453,0-8.287-2.093-11.739-2.093c-2.342,0-9.103,2.093-11.445,2.093c-11.521,0-20.862-4.583-20.862-10.236l0,0
		c0-5.653,9.341-10.236,20.862-10.236c0,0,19.974-2.448,27-2.448c11.17,0,45.786,2.448,45.786,2.448
		C336.795,696.541,346.135,701.124,346.135,706.777L346.135,706.777z"/>
	<path fill="#FCDADD" d="M345.926,706.7c0,5.4-8.629,11.354-20.109,11.354c-1.833,0-4.518-3.36-9.038-3.466
		c-3.102-0.073-5.703,1.892-8.811,1.892c-4.461,0-11.805-2.211-16.268-2.211c-3.602,0-12.381,2.211-15.981,2.211
		c-3.44,0-8.257-1.999-11.697-1.999c-2.333,0-9.068,1.999-11.402,1.999c-11.48,0-20.787-4.379-20.787-9.779l0,0
		c0-5.401,9.307-9.78,20.787-9.78c0,0,19.9-2.341,26.901-2.341c11.128,0,45.618,2.341,45.618,2.341
		C336.619,696.92,345.926,701.299,345.926,706.7L345.926,706.7z"/>
	<path fill="#FCDBDE" d="M345.717,706.622c0,5.149-8.598,10.825-20.036,10.825c-1.748,0-4.501-3.204-9.005-3.305
		c-3.09-0.07-5.682,1.804-8.777,1.804c-4.445,0-11.763-2.108-16.209-2.108c-3.588,0-12.336,2.108-15.922,2.108
		c-3.429,0-8.228-1.906-11.654-1.906c-2.325,0-9.036,1.906-11.361,1.906c-11.438,0-20.71-4.175-20.71-9.324l0,0
		c0-5.149,9.272-9.324,20.71-9.324c0,0,19.827-2.231,26.803-2.231c11.088,0,45.45,2.231,45.45,2.231
		C336.444,697.298,345.717,701.473,345.717,706.622L345.717,706.622z"/>
	<path fill="#FCDCDF" d="M345.507,706.545c0,4.897-8.565,10.295-19.962,10.295c-1.662,0-4.484-3.047-8.971-3.143
		c-3.08-0.066-5.662,1.716-8.746,1.716c-4.429,0-11.719-2.005-16.148-2.005c-3.575,0-12.291,2.005-15.864,2.005
		c-3.415,0-8.196-1.812-11.611-1.812c-2.315,0-9.002,1.812-11.319,1.812c-11.396,0-20.634-3.971-20.634-8.868l0,0
		c0-4.898,9.238-8.869,20.634-8.869c0,0,19.755-2.122,26.704-2.122c11.047,0,45.283,2.122,45.283,2.122
		C336.269,697.676,345.507,701.646,345.507,706.545L345.507,706.545z"/>
	<path fill="#FCDDE0" d="M345.297,706.467c0,4.646-8.533,9.767-19.887,9.767c-1.577,0-4.469-2.891-8.938-2.981
		c-3.068-0.063-5.641,1.627-8.714,1.627c-4.412,0-11.675-1.901-16.089-1.901c-3.562,0-12.245,1.901-15.806,1.901
		c-3.402,0-8.166-1.719-11.568-1.719c-2.307,0-8.969,1.719-11.277,1.719c-11.354,0-20.558-3.766-20.558-8.412l0,0
		c0-4.646,9.204-8.412,20.558-8.412c0,0,19.683-2.014,26.605-2.014c11.006,0,45.116,2.014,45.116,2.014
		C336.094,698.055,345.297,701.821,345.297,706.467L345.297,706.467z"/>
	<path fill="#FCDEE0" d="M345.088,706.39c0,4.394-8.502,9.236-19.813,9.236c-1.492,0-4.451-2.733-8.905-2.819
		c-3.057-0.06-5.619,1.539-8.682,1.539c-4.396,0-11.632-1.799-16.028-1.799c-3.549,0-12.2,1.799-15.747,1.799
		c-3.391,0-8.136-1.627-11.525-1.627c-2.299,0-8.936,1.627-11.235,1.627c-11.312,0-20.481-3.562-20.481-7.956l0,0
		c0-4.395,9.17-7.957,20.481-7.957c0,0,19.608-1.904,26.506-1.904c10.966,0,44.949,1.904,44.949,1.904
		C335.918,698.433,345.088,701.995,345.088,706.39L345.088,706.39z"/>
	<path fill="#FCDFE1" d="M344.878,706.312c0,4.142-8.47,8.707-19.739,8.707c-1.406,0-4.436-2.577-8.872-2.658
		c-3.045-0.057-5.599,1.451-8.649,1.451c-4.379,0-11.588-1.696-15.969-1.696c-3.535,0-12.154,1.696-15.688,1.696
		c-3.378,0-8.105-1.533-11.482-1.533c-2.291,0-8.902,1.533-11.194,1.533c-11.27,0-20.405-3.358-20.405-7.5l0,0
		c0-4.144,9.136-7.502,20.405-7.502c0,0,19.535-1.795,26.407-1.795c10.925,0,44.781,1.795,44.781,1.795
		C335.742,698.811,344.878,702.169,344.878,706.312L344.878,706.312z"/>
	<path fill="#FCE0E2" d="M344.669,706.234c0,3.89-8.438,8.179-19.666,8.179c-1.32,0-4.418-2.421-8.839-2.497
		c-3.034-0.053-5.577,1.362-8.617,1.362c-4.362,0-11.544-1.592-15.909-1.592c-3.522,0-12.108,1.592-15.629,1.592
		c-3.365,0-8.075-1.439-11.439-1.439c-2.282,0-8.869,1.439-11.151,1.439c-11.228,0-20.329-3.154-20.329-7.044l0,0
		c0-3.892,9.102-7.046,20.329-7.046c0,0,19.462-1.686,26.309-1.686c10.883,0,44.613,1.686,44.613,1.686
		C335.567,699.188,344.669,702.343,344.669,706.234L344.669,706.234z"/>
	<path fill="#FCE1E3" d="M344.459,706.157c0,3.638-8.406,7.649-19.592,7.649c-1.235,0-4.401-2.265-8.806-2.336
		c-3.022-0.05-5.556,1.274-8.584,1.274c-4.347,0-11.502-1.49-15.85-1.49c-3.51,0-12.063,1.49-15.571,1.49
		c-3.352,0-8.044-1.347-11.396-1.347c-2.273,0-8.837,1.347-11.11,1.347c-11.186,0-20.253-2.95-20.253-6.588l0,0
		c0-3.64,9.067-6.59,20.253-6.59c0,0,19.389-1.577,26.21-1.577c10.843,0,44.445,1.577,44.445,1.577
		C335.392,699.567,344.459,702.518,344.459,706.157L344.459,706.157z"/>
	<path fill="#FCE2E4" d="M344.25,706.079c0,3.387-8.375,7.12-19.519,7.12c-1.149,0-4.385-2.107-8.772-2.174
		c-3.011-0.046-5.535,1.187-8.552,1.187c-4.33,0-11.458-1.387-15.79-1.387c-3.496,0-12.018,1.387-15.512,1.387
		c-3.34,0-8.015-1.254-11.354-1.254c-2.265,0-8.803,1.254-11.068,1.254c-11.143,0-20.176-2.746-20.176-6.133l0,0
		c0-3.388,9.033-6.134,20.176-6.134c0,0,19.316-1.468,26.111-1.468c10.802,0,44.278,1.468,44.278,1.468
		C335.217,699.945,344.25,702.691,344.25,706.079L344.25,706.079z"/>
</g>
<path fill="#5ABC49" d="M276.233,684.127c0,0.782-0.53,1.417-1.186,1.417h-2.702c-0.655,0-1.186-0.635-1.186-1.417v-28.46
	c0-0.782,0.53-1.417,1.186-1.417h2.702c0.655,0,1.186,0.635,1.186,1.417V684.127z"/>
<path fill="#00A9B8" d="M317,699.35c0,0.782-0.531,1.417-1.185,1.417h-2.703c-0.655,0-1.187-0.635-1.187-1.417v-28.46
	c0-0.782,0.531-1.417,1.187-1.417h2.703c0.653,0,1.185,0.635,1.185,1.417V699.35z"/>
<path fill="#C26588" d="M290.282,691.663c0,0.782-0.53,1.417-1.185,1.417h-2.703c-0.654,0-1.186-0.635-1.186-1.417v-28.46
	c0-0.782,0.531-1.417,1.186-1.417h2.703c0.654,0,1.185,0.635,1.185,1.417V691.663z"/>
<path fill="#8DC3E0" d="M304.456,688.681c0,0.782-0.53,1.417-1.185,1.417h-2.703c-0.655,0-1.186-0.635-1.186-1.417v-28.46
	c0-0.782,0.53-1.417,1.186-1.417h2.703c0.654,0,1.185,0.635,1.185,1.417V688.681z"/>
<path fill="#8DC3E0" d="M260.109,698.188c0,0.782-0.531,1.417-1.186,1.417h-2.703c-0.654,0-1.186-0.635-1.186-1.417v-28.46
	c0-0.782,0.531-1.417,1.186-1.417h2.703c0.654,0,1.186,0.635,1.186,1.417V698.188z"/>
<g>
	<path fill="#FCE300" d="M261.375,663.78c0,2.836-1.646,4.236-3.679,4.236s-3.679-1.4-3.679-4.236c0-3.205,4.049-5.342,4.344-7.553
		C258.605,654.404,261.375,662.362,261.375,663.78z"/>
	<path fill="#FBAE17" d="M259.082,665.607c0,1.291-0.621,1.929-1.386,1.929s-1.386-0.638-1.386-1.929
		c0-1.457,1.525-2.43,1.637-3.438C258.039,661.342,259.082,664.962,259.082,665.607z"/>
</g>
<g>
	<path fill="#FCE300" d="M277.375,649.363c0,2.836-1.646,4.236-3.679,4.236s-3.679-1.4-3.679-4.236c0-3.205,4.049-5.342,4.344-7.553
		C274.605,639.987,277.375,647.945,277.375,649.363z"/>
	<path fill="#FBAE17" d="M275.082,651.19c0,1.291-0.621,1.929-1.386,1.929s-1.386-0.638-1.386-1.929c0-1.457,1.525-2.43,1.637-3.438
		C274.039,646.925,275.082,650.545,275.082,651.19z"/>
</g>
<g>
	<path fill="#FCE300" d="M291.424,656.946c0,2.836-1.646,4.236-3.679,4.236s-3.679-1.4-3.679-4.236c0-3.205,4.049-5.342,4.344-7.553
		C288.654,647.57,291.424,655.528,291.424,656.946z"/>
	<path fill="#FBAE17" d="M289.131,658.773c0,1.291-0.621,1.929-1.386,1.929s-1.386-0.638-1.386-1.929
		c0-1.457,1.525-2.43,1.637-3.438C288.088,654.508,289.131,658.128,289.131,658.773z"/>
</g>
<g>
	<path fill="#FCE300" d="M305.598,653.722c0,2.836-1.646,4.236-3.678,4.236c-2.032,0-3.68-1.4-3.68-4.236
		c0-3.205,4.05-5.342,4.345-7.553C302.828,644.346,305.598,652.304,305.598,653.722z"/>
	<path fill="#FBAE17" d="M303.305,655.549c0,1.291-0.62,1.929-1.385,1.929c-0.766,0-1.386-0.638-1.386-1.929
		c0-1.457,1.525-2.43,1.636-3.438C302.262,651.283,303.305,654.903,303.305,655.549z"/>
</g>
<g>
	<path fill="#FCE300" d="M318.142,664.718c0,2.836-1.646,4.236-3.678,4.236c-2.032,0-3.68-1.4-3.68-4.236
		c0-3.205,4.05-5.342,4.345-7.553C315.372,655.342,318.142,663.3,318.142,664.718z"/>
	<path fill="#FBAE17" d="M315.849,666.545c0,1.291-0.62,1.929-1.385,1.929c-0.766,0-1.386-0.638-1.386-1.929
		c0-1.457,1.525-2.43,1.636-3.438C314.806,662.279,315.849,665.899,315.849,666.545z"/>
</g>
<g>
	<polygon opacity="0.5" fill="#FFFFFF" points="255.035,680.582 260.109,675.508 260.109,672.68 255.035,677.754 	"/>
	<polygon opacity="0.5" fill="#FFFFFF" points="255.035,689.07 260.109,683.996 260.109,681.168 255.035,686.242 	"/>
	<polygon opacity="0.5" fill="#FFFFFF" points="255.035,697.031 260.109,691.957 260.109,689.129 255.035,694.203 	"/>
</g>
<g>
	<polygon opacity="0.5" fill="#FFFFFF" points="271.16,666.706 276.233,661.632 276.233,658.804 271.16,663.878 	"/>
	<polygon opacity="0.5" fill="#FFFFFF" points="271.16,675.194 276.233,670.12 276.233,667.292 271.16,672.366 	"/>
	<polygon opacity="0.5" fill="#FFFFFF" points="271.16,683.155 276.233,678.081 276.233,675.253 271.16,680.327 	"/>
</g>
<g>
	<polygon opacity="0.5" fill="#FFFFFF" points="285.209,674.608 290.282,669.534 290.282,666.706 285.209,671.78 	"/>
	<polygon opacity="0.5" fill="#FFFFFF" points="285.209,683.097 290.282,678.022 290.282,675.194 285.209,680.269 	"/>
	<polygon opacity="0.5" fill="#FFFFFF" points="285.209,691.058 290.282,685.983 290.282,683.155 285.209,688.229 	"/>
</g>
<g>
	<polygon opacity="0.5" fill="#FFFFFF" points="299.383,671.691 304.457,666.617 304.457,663.789 299.383,668.863 	"/>
	<polygon opacity="0.5" fill="#FFFFFF" points="299.383,680.18 304.457,675.105 304.457,672.277 299.383,677.352 	"/>
	<polygon opacity="0.5" fill="#FFFFFF" points="299.383,688.141 304.457,683.066 304.457,680.238 299.383,685.312 	"/>
</g>
<g>
	<polygon opacity="0.5" fill="#FFFFFF" points="311.927,679.916 317.001,674.842 317.001,672.014 311.927,677.088 	"/>
	<polygon opacity="0.5" fill="#FFFFFF" points="311.927,688.404 317.001,683.33 317.001,680.502 311.927,685.576 	"/>
	<polygon opacity="0.5" fill="#FFFFFF" points="311.927,696.365 317.001,691.291 317.001,688.463 311.927,693.537 	"/>
</g>
<circle fill="#5E5753" cx="328.5" cy="693.914" r="1.5"/>
<circle fill="#5E5753" cx="300.534" cy="696.365" r="1.5"/>
<circle fill="#5E5753" cx="271.784" cy="691.058" r="1.5"/>
<circle fill="#5E5753" cx="242.628" cy="697.661" r="1.5"/>
<circle fill="#5E5753" cx="273.284" cy="705.838" r="1.5"/>
<rect x="277.375" y="696.365" fill="#DB3490" width="2.459" height="0.666"/>
<rect x="301.919" y="709.72" fill="#DB3490" width="2.458" height="0.666"/>
<rect x="291.484" y="700.433" transform="matrix(0.9361 0.3516 -0.3516 0.9361 265.1164 -58.1755)" fill="#009BD2" width="2.458" height="0.667"/>
<rect x="322.373" y="695.081" transform="matrix(0.9361 0.3516 -0.3516 0.9361 265.2069 -69.3792)" fill="#9C5248" width="2.458" height="0.667"/>
<rect x="264.672" y="704.005" transform="matrix(0.9361 0.3516 -0.3516 0.9361 264.6599 -48.5192)" fill="#9C5248" width="2.458" height="0.667"/>
<rect x="294.019" y="688.13" transform="matrix(0.9362 0.3515 -0.3515 0.9362 260.8473 -59.8482)" fill="#FCE300" width="2.459" height="0.667"/>
<rect x="308.287" y="706.26" transform="matrix(0.9362 0.3515 -0.3515 0.9362 268.131 -63.7064)" fill="#FCE300" width="2.459" height="0.667"/>
<rect x="248.567" y="694.974" fill="#DB3490" width="2.459" height="0.666"/>
<rect x="273.111" y="708.328" fill="#DB3490" width="2.458" height="0.666"/>
<rect x="262.676" y="699.042" transform="matrix(0.9361 0.3516 -0.3516 0.9361 262.7872 -48.1343)" fill="#009BD2" width="2.458" height="0.667"/>
<rect x="235.865" y="702.613" transform="matrix(0.9361 0.3516 -0.3516 0.9361 262.3306 -38.478)" fill="#9C5248" width="2.458" height="0.667"/>
<rect x="265.212" y="686.738" transform="matrix(0.9362 0.3515 -0.3515 0.9362 258.5197 -49.8107)" fill="#FCE300" width="2.459" height="0.667"/>
<rect x="279.479" y="704.869" transform="matrix(0.9362 0.3515 -0.3515 0.9362 265.8034 -53.6688)" fill="#FCE300" width="2.459" height="0.667"/>
<rect x="306.666" y="697.433" fill="#DB3490" width="2.459" height="0.666"/>
<rect x="331.21" y="710.787" fill="#DB3490" width="2.458" height="0.666"/>
<rect x="320.775" y="701.501" transform="matrix(0.9361 0.3516 -0.3516 0.9361 267.3625 -68.4074)" fill="#009BD2" width="2.458" height="0.667"/>
<rect x="293.964" y="705.072" transform="matrix(0.9361 0.3516 -0.3516 0.9361 266.9059 -58.7512)" fill="#9C5248" width="2.458" height="0.667"/>
<rect x="323.31" y="689.197" transform="matrix(0.9362 0.3515 -0.3515 0.9362 263.0917 -70.0762)" fill="#FCE300" width="2.459" height="0.667"/>
<rect x="337.578" y="707.328" transform="matrix(0.9362 0.3515 -0.3515 0.9362 270.3755 -73.9344)" fill="#FCE300" width="2.459" height="0.667"/>
<g>
	<path fill="#985530" d="M289.681,188.11c0,52.354-16.179,94.794-36.132,94.794H46.181c-19.953,0-36.132-42.44-36.132-94.794l0,0
		c3.78-3.78,16.179,10.861,36.132,10.861h207.368C273.502,198.972,289.681,177.163,289.681,188.11L289.681,188.11z"/>
	<path fill="#995631" d="M287.646,188.749c0,51.591-15.943,93.414-35.605,93.414H47.69c-19.663,0-35.606-41.823-35.606-93.414l0,0
		c3.725-3.726,15.944,10.703,35.606,10.703h204.35C271.702,199.452,287.646,177.961,287.646,188.749L287.646,188.749z"/>
	<path fill="#9A5732" d="M285.61,189.388c0,50.829-15.708,92.034-35.08,92.034H49.199c-19.372,0-35.081-41.205-35.081-92.034l0,0
		c3.67-3.671,15.708,10.545,35.081,10.545H250.53C269.902,199.933,285.61,178.759,285.61,189.388L285.61,189.388z"/>
	<path fill="#9B5833" d="M283.575,190.025c0,50.067-15.472,90.655-34.554,90.655H50.708c-19.082,0-34.554-40.588-34.554-90.655l0,0
		c3.615-3.615,15.473,10.388,34.554,10.388h198.313C268.104,200.413,283.575,179.557,283.575,190.025L283.575,190.025z"/>
	<path fill="#9C5934" d="M281.54,190.664c0,49.306-15.236,89.275-34.028,89.275H52.218c-18.791,0-34.028-39.97-34.028-89.275l0,0
		c3.56-3.56,15.237,10.229,34.028,10.229h195.294C266.304,200.894,281.54,180.354,281.54,190.664L281.54,190.664z"/>
	<path fill="#9D5A35" d="M279.505,191.303c0,48.544-15.001,87.896-33.502,87.896H53.727c-18.501,0-33.502-39.352-33.502-87.896l0,0
		c3.504-3.505,15.001,10.071,33.502,10.071h192.276C264.504,201.374,279.505,181.152,279.505,191.303L279.505,191.303z"/>
	<path fill="#9E5B36" d="M277.47,191.941c0,47.781-14.766,86.516-32.976,86.516H55.236c-18.21,0-32.977-38.734-32.977-86.516l0,0
		c3.449-3.45,14.766,9.913,32.977,9.913h189.258C262.704,201.854,277.47,181.95,277.47,191.941L277.47,191.941z"/>
	<path fill="#9F5C37" d="M275.436,192.58c0,47.02-14.531,85.135-32.451,85.135H56.746c-17.92,0-32.451-38.115-32.451-85.135l0,0
		c3.395-3.396,14.531,9.755,32.451,9.755h186.239C260.904,202.335,275.436,182.748,275.436,192.58L275.436,192.58z"/>
	<path fill="#A05D38" d="M273.4,193.218c0,46.258-14.296,83.756-31.925,83.756H58.254c-17.629,0-31.925-37.498-31.925-83.756l0,0
		c3.339-3.34,14.295,9.597,31.925,9.597h183.221C259.104,202.814,273.4,183.546,273.4,193.218L273.4,193.218z"/>
	<path fill="#A15D39" d="M271.364,193.856c0,45.495-14.059,82.376-31.397,82.376H59.764c-17.339,0-31.399-36.881-31.399-82.376l0,0
		c3.285-3.285,14.06,9.438,31.399,9.438h180.203C257.306,203.295,271.364,184.344,271.364,193.856L271.364,193.856z"/>
	<path fill="#A25E3A" d="M269.33,194.495c0,44.733-13.824,80.996-30.873,80.996H61.273c-17.049,0-30.873-36.263-30.873-80.996l0,0
		c3.229-3.23,13.824,9.28,30.873,9.28h177.184C255.506,203.775,269.33,185.142,269.33,194.495L269.33,194.495z"/>
	<path fill="#A35F3B" d="M267.295,195.133c0,43.972-13.589,79.617-30.347,79.617H62.782c-16.758,0-30.347-35.646-30.347-79.617l0,0
		c3.174-3.175,13.589,9.123,30.347,9.123h174.167C253.706,204.256,267.295,185.938,267.295,195.133L267.295,195.133z"/>
	<path fill="#A4603C" d="M265.259,195.771c0,43.21-13.353,78.237-29.82,78.237H64.291c-16.468,0-29.821-35.027-29.821-78.237l0,0
		c3.12-3.12,13.354,8.965,29.821,8.965h171.147C251.906,204.736,265.259,186.736,265.259,195.771L265.259,195.771z"/>
	<path fill="#A5613D" d="M263.225,196.41c0,42.447-13.117,76.857-29.295,76.857H65.8c-16.177,0-29.295-34.41-29.295-76.857l0,0
		c3.064-3.064,13.118,8.807,29.295,8.807H233.93C250.107,205.217,263.225,187.534,263.225,196.41L263.225,196.41z"/>
	<path fill="#A6623E" d="M261.189,197.049c0,41.686-12.882,75.478-28.77,75.478H67.31c-15.887,0-28.77-33.792-28.77-75.478l0,0
		c3.01-3.01,12.883,8.648,28.77,8.648h165.11C248.308,205.697,261.189,188.332,261.189,197.049L261.189,197.049z"/>
	<path fill="#A7633F" d="M259.154,197.688c0,40.924-12.646,74.098-28.243,74.098H68.818c-15.597,0-28.243-33.174-28.243-74.098l0,0
		c2.954-2.955,12.646,8.49,28.243,8.49h162.093C246.508,206.178,259.154,189.13,259.154,197.688L259.154,197.688z"/>
	<path fill="#A86440" d="M257.119,198.326c0,40.161-12.41,72.718-27.717,72.718H70.328c-15.306,0-27.717-32.557-27.717-72.718l0,0
		c2.899-2.9,12.411,8.332,27.717,8.332h159.075C244.709,206.658,257.119,189.928,257.119,198.326L257.119,198.326z"/>
	<path fill="#A96541" d="M255.084,198.964c0,39.399-12.175,71.339-27.191,71.339H71.837c-15.016,0-27.191-31.939-27.191-71.339l0,0
		c2.845-2.845,12.176,8.175,27.191,8.175h156.056C242.909,207.139,255.084,190.726,255.084,198.964L255.084,198.964z"/>
	<path fill="#AA6642" d="M253.049,199.603c0,38.638-11.939,69.958-26.665,69.958H73.346c-14.725,0-26.665-31.32-26.665-69.958l0,0
		c2.789-2.79,11.94,8.017,26.665,8.017h153.038C241.109,207.619,253.049,191.523,253.049,199.603L253.049,199.603z"/>
	<path fill="#AB6742" d="M251.014,200.241c0,37.876-11.704,68.579-26.139,68.579H74.855c-14.436,0-26.14-30.703-26.14-68.579l0,0
		c2.734-2.735,11.704,7.858,26.14,7.858h150.02C239.31,208.1,251.014,192.321,251.014,200.241L251.014,200.241z"/>
	<path fill="#AC6843" d="M248.979,200.88c0,37.112-11.469,67.198-25.613,67.198H76.364c-14.145,0-25.613-30.086-25.613-67.198l0,0
		c2.679-2.681,11.469,7.7,25.613,7.7h147.001C237.51,208.58,248.979,193.119,248.979,200.88L248.979,200.88z"/>
	<path fill="#AD6944" d="M246.943,201.518c0,36.352-11.233,65.82-25.087,65.82H77.874c-13.854,0-25.087-29.469-25.087-65.82l0,0
		c2.624-2.624,11.233,7.543,25.087,7.543h143.983C235.71,209.061,246.943,193.917,246.943,201.518L246.943,201.518z"/>
	<path fill="#AE6A45" d="M244.908,202.156c0,35.59-10.998,64.439-24.562,64.439H79.383c-13.563,0-24.562-28.85-24.562-64.439l0,0
		c2.57-2.569,10.999,7.385,24.562,7.385h140.964C233.91,209.541,244.908,194.715,244.908,202.156L244.908,202.156z"/>
	<path fill="#AF6B46" d="M242.873,202.795c0,34.827-10.762,63.06-24.035,63.06H80.892c-13.273,0-24.036-28.232-24.036-63.06l0,0
		c2.514-2.515,10.763,7.227,24.036,7.227h137.946C232.111,210.021,242.873,195.513,242.873,202.795L242.873,202.795z"/>
	<path fill="#B06C47" d="M240.838,203.434c0,34.065-10.526,61.68-23.509,61.68H82.401c-12.983,0-23.51-27.614-23.51-61.68l0,0
		c2.46-2.46,10.527,7.067,23.51,7.067h134.928C230.312,210.501,240.838,196.311,240.838,203.434L240.838,203.434z"/>
	<path fill="#B16D48" d="M238.803,204.071c0,33.304-10.291,60.301-22.982,60.301H83.91c-12.692,0-22.984-26.997-22.984-60.301l0,0
		c2.404-2.404,10.292,6.91,22.984,6.91h131.91C228.512,210.981,238.803,197.108,238.803,204.071L238.803,204.071z"/>
	<path fill="#B26D49" d="M236.769,204.71c0,32.542-10.056,58.921-22.458,58.921H85.419c-12.402,0-22.458-26.379-22.458-58.921l0,0
		c2.349-2.35,10.056,6.752,22.458,6.752h128.891C226.713,211.462,236.769,197.906,236.769,204.71L236.769,204.71z"/>
	<path fill="#B36E4A" d="M234.732,205.349c0,31.78-9.82,57.541-21.932,57.541H86.928c-12.111,0-21.932-25.761-21.932-57.541l0,0
		c2.293-2.295,9.821,6.594,21.932,6.594h125.873C224.912,211.942,234.732,198.704,234.732,205.349L234.732,205.349z"/>
	<path fill="#B46F4B" d="M232.697,205.987c0,31.018-9.584,56.161-21.405,56.161H88.438c-11.821,0-21.406-25.144-21.406-56.161l0,0
		c2.239-2.239,9.585,6.436,21.406,6.436h122.854C223.113,212.423,232.697,199.502,232.697,205.987L232.697,205.987z"/>
	<path fill="#B5704C" d="M230.663,206.625c0,30.256-9.35,54.781-20.88,54.781H89.947c-11.53,0-20.88-24.525-20.88-54.781l0,0
		c2.184-2.184,9.35,6.278,20.88,6.278h119.836C221.313,212.903,230.663,200.299,230.663,206.625L230.663,206.625z"/>
	<path fill="#B6714D" d="M228.628,207.264c0,29.494-9.114,53.402-20.354,53.402H91.456c-11.24,0-20.354-23.908-20.354-53.402l0,0
		c2.129-2.129,9.114,6.12,20.354,6.12h116.817C219.514,213.384,228.628,201.098,228.628,207.264L228.628,207.264z"/>
	<path fill="#B7724E" d="M226.593,207.902c0,28.731-8.879,52.021-19.828,52.021h-113.8c-10.949,0-19.828-23.29-19.828-52.021l0,0
		c2.074-2.074,8.879,5.962,19.828,5.962h113.8C217.714,213.864,226.593,201.895,226.593,207.902L226.593,207.902z"/>
	<path fill="#B7734F" d="M224.558,208.541c0,27.97-8.643,50.643-19.302,50.643H94.474c-10.659,0-19.302-22.673-19.302-50.643l0,0
		c2.019-2.02,8.644,5.803,19.302,5.803h110.782C215.915,214.344,224.558,202.693,224.558,208.541L224.558,208.541z"/>
	<path fill="#B87450" d="M222.522,209.18c0,27.207-8.407,49.262-18.776,49.262H95.983c-10.369,0-18.776-22.055-18.776-49.262l0,0
		c1.964-1.965,8.407,5.645,18.776,5.645h107.763C214.115,214.824,222.522,203.49,222.522,209.18L222.522,209.18z"/>
	<path fill="#B97551" d="M220.487,209.818c0,26.445-8.172,47.883-18.25,47.883H97.493c-10.079,0-18.25-21.438-18.25-47.883l0,0
		c1.909-1.91,8.172,5.486,18.25,5.486h104.745C212.315,215.305,220.487,204.289,220.487,209.818L220.487,209.818z"/>
	<path fill="#BA7652" d="M218.452,210.456c0,25.684-7.937,46.503-17.725,46.503H99.001c-9.788,0-17.724-20.819-17.724-46.503l0,0
		c1.854-1.854,7.937,5.329,17.724,5.329h101.726C210.516,215.785,218.452,205.086,218.452,210.456L218.452,210.456z"/>
	<path fill="#BB7753" d="M216.417,211.095c0,24.921-7.7,45.123-17.198,45.123h-98.708c-9.497,0-17.198-20.202-17.198-45.123l0,0
		c1.799-1.8,7.701,5.171,17.198,5.171h98.708C208.717,216.266,216.417,205.884,216.417,211.095L216.417,211.095z"/>
	<path fill="#BC7854" d="M214.382,211.733c0,24.159-7.466,43.743-16.672,43.743h-95.69c-9.207,0-16.672-19.584-16.672-43.743l0,0
		c1.743-1.745,7.466,5.013,16.672,5.013h95.69C206.916,216.746,214.382,206.682,214.382,211.733L214.382,211.733z"/>
	<path fill="#BD7955" d="M212.348,212.371c0,23.398-7.23,42.364-16.147,42.364h-92.671c-8.917,0-16.147-18.966-16.147-42.364l0,0
		c1.689-1.688,7.23,4.855,16.147,4.855H196.2C205.117,217.227,212.348,207.479,212.348,212.371L212.348,212.371z"/>
	<path fill="#BE7A56" d="M210.312,213.01c0,22.636-6.994,40.984-15.62,40.984h-89.653c-8.626,0-15.621-18.349-15.621-40.984l0,0
		c1.634-1.634,6.995,4.697,15.621,4.697h89.653C203.317,217.707,210.312,208.277,210.312,213.01L210.312,213.01z"/>
	<path fill="#BF7B57" d="M208.276,213.648c0,21.873-6.759,39.604-15.095,39.604h-86.634c-8.335,0-15.095-17.731-15.095-39.604l0,0
		c1.579-1.579,6.759,4.539,15.095,4.539h86.634C201.518,218.188,208.276,209.075,208.276,213.648L208.276,213.648z"/>
	<path fill="#C07C58" d="M206.242,214.287c0,21.111-6.524,38.225-14.569,38.225h-83.616c-8.045,0-14.569-17.113-14.569-38.225l0,0
		c1.524-1.524,6.524,4.381,14.569,4.381h83.616C199.718,218.668,206.242,209.873,206.242,214.287L206.242,214.287z"/>
	<path fill="#C17D59" d="M204.207,214.926c0,20.35-6.288,36.845-14.043,36.845h-80.598c-7.755,0-14.043-16.495-14.043-36.845l0,0
		c1.468-1.47,6.288,4.223,14.043,4.223h80.598C197.919,219.148,204.207,210.671,204.207,214.926L204.207,214.926z"/>
	<path fill="#C27E5A" d="M202.172,215.563c0,19.588-6.053,35.466-13.518,35.466h-77.58c-7.464,0-13.517-15.878-13.517-35.466l0,0
		c1.414-1.414,6.052,4.065,13.517,4.065h77.58C196.119,219.629,202.172,211.469,202.172,215.563L202.172,215.563z"/>
	<path fill="#C37E5B" d="M200.137,216.202c0,18.826-5.817,34.086-12.991,34.086h-74.562c-7.174,0-12.991-15.26-12.991-34.086l0,0
		c1.358-1.359,5.817,3.907,12.991,3.907h74.562C194.319,220.109,200.137,212.267,200.137,216.202L200.137,216.202z"/>
	<path fill="#C47F5C" d="M198.102,216.841c0,18.063-5.582,32.705-12.465,32.705h-71.543c-6.883,0-12.465-14.642-12.465-32.705l0,0
		c1.304-1.304,5.582,3.749,12.465,3.749h71.543C192.52,220.59,198.102,213.064,198.102,216.841L198.102,216.841z"/>
	<path fill="#C5805D" d="M196.066,217.479c0,17.301-5.346,31.325-11.939,31.325h-68.524c-6.593,0-11.939-14.024-11.939-31.325l0,0
		c1.249-1.249,5.346,3.59,11.939,3.59h68.524C190.721,221.069,196.066,213.862,196.066,217.479L196.066,217.479z"/>
	<path fill="#C6815E" d="M194.031,218.118c0,16.539-5.11,29.945-11.413,29.945h-65.507c-6.302,0-11.413-13.406-11.413-29.945l0,0
		c1.193-1.194,5.11,3.432,11.413,3.432h65.507C188.921,221.55,194.031,214.66,194.031,218.118L194.031,218.118z"/>
	<path fill="#C7825F" d="M191.996,218.756c0,15.778-4.875,28.566-10.887,28.566h-62.489c-6.012,0-10.887-12.788-10.887-28.566l0,0
		c1.139-1.139,4.875,3.274,10.887,3.274h62.489C187.121,222.03,191.996,215.458,191.996,218.756L191.996,218.756z"/>
	<path fill="#C88360" d="M189.961,219.395c0,15.016-4.64,27.187-10.361,27.187h-59.47c-5.722,0-10.361-12.171-10.361-27.187l0,0
		c1.083-1.084,4.64,3.116,10.361,3.116h59.47C185.321,222.511,189.961,216.256,189.961,219.395L189.961,219.395z"/>
</g>
<g>
	<path fill="#FCBEC3" d="M297.982,178.326c0,29.807-22.4,62.648-52.206,62.648c-10.119,0-11.731-18.539-23.464-19.126
		c-8.056-0.403-14.811,10.444-22.877,10.444c-11.585,0-30.648-12.204-42.233-12.204c-9.347,0-32.144,12.204-41.49,12.204
		c-8.933,0-21.435-11.031-30.368-11.031c-6.059,0-23.543,11.031-29.603,11.031c-29.805,0-53.966-24.16-53.966-53.967l0,0
		c0-29.803,24.161-53.965,53.966-53.965c0,0,51.663-12.91,69.842-12.91c28.891,0,118.433,12.91,118.433,12.91
		C273.822,124.361,297.982,148.523,297.982,178.326L297.982,178.326z"/>
	<path fill="#FCBFC4" d="M297.491,178.144c0,29.217-22.326,61.407-52.033,61.407c-9.918,0-11.692-18.172-23.386-18.747
		c-8.028-0.395-14.761,10.237-22.801,10.237c-11.547,0-30.547-11.962-42.094-11.962c-9.315,0-32.037,11.962-41.352,11.962
		c-8.903,0-21.363-10.812-30.267-10.812c-6.039,0-23.465,10.812-29.505,10.812c-29.706,0-53.787-23.681-53.787-52.897l0,0
		c0-29.212,24.081-52.895,53.787-52.895c0,0,51.492-12.654,69.61-12.654c28.796,0,118.04,12.654,118.04,12.654
		C273.411,125.249,297.491,148.932,297.491,178.144L297.491,178.144z"/>
	<path fill="#FCC0C5" d="M296.999,177.962c0,28.625-22.252,60.165-51.859,60.165c-9.718,0-11.653-17.805-23.309-18.368
		c-8.002-0.388-14.712,10.03-22.725,10.03c-11.508,0-30.445-11.72-41.953-11.72c-9.285,0-31.93,11.72-41.214,11.72
		c-8.874,0-21.292-10.594-30.167-10.594c-6.019,0-23.387,10.594-29.406,10.594c-29.607,0-53.607-23.202-53.607-51.827l0,0
		c0-28.622,24-51.827,53.607-51.827c0,0,51.32-12.398,69.378-12.398c28.699,0,117.647,12.398,117.647,12.398
		C272.999,126.135,296.999,149.34,296.999,177.962L296.999,177.962z"/>
	<path fill="#FCC1C6" d="M296.508,177.779c0,28.035-22.177,58.924-51.687,58.924c-9.518,0-11.614-17.437-23.23-17.989
		c-7.975-0.379-14.662,9.823-22.648,9.823c-11.47,0-30.344-11.479-41.813-11.479c-9.254,0-31.823,11.479-41.076,11.479
		c-8.845,0-21.222-10.375-30.066-10.375c-5.999,0-23.309,10.375-29.308,10.375c-29.508,0-53.429-22.723-53.429-50.758l0,0
		c0-28.031,23.921-50.756,53.429-50.756c0,0,51.149-12.143,69.146-12.143c28.604,0,117.254,12.143,117.254,12.143
		C272.588,127.023,296.508,149.748,296.508,177.779L296.508,177.779z"/>
	<path fill="#FCC2C7" d="M296.017,177.598c0,27.443-22.104,57.682-51.514,57.682c-9.316,0-11.575-17.069-23.152-17.609
		c-7.948-0.371-14.613,9.616-22.572,9.616c-11.432,0-30.242-11.237-41.673-11.237c-9.224,0-31.717,11.237-40.939,11.237
		c-8.814,0-21.15-10.157-29.965-10.157c-5.979,0-23.231,10.157-29.21,10.157c-29.409,0-53.25-22.245-53.25-49.688l0,0
		c0-27.441,23.841-49.687,53.25-49.687c0,0,50.978-11.887,68.915-11.887c28.508,0,116.862,11.887,116.862,11.887
		C272.177,127.911,296.017,150.157,296.017,177.598L296.017,177.598z"/>
	<path fill="#FCC3C7" d="M295.525,177.416c0,26.853-22.029,56.439-51.34,56.439c-9.116,0-11.537-16.701-23.075-17.23
		c-7.922-0.363-14.563,9.409-22.497,9.409c-11.393,0-30.14-10.995-41.532-10.995c-9.192,0-31.611,10.995-40.802,10.995
		c-8.785,0-21.079-9.938-29.863-9.938c-5.959,0-23.153,9.938-29.113,9.938c-29.31,0-53.07-21.766-53.07-48.618l0,0
		c0-26.85,23.76-48.618,53.07-48.618c0,0,50.806-11.631,68.683-11.631c28.412,0,116.469,11.631,116.469,11.631
		C271.766,128.798,295.525,150.566,295.525,177.416L295.525,177.416z"/>
	<path fill="#FCC4C8" d="M295.034,177.234c0,26.262-21.955,55.198-51.167,55.198c-8.916,0-11.498-16.335-22.996-16.852
		c-7.896-0.355-14.516,9.201-22.422,9.201c-11.354,0-30.038-10.752-41.393-10.752c-9.161,0-31.504,10.752-40.664,10.752
		c-8.755,0-21.008-9.72-29.763-9.72c-5.938,0-23.075,9.72-29.014,9.72c-29.211,0-52.891-21.286-52.891-47.548l0,0
		c0-26.26,23.68-47.549,52.891-47.549c0,0,50.634-11.375,68.451-11.375c28.315,0,116.075,11.375,116.075,11.375
		C271.354,129.686,295.034,150.975,295.034,177.234L295.034,177.234z"/>
	<path fill="#FCC5C9" d="M294.542,177.051c0,25.671-21.88,53.957-50.993,53.957c-8.715,0-11.459-15.967-22.919-16.473
		c-7.868-0.348-14.466,8.995-22.346,8.995c-11.315,0-29.937-10.511-41.252-10.511c-9.13,0-31.397,10.511-40.526,10.511
		c-8.726,0-20.937-9.501-29.663-9.501c-5.918,0-22.997,9.501-28.916,9.501c-29.112,0-52.712-20.809-52.712-46.479l0,0
		c0-25.668,23.6-46.478,52.712-46.478c0,0,50.463-11.119,68.219-11.119c28.22,0,115.683,11.119,115.683,11.119
		C270.942,130.573,294.542,151.383,294.542,177.051L294.542,177.051z"/>
	<path fill="#FCC5CA" d="M294.051,176.869c0,25.08-21.806,52.715-50.82,52.715c-8.515,0-11.42-15.6-22.841-16.094
		c-7.842-0.339-14.417,8.789-22.27,8.789c-11.276,0-29.834-10.27-41.112-10.27c-9.1,0-31.291,10.27-40.388,10.27
		c-8.697,0-20.867-9.283-29.562-9.283c-5.898,0-22.919,9.283-28.818,9.283c-29.013,0-52.533-20.33-52.533-45.41l0,0
		c0-25.078,23.52-45.409,52.533-45.409c0,0,50.292-10.862,67.988-10.862c28.124,0,115.289,10.862,115.289,10.862
		C270.531,131.46,294.051,151.791,294.051,176.869L294.051,176.869z"/>
	<path fill="#FCC6CB" d="M293.56,176.688c0,24.489-21.731,51.473-50.647,51.473c-8.313,0-11.381-15.232-22.763-15.714
		c-7.814-0.331-14.367,8.581-22.193,8.581c-11.238,0-29.733-10.027-40.973-10.027c-9.068,0-31.184,10.027-40.25,10.027
		c-8.667,0-20.795-9.064-29.461-9.064c-5.878,0-22.841,9.064-28.72,9.064c-28.914,0-52.354-19.851-52.354-44.34l0,0
		c0-24.487,23.44-44.34,52.354-44.34c0,0,50.121-10.607,67.756-10.607c28.028,0,114.896,10.607,114.896,10.607
		C270.121,132.348,293.56,152.2,293.56,176.688L293.56,176.688z"/>
	<path fill="#FCC7CC" d="M293.067,176.505c0,23.898-21.657,50.231-50.474,50.231c-8.113,0-11.342-14.865-22.686-15.336
		c-7.788-0.322-14.318,8.375-22.117,8.375c-11.199,0-29.631-9.785-40.832-9.785c-9.037,0-31.077,9.785-40.113,9.785
		c-8.637,0-20.724-8.846-29.36-8.846c-5.858,0-22.763,8.846-28.621,8.846c-28.815,0-52.175-19.372-52.175-43.271l0,0
		c0-23.897,23.359-43.271,52.175-43.271c0,0,49.949-10.351,67.523-10.351c27.934,0,114.504,10.351,114.504,10.351
		C269.709,133.234,293.067,152.607,293.067,176.505L293.067,176.505z"/>
	<path fill="#FCC8CD" d="M292.576,176.323c0,23.308-21.583,48.989-50.301,48.989c-7.912,0-11.302-14.497-22.607-14.956
		c-7.761-0.315-14.269,8.167-22.041,8.167c-11.161,0-29.529-9.543-40.691-9.543c-9.007,0-30.971,9.543-39.976,9.543
		c-8.608,0-20.653-8.627-29.26-8.627c-5.837,0-22.684,8.627-28.523,8.627c-28.715,0-51.996-18.893-51.996-42.2l0,0
		c0-23.307,23.28-42.201,51.996-42.201c0,0,49.778-10.095,67.292-10.095c27.837,0,114.11,10.095,114.11,10.095
		C269.298,134.123,292.576,153.017,292.576,176.323L292.576,176.323z"/>
	<path fill="#FCC9CE" d="M292.085,176.142c0,22.716-21.509,47.747-50.128,47.747c-7.712,0-11.263-14.13-22.529-14.576
		c-7.734-0.308-14.219,7.959-21.965,7.959c-11.123,0-29.428-9.301-40.552-9.301c-8.976,0-30.864,9.301-39.837,9.301
		c-8.578,0-20.582-8.407-29.159-8.407c-5.817,0-22.606,8.407-28.425,8.407c-28.617,0-51.816-18.414-51.816-41.13l0,0
		c0-22.716,23.199-41.132,51.816-41.132c0,0,49.606-9.839,67.061-9.839c27.74,0,113.717,9.839,113.717,9.839
		C268.887,135.01,292.085,153.426,292.085,176.142L292.085,176.142z"/>
	<path fill="#FCCACF" d="M291.594,175.959c0,22.126-21.435,46.506-49.955,46.506c-7.512,0-11.224-13.763-22.451-14.197
		c-7.708-0.3-14.17,7.752-21.89,7.752c-11.084,0-29.325-9.059-40.411-9.059c-8.944,0-30.757,9.059-39.7,9.059
		c-8.548,0-20.511-8.188-29.058-8.188c-5.798,0-22.528,8.188-28.327,8.188c-28.518,0-51.637-17.935-51.637-40.061l0,0
		c0-22.125,23.119-40.062,51.637-40.062c0,0,49.435-9.584,66.829-9.584c27.645,0,113.324,9.584,113.324,9.584
		C268.475,135.897,291.594,153.834,291.594,175.959L291.594,175.959z"/>
	<path fill="#FCCBCF" d="M291.102,175.776c0,21.535-21.359,45.265-49.781,45.265c-7.311,0-11.186-13.395-22.373-13.818
		c-7.682-0.292-14.121,7.545-21.813,7.545c-11.046,0-29.225-8.816-40.271-8.816c-8.914,0-30.651,8.816-39.562,8.816
		c-8.519,0-20.44-7.971-28.957-7.971c-5.777,0-22.45,7.971-28.229,7.971c-28.419,0-51.458-17.456-51.458-38.991l0,0
		c0-21.534,23.039-38.992,51.458-38.992c0,0,49.264-9.328,66.598-9.328c27.548,0,112.931,9.328,112.931,9.328
		C268.063,136.784,291.102,154.242,291.102,175.776L291.102,175.776z"/>
	<path fill="#FCCCD0" d="M290.61,175.595c0,20.944-21.286,44.022-49.607,44.022c-7.11,0-11.146-13.027-22.296-13.439
		c-7.654-0.283-14.072,7.339-21.738,7.339c-11.007,0-29.122-8.575-40.131-8.575c-8.883,0-30.544,8.575-39.424,8.575
		c-8.489,0-20.369-7.752-28.856-7.752c-5.758,0-22.372,7.752-28.131,7.752c-28.32,0-51.279-16.978-51.279-37.922l0,0
		c0-20.943,22.959-37.922,51.279-37.922c0,0,49.093-9.072,66.366-9.072c27.453,0,112.538,9.072,112.538,9.072
		C267.652,137.672,290.61,154.651,290.61,175.595L290.61,175.595z"/>
	<path fill="#FCCDD1" d="M290.119,175.412c0,20.354-21.211,42.782-49.435,42.782c-6.909,0-11.107-12.661-22.218-13.062
		c-7.627-0.275-14.022,7.132-21.662,7.132c-10.969,0-29.021-8.334-39.991-8.334c-8.852,0-30.437,8.334-39.286,8.334
		c-8.46,0-20.298-7.533-28.756-7.533c-5.737,0-22.294,7.533-28.032,7.533c-28.221,0-51.1-16.499-51.1-36.853l0,0
		c0-20.353,22.879-36.853,51.1-36.853c0,0,48.921-8.816,66.134-8.816c27.357,0,112.145,8.816,112.145,8.816
		C267.241,138.56,290.119,155.06,290.119,175.412L290.119,175.412z"/>
	<path fill="#FCCED2" d="M289.627,175.23c0,19.763-21.137,41.539-49.261,41.539c-6.709,0-11.068-12.293-22.141-12.682
		c-7.601-0.268-13.973,6.925-21.585,6.925c-10.93,0-28.919-8.092-39.852-8.092c-8.82,0-30.33,8.092-39.148,8.092
		c-8.43,0-20.227-7.314-28.655-7.314c-5.717,0-22.215,7.314-27.934,7.314c-28.123,0-50.921-16.02-50.921-35.782l0,0
		c0-19.763,22.798-35.783,50.921-35.783c0,0,48.749-8.561,65.901-8.561c27.262,0,111.752,8.561,111.752,8.561
		C266.83,139.447,289.627,155.468,289.627,175.23L289.627,175.23z"/>
	<path fill="#FCCFD3" d="M289.136,175.048c0,19.172-21.062,40.298-49.088,40.298c-6.509,0-11.03-11.926-22.062-12.303
		c-7.573-0.259-13.924,6.718-21.51,6.718c-10.892,0-28.817-7.85-39.711-7.85c-8.79,0-30.224,7.85-39.011,7.85
		c-8.401,0-20.156-7.097-28.555-7.097c-5.696,0-22.137,7.097-27.836,7.097c-28.023,0-50.741-15.541-50.741-34.713l0,0
		c0-19.172,22.718-34.714,50.741-34.714c0,0,48.578-8.305,65.671-8.305c27.165,0,111.358,8.305,111.358,8.305
		C266.418,140.334,289.136,155.876,289.136,175.048L289.136,175.048z"/>
	<path fill="#FCD0D4" d="M288.645,174.866c0,18.581-20.988,39.056-48.915,39.056c-6.308,0-10.99-11.558-21.984-11.924
		c-7.547-0.251-13.874,6.512-21.434,6.512c-10.853,0-28.716-7.608-39.57-7.608c-8.759,0-30.118,7.608-38.874,7.608
		c-8.371,0-20.085-6.878-28.454-6.878c-5.676,0-22.059,6.878-27.737,6.878c-27.924,0-50.563-15.062-50.563-33.644l0,0
		c0-18.581,22.639-33.645,50.563-33.645c0,0,48.407-8.049,65.438-8.049c27.07,0,110.965,8.049,110.965,8.049
		C266.007,141.222,288.645,156.285,288.645,174.866L288.645,174.866z"/>
	<path fill="#FCD1D5" d="M288.153,174.684c0,17.99-20.914,37.814-48.742,37.814c-6.107,0-10.951-11.189-21.907-11.544
		c-7.52-0.243-13.824,6.304-21.356,6.304c-10.814,0-28.614-7.366-39.431-7.366c-8.729,0-30.011,7.366-38.736,7.366
		c-8.341,0-20.014-6.659-28.353-6.659c-5.656,0-21.981,6.659-27.64,6.659c-27.825,0-50.383-14.584-50.383-32.574l0,0
		c0-17.99,22.558-32.574,50.383-32.574c0,0,48.235-7.793,65.207-7.793c26.974,0,110.572,7.793,110.572,7.793
		C265.596,142.109,288.153,156.693,288.153,174.684L288.153,174.684z"/>
	<path fill="#FCD2D6" d="M287.661,174.502c0,17.399-20.839,36.573-48.567,36.573c-5.908,0-10.913-10.823-21.83-11.166
		c-7.492-0.235-13.775,6.097-21.28,6.097c-10.776,0-28.513-7.124-39.291-7.124c-8.697,0-29.904,7.124-38.599,7.124
		c-8.312,0-19.942-6.44-28.252-6.44c-5.636,0-21.903,6.44-27.541,6.44c-27.727,0-50.204-14.104-50.204-31.504l0,0
		c0-17.399,22.478-31.505,50.204-31.505c0,0,48.064-7.537,64.976-7.537c26.878,0,110.18,7.537,110.18,7.537
		C265.185,142.997,287.661,157.103,287.661,174.502L287.661,174.502z"/>
	<path fill="#FCD3D7" d="M287.17,174.319c0,16.809-20.766,35.331-48.395,35.331c-5.707,0-10.874-10.455-21.752-10.786
		c-7.466-0.228-13.727,5.89-21.205,5.89c-10.737,0-28.41-6.882-39.15-6.882c-8.667,0-29.798,6.882-38.46,6.882
		c-8.282,0-19.872-6.222-28.151-6.222c-5.616,0-21.825,6.222-27.443,6.222c-27.627,0-50.025-13.626-50.025-30.435l0,0
		c0-16.809,22.398-30.436,50.025-30.436c0,0,47.893-7.281,64.743-7.281c26.782,0,109.787,7.281,109.787,7.281
		C264.773,143.884,287.17,157.511,287.17,174.319L287.17,174.319z"/>
	<path fill="#FCD4D7" d="M286.679,174.138c0,16.218-20.69,34.089-48.222,34.089c-5.506,0-10.835-10.088-21.674-10.406
		c-7.439-0.22-13.677,5.682-21.129,5.682c-10.699,0-28.309-6.641-39.011-6.641c-8.635,0-29.69,6.641-38.323,6.641
		c-8.252,0-19.801-6.003-28.05-6.003c-5.596,0-21.747,6.003-27.345,6.003c-27.528,0-49.847-13.146-49.847-29.364l0,0
		c0-16.219,22.318-29.366,49.847-29.366c0,0,47.721-7.025,64.512-7.025c26.686,0,109.394,7.025,109.394,7.025
		C264.361,144.771,286.679,157.919,286.679,174.138L286.679,174.138z"/>
	<path fill="#FCD5D8" d="M286.187,173.955c0,15.627-20.616,32.849-48.048,32.849c-5.306,0-10.796-9.722-21.596-10.028
		c-7.413-0.212-13.628,5.475-21.053,5.475c-10.661,0-28.207-6.398-38.871-6.398c-8.604,0-29.584,6.398-38.185,6.398
		c-8.223,0-19.729-5.783-27.95-5.783c-5.576,0-21.669,5.783-27.246,5.783c-27.43,0-49.667-12.668-49.667-28.295l0,0
		c0-15.627,22.238-28.296,49.667-28.296c0,0,47.55-6.77,64.279-6.77c26.59,0,109.001,6.77,109.001,6.77
		C263.951,145.659,286.187,158.328,286.187,173.955L286.187,173.955z"/>
	<path fill="#FCD6D9" d="M285.695,173.773c0,15.036-20.542,31.606-47.875,31.606c-5.104,0-10.756-9.354-21.518-9.649
		c-7.387-0.203-13.579,5.268-20.978,5.268c-10.622,0-28.105-6.156-38.73-6.156c-8.573,0-29.477,6.156-38.047,6.156
		c-8.193,0-19.659-5.564-27.85-5.564c-5.555,0-21.59,5.564-27.148,5.564c-27.331,0-49.488-12.188-49.488-27.225l0,0
		c0-15.037,22.157-27.227,49.488-27.227c0,0,47.378-6.514,64.048-6.514c26.495,0,108.608,6.514,108.608,6.514
		C263.539,146.546,285.695,158.736,285.695,173.773L285.695,173.773z"/>
	<path fill="#FCD7DA" d="M285.204,173.592c0,14.445-20.468,30.364-47.702,30.364c-4.904,0-10.717-8.986-21.439-9.271
		c-7.359-0.195-13.529,5.062-20.901,5.062c-10.584,0-28.004-5.915-38.59-5.915c-8.543,0-29.372,5.915-37.91,5.915
		c-8.164,0-19.587-5.347-27.748-5.347c-5.536,0-21.513,5.347-27.051,5.347c-27.231,0-49.309-11.71-49.309-26.155l0,0
		c0-14.447,22.077-26.158,49.309-26.158c0,0,47.207-6.258,63.817-6.258c26.398,0,108.214,6.258,108.214,6.258
		C263.128,147.434,285.204,159.145,285.204,173.592L285.204,173.592z"/>
	<path fill="#FCD8DB" d="M284.713,173.409c0,13.854-20.395,29.122-47.529,29.122c-4.703,0-10.679-8.618-21.361-8.891
		c-7.333-0.188-13.48,4.854-20.826,4.854c-10.545,0-27.901-5.673-38.449-5.673c-8.512,0-29.265,5.673-37.772,5.673
		c-8.134,0-19.517-5.128-27.647-5.128c-5.516,0-21.435,5.128-26.952,5.128c-27.132,0-49.13-11.231-49.13-25.086l0,0
		c0-13.856,21.998-25.088,49.13-25.088c0,0,47.036-6.002,63.585-6.002c26.303,0,107.821,6.002,107.821,6.002
		C262.717,148.321,284.713,159.553,284.713,173.409L284.713,173.409z"/>
	<path fill="#FCD9DC" d="M284.221,173.227c0,13.264-20.318,27.882-47.355,27.882c-4.502,0-10.64-8.251-21.283-8.513
		c-7.306-0.179-13.432,4.648-20.75,4.648c-10.507,0-27.8-5.432-38.31-5.432c-8.48,0-29.158,5.432-37.634,5.432
		c-8.105,0-19.446-4.911-27.547-4.911c-5.495,0-21.357,4.911-26.854,4.911c-27.034,0-48.951-10.754-48.951-24.018l0,0
		c0-13.265,21.917-24.018,48.951-24.018c0,0,46.864-5.747,63.353-5.747c26.207,0,107.429,5.747,107.429,5.747
		C262.306,149.209,284.221,159.962,284.221,173.227L284.221,173.227z"/>
	<path fill="#FCDADD" d="M283.729,173.045c0,12.673-20.245,26.64-47.183,26.64c-4.302,0-10.6-7.884-21.205-8.134
		c-7.279-0.171-13.382,4.441-20.674,4.441c-10.469,0-27.698-5.189-38.17-5.189c-8.45,0-29.051,5.189-37.497,5.189
		c-8.076,0-19.375-4.692-27.446-4.692c-5.475,0-21.278,4.692-26.755,4.692c-26.935,0-48.771-10.274-48.771-22.947l0,0
		c0-12.675,21.836-22.949,48.771-22.949c0,0,46.692-5.491,63.121-5.491c26.111,0,107.036,5.491,107.036,5.491
		C261.895,150.096,283.729,160.37,283.729,173.045L283.729,173.045z"/>
	<path fill="#FCDBDE" d="M283.238,172.862c0,12.082-20.171,25.398-47.01,25.398c-4.101,0-10.561-7.517-21.128-7.755
		c-7.252-0.163-13.332,4.234-20.598,4.234c-10.429,0-27.597-4.947-38.029-4.947c-8.419,0-28.944,4.947-37.358,4.947
		c-8.046,0-19.304-4.473-27.346-4.473c-5.455,0-21.2,4.473-26.658,4.473c-26.836,0-48.592-9.796-48.592-21.878l0,0
		c0-12.083,21.756-21.879,48.592-21.879c0,0,46.522-5.234,62.889-5.234c26.016,0,106.644,5.234,106.644,5.234
		C261.482,150.983,283.238,160.779,283.238,172.862L283.238,172.862z"/>
	<path fill="#FCDCDF" d="M282.746,172.681c0,11.491-20.096,24.156-46.836,24.156c-3.9,0-10.521-7.149-21.05-7.375
		c-7.226-0.155-13.283,4.026-20.521,4.026c-10.391,0-27.495-4.705-37.89-4.705c-8.387,0-28.837,4.705-37.221,4.705
		c-8.016,0-19.233-4.254-27.245-4.254c-5.435,0-21.122,4.254-26.559,4.254c-26.737,0-48.414-9.316-48.414-20.808l0,0
		c0-11.493,21.677-20.81,48.414-20.81c0,0,46.35-4.979,62.658-4.979c25.919,0,106.249,4.979,106.249,4.979
		C261.071,151.871,282.746,161.188,282.746,172.681L282.746,172.681z"/>
	<path fill="#FCDDE0" d="M282.255,172.498c0,10.9-20.021,22.915-46.663,22.915c-3.7,0-10.482-6.781-20.972-6.996
		c-7.198-0.147-13.233,3.819-20.445,3.819c-10.353,0-27.394-4.464-37.75-4.464c-8.356,0-28.73,4.464-37.083,4.464
		c-7.986,0-19.162-4.035-27.144-4.035c-5.415,0-21.044,4.035-26.461,4.035c-26.638,0-48.234-8.838-48.234-19.738l0,0
		c0-10.902,21.596-19.74,48.234-19.74c0,0,46.179-4.723,62.426-4.723c25.823,0,105.857,4.723,105.857,4.723
		C260.66,152.758,282.255,161.596,282.255,172.498L282.255,172.498z"/>
	<path fill="#FCDEE0" d="M281.764,172.316c0,10.31-19.947,21.673-46.49,21.673c-3.499,0-10.443-6.414-20.895-6.617
		c-7.171-0.14-13.184,3.612-20.369,3.612c-10.314,0-27.291-4.222-37.608-4.222c-8.326,0-28.625,4.222-36.946,4.222
		c-7.957,0-19.09-3.816-27.043-3.816c-5.395,0-20.966,3.816-26.363,3.816c-26.539,0-48.055-8.358-48.055-18.668l0,0
		c0-10.312,21.516-18.671,48.055-18.671c0,0,46.008-4.466,62.194-4.466c25.728,0,105.464,4.466,105.464,4.466
		C260.249,153.646,281.764,162.005,281.764,172.316L281.764,172.316z"/>
	<path fill="#FCDFE1" d="M281.272,172.134c0,9.72-19.873,20.432-46.317,20.432c-3.299,0-10.404-6.047-20.816-6.238
		c-7.145-0.131-13.135,3.405-20.293,3.405c-10.275,0-27.189-3.979-37.47-3.979c-8.294,0-28.517,3.979-36.808,3.979
		c-7.927,0-19.019-3.598-26.942-3.598c-5.375,0-20.888,3.598-26.265,3.598c-26.44,0-47.875-7.879-47.875-17.599l0,0
		c0-9.721,21.436-17.601,47.875-17.601c0,0,45.836-4.211,61.962-4.211c25.632,0,105.071,4.211,105.071,4.211
		C259.838,154.533,281.272,162.413,281.272,172.134L281.272,172.134z"/>
	<path fill="#FCE0E2" d="M280.781,171.952c0,9.128-19.8,19.189-46.144,19.189c-3.099,0-10.366-5.679-20.739-5.858
		c-7.118-0.124-13.086,3.198-20.218,3.198c-10.236,0-27.087-3.738-37.328-3.738c-8.264,0-28.412,3.738-36.67,3.738
		c-7.897,0-18.948-3.38-26.842-3.38c-5.354,0-20.81,3.38-26.167,3.38c-26.341,0-47.697-7.401-47.697-16.529l0,0
		c0-9.131,21.356-16.532,47.697-16.532c0,0,45.665-3.955,61.73-3.955c25.535,0,104.678,3.955,104.678,3.955
		C259.426,155.42,280.781,162.821,280.781,171.952L280.781,171.952z"/>
	<path fill="#FCE1E3" d="M280.289,171.77c0,8.538-19.725,17.948-45.97,17.948c-2.898,0-10.327-5.312-20.661-5.479
		c-7.091-0.115-13.036,2.991-20.142,2.991c-10.198,0-26.986-3.496-37.188-3.496c-8.233,0-28.305,3.496-36.533,3.496
		c-7.868,0-18.877-3.161-26.741-3.161c-5.334,0-20.731,3.161-26.069,3.161c-26.242,0-47.518-6.922-47.518-15.46l0,0
		c0-8.54,21.276-15.462,47.518-15.462c0,0,45.493-3.699,61.499-3.699c25.44,0,104.285,3.699,104.285,3.699
		C259.015,156.308,280.289,163.229,280.289,171.77L280.289,171.77z"/>
	<path fill="#FCE2E4" d="M279.798,171.588c0,7.946-19.65,16.706-45.797,16.706c-2.697,0-10.288-4.944-20.583-5.101
		c-7.064-0.107-12.987,2.784-20.065,2.784c-10.16,0-26.885-3.254-37.049-3.254c-8.202,0-28.198,3.254-36.395,3.254
		c-7.838,0-18.806-2.942-26.64-2.942c-5.314,0-20.653,2.942-25.97,2.942c-26.143,0-47.338-6.443-47.338-14.39l0,0
		c0-7.949,21.195-14.393,47.338-14.393c0,0,45.322-3.443,61.267-3.443c25.344,0,103.892,3.443,103.892,3.443
		C258.604,157.195,279.798,163.639,279.798,171.588L279.798,171.588z"/>
</g>
<path fill="#5ABC49" d="M120.208,120.081c0,1.835-1.246,3.325-2.782,3.325h-6.341c-1.537,0-2.782-1.489-2.782-3.325V53.304
	c0-1.835,1.245-3.325,2.782-3.325h6.341c1.536,0,2.782,1.489,2.782,3.325V120.081z"/>
<path fill="#00A9B8" d="M215.86,155.798c0,1.836-1.246,3.325-2.779,3.325h-6.343c-1.537,0-2.784-1.489-2.784-3.325V89.021
	c0-1.835,1.247-3.325,2.784-3.325h6.343c1.533,0,2.779,1.49,2.779,3.325V155.798z"/>
<path fill="#C26588" d="M153.171,137.763c0,1.835-1.245,3.325-2.779,3.325h-6.342c-1.536,0-2.783-1.489-2.783-3.325V70.986
	c0-1.835,1.247-3.325,2.783-3.325h6.342c1.534,0,2.779,1.489,2.779,3.325V137.763z"/>
<path fill="#8DC3E0" d="M186.428,130.765c0,1.835-1.244,3.325-2.779,3.325h-6.343c-1.537,0-2.781-1.489-2.781-3.325V63.988
	c0-1.835,1.244-3.325,2.781-3.325h6.343c1.535,0,2.779,1.489,2.779,3.325V130.765z"/>
<path fill="#8DC3E0" d="M82.374,153.071c0,1.835-1.245,3.325-2.78,3.325h-6.343c-1.536,0-2.781-1.49-2.781-3.325V86.294
	c0-1.835,1.245-3.325,2.781-3.325h6.343c1.535,0,2.78,1.489,2.78,3.325V153.071z"/>
<g>
	<path fill="#FCE300" d="M85.345,72.34c0,6.654-3.864,9.94-8.631,9.94s-8.631-3.286-8.631-9.94c0-7.521,9.501-12.534,10.193-17.722
		C78.846,50.341,85.345,69.013,85.345,72.34z"/>
	<path fill="#FBAE17" d="M79.965,76.627c0,3.029-1.456,4.525-3.251,4.525c-1.794,0-3.25-1.497-3.25-4.525
		c0-3.419,3.579-5.701,3.839-8.066C77.517,66.619,79.965,75.113,79.965,76.627z"/>
</g>
<g>
	<path fill="#FCE300" d="M122.886,38.513c0,6.654-3.864,9.94-8.631,9.94s-8.631-3.286-8.631-9.94c0-7.52,9.501-12.534,10.193-17.721
		C116.387,16.514,122.886,35.186,122.886,38.513z"/>
	<path fill="#FBAE17" d="M117.506,42.8c0,3.029-1.456,4.526-3.251,4.526c-1.794,0-3.25-1.497-3.25-4.526
		c0-3.418,3.579-5.701,3.839-8.065C115.058,32.792,117.506,41.286,117.506,42.8z"/>
</g>
<g>
	<path fill="#FCE300" d="M155.85,56.305c0,6.654-3.864,9.94-8.631,9.94s-8.631-3.286-8.631-9.94c0-7.52,9.501-12.534,10.193-17.721
		C149.351,34.306,155.85,52.978,155.85,56.305z"/>
	<path fill="#FBAE17" d="M150.47,60.592c0,3.029-1.456,4.525-3.251,4.525c-1.794,0-3.25-1.496-3.25-4.525
		c0-3.418,3.579-5.701,3.839-8.065C148.021,50.584,150.47,59.078,150.47,60.592z"/>
</g>
<g>
	<path fill="#FCE300" d="M189.106,48.739c0,6.654-3.863,9.94-8.629,9.94c-4.769,0-8.634-3.286-8.634-9.94
		c0-7.52,9.502-12.534,10.194-17.721C182.608,26.74,189.106,45.412,189.106,48.739z"/>
	<path fill="#FBAE17" d="M183.727,53.026c0,3.029-1.455,4.525-3.249,4.525c-1.797,0-3.252-1.496-3.252-4.525
		c0-3.419,3.579-5.701,3.838-8.065C181.279,43.018,183.727,51.512,183.727,53.026z"/>
</g>
<g>
	<path fill="#FCE300" d="M218.539,74.54c0,6.654-3.863,9.939-8.629,9.939c-4.769,0-8.634-3.286-8.634-9.939
		c0-7.521,9.502-12.534,10.193-17.722C212.041,52.541,218.539,71.213,218.539,74.54z"/>
	<path fill="#FBAE17" d="M213.159,78.827c0,3.029-1.455,4.525-3.249,4.525c-1.797,0-3.252-1.497-3.252-4.525
		c0-3.419,3.579-5.701,3.838-8.066C210.712,68.818,213.159,77.312,213.159,78.827z"/>
</g>
<g>
	<polygon opacity="0.5" fill="#FFFFFF" points="70.47,111.763 82.374,99.857 82.374,93.221 70.47,105.127 	"/>
	<polygon opacity="0.5" fill="#FFFFFF" points="70.47,131.679 82.374,119.773 82.374,113.138 70.47,125.043 	"/>
	<polygon opacity="0.5" fill="#FFFFFF" points="70.47,150.358 82.374,138.453 82.374,131.817 70.47,143.723 	"/>
</g>
<g>
	<polygon opacity="0.5" fill="#FFFFFF" points="108.303,79.205 120.208,67.299 120.208,60.664 108.303,72.569 	"/>
	<polygon opacity="0.5" fill="#FFFFFF" points="108.303,99.122 120.208,87.216 120.208,80.58 108.303,92.486 	"/>
	<polygon opacity="0.5" fill="#FFFFFF" points="108.303,117.801 120.208,105.895 120.208,99.259 108.303,111.165 	"/>
</g>
<g>
	<polygon opacity="0.5" fill="#FFFFFF" points="141.267,97.747 153.171,85.841 153.171,79.205 141.267,91.111 	"/>
	<polygon opacity="0.5" fill="#FFFFFF" points="141.267,117.663 153.171,105.757 153.171,99.122 141.267,111.027 	"/>
	<polygon opacity="0.5" fill="#FFFFFF" points="141.267,136.342 153.171,124.437 153.171,117.801 141.267,129.707 	"/>
</g>
<g>
	<polygon opacity="0.5" fill="#FFFFFF" points="174.524,90.902 186.431,78.997 186.431,72.361 174.524,84.267 	"/>
	<polygon opacity="0.5" fill="#FFFFFF" points="174.524,110.819 186.431,98.913 186.431,92.277 174.524,104.183 	"/>
	<polygon opacity="0.5" fill="#FFFFFF" points="174.524,129.498 186.431,117.592 186.431,110.956 174.524,122.862 	"/>
</g>
<g>
	<polygon opacity="0.5" fill="#FFFFFF" points="203.957,110.2 215.862,98.294 215.862,91.659 203.957,103.564 	"/>
	<polygon opacity="0.5" fill="#FFFFFF" points="203.957,130.117 215.862,118.211 215.862,111.575 203.957,123.481 	"/>
	<polygon opacity="0.5" fill="#FFFFFF" points="203.957,148.796 215.862,136.89 215.862,130.254 203.957,142.16 	"/>
</g>
<circle fill="#5E5753" cx="242.844" cy="143.044" r="3.52"/>
<circle fill="#5E5753" cx="177.226" cy="148.796" r="3.52"/>
<circle fill="#5E5753" cx="109.769" cy="136.342" r="3.52"/>
<circle fill="#5E5753" cx="41.358" cy="151.836" r="3.52"/>
<circle fill="#5E5753" cx="113.288" cy="171.021" r="3.52"/>
<rect x="122.886" y="148.796" fill="#DB3490" width="5.769" height="1.562"/>
<rect x="180.475" y="180.13" fill="#DB3490" width="5.768" height="1.562"/>
<rect x="155.991" y="158.341" transform="matrix(0.9361 0.3517 -0.3517 0.9361 66.1174 -45.7119)" fill="#009BD2" width="5.767" height="1.564"/>
<rect x="228.467" y="145.782" transform="matrix(0.9361 0.3516 -0.3516 0.9361 66.3136 -71.9922)" fill="#9C5248" width="5.767" height="1.564"/>
<rect x="93.082" y="166.72" transform="matrix(0.9362 0.3516 -0.3516 0.9362 65.0147 -23.0454)" fill="#9C5248" width="5.767" height="1.565"/>
<rect x="161.939" y="129.472" transform="matrix(0.9362 0.3515 -0.3515 0.9362 56.3081 -49.6274)" fill="#FCE300" width="5.769" height="1.564"/>
<rect x="195.416" y="172.013" transform="matrix(0.9362 0.3515 -0.3515 0.9362 73.3808 -58.6705)" fill="#FCE300" width="5.768" height="1.565"/>
<rect x="55.294" y="145.53" fill="#DB3490" width="5.77" height="1.563"/>
<rect x="112.882" y="176.865" fill="#DB3490" width="5.768" height="1.562"/>
<rect x="88.398" y="155.075" transform="matrix(0.9362 0.3516 -0.3516 0.9362 60.6218 -22.1422)" fill="#009BD2" width="5.767" height="1.565"/>
<rect x="25.489" y="163.455" transform="matrix(0.9361 0.3517 -0.3517 0.9361 59.5779 0.5145)" fill="#9C5248" width="5.767" height="1.564"/>
<rect x="94.347" y="126.207" transform="matrix(0.9362 0.3515 -0.3515 0.9362 50.8417 -26.0736)" fill="#FCE300" width="5.769" height="1.564"/>
<rect x="127.823" y="168.748" transform="matrix(0.9362 0.3516 -0.3516 0.9362 67.9477 -35.131)" fill="#FCE300" width="5.769" height="1.564"/>
<rect x="191.613" y="151.3" fill="#DB3490" width="5.77" height="1.563"/>
<rect x="249.202" y="182.635" fill="#DB3490" width="5.767" height="1.562"/>
<rect x="224.718" y="160.845" transform="matrix(0.9362 0.3516 -0.3516 0.9362 71.3526 -69.6995)" fill="#009BD2" width="5.767" height="1.565"/>
<rect x="161.808" y="169.225" transform="matrix(0.9361 0.3517 -0.3517 0.9361 70.3171 -47.0626)" fill="#9C5248" width="5.767" height="1.564"/>
<rect x="230.666" y="131.977" transform="matrix(0.9362 0.3515 -0.3515 0.9362 61.5627 -73.6171)" fill="#FCE300" width="5.769" height="1.564"/>
<rect x="264.143" y="174.518" transform="matrix(0.9362 0.3516 -0.3516 0.9362 78.6713 -82.6839)" fill="#FCE300" width="5.77" height="1.564"/>
</svg>
