<?xml version="1.0" encoding="utf-8"?>
<!-- Generator: Adobe Illustrator 16.0.0, SVG Export Plug-In . SVG Version: 6.00 Build 0)  -->
<!DOCTYPE svg PUBLIC "-//W3C//DTD SVG 1.1//EN" "http://www.w3.org/Graphics/SVG/1.1/DTD/svg11.dtd">
<svg version="1.1" id="Layer_1" xmlns="http://www.w3.org/2000/svg" xmlns:xlink="http://www.w3.org/1999/xlink" x="0px" y="0px"
	 width="138px" height="171px" viewBox="0 0 138 171" enable-background="new 0 0 138 171" xml:space="preserve">
<g>
	
		<path fill="#FFFFFF" stroke="#000000" stroke-width="3" stroke-linecap="round" stroke-linejoin="round" stroke-miterlimit="10" d="
		M43.669,21.743c0,0,23.212-37.922,52.634,4.578c0,0,17.328-4.904,22.559,15.691c0,0,15.365,3.27,14.06,15.693
		c0,0,1.635,14.385-20.596,11.439c0,0-0.98,33.837-44.137,18.472c0,0-45.441,9.316-42.99-20.433c0,0-20.434,6.701-19.125-16.346
		c0,0,1.635-11.934,15.528-10.953C21.602,39.887,20.294,17.331,43.669,21.743z"/>
	<g>
		<path fill="#27AAE1" d="M102.28,65.786c-1.888,0.752-3.966,1.178-6.14,1.029c-2.156-0.176-4.391-1.02-6.158-2.486
			c-1.78-1.447-3.108-3.361-4.057-5.367c-0.471-1.01-0.877-2.041-1.18-3.104c-0.312-1.086-0.554-2.074-0.711-3.334l4.434,1.102
			c-2.498,4.568-5.811,8.971-10.422,12.168c-2.287,1.594-4.912,2.809-7.681,3.49c-2.769,0.67-5.653,0.803-8.407,0.428
			c-5.541-0.742-10.453-3.207-14.638-6.266c-2.106-1.529-4.028-3.264-5.809-5.105c-1.777-1.84-3.41-3.816-4.783-5.957
			c4.016,3.078,8.176,5.799,12.486,8c4.301,2.176,8.822,3.779,13.275,4.074c4.453,0.318,8.716-0.852,12.396-3.322
			c3.695-2.459,6.797-6.057,9.492-9.996l4.408-6.445l0.022,7.547c0.002,0.738,0.107,1.73,0.258,2.596
			c0.158,0.889,0.351,1.773,0.617,2.629c0.531,1.713,1.308,3.318,2.416,4.66c1.111,1.324,2.586,2.396,4.373,2.959
			C98.249,65.698,100.251,65.84,102.28,65.786z"/>
	</g>
	
		<line fill="none" stroke="#ADE0F4" stroke-linecap="round" stroke-linejoin="round" stroke-miterlimit="10" x1="21.362" y1="108.463" x2="21.362" y2="124.293"/>
	
		<line fill="none" stroke="#ADE0F4" stroke-linecap="round" stroke-linejoin="round" stroke-miterlimit="10" x1="14.388" y1="120.354" x2="28.183" y2="112.318"/>
	
		<line fill="none" stroke="#ADE0F4" stroke-linecap="round" stroke-linejoin="round" stroke-miterlimit="10" x1="14.388" y1="112.318" x2="28.183" y2="120.354"/>
	<polyline fill="none" stroke="#ADE0F4" stroke-linecap="round" stroke-linejoin="round" stroke-miterlimit="10" points="
		15.946,110.975 16.618,113.617 13.89,114.311 	"/>
	<polyline fill="none" stroke="#ADE0F4" stroke-linecap="round" stroke-linejoin="round" stroke-miterlimit="10" points="
		18.026,112.189 18.698,114.83 15.969,115.523 	"/>
	<polyline fill="none" stroke="#ADE0F4" stroke-linecap="round" stroke-linejoin="round" stroke-miterlimit="10" points="
		26.635,121.703 25.964,119.061 28.692,118.367 	"/>
	<polyline fill="none" stroke="#ADE0F4" stroke-linecap="round" stroke-linejoin="round" stroke-miterlimit="10" points="
		24.556,120.49 23.884,117.848 26.612,117.154 	"/>
	<polyline fill="none" stroke="#ADE0F4" stroke-linecap="round" stroke-linejoin="round" stroke-miterlimit="10" points="
		28.588,114.4 25.972,113.635 26.761,110.934 	"/>
	<polyline fill="none" stroke="#ADE0F4" stroke-linecap="round" stroke-linejoin="round" stroke-miterlimit="10" points="
		26.487,115.574 23.87,114.811 24.659,112.107 	"/>
	<polyline fill="none" stroke="#ADE0F4" stroke-linecap="round" stroke-linejoin="round" stroke-miterlimit="10" points="
		14.03,118.34 16.667,119.031 15.954,121.754 	"/>
	<polyline fill="none" stroke="#ADE0F4" stroke-linecap="round" stroke-linejoin="round" stroke-miterlimit="10" points="
		16.098,117.107 18.735,117.797 18.021,120.521 	"/>
	<polyline fill="none" stroke="#ADE0F4" stroke-linecap="round" stroke-linejoin="round" stroke-miterlimit="10" points="
		23.28,109.086 21.35,111.01 19.362,109.016 	"/>
	<polyline fill="none" stroke="#ADE0F4" stroke-linecap="round" stroke-linejoin="round" stroke-miterlimit="10" points="
		23.296,111.494 21.366,113.418 19.378,111.424 	"/>
	<polyline fill="none" stroke="#ADE0F4" stroke-linecap="round" stroke-linejoin="round" stroke-miterlimit="10" points="
		23.288,123.67 21.358,121.744 19.37,123.74 	"/>
	<polyline fill="none" stroke="#ADE0F4" stroke-linecap="round" stroke-linejoin="round" stroke-miterlimit="10" points="
		23.304,121.264 21.374,119.34 19.387,121.332 	"/>
	<path fill="none" stroke="#000000" stroke-linecap="round" stroke-linejoin="round" stroke-miterlimit="10" d="M102.28,62.297
		c-14.875,3.105-15.855-13.404-15.855-13.404c-20.27,33.347-49.691,0-49.691,0"/>
	
		<line fill="none" stroke="#ADE0F4" stroke-linecap="round" stroke-linejoin="round" stroke-miterlimit="10" x1="48.274" y1="65.418" x2="48.274" y2="81.249"/>
	
		<line fill="none" stroke="#ADE0F4" stroke-linecap="round" stroke-linejoin="round" stroke-miterlimit="10" x1="41.302" y1="77.307" x2="55.097" y2="69.272"/>
	
		<line fill="none" stroke="#ADE0F4" stroke-linecap="round" stroke-linejoin="round" stroke-miterlimit="10" x1="41.302" y1="69.272" x2="55.097" y2="77.307"/>
	<polyline fill="none" stroke="#ADE0F4" stroke-linecap="round" stroke-linejoin="round" stroke-miterlimit="10" points="
		42.86,67.93 43.532,70.573 40.804,71.266 	"/>
	<polyline fill="none" stroke="#ADE0F4" stroke-linecap="round" stroke-linejoin="round" stroke-miterlimit="10" points="
		44.94,69.143 45.61,71.784 42.883,72.477 	"/>
	<polyline fill="none" stroke="#ADE0F4" stroke-linecap="round" stroke-linejoin="round" stroke-miterlimit="10" points="
		53.55,78.656 52.878,76.016 55.604,75.323 	"/>
	<polyline fill="none" stroke="#ADE0F4" stroke-linecap="round" stroke-linejoin="round" stroke-miterlimit="10" points="
		51.47,77.443 50.798,74.801 53.526,74.108 	"/>
	<polyline fill="none" stroke="#ADE0F4" stroke-linecap="round" stroke-linejoin="round" stroke-miterlimit="10" points="
		55.502,71.356 52.886,70.59 53.675,67.889 	"/>
	<polyline fill="none" stroke="#ADE0F4" stroke-linecap="round" stroke-linejoin="round" stroke-miterlimit="10" points="
		53.401,72.53 50.782,71.766 51.573,69.063 	"/>
	<polyline fill="none" stroke="#ADE0F4" stroke-linecap="round" stroke-linejoin="round" stroke-miterlimit="10" points="
		40.944,75.293 43.581,75.986 42.866,78.709 	"/>
	<polyline fill="none" stroke="#ADE0F4" stroke-linecap="round" stroke-linejoin="round" stroke-miterlimit="10" points="
		43.012,74.063 45.649,74.752 44.935,77.476 	"/>
	<polyline fill="none" stroke="#ADE0F4" stroke-linecap="round" stroke-linejoin="round" stroke-miterlimit="10" points="
		50.194,66.042 48.263,67.965 46.274,65.971 	"/>
	<polyline fill="none" stroke="#ADE0F4" stroke-linecap="round" stroke-linejoin="round" stroke-miterlimit="10" points="
		50.211,68.45 48.28,70.372 46.293,68.379 	"/>
	<polyline fill="none" stroke="#ADE0F4" stroke-linecap="round" stroke-linejoin="round" stroke-miterlimit="10" points="
		50.202,80.624 48.271,78.699 46.284,80.693 	"/>
	<polyline fill="none" stroke="#ADE0F4" stroke-linecap="round" stroke-linejoin="round" stroke-miterlimit="10" points="
		50.219,78.219 48.288,76.293 46.301,78.287 	"/>
	
		<line fill="none" stroke="#ADE0F4" stroke-linecap="round" stroke-linejoin="round" stroke-miterlimit="10" x1="57.665" y1="97.586" x2="57.665" y2="113.418"/>
	
		<line fill="none" stroke="#ADE0F4" stroke-linecap="round" stroke-linejoin="round" stroke-miterlimit="10" x1="50.692" y1="109.477" x2="64.487" y2="101.441"/>
	
		<line fill="none" stroke="#ADE0F4" stroke-linecap="round" stroke-linejoin="round" stroke-miterlimit="10" x1="50.692" y1="101.441" x2="64.487" y2="109.477"/>
	<polyline fill="none" stroke="#ADE0F4" stroke-linecap="round" stroke-linejoin="round" stroke-miterlimit="10" points="
		52.251,100.1 52.923,102.74 50.194,103.434 	"/>
	<polyline fill="none" stroke="#ADE0F4" stroke-linecap="round" stroke-linejoin="round" stroke-miterlimit="10" points="
		54.329,101.312 55.002,103.953 52.274,104.646 	"/>
	<polyline fill="none" stroke="#ADE0F4" stroke-linecap="round" stroke-linejoin="round" stroke-miterlimit="10" points="
		62.94,110.826 62.269,108.184 64.995,107.49 	"/>
	<polyline fill="none" stroke="#ADE0F4" stroke-linecap="round" stroke-linejoin="round" stroke-miterlimit="10" points="
		60.86,109.613 60.188,106.971 62.917,106.277 	"/>
	<polyline fill="none" stroke="#ADE0F4" stroke-linecap="round" stroke-linejoin="round" stroke-miterlimit="10" points="
		64.893,103.523 62.276,102.76 63.065,100.057 	"/>
	<polyline fill="none" stroke="#ADE0F4" stroke-linecap="round" stroke-linejoin="round" stroke-miterlimit="10" points="
		62.792,104.697 60.174,103.934 60.964,101.232 	"/>
	<polyline fill="none" stroke="#ADE0F4" stroke-linecap="round" stroke-linejoin="round" stroke-miterlimit="10" points="
		50.335,107.463 52.972,108.154 52.258,110.877 	"/>
	<polyline fill="none" stroke="#ADE0F4" stroke-linecap="round" stroke-linejoin="round" stroke-miterlimit="10" points="
		52.403,106.23 55.04,106.92 54.325,109.645 	"/>
	<polyline fill="none" stroke="#ADE0F4" stroke-linecap="round" stroke-linejoin="round" stroke-miterlimit="10" points="
		59.585,98.211 57.655,100.133 55.666,98.141 	"/>
	<polyline fill="none" stroke="#ADE0F4" stroke-linecap="round" stroke-linejoin="round" stroke-miterlimit="10" points="
		59.602,100.617 57.671,102.541 55.684,100.547 	"/>
	<polyline fill="none" stroke="#ADE0F4" stroke-linecap="round" stroke-linejoin="round" stroke-miterlimit="10" points="
		59.593,112.793 57.661,110.869 55.675,112.863 	"/>
	<polyline fill="none" stroke="#ADE0F4" stroke-linecap="round" stroke-linejoin="round" stroke-miterlimit="10" points="
		59.61,110.387 57.679,108.463 55.692,110.455 	"/>
	
		<line fill="none" stroke="#ADE0F4" stroke-linecap="round" stroke-linejoin="round" stroke-miterlimit="10" x1="69.577" y1="122.742" x2="69.577" y2="138.572"/>
	
		<line fill="none" stroke="#ADE0F4" stroke-linecap="round" stroke-linejoin="round" stroke-miterlimit="10" x1="62.604" y1="134.631" x2="76.399" y2="126.596"/>
	
		<line fill="none" stroke="#ADE0F4" stroke-linecap="round" stroke-linejoin="round" stroke-miterlimit="10" x1="62.604" y1="126.596" x2="76.399" y2="134.631"/>
	<polyline fill="none" stroke="#ADE0F4" stroke-linecap="round" stroke-linejoin="round" stroke-miterlimit="10" points="
		64.163,125.254 64.834,127.896 62.106,128.59 	"/>
	<polyline fill="none" stroke="#ADE0F4" stroke-linecap="round" stroke-linejoin="round" stroke-miterlimit="10" points="
		66.241,126.467 66.913,129.107 64.185,129.803 	"/>
	<polyline fill="none" stroke="#ADE0F4" stroke-linecap="round" stroke-linejoin="round" stroke-miterlimit="10" points="
		74.85,135.98 74.178,133.34 76.907,132.646 	"/>
	<polyline fill="none" stroke="#ADE0F4" stroke-linecap="round" stroke-linejoin="round" stroke-miterlimit="10" points="
		72.772,134.768 72.1,132.127 74.827,131.432 	"/>
	<polyline fill="none" stroke="#ADE0F4" stroke-linecap="round" stroke-linejoin="round" stroke-miterlimit="10" points="
		76.803,128.68 74.186,127.914 74.975,125.213 	"/>
	<polyline fill="none" stroke="#ADE0F4" stroke-linecap="round" stroke-linejoin="round" stroke-miterlimit="10" points="
		74.702,129.854 72.085,129.09 72.876,126.387 	"/>
	<polyline fill="none" stroke="#ADE0F4" stroke-linecap="round" stroke-linejoin="round" stroke-miterlimit="10" points="
		62.245,132.617 64.883,133.311 64.169,136.033 	"/>
	<polyline fill="none" stroke="#ADE0F4" stroke-linecap="round" stroke-linejoin="round" stroke-miterlimit="10" points="
		64.313,131.387 66.95,132.076 66.235,134.801 	"/>
	<polyline fill="none" stroke="#ADE0F4" stroke-linecap="round" stroke-linejoin="round" stroke-miterlimit="10" points="
		71.495,123.365 69.565,125.289 67.577,123.295 	"/>
	<polyline fill="none" stroke="#ADE0F4" stroke-linecap="round" stroke-linejoin="round" stroke-miterlimit="10" points="
		71.512,125.773 69.582,127.695 67.595,125.703 	"/>
	<polyline fill="none" stroke="#ADE0F4" stroke-linecap="round" stroke-linejoin="round" stroke-miterlimit="10" points="
		71.505,137.947 69.573,136.023 67.586,138.018 	"/>
	<polyline fill="none" stroke="#ADE0F4" stroke-linecap="round" stroke-linejoin="round" stroke-miterlimit="10" points="
		71.521,135.543 69.589,133.617 67.603,135.611 	"/>
	
		<line fill="none" stroke="#ADE0F4" stroke-linecap="round" stroke-linejoin="round" stroke-miterlimit="10" x1="88.93" y1="77.094" x2="88.93" y2="92.924"/>
	
		<line fill="none" stroke="#ADE0F4" stroke-linecap="round" stroke-linejoin="round" stroke-miterlimit="10" x1="81.958" y1="88.982" x2="95.753" y2="80.947"/>
	
		<line fill="none" stroke="#ADE0F4" stroke-linecap="round" stroke-linejoin="round" stroke-miterlimit="10" x1="81.958" y1="80.947" x2="95.753" y2="88.982"/>
	<polyline fill="none" stroke="#ADE0F4" stroke-linecap="round" stroke-linejoin="round" stroke-miterlimit="10" points="
		83.516,79.605 84.188,82.249 81.46,82.941 	"/>
	<polyline fill="none" stroke="#ADE0F4" stroke-linecap="round" stroke-linejoin="round" stroke-miterlimit="10" points="
		85.594,80.818 86.266,83.461 83.538,84.154 	"/>
	<polyline fill="none" stroke="#ADE0F4" stroke-linecap="round" stroke-linejoin="round" stroke-miterlimit="10" points="
		94.204,90.334 93.532,87.691 96.26,86.998 	"/>
	<polyline fill="none" stroke="#ADE0F4" stroke-linecap="round" stroke-linejoin="round" stroke-miterlimit="10" points="
		92.126,89.119 91.454,86.479 94.18,85.785 	"/>
	<polyline fill="none" stroke="#ADE0F4" stroke-linecap="round" stroke-linejoin="round" stroke-miterlimit="10" points="
		96.159,83.031 93.54,82.266 94.329,79.564 	"/>
	<polyline fill="none" stroke="#ADE0F4" stroke-linecap="round" stroke-linejoin="round" stroke-miterlimit="10" points="
		94.055,84.206 91.438,83.441 92.229,80.738 	"/>
	<polyline fill="none" stroke="#ADE0F4" stroke-linecap="round" stroke-linejoin="round" stroke-miterlimit="10" points="
		81.6,86.969 84.236,87.662 83.521,90.385 	"/>
	<polyline fill="none" stroke="#ADE0F4" stroke-linecap="round" stroke-linejoin="round" stroke-miterlimit="10" points="
		83.667,85.738 86.305,86.428 85.591,89.152 	"/>
	<polyline fill="none" stroke="#ADE0F4" stroke-linecap="round" stroke-linejoin="round" stroke-miterlimit="10" points="
		90.85,77.717 88.919,79.641 86.93,77.646 	"/>
	<polyline fill="none" stroke="#ADE0F4" stroke-linecap="round" stroke-linejoin="round" stroke-miterlimit="10" points="
		90.866,80.125 88.936,82.047 86.948,80.055 	"/>
	<polyline fill="none" stroke="#ADE0F4" stroke-linecap="round" stroke-linejoin="round" stroke-miterlimit="10" points="
		90.857,92.301 88.926,90.375 86.939,92.369 	"/>
	<polyline fill="none" stroke="#ADE0F4" stroke-linecap="round" stroke-linejoin="round" stroke-miterlimit="10" points="
		90.874,89.895 88.943,87.969 86.956,89.963 	"/>
	
		<line fill="none" stroke="#ADE0F4" stroke-linecap="round" stroke-linejoin="round" stroke-miterlimit="10" x1="100.843" y1="102.25" x2="100.843" y2="118.08"/>
	
		<line fill="none" stroke="#ADE0F4" stroke-linecap="round" stroke-linejoin="round" stroke-miterlimit="10" x1="93.868" y1="114.139" x2="107.665" y2="106.104"/>
	
		<line fill="none" stroke="#ADE0F4" stroke-linecap="round" stroke-linejoin="round" stroke-miterlimit="10" x1="93.868" y1="106.104" x2="107.665" y2="114.139"/>
	<polyline fill="none" stroke="#ADE0F4" stroke-linecap="round" stroke-linejoin="round" stroke-miterlimit="10" points="
		95.428,104.762 96.098,107.404 93.37,108.098 	"/>
	<polyline fill="none" stroke="#ADE0F4" stroke-linecap="round" stroke-linejoin="round" stroke-miterlimit="10" points="
		97.507,105.975 98.178,108.615 95.45,109.309 	"/>
	<polyline fill="none" stroke="#ADE0F4" stroke-linecap="round" stroke-linejoin="round" stroke-miterlimit="10" points="
		106.116,115.488 105.443,112.846 108.173,112.152 	"/>
	<polyline fill="none" stroke="#ADE0F4" stroke-linecap="round" stroke-linejoin="round" stroke-miterlimit="10" points="
		104.038,114.275 103.366,111.633 106.093,110.939 	"/>
	<polyline fill="none" stroke="#ADE0F4" stroke-linecap="round" stroke-linejoin="round" stroke-miterlimit="10" points="
		108.066,108.186 105.452,107.422 106.241,104.719 	"/>
	<polyline fill="none" stroke="#ADE0F4" stroke-linecap="round" stroke-linejoin="round" stroke-miterlimit="10" points="
		105.968,109.359 103.35,108.596 104.139,105.895 	"/>
	<polyline fill="none" stroke="#ADE0F4" stroke-linecap="round" stroke-linejoin="round" stroke-miterlimit="10" points="
		93.51,112.125 96.146,112.816 95.434,115.539 	"/>
	<polyline fill="none" stroke="#ADE0F4" stroke-linecap="round" stroke-linejoin="round" stroke-miterlimit="10" points="
		95.579,110.895 98.218,111.584 97.501,114.307 	"/>
	<polyline fill="none" stroke="#ADE0F4" stroke-linecap="round" stroke-linejoin="round" stroke-miterlimit="10" points="
		102.76,102.873 100.829,104.795 98.843,102.803 	"/>
	<polyline fill="none" stroke="#ADE0F4" stroke-linecap="round" stroke-linejoin="round" stroke-miterlimit="10" points="
		102.777,105.279 100.846,107.203 98.859,105.209 	"/>
	<polyline fill="none" stroke="#ADE0F4" stroke-linecap="round" stroke-linejoin="round" stroke-miterlimit="10" points="
		102.768,117.455 100.837,115.531 98.85,117.525 	"/>
	<polyline fill="none" stroke="#ADE0F4" stroke-linecap="round" stroke-linejoin="round" stroke-miterlimit="10" points="
		102.786,115.049 100.854,113.125 98.868,115.119 	"/>
	
		<line fill="none" stroke="#ADE0F4" stroke-linecap="round" stroke-linejoin="round" stroke-miterlimit="10" x1="43.083" y1="126.398" x2="43.083" y2="142.229"/>
	
		<line fill="none" stroke="#ADE0F4" stroke-linecap="round" stroke-linejoin="round" stroke-miterlimit="10" x1="36.108" y1="138.287" x2="49.905" y2="130.252"/>
	
		<line fill="none" stroke="#ADE0F4" stroke-linecap="round" stroke-linejoin="round" stroke-miterlimit="10" x1="36.108" y1="130.252" x2="49.905" y2="138.287"/>
	<polyline fill="none" stroke="#ADE0F4" stroke-linecap="round" stroke-linejoin="round" stroke-miterlimit="10" points="
		37.668,128.91 38.339,131.553 35.61,132.246 	"/>
	<polyline fill="none" stroke="#ADE0F4" stroke-linecap="round" stroke-linejoin="round" stroke-miterlimit="10" points="
		39.747,130.123 40.419,132.764 37.69,133.457 	"/>
	<polyline fill="none" stroke="#ADE0F4" stroke-linecap="round" stroke-linejoin="round" stroke-miterlimit="10" points="
		48.356,139.637 47.685,136.996 50.413,136.303 	"/>
	<polyline fill="none" stroke="#ADE0F4" stroke-linecap="round" stroke-linejoin="round" stroke-miterlimit="10" points="
		46.278,138.424 45.606,135.781 48.333,135.088 	"/>
	<polyline fill="none" stroke="#ADE0F4" stroke-linecap="round" stroke-linejoin="round" stroke-miterlimit="10" points="
		50.308,132.336 47.692,131.57 48.481,128.869 	"/>
	<polyline fill="none" stroke="#ADE0F4" stroke-linecap="round" stroke-linejoin="round" stroke-miterlimit="10" points="
		48.208,133.51 45.591,132.746 46.38,130.043 	"/>
	<polyline fill="none" stroke="#ADE0F4" stroke-linecap="round" stroke-linejoin="round" stroke-miterlimit="10" points="
		35.751,136.273 38.388,136.967 37.675,139.689 	"/>
	<polyline fill="none" stroke="#ADE0F4" stroke-linecap="round" stroke-linejoin="round" stroke-miterlimit="10" points="
		37.819,135.043 40.457,135.732 39.741,138.457 	"/>
	<polyline fill="none" stroke="#ADE0F4" stroke-linecap="round" stroke-linejoin="round" stroke-miterlimit="10" points="
		45.001,127.021 43.069,128.945 41.083,126.951 	"/>
	<polyline fill="none" stroke="#ADE0F4" stroke-linecap="round" stroke-linejoin="round" stroke-miterlimit="10" points="
		45.019,129.43 43.087,131.352 41.101,129.359 	"/>
	<polyline fill="none" stroke="#ADE0F4" stroke-linecap="round" stroke-linejoin="round" stroke-miterlimit="10" points="
		45.009,141.604 43.077,139.68 41.091,141.674 	"/>
	<polyline fill="none" stroke="#ADE0F4" stroke-linecap="round" stroke-linejoin="round" stroke-miterlimit="10" points="
		45.026,139.199 43.095,137.273 41.108,139.268 	"/>
	
		<line fill="none" stroke="#ADE0F4" stroke-linecap="round" stroke-linejoin="round" stroke-miterlimit="10" x1="90.921" y1="149.002" x2="90.921" y2="164.832"/>
	
		<line fill="none" stroke="#ADE0F4" stroke-linecap="round" stroke-linejoin="round" stroke-miterlimit="10" x1="83.945" y1="160.891" x2="97.743" y2="152.855"/>
	
		<line fill="none" stroke="#ADE0F4" stroke-linecap="round" stroke-linejoin="round" stroke-miterlimit="10" x1="83.945" y1="152.855" x2="97.743" y2="160.891"/>
	<polyline fill="none" stroke="#ADE0F4" stroke-linecap="round" stroke-linejoin="round" stroke-miterlimit="10" points="
		85.507,151.514 86.178,154.156 83.45,154.85 	"/>
	<polyline fill="none" stroke="#ADE0F4" stroke-linecap="round" stroke-linejoin="round" stroke-miterlimit="10" points="
		87.585,152.727 88.257,155.369 85.527,156.062 	"/>
	<polyline fill="none" stroke="#ADE0F4" stroke-linecap="round" stroke-linejoin="round" stroke-miterlimit="10" points="
		96.193,162.242 95.523,159.6 98.251,158.906 	"/>
	<polyline fill="none" stroke="#ADE0F4" stroke-linecap="round" stroke-linejoin="round" stroke-miterlimit="10" points="
		94.116,161.027 93.443,158.387 96.173,157.693 	"/>
	<polyline fill="none" stroke="#ADE0F4" stroke-linecap="round" stroke-linejoin="round" stroke-miterlimit="10" points="
		98.146,154.939 95.53,154.174 96.32,151.473 	"/>
	<polyline fill="none" stroke="#ADE0F4" stroke-linecap="round" stroke-linejoin="round" stroke-miterlimit="10" points="
		96.048,156.113 93.428,155.35 94.219,152.646 	"/>
	<polyline fill="none" stroke="#ADE0F4" stroke-linecap="round" stroke-linejoin="round" stroke-miterlimit="10" points="
		83.591,158.877 86.227,159.57 85.512,162.293 	"/>
	<polyline fill="none" stroke="#ADE0F4" stroke-linecap="round" stroke-linejoin="round" stroke-miterlimit="10" points="
		85.657,157.646 88.296,158.336 87.581,161.061 	"/>
	<polyline fill="none" stroke="#ADE0F4" stroke-linecap="round" stroke-linejoin="round" stroke-miterlimit="10" points="
		92.841,149.625 90.909,151.549 88.921,149.555 	"/>
	<polyline fill="none" stroke="#ADE0F4" stroke-linecap="round" stroke-linejoin="round" stroke-miterlimit="10" points="
		92.855,152.033 90.926,153.955 88.938,151.963 	"/>
	<polyline fill="none" stroke="#ADE0F4" stroke-linecap="round" stroke-linejoin="round" stroke-miterlimit="10" points="
		92.848,164.209 90.917,162.283 88.93,164.279 	"/>
	<polyline fill="none" stroke="#ADE0F4" stroke-linecap="round" stroke-linejoin="round" stroke-miterlimit="10" points="
		92.864,161.803 90.934,159.877 88.945,161.871 	"/>
</g>
</svg>
