<?xml version="1.0" encoding="utf-8"?>
<!-- Generator: Adobe Illustrator 16.0.0, SVG Export Plug-In . SVG Version: 6.00 Build 0)  -->
<!DOCTYPE svg PUBLIC "-//W3C//DTD SVG 1.1 Basic//EN" "http://www.w3.org/Graphics/SVG/1.1/DTD/svg11-basic.dtd">
<svg version="1.1" baseProfile="basic" id="Layer_1"
	 xmlns="http://www.w3.org/2000/svg" xmlns:xlink="http://www.w3.org/1999/xlink" x="0px" y="0px" width="300px" height="300px"
	 viewBox="0 0 300 300" xml:space="preserve">
<path opacity="0.15" fill-rule="evenodd" clip-rule="evenodd" fill="#010101" d="M153.528,10.934
	c22.022,0,39.876,23.982,39.876,53.565c0,21.372-9.318,39.82-22.795,48.414c-6.035,3.849-9.102,10.431-8.165,17.527
	c6.365,48.192,10.725,131.114,10.725,141.372c0,14.571-8.794,26.383-19.641,26.383c-10.848,0-19.641-11.812-19.641-26.383
	c0-10.258,4.359-93.18,10.724-141.372c0.937-7.096-2.13-13.678-8.165-17.527c-13.477-8.594-22.794-27.042-22.794-48.414
	C113.652,34.916,131.505,10.934,153.528,10.934z"/>
<path fill-rule="evenodd" clip-rule="evenodd" fill="#CAE1DF" d="M145.593,3.451c22.022,0,39.876,23.982,39.876,53.564
	c0,21.373-9.318,39.821-22.795,48.415c-6.035,3.849-9.102,10.431-8.165,17.527c6.365,48.191,10.725,131.114,10.725,141.372
	c0,14.57-8.794,26.383-19.641,26.383c-10.848,0-19.641-11.812-19.641-26.383c0-10.258,4.359-93.181,10.724-141.372
	c0.937-7.096-2.13-13.678-8.165-17.527c-13.477-8.594-22.794-27.042-22.794-48.415C105.717,27.433,123.569,3.451,145.593,3.451z"/>
</svg>
