<?xml version="1.0" encoding="utf-8"?>
<!-- Generator: Adobe Illustrator 16.0.0, SVG Export Plug-In . SVG Version: 6.00 Build 0)  -->
<!DOCTYPE svg PUBLIC "-//W3C//DTD SVG 1.1 Basic//EN" "http://www.w3.org/Graphics/SVG/1.1/DTD/svg11-basic.dtd">
<svg version="1.1" baseProfile="basic" id="Layer_1"
	 xmlns="http://www.w3.org/2000/svg" xmlns:xlink="http://www.w3.org/1999/xlink" x="0px" y="0px" width="300px" height="300px"
	 viewBox="0 0 300 300" xml:space="preserve">
<g>
	<g id="XMLID_9_">
		<g>
			<linearGradient id="SVGID_1_" gradientUnits="userSpaceOnUse" x1="66.1895" y1="139.5186" x2="132.6079" y2="139.5186">
				<stop  offset="0" style="stop-color:#26A9E0"/>
				<stop  offset="0" style="stop-color:#26A9E0"/>
				<stop  offset="0" style="stop-color:#26A9E0"/>
				<stop  offset="0" style="stop-color:#26A9E0"/>
				<stop  offset="0" style="stop-color:#26A9E0"/>
				<stop  offset="0.3197" style="stop-color:#FFFFFF"/>
				<stop  offset="0.5218" style="stop-color:#FFFFFF"/>
				<stop  offset="0.6672" style="stop-color:#FFFFFF"/>
				<stop  offset="1" style="stop-color:#26A9E0"/>
				<stop  offset="1" style="stop-color:#26A9E0"/>
			</linearGradient>
			<path fill="url(#SVGID_1_)" d="M92.132,157.042c5.529,2.354,11.021,4.558,17.147,2.241c7.733-2.914,13.449-8.182,17.969-14.869
				c1.681-2.503,3.063-5.155,4.931-8.331c1.382,6.126-0.822,11.17-3.138,15.541c-4.595,8.704-10.722,16.437-19.314,21.704
				c-7.92,4.856-16.026,4.297-23.535-0.373c-5.043-3.139-9.862-6.986-13.86-11.319c-6.575-7.173-7.247-16.288-4.931-25.179
				c2.876-10.946,6.836-21.555,15.018-29.961c1.121-1.121,1.644-2.764,2.428-4.184c0.448,0.448,0.897,0.896,1.345,1.345
				c-1.457,4.035-3.213,7.995-4.296,12.141c-2.839,10.796-2.988,21.555,1.42,32.09C85.109,152.11,87.836,155.248,92.132,157.042z"/>
			<path d="M105.655,247.783c15.802,0.411,27.794-11.282,42.476-11.73c-2.689-3.213-5.23-6.313-7.919-9.34
				c-0.561-0.635-1.644-1.12-2.541-1.157c-5.006-0.299-10.012-0.859-14.98-0.449c-2.428,0.188-5.492,1.682-6.874,3.587
				c-3.512,4.894-6.351,10.348-9.339,15.652C105.917,245.317,105.917,246.588,105.655,247.783z M188.179,238.556
				c-0.449-3.512-0.935-6.688-1.271-9.899c-0.448-4.446-5.305-11.469-9.228-11.021c-4.558,0.485-9.189,2.913-13.149,5.454
				c-3.213,2.092-5.417,5.678-8.145,8.479c-1.046,1.047-2.354,1.831-3.512,2.728c0.149,0.485,0.337,0.934,0.523,1.42
				C165.203,232.69,176.299,237.323,188.179,238.556z M237.378,204.485c1.793,10.423-0.784,19.575-7.845,28.28
				c-5.865,7.284-13.374,9.862-21.443,11.954c-3.213,0.821-6.986,0.336-10.348-0.374c-19.65-4.296-39.226-9.414-59.324-2.988
				c-6.986,2.241-13.523,5.939-20.546,7.92c-13.337,3.773-27.196,6.313-39.861-1.569c-5.417-3.362-9.451-9.152-13.859-14.046
				c-0.822-0.935-0.486-2.877-0.561-3.399c-0.037-7.435,3.138-12.776,5.529-18.567c3.176-7.882,9.041-12.365,15.877-15.728
				c6.089-2.988,12.739-4.071,19.875-2.577c4.072,0.859,8.592-0.523,12.926-0.896c16.026-1.271,32.09-2.69,48.153-3.698
				c10.461-0.673,21.07-1.606,31.493-0.71c11.021,0.934,21.966,3.549,32.837,6.089C235.024,195.296,236.706,200.451,237.378,204.485
				z"/>
			<linearGradient id="SVGID_2_" gradientUnits="userSpaceOnUse" x1="13.6646" y1="157.4912" x2="286.335" y2="157.4912">
				<stop  offset="0" style="stop-color:#231F20"/>
				<stop  offset="0" style="stop-color:#231F20"/>
				<stop  offset="0" style="stop-color:#FAAF40"/>
				<stop  offset="0" style="stop-color:#FAAF40"/>
				<stop  offset="0" style="stop-color:#FAAF40"/>
				<stop  offset="0" style="stop-color:#1B75BB"/>
				<stop  offset="0" style="stop-color:#FAAF40"/>
				<stop  offset="0" style="stop-color:#231F20"/>
				<stop  offset="0.4124" style="stop-color:#231F20"/>
				<stop  offset="0.6001" style="stop-color:#231F20"/>
				<stop  offset="1" style="stop-color:#231F20"/>
			</linearGradient>
			<path fill="url(#SVGID_2_)" d="M86.192,172.956c7.509,4.67,15.615,5.229,23.535,0.373c8.592-5.268,14.719-13,19.314-21.704
				c2.316-4.371,4.52-9.415,3.138-15.541c-1.868,3.175-3.25,5.828-4.931,8.331c-4.52,6.687-10.236,11.955-17.969,14.869
				c-6.127,2.316-11.618,0.112-17.147-2.241c-4.296-1.794-7.023-4.932-8.816-9.153c-4.408-10.535-4.259-21.294-1.42-32.09
				c1.083-4.146,2.839-8.106,4.296-12.141c-0.448-0.448-0.897-0.896-1.345-1.345c-0.784,1.419-1.307,3.063-2.428,4.184
				c-8.181,8.406-12.141,19.015-15.018,29.961c-2.316,8.891-1.644,18.006,4.931,25.179C76.33,165.97,81.149,169.817,86.192,172.956z
				 M48.461,274.307c8.667,9.489,19.725,14.271,32.613,14.084c10.759-0.149,21.555-0.448,32.352-1.158
				c9.19-0.598,18.38-1.942,27.57-2.802c14.756-1.382,29.512-2.652,44.306-3.885c13.262-1.084,26.599-1.943,39.86-3.102
				c7.173-0.598,14.457-2.913,21.406-2.092c9.04,1.084,13.972-4.931,19.538-9.152c4.52-3.437,7.62-9.078,10.46-14.233
				c6.313-11.432,7.061-24.133,6.649-36.76c-0.299-9.078-2.092-18.118-3.325-27.196c-1.718-12.439-3.361-24.88-5.305-37.283
				c-1.419-9.152-3.549-18.156-4.969-27.308c-1.456-9.19-3.549-18.492-3.399-27.719c0.188-11.208-1.382-21.929-5.006-32.314
				c-1.793-5.193-4.818-10.012-7.92-14.607c-1.046-1.569-3.997-1.831-6.836-2.988c0.822-0.411,1.569-0.934,2.129-1.196
				c0.038,0,0.038,0,0.038,0c0.261,0,0.485-0.037,0.598-0.075c3.025,1.569,6.836,2.765,8.667,5.305
				c2.765,3.848,4.333,8.63,6.052,13.15c5.155,13.486,4.632,27.794,5.902,41.878c1.083,11.656,3.624,23.125,5.417,34.668
				c1.681,10.609,3.287,21.219,4.856,31.792c1.868,12.775,3.923,25.552,5.454,38.366c1.382,11.431,1.083,23.124-2.466,33.995
				c-4.371,13.374-12.552,24.319-25.029,32.016c-5.529,3.437-11.17,3.437-16.96,3.997c-14.943,1.494-29.924,2.765-44.904,3.885
				c-8.144,0.598-16.362,0.336-24.507,1.009c-11.805,0.896-23.609,1.905-35.34,3.586c-18.23,2.652-36.498,3.849-54.916,3.849
				c-9.376,0-17.745-3.101-25.889-7.584c-9.078-4.932-13.038-13-15.69-22.228c-1.681-5.978-4.109-11.805-5.156-17.895
				c-1.718-9.601-2.503-19.389-3.773-29.064c-1.009-7.509-2.129-14.979-3.325-22.451c-1.868-11.618-3.101-23.424-5.978-34.817
				c-2.802-11.058-3.885-22.265-4.968-33.473c-1.345-13.822-2.204-27.682-2.989-41.542c-0.149-2.615,0.747-5.379,1.606-7.919
				c1.943-5.679,3.661-11.506,6.351-16.811c4.035-7.995,11.133-11.992,19.949-13.15c1.195-0.149,2.391-0.299,3.549-0.486
				c0.523,1.046,1.009,2.989,1.606,3.026c1.195,0.112,2.503-0.859,4.296-1.644c-3.511-3.213-6.388-5.902-9.376-8.667
				c3.736-5.828,10.385-7.247,15.802-10.535c2.316-1.382,5.006-2.092,7.472-3.25c3.026-1.382,5.529-0.038,6.687,2.316
				c2.765,5.604,4.932,11.469,7.397,17.297c3.175,0,6.126,0.523,8.816-0.075c13.15-2.988,26.673-1.531,39.898-3.773
				c14.271-2.428,28.728-0.448,43.111-0.336c6.687,0.075,13.374-1.793,20.098-2.578c3.325-0.411,6.725-0.15,10.05-0.523
				c3.586-0.411,7.247-0.896,10.722-1.83c3.698-0.972,5.641-0.225,6.052,3.063c-0.075,0.149-0.112,0.262-0.187,0.411
				c-6.688-1.756-12.852,2.316-19.128,2.167c-15.728-0.299-31.23,3.586-47.107,1.681c-9.19-1.121-18.716,0.374-28.056,1.009
				c-9.041,0.635-18.081,1.494-27.084,2.578c-4.558,0.523-9.041,1.756-13.673,2.689c0.075,0.523,0,1.158,0.261,1.532
				c6.799,10.834,13.225,21.966,20.584,32.389c5.492,7.771,12.104,14.719,18.38,21.892c0.859,0.971,2.653,1.158,4.932,2.092
				c1.569,2.055,4.034,5.043,6.276,8.219c1.121,1.606,2.615,3.512,2.652,5.305c0.112,10.61,1.98,21.555-2.615,31.53
				c-5.566,12.141-13.934,22.34-26.337,27.981c-7.322,3.362-15.205,1.606-21.966-2.503c-5.043-3.101-9.675-7.098-13.972-11.245
				c-5.267-5.08-6.5-11.655-6.575-19.015c-0.224-14.906,6.687-26.935,14.271-38.665c2.765-4.296,6.276-8.592,11.805-10.012
				c1.718-0.448,3.474-0.672,6.313-1.233c-4.632-9.601-11.805-17.521-18.716-25.291c-6.986-7.882-15.317-14.569-23.498-22.228
				c-2.167,3.997-4.595,3.175-7.135,1.195c-0.523-0.374-1.27-0.486-1.942-0.598c-9.563-1.457-19.165,3.362-22.826,12.365
				c-2.988,7.322-6.836,14.607-6.351,22.9c0.411,6.276,1.121,12.515,1.644,18.753c1.083,12.291,1.756,24.619,3.288,36.872
				c1.158,9.563,3.437,18.94,5.043,28.466c2.167,12.852,4.147,25.739,6.239,38.628c1.009,6.164,2.242,12.291,3.138,18.492
				c1.009,6.725,1.233,13.598,2.652,20.21c1.382,6.426,3.773,12.702,5.94,18.94C45.211,267.956,46.182,271.804,48.461,274.307z
				 M95.083,108.551c-3.213,9.863-6.388,19.725-9.563,29.587c0.56,0.187,1.121,0.374,1.681,0.561
				C91.273,129.061,95.419,119.497,95.083,108.551z"/>
			<linearGradient id="SVGID_3_" gradientUnits="userSpaceOnUse" x1="160.3467" y1="134.8013" x2="219.0117" y2="134.8013">
				<stop  offset="0" style="stop-color:#26A9E0"/>
				<stop  offset="0" style="stop-color:#26A9E0"/>
				<stop  offset="0" style="stop-color:#26A9E0"/>
				<stop  offset="0" style="stop-color:#26A9E0"/>
				<stop  offset="0" style="stop-color:#26A9E0"/>
				<stop  offset="0.3197" style="stop-color:#FFFFFF"/>
				<stop  offset="0.5218" style="stop-color:#FFFFFF"/>
				<stop  offset="0.6672" style="stop-color:#FFFFFF"/>
				<stop  offset="1" style="stop-color:#26A9E0"/>
				<stop  offset="1" style="stop-color:#26A9E0"/>
			</linearGradient>
			<path fill="url(#SVGID_3_)" d="M160.347,152.895c7.435,5.604,15.316,3.475,23.236,1.831c1.606-0.337,3.213-0.523,4.856-0.71
				c10.05-1.271,17.97-8.368,20.473-18.305c2.913-11.842,2.503-16.363-3.288-33.734c1.345,0.187,2.578-0.038,3.063,0.448
				c4.819,4.856,10.646,8.816,10.311,17.147c-0.336,8.293-0.187,16.4-3.213,24.469c-3.772,10.124-19.463,25.852-32.127,23.312
				C174.207,165.484,165.502,162.085,160.347,152.895z"/>
			<path d="M248.623,44.595c0.261-0.112,0.448-0.149,0.598-0.075C249.108,44.558,248.884,44.595,248.623,44.595z"/>
			<path d="M215.785,144.041c3.026-8.069,2.877-16.176,3.213-24.469c0.336-8.331-5.491-12.291-10.311-17.147
				c-0.485-0.486-1.719-0.262-3.063-0.448c5.791,17.371,6.201,21.892,3.288,33.734c-2.503,9.937-10.423,17.035-20.473,18.305
				c-1.644,0.187-3.25,0.373-4.856,0.71c-7.92,1.644-15.802,3.772-23.236-1.831c5.155,9.19,13.86,12.59,23.312,14.458
				C196.322,169.893,212.013,154.165,215.785,144.041z M195.5,95.701c11.282,1.046,20.397,5.604,24.992,16.475
				c1.271,2.988,1.195,6.612,1.383,9.937c0.672,13.075-1.905,25.216-11.395,34.93c-5.006,5.117-9.862,10.497-17.146,12.626
				c-8.667,2.578-16.363-0.037-23.984-3.811c-9.525-4.707-14.046-12.626-14.457-22.937c-0.262-6.65-0.598-13.374,0.336-19.912
				c0.673-4.558,3.176-8.928,5.38-13.112c0.859-1.681,3.25-2.466,4.819-3.773c1.531-1.307,3.213-2.54,4.333-4.146
				c7.173-10.311,14.01-20.808,21.369-31.007c8.293-11.543,15.877-23.685,26.449-33.472c0.074-0.149,0.111-0.262,0.187-0.411
				c3.586-4.894,7.396-9.675,10.684-14.756c2.803-4.258,4.969-8.928,7.958-14.345c3.175,2.204,6.275,4.408,9.451,6.575
				c2.765,1.868,5.604,3.698,8.368,5.566c1.83,1.271,2.316,2.503,0.224,4.147c-5.977,4.819-11.842,9.75-17.782,14.644
				c0.149,0.411,0.262,0.859,0.411,1.27c2.652,0.336,5.305,0.635,7.995,0.972c0.149,0.374,0.299,0.784,0.485,1.195
				c-0.896,0.374-1.831,1.009-2.728,1.009c-2.951,0.037-5.902-0.262-8.854-0.224c-0.822,0-1.868,0.448-2.466,1.083
				c-15.466,15.541-29.923,31.903-42.736,50.694C191.354,95.215,193.445,95.477,195.5,95.701z M170.583,137.728
				c9.228-8.518,13.71-20.061,20.658-30.259C181.678,111.652,167.296,127.604,170.583,137.728z"/>
			<linearGradient id="SVGID_4_" gradientUnits="userSpaceOnUse" x1="170.1045" y1="122.5977" x2="191.2412" y2="122.5977">
				<stop  offset="0" style="stop-color:#26A9E0"/>
				<stop  offset="0" style="stop-color:#26A9E0"/>
				<stop  offset="0" style="stop-color:#26A9E0"/>
				<stop  offset="0" style="stop-color:#26A9E0"/>
				<stop  offset="0" style="stop-color:#26A9E0"/>
				<stop  offset="0.3197" style="stop-color:#FFFFFF"/>
				<stop  offset="0.5218" style="stop-color:#FFFFFF"/>
				<stop  offset="0.6672" style="stop-color:#FFFFFF"/>
				<stop  offset="1" style="stop-color:#26A9E0"/>
				<stop  offset="1" style="stop-color:#26A9E0"/>
			</linearGradient>
			<path fill="url(#SVGID_4_)" d="M191.241,107.468c-6.948,10.198-11.431,21.742-20.658,30.259
				C167.296,127.604,181.678,111.652,191.241,107.468z"/>
			<path d="M245.074,41.159c0.149,0.374,3.959,2.951,4.146,3.362c-0.149-0.075-0.337-0.037-0.598,0.075c0,0,0,0-0.038,0
				c-1.531-0.112-5.006-1.232-5.753-1.232c0.896,0,1.831-0.635,2.728-1.009C245.373,41.943,245.224,41.532,245.074,41.159z"/>
			<linearGradient id="SVGID_5_" gradientUnits="userSpaceOnUse" x1="105.6553" y1="236.3779" x2="148.1309" y2="236.3779">
				<stop  offset="0" style="stop-color:#26A9E0"/>
				<stop  offset="0" style="stop-color:#D91C5C"/>
				<stop  offset="0.1884" style="stop-color:#D91C5C"/>
				<stop  offset="0.3468" style="stop-color:#D91C5C"/>
				<stop  offset="0.5254" style="stop-color:#D91C5C"/>
				<stop  offset="0.8116" style="stop-color:#FFFFFF"/>
			</linearGradient>
			<path fill="url(#SVGID_5_)" d="M106.478,244.346c2.988-5.305,5.828-10.759,9.339-15.652c1.382-1.905,4.445-3.399,6.874-3.587
				c4.969-0.41,9.975,0.15,14.98,0.449c0.896,0.037,1.98,0.522,2.541,1.157c2.689,3.026,5.23,6.127,7.919,9.34
				c-14.681,0.448-26.673,12.142-42.476,11.73C105.917,246.588,105.917,245.317,106.478,244.346z"/>
			<linearGradient id="SVGID_6_" gradientUnits="userSpaceOnUse" x1="16.0303" y1="162.7266" x2="283.3086" y2="162.7266">
				<stop  offset="0" style="stop-color:#EC1C24"/>
				<stop  offset="0.1149" style="stop-color:#EC1C24"/>
				<stop  offset="0.4936" style="stop-color:#FAAF40"/>
				<stop  offset="0.4943" style="stop-color:#FAAF40"/>
				<stop  offset="0.7667" style="stop-color:#EC1C24"/>
				<stop  offset="1" style="stop-color:#EC1C24"/>
			</linearGradient>
			<path fill="url(#SVGID_6_)" d="M104.871,193.391c-7.135-1.494-13.785-0.411-19.875,2.577
				c-6.836,3.362-12.701,7.846-15.877,15.728c-2.391,5.791-5.566,11.133-5.529,18.567c0.075,0.522-0.261,2.465,0.561,3.399
				c4.408,4.894,8.443,10.684,13.859,14.046c12.665,7.883,26.524,5.343,39.861,1.569c7.023-1.98,13.561-5.679,20.546-7.92
				c20.099-6.426,39.674-1.308,59.324,2.988c3.361,0.71,7.135,1.195,10.348,0.374c8.069-2.092,15.578-4.67,21.443-11.954
				c7.061-8.705,9.638-17.857,7.845-28.28c-0.672-4.034-2.354-9.189-7.098-10.311c-10.871-2.54-21.816-5.155-32.837-6.089
				c-10.423-0.896-21.032,0.037-31.493,0.71c-16.063,1.008-32.127,2.428-48.153,3.698
				C113.463,192.867,108.943,194.25,104.871,193.391z M70.726,164.812c4.296,4.147,8.929,8.145,13.972,11.245
				c6.762,4.109,14.645,5.865,21.966,2.503c12.403-5.641,20.771-15.84,26.337-27.981c4.595-9.975,2.728-20.92,2.615-31.53
				c-0.037-1.793-1.532-3.698-2.652-5.305c-2.242-3.175-4.707-6.164-6.276-8.219c-2.279-0.934-4.072-1.121-4.932-2.092
				c-6.276-7.173-12.888-14.121-18.38-21.892c-7.359-10.423-13.785-21.555-20.584-32.389c-0.261-0.374-0.187-1.008-0.261-1.532
				c4.632-0.934,9.115-2.167,13.673-2.689c9.003-1.083,18.043-1.943,27.084-2.578c9.339-0.635,18.866-2.129,28.056-1.009
				c15.877,1.905,31.38-1.98,47.107-1.681c6.276,0.149,12.44-3.922,19.128-2.167c-10.572,9.788-18.156,21.929-26.449,33.472
				c-7.359,10.199-14.196,20.696-21.369,31.007c-1.12,1.606-2.802,2.839-4.333,4.146c-1.569,1.308-3.96,2.092-4.819,3.773
				c-2.204,4.184-4.707,8.555-5.38,13.112c-0.934,6.538-0.598,13.262-0.336,19.912c0.411,10.311,4.932,18.23,14.457,22.937
				c7.621,3.773,15.317,6.389,23.984,3.811c7.284-2.129,12.141-7.509,17.146-12.626c9.489-9.713,12.066-21.854,11.395-34.93
				c-0.188-3.325-0.112-6.949-1.383-9.937c-4.595-10.871-13.71-15.429-24.992-16.475c-2.055-0.224-4.146-0.486-6.724-0.785
				c12.813-18.791,27.271-35.153,42.736-50.694c0.598-0.635,1.644-1.083,2.466-1.083c2.951-0.038,5.902,0.261,8.854,0.224
				c0.747,0,4.222,1.121,5.753,1.232c-0.56,0.262-1.307,0.785-2.129,1.196c2.839,1.158,5.79,1.419,6.836,2.988
				c3.102,4.595,6.127,9.414,7.92,14.607c3.624,10.385,5.193,21.107,5.006,32.314c-0.149,9.227,1.943,18.529,3.399,27.719
				c1.42,9.152,3.55,18.156,4.969,27.308c1.943,12.403,3.587,24.843,5.305,37.283c1.233,9.078,3.026,18.118,3.325,27.196
				c0.411,12.627-0.336,25.328-6.649,36.76c-2.84,5.155-5.94,10.797-10.46,14.233c-5.566,4.222-10.498,10.236-19.538,9.152
				c-6.949-0.821-14.233,1.494-21.406,2.092c-13.262,1.158-26.599,2.018-39.86,3.102c-14.794,1.232-29.55,2.503-44.306,3.885
				c-9.19,0.859-18.38,2.204-27.57,2.802c-10.796,0.71-21.593,1.009-32.352,1.158c-12.888,0.187-23.946-4.595-32.613-14.084
				c-2.279-2.503-3.25-6.351-4.445-9.713c-2.167-6.238-4.558-12.515-5.94-18.94c-1.419-6.612-1.644-13.485-2.652-20.21
				c-0.896-6.201-2.129-12.328-3.138-18.492c-2.092-12.889-4.072-25.776-6.239-38.628c-1.606-9.526-3.885-18.903-5.043-28.466
				c-1.532-12.253-2.204-24.581-3.288-36.872c-0.523-6.239-1.233-12.478-1.644-18.753c-0.486-8.293,3.362-15.578,6.351-22.9
				c3.661-9.003,13.262-13.822,22.826-12.365c0.672,0.112,1.419,0.224,1.942,0.598c2.541,1.98,4.969,2.802,7.135-1.195
				c8.181,7.658,16.512,14.345,23.498,22.228c6.911,7.771,14.083,15.69,18.716,25.291c-2.839,0.561-4.595,0.785-6.313,1.233
				c-5.529,1.419-9.041,5.716-11.805,10.012c-7.583,11.73-14.495,23.759-14.271,38.665
				C64.226,153.156,65.459,159.731,70.726,164.812z"/>
			<linearGradient id="SVGID_7_" gradientUnits="userSpaceOnUse" x1="85.52" y1="123.625" x2="95.1025" y2="123.625">
				<stop  offset="0" style="stop-color:#26A9E0"/>
				<stop  offset="0" style="stop-color:#26A9E0"/>
				<stop  offset="0" style="stop-color:#26A9E0"/>
				<stop  offset="0" style="stop-color:#26A9E0"/>
				<stop  offset="0" style="stop-color:#26A9E0"/>
				<stop  offset="0.3197" style="stop-color:#FFFFFF"/>
				<stop  offset="0.5218" style="stop-color:#FFFFFF"/>
				<stop  offset="0.6672" style="stop-color:#FFFFFF"/>
				<stop  offset="1" style="stop-color:#26A9E0"/>
				<stop  offset="1" style="stop-color:#26A9E0"/>
			</linearGradient>
			<path fill="url(#SVGID_7_)" d="M85.52,138.139c3.175-9.862,6.351-19.725,9.563-29.587c0.336,10.946-3.811,20.509-7.883,30.148
				C86.641,138.512,86.08,138.325,85.52,138.139z"/>
			<linearGradient id="SVGID_8_" gradientUnits="userSpaceOnUse" x1="152.875" y1="228.0859" x2="188.1787" y2="228.0859">
				<stop  offset="0" style="stop-color:#FFFFFF"/>
				<stop  offset="0.1149" style="stop-color:#FFFFFF"/>
				<stop  offset="0.4961" style="stop-color:#D91C5C"/>
				<stop  offset="0.6034" style="stop-color:#D91C5C"/>
				<stop  offset="0.7667" style="stop-color:#D91C5C"/>
				<stop  offset="1" style="stop-color:#D91C5C"/>
			</linearGradient>
			<path fill="url(#SVGID_8_)" d="M186.908,228.656c0.336,3.212,0.821,6.388,1.271,9.899c-11.88-1.232-22.976-5.865-34.78-2.839
				c-0.187-0.486-0.374-0.935-0.523-1.42c1.158-0.896,2.466-1.681,3.512-2.728c2.728-2.802,4.932-6.388,8.145-8.479
				c3.96-2.541,8.592-4.969,13.149-5.454C181.604,217.188,186.46,224.21,186.908,228.656z"/>
		</g>
		<g>
		</g>
	</g>
</g>
<g>
</g>
<g>
</g>
<g>
</g>
<g>
</g>
<g>
</g>
<g>
</g>
<g>
</g>
<g>
</g>
<g>
</g>
<g>
</g>
<g>
</g>
<g>
</g>
<g>
</g>
<g>
</g>
<g>
</g>
</svg>
