<?xml version="1.0" encoding="utf-8"?>
<!-- Generator: Adobe Illustrator 16.0.0, SVG Export Plug-In . SVG Version: 6.00 Build 0)  -->
<!DOCTYPE svg PUBLIC "-//W3C//DTD SVG 1.1//EN" "http://www.w3.org/Graphics/SVG/1.1/DTD/svg11.dtd">
<svg version="1.1" id="Layer_1" xmlns="http://www.w3.org/2000/svg" xmlns:xlink="http://www.w3.org/1999/xlink" x="0px" y="0px"
	 width="225.5px" height="223.083px" viewBox="0 0 225.5 223.083" enable-background="new 0 0 225.5 223.083" xml:space="preserve">
<circle fill="#FFFFFF" stroke="#3A3536" stroke-width="2.126" stroke-linecap="round" stroke-linejoin="round" stroke-miterlimit="10" cx="112.53" cy="108.974" r="102.669"/>
<polygon fill="#3A3536" stroke="#3A3536" stroke-linecap="round" stroke-linejoin="round" stroke-miterlimit="10" points="
	112.016,32.615 79.509,55.315 93.697,92.979 133.167,92.979 144.518,58.668 "/>
<polygon fill="#3A3536" stroke="#3A3536" stroke-linecap="round" stroke-linejoin="round" stroke-miterlimit="10" points="
	37.719,122.904 68.16,125.482 91.892,157.986 70.226,179.655 37.719,159.018 "/>
<path fill="#3A3536" stroke="#3A3536" stroke-linecap="round" stroke-linejoin="round" stroke-miterlimit="10" d="M85.687,9.859
	l6.208,4.183h40.76l4.644-4.183C137.298,9.859,118.689,2.064,85.687,9.859z"/>
<polygon fill="#3A3536" stroke="#3A3536" stroke-linecap="round" stroke-linejoin="round" stroke-miterlimit="10" points="
	153.807,128.06 131.104,157.986 150.709,182.751 185.276,157.986 185.276,126.514 "/>
<path fill="#3A3536" stroke="#3A3536" stroke-linecap="round" stroke-linejoin="round" stroke-miterlimit="10" d="M196.628,92.979
	h17.331c0,0-0.823-26.744-28.683-56.453h-11.867v18.786L196.628,92.979z"/>
<path fill="#3A3536" stroke="#3A3536" stroke-linecap="round" stroke-linejoin="round" stroke-miterlimit="10" d="M85.687,205.454
	l6.208-5.678h41.788l7.741,5.678C141.418,205.454,115.594,219.894,85.687,205.454z"/>
<path fill="#3A3536" stroke="#3A3536" stroke-linecap="round" stroke-linejoin="round" stroke-miterlimit="10" d="M18.115,92.979
	L14,80.085c0,0,7.896-26.396,21.912-39.442l12.125-4.118v23.434L31.02,90.914L18.115,92.979z"/>
<line fill="none" stroke="#3A3536" stroke-linecap="round" stroke-linejoin="round" stroke-miterlimit="10" x1="48.04" y1="36.526" x2="91.892" y2="14.042"/>
<line fill="none" stroke="#3A3536" stroke-linecap="round" stroke-linejoin="round" stroke-miterlimit="10" x1="48.04" y1="58.411" x2="79.509" y2="55.315"/>
<line fill="none" stroke="#3A3536" stroke-linecap="round" stroke-linejoin="round" stroke-miterlimit="10" x1="112.016" y1="32.615" x2="113.551" y2="14.042"/>
<line fill="none" stroke="#3A3536" stroke-linecap="round" stroke-linejoin="round" stroke-miterlimit="10" x1="144.518" y1="58.668" x2="173.409" y2="55.315"/>
<line fill="none" stroke="#3A3536" stroke-linecap="round" stroke-linejoin="round" stroke-miterlimit="10" x1="134.714" y1="14.042" x2="173.409" y2="36.526"/>
<line fill="none" stroke="#3A3536" stroke-linecap="round" stroke-linejoin="round" stroke-miterlimit="10" x1="196.628" y1="92.979" x2="185.276" y2="126.514"/>
<line fill="none" stroke="#3A3536" stroke-linecap="round" stroke-linejoin="round" stroke-miterlimit="10" x1="153.807" y1="128.06" x2="133.167" y2="92.979"/>
<line fill="none" stroke="#3A3536" stroke-linecap="round" stroke-linejoin="round" stroke-miterlimit="10" x1="185.276" y1="157.986" x2="200.237" y2="157.986"/>
<line fill="none" stroke="#3A3536" stroke-linecap="round" stroke-linejoin="round" stroke-miterlimit="10" x1="149.159" y1="182.751" x2="133.683" y2="199.776"/>
<line fill="none" stroke="#3A3536" stroke-linecap="round" stroke-linejoin="round" stroke-miterlimit="10" x1="87.765" y1="199.776" x2="69.963" y2="178.624"/>
<line fill="none" stroke="#3A3536" stroke-linecap="round" stroke-linejoin="round" stroke-miterlimit="10" x1="37.719" y1="159.018" x2="26.37" y2="163.146"/>
<line fill="none" stroke="#3A3536" stroke-linecap="round" stroke-linejoin="round" stroke-miterlimit="10" x1="31.022" y1="92.979" x2="37.719" y2="122.904"/>
<line fill="none" stroke="#3A3536" stroke-linecap="round" stroke-linejoin="round" stroke-miterlimit="10" x1="18.115" y1="92.979" x2="9.859" y2="115.165"/>
<line fill="none" stroke="#3A3536" stroke-linecap="round" stroke-linejoin="round" stroke-miterlimit="10" x1="68.16" y1="125.482" x2="93.697" y2="92.979"/>
<line fill="none" stroke="#3A3536" stroke-linecap="round" stroke-linejoin="round" stroke-miterlimit="10" x1="91.892" y1="157.986" x2="131.104" y2="157.986"/>
</svg>
