<?xml version="1.0" encoding="utf-8"?>
<!DOCTYPE svg PUBLIC "-//W3C//DTD SVG 1.1 Basic//EN" "http://www.w3.org/Graphics/SVG/1.1/DTD/svg11-basic.dtd">
<svg version="1.1" baseProfile="basic" id="Layer_1"
	 xmlns="http://www.w3.org/2000/svg" xmlns:xlink="http://www.w3.org/1999/xlink" x="0px" y="0px" width="300px" height="300px"
	 viewBox="0 0 300 300" xml:space="preserve">
<g>
	<path fill="#F4947F" d="M181.014,257.671c-13.388,29.33-28.564,43.55-58.785,32.886l0,0c-21.042-10.667-28.037-42.838-14.43-59.501
		c28.052-34.355,15.299-85.377,15.299-85.377c0-19.372,15.704-35.075,35.075-35.075l0,0c19.372,0,15.974,16.362,15.974,35.736
		C174.146,146.34,193.417,230.499,181.014,257.671z"/>
	<path fill="#F49580" d="M180.638,257.455c-13.255,29.24-28.282,43.416-58.204,32.785l0,0
		c-20.834-10.635-27.76-42.707-14.288-59.319c27.775-34.25,15.148-85.116,15.148-85.116c0-19.313,15.548-34.968,34.728-34.968l0,0
		c19.181,0,15.816,16.312,15.816,35.627C173.839,146.464,192.919,230.366,180.638,257.455z"/>
	<path fill="#F49681" d="M180.262,257.239c-13.123,29.151-27.999,43.284-57.623,32.685l0,0
		c-20.625-10.602-27.482-42.576-14.145-59.138c27.498-34.146,14.996-84.855,14.996-84.855c0-19.253,15.394-34.86,34.382-34.86l0,0
		c18.988,0,15.657,16.262,15.657,35.518C173.53,146.589,192.42,230.233,180.262,257.239z"/>
	<path fill="#F49682" d="M179.886,257.023c-12.99,29.062-27.717,43.15-57.042,32.584l0,0
		c-20.417-10.568-27.205-42.444-14.001-58.955c27.22-34.041,14.845-84.595,14.845-84.595c0-19.194,15.238-34.753,34.035-34.753l0,0
		c18.798,0,15.5,16.213,15.5,35.409C173.223,146.712,191.922,230.101,179.886,257.023z"/>
	<path fill="#F49783" d="M179.51,256.808c-12.857,28.972-27.435,43.018-56.46,32.484l0,0
		c-20.209-10.537-26.928-42.315-13.859-58.774c26.943-33.936,14.694-84.334,14.694-84.334c0-19.135,15.083-34.646,33.688-34.646l0,0
		c18.606,0,15.342,16.163,15.342,35.299C172.914,146.837,191.423,229.968,179.51,256.808z"/>
	<path fill="#F49884" d="M179.135,256.592c-12.727,28.882-27.153,42.885-55.88,32.383l0,0
		c-20.002-10.504-26.651-42.183-13.717-58.592c26.666-33.831,14.543-84.073,14.543-84.073c0-19.076,14.927-34.539,33.341-34.539l0,0
		c18.415,0,15.185,16.112,15.185,35.19C172.606,146.961,190.925,229.835,179.135,256.592z"/>
	<path fill="#F59985" d="M178.758,256.376c-12.593,28.792-26.87,42.751-55.298,32.282l0,0
		c-19.793-10.471-26.374-42.052-13.574-58.41c26.388-33.725,14.392-83.812,14.392-83.812c0-19.017,14.772-34.432,32.995-34.432l0,0
		c18.223,0,15.025,16.063,15.025,35.082C172.298,147.086,190.426,229.702,178.758,256.376z"/>
	<path fill="#F59A86" d="M178.382,256.16c-12.461,28.702-26.588,42.618-54.716,32.182l0,0
		c-19.586-10.438-26.097-41.921-13.432-58.229c26.111-33.62,14.24-83.55,14.24-83.55c0-18.958,14.617-34.325,32.648-34.325l0,0
		c18.031,0,14.868,16.012,14.868,34.972C171.99,147.21,189.928,229.569,178.382,256.16z"/>
	<path fill="#F59A87" d="M178.007,255.943c-12.329,28.614-26.306,42.486-54.137,32.083l0,0
		c-19.377-10.406-25.819-41.791-13.289-58.047c25.834-33.516,14.089-83.291,14.089-83.291c0-18.898,14.461-34.218,32.301-34.218l0,0
		c17.841,0,14.711,15.963,14.711,34.864C171.683,147.335,189.429,229.437,178.007,255.943z"/>
	<path fill="#F59B88" d="M177.631,255.728c-12.197,28.524-26.023,42.354-53.555,31.982l0,0
		c-19.169-10.374-25.542-41.659-13.146-57.865c25.557-33.41,13.938-83.029,13.938-83.029c0-18.84,14.307-34.11,31.955-34.11l0,0
		c17.648,0,14.552,15.913,14.552,34.753C171.374,147.458,188.93,229.304,177.631,255.728z"/>
	<path fill="#F59C89" d="M177.255,255.512c-12.064,28.435-25.741,42.221-52.974,31.882l0,0
		c-18.961-10.341-25.265-41.528-13.003-57.684c25.279-33.306,13.786-82.768,13.786-82.768c0-18.781,14.151-34.003,31.608-34.003l0,0
		c17.457,0,14.395,15.863,14.395,34.645C171.066,147.583,188.432,229.171,177.255,255.512z"/>
	<path fill="#F59D8A" d="M176.879,255.296c-11.932,28.345-25.458,42.087-52.393,31.781l0,0
		c-18.754-10.308-24.988-41.397-12.861-57.501c25.001-33.201,13.635-82.508,13.635-82.508c0-18.72,13.996-33.896,31.261-33.896l0,0
		c17.266,0,14.236,15.813,14.236,34.536C170.758,147.708,187.934,229.038,176.879,255.296z"/>
	<path fill="#F59E8B" d="M176.503,255.081c-11.8,28.255-25.176,41.953-51.812,31.68l0,0c-18.545-10.275-24.71-41.267-12.718-57.319
		c24.725-33.096,13.484-82.247,13.484-82.247c0-18.661,13.84-33.789,30.915-33.789l0,0c17.074,0,14.078,15.763,14.078,34.427
		C170.45,147.832,187.435,228.905,176.503,255.081z"/>
	<path fill="#F59E8C" d="M176.127,254.865c-11.667,28.165-24.894,41.82-51.23,31.579l0,0
		c-18.337-10.243-24.433-41.136-12.575-57.138c24.447-32.991,13.333-81.985,13.333-81.985c0-18.603,13.686-33.683,30.567-33.683l0,0
		c16.883,0,13.921,15.713,13.921,34.317C170.143,147.956,186.936,228.772,176.127,254.865z"/>
	<path fill="#F59F8D" d="M175.751,254.648c-11.534,28.076-24.611,41.688-50.649,31.479l0,0
		c-18.129-10.21-24.156-41.004-12.433-56.956c24.17-32.886,13.182-81.725,13.182-81.725c0-18.543,13.53-33.575,30.221-33.575l0,0
		c16.691,0,13.763,15.664,13.763,34.209C169.834,148.081,186.438,228.64,175.751,254.648z"/>
	<path fill="#F5A08E" d="M175.375,254.434c-11.402,27.985-24.329,41.554-50.068,31.378l0,0
		c-17.921-10.177-23.879-40.874-12.29-56.774c23.893-32.78,13.03-81.464,13.03-81.464c0-18.484,13.375-33.467,29.875-33.467l0,0
		c16.499,0,13.604,15.613,13.604,34.099C169.526,148.205,185.938,228.507,175.375,254.434z"/>
	<path fill="#F5A18F" d="M174.999,254.217c-11.27,27.897-24.046,41.422-49.487,31.278l0,0
		c-17.713-10.145-23.602-40.742-12.147-56.592c23.615-32.677,12.879-81.203,12.879-81.203c0-18.425,13.22-33.361,29.527-33.361l0,0
		c16.308,0,13.446,15.563,13.446,33.99C169.218,148.329,185.44,228.374,174.999,254.217z"/>
	<path fill="#F6A290" d="M174.623,254.001c-11.137,27.808-23.764,41.289-48.905,31.178l0,0
		c-17.506-10.112-23.325-40.611-12.005-56.41c23.338-32.571,12.728-80.942,12.728-80.942c0-18.366,13.064-33.253,29.181-33.253l0,0
		c16.117,0,13.289,15.513,13.289,33.88C168.91,148.454,184.941,228.241,174.623,254.001z"/>
	<path fill="#F6A291" d="M174.247,253.785c-11.005,27.718-23.481,41.156-48.324,31.077l0,0
		c-17.297-10.079-23.048-40.48-11.862-56.229c23.061-32.466,12.577-80.681,12.577-80.681c0-18.307,12.909-33.146,28.833-33.146l0,0
		c15.926,0,13.132,15.463,13.132,33.772C168.603,148.578,184.443,228.108,174.247,253.785z"/>
	<path fill="#F6A392" d="M173.871,253.569c-10.872,27.628-23.199,41.022-47.743,30.978l0,0
		c-17.089-10.047-22.771-40.351-11.72-56.047c22.784-32.361,12.426-80.421,12.426-80.421c0-18.248,12.754-33.039,28.487-33.039l0,0
		c15.733,0,12.973,15.413,12.973,33.662C168.294,148.702,183.944,227.976,173.871,253.569z"/>
	<path fill="#F6A493" d="M173.496,253.354c-10.741,27.538-22.917,40.89-47.163,30.877l0,0
		c-16.881-10.015-22.493-40.22-11.577-55.865c22.506-32.256,12.275-80.16,12.275-80.16c0-18.188,12.598-32.932,28.14-32.932l0,0
		c15.542,0,12.815,15.363,12.815,33.554C167.986,148.827,183.446,227.843,173.496,253.354z"/>
	<path fill="#F6A594" d="M173.119,253.138c-10.607,27.448-22.634,40.757-46.581,30.776l0,0
		c-16.673-9.982-22.216-40.088-11.434-55.684c22.228-32.151,12.123-79.898,12.123-79.898c0-18.129,12.442-32.825,27.793-32.825l0,0
		c15.351,0,12.657,15.313,12.657,33.444C167.678,148.951,182.947,227.71,173.119,253.138z"/>
	<path fill="#F6A695" d="M172.744,252.922c-10.477,27.359-22.353,40.624-46,30.676l0,0c-16.466-9.949-21.939-39.957-11.292-55.502
		c21.951-32.046,11.972-79.638,11.972-79.638c0-18.07,12.288-32.718,27.447-32.718l0,0c15.159,0,12.499,15.264,12.499,33.335
		C167.37,149.075,182.449,227.577,172.744,252.922z"/>
	<path fill="#F6A696" d="M172.368,252.706c-10.343,27.27-22.07,40.491-45.419,30.575l0,0c-16.258-9.916-21.662-39.826-11.149-55.32
		c21.674-31.941,11.821-79.376,11.821-79.376c0-18.011,12.132-32.611,27.1-32.611l0,0c14.968,0,12.341,15.214,12.341,33.226
		C167.062,149.2,181.95,227.444,172.368,252.706z"/>
	<path fill="#F6A797" d="M171.992,252.49c-10.211,27.18-21.788,40.357-44.838,30.475l0,0c-16.049-9.884-21.385-39.695-11.007-55.139
		c21.397-31.836,11.67-79.115,11.67-79.115c0-17.952,11.977-32.504,26.753-32.504l0,0c14.776,0,12.184,15.164,12.184,33.117
		C166.754,149.324,181.452,227.312,171.992,252.49z"/>
	<path fill="#F6A898" d="M171.616,252.274c-10.079,27.09-21.505,40.225-44.257,30.374l0,0
		c-15.841-9.852-21.107-39.564-10.864-54.956c21.12-31.731,11.518-78.855,11.518-78.855c0-17.892,11.822-32.396,26.406-32.396l0,0
		c14.586,0,12.026,15.114,12.026,33.008C166.446,149.448,180.953,227.179,171.616,252.274z"/>
	<path fill="#F6A999" d="M171.24,252.059c-9.946,27-21.223,40.092-43.675,30.273l0,0c-15.633-9.818-20.831-39.434-10.722-54.774
		c20.842-31.626,11.368-78.594,11.368-78.594c0-17.833,11.667-32.29,26.06-32.29l0,0c14.394,0,11.867,15.064,11.867,32.898
		C166.138,149.573,180.455,227.046,171.24,252.059z"/>
	<path fill="#F6AA9A" d="M170.864,251.843c-9.813,26.911-20.94,39.958-43.095,30.173l0,0c-15.425-9.785-20.553-39.302-10.578-54.593
		c20.564-31.521,11.216-78.333,11.216-78.333c0-17.774,11.512-32.182,25.713-32.182l0,0c14.202,0,11.71,15.013,11.71,32.789
		C165.83,149.697,179.957,226.913,170.864,251.843z"/>
	<path fill="#F7AA9B" d="M170.488,251.627c-9.682,26.821-20.658,39.825-42.513,30.072l0,0c-15.218-9.753-20.276-39.171-10.436-54.41
		c20.288-31.416,11.064-78.073,11.064-78.073c0-17.715,11.356-32.075,25.367-32.075l0,0c14.01,0,11.551,14.963,11.551,32.68
		C165.521,149.821,179.458,226.78,170.488,251.627z"/>
	<path fill="#F7AB9C" d="M170.112,251.41c-9.55,26.732-20.375,39.693-41.932,29.973l0,0c-15.009-9.721-19.999-39.04-10.293-54.229
		c20.01-31.312,10.914-77.812,10.914-77.812c0-17.656,11.201-31.968,25.02-31.968l0,0c13.818,0,11.394,14.915,11.394,32.571
		C165.214,149.945,178.959,226.647,170.112,251.41z"/>
	<path fill="#F7AC9D" d="M169.736,251.195c-9.416,26.643-20.093,39.56-41.351,29.871l0,0c-14.801-9.688-19.722-38.909-10.15-54.047
		c19.732-31.206,10.762-77.551,10.762-77.551c0-17.597,11.046-31.86,24.673-31.86l0,0c13.627,0,11.236,14.864,11.236,32.462
		C164.906,150.07,178.461,226.515,169.736,251.195z"/>
	<path fill="#F7AD9E" d="M169.36,250.979c-9.284,26.554-19.811,39.428-40.77,29.771l0,0c-14.593-9.654-19.444-38.778-10.008-53.865
		c19.456-31.102,10.61-77.289,10.61-77.289c0-17.538,10.891-31.754,24.326-31.754l0,0c13.437,0,11.078,14.813,11.078,32.353
		C164.598,150.194,177.963,226.382,169.36,250.979z"/>
	<path fill="#F7AE9F" d="M168.984,250.763c-9.151,26.464-19.528,39.294-40.188,29.672l0,0c-14.385-9.624-19.167-38.647-9.865-53.685
		c19.179-30.996,10.459-77.028,10.459-77.028c0-17.479,10.736-31.646,23.979-31.646l0,0c13.245,0,10.921,14.764,10.921,32.244
		C164.29,150.319,177.464,226.249,168.984,250.763z"/>
	<path fill="#F7AE9F" d="M168.609,250.547c-9.02,26.374-19.247,39.16-39.608,29.57l0,0c-14.177-9.59-18.89-38.516-9.723-53.502
		c18.901-30.891,10.309-76.767,10.309-76.767c0-17.42,10.58-31.54,23.633-31.54l0,0c13.053,0,10.762,14.714,10.762,32.135
		C163.981,150.443,176.965,226.116,168.609,250.547z"/>
	<path fill="#F7AFA0" d="M168.233,250.331c-8.888,26.284-18.964,39.028-39.027,29.471l0,0c-13.969-9.558-18.613-38.386-9.58-53.32
		c18.624-30.786,10.157-76.507,10.157-76.507c0-17.36,10.425-31.433,23.286-31.433l0,0c12.861,0,10.604,14.664,10.604,32.025
		C163.674,150.567,176.467,225.983,168.233,250.331z"/>
	<path fill="#F7B0A1" d="M167.857,250.115c-8.755,26.195-18.682,38.895-38.445,29.369l0,0c-13.761-9.524-18.336-38.254-9.438-53.138
		c18.346-30.682,10.006-76.246,10.006-76.246c0-17.301,10.27-31.325,22.939-31.325l0,0c12.67,0,10.445,14.614,10.445,31.917
		C163.365,150.692,175.969,225.851,167.857,250.115z"/>
	<path fill="#F7B1A2" d="M167.48,249.899c-8.622,26.104-18.398,38.762-37.863,29.269l0,0c-13.554-9.491-18.059-38.123-9.295-52.956
		c18.069-30.576,9.855-75.984,9.855-75.984c0-17.242,10.114-31.218,22.592-31.218l0,0c12.479,0,10.288,14.564,10.288,31.807
		C163.058,150.816,175.47,225.718,167.48,249.899z"/>
	<path fill="#F7B2A3" d="M167.105,249.684c-8.49,26.016-18.116,38.629-37.283,29.169l0,0c-13.345-9.46-17.782-37.993-9.152-52.774
		c17.792-30.472,9.704-75.725,9.704-75.725c0-17.183,9.959-31.111,22.246-31.111l0,0c12.287,0,10.131,14.515,10.131,31.698
		C162.75,150.94,174.971,225.585,167.105,249.684z"/>
	<path fill="#F8B2A4" d="M166.729,249.468c-8.358,25.926-17.834,38.495-36.702,29.068l0,0c-13.137-9.427-17.504-37.862-9.009-52.593
		c17.514-30.367,9.552-75.464,9.552-75.464c0-17.123,9.804-31.003,21.898-31.003l0,0c12.096,0,9.973,14.464,9.973,31.588
		C162.441,151.064,174.473,225.452,166.729,249.468z"/>
	<path fill="#F8B3A5" d="M166.354,249.252c-8.226,25.836-17.552,38.363-36.121,28.968l0,0c-12.929-9.395-17.227-37.731-8.866-52.411
		c17.237-30.262,9.4-75.202,9.4-75.202c0-17.064,9.649-30.897,21.552-30.897l0,0c11.904,0,9.815,14.415,9.815,31.48
		C162.134,151.189,173.974,225.319,166.354,249.252z"/>
	<path fill="#F8B4A6" d="M165.978,249.036c-8.093,25.747-17.27,38.229-35.54,28.867l0,0c-12.721-9.361-16.951-37.6-8.724-52.229
		c16.96-30.156,9.25-74.941,9.25-74.941c0-17.004,9.493-30.79,21.205-30.79l0,0c11.712,0,9.656,14.365,9.656,31.371
		C161.825,151.313,173.476,225.187,165.978,249.036z"/>
	<path fill="#F8B5A7" d="M165.602,248.82c-7.961,25.657-16.987,38.097-34.958,28.767l0,0c-12.513-9.329-16.673-37.469-8.582-52.048
		c16.683-30.051,9.099-74.68,9.099-74.68c0-16.945,9.338-30.682,20.859-30.682l0,0c11.521,0,9.498,14.314,9.498,31.261
		C161.518,151.438,172.977,225.054,165.602,248.82z"/>
	<path fill="#F8B6A8" d="M165.226,248.604c-7.828,25.567-16.705,37.964-34.377,28.666l0,0c-12.305-9.296-16.396-37.338-8.439-51.865
		c16.405-29.946,8.947-74.42,8.947-74.42c0-16.886,9.183-30.575,20.512-30.575l0,0c11.329,0,9.34,14.264,9.34,31.152
		C161.209,151.562,172.479,224.921,165.226,248.604z"/>
	<path fill="#F8B6A9" d="M164.85,248.389c-7.696,25.478-16.422,37.83-33.796,28.565l0,0c-12.097-9.264-16.118-37.207-8.296-51.684
		c16.127-29.842,8.796-74.159,8.796-74.159c0-16.827,9.027-30.468,20.165-30.468l0,0c11.138,0,9.183,14.214,9.183,31.043
		C160.901,151.687,171.979,224.788,164.85,248.389z"/>
	<path fill="#F8B7AA" d="M164.475,248.173c-7.564,25.388-16.141,37.697-33.216,28.466l0,0c-11.889-9.231-15.841-37.076-8.153-51.502
		c15.851-29.737,8.645-73.898,8.645-73.898c0-16.768,8.872-30.361,19.818-30.361l0,0c10.947,0,9.025,14.165,9.025,30.934
		C160.594,151.811,171.481,224.655,164.475,248.173z"/>
	<path fill="#F8B8AB" d="M164.098,247.957c-7.432,25.299-15.857,37.564-32.634,28.365l0,0c-11.681-9.199-15.564-36.945-8.011-51.321
		c15.573-29.632,8.494-73.637,8.494-73.637c0-16.708,8.717-30.254,19.471-30.254l0,0c10.756,0,8.867,14.115,8.867,30.825
		C160.285,151.936,170.982,224.522,164.098,247.957z"/>
	<path fill="#F8B9AC" d="M163.723,247.741c-7.299,25.209-15.575,37.431-32.053,28.265l0,0c-11.473-9.166-15.287-36.814-7.868-51.139
		c15.295-29.527,8.342-73.377,8.342-73.377c0-16.649,8.562-30.146,19.125-30.146l0,0c10.563,0,8.709,14.064,8.709,30.715
		C159.978,152.06,170.484,224.39,163.723,247.741z"/>
	<path fill="#F8BAAD" d="M163.346,247.525c-7.166,25.119-15.292,37.299-31.471,28.164l0,0c-11.265-9.134-15.01-36.684-7.726-50.957
		c15.018-29.422,8.191-73.115,8.191-73.115c0-16.59,8.407-30.04,18.778-30.04l0,0c10.372,0,8.552,14.016,8.552,30.606
		C159.67,152.184,169.985,224.257,163.346,247.525z"/>
	<path fill="#F8BAAE" d="M162.971,247.309c-7.034,25.03-15.011,37.166-30.891,28.064l0,0c-11.056-9.101-14.732-36.553-7.583-50.775
		c14.742-29.316,8.041-72.854,8.041-72.854c0-16.531,8.251-29.933,18.431-29.933l0,0c10.18,0,8.393,13.965,8.393,30.498
		C159.361,152.309,169.486,224.124,162.971,247.309z"/>
	<path fill="#F9BBAF" d="M162.595,247.094c-6.902,24.939-14.729,37.032-30.31,27.963l0,0c-10.849-9.068-14.456-36.422-7.44-50.594
		c14.464-29.212,7.889-72.593,7.889-72.593c0-16.472,8.096-29.826,18.084-29.826l0,0c9.989,0,8.236,13.915,8.236,30.388
		C159.054,152.433,168.988,223.991,162.595,247.094z"/>
	<path fill="#F9BCB0" d="M162.219,246.878c-6.77,24.851-14.446,36.899-29.729,27.862l0,0c-10.641-9.035-14.179-36.291-7.298-50.411
		c14.187-29.107,7.738-72.333,7.738-72.333c0-16.413,7.941-29.718,17.738-29.718l0,0c9.798,0,8.077,13.865,8.077,30.279
		C158.745,152.557,168.49,223.858,162.219,246.878z"/>
	<path fill="#F9BDB1" d="M161.843,246.662c-6.638,24.761-14.164,36.766-29.147,27.762l0,0c-10.433-9.003-13.902-36.159-7.155-50.229
		c13.909-29.002,7.586-72.072,7.586-72.072c0-16.353,7.785-29.61,17.391-29.61l0,0c9.606,0,7.919,13.814,7.919,30.17
		C158.438,152.682,167.991,223.726,161.843,246.662z"/>
	<path fill="#F9BEB2" d="M161.467,246.446c-6.505,24.671-13.881,36.633-28.566,27.661l0,0c-10.225-8.97-13.625-36.028-7.013-50.048
		c13.632-28.897,7.435-71.811,7.435-71.811c0-16.294,7.631-29.504,17.044-29.504l0,0c9.415,0,7.761,13.765,7.761,30.061
		C158.129,152.806,167.492,223.593,161.467,246.446z"/>
	<path fill="#F9BEB3" d="M161.091,246.23c-6.372,24.582-13.598,36.5-27.985,27.561l0,0c-10.017-8.938-13.347-35.897-6.87-49.866
		c13.354-28.792,7.284-71.55,7.284-71.55c0-16.234,7.475-29.396,16.698-29.396l0,0c9.223,0,7.604,13.715,7.604,29.951
		C157.821,152.93,166.994,223.46,161.091,246.23z"/>
	<path fill="#F9BFB4" d="M160.715,246.015c-6.24,24.491-13.316,36.367-27.404,27.46l0,0c-9.808-8.904-13.07-35.767-6.727-49.684
		c13.077-28.688,7.133-71.289,7.133-71.289c0-16.176,7.319-29.29,16.351-29.29l0,0c9.032,0,7.446,13.665,7.446,29.842
		C157.514,153.054,166.496,223.327,160.715,246.015z"/>
	<path fill="#F9C0B5" d="M160.339,245.798c-6.107,24.403-13.033,36.235-26.822,27.36l0,0c-9.601-8.872-12.793-35.636-6.585-49.502
		c12.8-28.582,6.981-71.028,6.981-71.028c0-16.117,7.165-29.183,16.004-29.183l0,0c8.84,0,7.288,13.615,7.288,29.733
		C157.205,153.179,165.997,223.194,160.339,245.798z"/>
	<path fill="#F9C1B6" d="M159.963,245.582c-5.976,24.313-12.751,36.102-26.241,27.26l0,0c-9.393-8.839-12.516-35.505-6.441-49.32
		c12.522-28.477,6.83-70.768,6.83-70.768c0-16.058,7.009-29.075,15.657-29.075l0,0c8.648,0,7.13,13.565,7.13,29.624
		C156.897,153.303,165.499,223.062,159.963,245.582z"/>
	<path fill="#F9C2B7" d="M159.587,245.366c-5.843,24.224-12.469,35.969-25.66,27.159l0,0c-9.185-8.807-12.238-35.373-6.299-49.139
		c12.245-28.372,6.679-70.506,6.679-70.506c0-15.999,6.854-28.968,15.311-28.968l0,0c8.457,0,6.972,13.515,6.972,29.514
		C156.589,153.427,165,222.929,159.587,245.366z"/>
	<path fill="#F9C2B8" d="M159.211,245.15c-5.711,24.134-12.186,35.836-25.079,27.059l0,0c-8.977-8.773-11.96-35.242-6.156-48.957
		c11.968-28.267,6.528-70.245,6.528-70.245c0-15.939,6.699-28.861,14.964-28.861l0,0c8.265,0,6.814,13.466,6.814,29.406
		C156.281,153.552,164.502,222.796,159.211,245.15z"/>
	<path fill="#F9C3B9" d="M158.836,244.935c-5.578,24.045-11.905,35.702-24.499,26.958l0,0c-8.769-8.741-11.684-35.111-6.014-48.774
		c11.691-28.162,6.376-69.985,6.376-69.985c0-15.879,6.544-28.753,14.617-28.753l0,0c8.075,0,6.656,13.415,6.656,29.296
		C155.973,153.676,164.003,222.663,158.836,244.935z"/>
	<path fill="#FAC4BA" d="M158.46,244.719c-5.446,23.955-11.623,35.569-23.917,26.858l0,0c-8.56-8.709-11.407-34.981-5.871-48.594
		c11.414-28.058,6.225-69.724,6.225-69.724c0-15.821,6.388-28.647,14.271-28.647l0,0c7.883,0,6.498,13.366,6.498,29.187
		C155.665,153.8,163.505,222.53,158.46,244.719z"/>
	<path fill="#FAC5BB" d="M158.084,244.503c-5.313,23.865-11.339,35.437-23.336,26.758l0,0c-8.353-8.677-11.13-34.851-5.729-48.412
		c11.136-27.952,6.074-69.462,6.074-69.462c0-15.762,6.233-28.541,13.924-28.541l0,0c7.691,0,6.34,13.315,6.34,29.079
		C155.357,153.925,163.006,222.397,158.084,244.503z"/>
	<path fill="#FAC6BC" d="M157.708,244.287c-5.182,23.775-11.057,35.304-22.755,26.657l0,0c-8.145-8.644-10.853-34.719-5.586-48.229
		c10.858-27.848,5.923-69.202,5.923-69.202c0-15.703,6.078-28.433,13.577-28.433l0,0c7.5,0,6.182,13.265,6.182,28.969
		C155.049,154.049,162.508,222.265,157.708,244.287z"/>
	<path fill="#FAC6BD" d="M157.332,244.071c-5.049,23.687-10.775,35.171-22.174,26.557l0,0c-7.937-8.611-10.575-34.588-5.443-48.049
		c10.582-27.742,5.772-68.94,5.772-68.94c0-15.643,5.922-28.326,13.23-28.326l0,0c7.308,0,6.024,13.216,6.024,28.86
		C154.741,154.173,162.009,222.132,157.332,244.071z"/>
	<path fill="#FAC7BE" d="M156.956,243.855c-4.917,23.597-10.492,35.037-21.593,26.456l0,0c-7.729-8.579-10.298-34.457-5.3-47.866
		c10.304-27.638,5.62-68.68,5.62-68.68c0-15.584,5.768-28.219,12.883-28.219l0,0c7.117,0,5.867,13.166,5.867,28.751
		C154.434,154.298,161.511,221.999,156.956,243.855z"/>
	<path fill="#FAC8BF" d="M156.58,243.64c-4.784,23.507-10.21,34.904-21.011,26.355l0,0c-7.521-8.546-10.021-34.326-5.158-47.685
		c10.027-27.532,5.469-68.419,5.469-68.419c0-15.525,5.612-28.111,12.537-28.111l0,0c6.925,0,5.708,13.116,5.708,28.642
		C154.125,154.422,161.012,221.866,156.58,243.64z"/>
</g>
<g>
	<path fill="#0D5F31" d="M69.893,163.363c-40.654-5.026-38.693-46.452-14.94-70.203l53.682-69.263
		c23.752-23.754,61.525-24.491,84.368-1.648l51.628,67.208c22.841,22.845,25.489,66.161-13.698,73.906
		c0,0-30.931,6.468-79.442,6.468C106.006,169.831,69.893,163.363,69.893,163.363z"/>
	<path fill="#0E6031" d="M70.289,163.184c-40.454-5.002-38.503-46.223-14.867-69.857l53.418-68.923
		c23.636-23.637,61.223-24.371,83.953-1.64l51.374,66.877c22.729,22.733,25.364,65.836-13.631,73.543c0,0-30.778,6.436-79.052,6.436
		C106.224,169.619,70.289,163.184,70.289,163.184z"/>
	<path fill="#0F6131" d="M70.684,163.003c-40.254-4.977-38.313-45.995-14.794-69.512l53.155-68.582
		c23.519-23.521,60.92-24.251,83.539-1.632l51.119,66.547c22.616,22.62,25.238,65.51-13.563,73.179c0,0-30.626,6.404-78.661,6.404
		C106.442,169.407,70.684,163.003,70.684,163.003z"/>
	<path fill="#106231" d="M71.08,162.823c-40.055-4.952-38.123-45.766-14.72-69.167l52.89-68.241
		c23.402-23.404,60.618-24.13,83.124-1.624l50.866,66.217c22.504,22.508,25.113,65.185-13.496,72.815c0,0-30.475,6.373-78.271,6.373
		C106.66,169.196,71.08,162.823,71.08,162.823z"/>
	<path fill="#116332" d="M71.475,162.643c-39.855-4.927-37.932-45.538-14.646-68.822l52.626-67.9
		c23.285-23.287,60.315-24.01,82.709-1.616l50.612,65.886c22.392,22.396,24.987,64.86-13.429,72.452c0,0-30.322,6.341-77.88,6.341
		C106.878,168.983,71.475,162.643,71.475,162.643z"/>
	<path fill="#126332" d="M71.871,162.464c-39.655-4.903-37.742-45.31-14.574-68.478l52.363-67.56
		c23.168-23.17,60.013-23.889,82.294-1.607l50.359,65.556c22.279,22.284,24.862,64.534-13.362,72.089c0,0-30.17,6.309-77.489,6.309
		C107.096,168.772,71.871,162.464,71.871,162.464z"/>
	<path fill="#136432" d="M72.267,162.283c-39.455-4.878-37.552-45.081-14.5-68.131l52.098-67.22
		c23.052-23.053,59.711-23.769,81.88-1.6l50.104,65.226c22.167,22.171,24.737,64.208-13.294,71.725c0,0-30.019,6.277-77.099,6.277
		C107.314,168.561,72.267,162.283,72.267,162.283z"/>
	<path fill="#146532" d="M72.662,162.104C33.407,157.25,35.3,117.25,58.236,94.316l51.834-66.879
		c22.935-22.937,59.408-23.648,81.465-1.591l49.851,64.895c22.055,22.059,24.612,63.884-13.227,71.362
		c0,0-29.866,6.244-76.708,6.244C107.532,168.348,72.662,162.104,72.662,162.104z"/>
	<path fill="#156632" d="M73.058,161.924c-39.055-4.829-37.171-44.625-14.353-67.442l51.571-66.539
		c22.818-22.819,59.105-23.528,81.05-1.583l49.597,64.565c21.943,21.946,24.487,63.559-13.159,70.999c0,0-29.714,6.213-76.317,6.213
		C107.75,168.137,73.058,161.924,73.058,161.924z"/>
	<path fill="#166732" d="M73.453,161.743c-38.855-4.805-36.98-44.396-14.279-67.096l51.307-66.198
		c22.701-22.703,58.803-23.408,80.635-1.575l49.343,64.234c21.83,21.834,24.361,63.233-13.092,70.635c0,0-29.562,6.182-75.927,6.182
		C107.968,167.925,73.453,161.743,73.453,161.743z"/>
	<path fill="#176833" d="M73.849,161.563c-38.655-4.78-36.791-44.168-14.206-66.751l51.042-65.857
		c22.584-22.586,58.501-23.288,80.22-1.567l49.09,63.903c21.718,21.722,24.235,62.908-13.025,70.272c0,0-29.409,6.149-75.536,6.149
		C108.187,167.713,73.849,161.563,73.849,161.563z"/>
	<path fill="#186933" d="M74.244,161.384c-38.455-4.755-36.601-43.94-14.132-66.406l50.779-65.517
		c22.468-22.47,58.198-23.167,79.806-1.56l48.835,63.574c21.605,21.609,24.111,62.583-12.957,69.909c0,0-29.258,6.117-75.146,6.117
		C108.404,167.501,74.244,161.384,74.244,161.384z"/>
	<path fill="#196A33" d="M74.64,161.203c-38.255-4.729-36.411-43.711-14.059-66.061l50.515-65.176
		c22.351-22.353,57.896-23.046,79.391-1.551l48.581,63.243c21.493,21.497,23.985,62.257-12.89,69.545c0,0-29.105,6.086-74.756,6.086
		C108.623,167.289,74.64,161.203,74.64,161.203z"/>
	<path fill="#1A6B33" d="M75.035,161.023c-38.056-4.705-36.22-43.483-13.985-65.716l50.251-64.835
		c22.234-22.236,57.593-22.926,78.976-1.543l48.328,62.913c21.381,21.385,23.86,61.932-12.823,69.182c0,0-28.953,6.054-74.364,6.054
		C108.84,167.077,75.035,161.023,75.035,161.023z"/>
	<path fill="#1B6B33" d="M75.431,160.844c-37.856-4.681-36.03-43.254-13.912-65.371l49.987-64.495
		c22.118-22.119,57.291-22.806,78.561-1.535l48.074,62.582c21.269,21.272,23.735,61.605-12.755,68.818
		c0,0-28.802,6.022-73.975,6.022C109.059,166.866,75.431,160.844,75.431,160.844z"/>
	<path fill="#1C6C33" d="M75.826,160.663c-37.655-4.656-35.839-43.025-13.838-65.025l49.723-64.154
		c22-22.002,56.988-22.685,78.146-1.527l47.819,62.251c21.157,21.16,23.61,61.281-12.688,68.455c0,0-28.649,5.991-73.583,5.991
		C109.276,166.654,75.826,160.663,75.826,160.663z"/>
	<path fill="#1D6D34" d="M76.222,160.482c-37.456-4.631-35.649-42.796-13.765-64.68l49.459-63.814
		c21.883-21.885,56.686-22.565,77.731-1.519l47.565,61.921c21.045,21.048,23.484,60.957-12.62,68.091c0,0-28.497,5.959-73.192,5.959
		C109.494,166.441,76.222,160.482,76.222,160.482z"/>
	<path fill="#1E6E34" d="M76.618,160.303c-37.256-4.606-35.459-42.568-13.692-64.334l49.195-63.474
		c21.767-21.768,56.383-22.444,77.316-1.51l47.312,61.591c20.932,20.935,23.358,60.63-12.554,67.728c0,0-28.345,5.928-72.802,5.928
		C109.713,166.23,76.618,160.303,76.618,160.303z"/>
	<path fill="#1F6F34" d="M77.014,160.123c-37.057-4.581-35.269-42.34-13.618-63.989l48.931-63.133
		c21.65-21.652,56.081-22.324,76.901-1.503l47.06,61.261c20.819,20.823,23.232,60.305-12.486,67.364c0,0-28.193,5.896-72.412,5.896
		C109.931,166.019,77.014,160.123,77.014,160.123z"/>
	<path fill="#207034" d="M77.409,159.942c-36.856-4.557-35.079-42.111-13.545-63.644l48.667-62.792
		c21.534-21.535,55.778-22.204,76.486-1.495l46.805,60.93c20.707,20.711,23.108,59.98-12.418,67.001c0,0-28.041,5.864-72.021,5.864
		C110.148,165.807,77.409,159.942,77.409,159.942z"/>
	<path fill="#217134" d="M77.804,159.763c-36.656-4.532-34.889-41.883-13.472-63.299l48.404-62.452
		c21.416-21.418,55.476-22.083,76.072-1.486l46.55,60.6c20.596,20.599,22.983,59.654-12.351,66.638c0,0-27.89,5.832-71.631,5.832
		C110.366,165.595,77.804,159.763,77.804,159.763z"/>
	<path fill="#227234" d="M78.199,159.583c-36.456-4.508-34.697-41.655-13.397-62.954l48.14-62.111
		c21.3-21.301,55.173-21.962,75.657-1.479l46.297,60.27c20.483,20.486,22.857,59.329-12.284,66.274c0,0-27.736,5.8-71.239,5.8
		C110.584,165.383,78.199,159.583,78.199,159.583z"/>
	<path fill="#237335" d="M78.595,159.403c-36.256-4.483-34.507-41.427-13.324-62.609l47.875-61.771
		c21.184-21.184,54.871-21.842,75.243-1.47l46.043,59.939c20.37,20.374,22.731,59.004-12.217,65.911c0,0-27.585,5.769-70.85,5.769
		C110.803,165.172,78.595,159.403,78.595,159.403z"/>
	<path fill="#247335" d="M78.991,159.223c-36.057-4.458-34.317-41.198-13.251-62.264l47.612-61.43
		c21.066-21.068,54.568-21.722,74.827-1.463l45.79,59.609c20.258,20.261,22.606,58.678-12.149,65.547c0,0-27.433,5.736-70.459,5.736
		C111.021,164.959,78.991,159.223,78.991,159.223z"/>
	<path fill="#257435" d="M79.386,159.043c-35.856-4.434-34.127-40.97-13.177-61.919l47.348-61.089
		c20.949-20.951,54.266-21.602,74.412-1.454l45.535,59.278c20.146,20.149,22.482,58.353-12.081,65.185
		c0,0-27.281,5.704-70.068,5.704C111.238,164.747,79.386,159.043,79.386,159.043z"/>
	<path fill="#267535" d="M79.782,158.863c-35.656-4.409-33.937-40.742-13.104-61.574l47.084-60.749
		c20.833-20.834,53.963-21.481,73.998-1.446l45.281,58.947c20.033,20.037,22.356,58.028-12.015,64.821
		c0,0-27.129,5.673-69.677,5.673C111.457,164.536,79.782,158.863,79.782,158.863z"/>
	<path fill="#277635" d="M80.178,158.683c-35.457-4.384-33.747-40.512-13.03-61.228l46.819-60.408
		c20.716-20.717,53.661-21.361,73.584-1.438l45.027,58.617c19.921,19.924,22.23,57.703-11.947,64.457c0,0-26.977,5.642-69.287,5.642
		C111.675,164.324,80.178,158.683,80.178,158.683z"/>
	<path fill="#287735" d="M80.573,158.503c-35.257-4.359-33.557-40.285-12.958-60.883l46.556-60.067
		c20.599-20.601,53.358-21.241,73.169-1.43l44.773,58.287c19.809,19.812,22.105,57.377-11.88,64.094c0,0-26.824,5.609-68.896,5.609
		C111.893,164.112,80.573,158.503,80.573,158.503z"/>
	<path fill="#297836" d="M80.969,158.322c-35.058-4.334-33.367-40.056-12.884-60.537l46.292-59.728
		c20.482-20.483,53.056-21.12,72.754-1.422l44.52,57.956c19.696,19.699,21.98,57.052-11.812,63.73c0,0-26.673,5.578-68.506,5.578
		C112.11,163.9,80.969,158.322,80.969,158.322z"/>
	<path fill="#2A7936" d="M81.364,158.143c-34.857-4.31-33.176-39.827-12.811-60.192l46.028-59.387
		c20.365-20.367,52.754-21,72.339-1.414l44.266,57.626c19.585,19.587,21.855,56.727-11.745,63.367c0,0-26.52,5.546-68.115,5.546
		C112.328,163.688,81.364,158.143,81.364,158.143z"/>
	<path fill="#2B7A36" d="M81.76,157.963c-34.657-4.285-32.985-39.599-12.737-59.848l45.764-59.046
		c20.249-20.25,52.451-20.879,71.924-1.405l44.013,57.295c19.472,19.475,21.729,56.402-11.678,63.003c0,0-26.368,5.514-67.725,5.514
		C112.547,163.477,81.76,157.963,81.76,157.963z"/>
	<path fill="#2C7B36" d="M82.155,157.783c-34.458-4.261-32.796-39.371-12.663-59.503l45.5-58.705
		c20.132-20.133,52.148-20.759,71.51-1.398l43.758,56.965c19.359,19.362,21.604,56.076-11.61,62.641c0,0-26.217,5.482-67.334,5.482
		C112.765,163.266,82.155,157.783,82.155,157.783z"/>
	<path fill="#2D7B36" d="M82.551,157.603c-34.258-4.235-32.605-39.142-12.59-59.157l45.236-58.365
		c20.015-20.016,51.846-20.638,71.094-1.39l43.504,56.635c19.248,19.251,21.48,55.751-11.542,62.277c0,0-26.064,5.45-66.943,5.45
		C112.982,163.053,82.551,157.603,82.551,157.603z"/>
	<path fill="#2E7C36" d="M82.946,157.423c-34.058-4.211-32.415-38.914-12.517-58.812l44.973-58.024
		c19.898-19.9,51.543-20.519,70.68-1.382l43.25,56.304c19.136,19.138,21.354,55.425-11.475,61.914c0,0-25.912,5.419-66.553,5.419
		C113.201,162.842,82.946,157.423,82.946,157.423z"/>
	<path fill="#2F7D37" d="M83.342,157.243c-33.857-4.187-32.225-38.686-12.442-58.467l44.708-57.683
		c19.781-19.783,51.241-20.398,70.265-1.374l42.997,55.974c19.023,19.025,21.229,55.1-11.408,61.55c0,0-25.76,5.387-66.162,5.387
		C113.419,162.63,83.342,157.243,83.342,157.243z"/>
	<path fill="#307E37" d="M83.737,157.062c-33.658-4.161-32.034-38.457-12.37-58.122l44.445-57.343
		c19.665-19.666,50.938-20.277,69.85-1.365l42.743,55.644c18.911,18.913,21.104,54.775-11.341,61.187c0,0-25.608,5.355-65.771,5.355
		C113.637,162.418,83.737,157.062,83.737,157.062z"/>
	<path fill="#317F37" d="M84.133,156.882c-33.458-4.137-31.844-38.228-12.296-57.776l44.181-57.002
		c19.548-19.549,50.636-20.157,69.435-1.357l42.489,55.313c18.799,18.8,20.978,54.449-11.273,60.822c0,0-25.456,5.324-65.381,5.324
		C113.854,162.206,84.133,156.882,84.133,156.882z"/>
	<path fill="#328037" d="M84.528,156.702c-33.258-4.112-31.653-38-12.222-57.431l43.917-56.662
		c19.432-19.432,50.334-20.037,69.021-1.349l42.234,54.982c18.687,18.688,20.853,54.124-11.206,60.459c0,0-25.304,5.292-64.99,5.292
		C114.072,161.994,84.528,156.702,84.528,156.702z"/>
	<path fill="#338137" d="M84.924,156.523c-33.058-4.088-31.463-37.772-12.149-57.087l43.653-56.321
		c19.314-19.315,50.031-19.916,68.605-1.341l41.981,54.652c18.574,18.576,20.728,53.799-11.139,60.097c0,0-25.152,5.259-64.6,5.259
		C114.291,161.782,84.924,156.523,84.924,156.523z"/>
	<path fill="#348237" d="M85.319,156.343c-32.858-4.062-31.273-37.543-12.075-56.741l43.389-55.981
		c19.197-19.198,49.729-19.795,68.19-1.333l41.728,54.321c18.462,18.464,20.602,53.474-11.071,59.733c0,0-24.999,5.228-64.209,5.228
		C114.509,161.57,85.319,156.343,85.319,156.343z"/>
	<path fill="#358338" d="M85.715,156.162c-32.658-4.038-31.083-37.314-12.002-56.396l43.125-55.641
		c19.081-19.082,49.426-19.675,67.775-1.325l41.474,53.992c18.35,18.351,20.477,53.148-11.004,59.369c0,0-24.848,5.196-63.818,5.196
		C114.727,161.358,85.715,156.162,85.715,156.162z"/>
	<path fill="#368338" d="M86.111,155.982c-32.458-4.014-30.893-37.086-11.929-56.05l42.861-55.299
		c18.964-18.966,49.123-19.556,67.361-1.317l41.219,53.661c18.238,18.239,20.352,52.823-10.936,59.006
		c0,0-24.696,5.164-63.429,5.164C114.944,161.146,86.111,155.982,86.111,155.982z"/>
	<path fill="#378438" d="M86.507,155.803c-32.259-3.988-30.703-36.857-11.855-55.706l42.597-54.958
		c18.848-18.849,48.821-19.435,66.946-1.31L225.16,97.16c18.125,18.127,20.227,52.498-10.869,58.643c0,0-24.543,5.133-63.037,5.133
		C115.163,160.936,86.507,155.803,86.507,155.803z"/>
	<path fill="#388538" d="M86.902,155.622c-32.06-3.964-30.513-36.629-11.783-55.36l42.333-54.619
		c18.73-18.731,48.519-19.314,66.531-1.301l40.712,53c18.013,18.015,20.101,52.173-10.802,58.279c0,0-24.392,5.101-62.646,5.101
		C115.381,160.723,86.902,155.622,86.902,155.622z"/>
	<path fill="#398638" d="M87.297,155.442c-31.859-3.939-30.323-36.401-11.708-55.015l42.069-54.278
		c18.613-18.615,48.216-19.194,66.116-1.293l40.458,52.67c17.9,17.902,19.976,51.847-10.734,57.916c0,0-24.239,5.068-62.256,5.068
		C115.599,160.511,87.297,155.442,87.297,155.442z"/>
	<path fill="#3A8738" d="M87.692,155.263c-31.658-3.915-30.131-36.173-11.634-54.67l41.805-53.938
		c18.497-18.498,47.914-19.073,65.701-1.285l40.205,52.34c17.787,17.79,19.85,51.521-10.668,57.553c0,0-24.087,5.036-61.865,5.036
		C115.816,160.299,87.692,155.263,87.692,155.263z"/>
	<path fill="#3B8839" d="M88.089,155.082c-31.459-3.889-29.942-35.944-11.562-54.324l41.541-53.597
		c18.38-18.381,47.611-18.953,65.287-1.276l39.95,52.009c17.676,17.677,19.726,51.196-10.6,57.188c0,0-23.935,5.006-61.476,5.006
		C116.035,160.088,88.089,155.082,88.089,155.082z"/>
	<path fill="#3C8939" d="M88.484,154.902c-31.258-3.865-29.751-35.716-11.488-53.979l41.277-53.256
		c18.264-18.264,47.309-18.833,64.872-1.268l39.696,51.678c17.563,17.565,19.6,50.872-10.532,56.826c0,0-23.783,4.974-61.085,4.974
		C116.253,159.876,88.484,154.902,88.484,154.902z"/>
	<path fill="#3D8A39" d="M88.879,154.723c-31.059-3.841-29.561-35.488-11.415-53.635l41.014-52.916
		c18.146-18.148,47.006-18.712,64.457-1.261l39.443,51.348c17.45,17.453,19.474,50.546-10.466,56.463c0,0-23.631,4.941-60.694,4.941
		C116.471,159.664,88.879,154.723,88.879,154.723z"/>
	<path fill="#3E8B39" d="M89.275,154.543c-30.859-3.816-29.371-35.26-11.342-53.29l40.75-52.575
		c18.029-18.031,46.703-18.592,64.043-1.252l39.188,51.018c17.339,17.34,19.349,50.221-10.397,56.1c0,0-23.479,4.909-60.304,4.909
		C116.688,159.452,89.275,154.543,89.275,154.543z"/>
	<path fill="#3F8B39" d="M89.671,154.362c-30.659-3.791-29.181-35.03-11.268-52.944l40.485-52.234
		c17.913-17.915,46.401-18.471,63.628-1.245l38.935,50.688c17.227,17.228,19.224,49.895-10.33,55.735c0,0-23.327,4.878-59.913,4.878
		C116.907,159.24,89.671,154.362,89.671,154.362z"/>
	<path fill="#408C39" d="M90.066,154.183c-30.459-3.767-28.99-34.803-11.194-52.599l40.222-51.894
		c17.796-17.797,46.099-18.351,63.213-1.236l38.682,50.357c17.113,17.115,19.098,49.569-10.264,55.372
		c0,0-23.175,4.846-59.522,4.846C117.125,159.028,90.066,154.183,90.066,154.183z"/>
	<path fill="#418D3A" d="M90.462,154.002c-30.26-3.741-28.8-34.574-11.121-52.253l39.958-51.553
		c17.679-17.681,45.796-18.23,62.798-1.229l38.427,50.026c17.002,17.003,18.974,49.245-10.195,55.009c0,0-23.022,4.814-59.131,4.814
		C117.342,158.816,90.462,154.002,90.462,154.002z"/>
	<path fill="#428E3A" d="M90.857,153.822c-30.06-3.717-28.61-34.345-11.047-51.908l39.694-51.213
		c17.562-17.563,45.494-18.11,62.384-1.221l38.173,49.696c16.89,16.891,18.848,48.919-10.128,54.646c0,0-22.871,4.783-58.741,4.783
		C117.561,158.605,90.857,153.822,90.857,153.822z"/>
	<path fill="#438F3A" d="M91.253,153.643c-29.86-3.692-28.42-34.117-10.974-51.563l39.43-50.872
		c17.446-17.447,45.191-17.989,61.969-1.212l37.919,49.366c16.778,16.778,18.723,48.593-10.061,54.282
		c0,0-22.719,4.751-58.351,4.751C117.779,158.394,91.253,153.643,91.253,153.643z"/>
	<path fill="#43903A" d="M91.648,153.463c-29.66-3.668-28.229-33.889-10.9-51.219l39.166-50.531
		c17.329-17.331,44.889-17.87,61.554-1.204l37.665,49.035c16.666,16.666,18.598,48.269-9.993,53.919c0,0-22.566,4.719-57.96,4.719
		C117.997,158.182,91.648,153.463,91.648,153.463z"/>
	<path fill="#44913A" d="M92.044,153.282c-29.46-3.643-28.039-33.66-10.827-50.873l38.902-50.192
		c17.212-17.213,44.586-17.749,61.139-1.195l37.412,48.705c16.553,16.554,18.472,47.943-9.926,53.555c0,0-22.415,4.688-57.57,4.688
		C118.215,157.97,92.044,153.282,92.044,153.282z"/>
	<path fill="#45923A" d="M92.439,153.102c-29.26-3.617-27.849-33.431-10.753-50.527l38.638-49.851
		c17.095-17.097,44.283-17.628,60.725-1.188l37.157,48.374c16.44,16.442,18.347,47.618-9.858,53.191c0,0-22.263,4.656-57.179,4.656
		C118.433,157.758,92.439,153.102,92.439,153.102z"/>
	<path fill="#46933B" d="M92.835,152.922c-29.06-3.593-27.659-33.203-10.68-50.182l38.375-49.51
		c16.979-16.979,43.981-17.508,60.31-1.18l36.903,48.044c16.329,16.329,18.221,47.293-9.791,52.828c0,0-22.11,4.624-56.788,4.624
		C118.65,157.546,92.835,152.922,92.835,152.922z"/>
	<path fill="#47943B" d="M93.23,152.742c-28.86-3.568-27.468-32.975-10.606-49.837l38.11-49.169
		c16.861-16.863,43.679-17.388,59.895-1.172l36.65,47.714c16.216,16.217,18.096,46.967-9.725,52.465c0,0-21.958,4.592-56.397,4.592
		C118.869,157.334,93.23,152.742,93.23,152.742z"/>
	<path fill="#48943B" d="M93.626,152.562c-28.66-3.544-27.278-32.747-10.533-49.492l37.847-48.829
		c16.745-16.746,43.377-17.268,59.479-1.164l36.396,47.383c16.104,16.104,17.971,46.642-9.657,52.102c0,0-21.806,4.561-56.006,4.561
		C119.086,157.123,93.626,152.562,93.626,152.562z"/>
	<path fill="#49953B" d="M94.022,152.382c-28.46-3.519-27.088-32.518-10.46-49.146l37.583-48.489
		c16.628-16.629,43.074-17.147,59.064-1.155l36.143,47.052c15.992,15.993,17.846,46.317-9.59,51.738c0,0-21.653,4.528-55.615,4.528
		C119.305,156.91,94.022,152.382,94.022,152.382z"/>
	<path fill="#4A963B" d="M94.417,152.202c-28.261-3.495-26.898-32.29-10.386-48.802l37.318-48.147
		c16.512-16.513,42.771-17.027,58.65-1.148l35.889,46.722c15.879,15.88,17.72,45.992-9.522,51.375c0,0-21.502,4.497-55.226,4.497
		C119.523,156.699,94.417,152.202,94.417,152.202z"/>
	<path fill="#4B973B" d="M94.813,152.022c-28.061-3.47-26.708-32.062-10.313-48.457l37.055-47.808
		c16.395-16.396,42.469-16.906,58.235-1.139l35.635,46.392c15.767,15.768,17.595,45.666-9.455,51.012c0,0-21.35,4.465-54.835,4.465
		C119.741,156.487,94.813,152.022,94.813,152.022z"/>
	<path fill="#4C983C" d="M95.208,151.842c-27.861-3.444-26.517-31.833-10.24-48.111l36.791-47.467
		c16.278-16.278,42.166-16.786,57.82-1.131l35.381,46.062c15.654,15.655,17.47,45.341-9.387,50.647c0,0-21.198,4.434-54.445,4.434
		C119.959,156.275,95.208,151.842,95.208,151.842z"/>
	<path fill="#4D993C" d="M95.604,151.662c-27.661-3.42-26.327-31.604-10.166-47.767l36.526-47.126
		c16.161-16.162,41.863-16.665,57.406-1.123l35.127,45.731c15.542,15.542,17.344,45.016-9.32,50.285c0,0-21.046,4.401-54.054,4.401
		C120.177,156.063,95.604,151.662,95.604,151.662z"/>
	<path fill="#4E9A3C" d="M95.999,151.482c-27.46-3.396-26.136-31.376-10.092-47.421l36.263-46.786
		c16.044-16.045,41.562-16.545,56.99-1.115l34.874,45.4c15.43,15.431,17.218,44.69-9.253,49.922c0,0-20.894,4.369-53.663,4.369
		C120.395,155.852,95.999,151.482,95.999,151.482z"/>
	<path fill="#4F9B3C" d="M96.396,151.302c-27.261-3.371-25.947-31.147-10.02-47.076l35.999-46.445
		c15.927-15.929,41.259-16.425,56.576-1.107l34.619,45.07c15.317,15.318,17.094,44.365-9.186,49.558c0,0-20.742,4.338-53.272,4.338
		C120.613,155.64,96.396,151.302,96.396,151.302z"/>
	<path fill="#509C3C" d="M96.791,151.122c-27.062-3.346-25.757-30.919-9.946-46.73l35.735-46.105
		c15.811-15.811,40.957-16.304,56.162-1.099l34.364,44.74c15.205,15.205,16.968,44.039-9.118,49.194c0,0-20.589,4.306-52.882,4.306
		C120.831,155.428,96.791,151.122,96.791,151.122z"/>
	<path fill="#519C3C" d="M97.187,150.941c-26.861-3.321-25.566-30.69-9.873-46.385l35.471-45.764
		c15.693-15.695,40.654-16.184,55.746-1.091l34.111,44.41c15.094,15.093,16.843,43.714-9.051,48.83c0,0-20.437,4.274-52.49,4.274
		C121.049,155.216,97.187,150.941,97.187,150.941z"/>
	<path fill="#529D3D" d="M97.582,150.762c-26.662-3.296-25.376-30.462-9.799-46.04l35.207-45.423
		c15.577-15.578,40.352-16.063,55.332-1.083l33.857,44.079c14.98,14.981,16.717,43.39-8.983,48.468c0,0-20.286,4.242-52.101,4.242
		C121.267,155.004,97.582,150.762,97.582,150.762z"/>
	<path fill="#539E3D" d="M97.978,150.582c-26.461-3.272-25.186-30.233-9.726-45.695l34.943-45.083
		c15.46-15.461,40.049-15.943,54.917-1.074l33.604,43.749c14.868,14.869,16.592,43.064-8.916,48.104c0,0-20.133,4.211-51.71,4.211
		C121.484,154.793,97.978,150.582,97.978,150.582z"/>
	<path fill="#549F3D" d="M98.373,150.402c-26.261-3.248-24.995-30.005-9.651-45.35L123.4,60.31
		c15.344-15.344,39.746-15.822,54.502-1.066l33.351,43.418c14.755,14.756,16.466,42.738-8.85,47.741c0,0-19.98,4.178-51.319,4.178
		C121.703,154.58,98.373,150.402,98.373,150.402z"/>
	<path fill="#55A03D" d="M98.769,150.222c-26.062-3.223-24.805-29.776-9.578-45.005l34.415-44.401
		c15.227-15.228,39.444-15.702,54.088-1.059l33.096,43.088c14.644,14.644,16.341,42.413-8.781,47.377c0,0-19.83,4.147-50.93,4.147
		C121.921,154.369,98.769,150.222,98.769,150.222z"/>
	<path fill="#56A13D" d="M99.164,150.042c-25.862-3.198-24.615-29.549-9.505-44.66l34.151-44.061
		c15.11-15.111,39.142-15.582,53.673-1.051l32.842,42.757c14.531,14.532,16.216,42.088-8.714,47.014c0,0-19.677,4.115-50.538,4.115
		C122.139,154.157,99.164,150.042,99.164,150.042z"/>
	<path fill="#57A23D" d="M99.56,149.862c-25.662-3.173-24.425-29.32-9.432-44.314l33.888-43.72
		c14.993-14.994,38.84-15.461,53.258-1.043l32.588,42.427c14.42,14.419,16.092,41.762-8.646,46.65c0,0-19.524,4.083-50.147,4.083
		C122.357,153.945,99.56,149.862,99.56,149.862z"/>
	<path fill="#58A33E" d="M99.955,149.682c-25.462-3.148-24.234-29.091-9.357-43.969l33.623-43.38
		c14.876-14.877,38.537-15.34,52.843-1.035l32.335,42.097c14.307,14.308,15.965,41.438-8.58,46.287c0,0-19.373,4.052-49.757,4.052
		C122.575,153.733,99.955,149.682,99.955,149.682z"/>
	<path fill="#59A43E" d="M100.351,149.502c-25.262-3.124-24.044-28.863-9.285-43.624l33.36-43.04
		c14.759-14.761,38.234-15.22,52.428-1.026l32.081,41.766c14.194,14.194,15.84,41.111-8.513,45.924c0,0-19.221,4.02-49.365,4.02
		C122.793,153.521,100.351,149.502,100.351,149.502z"/>
	<path fill="#5AA43E" d="M100.746,149.322c-25.062-3.099-23.854-28.635-9.211-43.279l33.096-42.699
		c14.643-14.644,37.932-15.1,52.014-1.018l31.826,41.435c14.082,14.083,15.715,40.787-8.444,45.561c0,0-19.068,3.988-48.976,3.988
		C123.011,153.31,100.746,149.322,100.746,149.322z"/>
	<path fill="#5BA53E" d="M101.142,149.142c-24.862-3.075-23.663-28.407-9.138-42.934l32.832-42.358
		c14.525-14.527,37.629-14.979,51.599-1.01l31.572,41.105c13.971,13.97,15.59,40.461-8.377,45.197c0,0-18.917,3.956-48.585,3.956
		C123.229,153.098,101.142,149.142,101.142,149.142z"/>
	<path fill="#5CA63E" d="M101.537,148.962c-24.662-3.05-23.473-28.178-9.064-42.589l32.568-42.018
		c14.409-14.41,37.326-14.859,51.184-1.002l31.319,40.775c13.857,13.857,15.464,40.136-8.311,44.833c0,0-18.765,3.924-48.194,3.924
		C123.447,152.886,101.537,148.962,101.537,148.962z"/>
	<path fill="#5DA73E" d="M101.933,148.782c-24.462-3.025-23.283-27.95-8.99-42.244l32.304-41.677
		c14.292-14.293,37.024-14.739,50.769-0.994l31.065,40.444c13.745,13.745,15.339,39.811-8.242,44.47c0,0-18.612,3.892-47.805,3.892
		C123.665,152.674,101.933,148.782,101.933,148.782z"/>
	<path fill="#5EA83F" d="M102.328,148.602c-24.262-3-23.093-27.721-8.917-41.898l32.04-41.336
		c14.176-14.177,36.722-14.619,50.354-0.986l30.812,40.114c13.633,13.633,15.213,39.485-8.176,44.106c0,0-18.461,3.861-47.414,3.861
		C123.883,152.463,102.328,148.602,102.328,148.602z"/>
	<path fill="#5FA93F" d="M102.724,148.422c-24.062-2.976-22.902-27.493-8.843-41.553l31.776-40.996
		c14.059-14.06,36.42-14.498,49.939-0.978l30.557,39.784c13.521,13.52,15.089,39.16-8.107,43.743c0,0-18.309,3.829-47.022,3.829
		C124.101,152.251,102.724,148.422,102.724,148.422z"/>
	<path fill="#60AA3F" d="M103.12,148.242c-23.863-2.951-22.712-27.264-8.771-41.208l31.512-40.656
		c13.942-13.943,36.117-14.377,49.524-0.97l30.304,39.453c13.408,13.408,14.963,38.834-8.04,43.38c0,0-18.156,3.797-46.633,3.797
		C124.319,152.039,103.12,148.242,103.12,148.242z"/>
	<path fill="#61AB3F" d="M103.515,148.062c-23.663-2.926-22.522-27.036-8.697-40.863l31.248-40.314
		c13.825-13.827,35.814-14.257,49.109-0.962l30.05,39.123c13.296,13.296,14.838,38.51-7.973,43.017c0,0-18.005,3.766-46.242,3.766
		C124.537,151.827,103.515,148.062,103.515,148.062z"/>
	<path fill="#62AC3F" d="M103.911,147.882c-23.463-2.901-22.332-26.808-8.624-40.518l30.984-39.975
		c13.708-13.709,35.512-14.137,48.695-0.954l29.796,38.792c13.184,13.184,14.712,38.184-7.906,42.653c0,0-17.853,3.733-45.852,3.733
		C124.755,151.615,103.911,147.882,103.911,147.882z"/>
	<path fill="#63AC3F" d="M104.306,147.701c-23.263-2.876-22.142-26.579-8.55-40.172l30.721-39.634
		c13.591-13.593,35.209-14.016,48.28-0.946l29.542,38.462c13.071,13.071,14.586,37.859-7.839,42.289c0,0-17.7,3.702-45.46,3.702
		C124.973,151.403,104.306,147.701,104.306,147.701z"/>
	<path fill="#64AD40" d="M104.702,147.521c-23.063-2.852-21.951-26.351-8.477-39.827l30.457-39.293
		c13.475-13.476,34.906-13.896,47.865-0.938l29.288,38.132c12.96,12.958,14.462,37.534-7.771,41.926c0,0-17.548,3.67-45.069,3.67
		C125.191,151.191,104.702,147.521,104.702,147.521z"/>
	<path fill="#65AE40" d="M105.097,147.342c-22.863-2.828-21.761-26.123-8.403-39.482l30.192-38.952
		c13.358-13.359,34.604-13.776,47.45-0.93l29.034,37.801c12.848,12.846,14.337,37.208-7.703,41.563c0,0-17.396,3.638-44.68,3.638
		C125.409,150.979,105.097,147.342,105.097,147.342z"/>
	<path fill="#66AF40" d="M105.493,147.161c-22.664-2.802-21.571-25.893-8.33-39.136l29.929-38.612
		c13.241-13.242,34.302-13.655,47.035-0.922l28.781,37.471c12.734,12.734,14.211,36.883-7.637,41.199c0,0-17.244,3.606-44.289,3.606
		C125.627,150.768,105.493,147.161,105.493,147.161z"/>
	<path fill="#67B040" d="M105.889,146.981c-22.464-2.778-21.381-25.666-8.256-38.792l29.665-38.271
		c13.124-13.125,34-13.535,46.621-0.914l28.526,37.141c12.622,12.622,14.086,36.558-7.569,40.836c0,0-17.092,3.575-43.898,3.575
		C125.845,150.557,105.889,146.981,105.889,146.981z"/>
	<path fill="#68B140" d="M106.284,146.802c-22.264-2.753-21.191-25.437-8.183-38.446l29.401-37.931
		c13.007-13.008,33.697-13.415,46.206-0.906l28.272,36.811c12.511,12.509,13.961,36.232-7.501,40.473c0,0-16.94,3.543-43.508,3.543
		C126.062,150.345,106.284,146.802,106.284,146.802z"/>
	<path fill="#69B240" d="M106.68,146.622c-22.063-2.728-21-25.208-8.109-38.102l29.137-37.59
		c12.891-12.892,33.395-13.294,45.791-0.897l28.019,36.479c12.398,12.397,13.836,35.907-7.434,40.109c0,0-16.788,3.511-43.117,3.511
		C126.281,150.133,106.68,146.622,106.68,146.622z"/>
	<path fill="#6AB341" d="M107.075,146.441c-21.864-2.704-20.81-24.98-8.036-37.756l28.873-37.25
		c12.774-12.774,33.092-13.173,45.376-0.889l27.766,36.149c12.285,12.285,13.71,35.582-7.367,39.746c0,0-16.636,3.479-42.727,3.479
		C126.499,149.921,107.075,146.441,107.075,146.441z"/>
	<path fill="#6BB441" d="M107.471,146.261c-21.664-2.679-20.62-24.751-7.962-37.411l28.609-36.909
		c12.657-12.658,32.789-13.053,44.962-0.881l27.511,35.818c12.174,12.172,13.584,35.256-7.299,39.382c0,0-16.484,3.448-42.336,3.448
		C126.717,149.709,107.471,146.261,107.471,146.261z"/>
	<path fill="#6CB441" d="M107.866,146.082c-21.464-2.654-20.429-24.523-7.889-37.066l28.345-36.569
		c12.541-12.541,32.486-12.933,44.547-0.873l27.257,35.488c12.062,12.06,13.459,34.931-7.231,39.019c0,0-16.332,3.416-41.946,3.416
		C126.935,149.498,107.866,146.082,107.866,146.082z"/>
	<path fill="#6DB541" d="M108.262,145.901c-21.264-2.629-20.239-24.295-7.815-36.721l28.081-36.228
		c12.423-12.425,32.185-12.812,44.132-0.865l27.003,35.158c11.949,11.948,13.334,34.606-7.164,38.656c0,0-16.18,3.384-41.555,3.384
		C127.153,149.286,108.262,145.901,108.262,145.901z"/>
	<path fill="#6EB641" d="M108.657,145.721c-21.064-2.605-20.049-24.066-7.742-36.375l27.817-35.888
		c12.307-12.308,31.882-12.692,43.718-0.857l26.749,34.827c11.837,11.836,13.208,34.281-7.098,38.292c0,0-16.027,3.353-41.164,3.353
		C127.371,149.074,108.657,145.721,108.657,145.721z"/>
	<path fill="#6FB741" d="M109.053,145.542c-20.864-2.581-19.858-23.838-7.668-36.03l27.553-35.547
		c12.19-12.191,31.58-12.572,43.302-0.849l26.496,34.498c11.725,11.723,13.083,33.955-7.03,37.929c0,0-15.875,3.32-40.773,3.32
		C127.589,148.862,109.053,145.542,109.053,145.542z"/>
	<path fill="#70B842" d="M109.448,145.361c-20.664-2.555-19.668-23.609-7.595-35.685l27.29-35.206
		c12.073-12.074,31.277-12.452,42.888-0.841l26.241,34.167c11.612,11.61,12.958,33.63-6.962,37.565c0,0-15.724,3.289-40.383,3.289
		C127.807,148.65,109.448,145.361,109.448,145.361z"/>
	<path fill="#71B942" d="M109.844,145.181c-20.465-2.53-19.478-23.381-7.522-35.34l27.025-34.866
		c11.956-11.957,30.975-12.331,42.473-0.833l25.988,33.836c11.5,11.498,12.832,33.304-6.896,37.202c0,0-15.571,3.257-39.992,3.257
		C128.025,148.438,109.844,145.181,109.844,145.181z"/>
	<path fill="#72BA42" d="M110.24,145.001c-20.265-2.506-19.289-23.153-7.448-34.995l26.761-34.525
		c11.839-11.84,30.672-12.21,42.058-0.825l25.734,33.506c11.388,11.386,12.708,32.979-6.828,36.839c0,0-15.419,3.225-39.602,3.225
		C128.243,148.227,110.24,145.001,110.24,145.001z"/>
	<path fill="#73BB42" d="M110.635,144.821c-20.064-2.481-19.098-22.924-7.375-34.649l26.498-34.185
		c11.723-11.724,30.369-12.09,41.644-0.816l25.479,33.175c11.275,11.274,12.582,32.654-6.76,36.475c0,0-15.268,3.193-39.212,3.193
		C128.461,148.015,110.635,144.821,110.635,144.821z"/>
	<path fill="#74BC42" d="M111.03,144.641c-19.865-2.457-18.907-22.695-7.301-34.304l26.233-33.844
		c11.606-11.606,30.066-11.969,41.229-0.808l25.227,32.845c11.162,11.162,12.456,32.329-6.693,36.112c0,0-15.115,3.162-38.821,3.162
		C128.679,147.803,111.03,144.641,111.03,144.641z"/>
	<path fill="#75BC42" d="M111.426,144.461c-19.665-2.432-18.717-22.468-7.228-33.959l25.97-33.503
		c11.489-11.491,29.765-11.85,40.813-0.801l24.973,32.515c11.051,11.049,12.331,32.003-6.626,35.749c0,0-14.963,3.129-38.43,3.129
		C128.897,147.591,111.426,144.461,111.426,144.461z"/>
	<path fill="#76BD43" d="M111.821,144.281c-19.464-2.407-18.526-22.239-7.154-33.614l25.706-33.163
		c11.373-11.373,29.462-11.729,40.398-0.792l24.719,32.184c10.938,10.937,12.206,31.678-6.559,35.385c0,0-14.811,3.098-38.039,3.098
		C129.115,147.379,111.821,144.281,111.821,144.281z"/>
	<path fill="#77BE43" d="M112.217,144.102c-19.265-2.383-18.337-22.011-7.081-33.269l25.442-32.822
		c11.256-11.257,29.16-11.609,39.984-0.784l24.464,31.854c10.826,10.824,12.081,31.353-6.491,35.022c0,0-14.658,3.066-37.648,3.066
		C129.333,147.167,112.217,144.102,112.217,144.102z"/>
	<path fill="#78BF43" d="M112.613,143.921c-19.065-2.357-18.146-21.782-7.008-32.923l25.178-32.482
		c11.139-11.139,28.857-11.488,39.569-0.776l24.211,31.523c10.714,10.712,11.955,31.027-6.424,34.658c0,0-14.507,3.035-37.259,3.035
		C129.551,146.956,112.613,143.921,112.613,143.921z"/>
	<path fill="#79C043" d="M113.008,143.741c-18.865-2.333-17.956-21.554-6.934-32.579l24.914-32.141
		c11.022-11.023,28.555-11.368,39.154-0.768l23.957,31.193c10.602,10.6,11.83,30.702-6.356,34.295c0,0-14.354,3.002-36.868,3.002
		C129.769,146.744,113.008,143.741,113.008,143.741z"/>
</g>
<circle opacity="0.45" fill="#AFD8A3" cx="107.1" cy="92.883" r="27.193"/>
<path opacity="0.45" fill="#AFD8A3" d="M220.443,137.795c0,15.022-12.177,27.194-27.196,27.194
	c-15.018,0-27.191-12.172-27.191-27.194c0-15.019,12.174-27.192,27.191-27.192C208.267,110.604,220.443,122.776,220.443,137.795z"/>
<circle opacity="0.45" fill="#AFD8A3" cx="152.448" cy="43.112" r="15.178"/>
<path opacity="0.45" fill="#AFD8A3" d="M77.02,125.78c0,6.757-5.477,12.236-12.234,12.236c-6.757,0-12.234-5.479-12.234-12.236
	c0-6.754,5.477-12.233,12.234-12.233C71.543,113.547,77.02,119.026,77.02,125.78z"/>
<path opacity="0.45" fill="#AFD8A3" d="M256.258,125.78c0,6.757-5.477,12.236-12.233,12.236s-12.233-5.479-12.233-12.236
	c0-6.754,5.477-12.233,12.233-12.233S256.258,119.026,256.258,125.78z"/>
<path opacity="0.45" fill="#AFD8A3" d="M205.482,53.456c0,6.757-5.477,12.236-12.235,12.236c-6.757,0-12.233-5.479-12.233-12.236
	c0-6.755,5.477-12.235,12.233-12.235C200.006,41.22,205.482,46.701,205.482,53.456z"/>
<circle opacity="0.45" fill="#AFD8A3" cx="185.888" cy="87.709" r="15.179"/>
<circle opacity="0.45" fill="#AFD8A3" cx="114.965" cy="146.34" r="15.178"/>
</svg>
