<?xml version="1.0" encoding="utf-8"?>
<!-- Generator: Adobe Illustrator 16.0.0, SVG Export Plug-In . SVG Version: 6.00 Build 0)  -->
<!DOCTYPE svg PUBLIC "-//W3C//DTD SVG 1.1 Basic//EN" "http://www.w3.org/Graphics/SVG/1.1/DTD/svg11-basic.dtd">
<svg version="1.1" baseProfile="basic" id="Layer_1"
	 xmlns="http://www.w3.org/2000/svg" xmlns:xlink="http://www.w3.org/1999/xlink" x="0px" y="0px" width="300px" height="300px"
	 viewBox="0 0 300 300" xml:space="preserve">
<g>
	<path fill="#8F53A1" d="M176.318,147.614c-3.062,3.291-4.584,6.243-4.933,8.872c2.795-2.754,7.971-4.483,14.363-5.474
		c0.815-1.646,2.345-4.087,4.834-7.893c8.955-13.693,23.028-31.037,38.323-38.166c-0.021,0.004,10.704-1.823-0.063,0.01
		S195.342,127.171,176.318,147.614z"/>
	<path fill="#8F53A1" d="M201.537,138.113c-4.216,4.53-5.896,8.502-5.762,11.948c2.222-0.104,4.502-0.152,6.811-0.152
		c2.619,0,5.079-0.113,7.416-0.314c-0.305-0.704,0.491-2.48,2.879-6.926c6.794-12.647,31.591-45.464,49.199-53.67
		c-0.024,0.004,12.323-2.099-0.073,0.012C249.611,91.121,223.438,114.578,201.537,138.113z"/>
	<path fill="#8F53A1" d="M169.335,146.56c6.297-9.239,21.595-27.706,36.89-34.834c-0.021,0.004,10.704-1.823-0.063,0.01
		s-33.501,22.208-52.523,42.651c-3.621,3.891-5.09,7.309-5.01,10.278l16.286-2.773C162.355,157.758,163.037,155.799,169.335,146.56z
		"/>
	<path fill="#8F53A1" d="M294.76,75.797c-12.396,2.111-38.568,25.568-60.47,49.103c-7.758,8.337-6.948,14.79-1.994,19.534
		c4.896-1.757,9.608-3.699,14.724-5.446c-1.986,2.308-4.048,5.874-6.346,10.002l22.044-3.754
		c-14.449-6.259-11.617,0.123-5.847-16.525c5.771-16.648,20.354-44.718,37.962-52.925C294.809,75.79,307.156,73.687,294.76,75.797z"
		/>
</g>
<path fill="#8F53A1" d="M94.339,111.736c-10.768-1.833-0.042-0.006-0.063-0.01c15.294,7.128,30.592,25.595,36.89,34.834
	c6.297,9.239,6.979,11.198,4.421,15.332l16.285,2.773c0.08-2.97-1.389-6.388-5.009-10.278
	C127.839,133.944,105.106,113.569,94.339,111.736z"/>
<path fill="#8F53A1" d="M87.619,142.668c2.608,4.854,3.317,6.527,2.768,7.095c1.633,0.094,3.327,0.146,5.093,0.146
	c3.159,0,6.266,0.09,9.238,0.289c0.186-3.477-1.483-7.495-5.754-12.085c-21.901-23.535-48.074-46.992-60.47-49.103
	s-0.048-0.007-0.073-0.012C56.028,97.205,80.826,130.021,87.619,142.668z"/>
<path fill="#8F53A1" d="M37.783,145.236l19.354,3.296c-2.196-3.933-4.178-7.321-6.091-9.544c5.723,1.955,10.944,4.154,16.479,6.064
	c5.546-4.796,6.786-11.447-1.314-20.152C44.309,101.365,18.136,77.909,5.74,75.797c-12.397-2.111-0.049-0.007-0.074-0.011
	c17.609,8.207,32.191,36.276,37.962,52.925S52.231,138.978,37.783,145.236z"/>
<path fill="#8F53A1" d="M71.658,104.963c-10.768-1.833-0.042-0.006-0.063-0.01c15.294,7.129,29.367,24.473,38.323,38.166
	c2.737,4.185,4.313,6.719,5.056,8.362c7.517,1.506,12.879,4.228,13.823,8.721c1.112-3.467-0.016-7.646-4.615-12.587
	C105.158,127.171,82.425,106.796,71.658,104.963z"/>
<g opacity="0.65">
	<path fill="#FFCA61" d="M285.606,72.658c-12.102,2.111-34.995,25.568-53.607,49.103c-7.561,9.561-4.201,16.645,3.448,21.514
		c3.798-1.427,7.562-2.917,11.572-4.287c-1.438,1.671-2.915,4.002-4.493,6.727l20.742-3.618c-15.324-6.259-11.6,0.124-8.155-16.525
		c3.443-16.648,14.104-44.718,30.564-52.925C285.654,72.65,297.708,70.547,285.606,72.658z"/>
	<path fill="#FFCA61" d="M201.093,134.973c-4.692,5.934-5.174,10.913-3.037,15.001c1.492-0.044,3.005-0.065,4.53-0.065
		c6.428,0,11.917-0.665,16.885-1.721c-7.304-3.663-11.022,2.979-6.397-8.659c5.025-12.647,25.236-45.463,41.698-53.67
		c-0.024,0.004,12.03-2.099-0.071,0.012S219.704,111.438,201.093,134.973z"/>
	<path fill="#FFCA61" d="M177.201,144.474c-3.084,3.899-4.073,7.324-3.569,10.298c3.177-1.922,7.822-3.178,13.267-3.93
		c-0.745-1.272,0.177-3.55,3.938-10.864c7.043-13.693,18.691-31.038,32.989-38.166c-0.021,0.003,10.45-1.824-0.062,0.01
		C213.253,103.657,193.368,124.032,177.201,144.474z"/>
	<path fill="#FFCA61" d="M170.07,143.42c5.007-9.239,17.724-27.706,32.021-34.833c-0.021,0.003,10.449-1.824-0.062,0.01
		c-10.512,1.834-30.397,22.208-46.563,42.651c-3.077,3.891-4.067,7.309-3.573,10.278l15.897-2.773
		C164.656,154.618,165.063,152.659,170.07,143.42z"/>
</g>
<path opacity="0.65" fill="#FFCA61" d="M87.427,139.529c4.762,11.984,0.676,4.586-7.06,9.016c4.498,0.847,9.439,1.365,15.112,1.365
	c2.345,0,4.661,0.05,6.916,0.156c2.192-4.105,1.741-9.113-2.988-15.092C80.795,111.438,57.901,87.981,45.8,85.87
	s-0.047-0.008-0.071-0.012C62.19,94.065,82.401,126.881,87.427,139.529z"/>
<path opacity="0.65" fill="#FFCA61" d="M109.663,139.979c4.116,8.004,4.833,9.976,3.684,11.2c5.766,0.987,10.443,2.616,13.124,5.108
	c1.182-3.31,0.449-7.233-3.172-11.813c-16.167-20.442-36.052-40.817-46.563-42.65c-10.511-1.834-0.042-0.007-0.062-0.01
	C90.972,108.941,102.621,126.286,109.663,139.979z"/>
<path opacity="0.65" fill="#FFCA61" d="M37.232,142.097l18.032,3.146c-1.475-2.521-2.864-4.681-4.218-6.254
	c4.543,1.552,8.769,3.257,13.087,4.85c8.289-4.88,12.227-12.141,4.369-22.077C49.889,98.226,26.995,74.769,14.894,72.658
	c-12.102-2.111-0.047-0.008-0.071-0.012c16.461,8.207,27.121,36.276,30.565,52.925C48.832,142.22,52.555,135.838,37.232,142.097z"/>
<path opacity="0.65" fill="#FFCA61" d="M145.033,151.247c-16.166-20.442-36.052-40.817-46.563-42.651
	c-10.511-1.833-0.042-0.006-0.062-0.01c14.298,7.128,27.015,25.595,32.021,34.833c5.006,9.239,5.415,11.198,2.279,15.332
	l15.898,2.773C149.101,158.556,148.11,155.138,145.033,151.247z"/>
<path opacity="0.65" fill-rule="evenodd" clip-rule="evenodd" fill="#BC94C4" d="M86.054,200.583
	c20.034-6.382,38.645-4.111,39.419-1.681s-13.095,15.048-33.128,21.43c-20.034,6.382-25.39,3.218-27.127-2.235
	C63.481,212.643,66.021,206.965,86.054,200.583z"/>
<path opacity="0.65" fill-rule="evenodd" clip-rule="evenodd" fill="#FFCA61" d="M59.156,188.194
	c17.245,5.201,29.292,15.826,28.661,17.918c-0.631,2.093-16.543,4.284-33.788-0.918c-17.245-5.201-19.496-10.031-18.08-14.726
	S41.911,182.993,59.156,188.194z"/>
<path opacity="0.65" fill-rule="evenodd" clip-rule="evenodd" fill="#BC94C4" d="M41.745,159.549
	c10.32,14.763,13.201,30.564,11.409,31.816c-1.791,1.252-15.642-6.881-25.962-21.644s-9.096-19.949-5.077-22.758
	C26.133,144.154,31.424,144.786,41.745,159.549z"/>
<path opacity="0.65" fill-rule="evenodd" clip-rule="evenodd" fill="#BC94C4" d="M212.948,200.583
	c-20.033-6.382-38.645-4.111-39.419-1.681s13.095,15.048,33.128,21.43c20.034,6.382,25.39,3.218,27.127-2.235
	C235.521,212.643,232.982,206.965,212.948,200.583z"/>
<path opacity="0.65" fill-rule="evenodd" clip-rule="evenodd" fill="#FFCA61" d="M239.847,188.194
	c-17.245,5.201-29.292,15.826-28.661,17.918c0.632,2.093,16.544,4.284,33.789-0.918c17.245-5.201,19.495-10.031,18.079-14.726
	S257.092,182.993,239.847,188.194z"/>
<path opacity="0.65" fill-rule="evenodd" clip-rule="evenodd" fill="#BC94C4" d="M257.259,159.549
	c-10.32,14.763-13.201,30.564-11.41,31.816c1.792,1.252,15.643-6.881,25.963-21.644s9.096-19.949,5.077-22.758
	C272.87,144.154,267.578,144.786,257.259,159.549z"/>
<path fill-rule="evenodd" clip-rule="evenodd" fill="#8F53A1" d="M209.376,139.536c-23.442,0-45.431,2.52-56.935,9.769
	c-2.133,1.344-4.685,1.344-6.818,0c-11.504-7.25-33.491-9.769-56.935-9.769c-38.313,0-41.036-18.657-68.108-27.903
	c16.074,18.671,16.043,86.081,59.854,92.637c33.095,4.952,52.274-4.303,63.506-19.089c1.249-1.645,3.026-2.527,5.092-2.527
	c2.066,0,3.842,0.883,5.091,2.527c11.232,14.786,30.411,24.041,63.506,19.089c43.812-6.557,43.781-73.966,59.854-92.637
	C250.412,120.879,247.689,139.536,209.376,139.536z M128.222,165.205c-4.554,11.85-14.514,21.252-36.974,17.891
	c-22.461-3.361-31.962-34.535-40.203-44.107c13.879,4.74,24.792,10.921,44.434,10.921
	C115.121,149.909,132.776,153.356,128.222,165.205z M206.817,183.096c-22.461,3.361-32.42-6.041-36.974-17.891
	c-4.555-11.849,13.101-15.296,32.742-15.296s30.556-6.181,44.434-10.921C238.779,148.561,229.278,179.734,206.817,183.096z"/>
<g>
	<path fill-rule="evenodd" clip-rule="evenodd" fill="#793F98" d="M77.482,176.818c-13.064-10.469-20.121-30.494-26.437-37.83
		c13.879,4.74,24.792,10.921,44.434,10.921c9.976,0,19.437,0.89,25.738,3.317c-4.566-5.391-17.647-7.168-31.753-7.168
		c-19.642,0-30.555-6.181-44.434-10.921C52.253,143.527,60.445,168.511,77.482,176.818z"/>
	<path fill-rule="evenodd" clip-rule="evenodd" fill="#793F98" d="M247.023,138.988c-6.315,7.336-13.373,27.361-26.437,37.83
		c17.037-8.308,25.229-33.292,32.451-41.681c-13.879,4.74-24.792,10.921-44.434,10.921c-14.106,0-27.187,1.778-31.754,7.168
		c6.302-2.427,15.764-3.317,25.739-3.317C222.231,149.909,233.145,143.729,247.023,138.988z"/>
	<path fill-rule="evenodd" clip-rule="evenodd" fill="#793F98" d="M160.143,181.33c-0.29-0.382-2.678-4.512-11.161-4.512
		c-9.236,0-10.799,4.175-11.055,4.512c-11.231,14.786-30.411,24.041-63.505,19.088c-4.656-0.696-8.815-2.082-12.553-4.022
		c5.152,3.982,11.247,6.778,18.567,7.874c33.095,4.952,52.274-4.303,63.506-19.089c1.226-1.613,2.96-2.491,4.976-2.523l0,0
		c0.04-0.001,0.078-0.004,0.118-0.004c0.04,0,0.079,0.003,0.118,0.004l0,0c2.016,0.032,3.75,0.91,4.976,2.523
		c11.231,14.786,30.411,24.041,63.506,19.089c7.32-1.096,13.415-3.892,18.567-7.874c-3.737,1.94-7.897,3.326-12.553,4.022
		C190.553,205.371,171.374,196.116,160.143,181.33z"/>
</g>
</svg>
