<?xml version="1.0" encoding="utf-8"?>
<!-- Generator: Adobe Illustrator 16.0.0, SVG Export Plug-In . SVG Version: 6.00 Build 0)  -->
<!DOCTYPE svg PUBLIC "-//W3C//DTD SVG 1.1 Basic//EN" "http://www.w3.org/Graphics/SVG/1.1/DTD/svg11-basic.dtd">
<svg version="1.1" baseProfile="basic" id="Layer_1"
	 xmlns="http://www.w3.org/2000/svg" xmlns:xlink="http://www.w3.org/1999/xlink" x="0px" y="0px" width="300px" height="300px"
	 viewBox="0 0 300 300" xml:space="preserve">
<path fill-rule="evenodd" clip-rule="evenodd" fill="#FFCA61" d="M242.842,98.333c0-48.918-41.751-88.575-93.254-88.575
	c-51.502,0-93.254,39.657-93.254,88.575c0,0.958,0.022,1.912,0.054,2.863l0.249,0.091c6.412,63.234,8.759,121.548,27.376,180.489
	c1.405,0.839,2.583,1.671,3.646,2.475l-8.541-103.958c0,0,5.76,55.834,11.295,106.109c0.627,0.487,1.249,0.953,1.897,1.391
	L81.895,155.938c0,0,7.273,75.53,13.438,133.536c1.444,0.631,3.129,1.14,5.257,1.481L87.057,155.938
	c0,0,10.347,80.698,17.327,135.417c1.077,0.063,2.236,0.1,3.506,0.1c-6.184-59.914-14.882-120.666-13.871-179.916
	c17.361,3.34,36.069,5.16,55.568,5.16c10.805,0,21.365-0.559,31.59-1.625c0.538-4.074,0.623-7.696,0.251-10.6
	c1.641,1.885,2.428,5.546,2.371,10.314c1.765-0.201,3.52-0.416,5.264-0.646c-0.323-9.833-2.106-18.37-4.688-23.615
	c4.011,2.324,7.227,11.379,8.305,23.114c4.269-0.62,8.47-1.33,12.594-2.125c1.014,59.257-7.686,120.018-13.871,179.938
	c2.419,0,4.46-0.121,6.221-0.344l16.675-144.272c-0.212,1.843-10.255,88.98-13.886,143.789c1.388-0.317,2.566-0.717,3.618-1.183
	l12.367-138.109c-0.14,1.561-7.292,81.692-9.857,136.752c0.832-0.535,1.612-1.117,2.403-1.733l13.478-150.507
	c-0.149,1.671-8.344,93.467-10.331,148.063c0.943-0.697,1.984-1.414,3.19-2.135c18.622-58.954,20.967-117.282,27.381-180.534
	l0.126-0.046c0.018-0.53,0.032-1.06,0.042-1.591l0.13-1.272H242.842z"/>
<path fill-rule="evenodd" clip-rule="evenodd" fill="#FFE0A9" d="M149.346,31.14c-40.545,2.774-75.253,32.487-81.52,66.353
	c-0.29-2.483-0.44-5.001-0.44-7.55c0-34.664,27.505-63.833,64.877-72.439l-8.49,12.421L149.346,31.14z"/>
</svg>
