<?xml version="1.0" encoding="utf-8"?>
<!-- Generator: Adobe Illustrator 16.0.0, SVG Export Plug-In . SVG Version: 6.00 Build 0)  -->
<!DOCTYPE svg PUBLIC "-//W3C//DTD SVG 1.1 Basic//EN" "http://www.w3.org/Graphics/SVG/1.1/DTD/svg11-basic.dtd">
<svg version="1.1" baseProfile="basic" id="Layer_1"
	 xmlns="http://www.w3.org/2000/svg" xmlns:xlink="http://www.w3.org/1999/xlink" x="0px" y="0px" width="300px" height="300px"
	 viewBox="0 0 300 300" xml:space="preserve">
<path fill-rule="evenodd" clip-rule="evenodd" fill="#573928" d="M49.453,159.763h205.583l-24.514,103.944
	c-2.78,11.79-11.655,20.342-23.54,22.681c-48.335,9.516-68.18,9.837-113.319,0.732c-12.196-2.46-21.21-11.501-23.633-23.704
	L49.453,159.763z"/>
<g>
	<path fill-rule="evenodd" clip-rule="evenodd" fill="#87562D" d="M152.244,11.562c53.204,25.948,123.25,42.64,123.25,108.78
		s-56.074,50.898-125.246,50.898c-69.172,0-125.247,15.242-125.247-50.898S99.041-14.385,152.244,11.562z"/>
	<path fill-rule="evenodd" clip-rule="evenodd" fill="#88572D" d="M152.232,12.603c52.891,25.693,122.524,42.222,122.524,107.713
		c0,65.492-55.744,50.399-124.509,50.399S25.739,185.808,25.739,120.316C25.739,54.825,99.342-13.089,152.232,12.603z"/>
	<path fill-rule="evenodd" clip-rule="evenodd" fill="#89572D" d="M152.221,13.645c52.578,25.439,121.8,41.803,121.8,106.646
		c0,64.843-55.414,49.899-123.772,49.899S26.476,185.134,26.476,120.291C26.476,55.448,99.644-11.793,152.221,13.645z"/>
	<path fill-rule="evenodd" clip-rule="evenodd" fill="#8A582E" d="M152.209,14.686c52.265,25.184,121.074,41.385,121.074,105.579
		c0,64.195-55.084,49.401-123.035,49.401c-67.951,0-123.035,14.794-123.035-49.401C27.213,56.071,99.945-10.498,152.209,14.686z"/>
	<path fill-rule="evenodd" clip-rule="evenodd" fill="#8B582E" d="M152.197,15.728c51.952,24.93,120.35,40.967,120.35,104.513
		s-54.755,48.901-122.298,48.901c-67.544,0-122.299,14.645-122.299-48.901S100.246-9.202,152.197,15.728z"/>
	<path fill-rule="evenodd" clip-rule="evenodd" fill="#8B592F" d="M152.186,16.769c51.639,24.676,119.624,40.55,119.624,103.447
		s-54.425,48.402-121.561,48.402c-67.137,0-121.561,14.495-121.561-48.402S100.548-7.905,152.186,16.769z"/>
	<path fill-rule="evenodd" clip-rule="evenodd" fill="#8C592F" d="M152.174,17.81c51.325,24.421,118.898,40.131,118.898,102.379
		c0,62.249-54.095,47.903-120.824,47.903c-66.729,0-120.825,14.346-120.825-47.903C29.424,57.941,100.849-6.61,152.174,17.81z"/>
	<path fill-rule="evenodd" clip-rule="evenodd" fill="#8D5A30" d="M152.162,18.852c51.012,24.166,118.173,39.712,118.173,101.312
		c0,61.6-53.765,47.403-120.087,47.403S30.161,181.764,30.161,120.164C30.161,58.564,101.15-5.314,152.162,18.852z"/>
	<path fill-rule="evenodd" clip-rule="evenodd" fill="#8E5A30" d="M152.15,19.893c50.699,23.912,117.447,39.294,117.447,100.246
		s-53.434,46.905-119.349,46.905S30.898,181.091,30.898,120.139S101.451-4.018,152.15,19.893z"/>
	<path fill-rule="evenodd" clip-rule="evenodd" fill="#8F5B30" d="M152.139,20.935c50.387,23.658,116.723,38.876,116.723,99.18
		c0,60.303-53.104,46.405-118.613,46.405S31.635,180.417,31.635,120.114C31.635,59.811,101.753-2.722,152.139,20.935z"/>
	<path fill-rule="evenodd" clip-rule="evenodd" fill="#905B31" d="M152.127,21.976c50.072,23.403,115.997,38.458,115.997,98.112
		c0,59.654-52.774,45.906-117.875,45.906S32.372,179.742,32.372,120.088C32.372,60.434,102.054-1.427,152.127,21.976z"/>
	<path fill-rule="evenodd" clip-rule="evenodd" fill="#915C31" d="M152.114,23.017c49.761,23.149,115.272,38.041,115.272,97.047
		c0,59.005-52.444,45.407-117.139,45.407s-117.14,13.598-117.14-45.407C33.108,61.058,102.355-0.131,152.114,23.017z"/>
	<path fill-rule="evenodd" clip-rule="evenodd" fill="#915D32" d="M152.104,24.059c49.447,22.895,114.547,37.622,114.547,95.979
		c0,58.356-52.114,44.907-116.401,44.907c-64.288,0-116.403,13.449-116.403-44.907C33.846,61.681,102.657,1.165,152.104,24.059z"/>
	<path fill-rule="evenodd" clip-rule="evenodd" fill="#925D32" d="M152.092,25.101c49.134,22.64,113.822,37.204,113.822,94.912
		c0,57.708-51.785,44.409-115.665,44.409c-63.881,0-115.666,13.299-115.666-44.409C34.583,62.304,102.958,2.461,152.092,25.101z"/>
	<path fill-rule="evenodd" clip-rule="evenodd" fill="#935E32" d="M152.08,26.142c48.82,22.386,113.096,36.786,113.096,93.846
		s-51.454,43.91-114.927,43.91c-63.474,0-114.929,13.149-114.929-43.91S103.26,3.757,152.08,26.142z"/>
	<path fill-rule="evenodd" clip-rule="evenodd" fill="#945E33" d="M152.067,27.183c48.509,22.131,112.372,36.368,112.372,92.779
		s-51.125,43.41-114.191,43.41s-114.191,13.001-114.191-43.41S103.561,5.053,152.067,27.183z"/>
	<path fill-rule="evenodd" clip-rule="evenodd" fill="#955F33" d="M152.057,28.225c48.194,21.876,111.646,35.949,111.646,91.712
		s-50.794,42.912-113.453,42.912c-62.66,0-113.455,12.851-113.455-42.912S103.862,6.349,152.057,28.225z"/>
	<path fill-rule="evenodd" clip-rule="evenodd" fill="#965F34" d="M152.045,29.267c47.881,21.622,110.921,35.531,110.921,90.646
		c0,55.113-50.465,42.412-112.717,42.412c-62.252,0-112.718,12.701-112.718-42.412C37.531,64.798,104.164,7.646,152.045,29.267z"/>
	<path fill-rule="evenodd" clip-rule="evenodd" fill="#976034" d="M152.032,30.307c47.569,21.368,110.196,35.114,110.196,89.579
		s-50.135,41.913-111.979,41.913c-61.846,0-111.981,12.553-111.981-41.913S104.465,8.94,152.032,30.307z"/>
	<path fill-rule="evenodd" clip-rule="evenodd" fill="#986034" d="M152.021,31.349c47.255,21.113,109.47,34.695,109.47,88.512
		c0,53.816-49.805,41.415-111.243,41.415c-61.438,0-111.243,12.401-111.243-41.415C39.005,66.043,104.766,10.236,152.021,31.349z"/>
	<path fill-rule="evenodd" clip-rule="evenodd" fill="#986135" d="M152.01,32.39c46.941,20.859,108.744,34.277,108.744,87.446
		c0,53.168-49.475,40.914-110.505,40.914S39.742,173.004,39.742,119.836C39.742,66.667,105.067,11.532,152.01,32.39z"/>
	<path fill-rule="evenodd" clip-rule="evenodd" fill="#996235" d="M151.998,33.432c46.629,20.604,108.02,33.859,108.02,86.379
		c0,52.52-49.145,40.416-109.769,40.416c-60.624,0-109.77,12.104-109.77-40.416C40.479,67.291,105.369,12.829,151.998,33.432z"/>
	<path fill-rule="evenodd" clip-rule="evenodd" fill="#9A6236" d="M151.985,34.473c46.316,20.35,107.295,33.441,107.295,85.312
		s-48.814,39.916-109.031,39.916c-60.218,0-109.033,11.955-109.033-39.916S105.67,14.124,151.985,34.473z"/>
	<path fill-rule="evenodd" clip-rule="evenodd" fill="#9B6336" d="M151.975,35.515c46.003,20.095,106.568,33.022,106.568,84.245
		s-48.484,39.418-108.294,39.418c-59.81,0-108.295,11.805-108.295-39.418S105.972,15.42,151.975,35.515z"/>
	<path fill-rule="evenodd" clip-rule="evenodd" fill="#9C6337" d="M151.963,36.556c45.689,19.841,105.844,32.605,105.844,83.179
		c0,50.574-48.155,38.917-107.558,38.917c-59.403,0-107.559,11.656-107.559-38.917C42.69,69.161,106.273,16.716,151.963,36.556z"/>
	<path fill-rule="evenodd" clip-rule="evenodd" fill="#9D6437" d="M151.95,37.598c45.378,19.586,105.119,32.187,105.119,82.111
		s-47.824,38.419-106.821,38.419c-58.996,0-106.822,11.506-106.822-38.419S106.574,18.012,151.95,37.598z"/>
	<path fill-rule="evenodd" clip-rule="evenodd" fill="#9E6437" d="M151.939,38.639c45.063,19.332,104.394,31.769,104.394,81.045
		s-47.495,37.92-106.084,37.92c-58.589,0-106.085,11.356-106.085-37.92S106.875,19.308,151.939,38.639z"/>
	<path fill-rule="evenodd" clip-rule="evenodd" fill="#9F6538" d="M151.928,39.68c44.75,19.078,103.668,31.35,103.668,79.979
		c0,48.627-47.165,37.42-105.347,37.42c-58.182,0-105.348,11.207-105.348-37.42C44.901,71.03,107.177,20.604,151.928,39.68z"/>
	<path fill-rule="evenodd" clip-rule="evenodd" fill="#9F6638" d="M151.915,40.722c44.438,18.823,102.943,30.932,102.943,78.912
		c0,47.979-46.835,36.921-104.609,36.921c-57.775,0-104.611,11.058-104.611-36.921C45.638,71.653,107.479,21.899,151.915,40.722z"/>
	<path fill-rule="evenodd" clip-rule="evenodd" fill="#A06639" d="M151.903,41.763c44.125,18.569,102.218,30.515,102.218,77.846
		c0,47.33-46.504,36.422-103.873,36.422c-57.368,0-103.874,10.908-103.874-36.422C46.375,72.277,107.779,23.195,151.903,41.763z"/>
	<path fill-rule="evenodd" clip-rule="evenodd" fill="#A16739" d="M151.893,42.805c43.811,18.314,101.492,30.096,101.492,76.778
		c0,46.682-46.175,35.923-103.136,35.923c-56.961,0-103.137,10.759-103.137-35.923C47.112,72.9,108.081,24.491,151.893,42.805z"/>
	<path fill-rule="evenodd" clip-rule="evenodd" fill="#A2673A" d="M151.88,43.846c43.499,18.06,100.768,29.678,100.768,75.712
		c0,46.033-45.845,35.424-102.399,35.424c-56.554,0-102.4,10.609-102.4-35.424C47.849,73.524,108.382,25.787,151.88,43.846z"/>
	<path fill-rule="evenodd" clip-rule="evenodd" fill="#A3683A" d="M151.868,44.887c43.186,17.805,100.042,29.259,100.042,74.645
		c0,45.385-45.515,34.925-101.662,34.925c-56.146,0-101.663,10.46-101.663-34.925C48.586,74.146,108.684,27.083,151.868,44.887z"/>
	<path fill-rule="evenodd" clip-rule="evenodd" fill="#A4683B" d="M151.856,45.929c42.873,17.551,99.317,28.841,99.317,73.579
		c0,44.736-45.186,34.425-100.925,34.425S49.323,164.243,49.323,119.507C49.323,74.77,108.985,28.379,151.856,45.929z"/>
	<path fill-rule="evenodd" clip-rule="evenodd" fill="#A5693B" d="M151.845,46.97c42.56,17.296,98.592,28.423,98.592,72.512
		c0,44.087-44.854,33.926-100.188,33.926c-55.333,0-100.189,10.161-100.189-33.926C50.06,75.394,109.286,29.675,151.845,46.97z"/>
	<path fill-rule="evenodd" clip-rule="evenodd" fill="#A66A3B" d="M151.833,48.012c42.246,17.042,97.866,28.005,97.866,71.444
		s-44.524,33.428-99.451,33.428c-54.925,0-99.452,10.012-99.452-33.428S109.588,30.971,151.833,48.012z"/>
	<path fill-rule="evenodd" clip-rule="evenodd" fill="#A76A3C" d="M151.821,49.053c41.933,16.787,97.142,27.587,97.142,70.378
		c0,42.79-44.195,32.928-98.714,32.928c-54.518,0-98.714,9.861-98.714-32.928C51.534,76.64,109.889,32.267,151.821,49.053z"/>
	<path fill-rule="evenodd" clip-rule="evenodd" fill="#A86B3C" d="M151.81,50.095c41.62,16.533,96.416,27.169,96.416,69.311
		c0,42.141-43.865,32.429-97.977,32.429c-54.111,0-97.978,9.712-97.978-32.429C52.271,77.264,110.19,33.562,151.81,50.095z"/>
	<path fill-rule="evenodd" clip-rule="evenodd" fill="#A96B3D" d="M151.798,51.136c41.307,16.278,95.691,26.751,95.691,68.245
		c0,41.493-43.535,31.93-97.241,31.93c-53.704,0-97.241,9.562-97.241-31.93C53.008,77.887,110.491,34.858,151.798,51.136z"/>
	<path fill-rule="evenodd" clip-rule="evenodd" fill="#A96C3D" d="M151.786,52.177c40.994,16.024,94.966,26.333,94.966,67.178
		c0,40.844-43.205,31.431-96.503,31.431c-53.297,0-96.503,9.413-96.503-31.431C53.745,78.51,110.793,36.154,151.786,52.177z"/>
	<path fill-rule="evenodd" clip-rule="evenodd" fill="#AA6C3E" d="M151.774,53.219c40.681,15.77,94.24,25.915,94.24,66.111
		c0,40.195-42.875,30.932-95.766,30.932c-52.89,0-95.767,9.264-95.767-30.932C54.482,79.133,111.094,37.45,151.774,53.219z"/>
</g>
<path fill-rule="evenodd" clip-rule="evenodd" fill="#FF7899" d="M84.631,52.479c3.161,0,5.738-2.466,5.738-5.489
	c0-3.023-2.578-5.489-5.738-5.489c-3.16,0-5.738,2.466-5.738,5.489C78.893,50.013,81.471,52.479,84.631,52.479z"/>
<path fill-rule="evenodd" clip-rule="evenodd" fill="#FF7899" d="M115.069,64.954c3.16,0,5.738-2.466,5.738-5.489
	c0-3.023-2.578-5.489-5.738-5.489c-3.161,0-5.739,2.465-5.739,5.489C109.331,62.488,111.909,64.954,115.069,64.954z"/>
<path fill-rule="evenodd" clip-rule="evenodd" fill="#FF7899" d="M133.929,46.094c3.16,0,5.738-2.466,5.738-5.489
	c0-3.023-2.578-5.489-5.738-5.489s-5.738,2.466-5.738,5.489C128.19,43.628,130.769,46.094,133.929,46.094z"/>
<path fill-rule="evenodd" clip-rule="evenodd" fill="#FF7899" d="M162.723,118.346c3.16,0,5.738-2.466,5.738-5.489
	c0-3.023-2.578-5.489-5.738-5.489s-5.738,2.466-5.738,5.489C156.984,115.88,159.562,118.346,162.723,118.346z"/>
<path fill-rule="evenodd" clip-rule="evenodd" fill="#FFBE36" d="M201.145,90.402c3.16,0,5.738-2.465,5.738-5.489
	c0-3.023-2.578-5.489-5.738-5.489s-5.738,2.466-5.738,5.489C195.406,87.937,197.984,90.402,201.145,90.402z"/>
<path fill-rule="evenodd" clip-rule="evenodd" fill="#FFBE36" d="M131.038,77.428c3.16,0,5.738-2.465,5.738-5.489
	c0-3.023-2.578-5.489-5.738-5.489c-3.161,0-5.739,2.466-5.739,5.489C125.299,74.963,127.877,77.428,131.038,77.428z"/>
<path fill-rule="evenodd" clip-rule="evenodd" fill="#FF7899" d="M161.476,89.903c3.16,0,5.738-2.466,5.738-5.489
	c0-3.023-2.578-5.489-5.738-5.489c-3.161,0-5.739,2.466-5.739,5.489C155.736,87.438,158.314,89.903,161.476,89.903z"/>
<path fill-rule="evenodd" clip-rule="evenodd" fill="#FFBE36" d="M180.335,71.043c3.161,0,5.739-2.466,5.739-5.489
	c0-3.022-2.578-5.489-5.739-5.489c-3.16,0-5.738,2.466-5.738,5.489C174.597,68.578,177.175,71.043,180.335,71.043z"/>
<path fill-rule="evenodd" clip-rule="evenodd" fill="#FFBE36" d="M209.129,143.296c3.16,0,5.738-2.467,5.738-5.49
	c0-3.023-2.578-5.489-5.738-5.489s-5.738,2.465-5.738,5.489C203.391,140.829,205.969,143.296,209.129,143.296z"/>
<path fill-rule="evenodd" clip-rule="evenodd" fill="#FF7899" d="M247.551,115.352c3.16,0,5.738-2.466,5.738-5.489
	c0-3.023-2.578-5.489-5.738-5.489s-5.738,2.465-5.738,5.489C241.812,112.886,244.391,115.352,247.551,115.352z"/>
<path fill-rule="evenodd" clip-rule="evenodd" fill="#FFBE36" d="M48.205,87.408c3.161,0,5.738-2.466,5.738-5.489
	c0-3.023-2.577-5.489-5.738-5.489c-3.16,0-5.738,2.466-5.738,5.489C42.467,84.942,45.045,87.408,48.205,87.408z"/>
<path fill-rule="evenodd" clip-rule="evenodd" fill="#FFBE36" d="M78.643,99.883c3.161,0,5.738-2.466,5.738-5.489
	c0-3.023-2.578-5.489-5.738-5.489s-5.739,2.465-5.739,5.489C72.904,97.417,75.482,99.883,78.643,99.883z"/>
<path fill-rule="evenodd" clip-rule="evenodd" fill="#FF7899" d="M97.502,81.023c3.161,0,5.738-2.466,5.738-5.489
	c0-3.023-2.577-5.489-5.738-5.489c-3.16,0-5.738,2.466-5.738,5.489C91.764,78.558,94.342,81.023,97.502,81.023z"/>
<path fill-rule="evenodd" clip-rule="evenodd" fill="#FF7899" d="M70.41,128.325c3.16,0,5.738-2.466,5.738-5.489
	s-2.578-5.489-5.738-5.489c-3.161,0-5.739,2.466-5.739,5.489S67.25,128.325,70.41,128.325z"/>
<path fill-rule="evenodd" clip-rule="evenodd" fill="#FFBE36" d="M108.833,100.381c3.16,0,5.738-2.465,5.738-5.489
	s-2.578-5.489-5.738-5.489c-3.161,0-5.738,2.466-5.738,5.489S105.671,100.381,108.833,100.381z"/>
<g>
	<polygon fill-rule="evenodd" clip-rule="evenodd" fill="#22150E" points="75.382,184.213 79.338,184.213 92.262,276.525 
		88.306,276.525 	"/>
	<g>
		<path fill-rule="evenodd" clip-rule="evenodd" fill="#22150E" d="M94.107,184.213c1.319,0,2.637,0,3.956,0
			c3.227,31.623,6.453,63.245,9.679,94.869c-1.318,0-2.637,0-3.955,0C100.56,247.458,97.334,215.836,94.107,184.213z"/>
		<path fill-rule="evenodd" clip-rule="evenodd" fill="#22150E" d="M112.832,184.213c1.318,0,2.637,0,3.955,0
			c2.146,32.476,4.291,64.95,6.435,97.428c-1.318,0-2.637,0-3.955,0C117.122,249.163,114.977,216.688,112.832,184.213z"/>
		<path fill-rule="evenodd" clip-rule="evenodd" fill="#22150E" d="M131.556,184.213c1.318,0,2.637,0,3.955,0
			c1.063,33.328,2.126,66.655,3.19,99.985c-1.318,0-2.637,0-3.955,0C133.683,250.868,132.62,217.541,131.556,184.213z"/>
	</g>
	<rect x="150.252" y="184.213" fill-rule="evenodd" clip-rule="evenodd" fill="#22150E" width="3.955" height="102.542"/>
	<polygon fill-rule="evenodd" clip-rule="evenodd" fill="#22150E" points="229.106,183.963 225.151,183.963 212.227,276.275 
		216.182,276.275 	"/>
	<g>
		<path fill-rule="evenodd" clip-rule="evenodd" fill="#22150E" d="M210.381,183.963c-1.318,0-2.636,0-3.955,0
			c-3.226,31.624-6.453,63.246-9.679,94.869c1.318,0,2.637,0,3.955,0C203.929,247.209,207.155,215.587,210.381,183.963z"/>
		<path fill-rule="evenodd" clip-rule="evenodd" fill="#22150E" d="M191.656,183.963c-1.317,0-2.636,0-3.954,0
			c-2.146,32.477-4.29,64.951-6.435,97.427c1.318,0,2.636,0,3.955,0C187.368,248.914,189.512,216.439,191.656,183.963z"/>
		<path fill-rule="evenodd" clip-rule="evenodd" fill="#22150E" d="M172.933,183.963c-1.319,0-2.637,0-3.954,0
			c-1.064,33.329-2.128,66.656-3.191,99.985c1.32,0,2.638,0,3.955,0C170.807,250.619,171.869,217.292,172.933,183.963z"/>
	</g>
	<rect x="150.281" y="183.963" fill-rule="evenodd" clip-rule="evenodd" fill="#22150E" width="3.955" height="102.543"/>
</g>
</svg>
