<?xml version="1.0" encoding="utf-8"?>
<!-- Generator: Adobe Illustrator 16.0.0, SVG Export Plug-In . SVG Version: 6.00 Build 0)  -->
<!DOCTYPE svg PUBLIC "-//W3C//DTD SVG 1.1//EN" "http://www.w3.org/Graphics/SVG/1.1/DTD/svg11.dtd">
<svg version="1.1" id="Layer_1" xmlns="http://www.w3.org/2000/svg" xmlns:xlink="http://www.w3.org/1999/xlink" x="0px" y="0px"
	 width="242.483px" height="231.261px" viewBox="0 0 242.483 231.261" enable-background="new 0 0 242.483 231.261"
	 xml:space="preserve">
<g>
	
		<path fill="#FBB040" stroke="#3A3536" stroke-width="3" stroke-linecap="round" stroke-linejoin="round" stroke-miterlimit="10" d="
		M39.007,89.121c0,0,14.41-2.47,2.47-19.351c0,0-15.439-16.057-2.47-31.084c0,0-7.486,28.383,28.332,19.196
		c0,0,25.783-10.112-5.172-32.267c0,0,18.295-11.193,43.77,11.656c0,0,8.646-32.037,26.709-14.977c0,0-22.617,4.709-4.555,18.219
		c0,0,8.955,6.484,20.765-5.327c0,0,12.43-12.274-2.16-18.372c0,0,7.719-6.793,17.6,7.102c0,0,5.172,6.407-2.701,17.832
		c0,0-5.636,6.253,2.006,9.109c0,0,7.18,3.242,11.58-5.559c0,0,5.558-15.285,23.699-13.817c0,0,6.407,0.617,8.414,2.47
		c0,0-14.59-1.003-11.348,14.977c0,0,6.793,18.449-9.264,19.375c0,0,15.285,10.576,16.674-4.168c0,0,4.246,10.652-6.329,15.438
		c0,0,29.488-10.962,33.734,26.478c0,0-13.2-15.13-17.909,1.158c0,0,23.544,35.124,5.172,47.475c0,0-6.252-39.138-16.752-7.179
		c0,0,6.794,9.108-5.326,19.917c0,0-14.744,13.277,10.885,12.505c0,0-16.442,11.502-27.945-3.86c0,0,2.779,6.021-3.938,14.127
		c0,0,2.548-11.039-6.329-15.361c0,0,11.038,41.377-31.959,29.643c0,0,25.149-15.748-4.369-23.93c0,0-12.129-4.323-11.831,7.487
		c0,0-0.55,7.796,6.319,17.522c0,0,9.572,12.197-1.93,12.12c0,0,13.509-3.396-13.663-13.587c0,0-11.193-2.47-17.137-19.838
		c0,0-2.162,9.648-21.306,11.965c0,0,19.53-6.793,1.93-20.688c0,0-1.158,8.337-12.428,5.173c0,0,14.513-5.019,1.93-20.148
		c0,0,1.467,18.99-28.099,8.105c0,0,28.485-2.393,15.516-27.713c0,0-30.415,21.537-29.874-11.502c0,0,17.446,16.365,20.302-15.131
		c0,0,3.319-10.884-10.035-4.322c0,0-11.348,6.947-11.734-6.639c0,0,3.088,9.109,11.193,0.077c0,0,3.706-4.323,7.179-5.558
		c0,0,4.863-1.545-0.926-4.863c0,0-4.477-1.854-6.871-7.721C30.826,85.286,35.95,90.253,39.007,89.121z"/>
	
		<ellipse fill="#FABF15" stroke="#3A3536" stroke-width="1.4173" stroke-linecap="round" stroke-linejoin="round" stroke-miterlimit="10" cx="125.505" cy="111.275" rx="66.387" ry="64.737"/>
	
		<path fill="#936527" stroke="#3A3536" stroke-width="0.9921" stroke-linecap="round" stroke-linejoin="round" stroke-miterlimit="10" d="
		M102.573,139.476c0,0,24.17,6.104,35.031,1.435c0,0,14.304-6.054,26.45-0.78c0,0-11.782-9.035-26.721,20.176
		c0,0-6.579,15.977-22.107-0.203C115.227,160.103,109.462,155.321,102.573,139.476z"/>
	
		<path fill="#D97264" stroke="#3A3536" stroke-width="0.9921" stroke-linecap="round" stroke-linejoin="round" stroke-miterlimit="10" d="
		M109.663,153.058c0,0,16.02-9.566,30.293,2.447c0,0-4.422,12.143-12.191,11.839C127.765,167.344,119.87,168.081,109.663,153.058z"
		/>
	<path fill="#3A3536" stroke="#3A3536" stroke-linecap="round" stroke-linejoin="round" stroke-miterlimit="10" d="M54.472,94.425
		l58.359-4.94c0,0,2.779,44.218-29.18,43.569C83.651,133.054,57.56,134.875,54.472,94.425z"/>
	<path fill="#3A3536" stroke="#3A3536" stroke-linecap="round" stroke-linejoin="round" stroke-miterlimit="10" d="M195.004,94.425
		l-58.358-4.94c0,0-2.779,44.218,29.179,43.569C165.824,133.054,191.916,134.875,195.004,94.425z"/>
	<path fill="#3A3536" stroke="#3A3536" stroke-linecap="round" stroke-linejoin="round" stroke-miterlimit="10" d="M105.533,98.012
		l1.235,9.727c0,0,21.769-5.712,34.892,0l1.235-9.727C142.896,98.012,131.625,91.991,105.533,98.012z"/>
	<polygon fill="#808285" stroke="#3A3536" stroke-linecap="round" stroke-linejoin="round" stroke-miterlimit="10" points="
		69.939,106.284 83.32,96.917 81.57,104.739 88.26,100.21 84.967,107.724 93.51,102.321 90.422,109.474 94.848,107.003 
		91.966,112.768 97.424,111.275 85.996,125.634 85.584,122.031 79.1,125.634 82.394,116.884 73.542,122.34 76.218,114.105 
		69.939,117.399 76.218,106.694 	"/>
	<polygon fill="#808285" stroke="#3A3536" stroke-linecap="round" stroke-linejoin="round" stroke-miterlimit="10" points="
		154.51,105.614 161.199,105.1 152.861,115.393 160.272,111.995 157.598,121.567 166.963,115.393 162.022,122.905 169.535,118.789 
		170.462,125.788 180.961,110.144 176.124,110.245 178.902,105.614 172.419,108.702 177.668,100.982 168.198,105.614 
		172.521,99.542 166.243,103.041 167.992,96.763 	"/>
	<g>
		<path fill="#FFFFFF" d="M69.022,28.45c2.852-1.613,6.18-2.021,9.384-1.91c3.225,0.146,6.414,0.923,9.367,2.188
			c2.959,1.26,5.679,3.021,8.041,5.139c2.344,2.141,4.372,4.613,5.733,7.553c-2.992-1.229-5.63-2.601-8.253-3.876
			c-2.613-1.282-5.168-2.496-7.753-3.606c-2.584-1.11-5.194-2.119-7.906-3.021C74.911,30.013,72.142,29.181,69.022,28.45z"/>
	</g>
	<g>
		<path fill="#FFFFFF" d="M37.498,47.292c0.786,3.646,1.893,6.962,3.637,9.475c1.734,2.519,4.054,4.003,6.921,4.795
			c2.867,0.793,6.17,0.933,9.581,0.851c3.429-0.065,6.969-0.388,10.738-0.408c-3.021,2.26-6.425,3.834-10.091,4.818
			c-3.654,0.943-7.683,1.314-11.758,0.197c-2.015-0.574-4.022-1.549-5.683-2.998c-1.664-1.438-2.932-3.297-3.671-5.248
			c-0.748-1.955-1.027-3.978-0.956-5.921C36.308,50.91,36.678,49.011,37.498,47.292z"/>
	</g>
	<g>
		<path fill="#FFFFFF" d="M41.85,91.499c1.411-0.945,2.541-1.531,3.476-2.077c0.938-0.522,1.555-1.005,1.831-1.267
			c0.147-0.139,0.273-0.219,0.457-0.402c0.185-0.18,0.401-0.473,0.633-0.889c0.47-0.844,0.88-2.062,1.632-3.6
			c1.492,0.844,2.433,2.105,2.822,3.768c0.182,0.832,0.181,1.787-0.108,2.766c-0.284,0.977-0.907,1.939-1.7,2.621
			c-1.626,1.396-3.526,1.646-5.05,1.416C44.293,93.567,42.9,92.87,41.85,91.499z"/>
	</g>
	<g>
		<path fill="#FFFFFF" d="M24.558,135.14c1.81,2.105,3.694,3.493,5.571,4.221c1.871,0.733,3.792,0.889,5.92,0.78
			c2.119-0.117,4.387-0.507,6.767-0.96c2.392-0.439,4.87-0.98,7.663-1.208c-1.63,2.282-3.721,4.015-6.087,5.378
			c-2.373,1.334-5.077,2.291-8.047,2.449c-1.479,0.066-3.022-0.059-4.528-0.501c-1.5-0.437-2.954-1.19-4.135-2.231
			C25.307,140.985,24.1,137.929,24.558,135.14z"/>
	</g>
	<path fill="none" stroke="#000000" stroke-linecap="round" stroke-linejoin="round" stroke-miterlimit="10" d="M80.138,177.134"/>
	<g>
		<path fill="#FFFFFF" d="M78.667,174.075c2.387,0.008,4.544,0.792,6.505,2.021c1.912,1.263,3.77,3.056,4.663,5.823
			c0.433,1.363,0.51,2.994,0.076,4.453c-0.423,1.465-1.254,2.682-2.21,3.554c-1.939,1.74-4.197,2.476-6.562,2.47
			c1.208-2.027,2.418-3.686,3.04-5.201c0.309-0.752,0.466-1.402,0.477-1.959c0.013-0.558-0.06-1.053-0.239-1.654
			c-0.354-1.196-1.229-2.693-2.286-4.248C81.073,177.751,79.863,176.105,78.667,174.075z"/>
	</g>
	<g>
		<path fill="#FFFFFF" d="M138.956,203.483c3.979-0.575,7.69-1.292,11.084-2.455c3.386-1.158,6.351-2.816,8.587-5.132
			c2.25-2.3,3.822-5.292,4.883-8.72c1.089-3.426,1.666-7.189,2.401-11.164c1.606,3.713,2.32,7.789,1.979,11.993
			c-0.174,2.099-0.665,4.224-1.518,6.263c-0.856,2.034-2.107,3.961-3.687,5.584c-3.178,3.288-7.539,5.059-11.701,5.517
			C146.796,205.811,142.628,205.235,138.956,203.483z"/>
	</g>
	<g>
		<path fill="#FFFFFF" d="M199.451,149.448c0.432,0.871,0.627,1.854,0.73,2.833c0.116,0.985,0.092,1.983-0.008,2.974
			c-0.211,1.979-0.751,3.926-1.522,5.754c-1.534,3.677-3.913,6.893-6.599,9.673c-0.078,0.079-0.159,0.151-0.244,0.217l-0.139,0.104
			c-0.226,0.169-0.602,0.478-0.886,0.74c-0.298,0.28-0.601,0.548-0.866,0.833c-0.527,0.565-0.969,1.152-1.202,1.605
			c-0.216,0.489-0.266,0.628-0.252,0.836c-0.007,0.234,0.304,0.725,0.856,1.207c1.13,0.971,2.857,1.835,4.601,2.618
			c1.767,0.799,3.637,1.524,5.53,2.409c-2.047,0.432-4.105,0.568-6.203,0.465c-2.098-0.143-4.237-0.43-6.469-1.596
			c-1.092-0.595-2.319-1.504-3.096-3.119c-0.371-0.798-0.554-1.733-0.527-2.6c0.015-0.873,0.225-1.664,0.493-2.348
			c0.542-1.379,1.312-2.403,2.118-3.298c0.406-0.444,0.814-0.868,1.258-1.247c0.459-0.395,0.852-0.715,1.432-1.124l-0.382,0.32
			c2.505-2.426,4.844-4.96,6.874-7.736c1.002-1.396,1.941-2.847,2.727-4.413C198.453,152.985,199.148,151.332,199.451,149.448z"/>
	</g>
	<g>
		<path fill="#FFFFFF" d="M183.682,66.386c1.676-0.84,3.1-1.859,4.204-3.024c1.108-1.16,1.845-2.447,2.261-3.802
			c0.416-1.357,0.554-2.795,0.494-4.303c-0.055-1.502-0.289-3.062-0.639-4.639l0.105,0.365c-0.216-0.619-0.32-1.053-0.449-1.572
			c-0.119-0.5-0.223-1-0.307-1.505c-0.145-1.013-0.242-2.038-0.229-3.082c0.032-2.075,0.418-4.273,1.488-6.25
			c1.045-1.979,2.818-3.59,4.76-4.354c1.945-0.777,3.943-0.899,5.809-0.565c-1.682,0.88-3.208,1.796-4.324,2.933
			c-1.126,1.121-1.795,2.379-2.131,3.724c-0.328,1.35-0.38,2.81-0.221,4.32c0.076,0.753,0.188,1.519,0.362,2.276
			c0.075,0.381,0.163,0.761,0.262,1.133c0.091,0.353,0.229,0.785,0.307,1.016l0.028,0.083c0.03,0.089,0.058,0.192,0.077,0.282
			c0.397,1.916,0.622,3.926,0.456,5.998c-0.154,2.059-0.721,4.207-1.859,6.073c-1.134,1.868-2.84,3.358-4.715,4.167
			c-0.938,0.406-1.902,0.684-2.875,0.797C185.581,66.574,184.613,66.587,183.682,66.386z"/>
	</g>
	<g>
		<path fill="#FFFFFF" d="M197.298,82.206c3.16-1.629,6.77-2.133,10.354-1.904c3.586,0.257,7.231,1.397,10.366,3.47
			c3.144,2.051,5.672,5.037,7.192,8.35c1.524,3.319,2.146,6.912,1.73,10.416c-1.888-2.979-3.571-5.726-5.532-8.089
			c-1.937-2.373-4.089-4.343-6.514-5.947c-2.424-1.604-5.133-2.849-8.078-3.836C203.863,83.673,200.73,82.913,197.298,82.206z"/>
	</g>
	<g>
		<path fill="#FFFFFF" d="M135.585,45.292c3.725-1.245,7.292-2.299,10.662-3.557c3.338-1.245,6.542-2.713,8.732-4.706
			c1.095-0.988,1.878-2.088,2.348-3.351c0.482-1.263,0.624-2.755,0.504-4.383c-0.25-3.282-1.515-6.821-2.698-10.56
			c1.586,1.187,2.966,2.598,4.183,4.188c1.202,1.599,2.227,3.399,2.88,5.464c0.655,2.046,0.878,4.436,0.294,6.799
			c-0.287,1.176-0.791,2.308-1.419,3.334c-0.647,1.017-1.429,1.915-2.271,2.694c-1.712,1.539-3.639,2.599-5.585,3.353
			c-1.953,0.751-3.937,1.221-5.915,1.484C143.346,46.549,139.388,46.393,135.585,45.292z"/>
	</g>
</g>
<path fill="none" stroke="#FBB040" stroke-width="2.8347" stroke-miterlimit="10" d="M-133.018-228.936"/>
</svg>
