<?xml version="1.0" encoding="utf-8"?>
<!DOCTYPE svg PUBLIC "-//W3C//DTD SVG 1.1 Basic//EN" "http://www.w3.org/Graphics/SVG/1.1/DTD/svg11-basic.dtd">
<svg version="1.1" baseProfile="basic" id="Layer_1"
	 xmlns="http://www.w3.org/2000/svg" xmlns:xlink="http://www.w3.org/1999/xlink" x="0px" y="0px" width="300px" height="300px"
	 viewBox="0 0 300 300" xml:space="preserve">
<g>
	<path fill="#EEBAB9" d="M105.275,287.296l-27.501-29.288l-35.159,8.732c0,0,14.506-68.55,21.744-90.615
		c16.949-51.66,63.884-94.077,63.884-94.077l30.021,9.848c0,0-32.099,73.509-40.398,98.8
		C110.407,213.434,105.275,287.296,105.275,287.296z"/>
	<path fill="#F3B7B9" d="M77.777,258.013l27.498,29.283c0,0,5.132-73.862,12.59-96.6c8.299-25.291,40.398-98.8,40.398-98.8
		l-18.876-6.193C105.231,114.595,80.632,180.214,77.777,258.013z"/>
	<path fill="#EEBAB9" d="M199.791,287.296l27.503-29.288l35.16,8.732c0,0-14.509-68.55-21.745-90.615
		c-16.948-51.66-63.885-94.077-63.885-94.077l-30.019,9.848c0,0,32.099,73.509,40.397,98.8
		C194.659,213.434,199.791,287.296,199.791,287.296z"/>
	<path fill="#F3B7B9" d="M227.291,258.013l-27.5,29.283c0,0-5.132-73.862-12.588-96.6c-8.299-25.291-40.397-98.8-40.397-98.8
		l18.873-6.193C199.836,114.595,224.436,180.214,227.291,258.013z"/>
</g>
<path fill="#F3B7B9" d="M125.786,91.883c0,0-34.872,17.038-64.35,27.371c-20.731,7.268-38.521,0-38.521,0
	S11.842,91.379,11.003,79.212c-1.521-22.048,3.752-44.631,3.752-44.631s11.96-20.5,35.276-20.5
	c39.789,0,79.323,32.185,79.323,32.185L125.786,91.883z"/>
<path fill="#E3A1AC" d="M21.767,116.285L21.767,116.285c0.707,1.857,1.147,2.969,1.147,2.969s17.79,7.268,38.521,0
	c29.479-10.333,64.35-27.371,64.35-27.371S95.87,90.28,54.881,89.532C31.569,89.107,21.767,116.285,21.767,116.285z"/>
<path fill="#F3B7B9" d="M174.512,91.883c0,0,34.871,17.038,64.35,27.371c20.73,7.268,38.522,0,38.522,0s11.071-27.875,11.91-40.042
	c1.521-22.048-3.755-44.631-3.755-44.631s-11.96-20.5-35.274-20.5c-39.787,0-79.323,32.185-79.323,32.185L174.512,91.883z"/>
<path fill="#E3A1AC" d="M278.53,116.285L278.53,116.285c-0.707,1.857-1.146,2.969-1.146,2.969s-17.792,7.268-38.522,0
	c-29.479-10.333-64.35-27.371-64.35-27.371s29.914-1.603,70.903-2.351C268.728,89.107,278.53,116.285,278.53,116.285z"/>
<ellipse transform="matrix(0.9971 0.0758 -0.0758 0.9971 5.0205 -8.8412)" fill="#E3A1AC" cx="119.002" cy="61.729" rx="40.551" ry="6.961"/>
<path fill="#E3A1AC" d="M149.124,64.803c0.17,3.824,16.595,5.044,36.687,2.726c20.091-2.318,36.241-7.298,36.07-11.122
	c-0.173-3.825-16.596-5.045-36.688-2.727C165.1,55.999,148.952,60.978,149.124,64.803z"/>
<path fill="#E3A1AC" d="M179.294,81.143c0,17.697-12.572,17.202-28.078,17.202l0,0c-15.507,0-28.078,0.495-28.078-17.202V58.775
	c0-17.696,12.571-21.947,28.078-21.947l0,0c15.506,0,28.078,4.251,28.078,21.947V81.143z"/>
<path fill="#F3B7B9" d="M179.294,78.407c0,14.505-12.572,14.099-28.078,14.099l0,0c-15.507,0-28.078,0.406-28.078-14.099V60.074
	c0-14.505,12.571-17.99,28.078-17.99l0,0c15.506,0,28.078,3.485,28.078,17.99V78.407z"/>
</svg>
