<?xml version="1.0" encoding="utf-8"?>
<!-- Generator: Adobe Illustrator 16.0.0, SVG Export Plug-In . SVG Version: 6.00 Build 0)  -->
<!DOCTYPE svg PUBLIC "-//W3C//DTD SVG 1.1//EN" "http://www.w3.org/Graphics/SVG/1.1/DTD/svg11.dtd">
<svg version="1.1" id="Layer_1" xmlns="http://www.w3.org/2000/svg" xmlns:xlink="http://www.w3.org/1999/xlink" x="0px" y="0px"
	 width="245.923px" height="208.5px" viewBox="0 0 245.923 208.5" enable-background="new 0 0 245.923 208.5" xml:space="preserve">
<g>
	<path fill="#9E2F21" stroke="#000000" stroke-width="2.126" stroke-miterlimit="10" d="M7.64,198.146
		c0,0-18.872-239.622,231.425-184.648C239.065,13.5,261.211,240.818,7.64,198.146z"/>
	<path fill="#FFFFFF" d="M9.888,159.62c0,0,9.427,22.302,34.721,43.035l22.486,0.834c0,0-31.205-32.051-52.191-73.166
		C14.903,130.317,10.554,153.033,9.888,159.62z"/>
	<path fill="#FFFFFF" d="M236.968,54.818c0,0-8.139-25.586-33.427-46.312l-27.349-1.801c0,0,35.155,34.418,56.14,75.53
		C232.326,82.232,236.303,61.407,236.968,54.818z"/>
	
		<path fill="none" stroke="#FFFFFF" stroke-width="1.4173" stroke-linecap="round" stroke-linejoin="round" stroke-miterlimit="10" d="
		M27.736,106.848c0,0,28.15-71.506,124.866-100.885"/>
	
		<polyline fill="none" stroke="#FFFFFF" stroke-width="0.7087" stroke-linecap="round" stroke-linejoin="round" stroke-miterlimit="10" points="
		44.974,104.397 29.97,102.011 29.97,84.266 	"/>
	
		<polyline fill="none" stroke="#FFFFFF" stroke-width="0.7087" stroke-linecap="round" stroke-linejoin="round" stroke-miterlimit="10" points="
		56.364,89.206 39.905,85.317 39.905,67.356 	"/>
	
		<polyline fill="none" stroke="#FFFFFF" stroke-width="0.7087" stroke-linecap="round" stroke-linejoin="round" stroke-miterlimit="10" points="
		67.095,73.819 51.914,69.703 51.958,51.911 	"/>
	
		<polyline fill="none" stroke="#FFFFFF" stroke-width="0.7087" stroke-linecap="round" stroke-linejoin="round" stroke-miterlimit="10" points="
		82.831,59.733 66.827,54.206 69.582,35.553 	"/>
	
		<polyline fill="none" stroke="#FFFFFF" stroke-width="0.7087" stroke-linecap="round" stroke-linejoin="round" stroke-miterlimit="10" points="
		98.523,46.124 82.831,40.825 85.615,24.984 	"/>
	
		<polyline fill="none" stroke="#FFFFFF" stroke-width="0.7087" stroke-linecap="round" stroke-linejoin="round" stroke-miterlimit="10" points="
		113.603,36.965 100.823,28.717 105.517,15.837 	"/>
	
		<polyline fill="none" stroke="#FFFFFF" stroke-width="0.7087" stroke-linecap="round" stroke-linejoin="round" stroke-miterlimit="10" points="
		132.683,26.466 118.95,18.978 125.811,9.888 	"/>
	
		<line fill="none" stroke="#FFFFFF" stroke-width="0.7087" stroke-linecap="round" stroke-linejoin="round" stroke-miterlimit="10" x1="149.605" y1="18.177" x2="137.301" y2="11.155"/>
	<path fill="#672F28" stroke="#000000" stroke-miterlimit="10" d="M237.868,13.5c7.752,132.949-77.592,213.157-231.422,184.648
		c0,0,72.996,11.902,157.519-57.442C248.495,71.357,237.868,13.5,237.868,13.5z"/>
	
		<path fill="none" stroke="#000000" stroke-width="1.4173" stroke-linecap="round" stroke-linejoin="round" stroke-miterlimit="10" d="
		M154.475,5.825c31.876-1.55-38.108,35.987-38.108,35.987c4.617,25.542-27.999,31.382-27.999,31.382
		c-3.386,19.39-31.391,28.929-31.391,28.929c-25.85,28.316-32.72-3.047-32.72-3.047s20.565-57.545,67.67-77.412
		C91.918,21.668,118.95,7.551,154.475,5.825z"/>
</g>
</svg>
