<?xml version="1.0" encoding="utf-8"?>
<!-- Generator: Adobe Illustrator 16.0.0, SVG Export Plug-In . SVG Version: 6.00 Build 0)  -->
<!DOCTYPE svg PUBLIC "-//W3C//DTD SVG 1.1 Basic//EN" "http://www.w3.org/Graphics/SVG/1.1/DTD/svg11-basic.dtd">
<svg version="1.1" baseProfile="basic" id="Layer_1"
	 xmlns="http://www.w3.org/2000/svg" xmlns:xlink="http://www.w3.org/1999/xlink" x="0px" y="0px" width="300px" height="300px"
	 viewBox="0 0 300 300" xml:space="preserve">
<g>
	<g id="XMLID_3_">
		<g>
			<linearGradient id="SVGID_1_" gradientUnits="userSpaceOnUse" x1="42.0063" y1="77.1279" x2="262.6113" y2="77.1279">
				<stop  offset="0" style="stop-color:#FAAF40"/>
				<stop  offset="0.1259" style="stop-color:#FAAF40"/>
				<stop  offset="0.1924" style="stop-color:#FAAF40"/>
				<stop  offset="0.4415" style="stop-color:#F9EC31"/>
				<stop  offset="0.4735" style="stop-color:#F9EC31"/>
				<stop  offset="0.5321" style="stop-color:#F9EC31"/>
				<stop  offset="0.7123" style="stop-color:#FAAF40"/>
				<stop  offset="0.7777" style="stop-color:#FAAF40"/>
				<stop  offset="0.9613" style="stop-color:#FAAF40"/>
			</linearGradient>
			<path fill="url(#SVGID_1_)" d="M227.594,105.653c-1.185-1.847-2.579-3.52-3.484-5.436c-3.555-7.527-10.105-9.513-17.633-10.036
				c-11.812-0.872-23.242,0.348-34.324,5.018c-4.425,1.847-9.513,2.23-14.112,3.764c-5.332,1.777-10.419,4.216-15.681,6.098
				c-3.345,1.185-7.179,1.185-9.234,4.878c-0.871,1.568-2.056,2.997-3.032,4.53c-1.394,2.23-1.708,5.75-4.286,5.75
				c-0.383,0-0.802-0.104-1.254-0.244c-3.764-5.401-6.935-10.559-10.733-15.159c-1.777-2.16-4.6-4.042-7.283-4.739
				c-8.398-2.23-16.9-3.52-25.717-1.499c-12.092,2.788-24.288,5.157-36.798,7.771c-0.313-2.056-0.941-4.809-1.081-7.596
				C42,82.236,40.92,65.684,44.37,49.376c0.767-3.694,3.659-6.935,5.506-10.419c0.662-1.255,1.429-2.196,2.265-2.927
				c3.554-2.962,8.468-1.603,12.789-1.568c6.726,0.035,13.451,1.081,20.211,1.254c13.485,0.384,27.006,0.941,40.492,0.662
				c23.278-0.488,46.52-1.847,69.798-2.265c14.008-0.244,28.086,0.069,42.06,1.289c5.819,0.488,11.43,3.903,17.109,6.098
				c0.662,0.244,1.359,1.115,1.533,1.812c2.126,8.468,4.774,16.866,5.994,25.438c0.976,7.039,0.174,14.288,0.174,21.083
				C249.233,91.61,237.979,97.639,227.594,105.653z"/>
			<linearGradient id="SVGID_2_" gradientUnits="userSpaceOnUse" x1="197.2773" y1="129.7148" x2="217.1045" y2="129.7148">
				<stop  offset="0" style="stop-color:#26A9E0"/>
				<stop  offset="0" style="stop-color:#26A9E0"/>
				<stop  offset="0" style="stop-color:#26A9E0"/>
				<stop  offset="0" style="stop-color:#26A9E0"/>
				<stop  offset="0" style="stop-color:#26A9E0"/>
				<stop  offset="0.3197" style="stop-color:#FFFFFF"/>
				<stop  offset="0.5218" style="stop-color:#FFFFFF"/>
				<stop  offset="0.6672" style="stop-color:#FFFFFF"/>
				<stop  offset="1" style="stop-color:#26A9E0"/>
				<stop  offset="1" style="stop-color:#26A9E0"/>
			</linearGradient>
			<path fill="url(#SVGID_2_)" d="M215.851,107.326c4.844,8.572-4.983,32.825-18.573,44.777
				C203.445,137.259,209.613,122.38,215.851,107.326z"/>
			<path d="M187.834,197.091c-0.313,0.767-0.523,2.404-1.359,3.485c-6.342,7.944-12.405,16.168-19.375,23.556
				c-4.564,4.879-10.245,8.921-15.96,12.51c-1.742,1.081-5.68,0.105-7.805-1.219c-7.178-4.461-13.974-9.583-20.943-14.357
				c-3.903-2.718-8.154-4.983-11.743-8.05c-1.603-1.324-2.788-4.146-2.753-6.237c0.035-2.857,2.3-4.111,5.227-3.066
				c11.499,4.112,22.581,3.066,33.522-2.23c6.342-3.031,12.893-5.784,19.479-8.154c5.471-1.951,11.151-3.171,17.11-2.195
				C186.475,191.655,187.59,193.502,187.834,197.091z"/>
			<linearGradient id="SVGID_3_" gradientUnits="userSpaceOnUse" x1="51.709" y1="178.6982" x2="273.6064" y2="178.6982">
				<stop  offset="0" style="stop-color:#FAAF40"/>
				<stop  offset="0.1259" style="stop-color:#FAAF40"/>
				<stop  offset="0.1924" style="stop-color:#FAAF40"/>
				<stop  offset="0.4415" style="stop-color:#F9EC31"/>
				<stop  offset="0.4735" style="stop-color:#F9EC31"/>
				<stop  offset="0.5321" style="stop-color:#F9EC31"/>
				<stop  offset="0.7123" style="stop-color:#FAAF40"/>
				<stop  offset="0.7777" style="stop-color:#FAAF40"/>
				<stop  offset="0.9613" style="stop-color:#FAAF40"/>
			</linearGradient>
			<path fill="url(#SVGID_3_)" d="M183.234,191.132c-5.959-0.976-11.64,0.244-17.11,2.195c-6.586,2.37-13.137,5.123-19.479,8.154
				c-10.942,5.297-22.023,6.343-33.522,2.23c-2.927-1.045-5.192,0.209-5.227,3.066c-0.035,2.091,1.15,4.913,2.753,6.237
				c3.589,3.066,7.84,5.332,11.743,8.05c6.969,4.774,13.765,9.896,20.943,14.357c2.125,1.324,6.063,2.3,7.805,1.219
				c5.715-3.589,11.396-7.631,15.96-12.51c6.97-7.388,13.033-15.611,19.375-23.556c0.836-1.081,1.046-2.719,1.359-3.485
				C187.59,193.502,186.475,191.655,183.234,191.132z M52.28,195.662c2.683,0,4.739-0.174,6.76,0.035
				c8.92,0.906,16.134-2.857,23.556-7.283c12.44-7.422,21.5-18.051,28.295-30.177c5.68-10.21,12.998-20.177,13.033-32.826
				c0-0.732,0.662-1.464,1.673-3.415c1.394,1.986,2.613,3.275,3.275,4.774c5.123,11.883,10.454,23.626,15.019,35.683
				c3.345,8.887,9.653,14.462,17.981,17.528c4.146,1.533,9.199,0.767,13.869,0.836c3.52,0.035,7.213,0.453,10.454-0.487
				c3.658-1.08,7.666-2.753,10.21-5.437c5.924-6.237,11.778-12.788,16.447-20.002c6.83-10.593,12.092-22.127,14.392-34.707
				c0.418-2.265,0.697-4.565,0.802-6.865c0.278-5.123,4.773-7.213,8.015-9.27c6.098-3.938,12.858-7.074,19.724-9.478
				c5.715-2.056,6.899-0.488,7.422,5.575c0.662,7.492,1.777,14.949,2.579,22.407c0.418,4.077,0.627,8.189,0.731,12.266
				c0.313,10.837,1.08,21.675,0.627,32.477c-0.418,10.28,0.313,20.246,2.266,30.317c1.254,6.446,1.22,13.137,1.916,19.723
				c0.697,6.656,1.986,13.312,2.266,20.002c0.139,3.903-0.697,8.015-1.952,11.709c-1.847,5.331-6.098,7.073-11.812,7.353
				c-7.248,0.349-14.392,2.265-21.64,3.136c-13.103,1.533-26.205,3.659-39.342,3.973c-20.908,0.488-41.886-0.174-62.829-0.662
				c-6.621-0.174-13.207-1.498-19.828-2.056c-3.102-0.244-6.272,0.418-9.339,0.14c-10.28-0.977-20.525-2.057-30.77-3.415
				c-3.346-0.419-6.621-1.743-9.896-2.719c-8.433-2.544-10.768-9.966-11.744-17.074c-1.638-12.162-1.951-24.532-2.718-36.799
				c-0.035-0.558,0-1.149,0.069-1.707C51.897,198.032,52.141,196.847,52.28,195.662z"/>
			<linearGradient id="SVGID_4_" gradientUnits="userSpaceOnUse" x1="89.1128" y1="137.3467" x2="111.4541" y2="137.3467">
				<stop  offset="0" style="stop-color:#26A9E0"/>
				<stop  offset="0" style="stop-color:#26A9E0"/>
				<stop  offset="0" style="stop-color:#26A9E0"/>
				<stop  offset="0" style="stop-color:#26A9E0"/>
				<stop  offset="0" style="stop-color:#26A9E0"/>
				<stop  offset="0.3197" style="stop-color:#FFFFFF"/>
				<stop  offset="0.5218" style="stop-color:#FFFFFF"/>
				<stop  offset="0.6672" style="stop-color:#FFFFFF"/>
				<stop  offset="1" style="stop-color:#26A9E0"/>
				<stop  offset="1" style="stop-color:#26A9E0"/>
			</linearGradient>
			<path fill="url(#SVGID_4_)" d="M109.742,112.623c5.854,12.998-3.868,37.216-20.629,49.448
				C95.978,145.588,102.843,129.14,109.742,112.623z"/>
			<path d="M85.141,35.716c-6.76-0.174-13.486-1.219-20.211-1.254c-4.321-0.035-9.234-1.394-12.789,1.568l-1.638-1.22
				c0.871-0.836,1.777-1.673,2.544-2.613c3.136-3.694,6.865-2.056,10.523-1.464c4.112,0.662,8.224,1.847,12.336,1.882
				c17.598,0.279,35.195,0.209,52.792,0.244c10.803,0,21.605,0.174,32.408-0.174c12.823-0.418,25.647-1.847,38.471-1.847
				c14.043,0.035,28.156,0.732,42.13,2.195c5.575,0.593,10.906,3.903,16.238,6.238c0.976,0.453,1.673,2.021,2.056,3.241
				c4.983,15.228,7.004,30.909,6.621,46.904c-0.035,0.94,1.115,2.334,2.056,2.788c2.404,1.185,5.019,2.091,7.597,2.822
				c7.666,2.161,10.977,9.479,16.622,14.043c0.522,0.418-0.035,2.195-0.069,3.345c-1.186-0.313-2.648-0.279-3.45-1.011
				c-3.868-3.345-7.248-7.353-11.395-10.314c-3.241-2.334-7.318-3.52-11.36-5.366c1.324,16.866,2.788,33,3.833,49.168
				c0.453,7.004-0.278,14.043,0.035,21.048c0.418,10.001,1.149,20.002,2.021,29.968c0.662,7.806,1.708,15.542,2.544,23.348
				c0.453,4.042,0.384,8.153,1.22,12.126c1.464,6.935,0,13.521-2.126,19.897c-0.836,2.51-3.729,4.252-5.366,6.552
				c-2.16,2.996-4.948,1.08-7.457,1.429c-7.91,1.149-15.785,2.718-23.73,3.729c-12.614,1.638-25.264,3.833-37.948,4.216
				c-15.193,0.488-30.456-0.627-45.684-1.114c-17.842-0.558-35.718-0.837-53.56-1.848c-9.025-0.522-17.981-2.474-26.971-3.589
				c-3.764-0.487-7.074-1.255-10.524-3.38c-8.119-4.983-10.349-12.789-11.708-21.082c-0.801-4.81-0.522-9.792-0.941-14.671
				c-0.453-5.471-1.15-10.907-1.708-16.343c-0.104-0.837-0.139-1.673,0.035-2.475c0.348-1.673,0.627-2.927,0.731-3.938l2.474,0.453
				c-0.069,0.558-0.104,1.149-0.069,1.707c0.767,12.267,1.08,24.637,2.718,36.799c0.976,7.108,3.311,14.53,11.744,17.074
				c3.275,0.976,6.551,2.3,9.896,2.719c10.245,1.358,20.49,2.438,30.77,3.415c3.066,0.278,6.237-0.384,9.339-0.14
				c6.621,0.558,13.207,1.882,19.828,2.056c20.943,0.488,41.921,1.15,62.829,0.662c13.137-0.313,26.239-2.439,39.342-3.973
				c7.248-0.871,14.392-2.787,21.64-3.136c5.715-0.279,9.966-2.021,11.812-7.353c1.255-3.694,2.091-7.806,1.952-11.709
				c-0.279-6.69-1.568-13.346-2.266-20.002c-0.696-6.586-0.662-13.276-1.916-19.723c-1.952-10.071-2.684-20.037-2.266-30.317
				c0.453-10.802-0.313-21.64-0.627-32.477c-0.104-4.077-0.313-8.189-0.731-12.266c-0.802-7.458-1.917-14.915-2.579-22.407
				c-0.522-6.063-1.707-7.631-7.422-5.575c-6.865,2.404-13.626,5.541-19.724,9.478c-3.241,2.056-7.736,4.147-8.015,9.27
				c-0.104,2.3-0.384,4.6-0.802,6.865c-2.3,12.58-7.562,24.114-14.392,34.707c-4.669,7.214-10.523,13.765-16.447,20.002
				c-2.544,2.684-6.552,4.356-10.21,5.437c-3.241,0.94-6.935,0.522-10.454,0.487c-4.67-0.069-9.723,0.697-13.869-0.836
				c-8.328-3.066-14.636-8.642-17.981-17.528c-4.565-12.057-9.896-23.8-15.019-35.683c-0.662-1.499-1.882-2.788-3.275-4.774
				l0.209-1.777c2.579,0,2.892-3.52,4.286-5.75c0.976-1.533,2.161-2.962,3.032-4.53c2.056-3.694,5.889-3.694,9.234-4.878
				c5.262-1.882,10.349-4.321,15.681-6.098c4.6-1.533,9.688-1.917,14.112-3.764c11.082-4.669,22.512-5.889,34.324-5.018
				c7.527,0.522,14.078,2.509,17.633,10.036c0.905,1.917,2.3,3.589,3.484,5.436c10.385-8.015,21.64-14.043,34.707-15.82
				c0-6.795,0.802-14.043-0.174-21.083c-1.22-8.572-3.868-16.97-5.994-25.438c-0.174-0.697-0.871-1.568-1.533-1.812
				c-5.68-2.195-11.29-5.61-17.109-6.098c-13.974-1.22-28.052-1.533-42.06-1.289c-23.278,0.418-46.521,1.777-69.798,2.265
				C112.146,36.657,98.626,36.1,85.141,35.716z M197.277,152.104c13.59-11.952,23.417-36.205,18.573-44.777
				C209.613,122.38,203.445,137.259,197.277,152.104z"/>
			<path d="M113.819,104.817c3.798,4.6,6.969,9.757,10.733,15.159c0.453,0.139,0.871,0.244,1.254,0.244l-0.209,1.777
				c-1.011,1.951-1.673,2.683-1.673,3.415c-0.035,12.649-7.353,22.615-13.033,32.826c-6.795,12.126-15.855,22.755-28.295,30.177
				c-7.422,4.426-14.636,8.189-23.556,7.283c-2.021-0.209-4.077-0.035-6.76-0.035c-0.14,1.185-0.383,2.37-0.488,3.555l-2.474-0.453
				c0.383-3.24-0.871-3.868-6.063-6.481c-9.165-4.6-15.577-11.743-20.804-20.524c-5.715-9.652-12.475-18.853-14.879-29.899
				c-1.185-5.505-0.767-11.778,0.662-17.249c1.011-3.868,4.251-7.457,9.165-8.642c4.914-1.185,9.653-3.206,14.461-4.878
				c2.927-1.01,5.889-2.021,8.781-2.997c-0.522-11.151-1.324-21.954-1.429-32.791c-0.069-7.562,0.906-15.158,1.29-22.72
				c0.279-6.203,3.973-10.628,7.527-15.159c0.732-0.94,1.603-1.777,2.474-2.613l1.638,1.22c-0.836,0.731-1.603,1.672-2.265,2.927
				c-1.847,3.484-4.739,6.725-5.506,10.419C40.92,65.684,42,82.236,42.941,98.754c0.14,2.788,0.767,5.541,1.081,7.596
				c12.51-2.613,24.706-4.983,36.798-7.771c8.816-2.021,17.319-0.732,25.717,1.499C109.22,100.775,112.042,102.657,113.819,104.817z
				 M109.742,112.623c-6.899,16.518-13.764,32.965-20.629,49.448C105.875,149.839,115.597,125.621,109.742,112.623z"/>
		</g>
		<g>
		</g>
	</g>
</g>
<g>
</g>
<g>
</g>
<g>
</g>
<g>
</g>
<g>
</g>
<g>
</g>
<g>
</g>
<g>
</g>
<g>
</g>
<g>
</g>
<g>
</g>
<g>
</g>
<g>
</g>
<g>
</g>
<g>
</g>
</svg>
