<?xml version="1.0" encoding="utf-8"?>
<!-- Generator: Adobe Illustrator 16.0.0, SVG Export Plug-In . SVG Version: 6.00 Build 0)  -->
<!DOCTYPE svg PUBLIC "-//W3C//DTD SVG 1.1//EN" "http://www.w3.org/Graphics/SVG/1.1/DTD/svg11.dtd">
<svg version="1.1" id="Layer_1" xmlns="http://www.w3.org/2000/svg" xmlns:xlink="http://www.w3.org/1999/xlink" x="0px" y="0px"
	 width="252.5px" height="260.229px" viewBox="0 0 252.5 260.229" enable-background="new 0 0 252.5 260.229" xml:space="preserve">
<g>
	<circle fill="#4DA29E" stroke="#000000" stroke-width="2.126" stroke-miterlimit="10" cx="126" cy="127.5" r="120.75"/>
	<g>
		<path fill="#00695B" d="M243.669,110.939c3.288,15.791,2.41,32.716-2.057,48.829c-4.49,16.137-12.691,31.448-23.777,44.516
			c-11.086,13.072-25.134,23.869-40.947,31.233c-7.884,3.725-16.25,6.469-24.778,8.414c-8.547,1.89-17.301,2.817-26.03,2.89
			c-4.116,0.011-8.775-0.221-13.031-0.642c-4.337-0.426-8.67-1.064-12.956-1.93c-8.561-1.838-16.975-4.515-24.941-8.183
			c-15.937-7.32-30.054-18.339-40.894-31.656c-21.833-26.638-31.027-61.569-26.57-93.472c2.854,15.844,7.466,30.895,14.239,44.638
			c6.726,13.738,15.478,26.158,26.004,36.405c10.524,10.248,22.735,18.371,36.045,23.63c6.647,2.636,13.526,4.655,20.582,5.879
			c3.516,0.646,7.071,1.14,10.653,1.444c3.665,0.312,6.96,0.426,10.8,0.426c28.719,0.067,57.055-11.342,78.439-31.673
			C225.975,171.498,240.338,142.944,243.669,110.939z"/>
	</g>
	<circle fill="#262A27" cx="58.614" cy="88.018" r="16.331"/>
	<g>
		<path fill="#00695B" d="M61.638,100.632c-4.329,1.606-9.575-0.028-12.934-3.4c-3.381-3.352-5.012-8.598-3.397-12.931
			c1.575,4.238,3.46,7.485,6.165,10.165C54.148,97.177,57.4,99.061,61.638,100.632z"/>
	</g>
	<g>
		<path fill="#DFF2F7" d="M15.279,173.021c-6.577-17.884-9.668-37.261-8.257-56.583c1.518-19.29,8.018-38.353,19-54.565
			c10.866-16.301,26.027-29.606,43.261-38.93c17.277-9.267,36.818-14.484,56.565-14.576c19.764,0.044,39.337,5.407,56.512,14.869
			c17.137,9.532,32.122,22.933,43.07,39.117c11.062,16.097,18.069,34.931,19.967,54.224c1.79,19.293-1.267,38.85-8.636,56.439
			c2.847-9.097,4.787-18.434,5.688-27.832c0.868-9.403,0.593-18.882-0.859-28.133c-2.736-18.553-10.221-36.176-21.147-51.179
			c-10.983-14.968-25.253-27.501-41.613-36.126c-16.274-8.716-34.597-13.637-52.975-13.562
			C89.024,16.178,52.625,35.198,31.017,65.34c-10.819,15.063-17.83,32.893-20.206,51.499c-1.272,9.292-1.432,18.769-0.602,28.187
			C11.076,154.442,12.813,163.814,15.279,173.021z"/>
	</g>
	
		<ellipse transform="matrix(-0.5637 0.826 -0.826 -0.5637 315.117 -81.1325)" fill="#DFF2F7" stroke="#DFF2F7" stroke-miterlimit="10" cx="178.987" cy="42.663" rx="16.53" ry="24.203"/>
	<path fill="#DFF2F7" stroke="#DFF2F7" stroke-miterlimit="10" d="M186.623,74.619c-1.531-2.498-1.733-5.16-0.453-5.941
		c1.277-0.784,3.556,0.606,5.084,3.104c1.53,2.5,1.735,5.16,0.452,5.943C190.429,78.509,188.154,77.118,186.623,74.619z"/>
	<circle fill="#262A27" cx="39.905" cy="146.251" r="16.331"/>
	<g>
		<path fill="#00695B" d="M42.929,158.857c-4.328,1.606-9.577-0.032-12.934-3.391c-3.38-3.354-5.012-8.604-3.4-12.938
			c1.577,4.236,3.46,7.487,6.166,10.175C35.439,155.396,38.688,157.294,42.929,158.857z"/>
	</g>
	<circle fill="#262A27" cx="99.408" cy="130.255" r="16.331"/>
	<g>
		<path fill="#00695B" d="M102.433,142.869c-4.328,1.605-9.574-0.033-12.934-3.392c-3.382-3.36-5.013-8.603-3.397-12.938
			c1.576,4.238,3.461,7.486,6.162,10.174C94.939,139.408,98.192,141.306,102.433,142.869z"/>
	</g>
</g>
</svg>
