<?xml version="1.0" encoding="utf-8"?>
<!-- Generator: Adobe Illustrator 16.0.0, SVG Export Plug-In . SVG Version: 6.00 Build 0)  -->
<!DOCTYPE svg PUBLIC "-//W3C//DTD SVG 1.1 Basic//EN" "http://www.w3.org/Graphics/SVG/1.1/DTD/svg11-basic.dtd">
<svg version="1.1" baseProfile="basic" id="Layer_1"
	 xmlns="http://www.w3.org/2000/svg" xmlns:xlink="http://www.w3.org/1999/xlink" x="0px" y="0px" width="300px" height="300px"
	 viewBox="0 0 300 300" xml:space="preserve">
<path opacity="0.15" fill-rule="evenodd" clip-rule="evenodd" fill="#010101" d="M154.508,297.373
	c63.306,0,114.938-17.099,114.938-38.062c0-20.965-51.632-38.062-114.938-38.062S39.57,238.346,39.57,259.311
	C39.57,280.274,91.202,297.373,154.508,297.373z"/>
<path fill-rule="evenodd" clip-rule="evenodd" fill="#442C1E" d="M140.258,282.748c63.306,0,114.938-17.099,114.938-38.062
	c0-20.965-51.632-38.062-114.938-38.062S25.32,223.721,25.32,244.686C25.32,265.649,76.952,282.748,140.258,282.748z"/>
<path fill-rule="evenodd" clip-rule="evenodd" fill="#332018" d="M140.258,266.039c35.515,0,64.48-9.593,64.48-21.354
	c0-11.762-28.966-21.354-64.48-21.354s-64.48,9.592-64.48,21.354C75.777,256.446,104.743,266.039,140.258,266.039z"/>
<path fill-rule="evenodd" clip-rule="evenodd" fill="#573928" d="M235.238,137.622c-0.141,4.713-0.478,9.358-0.996,13.924
	c2.391-1.133,4.886-2.047,7.453-2.699c17.501-4.438,31.688,4.933,31.688,20.932s-14.187,32.566-31.688,37.006
	c-9.001,2.283-17.125,0.912-22.894-3.135c-6.309,12.258-14.202,22.964-23.291,31.597c-5.217,4.954-10.939,7.894-18.005,9.251
	c-24.359,4.676-49.171,4.824-74.48-0.01c-7.083-1.354-12.82-4.299-18.047-9.268c-23.119-21.974-38.507-57.364-39.7-97.599
	c9.358,10.876,48.324,19.034,94.979,19.034S225.879,148.499,235.238,137.622L235.238,137.622z M232.438,163.477
	c-1.897,10.008-4.698,19.539-8.276,28.436c3.582,4.52,10.094,6.498,17.533,4.611c11.302-2.867,20.463-13.565,20.463-23.897
	c0-10.331-9.161-16.384-20.463-13.517C238.364,159.953,235.219,161.48,232.438,163.477z"/>
<path fill-rule="evenodd" clip-rule="evenodd" fill="#7D5744" d="M140.258,160.742c52.358,0,95.062-10.386,95.062-23.12
	s-42.704-23.121-95.062-23.121s-95.062,10.386-95.062,23.121S87.899,160.742,140.258,160.742z"/>
<path fill-rule="evenodd" clip-rule="evenodd" fill="#BECEC8" d="M140.258,158.05c48.642,0,88.313-9.176,88.313-20.428
	c0-11.252-39.672-20.429-88.313-20.429c-48.641,0-88.312,9.177-88.312,20.429C51.945,148.874,91.617,158.05,140.258,158.05z"/>
<path fill-rule="evenodd" clip-rule="evenodd" fill="#30231E" d="M140.258,158.05c34.648,0,64.631-4.616,79.095-11.334
	c-14.464-6.718-44.446-11.334-79.095-11.334s-64.631,4.616-79.095,11.334C75.627,153.434,105.609,158.05,140.258,158.05z"/>
<path opacity="0.65" fill-rule="evenodd" clip-rule="evenodd" fill="#F7F9F4" d="M138.928,107.437
	c0-5.331-2.226-11.528-4.451-17.724c-5.2-14.481-10.401-28.963,6.281-38.861c8.925-5.295,11.002-13.085,9.805-21.189
	c-1.31-8.871-6.339-18.256-11.039-25.598c8.682,5.369,16.934,14.682,18.387,24.523c1.613,10.922-1.228,21.444-13.377,28.653
	c-11.418,6.774-7.252,18.375-3.087,29.975C144.237,94.993,142.639,98.023,138.928,107.437z"/>
<path opacity="0.65" fill-rule="evenodd" clip-rule="evenodd" fill="#F7F9F4" d="M170.371,137.622c0-3.941-1.646-8.523-3.291-13.105
	c-3.846-10.707-7.691-21.415,4.644-28.733c6.599-3.915,8.135-9.675,7.25-15.667c-0.969-6.559-4.688-13.499-8.162-18.926
	c6.419,3.97,12.521,10.855,13.595,18.132c1.192,8.075-0.907,15.855-9.892,21.186c-8.442,5.009-5.361,13.586-2.282,22.163
	C174.296,128.421,173.114,130.661,170.371,137.622z"/>
</svg>
