<?xml version="1.0" encoding="utf-8"?>
<!-- Generator: Adobe Illustrator 16.0.0, SVG Export Plug-In . SVG Version: 6.00 Build 0)  -->
<!DOCTYPE svg PUBLIC "-//W3C//DTD SVG 1.1 Basic//EN" "http://www.w3.org/Graphics/SVG/1.1/DTD/svg11-basic.dtd">
<svg version="1.1" baseProfile="basic" id="Layer_1"
	 xmlns="http://www.w3.org/2000/svg" xmlns:xlink="http://www.w3.org/1999/xlink" x="0px" y="0px" width="300px" height="300px"
	 viewBox="0 0 300 300" xml:space="preserve">
<g>
	<g id="XMLID_1_">
		<g>
			<linearGradient id="SVGID_1_" gradientUnits="userSpaceOnUse" x1="186.2705" y1="111.8569" x2="287.8135" y2="111.8569">
				<stop  offset="0" style="stop-color:#1B75BB"/>
				<stop  offset="0.7139" style="stop-color:#262261"/>
			</linearGradient>
			<path fill="url(#SVGID_1_)" d="M287.813,178.361c-0.065,0.428-0.131,0.855-0.197,1.283c-8.292-0.56-16.584-0.921-24.843-1.678
				c-8.357-0.757-16.649-2.04-25.008-2.731c-8.489-0.724-17.012-1.053-25.501-1.48c-8.357-0.428-16.716-0.757-25.994-1.185
				c0.625-8.588,0.789-16.551,1.908-24.35c2.172-14.873,5.067-29.614,7.338-44.487c2.105-13.952,3.883-27.937,5.626-41.954
				c1.218-9.872,6.22-16.255,15.959-17.571c4.377-0.559,8.424,0.526,11.451,3.883c7.271,8.095,14.478,16.255,21.553,24.547
				c0.69,0.823,0.987,2.896,0.46,3.784c-4.573,7.437-3.816,15.729-4.146,24.25c-3.85,0.395-6.877,1.218-7.864,5.758
				c-0.56,2.6-3.061,4.706-4.311,7.239c-3.455,6.976-2.6,13.82,0.625,20.664c4.541,9.575,12.208,16.189,20.632,22.014
				c9.114,6.284,18.459,12.24,27.705,18.394C284.819,175.828,286.268,177.144,287.813,178.361z"/>
			<linearGradient id="SVGID_2_" gradientUnits="userSpaceOnUse" x1="249.5781" y1="88.6445" x2="280.3447" y2="88.6445">
				<stop  offset="0" style="stop-color:#A87C4F"/>
				<stop  offset="0.868" style="stop-color:#652D90"/>
			</linearGradient>
			<path fill="url(#SVGID_2_)" d="M279.324,77.476c1.777,8.72,1.612,17.144-3.586,24.876c-5.166,7.601-18.131,9.181-24.975,1.448
				c-1.415-1.579-1.185-4.903-1.152-7.437c0.066-7.798,1.021-15.498,6.187-21.75c2.007-2.402,4.87-4.211,7.601-5.857
				c0.987-0.592,3.093-0.395,4.08,0.329c3.949,2.797,9.642,3.883,11.057,9.641c0.099-0.592,0.229-1.185,0.361-1.908
				C279.094,77.114,279.259,77.278,279.324,77.476z"/>
			<linearGradient id="SVGID_3_" gradientUnits="userSpaceOnUse" x1="49.2222" y1="228.9766" x2="270.9385" y2="228.9766">
				<stop  offset="0" style="stop-color:#FAAF40"/>
				<stop  offset="0.1259" style="stop-color:#FAAF40"/>
				<stop  offset="0.1924" style="stop-color:#FAAF40"/>
				<stop  offset="0.4415" style="stop-color:#F9EC31"/>
				<stop  offset="0.4735" style="stop-color:#F9EC31"/>
				<stop  offset="0.5321" style="stop-color:#F9EC31"/>
				<stop  offset="0.7123" style="stop-color:#FAAF40"/>
				<stop  offset="0.7777" style="stop-color:#FAAF40"/>
				<stop  offset="0.9613" style="stop-color:#FAAF40"/>
			</linearGradient>
			<path fill="url(#SVGID_3_)" d="M270.275,233.312c0.099,5.231,0.725,10.464,0.658,15.662c-0.099,7.47-1.447,15.005-6.055,20.763
				c-3.422,4.278-8.456,8.193-13.557,9.904c-5.495,1.811-11.878,0.955-17.899,1.054c-6.482,0.131-12.965-0.066-19.479,0.032
				c-18.328,0.329-36.656,0.823-55.017,1.086c-12.438,0.197-24.909-0.032-37.347,0.132c-8.226,0.099-16.453,0.526-24.416-2.105
				c-9.674-3.192-20.697-3.652-27.475-12.866c-2.995-4.047-7.141-8.062-8.062-12.636c-3.817-19.183-6.614-38.597-9.838-57.912
				c-0.724-4.508-1.744-11.121-2.566-15.629c0.625-0.066,1.217-0.1,1.843-0.132c6.252-0.396,12.537-0.56,18.821-0.855
				c9.674-0.526,19.315-0.987,28.989-1.612c9.542-0.626,19.052-1.711,28.627-2.106c8.983-0.329,18.032-0.099,27.047,0.033
				c14.643,0.23,29.318,0.329,43.961,0.889c15.695,0.592,31.358,1.579,47.054,2.6c7.798,0.493,15.563,1.48,23.165,2.237
				c0.428,7.041,1.053,13.622,1.217,20.203C270.21,212.483,270.111,222.882,270.275,233.312z M203.512,206.726
				c-1.776-4.442-3.126-9.049-5.396-13.228c-2.304-4.278-7.042-5.792-11.912-4.706c-4.672,1.021-5.363,5.067-6.186,8.688
				c-0.954,4.311-1.612,8.752-1.811,13.161c-0.131,3.159,0.198,6.516,1.284,9.444c1.908,5.265,10.693,7.864,14.609,3.948
				C198.643,219.525,202.985,214.326,203.512,206.726z M192.127,251.673c0.593-0.592,0.362-1.941,0.625-3.619
				c-3.586,3.258-6.152,6.055-9.18,8.292c-4.64,3.422-9.246,7.732-15.433,7.074c-10.069-1.086-20.236-2.435-28.364-9.51
				c-2.073-1.81-4.113-3.685-6.153-5.527c-0.296,0.032-0.559,0.065-0.823,0.099c0.56,1.776,0.592,4.113,1.777,5.199
				c5.528,5.067,11.385,9.772,19.184,10.924c5.527,0.79,11.22,2.764,16.551,2.04C179.722,265.395,185.875,258.155,192.127,251.673z
				 M148.265,223.211c5.528-7.864,6.614-15.86,3.389-25.041c-1.974-5.692-5.923-8.621-10.957-10.167
				c-2.369-0.725-6.055-0.658-7.239,2.961c-1.941,6.021-4.245,12.011-5.429,18.163c-1.678,8.457,5.528,16.749,14.347,17.045
				C144.745,226.468,146.521,225.679,148.265,223.211z"/>
			<linearGradient id="SVGID_4_" gradientUnits="userSpaceOnUse" x1="182.0137" y1="203.8955" x2="192.4238" y2="203.8955">
				<stop  offset="0" style="stop-color:#26A9E0"/>
				<stop  offset="0" style="stop-color:#26A9E0"/>
				<stop  offset="0" style="stop-color:#26A9E0"/>
				<stop  offset="0" style="stop-color:#26A9E0"/>
				<stop  offset="0" style="stop-color:#26A9E0"/>
				<stop  offset="0.3197" style="stop-color:#FFFFFF"/>
				<stop  offset="0.5218" style="stop-color:#FFFFFF"/>
				<stop  offset="0.6672" style="stop-color:#FFFFFF"/>
				<stop  offset="1" style="stop-color:#26A9E0"/>
				<stop  offset="1" style="stop-color:#26A9E0"/>
			</linearGradient>
			<path fill="url(#SVGID_4_)" d="M188.64,205.837c-1.712,3.027-3.851,5.824-6.351,9.51c-0.955-7.437,0.724-13.656,2.697-19.776
				c0.429-1.315,2.6-2.105,3.949-3.126c0.855,2.04,4.87,2.402,2.994,5.956C190.68,200.803,189.988,203.501,188.64,205.837z"/>
			<path d="M186.204,188.792c4.87-1.086,9.608,0.428,11.912,4.706c2.27,4.179,3.619,8.785,5.396,13.228
				c-0.526,7.601-4.869,12.8-9.41,17.308c-3.916,3.916-12.701,1.316-14.609-3.948c-1.086-2.929-1.415-6.285-1.284-9.444
				c0.198-4.409,0.856-8.851,1.811-13.161C180.841,193.859,181.532,189.812,186.204,188.792z M191.93,198.4
				c1.876-3.554-2.139-3.916-2.994-5.956c-1.35,1.021-3.521,1.811-3.949,3.126c-1.974,6.12-3.652,12.34-2.697,19.776
				c2.5-3.686,4.639-6.482,6.351-9.51C189.988,203.501,190.68,200.803,191.93,198.4z"/>
			<path d="M192.127,251.673c-6.252,6.482-12.405,13.722-21.815,14.972c-5.331,0.724-11.023-1.25-16.551-2.04
				c-7.799-1.151-13.656-5.856-19.184-10.924c-1.185-1.086-1.217-3.423-1.777-5.199c0.264-0.033,0.527-0.066,0.823-0.099
				c2.04,1.843,4.08,3.718,6.153,5.527c8.127,7.075,18.294,8.424,28.364,9.51c6.187,0.658,10.793-3.652,15.433-7.074
				c3.027-2.237,5.594-5.034,9.18-8.292C192.489,249.731,192.72,251.081,192.127,251.673z"/>
			<linearGradient id="SVGID_5_" gradientUnits="userSpaceOnUse" x1="132.2593" y1="203.9365" x2="142.8726" y2="203.9365">
				<stop  offset="0" style="stop-color:#26A9E0"/>
				<stop  offset="0" style="stop-color:#26A9E0"/>
				<stop  offset="0" style="stop-color:#26A9E0"/>
				<stop  offset="0" style="stop-color:#26A9E0"/>
				<stop  offset="0" style="stop-color:#26A9E0"/>
				<stop  offset="0.3197" style="stop-color:#FFFFFF"/>
				<stop  offset="0.5218" style="stop-color:#FFFFFF"/>
				<stop  offset="0.6672" style="stop-color:#FFFFFF"/>
				<stop  offset="1" style="stop-color:#26A9E0"/>
				<stop  offset="1" style="stop-color:#26A9E0"/>
			</linearGradient>
			<path fill="url(#SVGID_5_)" d="M142.803,194.32c-0.033,1.086,0.263,2.304-0.165,3.191c-2.698,5.43-5.594,10.76-8.457,16.288
				c-3.751-7.239-1.909-15.465,4.606-19.446C139.776,193.761,141.454,194.287,142.803,194.32z"/>
			<path d="M128.029,209.127c1.185-6.152,3.488-12.142,5.429-18.163c1.185-3.619,4.87-3.686,7.239-2.961
				c5.034,1.546,8.983,4.475,10.957,10.167c3.225,9.181,2.139,17.177-3.389,25.041c-1.744,2.468-3.521,3.257-5.89,2.961
				C133.557,225.876,126.351,217.584,128.029,209.127z M138.789,194.354c-6.515,3.981-8.358,12.207-4.606,19.446
				c2.863-5.528,5.758-10.858,8.457-16.288c0.428-0.888,0.131-2.105,0.165-3.191C141.454,194.287,139.776,193.761,138.789,194.354z"
				/>
			<linearGradient id="SVGID_6_" gradientUnits="userSpaceOnUse" x1="118.0215" y1="95.7617" x2="199.2061" y2="95.7617">
				<stop  offset="0" style="stop-color:#3B2314"/>
				<stop  offset="0" style="stop-color:#EE4036"/>
				<stop  offset="0.6014" style="stop-color:#EE3F3A"/>
				<stop  offset="1" style="stop-color:#EB008B"/>
			</linearGradient>
			<path fill="url(#SVGID_6_)" d="M150.437,172.734c-9.411,0.198-18.822,0.461-28.199,0.823v-0.033
				c-0.362-2.271-1.086-6.778-1.349-9.082c-0.921-7.37-2.106-14.741-2.567-22.145c-0.428-6.943,0.198-13.952-0.131-20.895
				c-0.921-19.677,2.007-38.827,6.811-57.813c2.698-10.562,6.844-20.368,12.701-29.417c2.896-4.442,6.219-9.378,10.628-11.879
				c9.608-5.528,20.236-5.429,30.667-1.579c9.214,3.422,13.919,11.22,17.374,19.578c2.369,5.824,4.441,12.142,1.053,18.591
				c-0.822,1.612-0.79,3.652-1.25,5.923c0,0-0.922,0.23-1.843,0.428c-0.329,0.329-0.658,0.625-0.987,0.921
				c4.376,0.559,3.126,2.896,2.83,4.968c-1.152,8.786-2.205,17.604-3.488,26.39c-1.316,8.752-2.896,17.472-4.212,26.225
				c-0.79,5.1-1.283,10.233-1.941,15.366c-0.69,5.528-1.579,11.023-2.172,16.551c-0.592,5.561-0.921,11.154-1.415,17.045
				C171.891,172.702,161.164,172.505,150.437,172.734z"/>
			<linearGradient id="SVGID_7_" gradientUnits="userSpaceOnUse" x1="29.0518" y1="110.769" x2="122.2378" y2="110.769">
				<stop  offset="0.4233" style="stop-color:#006838"/>
				<stop  offset="1" style="stop-color:#8BC53F"/>
			</linearGradient>
			<path fill="url(#SVGID_7_)" d="M122.238,173.524v0.033c-6.055,0.164-12.076,0.395-18.098,0.658
				c-4.508,0.197-8.983,1.48-13.524,1.743c-17.242,1.021-34.517,1.843-51.759,2.698c-3.125,0.132-6.285,0-9.805,0
				c1.151-0.888,2.007-1.447,2.764-2.139c8.852-8.062,17.9-15.991,26.488-24.316c6.614-6.449,14.018-12.076,18.887-20.368
				c4.311-7.305,5.298-14.774,2.468-22.211c-3.39-8.851-22.211-14.017-31.523-9.872c0.494-2.862,0.56-5.791,0.494-8.851
				c-0.132-6.285-0.428-12.339-4.146-17.604c-1.612-2.336-1.02-3.718,1.185-5.001c0.79-0.461,1.612-1.053,2.073-1.777
				c4.311-6.812,10.661-11.517,16.551-16.781c6.877-6.121,21.553-9.082,28.759-5.101c10.233,5.594,20.203,11.616,26.982,21.52
				c0.724,1.053,1.119,2.764,0.888,4.047c-1.217,7.107-3.521,14.116-3.883,21.224c-0.823,17.045-0.921,34.155-1.02,51.232
				c0,4.376,1.218,8.72,1.646,13.096c0.395,4.113,0.296,8.259,0.79,12.372c0.165,1.35,1.48,2.534,2.271,3.817
				C121.119,171.715,121.81,173.722,122.238,173.524z"/>
			<linearGradient id="SVGID_8_" gradientUnits="userSpaceOnUse" x1="7.1489" y1="92.7725" x2="46.7544" y2="92.7725">
				<stop  offset="0" style="stop-color:#652D90"/>
				<stop  offset="1" style="stop-color:#A87C4F"/>
			</linearGradient>
			<path fill="url(#SVGID_8_)" d="M46.754,88.532c-1.415,6.417-2.435,12.997-4.311,19.282c-3.389,11.22-19.216,11.681-25.929,6.383
				c-6.614-5.232-7.798-12.635-9.147-19.743c-0.79-4.212,0.691-9.279,2.369-13.458c0.987-2.468,4.442-3.883,6.581-5.956
				c2.731-2.731,4.607-6.614,9.082-6.91c2.205-0.165,4.41,0.066,6.614,0.197c1.283,0.066,2.534,0.329,3.784,0.526
				c0.757,0.099,1.843,0,2.172,0.461c4.014,5.726,11.023,10.299,7.009,19.315C45.57,88.598,46.162,88.564,46.754,88.532z"/>
			<linearGradient id="SVGID_9_" gradientUnits="userSpaceOnUse" x1="4.0078" y1="150.1465" x2="295.25" y2="150.1465">
				<stop  offset="0" style="stop-color:#231F20"/>
				<stop  offset="0" style="stop-color:#231F20"/>
				<stop  offset="0" style="stop-color:#FAAF40"/>
				<stop  offset="0" style="stop-color:#FAAF40"/>
				<stop  offset="0" style="stop-color:#FAAF40"/>
				<stop  offset="0" style="stop-color:#1B75BB"/>
				<stop  offset="0" style="stop-color:#FAAF40"/>
				<stop  offset="0" style="stop-color:#231F20"/>
				<stop  offset="0.4124" style="stop-color:#231F20"/>
				<stop  offset="0.6001" style="stop-color:#231F20"/>
				<stop  offset="1" style="stop-color:#231F20"/>
			</linearGradient>
			<path fill="url(#SVGID_9_)" d="M7.367,94.455c1.349,7.107,2.534,14.511,9.147,19.743c6.713,5.298,22.54,4.837,25.929-6.383
				c1.875-6.285,2.896-12.866,4.311-19.282c-0.592,0.033-1.185,0.066-1.777,0.099c4.014-9.016-2.995-13.589-7.009-19.315
				c-0.329-0.461-1.415-0.362-2.172-0.461c-1.25-0.197-2.5-0.46-3.784-0.526c-2.205-0.131-4.409-0.362-6.614-0.197
				c-4.475,0.296-6.351,4.179-9.082,6.91c-2.139,2.073-5.594,3.488-6.581,5.956C8.059,85.175,6.578,90.243,7.367,94.455z
				 M278.535,78.726c-1.415-5.758-7.107-6.844-11.057-9.641c-0.987-0.724-3.093-0.921-4.08-0.329
				c-2.73,1.646-5.594,3.455-7.601,5.857c-5.166,6.252-6.12,13.952-6.187,21.75c-0.032,2.534-0.263,5.857,1.152,7.437
				c6.844,7.733,19.809,6.153,24.975-1.448c5.198-7.732,5.363-16.156,3.586-24.876c-0.065-0.197-0.23-0.362-0.428-0.658
				C278.765,77.542,278.634,78.134,278.535,78.726z M262.773,177.967c8.259,0.757,16.551,1.118,24.843,1.678
				c0.066-0.428,0.132-0.855,0.197-1.283c-1.546-1.218-2.994-2.533-4.606-3.619c-9.246-6.153-18.591-12.109-27.705-18.394
				c-8.424-5.825-16.091-12.438-20.632-22.014c-3.225-6.844-4.08-13.688-0.625-20.664c1.25-2.534,3.751-4.64,4.311-7.239
				c0.987-4.541,4.015-5.363,7.864-5.758c0.329-8.522-0.428-16.814,4.146-24.25c0.527-0.889,0.23-2.961-0.46-3.784
				c-7.075-8.292-14.281-16.452-21.553-24.547c-3.027-3.356-7.074-4.442-11.451-3.883c-9.739,1.316-14.741,7.7-15.959,17.571
				c-1.743,14.017-3.521,28.002-5.626,41.954c-2.271,14.873-5.166,29.614-7.338,44.487c-1.119,7.799-1.283,15.762-1.908,24.35
				c9.278,0.428,17.637,0.757,25.994,1.185c8.489,0.428,17.012,0.757,25.501,1.48C246.124,175.927,254.416,177.21,262.773,177.967z
				 M269.946,202.053c-0.164-6.581-0.789-13.162-1.217-20.203c-7.602-0.757-15.367-1.744-23.165-2.237
				c-15.695-1.021-31.358-2.008-47.054-2.6c-14.643-0.56-29.318-0.658-43.961-0.889c-9.016-0.132-18.064-0.362-27.047-0.033
				c-9.575,0.396-19.085,1.48-28.627,2.106c-9.674,0.625-19.315,1.086-28.989,1.612c-6.285,0.296-12.569,0.46-18.821,0.855
				c-0.625,0.032-1.218,0.065-1.843,0.132c-6.055,0.361-12.142,0.756-18.164,1.546c-2.83,0.362-5.495,2.008-8.325,2.731
				c-1.217,0.296-2.632-0.264-3.949-0.428c0.527-1.316,0.691-3.225,1.678-3.883c3.784-2.534,7.864-4.64,11.747-7.009
				c0.888-0.526,1.744-1.35,2.205-2.237c2.994-5.956,8.917-8.95,13.326-13.458c1.843-1.876,4.376-3.061,6.417-4.771
				c0.823-0.658,1.185-1.843,2.007-3.225c1.283-0.197,1.217-0.56,2.534-2.863c0.855-1.48,2.665-2.468,4.113-3.586
				c6.647-5.101,12.307-11.089,14.511-19.414c2.6-9.674-0.362-16.715-8.95-20.664c-4.146-1.875-8.226-3.225-12.866-2.336
				c-1.119,0.23-6.285-0.658-7.371-1.448c9.312-4.146,28.133,1.021,31.523,9.872c2.83,7.437,1.842,14.906-2.468,22.211
				c-4.87,8.292-12.273,13.918-18.887,20.368c-8.588,8.325-17.637,16.255-26.488,24.316c-0.757,0.691-1.612,1.251-2.764,2.139
				c3.521,0,6.68,0.132,9.805,0c17.242-0.855,34.517-1.678,51.759-2.698c4.541-0.263,9.016-1.546,13.524-1.743
				c6.021-0.264,12.043-0.494,18.098-0.658c9.377-0.362,18.789-0.625,28.199-0.823c10.727-0.229,21.454-0.032,32.509-0.032
				c0.494-5.891,0.823-11.484,1.415-17.045c0.593-5.528,1.481-11.023,2.172-16.551c0.658-5.133,1.151-10.266,1.941-15.366
				c1.316-8.753,2.896-17.473,4.212-26.225c1.283-8.786,2.336-17.604,3.488-26.39c0.296-2.073,1.546-4.409-2.83-4.968
				c0.329-0.296,0.658-0.592,0.987-0.921c0.921-0.198,1.843-0.428,1.843-0.428c0.46-2.271,0.428-4.311,1.25-5.923
				c3.389-6.45,1.316-12.767-1.053-18.591c-3.455-8.358-8.16-16.156-17.374-19.578c-10.431-3.85-21.059-3.949-30.667,1.579
				c-4.409,2.501-7.732,7.437-10.628,11.879c-5.857,9.049-10.003,18.854-12.701,29.417c-4.804,18.986-7.732,38.137-6.811,57.813
				c0.329,6.943-0.296,13.952,0.131,20.895c0.461,7.404,1.646,14.774,2.567,22.145c0.263,2.304,0.987,6.812,1.349,9.082
				c-0.428,0.197-1.119-1.81-1.514-1.579c-0.79-1.283-2.106-2.468-2.271-3.817c-0.494-4.113-0.395-8.259-0.79-12.372
				c-0.428-4.376-1.646-8.72-1.646-13.096c0.099-17.077,0.197-34.188,1.02-51.232c0.362-7.107,2.666-14.116,3.883-21.224
				c0.23-1.283-0.165-2.994-0.888-4.047c-6.779-9.904-16.749-15.926-26.982-21.52c-7.206-3.981-21.882-1.02-28.759,5.101
				c-5.89,5.265-12.241,9.97-16.551,16.781c-0.46,0.724-1.283,1.316-2.073,1.777c-2.205,1.283-2.797,2.665-1.185,5.001
				c3.718,5.265,4.014,11.319,4.146,17.604c0.066,3.06,0,5.989-0.494,8.851c-0.362,1.975-0.921,3.883-1.777,5.759
				c-1.48,3.257-2.83,6.811-5.133,9.411c-4.968,5.66-15.432,7.897-22.21,4.64c-5.528-2.666-9.542-7.371-11.813-13.063
				c-1.415-3.586-1.842-7.535-2.731-11.352c-1.678-7.469,1.415-13.162,5.792-19.052c4.179-5.594,9.18-9.049,15.663-10.661
				c4.738-1.217,9.542-2.632,14.379,0.395c0.987,0.592,4.179-0.329,4.771-1.415c4.541-8.226,12.603-12.8,19.184-18.821
				c8.522-7.799,25.567-7.93,35.438-1.119c3.981,2.764,8.292,5.035,12.241,7.897c3.883,2.83,7.469,6.087,10.957,8.983
				c0.823-2.698,1.909-6.943,3.422-11.056c4.014-11.089,9.411-21.783,18.394-29.252c4.706-3.949,12.208-5.462,18.657-6.153
				c5.594-0.56,11.55,1.217,17.177,2.698c2.829,0.757,5.561,2.797,7.798,4.87c7.535,6.91,12.537,15.333,13.491,26.357
				c1.777-1.349,3.061-2.304,4.311-3.324c9.608-8.094,20.335-4.903,26.291,1.678c6.317,6.976,12.405,14.116,18.558,21.191
				c0.691,0.79,1.152,1.711,1.712,2.566c0.131-0.461,0.296-0.954,0.428-1.415c1.217-0.494,2.468-0.921,3.652-1.514
				c1.086-0.526,2.007-1.744,3.06-1.842c3.061-0.296,6.713-1.25,9.082,0.033c14.774,7.831,18.36,26.093,8.16,39.65
				c-5.824,7.766-19.644,9.016-26.784,2.402c-0.954-0.855-1.975-1.678-2.863-2.632c-0.724-0.79-1.283-1.777-2.007-2.863
				c-2.271,3.159-4.573,6.087-6.581,9.213c-6.153,9.575-4.08,18.854,2.6,26.784c8.522,10.135,19.249,17.802,30.7,24.58
				c7.897,4.705,14.84,10.99,22.145,16.683c0.625,0.493,0.658,1.776,0.954,2.698c-1.151,0.296-2.336,0.889-3.487,0.822
				c-6.516-0.395-13.03-0.987-20.401-1.546c0.329,5.133,0.757,9.772,0.922,14.412c0.395,12.175,0.625,24.349,0.987,36.523
				c0.164,5.232,0.789,10.464,0.724,15.696c-0.066,11.056-3.62,20.4-11.846,28.495c-5.594,5.528-11.812,6.416-18.591,6.646
				c-8.918,0.329-17.835,0-26.752,0.099c-16.123,0.165-32.247,0.428-48.37,0.691c-18.459,0.296-36.886,0.658-55.345,0.954
				c-13.985,0.23-26.785-4.508-39.321-9.839c-2.336-0.986-4.014-3.586-5.923-5.495c-6.647-6.515-10.595-14.313-11.78-23.658
				c-1.185-9.312-2.863-18.591-4.278-27.87c-1.546-9.904-3.093-19.842-4.442-29.778c-0.23-1.909,0.395-3.949,0.658-5.923
				c0.428,0,0.79-2.139,1.217-2.139c0.823,4.508,1.843,11.121,2.566,15.629c3.225,19.315,6.021,38.729,9.838,57.912
				c0.921,4.574,5.067,8.589,8.062,12.636c6.778,9.214,17.801,9.674,27.475,12.866c7.963,2.632,16.189,2.204,24.416,2.105
				c12.438-0.164,24.909,0.065,37.347-0.132c18.36-0.263,36.688-0.757,55.017-1.086c6.515-0.099,12.997,0.099,19.479-0.032
				c6.021-0.099,12.404,0.757,17.899-1.054c5.101-1.711,10.135-5.626,13.557-9.904c4.607-5.758,5.956-13.293,6.055-20.763
				c0.066-5.198-0.56-10.431-0.658-15.662C270.111,222.882,270.21,212.483,269.946,202.053z"/>
		</g>
		<g>
		</g>
	</g>
</g>
<g>
</g>
<g>
</g>
<g>
</g>
<g>
</g>
<g>
</g>
<g>
</g>
<g>
</g>
<g>
</g>
<g>
</g>
<g>
</g>
<g>
</g>
<g>
</g>
<g>
</g>
<g>
</g>
<g>
</g>
</svg>
