<?xml version="1.0" encoding="utf-8"?>
<!-- Generator: Adobe Illustrator 16.0.0, SVG Export Plug-In . SVG Version: 6.00 Build 0)  -->
<!DOCTYPE svg PUBLIC "-//W3C//DTD SVG 1.1 Basic//EN" "http://www.w3.org/Graphics/SVG/1.1/DTD/svg11-basic.dtd">
<svg version="1.1" baseProfile="basic" id="Layer_1"
	 xmlns="http://www.w3.org/2000/svg" xmlns:xlink="http://www.w3.org/1999/xlink" x="0px" y="0px" width="300px" height="300px"
	 viewBox="0 0 300 300" xml:space="preserve">
<g>
	<g id="XMLID_5_">
		<g>
			<linearGradient id="SVGID_1_" gradientUnits="userSpaceOnUse" x1="22.5117" y1="29.124" x2="25.522" y2="29.124">
				<stop  offset="0" style="stop-color:#231F20"/>
				<stop  offset="0" style="stop-color:#231F20"/>
				<stop  offset="0" style="stop-color:#FAAF40"/>
				<stop  offset="0" style="stop-color:#FAAF40"/>
				<stop  offset="0" style="stop-color:#FAAF40"/>
				<stop  offset="0" style="stop-color:#1B75BB"/>
				<stop  offset="0" style="stop-color:#FAAF40"/>
				<stop  offset="0" style="stop-color:#231F20"/>
				<stop  offset="0.4124" style="stop-color:#231F20"/>
				<stop  offset="0.6001" style="stop-color:#231F20"/>
				<stop  offset="1" style="stop-color:#231F20"/>
			</linearGradient>
			<path fill="url(#SVGID_1_)" d="M25.482,27.56c-0.474,0.829-1.263,2.446-1.263,2.131c-0.986,0.71-2.091,3.511-1.578-0.276
				c0-0.04,0.04-0.079,0.04-0.079c0.513-1.736,1.223-3.275,2.841-1.934C25.522,27.442,25.482,27.521,25.482,27.56z"/>
			<linearGradient id="SVGID_2_" gradientUnits="userSpaceOnUse" x1="12.5205" y1="152.4785" x2="286.4355" y2="152.4785">
				<stop  offset="0" style="stop-color:#FAAF40"/>
				<stop  offset="0.1259" style="stop-color:#FAAF40"/>
				<stop  offset="0.1924" style="stop-color:#FAAF40"/>
				<stop  offset="0.4415" style="stop-color:#F9EC31"/>
				<stop  offset="0.4735" style="stop-color:#F9EC31"/>
				<stop  offset="0.5321" style="stop-color:#F9EC31"/>
				<stop  offset="0.7123" style="stop-color:#FAAF40"/>
				<stop  offset="0.7777" style="stop-color:#FAAF40"/>
				<stop  offset="0.9613" style="stop-color:#FAAF40"/>
			</linearGradient>
			<path fill="url(#SVGID_2_)" d="M203.856,287.053c-8.641,1.499-17.597,1.617-26.396,1.894c-11.086,0.355-22.173,0.118-33.26,0.474
				c-9.43,0.276-18.938,2.17-28.21,1.302c-19.767-1.894-39.534-4.655-59.103-8.009c-13.138-2.249-24.777-9.035-28.092-22.528
				c-3.354-13.73-3.708-28.21-5.129-42.375c-0.868-8.364-0.868-16.847-1.854-25.211c-1.973-16.847-4.734-33.615-6.47-50.462
				c-1.263-12.034-1.42-24.186-1.934-36.298c-0.395-9.232-1.262-18.464-0.71-27.618c0.513-8.877,1.933-17.833,4.103-26.474
				c1.854-7.299,5.287-14.165,8.009-21.266c0.355-0.947,0.474-1.934,0.671-2.92c0.197-0.315,0.315-0.552,0.395-0.513
				c0.75-0.276,1.775-0.395,2.249-0.947c2.13-2.683,6.155-3.749,7.97-1.302s3.59,1.657,4.853,0.552
				c4.103-3.551,8.996-2.683,13.73-2.999c1.973-0.118,3.906-0.315,5.879-0.473c7.496-0.71,14.953-1.578,22.45-2.052
				c12.191-0.829,24.422-1.184,36.614-2.13c11.994-0.908,23.988-2.92,36.021-3.314c17.005-0.631,34.089-0.276,51.134-0.237
				c4.458,0,8.916,0.197,13.335,0.553c1.775,0.158,3.473,1.341,5.248,1.459c3.195,0.237,6.392,0.079,9.627,0
				c0.867,0,1.933-0.592,2.644-0.276c6.47,2.762,12.625,6.589,20.2,4.577c0.474-0.119,1.184,0.395,1.657,0.789
				c2.683,2.13,5.997,3.906,7.931,6.628c3.195,4.616,4.853,10.376,8.403,14.638c3.235,3.906,4.301,8.009,4.734,12.546
				c0.789,7.772,1.421,15.584,1.895,23.357c0.354,5.366,0.395,10.732,0.592,16.058c0.236,6.865,0.434,13.77,0.789,20.595
				c0.275,4.301,1.064,8.562,1.223,12.823c0.315,8.364,0.355,16.689,0.592,25.053c0.236,9.193,0.75,18.347,0.789,27.54
				c0.04,4.892-0.789,9.784-0.986,14.677c-0.75,15.86-0.986,31.761-2.249,47.582c-0.434,5.287-2.644,10.811-5.365,15.467
				c-6.55,11.205-18.11,16.097-29.67,19.45C233.684,281.845,218.73,284.527,203.856,287.053z M192.572,177.605
				c-0.631-0.354-1.263-0.749-1.894-1.104c-0.789,0.947-1.973,1.736-2.249,2.802c-0.355,1.302,0.474,2.998,0.039,4.222
				c-3.354,9.43-10.691,15.939-17.399,22.844c-7.417,7.575-15.742,13.139-27.026,12.35c-6.628-0.474-12.152-2.21-14.401-9.667
				c-1.46-4.932-4.064-9.548-6.194-14.282c-0.434,0.039-0.868,0.079-1.302,0.079c-0.237,1.025-0.947,2.288-0.631,3.038
				c2.249,5.129,4.498,10.337,7.22,15.189c1.578,2.841,3.63,6.234,6.352,7.457c8.917,3.985,18.347,3.274,26.475-1.696
				c10.811-6.589,19.529-15.821,25.842-26.908C189.89,187.588,190.876,182.419,192.572,177.605z M188.351,125.92
				c2.052-3.472,4.024-7.694,3.906-11.56c-0.276-10.219-2.92-20.043-9.271-28.329c-1.185-1.499-4.064-2.88-5.722-2.525
				c-2.644,0.552-5.681,0.592-7.299,4.379c-4.301,10.179-2.92,20.122-0.197,30.104c1.815,6.707,6.51,10.929,11.836,11.915
				C183.932,128.604,187.167,127.893,188.351,125.92z M139.625,128.682c6.115-13.454,3.906-26.987,0.158-40.441
				c-0.986-3.59-4.222-5.089-7.575-4.774c-4.064,0.355-8.049,1.539-11.797,2.289c-0.197,2.17-0.119,4.853-0.474,4.892
				c-3.985,0.592-3.354,4.104-3.788,6.392c-1.815,10.732-0.04,21.266,3.078,31.524c1.381,4.577,5.287,7.536,10.021,7.417
				C133.864,135.824,137.612,133.141,139.625,128.682z"/>
			<linearGradient id="SVGID_3_" gradientUnits="userSpaceOnUse" x1="9.3818" y1="152.9922" x2="290.085" y2="152.9922">
				<stop  offset="0" style="stop-color:#231F20"/>
				<stop  offset="0" style="stop-color:#231F20"/>
				<stop  offset="0" style="stop-color:#FAAF40"/>
				<stop  offset="0" style="stop-color:#FAAF40"/>
				<stop  offset="0" style="stop-color:#FAAF40"/>
				<stop  offset="0" style="stop-color:#1B75BB"/>
				<stop  offset="0" style="stop-color:#FAAF40"/>
				<stop  offset="0" style="stop-color:#231F20"/>
				<stop  offset="0.4124" style="stop-color:#231F20"/>
				<stop  offset="0.6001" style="stop-color:#231F20"/>
				<stop  offset="1" style="stop-color:#231F20"/>
			</linearGradient>
			<path fill="url(#SVGID_3_)" d="M182.235,10.95c18.386,0,36.811-0.236,55.118,0.947c10.731,0.71,22.134,2.328,29.748,11.363
				c4.459,5.326,8.128,11.442,11.324,17.636c5.089,9.745,5.839,20.438,5.523,31.327c-0.118,3.433,1.46,6.905,1.696,10.376
				c0.315,5.642,0,11.324,0.276,16.966c0.513,9.43,1.342,18.859,1.894,28.289c0.868,14.243,2.013,28.486,2.249,42.729
				c0.197,9.745-1.065,19.53-1.381,29.275c-0.276,8.127,0.395,16.334-0.276,24.422c-0.789,9.391-1.381,19.057-4.182,27.935
				c-3.788,11.954-12.823,19.845-24.305,25.329c-11.56,5.484-24.304,6.155-36.18,10.101c-13.729,4.577-28.052,4.695-42.216,5.8
				c-12.152,0.907-24.541-0.631-36.654,0.553c-18.267,1.775-36.417,1.302-54.408-1.342c-14.914-2.17-29.906-5.208-44.268-9.666
				c-12.704-3.906-20.319-13.81-21.7-27.421c-1.263-12.152-2.17-24.305-3.078-36.456c-0.355-4.695,0.04-9.47-0.631-14.125
				c-1.381-10.14-3.472-20.161-4.853-30.301c-1.223-8.838-1.815-17.755-2.762-26.593c-0.276-2.683-0.947-5.326-1.104-8.009
				c-1.026-18.425-2.999-36.929-2.644-55.354c0.355-18.188,3.472-36.298,12.389-52.751c0.316-0.592,0.553-1.618,0.829-2.564
				c-0.513,3.788,0.592,0.986,1.578,0.276c0,0.315,0.789-1.302,1.263-2.131c-0.197,0.986-0.315,1.973-0.671,2.92
				c-2.722,7.102-6.155,13.967-8.009,21.266c-2.17,8.64-3.59,17.597-4.103,26.474c-0.552,9.154,0.315,18.386,0.71,27.618
				c0.513,12.113,0.671,24.265,1.934,36.298c1.736,16.847,4.498,33.616,6.47,50.462c0.986,8.364,0.986,16.847,1.854,25.211
				c1.42,14.165,1.775,28.645,5.129,42.375c3.314,13.493,14.954,20.279,28.092,22.528c19.569,3.354,39.336,6.115,59.103,8.009
				c9.271,0.868,18.78-1.025,28.21-1.302c11.087-0.355,22.174-0.118,33.26-0.474c8.799-0.276,17.755-0.395,26.396-1.894
				c14.874-2.525,29.827-5.208,44.308-9.391c11.56-3.354,23.12-8.245,29.67-19.45c2.722-4.656,4.932-10.18,5.365-15.467
				c1.263-15.821,1.499-31.722,2.249-47.582c0.197-4.893,1.026-9.785,0.986-14.677c-0.039-9.193-0.553-18.347-0.789-27.54
				c-0.236-8.364-0.276-16.689-0.592-25.053c-0.158-4.261-0.947-8.522-1.223-12.823c-0.355-6.826-0.553-13.73-0.789-20.595
				c-0.197-5.326-0.237-10.692-0.592-16.058c-0.474-7.772-1.105-15.584-1.895-23.357c-0.434-4.537-1.499-8.641-4.734-12.546
				c-3.551-4.261-5.208-10.021-8.403-14.638c-1.934-2.723-5.248-4.498-7.931-6.628c-0.474-0.395-1.184-0.908-1.657-0.789
				c-7.575,2.012-13.73-1.815-20.2-4.577c-0.711-0.316-1.776,0.276-2.644,0.276c-3.235,0.079-6.432,0.237-9.627,0
				c-1.775-0.118-3.473-1.302-5.248-1.459c-4.419-0.355-8.877-0.553-13.335-0.553c-17.045-0.039-34.129-0.395-51.134,0.237
				c-12.033,0.395-24.027,2.407-36.021,3.314c-12.191,0.947-24.422,1.302-36.614,2.13c-7.497,0.474-14.954,1.341-22.45,2.052
				c-1.973,0.158-3.906,0.355-5.879,0.473c-4.734,0.316-9.627-0.552-13.73,2.999c-1.263,1.105-3.038,1.894-4.853-0.552
				s-5.839-1.381-7.97,1.302c-0.474,0.552-1.5,0.67-2.249,0.947c-0.079-0.04-0.197,0.197-0.395,0.513c0-0.039,0.04-0.118,0.04-0.158
				c-1.618-1.341-2.328,0.197-2.841,1.934c0.04-0.276,0.079-0.631,0.158-1.026c3.078-6.51,8.009-7.852,14.204-8.246
				c12.349-0.75,24.62-2.328,36.969-3.078c10.495-0.631,21.108-0.118,31.604-0.947c12.389-0.947,24.659-3.275,37.087-4.104
				C155.84,11.029,169.058,10.95,182.235,10.95z"/>
			<path d="M190.679,176.501c0.631,0.355,1.263,0.75,1.894,1.104c-1.696,4.813-2.683,9.982-5.169,14.322
				c-6.312,11.087-15.031,20.319-25.842,26.908c-8.128,4.971-17.558,5.682-26.475,1.696c-2.722-1.223-4.774-4.616-6.352-7.457
				c-2.722-4.853-4.971-10.061-7.22-15.189c-0.315-0.75,0.395-2.013,0.631-3.038c0.434,0,0.868-0.04,1.302-0.079
				c2.13,4.734,4.734,9.351,6.194,14.282c2.249,7.457,7.772,9.193,14.401,9.667c11.284,0.789,19.609-4.774,27.026-12.35
				c6.708-6.904,14.046-13.414,17.399-22.844c0.435-1.224-0.395-2.92-0.039-4.222C188.706,178.237,189.89,177.448,190.679,176.501z"
				/>
			<path d="M192.257,114.36c0.118,3.866-1.854,8.088-3.906,11.56c-1.184,1.973-4.419,2.683-6.747,3.985
				c-5.326-0.986-10.021-5.208-11.836-11.915c-2.723-9.982-4.104-19.925,0.197-30.104c1.618-3.788,4.655-3.827,7.299-4.379
				c1.657-0.355,4.537,1.026,5.722,2.525C189.337,94.317,191.98,104.142,192.257,114.36z M179.315,109.428
				c0.829-3.038,2.485-6.155,2.288-9.114c-0.473-6.786-0.828-6.786-5.562-7.93c0.276,5.8,0.553,11.244,0.789,16.689
				C177.658,109.192,178.487,109.31,179.315,109.428z"/>
			<linearGradient id="SVGID_4_" gradientUnits="userSpaceOnUse" x1="176.041" y1="100.9062" x2="181.6201" y2="100.9062">
				<stop  offset="0" style="stop-color:#26A9E0"/>
				<stop  offset="0" style="stop-color:#26A9E0"/>
				<stop  offset="0" style="stop-color:#26A9E0"/>
				<stop  offset="0" style="stop-color:#26A9E0"/>
				<stop  offset="0" style="stop-color:#26A9E0"/>
				<stop  offset="0.3197" style="stop-color:#FFFFFF"/>
				<stop  offset="0.5218" style="stop-color:#FFFFFF"/>
				<stop  offset="0.6672" style="stop-color:#FFFFFF"/>
				<stop  offset="1" style="stop-color:#26A9E0"/>
				<stop  offset="1" style="stop-color:#26A9E0"/>
			</linearGradient>
			<path fill="url(#SVGID_4_)" d="M181.604,100.314c0.197,2.959-1.459,6.076-2.288,9.114c-0.828-0.118-1.657-0.236-2.485-0.355
				c-0.236-5.445-0.513-10.889-0.789-16.689C180.775,93.528,181.131,93.528,181.604,100.314z"/>
			<path d="M139.782,88.241c3.748,13.454,5.958,26.987-0.158,40.441c-2.012,4.458-5.761,7.142-10.376,7.299
				c-4.735,0.118-8.641-2.841-10.021-7.417c-3.117-10.258-4.893-20.792-3.078-31.524c0.434-2.288-0.197-5.8,3.788-6.392
				c0.355-0.04,0.276-2.722,0.474-4.892c3.748-0.75,7.733-1.934,11.797-2.289C135.561,83.152,138.796,84.651,139.782,88.241z
				 M128.577,113.65c6.628-2.525,7.062-12.901,0.829-18.307C125.934,98.973,125.736,103.273,128.577,113.65z"/>
			<linearGradient id="SVGID_5_" gradientUnits="userSpaceOnUse" x1="126.6084" y1="104.4966" x2="133.8262" y2="104.4966">
				<stop  offset="0" style="stop-color:#26A9E0"/>
				<stop  offset="0" style="stop-color:#26A9E0"/>
				<stop  offset="0" style="stop-color:#26A9E0"/>
				<stop  offset="0" style="stop-color:#26A9E0"/>
				<stop  offset="0" style="stop-color:#26A9E0"/>
				<stop  offset="0.3197" style="stop-color:#FFFFFF"/>
				<stop  offset="0.5218" style="stop-color:#FFFFFF"/>
				<stop  offset="0.6672" style="stop-color:#FFFFFF"/>
				<stop  offset="1" style="stop-color:#26A9E0"/>
				<stop  offset="1" style="stop-color:#26A9E0"/>
			</linearGradient>
			<path fill="url(#SVGID_5_)" d="M129.406,95.343c6.234,5.405,5.8,15.782-0.829,18.307
				C125.736,103.273,125.934,98.973,129.406,95.343z"/>
		</g>
		<g>
		</g>
	</g>
</g>
<g>
</g>
<g>
</g>
<g>
</g>
<g>
</g>
<g>
</g>
<g>
</g>
<g>
</g>
<g>
</g>
<g>
</g>
<g>
</g>
<g>
</g>
<g>
</g>
<g>
</g>
<g>
</g>
<g>
</g>
</svg>
