<?xml version="1.0" encoding="utf-8"?>
<!-- Generator: Adobe Illustrator 16.0.0, SVG Export Plug-In . SVG Version: 6.00 Build 0)  -->
<!DOCTYPE svg PUBLIC "-//W3C//DTD SVG 1.1 Basic//EN" "http://www.w3.org/Graphics/SVG/1.1/DTD/svg11-basic.dtd">
<svg version="1.1" baseProfile="basic" id="Layer_1"
	 xmlns="http://www.w3.org/2000/svg" xmlns:xlink="http://www.w3.org/1999/xlink" x="0px" y="0px" width="300px" height="300px"
	 viewBox="0 0 300 300" xml:space="preserve">
<path fill="#8C6239" stroke="#000000" stroke-miterlimit="10" d="M27.582,287.321c2.682,0,9.872,1.083,14.322,1.763
	c3.959,0.604,7.848,0.221,11.506-1.496c10.314-4.843,23.819-20.403,36.296-16.677c3.807,1.137,7.931,4.461,10.861,7.037
	c7.092,6.235,14.992,13.179,24.558,13.344c0.903-4.184-3.713-7.513-5.168-11.068c-1.174-2.868-2.392-5.905-3.694-8.895
	c6.384,4.518,10.365,10.979,17.709,14.354c4.806,2.208,9.754,5.19,15.007,6.059c6.229,1.029,12.996,1.871,19.355,1.548
	c0.61-3.509-3.895-6.11-6.639-6.973l1.004,1.004c-6.15-4.596-12.698-8.536-17.317-15.118c-3.479-4.959-6.492-10.518-9.039-16.002
	c-1.258-2.71-2.764-7.477-2.495-10.516c0.267-3.029,1.93-3.524,3.907-5.626c4.218-4.483,4.963-10.779,5.211-16.679
	c0.106-2.519,1.175-7.352-0.417-9.537c-1.081-1.484-3.522-1.606-4.815-3.257c-2.717-3.466-2.438-8.941-2.665-13.092
	c-0.391-7.18-1.078-14.341-1.382-21.525c-0.579-13.714,0.144-28.357,8.006-40.137c3.668-5.495,7.836-10.606,11.462-16.204
	c3.694-5.704,7.267-11.487,10.59-17.409c1.314-2.342,5.042-6.337,4.973-8.878L148.5,91c0,0.111,0,0.223,0,0.334
	c-1,7.641-5.713,13.838-10.217,19.666c-4.337,5.611-10.609,12.621-17.652,14.707c-8.041,2.382-12.275-1.047-15.412-7.691
	c-11.794-24.979,0.296-54.213,16.601-74.173L98.485,42.17c0.168,1.762-1.104,2.575-2,3.984c-2.053,3.229-3.711,6.519-5.331,9.964
	c-2.343,4.985-2.995,9.639-4.669,14.855c-1.334,4.157-2.807,6.982-6.837,4.395c-6.516-4.184-10.871-12.779-16.942-17.797
	c-3.687-3.047-9.518-10.095-14.388-10.719l-14.381,4.013c5.151,1.451,10.485,8.979,13.88,12.805
	c7.967,8.978,15.247,19.092,21.918,29.05c4.087,6.1,6.842,12.552,10.04,19.099c3.316,6.788,6.597,13.3,7.665,20.922
	c1.8,12.842,4.746,25.717,4.193,38.802c-0.379,8.971-3.19,17.964-4.6,26.896c-0.881,5.585-1.7,11.143-2.937,16.657
	c-2.399,10.691-5.498,20.713-12.378,29.526c-5.952,7.626-10.353,16.336-16.718,23.665c-3.487,4.014-8.548,6.395-12.161,10.437
	c-3.543,3.965-8.21,5.768-13.249,7.259"/>
<path stroke="#000000" stroke-miterlimit="10" d="M136.277,215.749c4.812,2.452,3.831,5.705,2.007,10.033
	c-0.956,2.27-2.877,10.914-5.352,11.396c-5.842,1.137-0.627-18.481,2.342-19.422"/>
<path fill="#009245" stroke="#000000" stroke-miterlimit="10" d="M25.241,34.812c-3.129,1.16-5.418-0.028-8.388,2.737
	c-3.504,3.262-9.377,15.473-2.694,17.721c-2.002,5.216-6.163,7.957-5.337,14.576c1.089,8.731,8.424,8.439,14.013,4.092
	c3.926,8.535,19.43,4.657,18.436-4.587c5.845,10.259,16.123-2.538,17.793-9.694c5.299,5.154,11.172-0.1,17.038-0.914
	c4.15,10.173,12.395,10.917,21.615,6.491c1.406,3.378,2.858,7.789,6.249,9.726c3.597,2.054,9.342,1.14,12.867-0.568
	c0.577,4.494-1.977,10.082,2.791,13.287c6.239,4.193,13.788-3.316,18.658-6.376c3.421,3.231,12.048-1.791,14.745-4.354
	c3.914-3.72,4.5-8.873,4.31-14.002c3.649,3.57,9.696,1.979,13.651-0.093c3.234-1.695,5.931-4.107,7.717-7.329
	c0.952-1.719,0.986-3.866,1.881-5.457c0.963-1.712,0.271,0.037,2.183-1.628c5.438-4.74,10.221-8.982,7.042-17.279
	c-2.711-7.079-8.678-7.541-14.765-9.392c-6.544-1.99-12.48-6.789-19.618-8.276c-2.257-0.471-4.52-0.757-6.76-0.1
	c-2.66,0.78-5.354,4.533-7.662,5.004c-3.425,0.7-8.548-3.106-12.038-4.325c-9.404-3.285-18.735-1.424-25.507,5.922
	c-3.731-2.709-6.92-4.623-11.646-4.929c-2.467-0.159-5.613-0.395-8.047,0.058c-1.693,0.314-4.166,2.801-5.363,2.881
	c-1.396,0.093-3.355-1.833-4.572-2.516c-3.265-1.83-6.971-3.062-10.697-3.465c-5.224-0.565-4.048,2.094-7.844,4.008
	c-3.362,1.695-9.402-1.404-13.275-0.322c-5.515,1.541-6.948,5.677-9.408,10.099c-0.889,1.599-0.107,0.788-1.256,2.066
	c-0.766,0.853-2.367,1.102-3.216,2.25c-1.321,1.787-1.693,4.378-0.579,6.3c-1.625,0.112-3.678-0.175-4.99,0.395"/>
<path fill="#39B54A" stroke="#000000" stroke-miterlimit="10" d="M192.916,55.272c-7.79-8.604-28.818-10.502-34.643,1.169
	c-6.478-1.166-11.101-1.059-17.517-0.458c-5.685,0.532-13.146-1.2-14.16,6.266c-1.019,7.504,3.798,13.288,9,17.72
	c-6.521,2.876-14.18,12.48-7.114,19.007c-4.954-0.468-2.648,5.522-2.305,7.841c0.38,2.577-1.375,6.705,0.087,9.149
	c2.458,4.108,12.486,2.491,16.053,0.882c2.225,4.156,1.894,8.527,6.653,11.206c2.401,1.351,5.269,1.734,8.019,1.456
	c2.646-0.268,6.012-2.494,8.741-1.727c3.519,0.989,5.054,5.661,9.319,6.292c5.788,0.855,11.414-2.682,15.439-6.389
	c6.981,8.41,21.8-0.112,24.791-8.229c2.946,0.519,5.475,1.661,8.617,0.432c4.072-1.593,9.487-6.732,11.451-10.734
	c1.533,2.064,1.833,4.773,3.32,6.853c2.138,2.991,8.548,5.524,11.428,2.509c2.1,6.928,12.706,1.607,14.616-3.035
	c1.314,2.873,6.472,0.607,8.048-1.232c2.579-3.01,2.411-9.392-0.269-12.281c10.893-7.235-6.063-32.461-17.442-25.038
	c0.617-9.741-16.233-18.842-24.188-13.111C224.892,54.77,200.724,40.932,192.916,55.272z"/>
<path fill="none" stroke="#000000" stroke-miterlimit="10" d="M95.475,144.512c1.977,4.202-0.234,11.158,0.068,15.768
	c0.25,3.822,1.076,7.496,1.705,11.247c0.774,4.615,0.119,10.009,0.234,14.122"/>
<path fill="none" stroke="#000000" stroke-miterlimit="10" d="M94.137,202.371c0.56,3.162-2.517,7.486-3.818,10.515
	c-1.695,3.947-2.507,8.169-3.799,12.227c-0.974,3.059-2.775,6.652-3.086,9.7"/>
<path fill="none" stroke="#000000" stroke-miterlimit="10" d="M102.499,168.258c2.369,8.16,1.129,19.742-1.053,27.928
	c-1.325,4.971-3.229,14.225-6.64,17.892"/>
<path fill="none" stroke="#000000" stroke-miterlimit="10" d="M82.766,104.378c3.098,6.144,3.156,14.08,6.103,20.384
	c1.647,3.523,3.395,7.017,4.265,10.719"/>
<path fill="none" stroke="#000000" stroke-miterlimit="10" d="M73.736,93.341c1.837,1.853,4.62,4.626,5.017,7.358"/>
<path fill="none" stroke="#000000" stroke-miterlimit="10" d="M83.769,95.348c0.386,1.105,2.799,3.861,3.638,5.573
	c1.062,2.169,1.029,4.273,1.632,6.476c0.922,3.372,2.882,6.627,3.426,10.025"/>
<path fill="none" stroke="#000000" stroke-miterlimit="10" d="M96.812,129.796c0.959,6.433,3.345,12.704,3.345,19.398"/>
<path fill="none" stroke="#000000" stroke-miterlimit="10" d="M79.421,244.512c-2.111,3.086-5.133,5.3-7.291,8.37
	c-1.471,2.092-2.422,4.783-4.072,6.696c-2.303,2.668-7.213,5.729-7.366,9.683"/>
<path fill="none" stroke="#000000" stroke-miterlimit="10" d="M93.468,259.228c-0.616,5.596,3.581,10.871,6.771,15.048
	c2.278,2.982,6.13,4.313,7.61,7.694"/>
<path fill="none" stroke="#000000" stroke-miterlimit="10" d="M98.485,262.572c0.621,3.989,3.361,6.213,5.686,9.029"/>
<path fill="none" stroke="#000000" stroke-miterlimit="10" d="M124.572,271.937c2.788,4.046,8.116,5.379,12.132,8.277
	c2.356,1.7,5.477,4.902,8.604,4.766"/>
<path fill="none" stroke="#000000" stroke-miterlimit="10" d="M131.595,270.934c2.787,1.493,5.267,3.714,8.027,5.351"/>
<path fill="none" stroke="#000000" stroke-miterlimit="10" d="M128.92,198.692c0,4.577,1.36,10.759,0.082,15.063
	c-1.367,4.605-5.535,6.17-5.768,11.692"/>
<path fill="none" stroke="#000000" stroke-miterlimit="10" d="M124.572,238.826c-0.93,2.188,3.426,6.487,4.455,8.661
	c0.716,1.514,1.499,3.198,1.992,4.792c1.153,3.73,2.092,7.077,3.587,10.627"/>
<g>
</g>
<g>
</g>
<g>
</g>
<g>
</g>
<g>
</g>
<g>
</g>
<g>
</g>
<g>
</g>
<g>
</g>
<g>
</g>
<g>
</g>
<g>
</g>
<g>
</g>
<g>
</g>
<g>
</g>
</svg>
