<?xml version="1.0" encoding="utf-8"?>
<!-- Generator: Adobe Illustrator 16.0.0, SVG Export Plug-In . SVG Version: 6.00 Build 0)  -->
<!DOCTYPE svg PUBLIC "-//W3C//DTD SVG 1.1//EN" "http://www.w3.org/Graphics/SVG/1.1/DTD/svg11.dtd">
<svg version="1.1" id="Layer_1" xmlns="http://www.w3.org/2000/svg" xmlns:xlink="http://www.w3.org/1999/xlink" x="0px" y="0px"
	 width="295.526px" height="309.803px" viewBox="0 0 295.526 309.803" enable-background="new 0 0 295.526 309.803"
	 xml:space="preserve">
<g>
	<polygon fill="#F4EB22" stroke="#3A3536" stroke-width="3" stroke-miterlimit="10" points="151.356,135.376 107.956,211.932 
		142.154,225.525 73.137,290.949 203.535,223.976 146.214,196.414 199.753,152.755 	"/>
	<polygon fill="#FDCE0D" points="174.642,145.505 130.21,205.757 171.847,226.403 79.934,285.686 143.74,224.969 109.947,211.321 
		152.067,137.024 	"/>
	<polygon fill="#F4EB22" stroke="#3A3536" stroke-width="3" stroke-miterlimit="10" points="198.045,154.35 165.231,212.232 
		191.088,222.509 138.905,271.976 237.497,221.338 194.157,200.5 234.637,167.49 	"/>
	<polygon fill="#FDCE0D" points="215.65,162.008 182.057,207.563 213.538,223.173 144.044,267.996 192.287,222.089 166.736,211.77 
		198.583,155.596 	"/>
	
		<path fill="#FFFFFF" stroke="#3A3536" stroke-width="3" stroke-linecap="round" stroke-linejoin="round" stroke-miterlimit="10" d="
		M54.669,133.19c0,0-7-29,29.167-30c0,0,15.666-41.333,56.833-33.667c0,0,66.5-65,118.167,7.667c0,0,20.667,16.5,13.167,37.333
		c0,0,12.499,19.5-1.834,36.833c0,0,29.834,53.5-49.833,26.833c0,0-61.167,12.333-82-12.167c0,0-1.333,24.667-51.5-1
		C86.836,165.024,39.169,181.357,54.669,133.19z"/>
	<g>
		<path fill="#3A3536" d="M227.003,97.857c-0.621,1.855-1.5,3.703-3.148,5.182c-0.831,0.713-1.918,1.292-3.145,1.479
			c-1.227,0.206-2.487-0.034-3.577-0.449c-2.195-0.872-3.855-2.337-5.301-3.86c-1.439-1.575-2.631-3.167-3.727-5.08
			c-0.015-0.027-0.029-0.055-0.04-0.083l-0.095-0.246c-1.465-3.798-3.264-7.395-5.554-10.506c-2.291-3.111-5.146-5.647-8.519-7.333
			c-3.371-1.692-7.259-2.496-11.303-2.584c-4.049-0.078-8.235,0.437-12.427,1.48c1.748-1.296,3.705-2.316,5.743-3.146
			c2.043-0.826,4.188-1.473,6.414-1.837c4.43-0.758,9.253-0.462,13.684,1.324c4.448,1.748,8.243,4.989,10.959,8.75
			c2.757,3.767,4.536,8.021,5.73,12.301l-0.134-0.328c0.684,1.507,1.596,3.168,2.58,4.592c0.99,1.439,2.124,2.775,3.405,3.618
			c1.264,0.839,2.693,1.111,4.248,0.342C224.349,100.75,225.734,99.333,227.003,97.857z"/>
	</g>
	<g>
		<path fill="#3A3536" d="M234.003,103.22c0.431,1.396,0.978,2.762,1.723,3.652c0.361,0.446,0.778,0.658,1.047,0.649
			c0.269-0.014,0.532-0.095,0.935-0.295c0.799-0.391,1.767-1.172,2.67-2.021c0.916-0.854,1.823-1.806,2.716-2.786l-0.282,0.326
			c0.735-1.038,1.41-1.922,2.206-2.81c0.771-0.887,1.603-1.727,2.499-2.524c1.804-1.572,3.823-3.069,6.524-3.867
			c1.333-0.389,2.943-0.543,4.508-0.065c1.575,0.466,2.81,1.58,3.523,2.721c0.731,1.155,1.102,2.354,1.307,3.526
			c0.187,1.181,0.237,2.337,0.124,3.494c-1.219-1.933-2.437-3.855-3.867-4.909c-0.708-0.52-1.376-0.721-1.967-0.696
			c-0.595,0.011-1.238,0.229-1.96,0.579c-1.435,0.735-2.956,1.996-4.388,3.36c-1.416,1.368-2.884,2.931-4.127,4.414l-0.218,0.26
			c-0.019,0.023-0.042,0.046-0.064,0.066c-1.116,0.99-2.293,1.941-3.628,2.78c-1.347,0.816-2.796,1.614-4.753,1.88
			c-0.96,0.108-2.193,0.014-3.185-0.662c-0.998-0.657-1.474-1.635-1.693-2.46c-0.219-0.85-0.226-1.649-0.149-2.415
			C233.57,104.655,233.74,103.918,234.003,103.22z"/>
	</g>
	<g>
		<path fill="#3A3536" d="M200.669,112.69c4.11-2.635,8.82-4.177,13.661-5.007c4.85-0.792,9.939-0.761,14.884,0.403
			c4.933,1.145,9.694,3.528,13.415,6.999c3.726,3.459,6.378,7.888,7.541,12.605c-3.254-3.604-6.573-6.741-10.292-9.098
			c-3.697-2.377-7.726-3.984-11.969-4.991c-4.245-1.005-8.691-1.423-13.235-1.49C210.119,112.046,205.492,112.295,200.669,112.69z"
			/>
	</g>
	<path fill="none" stroke="#3A3536" stroke-linecap="round" stroke-linejoin="round" stroke-miterlimit="10" d="M139.169,99.357
		c0,0,25.168-24.5,64.334,17.833"/>
	<g>
		<path fill="#3A3536" d="M135.669,83.024c1.338-3.714,3.369-7.147,5.632-10.419c2.302-3.25,4.987-6.263,8.012-8.95
			c6.027-5.368,13.618-9.351,21.808-10.769c8.185-1.475,16.65-0.329,24.17,2.525c7.549,2.868,14.307,7.256,20.045,12.613
			c-7.067-3.408-14.121-6.504-21.396-8.365c-7.249-1.881-14.684-2.463-21.835-1.192c-7.154,1.242-13.942,4.333-20.025,8.662
			C145.993,71.469,140.506,76.871,135.669,83.024z"/>
	</g>
	<g>
		<path fill="#3A3536" d="M239.169,77.524c2.988-0.717,6.069-0.887,9.162-0.858c3.093,0.07,6.21,0.479,9.285,1.31
			c3.066,0.834,6.103,2.125,8.852,4.053c2.747,1.912,5.144,4.557,6.703,7.662c0.77,1.551,1.343,3.193,1.716,4.855
			c0.347,1.667,0.537,3.347,0.535,5.003c0.004,3.316-0.589,6.512-1.528,9.522c-1.913,6.019-5.021,11.396-8.89,16.12
			c1.792-5.832,3.635-11.499,4.554-17.157c0.928-5.615,0.855-11.268-1.451-15.799c-2.235-4.561-6.742-7.85-11.942-10.061
			C250.942,79.943,245.158,78.572,239.169,77.524z"/>
	</g>
	
		<path fill="none" stroke="#3A3536" stroke-width="1.4173" stroke-linecap="round" stroke-linejoin="round" stroke-miterlimit="10" d="
		M68.003,149.024c0,0-17.817-10.385-13.492-26.026"/>
	
		<path fill="none" stroke="#3A3536" stroke-width="1.4173" stroke-linecap="round" stroke-linejoin="round" stroke-miterlimit="10" d="
		M82.144,110.561c0,0-0.092-3.476,1.692-7.37"/>
	
		<path fill="none" stroke="#3A3536" stroke-width="1.4173" stroke-linecap="round" stroke-linejoin="round" stroke-miterlimit="10" d="
		M75.811,153.227c0,0,3.551,6.927,11.025,11.797"/>
	
		<path fill="none" stroke="#3A3536" stroke-width="1.4173" stroke-linecap="round" stroke-linejoin="round" stroke-miterlimit="10" d="
		M134.644,160.394c0,0,1.246,3.09,3.692,5.63"/>
	<path fill="#A4C6D9" d="M252.517,136.158c-7.079-13.997-46.334-7.667-46.334-7.667c-68.667-48-77.666-25.5-77.666-25.5
		s-17.001,21.833-11.834,36c0,0,66.168-16.667,135.834,18.667C252.517,157.658,259.851,150.658,252.517,136.158z"/>
	
		<path fill="none" stroke="#3A3536" stroke-width="1.4173" stroke-linecap="round" stroke-linejoin="round" stroke-miterlimit="10" d="
		M219.752,178.303c0,0,6.892-0.576,10.059-3.076"/>
	<path fill="#3A3536" stroke="#3A3536" stroke-linecap="round" stroke-linejoin="round" stroke-miterlimit="10" d="M254.978,141.378
		c-7.079-13.997-46.334-7.667-46.334-7.667c-68.667-48-77.666-25.5-77.666-25.5s-17.001,21.833-11.834,36
		c0,0,66.168-16.667,135.834,18.667C254.978,162.878,262.312,155.878,254.978,141.378z"/>
	<g>
		<path fill="#3A3536" d="M109.978,122.878c-0.978,3.197-1.813,6.399-2.56,9.592c-0.689,3.206-1.339,6.395-1.608,9.582
			c-0.319,3.167-0.357,6.333,0.14,9.26c0.254,1.458,0.664,2.843,1.229,4.088c0.575,1.243,1.34,2.317,2.251,3.224l-3.802-0.098
			c0.407-0.366,0.624-0.53,0.926-0.765c0.282-0.216,0.561-0.419,0.841-0.615c0.56-0.392,1.122-0.755,1.688-1.103
			c1.138-0.685,2.296-1.294,3.465-1.861c2.334-1.143,4.741-2.05,7.164-2.854c4.859-1.565,9.823-2.605,14.807-3.224
			c4.984-0.627,9.986-0.857,14.964-0.745c4.977,0.104,9.932,0.508,14.829,1.353c-4.93,0.618-9.812,1.136-14.65,1.795
			c-4.835,0.675-9.626,1.444-14.341,2.426c-4.709,0.995-9.357,2.163-13.823,3.718c-2.236,0.762-4.416,1.647-6.517,2.622
			c-1.048,0.492-2.069,1.024-3.048,1.588c-0.491,0.279-0.971,0.568-1.428,0.866l-0.662,0.451l-0.514,0.385l-0.25,0.188
			c-1.099,0.824-2.624,0.68-3.552-0.286c-1.409-1.462-2.461-3.223-3.177-5.027c-0.721-1.811-1.085-3.676-1.263-5.499
			c-0.331-3.657,0.129-7.169,0.882-10.527c0.82-3.348,1.878-6.58,3.252-9.666c0.668-1.548,1.391-3.068,2.19-4.545
			C108.193,125.718,109.041,124.267,109.978,122.878z"/>
	</g>
	<path fill="#FFFFFF" stroke="#3A3536" stroke-linecap="round" stroke-linejoin="round" stroke-miterlimit="10" d="M160.408,124.905
		c0,0-1.833-14.667,2-15.167c0,0,5.551-0.333,10.525,12.167l4.308-4.584c0,0,29.501,24.417,60.834,22.417
		c0,0,0.332,5.334-1.834,6.167c0,0,4.5-0.167,5,1.667c0,0,1.333,9.5-9,3.5c0,0-29.5-11.667-68.833-13.5c0,0-4.377-1.347-3.438-6.173
		c0,0-8.462,9.34-15.762,5.84c0,0-5.8-11.667,4.7-19.167L160.408,124.905z"/>
	<polygon fill="#3A3536" stroke="#3A3536" stroke-linecap="round" stroke-linejoin="round" stroke-miterlimit="10" points="
		173.575,126.738 171.075,127.905 174.575,132.071 176.241,131.398 	"/>
	<polygon fill="#3A3536" stroke="#3A3536" stroke-linecap="round" stroke-linejoin="round" stroke-miterlimit="10" points="
		185.741,134.238 191.954,138.571 198.241,139.405 193.908,134.238 	"/>
	<polygon fill="#3A3536" stroke="#3A3536" stroke-linecap="round" stroke-linejoin="round" stroke-miterlimit="10" points="
		207.075,140.905 212.075,140.238 215.075,143.405 211.075,143.405 	"/>
	<polygon fill="#3A3536" stroke="#3A3536" stroke-linecap="round" stroke-linejoin="round" stroke-miterlimit="10" points="
		221.35,143.405 228.575,142.571 232.575,145.405 225.575,146.238 	"/>
	
		<path fill="#FFFFFF" stroke="#3A3536" stroke-width="0.9921" stroke-linecap="round" stroke-linejoin="round" stroke-miterlimit="10" d="
		M164.311,92.679c0,0,3.281-17.674,23.891-19.146c0,0,13.827-1.045,22.135,20.491c0,0,9.309,18.537,17.642,2.203
		c0,0-3.667,12.853-14.167,13.51l-14.647,2.977C199.163,112.713,181.144,94.297,164.311,92.679z"/>
	
		<ellipse fill="#3A3536" stroke="#3A3536" stroke-linecap="round" stroke-linejoin="round" stroke-miterlimit="10" cx="204.171" cy="100.394" rx="5.585" ry="10.167"/>
	
		<ellipse fill="#FFFFFF" stroke="#3A3536" stroke-linecap="round" stroke-linejoin="round" stroke-miterlimit="10" cx="205.977" cy="103.737" rx="1.099" ry="2"/>
	<path fill="#FFFFFF" stroke="#3A3536" stroke-linecap="round" stroke-linejoin="round" stroke-miterlimit="10" d="M258.237,95.58
		c0,0,12.88,23.855-11.023,27.418c0,0-5.962-8.136-12.947-10.285c0,0-3.377-7.486,0-12.319c0,0-1.38,10.297,4.332,8.565
		c0,0,4.357-1.83,8.951-7.614C247.55,101.345,255.387,93.617,258.237,95.58z"/>
	
		<ellipse fill="#3A3536" stroke="#3A3536" stroke-linecap="round" stroke-linejoin="round" stroke-miterlimit="10" cx="252.652" cy="109.737" rx="5.585" ry="10.167"/>
	
		<ellipse fill="#FFFFFF" stroke="#3A3536" stroke-linecap="round" stroke-linejoin="round" stroke-miterlimit="10" cx="253.761" cy="112.713" rx="1.099" ry="2"/>
</g>
<path fill="none" stroke="#FBB040" stroke-width="2.8347" stroke-miterlimit="10" d="M71.86,309.803"/>
</svg>
