<?xml version="1.0" encoding="utf-8"?>
<!-- Generator: Adobe Illustrator 16.0.0, SVG Export Plug-In . SVG Version: 6.00 Build 0)  -->
<!DOCTYPE svg PUBLIC "-//W3C//DTD SVG 1.1 Basic//EN" "http://www.w3.org/Graphics/SVG/1.1/DTD/svg11-basic.dtd">
<svg version="1.1" baseProfile="basic" id="Layer_1"
	 xmlns="http://www.w3.org/2000/svg" xmlns:xlink="http://www.w3.org/1999/xlink" x="0px" y="0px" width="300px" height="300px"
	 viewBox="0 0 300 300" xml:space="preserve">
<linearGradient id="SVGID_1_" gradientUnits="userSpaceOnUse" x1="-15.9111" y1="166.0879" x2="104.6963" y2="166.0879">
	<stop  offset="0" style="stop-color:#8EC73F"/>
	<stop  offset="0.2545" style="stop-color:#F05136"/>
	<stop  offset="0.7576" style="stop-color:#7656A4"/>
	<stop  offset="1" style="stop-color:#58290E"/>
</linearGradient>
<path fill-rule="evenodd" clip-rule="evenodd" fill="url(#SVGID_1_)" d="M149.02,68.583l-9.761-5.835
	c0.467-1.136,0.906-2.314,1.309-3.554l-23.013-13.76l-16.997,28.72c-6.888,1.841-14.996,4.292-23.156,7.104
	c-13.943,4.805-23.258,15.78-23.289,26.282c3.223-7.841,11.133-15.03,21.704-18.674c4.687-1.615,8.937-3.107,12.779-4.483
	c-2.933,1.849-5.937,3.803-8.934,5.82c-6.431,4.327-11.186,9.972-13.863,15.83c-0.198,0.333-0.389,0.669-0.57,1.007
	c-8.563,6.032-18.297,8.301-26.184,6.729c4.485,2.961,10.417,3.965,16.71,3.042c-5.751,2.103-11.534,2.664-16.565,1.661
	c3.628,2.396,8.206,3.51,13.156,3.359c-0.632,0.565-1.239,1.145-1.821,1.736c-1.034-0.077-2.045-0.212-3.029-0.409
	c0.707,0.467,1.449,0.884,2.224,1.254c-5.832,6.314-8.782,13.892-7.82,20.699c1.354-5.375,4.73-10.759,9.686-15.274
	c1.65,0.605,3.417,1.013,5.265,1.225c-6.554,8.63-8.781,18.724-5.759,26.425c0.04-3.082,0.689-6.315,1.907-9.529
	c2.842-5.07,7.411-9.811,13.301-13.423c-0.418,2.002-0.852,4.107-1.299,6.318c-4.756,6.426-7.128,13.623-6.745,20.022
	c-2.743,4.303-6.186,7.722-9.973,9.924c3.823-0.538,7.536-2.328,10.848-5.095c0.125,0.396,0.261,0.787,0.412,1.172
	c0.007-0.525,0.032-1.054,0.074-1.586c0.954-0.834,1.872-1.752,2.748-2.743c-0.69,3.329-1.419,6.931-2.187,10.82
	c-0.38,1.919-0.878,3.773-1.48,5.549c-0.642,0.46-1.297,0.885-1.961,1.271c0.542-0.076,1.082-0.178,1.619-0.304
	c-2.902,7.908-7.904,14.151-13.714,17.53c5.265-0.74,10.326-3.856,14.411-8.632c-0.529,2.583-1.079,5.318-1.65,8.215
	c-0.619,3.132-1.554,6.088-2.745,8.812c-0.514,0.354-1.037,0.686-1.566,0.993c0.407-0.057,0.812-0.128,1.215-0.213
	c-2.98,6.448-7.408,11.528-12.442,14.454c4.96-0.697,9.739-3.505,13.691-7.817c1.2,1.017,2.333,2.144,3.39,3.36
	c-0.823,3.639-2.074,7.023-3.655,10.066c-1.562,1.495-3.232,2.767-4.975,3.78c1.084-0.153,2.16-0.405,3.22-0.753
	c-2.727,4.232-6.134,7.598-9.876,9.774c7.462-1.05,14.512-6.869,18.956-15.415c0.292-0.28,0.579-0.565,0.863-0.86
	c0.788,1.465,1.487,2.993,2.088,4.569c-1.567,2.871-3.55,5.67-5.938,8.283c-7.541,8.255-17.281,12.66-25.756,12.503
	c6.08,2.609,13.796,1.911,21.162-1.686c-0.947,0.746-1.923,1.413-2.924,1.994c2.856-0.4,5.652-1.502,8.264-3.186
	c-0.606,0.76-1.246,1.509-1.916,2.244c-4.108,4.496-8.869,7.851-13.723,9.946c-0.813,0.065-1.618,0.091-2.412,0.076
	c0.375,0.161,0.755,0.308,1.142,0.444c-3.642,1.404-7.308,2.099-10.764,2.036c5.665,2.431,12.75,1.99,19.648-0.991
	c4.16-0.33,8.535-1.694,12.745-4.011c-1.468,3.12-3.501,6.069-6.165,8.722c-5.794,3.812-12.073,5.775-17.778,5.669
	c2.229,0.957,4.677,1.468,7.248,1.557c-5.379,2.511-11.99,4.271-19.986,4.987c23.321,3.572,36.767-2.87,44.378-10.052
	c-5.308,9.841-16.547,17.706-35.927,19.441c41.486,6.354,51.721-18.982,53.456-23.797c9.579-29.452-16.761-80.298-7.182-109.749
	C102.615,95.968,138.006,102.449,149.02,68.583L149.02,68.583z M69.751,118.894c-0.952,0.526-1.913,1.01-2.878,1.45
	c0.988-0.515,1.953-1.02,2.893-1.514L69.751,118.894L69.751,118.894L69.751,118.894z M56.095,126.281
	c1.536,0.215,3.132,0.291,4.768,0.229c-0.328,0.322-0.649,0.648-0.963,0.978c-2.229,0.519-4.433,0.802-6.566,0.849
	C54.213,127.623,55.134,126.937,56.095,126.281L56.095,126.281z M75.43,140.709c-0.852,4-1.767,8.448-2.75,13.384
	c0.246-4.019,0.872-7.812,2.006-11.302C74.931,142.084,75.18,141.396,75.43,140.709z"/>
<path fill-rule="evenodd" clip-rule="evenodd" fill="#E93F4B" d="M149.426,65.089l-10.538-4.271c0.287-1.194,0.54-2.426,0.749-3.713
	l-24.851-10.071l-12.395,30.984c-6.525,2.874-14.162,6.538-21.794,10.567c-13.042,6.885-20.566,19.158-18.987,29.54
	c1.982-8.241,8.698-16.558,18.586-21.777c4.384-2.314,8.355-4.44,11.941-6.389c-2.615,2.277-5.284,4.667-7.937,7.119
	c-5.691,5.262-9.525,11.57-11.273,17.767c-0.145,0.361-0.282,0.722-0.409,1.083c-7.538,7.272-16.809,11.006-24.843,10.661
	c4.884,2.239,10.9,2.323,16.979,0.446c-5.361,2.959-10.99,4.399-16.115,4.18c3.953,1.811,8.647,2.211,13.515,1.303
	c-0.538,0.655-1.049,1.322-1.533,1.995c-1.034,0.083-2.054,0.104-3.056,0.062c0.77,0.353,1.567,0.651,2.389,0.898
	c-4.795,7.133-6.55,15.072-4.556,21.652c0.514-5.519,3.026-11.357,7.232-16.578c1.723,0.346,3.531,0.478,5.39,0.403
	c-5.155,9.533-5.809,19.848-1.643,26.995c-0.433-3.052-0.287-6.346,0.425-9.707c2.032-5.446,5.819-10.831,11.087-15.302
	c-0.106,2.042-0.212,4.188-0.315,6.441c-3.714,7.08-4.957,14.554-3.597,20.819c-2.052,4.674-4.93,8.579-8.335,11.335
	c3.695-1.118,7.091-3.454,9.939-6.696c0.184,0.373,0.378,0.738,0.586,1.095c-0.073-0.52-0.13-1.045-0.17-1.578
	c0.815-0.97,1.582-2.017,2.295-3.131c-0.171,3.396-0.34,7.066-0.503,11.026c-0.081,1.956-0.289,3.864-0.613,5.711
	c-0.564,0.553-1.146,1.073-1.744,1.557c0.524-0.159,1.042-0.342,1.554-0.548c-1.657,8.261-5.644,15.196-10.868,19.426
	c5.091-1.54,9.614-5.395,12.92-10.739c-0.127,2.634-0.251,5.421-0.373,8.37c-0.132,3.19-0.603,6.255-1.362,9.13
	c-0.454,0.429-0.92,0.837-1.395,1.222c0.393-0.118,0.783-0.252,1.169-0.397c-1.958,6.829-5.556,12.526-10.082,16.19
	c4.796-1.449,9.087-4.955,12.332-9.824c1.341,0.822,2.634,1.763,3.865,2.803c-0.255,3.723-0.973,7.259-2.07,10.507
	c-1.315,1.717-2.77,3.23-4.336,4.498c1.047-0.315,2.071-0.732,3.066-1.238c-2.046,4.602-4.897,8.449-8.262,11.173
	c7.212-2.18,13.289-9.01,16.371-18.137c0.245-0.32,0.485-0.648,0.72-0.982c1.003,1.327,1.929,2.729,2.764,4.195
	c-1.108,3.078-2.64,6.146-4.599,9.095c-6.188,9.312-15.138,15.157-23.537,16.303c6.408,1.646,13.926-0.225,20.653-4.909
	c-0.82,0.884-1.684,1.692-2.583,2.42c2.761-0.834,5.354-2.351,7.678-4.416c-0.483,0.845-1,1.684-1.55,2.512
	c-3.371,5.072-7.561,9.116-12.036,11.933c-0.793,0.188-1.585,0.337-2.372,0.444c0.395,0.102,0.794,0.188,1.197,0.265
	c-3.384,1.945-6.9,3.193-10.325,3.661c5.97,1.535,12.904,0.013,19.265-3.989c4.06-0.966,8.175-2.983,11.979-5.918
	c-0.972,3.31-2.53,6.535-4.754,9.565c-5.143,4.654-11.046,7.556-16.701,8.325c2.349,0.604,4.847,0.733,7.4,0.426
	c-4.931,3.307-11.193,6.06-18.986,7.991c23.593-0.042,35.893-8.468,42.313-16.732c-3.737,10.54-13.639,20.034-32.524,24.717
	c41.97-0.075,48.201-26.682,49.179-31.705c4.953-30.572-28.865-76.782-23.912-107.354
	C107.764,99.261,143.729,100.243,149.426,65.089L149.426,65.089z M78.801,126.951c-0.86,0.666-1.735,1.292-2.622,1.874
	c0.898-0.661,1.773-1.308,2.627-1.94L78.801,126.951L78.801,126.951L78.801,126.951z M66.438,136.343
	c1.55-0.023,3.139-0.193,4.746-0.504c-0.274,0.369-0.542,0.74-0.802,1.113c-2.124,0.854-4.258,1.471-6.358,1.845
	C64.783,137.958,65.588,137.139,66.438,136.343L66.438,136.343z M87.754,147.639c-0.228,4.083-0.452,8.62-0.667,13.647
	c-0.373-4.01-0.335-7.854,0.252-11.476C87.473,149.075,87.613,148.355,87.754,147.639z"/>
<path fill-rule="evenodd" clip-rule="evenodd" fill="#30B2E6" d="M153.37,63.286l-10.02-5.377c0.414-1.156,0.798-2.354,1.144-3.61
	l-23.626-12.68l-15.649,29.476c-6.795,2.157-14.781,4.981-22.802,8.167c-13.706,5.446-22.503,16.84-22.048,27.332
	c2.856-7.981,10.425-15.529,20.817-19.657c4.606-1.831,8.782-3.518,12.557-5.071c-2.844,1.983-5.754,4.074-8.654,6.227
	c-6.223,4.621-10.712,10.48-13.116,16.455c-0.183,0.343-0.357,0.687-0.522,1.033c-8.275,6.421-17.894,9.138-25.844,7.934
	c4.616,2.75,10.588,3.479,16.833,2.265c-5.647,2.367-11.398,3.194-16.47,2.426c3.735,2.226,8.36,3.126,13.297,2.747
	c-0.605,0.593-1.185,1.201-1.738,1.818c-1.037-0.028-2.053-0.118-3.045-0.268c0.727,0.433,1.488,0.816,2.279,1.149
	c-5.533,6.577-8.129,14.283-6.854,21.039c1.103-5.432,4.228-10.968,8.969-15.706c1.677,0.527,3.46,0.853,5.317,0.979
	c-6.148,8.925-7.906,19.111-4.531,26.664c-0.102-3.082,0.396-6.341,1.464-9.607c2.604-5.196,6.948-10.144,12.665-14.024
	c-0.326,2.02-0.66,4.142-1.005,6.371c-4.453,6.64-6.49,13.938-5.811,20.313c-2.541,4.426-5.822,7.999-9.503,10.375
	c3.793-0.715,7.42-2.675,10.6-5.591c0.143,0.39,0.297,0.774,0.466,1.151c-0.018-0.525-0.018-1.055,0-1.588
	c0.914-0.878,1.789-1.835,2.618-2.866c-0.535,3.357-1.096,6.989-1.684,10.907c-0.29,1.936-0.702,3.812-1.222,5.613
	c-0.62,0.488-1.254,0.943-1.9,1.361c0.538-0.103,1.072-0.229,1.604-0.38c-2.534,8.035-7.242,14.504-12.89,18.146
	c5.227-0.983,10.138-4.33,13.997-9.288c-0.409,2.604-0.831,5.362-1.268,8.281c-0.474,3.156-1.271,6.152-2.334,8.93
	c-0.497,0.379-1.004,0.734-1.518,1.066c0.404-0.076,0.806-0.166,1.205-0.27c-2.68,6.58-6.868,11.857-11.762,15.015
	c4.923-0.927,9.566-3.952,13.315-8.444c1.246,0.962,2.429,2.034,3.542,3.2c-0.654,3.674-1.747,7.113-3.186,10.226
	c-1.491,1.565-3.101,2.913-4.795,4.007c1.076-0.203,2.139-0.506,3.182-0.902c-2.528,4.355-5.775,7.875-9.413,10.222
	c7.404-1.394,14.179-7.533,18.222-16.276c0.278-0.292,0.552-0.592,0.822-0.899c0.855,1.428,1.625,2.922,2.298,4.468
	c-1.432,2.941-3.284,5.828-5.548,8.55c-7.151,8.594-16.676,13.445-25.15,13.682c6.195,2.325,13.87,1.271,21.062-2.662
	c-0.911,0.788-1.855,1.499-2.829,2.126c2.835-0.532,5.576-1.762,8.108-3.565c-0.57,0.788-1.174,1.566-1.811,2.33
	c-3.896,4.684-8.496,8.253-13.247,10.571c-0.81,0.104-1.613,0.167-2.406,0.188c0.381,0.144,0.769,0.272,1.161,0.391
	c-3.573,1.571-7.203,2.437-10.659,2.532c5.771,2.167,12.829,1.398,19.582-1.898c4.14-0.523,8.448-2.088,12.547-4.599
	c-1.324,3.186-3.218,6.227-5.754,9.001c-5.612,4.074-11.793,6.326-17.497,6.484c2.27,0.852,4.74,1.249,7.312,1.219
	c-5.258,2.759-11.779,4.822-19.734,5.907c23.461,2.489,36.595-4.568,43.866-12.095c-4.847,10.078-15.711,18.453-34.989,21.083
	c41.736,4.428,50.787-21.355,52.297-26.244c8.206-29.863-20.458-79.436-12.252-109.301C108.282,92.789,143.935,97.625,153.37,63.286
	L153.37,63.286z M76.514,117.211c-0.926,0.571-1.864,1.098-2.808,1.582c0.964-0.56,1.903-1.109,2.82-1.646L76.514,117.211
	L76.514,117.211L76.514,117.211z M63.214,125.223c1.544,0.143,3.143,0.145,4.774,0.007c-0.313,0.337-0.618,0.677-0.917,1.021
	c-2.203,0.622-4.391,1.006-6.52,1.152C61.396,126.65,62.285,125.922,63.214,125.223L63.214,125.223z M83.197,138.74
	c-0.666,4.035-1.375,8.522-2.128,13.498c0.059-4.026,0.509-7.844,1.481-11.383C82.762,140.138,82.979,139.438,83.197,138.74z"/>
<path fill-rule="evenodd" clip-rule="evenodd" fill="#FFCA61" d="M153.002,64.25l-10.25-4.926c0.362-1.174,0.692-2.388,0.981-3.659
	l-24.166-11.616L105.244,74.19c-6.693,2.458-14.545,5.633-22.417,9.173c-13.451,6.05-21.732,17.824-20.811,28.286
	c2.498-8.101,9.725-15.978,19.922-20.564c4.521-2.033,8.618-3.905,12.319-5.624c-2.753,2.108-5.567,4.325-8.369,6.606
	c-6.011,4.892-10.235,10.945-12.37,17.021c-0.167,0.351-0.326,0.703-0.477,1.056c-7.981,6.783-17.469,9.924-25.466,9.074
	c4.734,2.542,10.733,3.005,16.917,1.514c-5.538,2.616-11.246,3.698-16.347,3.156c3.831,2.057,8.491,2.751,13.406,2.153
	c-0.578,0.62-1.13,1.252-1.656,1.895c-1.037,0.017-2.057-0.026-3.053-0.132c0.746,0.4,1.523,0.749,2.328,1.047
	c-5.236,6.817-7.487,14.63-5.912,21.324c0.861-5.476,3.736-11.145,8.262-16.09c1.698,0.453,3.495,0.698,5.354,0.742
	c-5.745,9.189-7.047,19.443-3.34,26.839c-0.239-3.074,0.114-6.353,1.036-9.664c2.371-5.305,6.491-10.441,12.029-14.572
	c-0.235,2.032-0.475,4.167-0.721,6.41c-4.154,6.831-5.864,14.212-4.902,20.55c-2.342,4.535-5.46,8.252-9.033,10.787
	c3.759-0.882,7.294-3.001,10.341-6.056c0.16,0.383,0.332,0.76,0.517,1.129c-0.041-0.522-0.064-1.053-0.071-1.586
	c0.875-0.918,1.707-1.912,2.488-2.979c-0.385,3.378-0.785,7.03-1.198,10.972c-0.203,1.947-0.532,3.84-0.971,5.662
	c-0.597,0.516-1.21,0.998-1.838,1.443c0.533-0.125,1.062-0.274,1.585-0.449c-2.174,8.139-6.59,14.81-12.07,18.701
	c5.177-1.215,9.934-4.777,13.57-9.902c-0.292,2.62-0.592,5.395-0.899,8.33c-0.332,3.175-0.995,6.204-1.934,9.025
	c-0.48,0.399-0.971,0.778-1.469,1.132c0.399-0.094,0.797-0.201,1.191-0.322c-2.385,6.692-6.333,12.15-11.082,15.522
	c4.876-1.146,9.381-4.373,12.926-9.027c1.287,0.904,2.517,1.924,3.681,3.039c-0.49,3.699-1.429,7.184-2.729,10.356
	c-1.421,1.631-2.968,3.049-4.612,4.216c1.066-0.25,2.114-0.599,3.139-1.041c-2.332,4.462-5.42,8.122-8.951,10.629
	c7.336-1.722,13.83-8.155,17.481-17.07c0.264-0.305,0.525-0.615,0.781-0.934c0.917,1.387,1.753,2.845,2.494,4.36
	c-1.3,3.001-3.021,5.968-5.163,8.787c-6.762,8.904-16.062,14.174-24.517,14.787c6.292,2.047,13.913,0.652,20.922-3.598
	c-0.875,0.828-1.788,1.581-2.731,2.251c2.808-0.658,5.492-2.008,7.941-3.922c-0.535,0.812-1.103,1.616-1.705,2.408
	c-3.684,4.851-8.12,8.622-12.764,11.15c-0.804,0.139-1.604,0.237-2.396,0.295c0.388,0.126,0.78,0.237,1.177,0.339
	c-3.5,1.729-7.087,2.753-10.535,3.003c5.862,1.908,12.878,0.825,19.478-2.768c4.112-0.707,8.346-2.462,12.329-5.152
	c-1.18,3.242-2.937,6.364-5.348,9.247c-5.425,4.322-11.5,6.845-17.191,7.257c2.306,0.751,4.792,1.038,7.359,0.893
	c-5.13,2.989-11.553,5.341-19.452,6.779c23.549,1.443,36.355-6.19,43.283-14.033c-4.394,10.282-14.874,19.134-34.017,22.618
	c41.891,2.567,49.788-23.593,51.079-28.543c6.87-30.2-23.97-78.449-17.1-108.649C109.27,95.729,145.102,98.975,153.002,64.25
	L153.002,64.25z M78.619,121.539c-0.9,0.611-1.813,1.179-2.735,1.705c0.938-0.602,1.852-1.192,2.744-1.77L78.619,121.539
	L78.619,121.539L78.619,121.539z M65.689,130.133c1.549,0.074,3.145,0.005,4.769-0.205c-0.297,0.351-0.587,0.705-0.871,1.062
	c-2.172,0.718-4.342,1.2-6.462,1.44C63.936,131.641,64.791,130.874,65.689,130.133L65.689,130.133z M86.251,142.75
	c-0.485,4.06-0.994,8.574-1.525,13.579c-0.12-4.025,0.16-7.859,0.974-11.438C85.88,144.165,86.065,143.456,86.251,142.75z"/>
<linearGradient id="SVGID_2_" gradientUnits="userSpaceOnUse" x1="59.7275" y1="157.9375" x2="129.1134" y2="157.9375">
	<stop  offset="0" style="stop-color:#8EC73F"/>
	<stop  offset="0.2545" style="stop-color:#F05136"/>
	<stop  offset="0.7576" style="stop-color:#7656A4"/>
	<stop  offset="1" style="stop-color:#58290E"/>
</linearGradient>
<path fill-rule="evenodd" clip-rule="evenodd" fill="url(#SVGID_2_)" d="M153.361,54.741l-10.25-4.926
	c0.362-1.174,0.693-2.387,0.981-3.658L119.927,34.54l-14.323,30.142c-6.694,2.457-14.545,5.633-22.417,9.173
	c-13.45,6.049-21.732,17.825-20.811,28.285c2.498-8.101,9.725-15.977,19.922-20.564c4.521-2.033,8.618-3.905,12.319-5.624
	c-2.753,2.107-5.567,4.325-8.369,6.605c-6.012,4.892-10.236,10.945-12.371,17.021c-0.167,0.351-0.326,0.703-0.476,1.056
	c-7.981,6.783-17.47,9.924-25.466,9.074c4.734,2.542,10.733,3.004,16.917,1.514c-5.537,2.616-11.246,3.698-16.346,3.156
	c3.831,2.057,8.49,2.752,13.406,2.153c-0.579,0.62-1.13,1.252-1.656,1.894c-1.037,0.017-2.057-0.026-3.053-0.132
	c0.746,0.401,1.523,0.75,2.327,1.047c-5.235,6.817-7.486,14.63-5.911,21.323c0.86-5.476,3.736-11.145,8.261-16.089
	c1.698,0.453,3.495,0.699,5.355,0.742c-5.745,9.189-7.048,19.443-3.34,26.839c-0.239-3.074,0.115-6.352,1.035-9.663
	c2.371-5.306,6.491-10.441,12.03-14.572c-0.235,2.032-0.476,4.167-0.72,6.409c-4.154,6.832-5.864,14.213-4.902,20.551
	c-2.342,4.534-5.461,8.251-9.033,10.787c3.758-0.883,7.295-3.001,10.342-6.056c0.159,0.383,0.331,0.76,0.516,1.129
	c-0.041-0.523-0.064-1.053-0.071-1.586c0.875-0.918,1.706-1.914,2.488-2.98c-0.386,3.378-0.786,7.03-1.198,10.973
	c-0.204,1.946-0.532,3.838-0.971,5.661c-0.598,0.515-1.211,0.998-1.838,1.443c0.533-0.124,1.062-0.274,1.585-0.449
	c-2.174,8.141-6.59,14.811-12.07,18.702c5.177-1.215,9.935-4.778,13.57-9.903c-0.292,2.621-0.592,5.395-0.899,8.331
	c-0.333,3.174-0.996,6.202-1.935,9.024c-0.48,0.399-0.97,0.777-1.469,1.132c0.4-0.093,0.797-0.201,1.191-0.322
	c-2.384,6.692-6.333,12.151-11.082,15.522c4.877-1.144,9.381-4.373,12.927-9.026c1.286,0.904,2.517,1.924,3.681,3.039
	c-0.49,3.699-1.429,7.184-2.729,10.354c-1.42,1.633-2.968,3.051-4.612,4.219c1.066-0.251,2.114-0.602,3.139-1.044
	c-2.332,4.463-5.42,8.124-8.95,10.631c7.335-1.722,13.83-8.155,17.481-17.07c0.264-0.305,0.525-0.616,0.78-0.935
	c0.918,1.387,1.752,2.847,2.495,4.36c-1.301,3.003-3.022,5.968-5.163,8.788c-6.763,8.904-16.062,14.175-24.517,14.786
	c6.292,2.048,13.913,0.652,20.921-3.597c-0.875,0.828-1.787,1.581-2.731,2.252c2.808-0.659,5.492-2.01,7.94-3.924
	c-0.535,0.812-1.103,1.616-1.705,2.409c-3.683,4.851-8.12,8.623-12.764,11.15c-0.804,0.138-1.604,0.236-2.396,0.293
	c0.388,0.128,0.78,0.239,1.177,0.34c-3.499,1.729-7.087,2.754-10.534,3.003c5.861,1.908,12.877,0.826,19.477-2.767
	c4.113-0.707,8.346-2.462,12.329-5.151c-1.179,3.242-2.937,6.363-5.348,9.247c-5.426,4.32-11.5,6.844-17.192,7.256
	c2.306,0.751,4.792,1.038,7.359,0.893c-5.13,2.988-11.553,5.342-19.452,6.779c23.55,1.443,36.355-6.192,43.285-14.033
	c-4.395,10.283-14.875,19.135-34.018,22.617c41.892,2.568,49.788-23.592,51.079-28.544c6.87-30.199-23.97-78.447-17.1-108.648
	C109.629,86.22,145.462,89.467,153.361,54.741L153.361,54.741z M78.979,112.031c-0.9,0.611-1.813,1.179-2.735,1.705
	c0.938-0.603,1.853-1.194,2.744-1.771L78.979,112.031L78.979,112.031L78.979,112.031z M66.048,120.625
	c1.549,0.074,3.146,0.005,4.769-0.205c-0.297,0.351-0.587,0.704-0.87,1.061c-2.172,0.718-4.342,1.2-6.462,1.441
	C64.295,122.132,65.151,121.365,66.048,120.625L66.048,120.625z M86.611,133.241c-0.486,4.06-0.994,8.574-1.525,13.579
	c-0.12-4.025,0.16-7.86,0.974-11.438C86.24,134.656,86.425,133.947,86.611,133.241z"/>
<linearGradient id="SVGID_3_" gradientUnits="userSpaceOnUse" x1="1341.3867" y1="166.0879" x2="1461.9922" y2="166.0879" gradientTransform="matrix(-1 0 0 1 1661.1641 0)">
	<stop  offset="0" style="stop-color:#8EC73F"/>
	<stop  offset="0.2545" style="stop-color:#F05136"/>
	<stop  offset="0.7576" style="stop-color:#7656A4"/>
	<stop  offset="1" style="stop-color:#58290E"/>
</linearGradient>
<path fill-rule="evenodd" clip-rule="evenodd" fill="url(#SVGID_3_)" d="M154.849,68.583c11.013,33.866,46.404,27.386,65.881,83.599
	c9.579,29.451-16.761,80.297-7.182,109.749c1.735,4.814,11.97,30.151,53.456,23.797c-19.379-1.735-30.62-9.601-35.927-19.441
	c7.611,7.182,21.057,13.624,44.377,10.052c-7.995-0.716-14.605-2.477-19.984-4.987c2.569-0.089,5.019-0.6,7.246-1.557
	c-5.704,0.106-11.983-1.856-17.778-5.669c-2.662-2.652-4.695-5.602-6.163-8.722c4.21,2.316,8.585,3.681,12.745,4.011
	c6.898,2.981,13.983,3.422,19.648,0.991c-3.456,0.062-7.123-0.632-10.765-2.036c0.386-0.137,0.768-0.283,1.143-0.444
	c-0.795,0.015-1.6-0.011-2.412-0.076c-4.854-2.096-9.615-5.45-13.723-9.946c-0.671-0.735-1.311-1.484-1.916-2.244
	c2.612,1.684,5.407,2.785,8.265,3.186c-1.002-0.581-1.979-1.248-2.926-1.994c7.366,3.597,15.082,4.295,21.162,1.686
	c-8.476,0.157-18.215-4.248-25.756-12.503c-2.388-2.613-4.371-5.412-5.938-8.283c0.602-1.576,1.301-3.104,2.089-4.569
	c0.284,0.295,0.571,0.58,0.863,0.86c4.442,8.546,11.493,14.365,18.955,15.415c-3.743-2.177-7.149-5.542-9.876-9.774
	c1.06,0.348,2.136,0.6,3.221,0.753c-1.744-1.014-3.414-2.285-4.977-3.78c-1.58-3.043-2.832-6.428-3.655-10.066
	c1.058-1.217,2.19-2.344,3.39-3.36c3.953,4.312,8.73,7.12,13.691,7.817c-5.034-2.926-9.461-8.006-12.442-14.454
	c0.403,0.085,0.809,0.156,1.216,0.213c-0.529-0.308-1.052-0.639-1.566-0.993c-1.189-2.725-2.125-5.681-2.744-8.812
	c-0.572-2.896-1.122-5.632-1.65-8.215c4.085,4.775,9.146,7.892,14.411,8.632c-5.81-3.379-10.811-9.622-13.714-17.53
	c0.536,0.126,1.077,0.228,1.618,0.304c-0.664-0.387-1.318-0.812-1.961-1.271c-0.604-1.775-1.102-3.63-1.48-5.549
	c-0.769-3.89-1.496-7.491-2.188-10.82c0.877,0.991,1.794,1.909,2.748,2.743c0.043,0.532,0.066,1.061,0.073,1.586
	c0.15-0.385,0.288-0.776,0.411-1.172c3.312,2.767,7.026,4.557,10.849,5.095c-3.786-2.202-7.229-5.621-9.974-9.924
	c0.385-6.399-1.988-13.596-6.744-20.022c-0.447-2.211-0.88-4.316-1.299-6.318c5.89,3.612,10.459,8.353,13.301,13.423
	c1.219,3.213,1.867,6.447,1.907,9.529c3.022-7.701,0.796-17.794-5.759-26.425c1.849-0.212,3.614-0.62,5.266-1.225
	c4.954,4.515,8.332,9.9,9.686,15.274c0.962-6.808-1.988-14.385-7.82-20.699c0.774-0.37,1.517-0.787,2.224-1.254
	c-0.984,0.196-1.995,0.332-3.029,0.409c-0.582-0.591-1.188-1.171-1.821-1.736c4.949,0.151,9.528-0.963,13.155-3.359
	c-5.029,1.003-10.813,0.442-16.563-1.661c6.293,0.923,12.226-0.081,16.709-3.042c-7.886,1.572-17.62-0.697-26.183-6.729
	c-0.182-0.338-0.372-0.674-0.57-1.007c-2.677-5.857-7.432-11.502-13.861-15.83c-2.998-2.017-6.001-3.971-8.935-5.82
	c3.842,1.376,8.093,2.869,12.778,4.483c10.57,3.644,18.482,10.833,21.704,18.674c-0.031-10.502-9.346-21.477-23.289-26.282
	c-8.16-2.812-16.268-5.264-23.156-7.104l-16.996-28.72l-23.014,13.76c0.402,1.239,0.843,2.417,1.309,3.554L154.849,68.583
	L154.849,68.583z M234.116,118.894L234.116,118.894l-0.016-0.064c0.94,0.494,1.904,1,2.894,1.514
	C236.03,119.904,235.068,119.42,234.116,118.894L234.116,118.894z M247.772,126.281c0.962,0.656,1.882,1.342,2.761,2.055
	c-2.132-0.047-4.336-0.33-6.565-0.849c-0.314-0.33-0.636-0.656-0.963-0.978C244.641,126.571,246.236,126.496,247.772,126.281
	L247.772,126.281z M229.181,142.791c1.136,3.49,1.762,7.283,2.007,11.302c-0.981-4.936-1.899-9.384-2.75-13.384
	C228.688,141.396,228.937,142.084,229.181,142.791z"/>
<path fill-rule="evenodd" clip-rule="evenodd" fill="#E93F4B" d="M154.441,65.089c5.696,35.153,41.661,34.172,52.298,92.705
	c4.953,30.572-28.865,76.782-23.911,107.354c0.977,5.023,7.209,31.63,49.179,31.705c-18.885-4.683-28.787-14.177-32.524-24.717
	c6.422,8.265,18.722,16.69,42.313,16.732c-7.792-1.932-14.055-4.685-18.985-7.991c2.553,0.308,5.052,0.178,7.4-0.426
	c-5.654-0.77-11.558-3.671-16.7-8.325c-2.225-3.03-3.782-6.256-4.756-9.565c3.807,2.935,7.921,4.952,11.98,5.918
	c6.361,4.002,13.295,5.524,19.265,3.989c-3.425-0.468-6.94-1.716-10.325-3.661c0.403-0.077,0.803-0.163,1.198-0.265
	c-0.787-0.107-1.58-0.256-2.374-0.444c-4.474-2.816-8.664-6.86-12.035-11.933c-0.55-0.828-1.067-1.667-1.55-2.512
	c2.323,2.065,4.916,3.582,7.678,4.416c-0.9-0.728-1.763-1.536-2.585-2.42c6.729,4.685,14.246,6.556,20.654,4.909
	c-8.399-1.146-17.349-6.99-23.536-16.303c-1.96-2.948-3.49-6.017-4.6-9.095c0.836-1.466,1.762-2.868,2.765-4.195
	c0.234,0.334,0.476,0.662,0.721,0.982c3.081,9.127,9.157,15.957,16.371,18.137c-3.365-2.724-6.217-6.571-8.263-11.173
	c0.994,0.506,2.018,0.923,3.066,1.238c-1.566-1.268-3.022-2.781-4.337-4.498c-1.097-3.248-1.814-6.784-2.07-10.507
	c1.231-1.04,2.523-1.98,3.865-2.803c3.244,4.869,7.536,8.375,12.331,9.824c-4.525-3.664-8.124-9.361-10.081-16.19
	c0.385,0.146,0.775,0.279,1.169,0.397c-0.477-0.385-0.941-0.793-1.396-1.222c-0.759-2.875-1.23-5.939-1.361-9.13
	c-0.122-2.949-0.246-5.736-0.372-8.37c3.306,5.345,7.829,9.199,12.918,10.739c-5.223-4.229-9.209-11.165-10.866-19.426
	c0.512,0.206,1.029,0.389,1.553,0.548c-0.597-0.483-1.179-1.004-1.742-1.557c-0.324-1.847-0.533-3.755-0.613-5.711
	c-0.163-3.96-0.333-7.63-0.503-11.026c0.713,1.114,1.479,2.161,2.294,3.131c-0.039,0.533-0.096,1.059-0.171,1.578
	c0.209-0.356,0.402-0.722,0.587-1.095c2.849,3.242,6.245,5.578,9.939,6.696c-3.404-2.756-6.283-6.661-8.335-11.335
	c1.36-6.265,0.117-13.739-3.597-20.819c-0.104-2.253-0.21-4.399-0.316-6.441c5.268,4.472,9.056,9.856,11.088,15.302
	c0.71,3.361,0.857,6.655,0.425,9.707c4.166-7.146,3.512-17.461-1.644-26.995c1.859,0.074,3.668-0.058,5.392-0.403
	c4.205,5.221,6.717,11.059,7.231,16.578c1.993-6.58,0.238-14.52-4.558-21.652c0.822-0.247,1.62-0.545,2.39-0.898
	c-1.001,0.042-2.021,0.021-3.056-0.062c-0.484-0.673-0.995-1.339-1.534-1.995c4.868,0.908,9.563,0.508,13.516-1.303
	c-5.124,0.219-10.754-1.221-16.115-4.18c6.078,1.877,12.095,1.793,16.979-0.446c-8.034,0.345-17.306-3.388-24.845-10.661
	c-0.126-0.361-0.263-0.723-0.407-1.083c-1.749-6.197-5.583-12.505-11.274-17.767c-2.653-2.452-5.322-4.841-7.937-7.119
	c3.587,1.949,7.558,4.074,11.94,6.389c9.889,5.219,16.604,13.536,18.587,21.777c1.578-10.382-5.945-22.655-18.987-29.54
	c-7.632-4.03-15.27-7.694-21.794-10.567l-12.396-30.984l-24.85,10.071c0.208,1.287,0.462,2.519,0.749,3.713L154.441,65.089
	L154.441,65.089z M225.067,126.951L225.067,126.951l-0.006-0.066c0.854,0.632,1.729,1.279,2.627,1.94
	C226.803,128.243,225.927,127.617,225.067,126.951L225.067,126.951z M237.431,136.343c0.849,0.796,1.654,1.615,2.413,2.454
	c-2.101-0.374-4.235-0.991-6.357-1.845c-0.262-0.374-0.528-0.745-0.803-1.113C234.291,136.149,235.879,136.319,237.431,136.343
	L237.431,136.343z M216.528,149.81c0.588,3.623,0.624,7.466,0.252,11.476c-0.216-5.027-0.438-9.564-0.667-13.647
	C216.254,148.355,216.396,149.075,216.528,149.81z"/>
<path fill-rule="evenodd" clip-rule="evenodd" fill="#30B2E6" d="M150.498,63.286c9.435,34.339,45.087,29.503,61.943,86.557
	c8.206,29.865-20.458,79.438-12.252,109.301c1.511,4.889,10.562,30.672,52.298,26.244c-19.278-2.63-30.143-11.005-34.989-21.083
	c7.271,7.526,20.404,14.584,43.865,12.095c-7.956-1.085-14.476-3.148-19.734-5.907c2.571,0.03,5.041-0.367,7.312-1.219
	c-5.703-0.158-11.885-2.41-17.496-6.484c-2.538-2.774-4.433-5.815-5.755-9.001c4.1,2.511,8.407,4.075,12.547,4.599
	c6.754,3.297,13.809,4.065,19.582,1.898c-3.456-0.096-7.086-0.961-10.659-2.532c0.393-0.118,0.779-0.247,1.162-0.391
	c-0.795-0.021-1.599-0.085-2.407-0.188c-4.751-2.318-9.351-5.888-13.247-10.571c-0.636-0.764-1.239-1.542-1.81-2.33
	c2.53,1.804,5.272,3.033,8.106,3.565c-0.973-0.627-1.918-1.338-2.828-2.126c7.191,3.933,14.866,4.987,21.061,2.662
	c-8.473-0.236-17.999-5.088-25.149-13.682c-2.265-2.722-4.115-5.608-5.548-8.55c0.673-1.546,1.442-3.04,2.298-4.468
	c0.27,0.308,0.544,0.607,0.821,0.899c4.043,8.743,10.816,14.883,18.223,16.276c-3.639-2.347-6.886-5.866-9.414-10.222
	c1.044,0.396,2.106,0.699,3.182,0.902c-1.694-1.094-3.303-2.441-4.795-4.007c-1.438-3.112-2.532-6.552-3.187-10.226
	c1.114-1.166,2.298-2.238,3.543-3.2c3.749,4.492,8.393,7.518,13.314,8.444c-4.894-3.157-9.081-8.435-11.761-15.015
	c0.399,0.104,0.802,0.193,1.205,0.27c-0.515-0.332-1.021-0.688-1.519-1.066c-1.063-2.777-1.86-5.773-2.334-8.93
	c-0.438-2.919-0.86-5.678-1.269-8.281c3.86,4.958,8.771,8.305,13.998,9.288c-5.648-3.643-10.355-10.111-12.891-18.146
	c0.532,0.151,1.066,0.277,1.604,0.38c-0.646-0.418-1.281-0.873-1.9-1.361c-0.521-1.802-0.932-3.678-1.223-5.613
	c-0.587-3.918-1.148-7.55-1.684-10.907c0.829,1.031,1.704,1.988,2.618,2.866c0.017,0.533,0.017,1.062,0,1.588
	c0.167-0.377,0.323-0.762,0.464-1.151c3.181,2.916,6.807,4.876,10.601,5.591c-3.681-2.376-6.961-5.949-9.502-10.375
	c0.68-6.375-1.358-13.673-5.812-20.313c-0.345-2.229-0.68-4.351-1.005-6.371c5.717,3.88,10.062,8.828,12.666,14.024
	c1.067,3.267,1.566,6.525,1.464,9.607c3.375-7.553,1.617-17.739-4.531-26.664c1.857-0.126,3.641-0.452,5.317-0.979
	c4.74,4.738,7.866,10.273,8.969,15.706c1.275-6.756-1.32-14.462-6.854-21.039c0.79-0.333,1.551-0.716,2.278-1.149
	c-0.989,0.15-2.007,0.239-3.044,0.268c-0.554-0.618-1.133-1.225-1.738-1.818c4.938,0.379,9.562-0.521,13.297-2.747
	c-5.071,0.769-10.823-0.059-16.471-2.426c6.245,1.214,12.218,0.485,16.833-2.265c-7.949,1.204-17.568-1.512-25.844-7.934
	c-0.165-0.346-0.34-0.69-0.522-1.033c-2.403-5.975-6.893-11.834-13.115-16.455c-2.9-2.153-5.81-4.244-8.654-6.227
	c3.773,1.553,7.95,3.24,12.558,5.071c10.392,4.128,17.96,11.676,20.815,19.657c0.456-10.492-8.342-21.886-22.048-27.332
	c-8.021-3.186-16.007-6.01-22.803-8.167L183,41.618l-23.626,12.68c0.346,1.256,0.729,2.454,1.143,3.61L150.498,63.286
	L150.498,63.286z M227.353,117.211L227.353,117.211l-0.012-0.064c0.918,0.537,1.856,1.086,2.82,1.646
	C229.217,118.309,228.28,117.782,227.353,117.211L227.353,117.211z M240.653,125.223c0.929,0.699,1.818,1.427,2.663,2.18
	c-2.13-0.146-4.318-0.53-6.52-1.152c-0.299-0.344-0.604-0.684-0.918-1.021C237.51,125.367,239.108,125.365,240.653,125.223
	L240.653,125.223z M221.317,140.854c0.973,3.54,1.422,7.357,1.481,11.383c-0.753-4.976-1.462-9.462-2.128-13.498
	C220.89,139.438,221.105,140.138,221.317,140.854z"/>
<path fill-rule="evenodd" clip-rule="evenodd" fill="#FFCA61" d="M150.867,64.25c7.899,34.725,43.731,31.479,58.033,89.225
	c6.871,30.2-23.97,78.449-17.1,108.649c1.291,4.95,9.188,31.11,51.079,28.543c-19.143-3.484-29.623-12.336-34.017-22.618
	c6.929,7.843,19.735,15.477,43.283,14.033c-7.898-1.438-14.321-3.79-19.452-6.779c2.568,0.146,5.053-0.142,7.358-0.893
	c-5.691-0.412-11.766-2.935-17.19-7.257c-2.411-2.883-4.169-6.005-5.349-9.247c3.983,2.69,8.218,4.445,12.329,5.152
	c6.601,3.593,13.616,4.676,19.478,2.768c-3.447-0.25-7.035-1.274-10.535-3.003c0.398-0.102,0.79-0.213,1.178-0.339
	c-0.791-0.058-1.591-0.156-2.396-0.295c-4.644-2.528-9.079-6.3-12.764-11.15c-0.602-0.792-1.17-1.596-1.705-2.408
	c2.448,1.914,5.133,3.264,7.941,3.922c-0.944-0.67-1.856-1.423-2.73-2.251c7.009,4.25,14.629,5.645,20.921,3.598
	c-8.455-0.613-17.756-5.883-24.517-14.787c-2.142-2.819-3.863-5.786-5.163-8.787c0.741-1.516,1.578-2.974,2.494-4.36
	c0.256,0.318,0.517,0.629,0.781,0.934c3.65,8.915,10.145,15.349,17.48,17.07c-3.529-2.507-6.618-6.167-8.949-10.629
	c1.024,0.442,2.072,0.791,3.138,1.041c-1.644-1.167-3.19-2.585-4.612-4.216c-1.298-3.173-2.237-6.657-2.728-10.356
	c1.164-1.115,2.395-2.135,3.682-3.039c3.545,4.654,8.049,7.882,12.925,9.027c-4.747-3.372-8.696-8.83-11.08-15.522
	c0.395,0.121,0.791,0.229,1.191,0.322c-0.5-0.354-0.99-0.732-1.47-1.132c-0.939-2.821-1.603-5.851-1.935-9.025
	c-0.307-2.936-0.607-5.71-0.899-8.33c3.636,5.125,8.393,8.688,13.57,9.902c-5.48-3.892-9.896-10.562-12.069-18.701
	c0.523,0.175,1.052,0.324,1.584,0.449c-0.626-0.445-1.239-0.928-1.836-1.443c-0.441-1.822-0.77-3.715-0.973-5.662
	c-0.413-3.941-0.812-7.594-1.196-10.972c0.781,1.067,1.612,2.062,2.486,2.979c-0.007,0.533-0.029,1.063-0.071,1.586
	c0.187-0.369,0.356-0.746,0.518-1.129c3.047,3.055,6.583,5.174,10.34,6.056c-3.57-2.535-6.69-6.252-9.032-10.787
	c0.964-6.338-0.747-13.719-4.9-20.55c-0.246-2.243-0.485-4.378-0.721-6.41c5.538,4.13,9.658,9.267,12.028,14.572
	c0.922,3.312,1.275,6.59,1.036,9.664c3.708-7.396,2.405-17.65-3.341-26.839c1.86-0.043,3.656-0.289,5.354-0.742
	c4.527,4.945,7.4,10.614,8.263,16.09c1.574-6.693-0.677-14.506-5.912-21.324c0.804-0.298,1.582-0.646,2.327-1.047
	c-0.996,0.106-2.016,0.149-3.053,0.132c-0.527-0.642-1.077-1.275-1.657-1.895c4.917,0.599,9.576-0.096,13.407-2.153
	c-5.101,0.542-10.811-0.541-16.348-3.156c6.185,1.491,12.184,1.028,16.918-1.514c-7.997,0.85-17.483-2.291-25.465-9.074
	c-0.15-0.354-0.31-0.705-0.477-1.056c-2.136-6.075-6.359-12.128-12.371-17.021c-2.801-2.281-5.615-4.498-8.368-6.606
	c3.701,1.719,7.798,3.59,12.319,5.624c10.197,4.586,17.423,12.463,19.921,20.564c0.922-10.461-7.36-22.236-20.811-28.286
	c-7.871-3.54-15.724-6.716-22.417-9.173L184.3,44.048l-24.165,11.616c0.289,1.271,0.618,2.484,0.979,3.659L150.867,64.25
	L150.867,64.25z M225.249,121.539L225.249,121.539l-0.01-0.065c0.892,0.578,1.806,1.168,2.743,1.77
	C227.062,122.718,226.148,122.15,225.249,121.539L225.249,121.539z M238.18,130.133c0.897,0.741,1.752,1.507,2.563,2.297
	c-2.121-0.24-4.29-0.722-6.463-1.44c-0.283-0.356-0.573-0.71-0.871-1.062C235.034,130.139,236.63,130.208,238.18,130.133
	L238.18,130.133z M218.168,144.89c0.813,3.579,1.094,7.413,0.973,11.438c-0.531-5.005-1.04-9.519-1.524-13.579
	C217.803,143.456,217.988,144.165,218.168,144.89z"/>
<linearGradient id="SVGID_4_" gradientUnits="userSpaceOnUse" x1="1417.0244" y1="157.9375" x2="1486.4097" y2="157.9375" gradientTransform="matrix(-1 0 0 1 1661.1641 0)">
	<stop  offset="0" style="stop-color:#8EC73F"/>
	<stop  offset="0.2545" style="stop-color:#F05136"/>
	<stop  offset="0.7576" style="stop-color:#7656A4"/>
	<stop  offset="1" style="stop-color:#58290E"/>
</linearGradient>
<path fill-rule="evenodd" clip-rule="evenodd" fill="url(#SVGID_4_)" d="M150.507,54.741c7.898,34.726,43.731,31.479,58.033,89.226
	c6.87,30.201-23.97,78.449-17.1,108.648c1.291,4.952,9.188,31.112,51.079,28.544c-19.143-3.482-29.624-12.334-34.018-22.617
	c6.929,7.841,19.736,15.477,43.284,14.033c-7.898-1.438-14.322-3.791-19.452-6.779c2.567,0.146,5.053-0.142,7.358-0.893
	c-5.691-0.412-11.766-2.936-17.19-7.256c-2.411-2.884-4.169-6.005-5.349-9.247c3.983,2.689,8.217,4.444,12.329,5.151
	c6.601,3.593,13.615,4.675,19.478,2.767c-3.447-0.249-7.035-1.274-10.535-3.003c0.397-0.101,0.79-0.212,1.178-0.34
	c-0.792-0.057-1.592-0.155-2.396-0.293c-4.644-2.527-9.081-6.3-12.764-11.15c-0.602-0.793-1.17-1.597-1.705-2.409
	c2.448,1.914,5.133,3.265,7.94,3.924c-0.943-0.671-1.856-1.424-2.729-2.252c7.009,4.249,14.629,5.645,20.921,3.597
	c-8.455-0.611-17.756-5.882-24.517-14.786c-2.143-2.82-3.863-5.785-5.163-8.788c0.741-1.514,1.577-2.974,2.494-4.36
	c0.256,0.318,0.517,0.63,0.781,0.935c3.65,8.915,10.145,15.349,17.48,17.07c-3.529-2.507-6.618-6.168-8.949-10.631
	c1.024,0.442,2.072,0.793,3.138,1.044c-1.644-1.168-3.19-2.586-4.612-4.219c-1.298-3.171-2.237-6.655-2.728-10.354
	c1.164-1.115,2.395-2.135,3.682-3.039c3.544,4.653,8.048,7.883,12.925,9.026c-4.747-3.371-8.696-8.83-11.08-15.522
	c0.394,0.121,0.791,0.229,1.19,0.322c-0.5-0.354-0.989-0.732-1.47-1.132c-0.938-2.822-1.601-5.851-1.934-9.024
	c-0.308-2.937-0.607-5.71-0.899-8.331c3.636,5.125,8.393,8.688,13.57,9.903c-5.48-3.892-9.896-10.562-12.069-18.702
	c0.523,0.175,1.051,0.325,1.584,0.449c-0.626-0.445-1.24-0.929-1.837-1.443c-0.44-1.823-0.769-3.715-0.973-5.661
	c-0.412-3.942-0.811-7.595-1.197-10.973c0.783,1.066,1.614,2.062,2.487,2.98c-0.006,0.533-0.029,1.062-0.07,1.586
	c0.187-0.369,0.356-0.746,0.517-1.129c3.047,3.055,6.584,5.173,10.341,6.056c-3.57-2.536-6.69-6.253-9.032-10.787
	c0.963-6.338-0.748-13.72-4.9-20.551c-0.246-2.242-0.485-4.377-0.722-6.409c5.539,4.131,9.659,9.266,12.029,14.572
	c0.922,3.312,1.275,6.589,1.036,9.663c3.708-7.396,2.404-17.649-3.341-26.839c1.86-0.043,3.656-0.289,5.354-0.742
	c4.526,4.945,7.4,10.614,8.263,16.089c1.574-6.693-0.677-14.506-5.912-21.323c0.804-0.298,1.581-0.646,2.327-1.047
	c-0.998,0.106-2.016,0.149-3.053,0.132c-0.527-0.642-1.077-1.274-1.657-1.894c4.917,0.599,9.576-0.096,13.405-2.153
	c-5.099,0.542-10.809-0.541-16.345-3.156c6.184,1.49,12.183,1.028,16.917-1.514c-7.997,0.85-17.483-2.292-25.466-9.074
	c-0.149-0.353-0.309-0.705-0.477-1.056c-2.135-6.076-6.358-12.129-12.37-17.021c-2.801-2.28-5.615-4.498-8.369-6.605
	c3.702,1.719,7.799,3.59,12.32,5.624c10.196,4.587,17.422,12.463,19.92,20.564c0.923-10.46-7.359-22.236-20.811-28.285
	c-7.871-3.54-15.724-6.716-22.416-9.173L183.94,34.54l-24.166,11.617c0.289,1.271,0.619,2.484,0.98,3.658L150.507,54.741
	L150.507,54.741z M224.89,112.031L224.89,112.031l-0.01-0.065c0.892,0.577,1.806,1.167,2.743,1.771
	C226.702,113.21,225.789,112.642,224.89,112.031L224.89,112.031z M237.818,120.625c0.899,0.74,1.753,1.507,2.564,2.297
	c-2.119-0.241-4.289-0.723-6.462-1.441c-0.283-0.356-0.573-0.71-0.87-1.061C234.674,120.63,236.271,120.699,237.818,120.625
	L237.818,120.625z M217.809,135.382c0.813,3.578,1.094,7.413,0.973,11.438c-0.531-5.004-1.04-9.519-1.525-13.579
	C217.442,133.947,217.628,134.656,217.809,135.382z"/>
<linearGradient id="SVGID_5_" gradientUnits="userSpaceOnUse" x1="24.1133" y1="99.3652" x2="248.8271" y2="99.3652">
	<stop  offset="0" style="stop-color:#8EC73F"/>
	<stop  offset="0.2545" style="stop-color:#F05136"/>
	<stop  offset="0.7576" style="stop-color:#7656A4"/>
	<stop  offset="1" style="stop-color:#58290E"/>
</linearGradient>
<path fill-rule="evenodd" clip-rule="evenodd" fill="url(#SVGID_5_)" d="M215.964,67.771c15.688,7.444,27.711,20.663,32.863,36.661
	c-11.095-18.652-32.396-31.276-56.856-31.276c-0.404,0-0.807,0.003-1.21,0.011c-8.694,24.237-24.732,40.331-37.804,49.604
	c5.779-6.559,9.505-14.791,11.875-24.574c-7.62,10.376-16.295,18.148-23.952,23.58c4.965-5.635,8.413-12.505,10.791-20.531
	c-8.845,15.57-20.527,26.597-30.487,33.663c12.435-14.113,15.367-35.969,15.74-64.356c-3.936,34.958-12.77,61.562-28.714,72.872
	c5.462-6.199,9.506-14.14,12.487-23.51c-4.647,11.956-10.724,21.089-18.486,26.596c8.196-9.301,13.201-22.521,16.21-38.611
	c-4.964,19.202-12.452,33.632-23.128,41.205c5.421-6.153,9.445-14.021,12.42-23.298c-4.653,12.01-10.743,21.184-18.529,26.708
	c8.452-9.593,13.511-23.354,16.486-40.132c-4.919,21.929-12.777,38.392-24.442,46.667c7.067-8.021,11.761-18.958,14.85-32.132
	c-10.513,32.808-37.768,57.683-65.362,68.518c16.05-10.083,30.662-24.771,40.25-42.729c-7.86,10.501-16.948,18.581-26.088,23.621
	c16.309-14.39,30.531-38.158,35.25-67.426c-7.187,33.667-26.93,59.23-46.922,70.256c9.944-8.773,19.111-21.033,25.823-35.9
	c-9.372,17.336-22.092,30.39-34.916,37.463c8.777-7.745,16.95-18.207,23.363-30.779c-3.29,2.646-6.645,4.916-10.008,6.77
	c4.948-4.366,9.703-9.597,14.06-15.581c1.804-4.378,3.395-8.963,4.734-13.737c-4.904,4.655-10.034,8.461-15.181,11.299
	c6.235-5.501,12.164-12.375,17.375-20.399c0.347-1.719,0.662-3.458,0.943-5.217c-6.656,7.632-13.951,13.63-21.281,17.671
	c10.567-9.324,24.111-30.343,29.133-44.002c-21.525,16.5-35.167,37.876-40.69,57.368c1.036-18.12,10.425-40.066,27.922-58.871
	c-7.698,5.939-14.154,12.522-19.178,19.298c4.687-10.521,13.062-21.292,24.44-30.67C46.784,79.6,35.847,87.22,27.61,95.597
	c7.274-11.655,19.8-22.936,36.031-31.24c-8.687,3.179-16.464,7.256-23.053,11.911c5.787-6.378,13.579-12.245,22.885-17.037
	c-10.37,3.341-19.583,7.954-27.204,13.338c7.816-8.617,19.292-16.299,33.22-21.661c-8.14,1.616-15.65,4.072-22.281,7.169
	c13.615-10.48,34.722-17.542,58.711-17.476c8.406-13.17,21.127-26.342,35.946-34.242c-6.642,6.043-12.857,13.556-18.112,21.469
	c10.378-9.587,23.687-18.067,37.771-22.27c-5.412,3.234-10.762,7.22-15.795,11.631c13.627-7.892,31.214-13.777,48.196-13.892
	c-14.788,3.86-30.456,12.061-42.236,21.158c17.141-8.294,40.25-14.302,55.768-2.969c-12.466-5.355-27.468-0.603-40.333,6.162
	c18.984-5.153,45.598-7.233,59.2,8.348c-10.35-7.516-24.882-6.762-38.277-3.497c19.784,2.289,47.393,10.735,54.062,31.443
	c-7.817-13.141-25.789-17.789-41.688-19.389c18.505,4.285,39.918,14.326,45.667,32.175c-6.343-10.66-19.366-15.73-32.547-18.119
	c14.455,4.728,28.092,13.068,32.515,26.802C240.105,75.416,228.281,70.335,215.964,67.771z"/>
<linearGradient id="SVGID_6_" gradientUnits="userSpaceOnUse" x1="116.9805" y1="43.3047" x2="358.8747" y2="43.3047" gradientTransform="matrix(0.9958 -0.092 0.092 0.9958 -74.5195 61.7632)">
	<stop  offset="0" style="stop-color:#8EC73F"/>
	<stop  offset="0.2545" style="stop-color:#F05136"/>
	<stop  offset="0.7576" style="stop-color:#7656A4"/>
	<stop  offset="1" style="stop-color:#58290E"/>
</linearGradient>
<path fill-rule="evenodd" clip-rule="evenodd" fill="url(#SVGID_6_)" d="M198.161,54.391c13.192,4.83,23.862,14.584,29.204,27.089
	c-10.326-14.201-28.428-22.786-48.133-20.965c-0.326,0.03-0.651,0.063-0.976,0.099c-5.2,20.173-16.922,34.333-26.763,42.776
	c4.168-5.714,6.556-12.624,7.737-20.682c-5.366,8.927-11.776,15.833-17.54,20.779c3.58-4.909,5.847-10.701,7.164-17.344
	c-5.966,13.202-14.557,22.955-22.055,29.389c8.968-12.295,9.703-30.121,7.89-53.019c-0.568,28.456-5.705,50.546-17.708,60.846
	c3.938-5.401,6.605-12.1,8.31-19.87c-2.854,9.977-7.069,17.787-12.913,22.801c5.911-8.104,8.958-19.126,10.186-32.313
	c-2.57,15.839-7.529,28.021-15.566,34.917c3.91-5.36,6.566-11.999,8.272-19.694c-2.855,10.022-7.078,17.866-12.94,22.896
	c6.096-8.356,9.146-19.819,10.294-33.558c-2.331,18.033-7.436,31.881-16.218,39.416c5.097-6.988,8.064-16.147,9.571-26.992
	c-6.028,27.214-26.133,49.281-47.557,60.065c12.179-9.318,22.857-22.238,29.247-37.419c-5.551,9.045-12.271,16.231-19.259,20.972
	c12.068-12.808,21.756-33.014,23.379-56.945c-3.284,27.659-17.286,49.722-32.572,60.095c7.357-7.809,13.83-18.369,18.13-30.846
	c-6.259,14.664-15.535,26.128-25.34,32.782c6.495-6.894,12.3-15.931,16.53-26.537c-2.454,2.377-4.988,4.454-7.559,6.199
	c3.661-3.886,7.102-8.454,10.167-13.6c1.128-3.66,2.068-7.474,2.792-11.418c-3.604,4.116-7.453,7.563-11.389,10.233
	c4.613-4.896,8.878-10.875,12.479-17.728c0.151-1.411,0.275-2.835,0.371-4.273c-4.794,6.644-10.225,12.019-15.829,15.821
	c7.82-8.298,17.166-26.24,20.194-37.618c-16.112,14.896-25.512,33.131-28.51,49.246c-0.515-14.676,5.416-33.055,18.112-49.507
	c-5.76,5.358-10.47,11.142-14.013,16.974c2.992-8.824,8.938-18.125,17.406-26.527c-10.016,5.583-18.26,12.536-24.272,19.898
	c4.993-9.931,14.244-19.951,26.703-27.85c-6.762,3.208-12.725,7.072-17.686,11.312c4.187-5.569,10.027-10.875,17.167-15.429
	c-8.105,3.464-15.185,7.865-20.924,12.771c5.656-7.524,14.33-14.566,25.151-19.923c-6.438,1.908-12.306,4.446-17.416,7.435
	c10.188-9.457,26.667-16.717,45.998-18.449c5.792-11.236,15.06-22.795,26.411-30.262c-4.901,5.364-9.348,11.879-12.994,18.645
	c7.647-8.496,17.738-16.318,28.771-20.752c-4.119,3.008-8.132,6.618-11.859,10.546c10.392-7.373,24.122-13.423,37.793-14.78
	c-11.626,4.21-23.638,11.984-32.451,20.189c13.191-7.958,31.361-14.519,44.706-6.542c-10.441-3.387-22.173,1.56-32.035,7.966
	c14.91-5.564,36.195-9.221,48.316,2.319c-8.899-5.285-20.55-3.596-31.099,0.032c16.109,0.373,38.98,5.122,45.895,21.308
	c-7.277-10.005-22.102-12.412-35.028-12.517c15.226,2.075,33.226,8.57,39.185,22.522c-5.902-8.116-16.773-11.231-27.568-12.174
	c11.996,2.733,23.603,8.436,28.188,19.172C218.18,58.753,208.275,55.539,198.161,54.391z"/>
<linearGradient id="SVGID_7_" gradientUnits="userSpaceOnUse" x1="-78.0718" y1="136.5044" x2="182.807" y2="136.5044" gradientTransform="matrix(0.9945 0.105 -0.105 0.9945 90.4829 -60.8711)">
	<stop  offset="0" style="stop-color:#8EC73F"/>
	<stop  offset="0.2545" style="stop-color:#F05136"/>
	<stop  offset="0.7576" style="stop-color:#7656A4"/>
	<stop  offset="1" style="stop-color:#58290E"/>
</linearGradient>
<path fill-rule="evenodd" clip-rule="evenodd" fill="url(#SVGID_7_)" d="M203.112,62.58c11.992,7.323,20.542,18.979,23.329,32.288
	c-7.343-15.949-23.41-27.916-43.091-29.993c-0.325-0.034-0.649-0.065-0.975-0.094c-9.053,18.762-23.324,30.35-34.628,36.701
	c5.208-4.787,8.903-11.094,11.642-18.764c-7.013,7.702-14.652,13.219-21.274,16.938c4.473-4.112,7.832-9.346,10.425-15.603
	c-8.439,11.777-18.773,19.656-27.388,24.495c11.204-10.298,15.418-27.634,18.129-50.443c-6.135,27.792-15.502,48.447-29.291,56.194
	c4.922-4.524,8.85-10.57,12.044-17.856c-4.754,9.225-10.418,16.057-17.132,19.829c7.384-6.788,12.533-17,16.321-29.69
	c-5.625,15.029-12.875,26.003-22.108,31.19c4.884-4.49,8.791-10.479,11.972-17.691c-4.763,9.268-10.442,16.132-17.177,19.916
	c7.615-7,12.854-17.643,16.673-30.89c-5.821,17.226-13.541,29.804-23.629,35.472c6.368-5.854,11.073-14.253,14.676-24.592
	c-11.245,25.505-35.286,43.204-58.408,49.58c13.77-6.751,26.774-17.328,36.014-30.962c-7.216,7.783-15.214,13.511-22.996,16.791
	c14.345-10.194,27.806-28.11,34.087-51.258c-8.642,26.478-26.697,45.369-43.719,52.543c8.745-6.215,17.163-15.301,23.826-26.693
	c-9.012,13.152-20.355,22.576-31.274,27.179c7.72-5.487,15.184-13.21,21.411-22.782c-2.872,1.85-5.765,3.391-8.627,4.597
	c4.352-3.093,8.621-6.898,12.635-11.343c1.824-3.369,3.493-6.923,4.976-10.65c-4.341,3.33-8.792,5.956-13.173,7.802
	c5.483-3.897,10.838-8.924,15.711-14.938c0.425-1.354,0.826-2.727,1.201-4.118c-6.003,5.575-12.382,9.781-18.623,12.411
	c9.294-6.604,21.976-22.367,27.176-32.93c-18.72,11.448-31.511,27.488-37.609,42.702c2.372-14.491,11.79-31.353,27.464-44.997
	c-6.698,4.125-12.452,8.874-17.068,13.899c4.664-8.067,12.317-16.022,22.269-22.602c-10.916,3.512-20.363,8.714-27.701,14.755
	c6.842-8.76,17.877-16.772,31.643-22.076c-7.259,1.82-13.864,4.44-19.559,7.626c5.197-4.641,11.964-8.699,19.859-11.764
	c-8.627,1.808-16.432,4.735-23.021,8.421c7.021-6.27,16.907-11.476,28.568-14.607c-6.687,0.609-12.938,1.947-18.536,3.876
	c11.845-7.275,29.427-11.165,48.722-9.075c7.883-9.882,19.236-19.401,31.83-24.498c-5.856,4.299-11.495,9.816-16.396,15.736
	c9.164-6.833,20.592-12.526,32.282-14.711c-4.631,2.142-9.272,4.895-13.698,8.017c11.634-5.193,26.286-8.436,39.958-7.085
	c-12.227,1.85-25.529,7.118-35.779,13.437c14.495-5.218,33.6-8.09,45.121,2.347c-9.574-5.367-22.049-2.817-32.975,1.533
	c15.713-2.534,37.302-1.949,46.924,11.744c-7.689-6.926-19.445-7.553-30.5-6.064c15.723,3.522,37.22,12.663,40.825,29.89
	c-5.172-11.237-19.237-16.503-31.895-19.14c14.525,5.02,30.901,14.917,34.011,29.766c-4.197-9.115-14.246-14.301-24.647-17.342
	c11.229,5.032,21.492,12.9,23.885,24.326C221.889,70.781,212.806,65.688,203.112,62.58z"/>
</svg>
