<?xml version="1.0" encoding="utf-8"?>
<!-- Generator: Adobe Illustrator 16.0.0, SVG Export Plug-In . SVG Version: 6.00 Build 0)  -->
<!DOCTYPE svg PUBLIC "-//W3C//DTD SVG 1.1 Basic//EN" "http://www.w3.org/Graphics/SVG/1.1/DTD/svg11-basic.dtd">
<svg version="1.1" baseProfile="basic" id="Layer_1"
	 xmlns="http://www.w3.org/2000/svg" xmlns:xlink="http://www.w3.org/1999/xlink" x="0px" y="0px" width="300px" height="300px"
	 viewBox="0 0 300 300" xml:space="preserve">
<g>
	<g id="XMLID_4_">
		<g>
			<linearGradient id="SVGID_1_" gradientUnits="userSpaceOnUse" x1="4.52" y1="153.0967" x2="294.8877" y2="153.0967">
				<stop  offset="0" style="stop-color:#231F20"/>
				<stop  offset="0" style="stop-color:#231F20"/>
				<stop  offset="0" style="stop-color:#FAAF40"/>
				<stop  offset="0" style="stop-color:#FAAF40"/>
				<stop  offset="0" style="stop-color:#FAAF40"/>
				<stop  offset="0" style="stop-color:#1B75BB"/>
				<stop  offset="0" style="stop-color:#FAAF40"/>
				<stop  offset="0" style="stop-color:#231F20"/>
				<stop  offset="0.4124" style="stop-color:#231F20"/>
				<stop  offset="0.6001" style="stop-color:#231F20"/>
				<stop  offset="1" style="stop-color:#231F20"/>
			</linearGradient>
			<path fill="url(#SVGID_1_)" d="M294.339,198.434c0.36,5.474,0.839,11.066,0.32,16.499c-0.52,5.753-2.357,11.386-3.276,17.099
				c-1.478,9.068-2.396,18.217-3.995,27.245c-2.716,15.341-15.141,26.846-30.641,28.684c-12.744,1.559-25.487,3.236-38.312,4.314
				c-5.752,0.479-11.625-0.52-17.457-0.56c-5.514-0.039-10.986,0.479-16.499,0.479c-21.973-0.04-43.944,0-65.917-0.439
				c-13.862-0.279-27.645-1.758-41.507-2.037c-13.902-0.239-26.686-4.114-39.07-9.827c-4.195-1.958-8.469-3.676-12.584-5.753
				c-5.194-2.597-7.551-7.19-8.629-12.704c-1.558-8.069-3.355-16.1-5.034-24.129c0.28-0.04,0.56-0.08,0.839-0.16
				c-0.679-5.713-1.518-11.425-1.958-17.178c-1.438-18.018-2.637-36.074-4.075-54.091c-0.479-5.953-1.718-11.825-1.837-17.778
				c-0.32-11.625-0.16-23.291-0.04-34.956c0.16-12.264,0.16-24.529,0.919-36.713c0.399-6.432,2.197-12.824,3.476-19.175
				c1.079-5.393,1.958-10.826,3.555-16.06c2.197-7.231,7.71-12.065,13.623-16.339c5.873-4.274,12.824-4.075,19.655-4.634
				c9.868-0.799,19.615-2.676,29.482-3.236c11.066-0.599,22.172-0.12,33.278-0.24c21.493-0.279,43.025-0.479,64.518-1.039
				c9.348-0.24,18.696-1.917,28.044-1.917c11.105,0,22.252,0.919,33.357,1.718c8.07,0.56,16.22,0.919,24.09,2.557
				c10.945,2.317,17.138,10.147,16.02,21.373c-1.238,12.544,1.078,24.449,3.516,36.553c1.198,6.112,1.198,12.504,2.316,18.696
				c1.159,6.512,3.076,12.864,4.515,19.295c0.959,4.235,1.838,8.469,2.396,12.784c1.479,11.985,2.957,23.97,4.115,35.995
				C292.701,174.624,293.54,186.529,294.339,198.434z M290.943,197.955c0.2-3.076,1.479-6.232,1.159-9.229
				c-0.6-5.833-2.277-11.585-3.076-17.458c-1.878-13.942-3.476-27.924-5.273-41.867c-0.919-6.831-1.918-13.703-3.196-20.494
				c-1.398-7.551-3.516-15.021-4.714-22.611c-2.637-16.379-4.914-32.798-7.311-49.058c0.359,0.319,1.198,0.959,2.317,1.798
				c-0.68-10.747-5.114-16.02-14.981-17.498c-6.512-0.958-13.144-1.438-19.695-1.917c-11.425-0.839-22.891-2.037-34.315-2.117
				c-10.107-0.08-20.215,1.438-30.322,1.837c-16.618,0.64-33.237,0.839-49.856,1.318c-22.412,0.679-44.783,1.318-67.195,2.237
				c-2.716,0.08-5.353,1.917-8.069,2.956c-2.038-0.239-4.714-0.279-7.191-0.958c-9.588-2.597-14.062,4.754-19.216,10.147
				c-2.117,2.197-2.557,6.072-3.675,9.188c-1.958,5.353-4.714,10.586-5.553,16.1c-1.438,9.508-1.438,19.215-2.357,28.803
				c-2.038,21.453-2.397,42.945-0.639,64.478c1.558,18.976,2.876,37.991,4.833,56.928c1.518,14.741,3.795,29.402,5.913,44.063
				c1.278,8.908,4.994,16.18,14.182,19.335c4.115,1.398,8.389,2.397,12.304,4.235c9.668,4.474,19.575,6.751,30.321,6.951
				c14.102,0.279,28.204,2.316,42.306,2.836c17.218,0.68,34.476,0.839,51.695,0.839c13.343,0,26.686-0.359,39.988-1.078
				c13.663-0.72,27.365-1.798,40.948-3.276c6.032-0.639,12.345-1.718,17.777-4.194c11.865-5.394,15.221-16.778,17.338-28.444
				c1.678-9.268,2.916-18.576,4.274-27.924c0.479-3.436,0.759-6.911,0.919-10.387C290.784,208.302,290.664,203.148,290.943,197.955z
				"/>
			<linearGradient id="SVGID_2_" gradientUnits="userSpaceOnUse" x1="6.6558" y1="153.1504" x2="292.1533" y2="153.1504">
				<stop  offset="0" style="stop-color:#FAAF40"/>
				<stop  offset="0.1259" style="stop-color:#FAAF40"/>
				<stop  offset="0.1924" style="stop-color:#FAAF40"/>
				<stop  offset="0.4415" style="stop-color:#F9EC31"/>
				<stop  offset="0.4735" style="stop-color:#F9EC31"/>
				<stop  offset="0.5321" style="stop-color:#F9EC31"/>
				<stop  offset="0.7123" style="stop-color:#FAAF40"/>
				<stop  offset="0.7777" style="stop-color:#FAAF40"/>
				<stop  offset="0.9613" style="stop-color:#FAAF40"/>
			</linearGradient>
			<path fill="url(#SVGID_2_)" d="M292.103,188.727c0.319,2.996-0.959,6.152-1.159,9.229c-0.279,5.193-0.159,10.347-0.359,15.54
				c-0.16,3.476-0.439,6.951-0.919,10.387c-1.358,9.348-2.597,18.656-4.274,27.924c-2.117,11.666-5.473,23.051-17.338,28.444
				c-5.433,2.477-11.745,3.556-17.777,4.194c-13.583,1.479-27.285,2.557-40.948,3.276c-13.303,0.719-26.646,1.078-39.988,1.078
				c-17.219,0-34.477-0.159-51.695-0.839c-14.102-0.52-28.204-2.557-42.306-2.836c-10.746-0.2-20.653-2.478-30.321-6.951
				c-3.915-1.838-8.189-2.837-12.304-4.235c-9.188-3.155-12.904-10.427-14.182-19.335c-2.117-14.661-4.395-29.322-5.913-44.063
				c-1.958-18.937-3.275-37.952-4.833-56.928c-1.758-21.533-1.398-43.025,0.639-64.478c0.919-9.588,0.919-19.295,2.357-28.803
				c0.839-5.513,3.595-10.747,5.553-16.1c1.119-3.116,1.558-6.991,3.675-9.188c5.154-5.393,9.628-12.744,19.216-10.147
				c2.477,0.679,5.153,0.719,7.191,0.958c2.716-1.039,5.353-2.876,8.069-2.956c22.412-0.919,44.783-1.558,67.195-2.237
				c16.619-0.479,33.238-0.679,49.856-1.318c10.107-0.399,20.215-1.917,30.322-1.837c11.425,0.08,22.891,1.278,34.315,2.117
				c6.552,0.479,13.184,0.959,19.695,1.917c9.867,1.479,14.302,6.751,14.981,17.498c-1.119-0.839-1.958-1.479-2.317-1.798
				c2.396,16.259,4.674,32.678,7.311,49.058c1.198,7.59,3.315,15.061,4.714,22.611c1.278,6.791,2.277,13.663,3.196,20.494
				c1.798,13.942,3.396,27.924,5.273,41.867C289.825,177.142,291.503,182.894,292.103,188.727z M247.439,215.532
				c6.352-12.064-0.56-32.838-13.144-37.951c-9.148-3.716-18.536-7.071-28.084-9.188c-11.626-2.557-23.53-4.435-35.436-5.233
				c-10.387-0.72-20.893,0.239-31.36,0.839c-6.592,0.399-13.663,0.159-19.615,2.517c-12.903,5.073-25.527,10.986-36.553,19.735
				c-9.108,7.23-18.376,14.341-15.82,27.325c0,3.075,0,5.353,0,7.63c-0.08,4.993,1.797,8.509,6.671,10.666
				c6.552,2.957,13.303,4.354,20.334,3.036c7.151-1.318,14.382-2.597,21.133-5.113c11.825-4.395,23.69-6.312,36.354-5.912
				c12.743,0.439,25.527-3.236,38.111,2.717c5.753,2.716,12.783,2.517,18.976,4.514
				C224.188,235.946,239.929,229.794,247.439,215.532z M196.783,105.952c0.999-6.392-1.718-11.306-5.513-15.939
				c-2.477-2.957-8.509-4.674-10.347-2.597c-2.197,2.597-4.595,5.473-5.474,8.629c-1.718,6.192-2.437,12.624-3.555,18.976
				c-0.6,6.272,1.797,11.066,5.832,15.541c3.955,4.434,8.03,5.113,12.145,0.839c2.237-2.357,4.234-5.553,4.914-8.669
				C195.984,117.257,195.904,111.505,196.783,105.952z M116.965,134.915c0.36-10.147,0.919-20.294,0.6-30.401
				c-0.12-5.153-0.439-10.906-5.034-14.542c-2.078-1.678-4.994-3.476-7.431-3.316c-5.034,0.399-13.423,11.146-13.303,16.459
				c0.24,12.305,3.036,23.93,9.908,34.316c1.917,2.917,4.594,3.835,7.99,2.397c1.638-0.719,3.476-0.999,6.312-1.758
				C116.086,137.831,116.925,136.393,116.965,134.915z"/>
			<path d="M111.932,226.198c0,0.04,0.04,0.08,0.08,0.12c0-0.04,0-0.04,0-0.08c0.28,0.16,0.56,0.36,0.799,0.28
				c8.229-1.998,16.419-3.955,24.608-6.112c0.719-0.2,1.558-1.718,1.518-2.597c-0.16-5.193-0.519-10.387-0.879-16.459
				c-10.147,1.358-19.136,2.517-28.604,3.755c0.479,3.116,0.959,5.593,1.238,8.149c0.479,4.314,0.879,8.669,1.318,12.983
				C111.971,226.238,111.971,226.238,111.932,226.198z M111.892,226.198c-0.919-0.998-2.197-1.877-2.477-3.036
				c-1.398-5.752-2.477-11.585-3.715-17.617c-8.549,1.119-16.778,2.197-25.048,3.236c-0.16-0.479-0.32-0.959-0.52-1.398
				c1.638-0.879,3.196-2.237,4.954-2.517c5.233-0.879,10.587-1.079,15.82-2.078c1.598-0.279,4.195-2.316,4.115-3.355
				c-0.679-6.991-1.998-13.942-3.076-20.894c-0.56-0.319-1.159-0.599-1.718-0.919c-5.873,3.796-12.145,7.111-17.498,11.506
				c-5.792,4.754-11.905,9.787-11.825,18.536c0,4.195,0.399,8.47-0.28,12.584c-0.959,5.753,2.357,8.229,6.751,9.588
				C89.32,233.589,100.826,231.752,111.892,226.198z M234.296,177.581c12.584,5.113,19.495,25.887,13.144,37.951
				c-7.511,14.262-23.251,20.414-38.432,15.58c-6.192-1.997-13.223-1.798-18.976-4.514c-12.584-5.953-25.368-2.277-38.111-2.717
				c-12.664-0.399-24.529,1.518-36.354,5.912c-6.751,2.517-13.982,3.795-21.133,5.113c-7.031,1.318-13.782-0.079-20.334-3.036
				c-4.874-2.157-6.751-5.673-6.671-10.666c0-2.277,0-4.555,0-7.63c-2.557-12.984,6.711-20.095,15.82-27.325
				c11.026-8.749,23.65-14.662,36.553-19.735c5.953-2.357,13.023-2.117,19.615-2.517c10.467-0.6,20.973-1.559,31.36-0.839
				c11.905,0.799,23.81,2.677,35.436,5.233C215.76,170.51,225.147,173.865,234.296,177.581z M229.022,226.278
				c9.348-2.637,20.334-11.944,16.02-26.605c-6.192,0-12.504,0-19.295,0c0.559,2.956,1.278,5.792,1.598,8.629
				C228.023,214.294,228.463,220.286,229.022,226.278c-0.04,0.04-0.04,0.04-0.08,0.04c-0.999-0.998-2.597-1.917-2.796-3.076
				c-1.119-6.631-1.718-13.343-2.877-19.975c-0.559-3.275-2.117-5.473-6.432-5.153c-7.031,0.479-14.102,0.08-21.173,0.04
				c-1.998,0-3.995,0-6.112,0c0.679,7.71,1.238,14.621,1.997,21.532c0.12,0.919,1.358,2.078,2.357,2.438
				c5.912,2.117,11.825,4.395,17.897,5.912c5.792,1.479,11.745,2.038,17.138-1.718c0.04,0.04,0.04,0.04,0.08,0.08
				C229.022,226.358,229.022,226.318,229.022,226.278z M220.074,194.519c1.518-5.952-2.957-11.146,0.079-17.298
				c-6.312-2.356-12.584-5.353-19.215-6.951c-7.111-1.758-14.542-2.716-21.893-3.195s-14.821-0.08-22.212,0.119
				c-3.115,0.08-6.232,0.879-9.308,0.879c-3.516-0.039-6.991-0.599-10.986-0.998c1.278,10.626,2.397,19.895,3.556,29.802
				c15.341-1.238,30.042-2.437,45.462-3.675c-0.599-3.796-0.999-7.591-1.798-11.346c-1.518-7.151-1.558-7.511,1.878-9.628
				c1.158,7.23,2.357,14.541,3.596,22.291C199.899,194.519,210.127,194.519,220.074,194.519z"/>
			<linearGradient id="SVGID_3_" gradientUnits="userSpaceOnUse" x1="225.7471" y1="212.9756" x2="246.0088" y2="212.9756">
				<stop  offset="0" style="stop-color:#26A9E0"/>
				<stop  offset="0" style="stop-color:#26A9E0"/>
				<stop  offset="0" style="stop-color:#26A9E0"/>
				<stop  offset="0" style="stop-color:#26A9E0"/>
				<stop  offset="0" style="stop-color:#26A9E0"/>
				<stop  offset="0.3197" style="stop-color:#FFFFFF"/>
				<stop  offset="0.5218" style="stop-color:#FFFFFF"/>
				<stop  offset="0.6672" style="stop-color:#FFFFFF"/>
				<stop  offset="1" style="stop-color:#26A9E0"/>
				<stop  offset="1" style="stop-color:#26A9E0"/>
			</linearGradient>
			<path fill="url(#SVGID_3_)" d="M245.042,199.673c4.314,14.661-6.672,23.969-16.02,26.605c-0.56-5.992-0.999-11.984-1.678-17.977
				c-0.319-2.837-1.039-5.673-1.598-8.629C232.538,199.673,238.85,199.673,245.042,199.673z"/>
			<linearGradient id="SVGID_4_" gradientUnits="userSpaceOnUse" x1="189.5527" y1="213.624" x2="228.9424" y2="213.624">
				<stop  offset="0" style="stop-color:#26A9E0"/>
				<stop  offset="0" style="stop-color:#26A9E0"/>
				<stop  offset="0" style="stop-color:#26A9E0"/>
				<stop  offset="0" style="stop-color:#26A9E0"/>
				<stop  offset="0" style="stop-color:#26A9E0"/>
				<stop  offset="0.3197" style="stop-color:#FFFFFF"/>
				<stop  offset="0.5218" style="stop-color:#FFFFFF"/>
				<stop  offset="0.6672" style="stop-color:#FFFFFF"/>
				<stop  offset="1" style="stop-color:#26A9E0"/>
				<stop  offset="1" style="stop-color:#26A9E0"/>
			</linearGradient>
			<path fill="url(#SVGID_4_)" d="M226.146,223.242c0.199,1.159,1.797,2.078,2.796,3.076c-5.393,3.756-11.346,3.196-17.138,1.718
				c-6.072-1.518-11.985-3.795-17.897-5.912c-0.999-0.359-2.237-1.519-2.357-2.438c-0.759-6.911-1.318-13.822-1.997-21.532
				c2.117,0,4.114,0,6.112,0c7.071,0.04,14.142,0.439,21.173-0.04c4.314-0.319,5.873,1.878,6.432,5.153
				C224.429,209.899,225.027,216.611,226.146,223.242z"/>
			<linearGradient id="SVGID_5_" gradientUnits="userSpaceOnUse" x1="136.54" y1="181.8613" x2="220.3984" y2="181.8613">
				<stop  offset="0" style="stop-color:#26A9E0"/>
				<stop  offset="0" style="stop-color:#26A9E0"/>
				<stop  offset="0" style="stop-color:#26A9E0"/>
				<stop  offset="0" style="stop-color:#26A9E0"/>
				<stop  offset="0" style="stop-color:#26A9E0"/>
				<stop  offset="0.3197" style="stop-color:#FFFFFF"/>
				<stop  offset="0.5218" style="stop-color:#FFFFFF"/>
				<stop  offset="0.6672" style="stop-color:#FFFFFF"/>
				<stop  offset="1" style="stop-color:#26A9E0"/>
				<stop  offset="1" style="stop-color:#26A9E0"/>
			</linearGradient>
			<path fill="url(#SVGID_5_)" d="M220.153,177.221c-3.036,6.152,1.438,11.346-0.079,17.298c-9.947,0-20.175,0-30.841,0
				c-1.238-7.75-2.438-15.061-3.596-22.291c-3.436,2.117-3.396,2.477-1.878,9.628c0.799,3.755,1.199,7.55,1.798,11.346
				c-15.42,1.238-30.121,2.437-45.462,3.675c-1.159-9.907-2.277-19.176-3.556-29.802c3.995,0.399,7.471,0.959,10.986,0.998
				c3.076,0,6.192-0.799,9.308-0.879c7.391-0.199,14.861-0.599,22.212-0.119s14.781,1.438,21.893,3.195
				C207.569,171.868,213.842,174.864,220.153,177.221z"/>
			<path d="M191.271,90.012c3.795,4.634,6.512,9.548,5.513,15.939c-0.879,5.553-0.799,11.306-1.997,16.779
				c-0.68,3.116-2.677,6.312-4.914,8.669c-4.114,4.274-8.189,3.595-12.145-0.839c-4.035-4.475-6.432-9.268-5.832-15.541
				c1.118-6.352,1.837-12.784,3.555-18.976c0.879-3.156,3.276-6.032,5.474-8.629C182.762,85.338,188.794,87.056,191.271,90.012z
				 M183.48,120.693c5.912-5.712,6.352-18.736,0.879-23.011C179.166,105.113,181.004,112.623,183.48,120.693z"/>
			<linearGradient id="SVGID_6_" gradientUnits="userSpaceOnUse" x1="181.0322" y1="109.1875" x2="188.2031" y2="109.1875">
				<stop  offset="0" style="stop-color:#26A9E0"/>
				<stop  offset="0" style="stop-color:#26A9E0"/>
				<stop  offset="0" style="stop-color:#26A9E0"/>
				<stop  offset="0" style="stop-color:#26A9E0"/>
				<stop  offset="0" style="stop-color:#26A9E0"/>
				<stop  offset="0.3197" style="stop-color:#FFFFFF"/>
				<stop  offset="0.5218" style="stop-color:#FFFFFF"/>
				<stop  offset="0.6672" style="stop-color:#FFFFFF"/>
				<stop  offset="1" style="stop-color:#26A9E0"/>
				<stop  offset="1" style="stop-color:#26A9E0"/>
			</linearGradient>
			<path fill="url(#SVGID_6_)" d="M184.359,97.682c5.473,4.275,5.033,17.298-0.879,23.011
				C181.004,112.623,179.166,105.113,184.359,97.682z"/>
			<linearGradient id="SVGID_7_" gradientUnits="userSpaceOnUse" x1="109.4546" y1="213.9434" x2="138.9385" y2="213.9434">
				<stop  offset="0" style="stop-color:#26A9E0"/>
				<stop  offset="0" style="stop-color:#26A9E0"/>
				<stop  offset="0" style="stop-color:#26A9E0"/>
				<stop  offset="0" style="stop-color:#26A9E0"/>
				<stop  offset="0" style="stop-color:#26A9E0"/>
				<stop  offset="0.3197" style="stop-color:#FFFFFF"/>
				<stop  offset="0.5218" style="stop-color:#FFFFFF"/>
				<stop  offset="0.6672" style="stop-color:#FFFFFF"/>
				<stop  offset="1" style="stop-color:#26A9E0"/>
				<stop  offset="1" style="stop-color:#26A9E0"/>
			</linearGradient>
			<path fill="url(#SVGID_7_)" d="M138.937,217.81c0.04,0.879-0.799,2.396-1.518,2.597c-8.189,2.157-16.379,4.114-24.608,6.112
				c-0.24,0.08-0.52-0.12-0.799-0.28c-0.439-4.314-0.839-8.669-1.318-12.983c-0.279-2.557-0.759-5.033-1.238-8.149
				c9.468-1.238,18.457-2.396,28.604-3.755C138.418,207.423,138.777,212.616,138.937,217.81z"/>
			<path d="M117.564,104.514c0.319,10.107-0.24,20.254-0.6,30.401c-0.04,1.478-0.879,2.916-0.958,3.156
				c-2.836,0.759-4.674,1.039-6.312,1.758c-3.396,1.438-6.072,0.52-7.99-2.397c-6.872-10.387-9.668-22.012-9.908-34.316
				c-0.12-5.313,8.27-16.06,13.303-16.459c2.437-0.16,5.353,1.638,7.431,3.316C117.125,93.607,117.444,99.36,117.564,104.514z
				 M105.14,117.217c5.913-7.031,5.553-17.937-0.399-20.893C101.904,103.155,101.305,109.867,105.14,117.217z"/>
			<linearGradient id="SVGID_8_" gradientUnits="userSpaceOnUse" x1="70.458" y1="204.7109" x2="111.8916" y2="204.7109">
				<stop  offset="0" style="stop-color:#26A9E0"/>
				<stop  offset="0" style="stop-color:#26A9E0"/>
				<stop  offset="0" style="stop-color:#26A9E0"/>
				<stop  offset="0" style="stop-color:#26A9E0"/>
				<stop  offset="0" style="stop-color:#26A9E0"/>
				<stop  offset="0.3197" style="stop-color:#FFFFFF"/>
				<stop  offset="0.5218" style="stop-color:#FFFFFF"/>
				<stop  offset="0.6672" style="stop-color:#FFFFFF"/>
				<stop  offset="1" style="stop-color:#26A9E0"/>
				<stop  offset="1" style="stop-color:#26A9E0"/>
			</linearGradient>
			<path fill="url(#SVGID_8_)" d="M109.415,223.162c0.28,1.159,1.558,2.038,2.477,3.036c-11.066,5.554-22.571,7.391-34.516,3.636
				c-4.395-1.358-7.71-3.835-6.751-9.588c0.679-4.114,0.28-8.389,0.28-12.584c-0.08-8.749,6.032-13.782,11.825-18.536
				c5.354-4.395,11.625-7.71,17.498-11.506c0.559,0.32,1.158,0.6,1.718,0.919c1.079,6.951,2.397,13.902,3.076,20.894
				c0.08,1.039-2.517,3.076-4.115,3.355c-5.233,0.999-10.586,1.199-15.82,2.078c-1.758,0.279-3.315,1.638-4.954,2.517
				c0.2,0.439,0.36,0.919,0.52,1.398c8.27-1.039,16.499-2.117,25.048-3.236C106.938,211.577,108.017,217.41,109.415,223.162z"/>
			<linearGradient id="SVGID_9_" gradientUnits="userSpaceOnUse" x1="102.438" y1="106.7705" x2="109.394" y2="106.7705">
				<stop  offset="0" style="stop-color:#26A9E0"/>
				<stop  offset="0" style="stop-color:#26A9E0"/>
				<stop  offset="0" style="stop-color:#26A9E0"/>
				<stop  offset="0" style="stop-color:#26A9E0"/>
				<stop  offset="0" style="stop-color:#26A9E0"/>
				<stop  offset="0.3197" style="stop-color:#FFFFFF"/>
				<stop  offset="0.5218" style="stop-color:#FFFFFF"/>
				<stop  offset="0.6672" style="stop-color:#FFFFFF"/>
				<stop  offset="1" style="stop-color:#26A9E0"/>
				<stop  offset="1" style="stop-color:#26A9E0"/>
			</linearGradient>
			<path fill="url(#SVGID_9_)" d="M104.741,96.324c5.952,2.956,6.312,13.862,0.399,20.893
				C101.305,109.867,101.904,103.155,104.741,96.324z"/>
		</g>
		<g>
		</g>
	</g>
</g>
<g>
</g>
<g>
</g>
<g>
</g>
<g>
</g>
<g>
</g>
<g>
</g>
<g>
</g>
<g>
</g>
<g>
</g>
<g>
</g>
<g>
</g>
<g>
</g>
<g>
</g>
<g>
</g>
<g>
</g>
</svg>
