<?xml version="1.0" encoding="utf-8"?>
<!DOCTYPE svg PUBLIC "-//W3C//DTD SVG 1.1 Basic//EN" "http://www.w3.org/Graphics/SVG/1.1/DTD/svg11-basic.dtd">
<svg version="1.1" baseProfile="basic" id="Layer_1"
	 xmlns="http://www.w3.org/2000/svg" xmlns:xlink="http://www.w3.org/1999/xlink" x="0px" y="0px" width="300px" height="300px"
	 viewBox="0 0 300 300" xml:space="preserve">
<g>
	
		<rect x="211.999" y="130.039" transform="matrix(0.7072 -0.707 0.707 0.7072 -93.8087 221.5576)" fill="#675044" width="17.173" height="187.993"/>
	
		<rect x="212.087" y="130.094" transform="matrix(0.7072 -0.707 0.707 0.7072 -93.8179 221.5797)" fill="#685045" width="17.042" height="187.928"/>
	
		<rect x="212.175" y="130.148" transform="matrix(0.7072 -0.707 0.707 0.7072 -93.8275 221.6024)" fill="#695145" width="16.91" height="187.865"/>
	
		<rect x="212.264" y="130.204" transform="matrix(0.7072 -0.707 0.707 0.7072 -93.8372 221.6253)" fill="#6A5146" width="16.779" height="187.8"/>
	
		<rect x="212.352" y="130.259" transform="matrix(0.7072 -0.707 0.707 0.7072 -93.8465 221.6475)" fill="#6B5246" width="16.648" height="187.735"/>
	
		<rect x="212.44" y="130.313" transform="matrix(0.7072 -0.707 0.707 0.7072 -93.8557 221.6833)" fill="#6C5347" width="16.518" height="187.671"/>
	
		<rect x="212.528" y="130.368" transform="matrix(0.7072 -0.707 0.707 0.7072 -93.8654 221.7057)" fill="#6D5347" width="16.386" height="187.607"/>
	
		<rect x="212.617" y="130.423" transform="matrix(0.7072 -0.707 0.707 0.7072 -93.8744 221.715)" fill="#6E5448" width="16.256" height="187.542"/>
	
		<rect x="212.706" y="130.479" transform="matrix(0.7072 -0.707 0.707 0.7072 -93.8842 221.7242)" fill="#6F5448" width="16.124" height="187.477"/>
	
		<rect x="212.794" y="130.533" transform="matrix(0.7072 -0.707 0.707 0.7072 -93.8937 221.7734)" fill="#705548" width="15.993" height="187.414"/>
	
		<rect x="212.882" y="130.589" transform="matrix(0.7072 -0.707 0.707 0.7072 -93.9031 221.7822)" fill="#715549" width="15.861" height="187.348"/>
	
		<rect x="212.971" y="130.643" transform="matrix(0.7072 -0.707 0.707 0.7072 -93.9124 221.8187)" fill="#725649" width="15.73" height="187.285"/>
	
		<rect x="213.059" y="130.698" transform="matrix(0.7072 -0.707 0.707 0.7072 -93.9217 221.8408)" fill="#73564A" width="15.599" height="187.22"/>
	
		<rect x="213.147" y="130.753" transform="matrix(0.7072 -0.707 0.707 0.7072 -93.9311 221.8494)" fill="#74574A" width="15.469" height="187.156"/>
	
		<rect x="213.235" y="130.809" transform="matrix(0.7072 -0.707 0.707 0.7072 -93.9411 221.8862)" fill="#75584B" width="15.337" height="187.091"/>
	
		<rect x="213.323" y="130.864" transform="matrix(0.7072 -0.707 0.707 0.7072 -93.9503 221.8942)" fill="#76584B" width="15.206" height="187.027"/>
	
		<rect x="213.411" y="130.918" transform="matrix(0.7072 -0.707 0.707 0.7072 -93.9594 221.9168)" fill="#77594C" width="15.076" height="186.962"/>
	
		<rect x="213.5" y="130.973" transform="matrix(0.7072 -0.707 0.707 0.7072 -93.969 221.9391)" fill="#78594C" width="14.944" height="186.898"/>
	
		<rect x="213.588" y="131.028" transform="matrix(0.7072 -0.707 0.707 0.7072 -93.9783 221.976)" fill="#795A4D" width="14.813" height="186.833"/>
	
		<rect x="213.677" y="131.084" transform="matrix(0.7072 -0.707 0.707 0.7072 -93.9881 221.984)" fill="#7A5A4D" width="14.681" height="186.768"/>
	
		<rect x="213.765" y="131.139" transform="matrix(0.7072 -0.707 0.707 0.7072 -93.9971 222.0066)" fill="#7B5B4D" width="14.552" height="186.704"/>
	
		<rect x="213.854" y="131.194" transform="matrix(0.7072 -0.707 0.707 0.7072 -94.0069 222.0438)" fill="#7C5C4E" width="14.42" height="186.64"/>
	
		<rect x="213.941" y="131.248" transform="matrix(0.7072 -0.707 0.707 0.7072 -94.0163 222.0658)" fill="#7D5C4E" width="14.289" height="186.576"/>
	
		<rect x="214.03" y="131.303" transform="matrix(0.7072 -0.707 0.707 0.7072 -94.0253 222.0732)" fill="#7E5D4F" width="14.158" height="186.51"/>
	
		<rect x="214.119" y="131.359" transform="matrix(0.7072 -0.707 0.707 0.7072 -94.035 222.096)" fill="#7F5D4F" width="14.027" height="186.446"/>
	
		<rect x="214.206" y="131.414" transform="matrix(0.7072 -0.707 0.707 0.7072 -94.0444 222.1178)" fill="#805E50" width="13.896" height="186.381"/>
	
		<rect x="214.295" y="131.468" transform="matrix(0.7072 -0.707 0.707 0.7072 -94.0537 222.156)" fill="#815E50" width="13.765" height="186.318"/>
	
		<rect x="214.383" y="131.524" transform="matrix(0.7072 -0.707 0.707 0.7072 -94.0636 222.1786)" fill="#825F51" width="13.634" height="186.253"/>
	
		<rect x="214.472" y="131.579" transform="matrix(0.7072 -0.707 0.707 0.7072 -94.073 222.1851)" fill="#836051" width="13.502" height="186.188"/>
	
		<rect x="214.56" y="131.634" transform="matrix(0.7072 -0.707 0.707 0.7072 -94.0822 222.2239)" fill="#846052" width="13.371" height="186.124"/>
	
		<rect x="214.648" y="131.688" transform="matrix(0.7072 -0.707 0.707 0.7072 -94.0915 222.2461)" fill="#856152" width="13.24" height="186.06"/>
	
		<rect x="214.737" y="131.744" transform="matrix(0.7072 -0.707 0.707 0.7072 -94.101 222.2517)" fill="#866152" width="13.108" height="185.995"/>
	
		<rect x="214.825" y="131.799" transform="matrix(0.7072 -0.707 0.707 0.7072 -94.1109 222.2913)" fill="#876253" width="12.978" height="185.931"/>
	
		<rect x="214.913" y="131.853" transform="matrix(0.7071 -0.7071 0.7071 0.7071 -94.1198 222.3299)" fill="#886253" width="12.847" height="185.867"/>
	
		<rect x="215.002" y="131.909" transform="matrix(0.7072 -0.707 0.707 0.7072 -94.1295 222.3356)" fill="#896354" width="12.715" height="185.802"/>
	
		<rect x="215.09" y="131.964" transform="matrix(0.7072 -0.707 0.707 0.7072 -94.1387 222.3413)" fill="#8A6454" width="12.585" height="185.737"/>
	
		<rect x="215.179" y="132.019" transform="matrix(0.7072 -0.707 0.707 0.7072 -94.1481 222.3807)" fill="#8B6455" width="12.453" height="185.673"/>
	
		<rect x="215.267" y="132.073" transform="matrix(0.7072 -0.707 0.707 0.7072 -94.1574 222.4028)" fill="#8C6555" width="12.322" height="185.608"/>
	
		<rect x="215.355" y="132.128" transform="matrix(0.7072 -0.707 0.707 0.7072 -94.1669 222.4253)" fill="#8D6556" width="12.191" height="185.544"/>
	
		<rect x="215.444" y="132.184" transform="matrix(0.7072 -0.707 0.707 0.7072 -94.1766 222.4299)" fill="#8E6656" width="12.06" height="185.479"/>
	
		<rect x="215.532" y="132.239" transform="matrix(0.7072 -0.707 0.707 0.7072 -94.186 222.4701)" fill="#8F6657" width="11.928" height="185.415"/>
	
		<rect x="215.62" y="132.293" transform="matrix(0.7072 -0.707 0.707 0.7072 -94.1953 222.4925)" fill="#906757" width="11.798" height="185.351"/>
	
		<rect x="215.708" y="132.349" transform="matrix(0.7073 -0.7069 0.7069 0.7073 -94.2048 222.4778)" fill="#916857" width="11.667" height="185.285"/>
	
		<rect x="215.797" y="132.404" transform="matrix(0.7072 -0.707 0.707 0.7072 -94.2146 222.5377)" fill="#926858" width="11.536" height="185.222"/>
	
		<rect x="215.885" y="132.459" transform="matrix(0.7071 -0.7071 0.7071 0.7071 -94.224 222.5788)" fill="#936958" width="11.404" height="185.158"/>
	
		<rect x="215.974" y="132.514" transform="matrix(0.7072 -0.707 0.707 0.7072 -94.233 222.582)" fill="#946959" width="11.274" height="185.093"/>
	
		<rect x="216.062" y="132.569" transform="matrix(0.7073 -0.7069 0.7069 0.7073 -94.2422 222.5654)" fill="#956A59" width="11.142" height="185.028"/>
	
		<rect x="216.15" y="132.624" transform="matrix(0.7072 -0.707 0.707 0.7072 -94.2522 222.6267)" fill="#966A5A" width="11.011" height="184.964"/>
	
		<rect x="216.238" y="132.678" transform="matrix(0.7072 -0.7071 0.7071 0.7072 -94.2611 222.6689)" fill="#976B5A" width="10.881" height="184.901"/>
	
		<rect x="216.326" y="132.733" transform="matrix(0.7072 -0.707 0.707 0.7072 -94.2704 222.6507)" fill="#986B5B" width="10.75" height="184.835"/>
	
		<rect x="216.415" y="132.789" transform="matrix(0.7072 -0.707 0.707 0.7072 -94.28 222.6938)" fill="#996C5B" width="10.619" height="184.77"/>
	
		<rect x="216.503" y="132.843" transform="matrix(0.7072 -0.7071 0.7071 0.7072 -94.2898 222.7367)" fill="#9A6D5C" width="10.487" height="184.707"/>
	
		<rect x="216.592" y="132.899" transform="matrix(0.7072 -0.707 0.707 0.7072 -94.2991 222.7383)" fill="#9B6D5C" width="10.357" height="184.641"/>
	
		<rect x="216.68" y="132.954" transform="matrix(0.7073 -0.707 0.707 0.7073 -94.3083 222.7388)" fill="#9C6E5D" width="10.225" height="184.577"/>
	
		<rect x="216.768" y="133.009" transform="matrix(0.7072 -0.707 0.707 0.7072 -94.3179 222.7826)" fill="#9D6E5D" width="10.094" height="184.513"/>
	
		<rect x="216.857" y="133.063" transform="matrix(0.7072 -0.7071 0.7071 0.7072 -94.3278 222.8265)" fill="#9E6F5D" width="9.962" height="184.449"/>
	
		<rect x="216.945" y="133.118" transform="matrix(0.7072 -0.707 0.707 0.7072 -94.3367 222.8268)" fill="#9F6F5E" width="9.832" height="184.384"/>
	
		<rect x="217.033" y="133.173" transform="matrix(0.7073 -0.707 0.707 0.7073 -94.3457 222.8265)" fill="#A0705E" width="9.701" height="184.319"/>
	
		<rect x="217.122" y="133.228" transform="matrix(0.7072 -0.707 0.707 0.7072 -94.3555 222.871)" fill="#A1715F" width="9.569" height="184.256"/>
	
		<rect x="217.21" y="133.283" transform="matrix(0.7072 -0.7071 0.7071 0.7072 -94.3651 222.9168)" fill="#A2715F" width="9.439" height="184.191"/>
	
		<rect x="217.299" y="133.339" transform="matrix(0.7072 -0.707 0.707 0.7072 -94.3745 222.9156)" fill="#A37260" width="9.307" height="184.126"/>
	
		<rect x="217.386" y="133.393" transform="matrix(0.7072 -0.707 0.707 0.7072 -94.384 222.937)" fill="#A47260" width="9.176" height="184.062"/>
	
		<rect x="217.475" y="133.449" transform="matrix(0.7072 -0.707 0.707 0.7072 -94.3937 222.9598)" fill="#A57361" width="9.045" height="183.997"/>
	
		<rect x="217.564" y="133.504" transform="matrix(0.7072 -0.7071 0.7071 0.7072 -94.4029 223.0067)" fill="#A67361" width="8.914" height="183.933"/>
	
		<rect x="217.652" y="133.559" transform="matrix(0.7072 -0.707 0.707 0.7072 -94.4124 223.0041)" fill="#A77462" width="8.782" height="183.868"/>
	
		<rect x="217.74" y="133.613" transform="matrix(0.7072 -0.707 0.707 0.7072 -94.4213 223.0257)" fill="#A87562" width="8.652" height="183.804"/>
	
		<rect x="217.828" y="133.668" transform="matrix(0.7071 -0.7071 0.7071 0.7071 -94.4312 223.0991)" fill="#A97562" width="8.521" height="183.74"/>
	
		<rect x="217.917" y="133.723" transform="matrix(0.7072 -0.707 0.707 0.7072 -94.4403 223.07)" fill="#AA7663" width="8.39" height="183.675"/>
	
		<rect x="218.005" y="133.778" transform="matrix(0.7072 -0.707 0.707 0.7072 -94.4494 223.0919)" fill="#AB7663" width="8.259" height="183.611"/>
	
		<rect x="218.093" y="133.833" transform="matrix(0.7072 -0.707 0.707 0.7072 -94.4593 223.1406)" fill="#AC7764" width="8.128" height="183.546"/>
	
		<rect x="218.182" y="133.889" transform="matrix(0.7072 -0.707 0.707 0.7072 -94.4689 223.1627)" fill="#AD7764" width="7.996" height="183.482"/>
	
		<rect x="218.27" y="133.943" transform="matrix(0.7072 -0.707 0.707 0.7072 -94.4781 223.1851)" fill="#AE7865" width="7.866" height="183.418"/>
	
		<rect x="218.358" y="133.998" transform="matrix(0.7072 -0.707 0.707 0.7072 -94.4875 223.1789)" fill="#AF7965" width="7.734" height="183.353"/>
	
		<rect x="218.446" y="134.053" transform="matrix(0.7072 -0.707 0.707 0.7072 -94.4969 223.2295)" fill="#B07966" width="7.603" height="183.289"/>
	
		<rect x="218.535" y="134.109" transform="matrix(0.7072 -0.707 0.707 0.7072 -94.5067 223.2521)" fill="#B17A66" width="7.472" height="183.224"/>
	
		<rect x="218.623" y="134.164" transform="matrix(0.7072 -0.707 0.707 0.7072 -94.5159 223.2744)" fill="#B27A67" width="7.341" height="183.159"/>
	
		<rect x="218.712" y="134.219" transform="matrix(0.7072 -0.707 0.707 0.7072 -94.5251 223.2665)" fill="#B37B67" width="7.211" height="183.095"/>
	
		<rect x="218.8" y="134.273" transform="matrix(0.7071 -0.7071 0.7071 0.7071 -94.5349 223.3496)" fill="#B47B67" width="7.079" height="183.032"/>
	
		<rect x="218.888" y="134.328" transform="matrix(0.7071 -0.7071 0.7071 0.7071 -94.5443 223.3721)" fill="#B57C68" width="6.948" height="182.967"/>
	
		<rect x="218.977" y="134.384" transform="matrix(0.7072 -0.707 0.707 0.7072 -94.5538 223.3631)" fill="#B67D68" width="6.816" height="182.902"/>
	
		<rect x="219.065" y="134.439" transform="matrix(0.7072 -0.707 0.707 0.7072 -94.5629 223.3856)" fill="#B77D69" width="6.686" height="182.837"/>
	
		<rect x="219.154" y="134.494" transform="matrix(0.7072 -0.707 0.707 0.7072 -94.5725 223.4075)" fill="#B87E69" width="6.554" height="182.773"/>
	
		<rect x="219.242" y="134.548" transform="matrix(0.7072 -0.707 0.707 0.7072 -94.5817 223.4296)" fill="#B97E6A" width="6.424" height="182.708"/>
	
		<rect x="219.33" y="134.603" transform="matrix(0.7073 -0.707 0.707 0.7073 -94.5909 223.4171)" fill="#BA7F6A" width="6.292" height="182.644"/>
	
		<rect x="219.418" y="134.659" transform="matrix(0.7072 -0.707 0.707 0.7072 -94.6008 223.4737)" fill="#BB7F6B" width="6.162" height="182.579"/>
	
		<rect x="219.507" y="134.713" transform="matrix(0.7071 -0.7071 0.7071 0.7071 -94.6107 223.5319)" fill="#BC806B" width="6.03" height="182.516"/>
	
		<rect x="219.595" y="134.768" transform="matrix(0.7072 -0.707 0.707 0.7072 -94.6196 223.5176)" fill="#BD806C" width="5.899" height="182.451"/>
	
		<rect x="219.683" y="134.823" transform="matrix(0.7072 -0.707 0.707 0.7072 -94.6288 223.5395)" fill="#BE816C" width="5.768" height="182.387"/>
	
		<rect x="219.771" y="134.878" transform="matrix(0.7072 -0.707 0.707 0.7072 -94.6384 223.5612)" fill="#BF826C" width="5.637" height="182.322"/>
	
		<rect x="219.86" y="134.934" transform="matrix(0.7072 -0.707 0.707 0.7072 -94.6483 223.5834)" fill="#C0826D" width="5.506" height="182.257"/>
	
		<rect x="219.949" y="134.989" transform="matrix(0.7072 -0.707 0.707 0.7072 -94.6574 223.6052)" fill="#C1836D" width="5.374" height="182.193"/>
	
		<rect x="220.036" y="135.043" transform="matrix(0.7072 -0.707 0.707 0.7072 -94.6666 223.627)" fill="#C2836E" width="5.245" height="182.128"/>
	
		<rect x="220.125" y="135.098" transform="matrix(0.7072 -0.707 0.707 0.7072 -94.6762 223.6485)" fill="#C3846E" width="5.112" height="182.064"/>
	
		<rect x="220.213" y="135.153" transform="matrix(0.7072 -0.707 0.707 0.7072 -94.6859 223.67)" fill="#C4846F" width="4.981" height="182"/>
	
		<rect x="220.301" y="135.208" transform="matrix(0.7071 -0.7071 0.7071 0.7071 -94.6953 223.7368)" fill="#C5856F" width="4.85" height="181.935"/>
	
		<rect x="220.39" y="135.264" transform="matrix(0.7073 -0.7069 0.7069 0.7073 -94.7041 223.6669)" fill="#C68670" width="4.719" height="181.87"/>
	
		<rect x="220.478" y="135.318" transform="matrix(0.7072 -0.707 0.707 0.7072 -94.7141 223.7346)" fill="#C78670" width="4.587" height="181.807"/>
	
		<rect x="220.567" y="135.373" transform="matrix(0.7072 -0.707 0.707 0.7072 -94.7231 223.7563)" fill="#C88771" width="4.457" height="181.742"/>
	
		<rect x="220.655" y="135.428" transform="matrix(0.7072 -0.707 0.707 0.7072 -94.7323 223.7777)" fill="#C98771" width="4.326" height="181.677"/>
	
		<rect x="220.743" y="135.484" transform="matrix(0.7072 -0.707 0.707 0.7072 -94.7422 223.7988)" fill="#CA8871" width="4.195" height="181.613"/>
	
		<rect x="220.831" y="135.538" transform="matrix(0.707 -0.7072 0.7072 0.707 -94.7524 223.9275)" fill="#CB8872" width="4.064" height="181.549"/>
	
		<rect x="220.92" y="135.593" transform="matrix(0.7072 -0.707 0.707 0.7072 -94.761 223.8407)" fill="#CC8972" width="3.933" height="181.484"/>
	
		<rect x="221.008" y="135.648" transform="matrix(0.7072 -0.707 0.707 0.7072 -94.7702 223.8616)" fill="#CD8A73" width="3.801" height="181.42"/>
	
		<rect x="221.096" y="135.703" transform="matrix(0.7071 -0.7071 0.7071 0.7071 -94.7799 223.9418)" fill="#CE8A73" width="3.671" height="181.356"/>
	
		<rect x="221.185" y="135.758" transform="matrix(0.7071 -0.7071 0.7071 0.7071 -94.7898 223.9648)" fill="#CF8B74" width="3.54" height="181.291"/>
	
		<rect x="221.273" y="135.813" transform="matrix(0.7071 -0.7071 0.7071 0.7071 -94.7991 223.9873)" fill="#D08B74" width="3.408" height="181.227"/>
	
		<rect x="221.361" y="135.868" transform="matrix(0.7071 -0.7071 0.7071 0.7071 -94.8086 224.0103)" fill="#D18C75" width="3.277" height="181.162"/>
	
		<rect x="221.45" y="135.923" transform="matrix(0.7071 -0.7071 0.7071 0.7071 -94.8177 224.0331)" fill="#D28C75" width="3.146" height="181.097"/>
	
		<rect x="221.538" y="135.978" transform="matrix(0.7071 -0.7071 0.7071 0.7071 -94.8274 224.0557)" fill="#D38D76" width="3.015" height="181.033"/>
	
		<rect x="221.627" y="136.033" transform="matrix(0.7071 -0.7071 0.7071 0.7071 -94.8369 224.0786)" fill="#D48E76" width="2.884" height="180.968"/>
	
		<rect x="221.715" y="136.089" transform="matrix(0.7073 -0.7069 0.7069 0.7073 -94.8458 224.0218)" fill="#D58E76" width="2.753" height="180.904"/>
	
		<rect x="221.804" y="136.143" transform="matrix(0.7071 -0.7071 0.7071 0.7071 -94.8556 224.1244)" fill="#D68F77" width="2.621" height="180.839"/>
	
		<rect x="221.891" y="136.198" transform="matrix(0.7071 -0.7071 0.7071 0.7071 -94.8647 224.1472)" fill="#D78F77" width="2.491" height="180.775"/>
	
		<rect x="221.98" y="136.253" transform="matrix(0.7071 -0.7071 0.7071 0.7071 -94.8744 224.1698)" fill="#D89078" width="2.359" height="180.711"/>
	
		<rect x="222.068" y="136.309" transform="matrix(0.7073 -0.7069 0.7069 0.7073 -94.8835 224.0943)" fill="#D99078" width="2.228" height="180.646"/>
	
		<rect x="222.157" y="136.363" transform="matrix(0.7069 -0.7073 0.7073 0.7069 -94.8943 224.3201)" fill="#DA9179" width="2.097" height="180.582"/>
	
		<rect x="222.245" y="136.418" transform="matrix(0.7071 -0.7071 0.7071 0.7071 -94.9027 224.2381)" fill="#DB9179" width="1.967" height="180.517"/>
	
		<rect x="222.333" y="136.473" transform="matrix(0.7071 -0.7071 0.7071 0.7071 -94.9122 224.2611)" fill="#DC927A" width="1.835" height="180.454"/>
	
		<rect x="222.421" y="136.528" transform="matrix(0.7071 -0.7071 0.7071 0.7071 -94.9215 224.2836)" fill="#DD937A" width="1.704" height="180.389"/>
	
		<rect x="222.51" y="136.583" transform="matrix(0.7071 -0.7071 0.7071 0.7071 -94.9308 224.3068)" fill="#DE937B" width="1.573" height="180.323"/>
	
		<rect x="222.598" y="136.639" transform="matrix(0.7071 -0.7071 0.7071 0.7071 -94.9405 224.3295)" fill="#DF947B" width="1.442" height="180.259"/>
	
		<rect x="222.687" y="136.693" transform="matrix(0.7071 -0.7071 0.7071 0.7071 -94.95 224.3524)" fill="#E0947B" width="1.311" height="180.196"/>
	
		<rect x="222.775" y="136.748" transform="matrix(0.7071 -0.7071 0.7071 0.7071 -94.9593 224.3748)" fill="#E1957C" width="1.179" height="180.131"/>
	
		<rect x="222.863" y="136.803" transform="matrix(0.7066 -0.7076 0.7076 0.7066 -94.9702 224.6069)" fill="#E2957C" width="1.049" height="180.066"/>
	
		<rect x="222.952" y="136.859" transform="matrix(0.7071 -0.7071 0.7071 0.7071 -94.9785 224.4204)" fill="#E3967D" width="0.917" height="180.001"/>
	
		<rect x="223.04" y="136.913" transform="matrix(0.7071 -0.7071 0.7071 0.7071 -94.9876 224.4432)" fill="#E4977D" width="0.787" height="179.937"/>
	
		<rect x="223.128" y="136.968" transform="matrix(0.7064 -0.7079 0.7079 0.7064 -94.9997 224.8014)" fill="#E5977E" width="0.655" height="179.874"/>
	
		<rect x="223.217" y="137.023" transform="matrix(0.7071 -0.7071 0.7071 0.7071 -95.0063 224.489)" fill="#E6987E" width="0.525" height="179.808"/>
	
		<rect x="223.305" y="137.078" transform="matrix(0.7059 -0.7083 0.7083 0.7059 -95.0194 225.0712)" fill="#E7987F" width="0.393" height="179.744"/>
	
		<rect x="223.393" y="137.134" transform="matrix(0.7071 -0.7071 0.7071 0.7071 -95.0255 224.5345)" fill="#E8997F" width="0.262" height="179.679"/>
	
		<rect x="223.482" y="137.188" transform="matrix(0.7071 -0.7071 0.7071 0.7071 -95.035 224.5575)" fill="#E99980" width="0.131" height="179.615"/>
	<rect x="223.57" y="137.243" fill="#EA9A80" width="0" height="179.551"/>
</g>
<g>
	<circle fill="#B5B7B9" cx="109.304" cy="107.199" r="101.996"/>
	<circle fill="#B6B8BA" cx="109.303" cy="107.231" r="101.716"/>
	<path fill="#B7B9BB" d="M210.74,107.264c0,56.023-45.414,101.438-101.438,101.438c-56.02,0-101.435-45.415-101.435-101.438
		c0-56.022,45.415-101.435,101.435-101.435C165.326,5.829,210.74,51.241,210.74,107.264z"/>
	<circle fill="#B8BABC" cx="109.303" cy="107.296" r="101.157"/>
	<circle fill="#B9BBBD" cx="109.304" cy="107.329" r="100.877"/>
	<circle fill="#BABCBE" cx="109.304" cy="107.362" r="100.597"/>
	<circle fill="#BBBDBF" cx="109.304" cy="107.395" r="100.317"/>
	<circle fill="#BCBEC0" cx="109.304" cy="107.428" r="100.038"/>
	<circle fill="#BDBFC0" cx="109.304" cy="107.46" r="99.758"/>
	<circle fill="#BEC0C1" cx="109.304" cy="107.493" r="99.479"/>
	<circle fill="#BFC1C2" cx="109.304" cy="107.525" r="99.198"/>
	<circle fill="#C0C2C3" cx="109.304" cy="107.558" r="98.919"/>
	<circle fill="#C1C3C4" cx="109.304" cy="107.591" r="98.639"/>
	<circle fill="#C2C3C5" cx="109.304" cy="107.624" r="98.359"/>
	<circle fill="#C3C4C6" cx="109.303" cy="107.656" r="98.079"/>
	<path fill="#C4C5C7" d="M207.104,107.688c0,54.015-43.786,97.802-97.802,97.802c-54.011,0-97.797-43.787-97.797-97.802
		c0-54.014,43.787-97.798,97.797-97.798C163.317,9.891,207.104,53.674,207.104,107.688z"/>
	<circle fill="#C5C6C8" cx="109.304" cy="107.721" r="97.52"/>
	<circle fill="#C6C7C9" cx="109.304" cy="107.753" r="97.24"/>
	<circle fill="#C7C8CA" cx="109.303" cy="107.786" r="96.96"/>
	<circle fill="#C8C9CB" cx="109.304" cy="107.819" r="96.681"/>
	<circle fill="#C9CACC" cx="109.303" cy="107.852" r="96.401"/>
	<circle fill="#CACBCD" cx="109.304" cy="107.884" r="96.121"/>
	<circle fill="#CBCCCE" cx="109.303" cy="107.917" r="95.841"/>
	<circle fill="#CCCDCE" cx="109.304" cy="107.95" r="95.562"/>
	<circle fill="#CDCECF" cx="109.304" cy="107.982" r="95.282"/>
	<circle fill="#CECFD0" cx="109.304" cy="108.016" r="95.002"/>
	<path fill="#CFD0D1" d="M204.026,108.048c0,52.315-42.409,94.724-94.725,94.724c-52.311,0-94.72-42.408-94.72-94.724
		c0-52.315,42.409-94.721,94.72-94.721C161.617,13.327,204.026,55.733,204.026,108.048z"/>
	<circle fill="#D0D1D2" cx="109.304" cy="108.081" r="94.442"/>
	<circle fill="#D1D2D3" cx="109.303" cy="108.113" r="94.163"/>
	<circle fill="#D2D3D4" cx="109.304" cy="108.146" r="93.883"/>
	<circle fill="#D3D4D5" cx="109.303" cy="108.179" r="93.603"/>
	<circle fill="#D4D5D6" cx="109.304" cy="108.211" r="93.323"/>
	<circle fill="#D5D6D7" cx="109.304" cy="108.244" r="93.044"/>
	<circle fill="#D6D7D8" cx="109.304" cy="108.276" r="92.764"/>
	<path fill="#D7D8D9" d="M201.788,108.309c0,51.08-41.407,92.486-92.486,92.486c-51.075,0-92.482-41.406-92.482-92.486
		c0-51.078,41.407-92.482,92.482-92.482C160.381,15.826,201.788,57.23,201.788,108.309z"/>
	<circle fill="#D8D9DA" cx="109.304" cy="108.342" r="92.204"/>
	<circle fill="#D9DADB" cx="109.304" cy="108.374" r="91.925"/>
	<circle fill="#DADBDC" cx="109.304" cy="108.407" r="91.645"/>
	<circle fill="#DADBDC" cx="109.304" cy="108.439" r="91.365"/>
	<circle fill="#DBDCDD" cx="109.304" cy="108.473" r="91.085"/>
	<circle fill="#DCDDDE" cx="109.304" cy="108.505" r="90.806"/>
	<path fill="#DDDEDF" d="M199.83,108.538c0,49.998-40.53,90.527-90.528,90.527c-49.993,0-90.523-40.529-90.523-90.527
		s40.53-90.524,90.523-90.524C159.3,18.014,199.83,58.54,199.83,108.538z"/>
	<circle fill="#DEDFE0" cx="109.304" cy="108.57" r="90.246"/>
	<circle fill="#DFE0E1" cx="109.303" cy="108.603" r="89.966"/>
	<circle fill="#E0E1E2" cx="109.304" cy="108.636" r="89.687"/>
	<circle fill="#E1E2E3" cx="109.304" cy="108.668" r="89.406"/>
	<circle fill="#E2E3E4" cx="109.304" cy="108.701" r="89.127"/>
	<circle fill="#E3E4E5" cx="109.303" cy="108.733" r="88.847"/>
	<circle fill="#E4E5E6" cx="109.304" cy="108.766" r="88.567"/>
	<path fill="#E5E6E7" d="M197.592,108.799c0,48.762-39.528,88.289-88.29,88.289c-48.758,0-88.285-39.527-88.285-88.289
		c0-48.761,39.527-88.286,88.285-88.286C158.063,20.513,197.592,60.038,197.592,108.799z"/>
	<circle fill="#E6E7E8" cx="109.304" cy="108.832" r="88.008"/>
	<circle fill="#E7E8E9" cx="109.303" cy="108.864" r="87.728"/>
	<path fill="#E8E9EA" d="M196.752,108.896c0,48.298-39.152,87.45-87.45,87.45c-48.294,0-87.446-39.152-87.446-87.45
		c0-48.297,39.152-87.446,87.446-87.446C157.6,21.45,196.752,60.6,196.752,108.896z"/>
	<circle fill="#E9EAEA" cx="109.304" cy="108.93" r="87.168"/>
	<circle fill="#EAEBEB" cx="109.304" cy="108.962" r="86.889"/>
	<circle fill="#EBECEC" cx="109.303" cy="108.995" r="86.609"/>
	<circle fill="#ECEDED" cx="109.304" cy="109.028" r="86.329"/>
	<circle fill="#EDEEEE" cx="109.304" cy="109.06" r="86.05"/>
	<circle fill="#EEEFEF" cx="109.304" cy="109.093" r="85.77"/>
	<circle fill="#EFF0F0" cx="109.304" cy="109.125" r="85.49"/>
	<circle fill="#F0F1F1" cx="109.304" cy="109.158" r="85.21"/>
	<circle fill="#F1F2F2" cx="109.304" cy="109.191" r="84.931"/>
	<circle fill="#F2F3F3" cx="109.303" cy="109.223" r="84.651"/>
	<circle fill="#F3F3F4" cx="109.303" cy="109.256" r="84.37"/>
	<circle fill="#F4F4F5" cx="109.304" cy="109.289" r="84.091"/>
	<circle fill="#F5F5F6" cx="109.304" cy="109.321" r="83.812"/>
	<circle fill="#F6F6F7" cx="109.303" cy="109.354" r="83.531"/>
	<circle fill="#F7F7F8" cx="109.304" cy="109.387" r="83.252"/>
	<path fill="#F8F8F8" d="M192.276,109.419c0,45.826-37.148,82.974-82.974,82.974c-45.823,0-82.97-37.147-82.97-82.974
		c0-45.825,37.147-82.97,82.97-82.97C155.128,26.449,192.276,63.594,192.276,109.419z"/>
	<circle fill="#F9F9F9" cx="109.304" cy="109.452" r="82.692"/>
	<circle fill="#FAFAFA" cx="109.303" cy="109.485" r="82.412"/>
	<circle fill="#FBFBFB" cx="109.304" cy="109.518" r="82.133"/>
	<circle fill="#FCFCFC" cx="109.303" cy="109.55" r="81.853"/>
	<circle fill="#FDFDFD" cx="109.304" cy="109.583" r="81.573"/>
	<circle fill="#FEFEFE" cx="109.303" cy="109.615" r="81.293"/>
	<circle fill="#FFFFFF" cx="109.304" cy="109.648" r="81.014"/>
</g>
<g opacity="0.65">
	<path fill="#81BBE0" d="M23.484,52.108c-9.242,14.37-14.988,31.196-16.003,49.297c12.436-3.685,25.589-5.696,39.221-5.696
		c21.96,0,42.704,5.163,61.128,14.302C88.503,81.097,58.502,59.969,23.484,52.108z"/>
	<path fill="#81BBE0" d="M17.714,153.192c8.041,15.075,18.927,28.297,34.235,38.01c2.847-12.653,6.506-23.117,13.153-35.017
		c10.71-19.172,25.335-34.763,42.3-46.392C72.732,112.566,41.655,126.454,17.714,153.192z"/>
	<path fill="#81BBE0" d="M100.535,208.86c17.065,0.816,34.509-1.62,50.691-9.791c-9.409-8.928-17.729-19.312-24.543-31.115
		c-10.98-19.02-16.882-39.565-18.179-60.094C93.128,139.059,89.832,174.604,100.535,208.86z"/>
	<path fill="#81BBE0" d="M186.89,173.217c10.81-13.234,18.419-29.303,21.474-47.171c-12.771,2.254-26.067,2.766-39.612,1.226
		c-21.82-2.483-41.847-9.959-59.12-21.122C125.566,137.063,152.987,161.447,186.89,173.217z"/>
	<path fill="#81BBE0" d="M205.265,72.672c-6.286-15.888-15.603-31.367-29.712-42.75c-4.259,12.253-10.297,24.108-18.247,35.182
		c-12.809,17.838-29.101,31.674-47.274,41.313C144.794,107.581,178.455,96.532,205.265,72.672z"/>
	<path fill="#81BBE0" d="M128.167,7.765c-16.863-2.741-34.583-1.297-51.588,4.992c8.341,9.934,15.435,21.194,20.871,33.692
		c8.76,20.138,12.299,41.22,11.269,61.762C127.522,78.952,134.929,43.012,128.167,7.765z"/>
</g>
</svg>
