<?xml version="1.0" encoding="utf-8"?>
<!-- Generator: Adobe Illustrator 16.0.0, SVG Export Plug-In . SVG Version: 6.00 Build 0)  -->
<!DOCTYPE svg PUBLIC "-//W3C//DTD SVG 1.1 Basic//EN" "http://www.w3.org/Graphics/SVG/1.1/DTD/svg11-basic.dtd">
<svg version="1.1" baseProfile="basic" id="Layer_1"
	 xmlns="http://www.w3.org/2000/svg" xmlns:xlink="http://www.w3.org/1999/xlink" x="0px" y="0px" width="300px" height="300px"
	 viewBox="0 0 300 300" xml:space="preserve">
<path fill-rule="evenodd" clip-rule="evenodd" fill="#102235" d="M123.403,57.96c19.438,9.492,36.103,8.814,50.549,0
	c38.091-23.241,81.129,36.508,81.129,81.128v47.217c25.134,8.902,42.104,8.145,42.104,28.479c0,20.334-67.339,55.356-148.507,55.356
	S3.25,235.119,3.25,214.785c0-20.335,13.891-19.577,39.025-28.479v-47.217C42.274,94.468,83.307,38.381,123.403,57.96z"/>
<path fill-rule="evenodd" clip-rule="evenodd" fill="#22384C" d="M255.076,186.306c-0.192,16.497-47.753,29.854-106.399,29.854
	c-58.646,0-106.206-13.357-106.398-29.854h-0.004v-0.101V151.93h0.004c0.193,16.497,47.753,29.854,106.398,29.854
	c58.646,0,106.207-13.357,106.399-29.854h0.005v34.376H255.076z"/>
<path fill-rule="evenodd" clip-rule="evenodd" fill="#090C0F" d="M196.994,170.585l35.981-8.391c4.092-0.954,7.44,1.796,7.44,6.11
	v30.619c0,4.313-3.349,8.625-7.44,9.578l-35.981,8.39c-4.092,0.955-7.44-1.794-7.44-6.109v-30.618
	C189.554,175.85,192.902,171.539,196.994,170.585z"/>
<path fill-rule="evenodd" clip-rule="evenodd" fill="#22384C" d="M202.291,176.168l25.387-5.919c2.887-0.674,5.249,1.266,5.249,4.31
	v21.603c0,3.044-2.362,6.085-5.249,6.759l-25.387,5.919c-2.887,0.673-5.248-1.267-5.248-4.311v-21.603
	C197.043,179.882,199.404,176.841,202.291,176.168z"/>
<path fill-rule="evenodd" clip-rule="evenodd" fill="#22384C" d="M125.146,64.686c11.426,5.579,21.828,7.399,31.333,5.935
	c-9.205,8.018-20.953,7.867-31.646,2.645c-35.539-17.354-71.86,28.868-75.544,69.267v-1.991
	C49.289,98.821,87.655,46.379,125.146,64.686z"/>
</svg>
