<?xml version="1.0" encoding="utf-8"?>
<!-- Generator: Adobe Illustrator 16.0.0, SVG Export Plug-In . SVG Version: 6.00 Build 0)  -->
<!DOCTYPE svg PUBLIC "-//W3C//DTD SVG 1.1 Basic//EN" "http://www.w3.org/Graphics/SVG/1.1/DTD/svg11-basic.dtd">
<svg version="1.1" baseProfile="basic" id="Layer_1"
	 xmlns="http://www.w3.org/2000/svg" xmlns:xlink="http://www.w3.org/1999/xlink" x="0px" y="0px" width="300px" height="300px"
	 viewBox="0 0 300 300" xml:space="preserve">
<path fill-rule="evenodd" clip-rule="evenodd" fill="#D4B6CA" d="M151.966,38.056c56.936,0,103.743,49.353,105.425,121.232
	c23.821,13.482,38.368,28.742,38.368,38.176c0,19.986-65.255,66.114-145.752,66.114c-80.497,0-145.752-46.879-145.752-66.114
	c0-9.574,16.173-25.998,42.343-40.081C49.05,86.394,95.031,38.056,151.966,38.056z"/>
<path fill-rule="evenodd" clip-rule="evenodd" fill="#EED8DD" stroke="#FACFC6" stroke-width="5" stroke-miterlimit="22.9256" d="
	M257.104,152.635c0.138,2.202,0.233,4.421,0.286,6.653c5.165,2.924,9.894,5.93,14.134,8.944
	c-11.788,11.109-25.117,20.405-42.867,27.179c-19.764,7.541-44.805,11.835-79.121,11.835c-34.445,0-60.539-5.92-80.765-14.267
	c-17.303-7.14-30.175-15.972-40.284-24.415c5.305-3.778,11.375-7.557,18.11-11.182c0.017-0.499,0.045-0.995,0.066-1.491
	c8.024,6.181,17.826,12.358,30.177,17.455c17.868,7.373,41.262,12.603,72.696,12.603c31.56,0,54.149-3.781,71.551-10.421
	C235.928,169.864,247.143,162.026,257.104,152.635z"/>
<path fill-rule="evenodd" clip-rule="evenodd" fill="#EED8DD" stroke="#FACFC6" stroke-width="5" stroke-miterlimit="22.9256" d="
	M257.109,152.711c0.135,2.178,0.229,4.37,0.281,6.577c5.187,2.936,9.933,5.955,14.186,8.979
	c-11.63,11.361-25.036,22.477-42.923,30.323c-20.369,8.938-46.048,13.356-80.574,8.531c-50.136-7.007-80.405-31.356-101.405-51.486
	c0.409-9.119,1.538-17.995,3.321-26.535c0.803,0.796,1.622,1.612,2.456,2.442c19.202,19.122,47.613,47.414,98.54,54.531
	c30.123,4.211,52.074,0.555,69.176-6.95C235.183,172.537,246.85,162.765,257.109,152.711z"/>
<path fill-rule="evenodd" clip-rule="evenodd" fill="#EED8DD" stroke="#FACFC6" stroke-width="5" stroke-miterlimit="22.9256" d="
	M176.49,176.805c13.174,0,32.257,12.525,32.257,20.848c0,8.321-19.083,20.849-32.257,20.849s-13.523-9.334-13.523-20.849
	C162.967,186.139,163.316,176.805,176.49,176.805z"/>
<path fill-rule="evenodd" clip-rule="evenodd" fill="#EED8DD" stroke="#FACFC6" stroke-width="5" stroke-miterlimit="22.9256" d="
	M180.501,223.678c3.291-12.756,20.189-28.104,28.246-26.025c8.059,2.079,15.42,23.687,12.129,36.443
	c-3.292,12.756-12.417,10.762-23.566,7.886C186.16,239.104,177.21,236.434,180.501,223.678z"/>
<path fill-rule="evenodd" clip-rule="evenodd" fill="#EED8DD" stroke="#FACFC6" stroke-width="5" stroke-miterlimit="22.9256" d="
	M226.89,231.506c-11.529-6.375-22.168-26.57-18.143-33.854c4.027-7.282,26.789-9.013,38.318-2.638
	c11.529,6.374,7.318,14.712,1.747,24.788C243.242,229.88,238.42,237.88,226.89,231.506z"/>
<path fill-rule="evenodd" clip-rule="evenodd" fill="#EED8DD" stroke="#FACFC6" stroke-width="5" stroke-miterlimit="22.9256" d="
	M246.06,188.543c-9.052,9.571-31.267,14.827-37.312,9.109c-6.045-5.719-2.033-28.19,7.02-37.762s16.074-3.41,24.438,4.502
	C248.571,172.305,255.113,178.972,246.06,188.543z"/>
<path fill-rule="evenodd" clip-rule="evenodd" fill="#EED8DD" stroke="#FACFC6" stroke-width="5" stroke-miterlimit="22.9256" d="
	M209.249,159.246c7.006,11.158,6.546,33.981-0.502,38.406s-27.804-5.074-34.81-16.23c-7.006-11.158,0.713-16.417,10.464-22.54
	C194.153,152.759,202.243,148.09,209.249,159.246z"/>
<path fill-rule="evenodd" clip-rule="evenodd" fill="#F7A5BB" d="M208.747,212.114c7.967,0,14.463-6.496,14.463-14.462
	s-6.496-14.463-14.463-14.463c-7.965,0-14.462,6.497-14.462,14.463S200.782,212.114,208.747,212.114z"/>
</svg>
