<?xml version="1.0" encoding="utf-8"?>
<!-- Generator: Adobe Illustrator 16.0.0, SVG Export Plug-In . SVG Version: 6.00 Build 0)  -->
<!DOCTYPE svg PUBLIC "-//W3C//DTD SVG 1.1 Basic//EN" "http://www.w3.org/Graphics/SVG/1.1/DTD/svg11-basic.dtd">
<svg version="1.1" baseProfile="basic" id="Layer_1"
	 xmlns="http://www.w3.org/2000/svg" xmlns:xlink="http://www.w3.org/1999/xlink" x="0px" y="0px" width="300px" height="300px"
	 viewBox="0 0 300 300" xml:space="preserve">
<linearGradient id="SVGID_1_" gradientUnits="userSpaceOnUse" x1="73.9487" y1="188.7773" x2="73.9487" y2="102.9787">
	<stop  offset="0" style="stop-color:#733F1D"/>
	<stop  offset="0.2545" style="stop-color:#8E4E2D"/>
	<stop  offset="1" style="stop-color:#58290E"/>
</linearGradient>
<path fill-rule="evenodd" clip-rule="evenodd" fill="url(#SVGID_1_)" d="M65.496,105.784c32.533,11.028,51.822,42.259,51.822,72.689
	c0,3.454-0.187,6.773-0.547,9.967l-0.124-0.002c-10.316,0-20.339,1.255-29.925,3.619c-2.744,0.676-5.504-0.552-6.84-3.04
	c-9.685-18.043-25.79-32.123-45.26-39.186c-1.672-0.606-2.881-1.763-3.561-3.407c-0.679-1.644-0.64-3.316,0.117-4.927
	C38.303,126.326,51.115,115.126,65.496,105.784z"/>
<linearGradient id="SVGID_2_" gradientUnits="userSpaceOnUse" x1="6.4116" y1="186.5742" x2="80.2886" y2="186.5742">
	<stop  offset="0" style="stop-color:#733F1D"/>
	<stop  offset="0.2545" style="stop-color:#8E4E2D"/>
	<stop  offset="1" style="stop-color:#58290E"/>
</linearGradient>
<path fill-rule="evenodd" clip-rule="evenodd" fill="url(#SVGID_2_)" d="M23.906,221.546c37.418-29.211,56.718-31.974,56.378-31.876
	c-10.218-21.986-24.083-34.538-47.814-41.152C-4.737,186.164,3.045,237.83,23.906,221.546z"/>
<linearGradient id="SVGID_3_" gradientUnits="userSpaceOnUse" x1="149.6216" y1="58.3657" x2="149.6216" y2="193.3786">
	<stop  offset="0" style="stop-color:#733F1D"/>
	<stop  offset="0.2545" style="stop-color:#8E4E2D"/>
	<stop  offset="1" style="stop-color:#58290E"/>
</linearGradient>
<path fill-rule="evenodd" clip-rule="evenodd" fill="url(#SVGID_3_)" d="M149.622,56.795c43.204,0,78.86,10.132,84.126,48.989
	c-30.451,11.967-51.822,40.007-51.822,72.689c0,3.375,0.229,6.701,0.672,9.965c-10.137,3.983-21.279,6.187-32.976,6.187
	s-22.838-2.203-32.975-6.187c0.442-3.264,0.671-6.59,0.671-9.965c0-32.683-21.371-60.723-51.822-72.689
	C70.763,66.927,106.418,56.795,149.622,56.795z"/>
<path opacity="0.35" fill-rule="evenodd" clip-rule="evenodd" fill="#522217" d="M228.732,88.767
	c2.435,4.942,4.145,10.584,5.016,17.017c-30.451,11.967-51.822,40.007-51.822,72.689c0,3.375,0.229,6.701,0.672,9.965
	c-0.727,0.286-1.458,0.562-2.193,0.829c-0.225-4.384-0.34-11.922-0.34-25.195C180.064,145.929,200.125,100.939,228.732,88.767
	L228.732,88.767z M118.84,189.268c-0.736-0.268-1.467-0.543-2.193-0.829c0.442-3.264,0.671-6.59,0.671-9.965
	c0-32.683-21.371-60.723-51.822-72.689c0.872-6.433,2.581-12.075,5.016-17.017c28.607,12.172,48.667,57.162,48.667,75.305
	C119.179,177.346,119.065,184.885,118.84,189.268z"/>
<path opacity="0.35" fill-rule="evenodd" clip-rule="evenodd" fill="#522217" d="M117.263,181.696
	c-0.08,2.309-0.245,4.557-0.492,6.744l-0.124-0.002c-10.316,0-20.339,1.255-29.925,3.619c-2.744,0.676-5.504-0.552-6.84-3.04
	c-9.685-18.043-25.79-32.123-45.26-39.186c-1.672-0.606-2.881-1.763-3.561-3.407c-0.679-1.644-0.64-3.316,0.117-4.927
	c2.885-6.144,6.703-11.637,11.181-16.618c-2.167,3.071-4.088,6.323-5.713,9.783c-0.755,1.61-0.795,3.283-0.116,4.927
	c0.68,1.644,1.888,2.801,3.56,3.407c19.471,7.063,35.576,21.142,45.26,39.185c1.336,2.489,4.097,3.717,6.84,3.041
	C100.266,183.23,108.652,182.027,117.263,181.696z"/>
<path opacity="0.35" fill-rule="evenodd" clip-rule="evenodd" fill="#522217" d="M23.906,221.546
	c37.418-29.211,56.718-31.974,56.378-31.876c-1.208-2.6-2.468-5.066-3.789-7.408c-8.744,3.245-25.218,11.121-49.035,29.714
	c-14.154,11.05-22.281-9.187-14.425-35.098C-0.248,207.028,8.045,233.927,23.906,221.546z"/>
<linearGradient id="SVGID_4_" gradientUnits="userSpaceOnUse" x1="225.2402" y1="188.7773" x2="225.2402" y2="102.9787">
	<stop  offset="0" style="stop-color:#733F1D"/>
	<stop  offset="0.2545" style="stop-color:#8E4E2D"/>
	<stop  offset="1" style="stop-color:#58290E"/>
</linearGradient>
<path fill-rule="evenodd" clip-rule="evenodd" fill="url(#SVGID_4_)" d="M233.693,105.784
	c-32.532,11.028-51.823,42.259-51.823,72.689c0,3.454,0.188,6.773,0.548,9.967l0.124-0.002c10.316,0,20.34,1.255,29.926,3.619
	c2.743,0.676,5.504-0.552,6.84-3.04c9.685-18.043,25.789-32.123,45.26-39.186c1.672-0.606,2.882-1.763,3.56-3.407
	c0.68-1.644,0.641-3.316-0.115-4.927C260.887,126.326,248.074,115.126,233.693,105.784z"/>
<linearGradient id="SVGID_5_" gradientUnits="userSpaceOnUse" x1="218.9004" y1="186.5742" x2="292.7773" y2="186.5742">
	<stop  offset="0" style="stop-color:#733F1D"/>
	<stop  offset="0.2545" style="stop-color:#8E4E2D"/>
	<stop  offset="1" style="stop-color:#58290E"/>
</linearGradient>
<path fill-rule="evenodd" clip-rule="evenodd" fill="url(#SVGID_5_)" d="M275.283,221.546
	c-37.418-29.211-56.718-31.974-56.378-31.876c10.218-21.986,24.083-34.538,47.814-41.152
	C303.926,186.164,296.145,237.83,275.283,221.546z"/>
<path opacity="0.35" fill-rule="evenodd" clip-rule="evenodd" fill="#522217" d="M181.926,181.696
	c0.08,2.309,0.245,4.557,0.492,6.744l0.124-0.002c10.316,0,20.34,1.255,29.926,3.619c2.743,0.676,5.504-0.552,6.84-3.04
	c9.685-18.043,25.789-32.123,45.26-39.186c1.672-0.606,2.882-1.763,3.56-3.407c0.68-1.644,0.641-3.316-0.115-4.927
	c-2.886-6.144-6.704-11.637-11.181-16.618c2.167,3.071,4.088,6.323,5.713,9.783c0.755,1.61,0.795,3.283,0.115,4.927
	c-0.679,1.644-1.889,2.801-3.561,3.407c-19.47,7.063-35.575,21.142-45.259,39.185c-1.337,2.489-4.098,3.717-6.841,3.041
	C198.923,183.23,190.537,182.027,181.926,181.696z"/>
<path opacity="0.35" fill-rule="evenodd" clip-rule="evenodd" fill="#522217" d="M275.283,221.546
	c-37.418-29.211-56.718-31.974-56.378-31.876c1.208-2.6,2.469-5.066,3.789-7.408c8.743,3.245,25.217,11.121,49.034,29.714
	c14.155,11.05,22.281-9.187,14.426-35.098C299.438,207.028,291.144,233.927,275.283,221.546z"/>
</svg>
