<?xml version="1.0" encoding="utf-8"?>
<!-- Generator: Adobe Illustrator 16.0.0, SVG Export Plug-In . SVG Version: 6.00 Build 0)  -->
<!DOCTYPE svg PUBLIC "-//W3C//DTD SVG 1.1//EN" "http://www.w3.org/Graphics/SVG/1.1/DTD/svg11.dtd">
<svg version="1.1" id="Layer_1" xmlns="http://www.w3.org/2000/svg" xmlns:xlink="http://www.w3.org/1999/xlink" x="0px" y="0px"
	 width="260px" height="221px" viewBox="0 0 260 221" enable-background="new 0 0 260 221" xml:space="preserve">
<g>
	
		<path fill="#FFFFFF" stroke="#000000" stroke-width="3" stroke-linecap="round" stroke-linejoin="round" stroke-miterlimit="10" d="
		M79.373,97.705c0,0,5.964,19.309-19.875,26.691c0,0-18.174,4.258-25.839-13.345c0,0-21.769,10.884-20.444-17.699
		c0,0-8.518,0.377-8.896-9.087c0,0-0.002-8.52,13.25-4.543c0,0,3.406-19.497,22.147-7.383c0,0,10.41-16.09,22.147-0.567
		c0,0,14.007-5.3,15.144,9.086c0,0,16.47-6.058,17.982,7.005C94.99,87.862,98.02,98.463,79.373,97.705z"/>
	<path fill="#C1E4F7" d="M6.848,85.217c0,0-0.054-0.821,0.267-1.736c2.851,2.404,7.089,4.264,14.241,2.475
		c0,0-5.489,15.24,15.05,5.775c0,0,7.19,17.889,22.903,11.355c0,0,13.724-3.503,12.775-16.09c0,0,8.922,5.43,22.456,2.169
		c0,0-0.056-0.594,0.114-0.276c-0.574,3.102-4.301,7.06-15.338,6.609c0,0,5.15,19.726-19.877,26.633c0,0-18.127,4.214-25.795-13.394
		c0,0-21.508,11.07-20.183-17.512C13.463,91.228,6.979,90.859,6.848,85.217z"/>
	
		<path fill="#FFDE17" stroke="#000000" stroke-width="3" stroke-linecap="round" stroke-linejoin="round" stroke-miterlimit="10" d="
		M48.604,8.049c0,0,49.02,39.943,15.977,58.828c0,0-27.598,8.578-21.471,17.293c6.128,8.716,14.299,5.038,26.826,0.817
		c0,0-6.574,9.26-3.898,15.115c0,0-5.906,0-5.498,15.25c0,0,2.316,10.621-39.896,16.748c0,0,47.933,37.721,98.043-14.297
		c0,0,29.795-35.688-7.762-86.605C110.924,31.199,88.319,0.647,48.604,8.049z"/>
	
		<path fill="none" stroke="#000000" stroke-width="1.4173" stroke-linecap="round" stroke-linejoin="round" stroke-miterlimit="10" d="
		M88.319,101.19c0,0-9.706,8.716-22.282-1.088"/>
	
		<path fill="none" stroke="#000000" stroke-width="1.4173" stroke-linecap="round" stroke-linejoin="round" stroke-miterlimit="10" d="
		M87.094,76.041c0,0,10.894,22.835-17.156,8.946"/>
	
		<path fill="none" stroke="#000000" stroke-width="0.9921" stroke-linecap="round" stroke-linejoin="round" stroke-miterlimit="10" d="
		M92.541,57.889c0,0,8.307-17.157,19.473,1.226"/>
	
		<path fill="none" stroke="#000000" stroke-width="0.9921" stroke-linecap="round" stroke-linejoin="round" stroke-miterlimit="10" d="
		M92.541,58.434c0,0,10.62-8.17,14.025,0"/>
	
		<path fill="#FFFFFF" stroke="#000000" stroke-width="3" stroke-linecap="round" stroke-linejoin="round" stroke-miterlimit="10" d="
		M106.182,160.044c0,0-11.877,38.459,39.592,53.162c0,0,36.194,8.484,51.467-26.58c0,0,43.361,21.681,40.723-35.256
		c0,0,16.965,0.754,17.719-18.098c0,0,0.002-16.969-26.391-9.049c0,0-6.787-38.839-44.115-14.706c0,0-20.733-32.051-44.114-1.131
		c0,0-27.902-10.562-30.165,18.098c0,0-32.805-12.062-35.819,13.951C75.074,140.438,69.041,161.553,106.182,160.044z"/>
	<path fill="#C1E4F7" d="M253.205,132.859l-0.318-2.572c0.318,2.572-16.891,12.9-31.139,9.338c0,0,10.934,30.355-29.977,11.5
		c0,0-14.324,35.634-45.621,22.625c0,0-27.338-6.975-25.451-32.049c0,0-14.911,10.025-41.869,3.533c0,0,0,0-1.062-0.188
		c1.142,6.178,6.543,14.481,28.527,13.59c0,0-10.261,39.291,39.595,53.047c0,0,36.104,8.389,51.375-26.676
		c0,0,42.845,22.051,40.203-34.886C237.468,150.124,252.449,151.71,253.205,132.859z"/>
</g>
</svg>
