<?xml version="1.0" encoding="utf-8"?>
<!DOCTYPE svg PUBLIC "-//W3C//DTD SVG 1.1 Basic//EN" "http://www.w3.org/Graphics/SVG/1.1/DTD/svg11-basic.dtd">
<svg version="1.1" baseProfile="basic" id="Layer_1"
	 xmlns="http://www.w3.org/2000/svg" xmlns:xlink="http://www.w3.org/1999/xlink" x="0px" y="0px" width="300px" height="300px"
	 viewBox="0 0 300 300" xml:space="preserve">
<path fill="#C88360" d="M279.408,236.495c0,15.56-15.047,28.17-33.606,28.17H52.933c-18.559,0-33.606-12.61-33.606-28.17l0,0
	c0-15.557,15.047-28.167,33.606-28.167h192.869C264.361,208.328,279.408,220.938,279.408,236.495L279.408,236.495z"/>
<path fill="#B26134" d="M248.92,245.015H49.815c-10.037,0-19.053-3.482-25.387-9.016c2.637,13.254,15.901,23.345,31.909,23.345
	h186.06c16.008,0,29.271-10.091,31.909-23.345C267.972,241.532,258.956,245.015,248.92,245.015z"/>
<path fill="#61D45D" d="M22.191,229.796c3.562,4.086,11.18-2.026,22.528,0c8.757,1.566,27.862-4.538,39.755-3.943
	c12.551,0.624,34.927,10.841,49.473,10.643c19.089-0.261,34.431-9.075,53.888-10.235c22.63-1.35,41.152,7.839,59.191,6.142
	c27.554-2.596,25.583-11.872,46.823-2.605c8.953,3.905-13.945-23.97-21.646-29.734c-5.151-3.859-13.535,10.94-20.76,7.775
	c-8.601-3.765-27.183-5.446-37.987-8.188c-16.504-4.183-28.859,9.017-48.149,7.371c-30.094-2.566-54.152-11.939-82.16-7.778
	c-30.719,4.564-40.455-10.637-55.024,2.867C21.123,208.594,15.969,222.662,22.191,229.796z"/>
<path fill="#659941" d="M285.393,225.177c-3.593,4.086-11.279-2.029-22.727,0c-8.835,1.563-28.107-4.541-40.104-3.945
	c-12.663,0.627-35.235,10.841-49.909,10.643c-19.256-0.262-34.734-9.073-54.364-10.235c-22.828-1.348-41.515,7.844-59.711,6.141
	c-27.796-2.595-25.81-11.869-47.235-2.603c-9.034,3.906,14.068-23.969,21.836-29.737c5.196-3.855,13.653,10.945,20.943,7.778
	c8.676-3.768,27.42-5.446,38.321-8.188c16.648-4.186,29.113,9.016,48.572,7.37c30.361-2.568,54.63-11.942,82.884-7.78
	c30.99,4.566,40.812-10.638,55.51,2.867C286.469,203.973,291.669,218.041,285.393,225.177z"/>
<path fill="#61D45D" d="M277.361,221.688c-3.562,4.086-11.181-2.029-22.528,0c-8.757,1.563-27.861-4.538-39.755-3.945
	c-12.551,0.627-34.927,10.841-49.473,10.643c-19.089-0.262-34.432-9.071-53.889-10.232c-22.629-1.351-41.152,7.841-59.191,6.138
	c-27.554-2.595-25.583-11.869-46.823-2.603c-8.953,3.908,13.945-23.969,21.645-29.737c5.151-3.855,13.536,10.945,20.76,7.781
	c8.601-3.771,27.183-5.449,37.987-8.188c16.504-4.188,28.859,9.014,48.149,7.368c30.094-2.568,54.152-11.939,82.16-7.777
	c30.719,4.566,40.455-10.641,55.024,2.864C278.429,200.484,283.583,214.553,277.361,221.688z"/>
<g>
	<path fill="#180F10" d="M281.931,183.361c0,12.1-9.444,21.904-21.097,21.904H37.348c-11.65,0-21.097-9.805-21.097-21.904l0,0
		c0-12.094,9.447-21.9,21.097-21.9h223.486C272.486,161.461,281.931,171.268,281.931,183.361L281.931,183.361z"/>
	<path fill="#191011" d="M280.889,183.361c0,12.016-9.371,21.752-20.932,21.752H38.224c-11.559,0-20.931-9.736-20.931-21.752l0,0
		c0-12.01,9.372-21.749,20.931-21.749h221.733C271.518,161.612,280.889,171.352,280.889,183.361L280.889,183.361z"/>
	<path fill="#1A1011" d="M279.846,183.361c0,11.932-9.296,21.601-20.766,21.601H39.102c-11.467,0-20.766-9.669-20.766-21.601l0,0
		c0-11.927,9.298-21.597,20.766-21.597H259.08C270.55,161.765,279.846,171.435,279.846,183.361L279.846,183.361z"/>
	<path fill="#1B1112" d="M278.803,183.361c0,11.848-9.222,21.449-20.6,21.449H39.979c-11.376,0-20.601-9.602-20.601-21.449l0,0
		c0-11.842,9.225-21.445,20.601-21.445h218.225C269.581,161.916,278.803,171.52,278.803,183.361L278.803,183.361z"/>
	<path fill="#1C1213" d="M277.761,183.361c0,11.765-9.147,21.297-20.435,21.297H40.855c-11.284,0-20.434-9.532-20.434-21.297l0,0
		c0-11.759,9.15-21.293,20.434-21.293h216.471C268.613,162.068,277.761,171.603,277.761,183.361L277.761,183.361z"/>
	<path fill="#1D1313" d="M276.719,183.361c0,11.68-9.074,21.145-20.27,21.145H41.732c-11.192,0-20.269-9.465-20.269-21.145l0,0
		c0-11.675,9.076-21.142,20.269-21.142h214.717C267.645,162.22,276.719,171.687,276.719,183.361L276.719,183.361z"/>
	<path fill="#1E1314" d="M275.676,183.361c0,11.597-8.999,20.993-20.104,20.993H42.609c-11.102,0-20.104-9.396-20.104-20.993l0,0
		c0-11.591,9.002-20.989,20.104-20.989h212.963C266.677,162.372,275.676,171.771,275.676,183.361L275.676,183.361z"/>
	<path fill="#1F1415" d="M274.634,183.361c0,11.513-8.926,20.842-19.938,20.842H43.486c-11.01,0-19.938-9.329-19.938-20.842l0,0
		c0-11.507,8.928-20.838,19.938-20.838h211.209C265.708,162.523,274.634,171.854,274.634,183.361L274.634,183.361z"/>
	<path fill="#201515" d="M273.591,183.361c0,11.429-8.852,20.689-19.772,20.689H44.363c-10.918,0-19.772-9.261-19.772-20.689l0,0
		c0-11.423,8.854-20.686,19.772-20.686h209.456C264.739,162.676,273.591,171.938,273.591,183.361L273.591,183.361z"/>
	<path fill="#211616" d="M272.549,183.361c0,11.345-8.777,20.538-19.607,20.538H45.24c-10.828,0-19.607-9.193-19.607-20.538l0,0
		c0-11.339,8.779-20.533,19.607-20.533h207.701C263.771,162.828,272.549,172.022,272.549,183.361L272.549,183.361z"/>
	<path fill="#221617" d="M271.506,183.361c0,11.262-8.703,20.386-19.441,20.386H46.117c-10.735,0-19.441-9.124-19.441-20.386l0,0
		c0-11.256,8.706-20.382,19.441-20.382h205.948C262.803,162.979,271.506,172.105,271.506,183.361L271.506,183.361z"/>
	<path fill="#231717" d="M270.463,183.361c0,11.178-8.629,20.234-19.275,20.234H46.994c-10.644,0-19.276-9.057-19.276-20.234l0,0
		c0-11.172,8.632-20.23,19.276-20.23h204.194C261.834,163.131,270.463,172.189,270.463,183.361L270.463,183.361z"/>
	<path fill="#241818" d="M269.421,183.361c0,11.094-8.555,20.082-19.11,20.082H47.871c-10.553,0-19.11-8.988-19.11-20.082l0,0
		c0-11.088,8.557-20.078,19.11-20.078h202.44C260.866,163.283,269.421,172.273,269.421,183.361L269.421,183.361z"/>
	<path fill="#251918" d="M268.379,183.361c0,11.01-8.481,19.931-18.944,19.931H48.748c-10.461,0-18.944-8.921-18.944-19.931l0,0
		c0-11.004,8.483-19.926,18.944-19.926h200.687C259.897,163.436,268.379,172.357,268.379,183.361L268.379,183.361z"/>
	<path fill="#261919" d="M267.336,183.361c0,10.926-8.406,19.778-18.779,19.778H49.625c-10.37,0-18.779-8.853-18.779-19.778l0,0
		c0-10.92,8.409-19.774,18.779-19.774h198.932C258.93,163.587,267.336,172.441,267.336,183.361L267.336,183.361z"/>
	<path fill="#271A1A" d="M266.294,183.361c0,10.842-8.333,19.627-18.613,19.627H50.501c-10.278,0-18.613-8.785-18.613-19.627l0,0
		c0-10.836,8.335-19.623,18.613-19.623h197.18C257.961,163.738,266.294,172.525,266.294,183.361L266.294,183.361z"/>
	<path fill="#281B1A" d="M265.251,183.361c0,10.758-8.259,19.475-18.448,19.475H51.378c-10.187,0-18.448-8.717-18.448-19.475l0,0
		c0-10.752,8.261-19.471,18.448-19.471h195.424C256.992,163.891,265.251,172.609,265.251,183.361L265.251,183.361z"/>
	<path fill="#291C1B" d="M264.209,183.361c0,10.674-8.185,19.323-18.282,19.323H52.255c-10.096,0-18.282-8.649-18.282-19.323l0,0
		c0-10.669,8.186-19.319,18.282-19.319h193.671C256.024,164.042,264.209,172.692,264.209,183.361L264.209,183.361z"/>
	<path fill="#2A1C1C" d="M263.166,183.361c0,10.59-8.11,19.172-18.117,19.172H53.132c-10.004,0-18.117-8.582-18.117-19.172l0,0
		c0-10.585,8.113-19.167,18.117-19.167h191.917C255.056,164.194,263.166,172.776,263.166,183.361L263.166,183.361z"/>
	<path fill="#2B1D1C" d="M262.124,183.361c0,10.507-8.037,19.02-17.951,19.02H54.009c-9.913,0-17.951-8.513-17.951-19.02l0,0
		c0-10.501,8.039-19.016,17.951-19.016h190.164C254.087,164.346,262.124,172.86,262.124,183.361L262.124,183.361z"/>
	<path fill="#2C1E1D" d="M261.081,183.361c0,10.423-7.962,18.868-17.785,18.868H54.886c-9.822,0-17.786-8.445-17.786-18.868l0,0
		c0-10.417,7.964-18.863,17.786-18.863h188.41C253.119,164.498,261.081,172.944,261.081,183.361L261.081,183.361z"/>
	<path fill="#2D1F1E" d="M260.039,183.361c0,10.339-7.889,18.716-17.62,18.716H55.763c-9.73,0-17.62-8.377-17.62-18.716l0,0
		c0-10.333,7.89-18.712,17.62-18.712h186.656C252.15,164.649,260.039,173.028,260.039,183.361L260.039,183.361z"/>
	<path fill="#2E1F1E" d="M258.996,183.361c0,10.255-7.813,18.564-17.454,18.564H56.64c-9.639,0-17.455-8.31-17.455-18.564l0,0
		c0-10.249,7.816-18.561,17.455-18.561h184.902C251.183,164.801,258.996,173.112,258.996,183.361L258.996,183.361z"/>
	<path fill="#2F201F" d="M257.954,183.361c0,10.172-7.74,18.412-17.29,18.412H57.517c-9.547,0-17.289-8.24-17.289-18.412l0,0
		c0-10.166,7.742-18.408,17.289-18.408h183.147C250.214,164.953,257.954,173.195,257.954,183.361L257.954,183.361z"/>
	<path fill="#302120" d="M256.912,183.361c0,10.088-7.666,18.261-17.124,18.261H58.394c-9.456,0-17.123-8.173-17.123-18.261l0,0
		c0-10.082,7.667-18.256,17.123-18.256h181.395C249.246,165.105,256.912,173.279,256.912,183.361L256.912,183.361z"/>
	<path fill="#312220" d="M255.869,183.361c0,10.004-7.592,18.108-16.958,18.108H59.271c-9.364,0-16.958-8.104-16.958-18.108l0,0
		c0-9.998,7.594-18.104,16.958-18.104h179.641C248.277,165.257,255.869,173.363,255.869,183.361L255.869,183.361z"/>
	<path fill="#322221" d="M254.826,183.361c0,9.92-7.517,17.957-16.792,17.957H60.147c-9.273,0-16.792-8.037-16.792-17.957l0,0
		c0-9.914,7.519-17.953,16.792-17.953h177.887C247.31,165.408,254.826,173.447,254.826,183.361L254.826,183.361z"/>
	<path fill="#332322" d="M253.784,183.361c0,9.836-7.443,17.805-16.627,17.805H61.024c-9.182,0-16.627-7.969-16.627-17.805l0,0
		c0-9.83,7.445-17.801,16.627-17.801h176.133C246.341,165.561,253.784,173.531,253.784,183.361L253.784,183.361z"/>
	<path fill="#342422" d="M252.741,183.361c0,9.752-7.368,17.653-16.461,17.653H61.901c-9.091,0-16.461-7.901-16.461-17.653l0,0
		c0-9.746,7.37-17.648,16.461-17.648H236.28C245.373,165.713,252.741,173.615,252.741,183.361L252.741,183.361z"/>
	<path fill="#352523" d="M251.699,183.361c0,9.668-7.295,17.501-16.296,17.501H62.778c-8.999,0-16.296-7.833-16.296-17.501l0,0
		c0-9.662,7.297-17.497,16.296-17.497h172.625C244.404,165.864,251.699,173.699,251.699,183.361L251.699,183.361z"/>
	<path fill="#362524" d="M250.657,183.361c0,9.584-7.222,17.35-16.131,17.35H63.655c-8.907,0-16.13-7.766-16.13-17.35l0,0
		c0-9.578,7.223-17.346,16.13-17.346h170.872C243.436,166.016,250.657,173.783,250.657,183.361L250.657,183.361z"/>
	<path fill="#372624" d="M249.614,183.361c0,9.5-7.147,17.197-15.965,17.197H64.532c-8.816,0-15.965-7.697-15.965-17.197l0,0
		c0-9.494,7.148-17.193,15.965-17.193h169.117C242.467,166.168,249.614,173.867,249.614,183.361L249.614,183.361z"/>
	<path fill="#382725" d="M248.572,183.361c0,9.417-7.073,17.046-15.8,17.046H65.409c-8.725,0-15.799-7.629-15.799-17.046l0,0
		c0-9.41,7.075-17.041,15.799-17.041h167.363C241.499,166.32,248.572,173.951,248.572,183.361L248.572,183.361z"/>
	<path fill="#392726" d="M247.529,183.361c0,9.333-6.998,16.894-15.634,16.894H66.286c-8.633,0-15.633-7.561-15.633-16.894l0,0
		c0-9.327,7-16.89,15.633-16.89h165.61C240.531,166.472,247.529,174.034,247.529,183.361L247.529,183.361z"/>
	<path fill="#3A2826" d="M246.486,183.361c0,9.249-6.924,16.742-15.468,16.742H67.163c-8.542,0-15.469-7.493-15.469-16.742l0,0
		c0-9.243,6.927-16.737,15.469-16.737h163.855C239.562,166.624,246.486,174.118,246.486,183.361L246.486,183.361z"/>
	<path fill="#3B2927" d="M245.444,183.361c0,9.165-6.851,16.59-15.303,16.59H68.04c-8.451,0-15.303-7.425-15.303-16.59l0,0
		c0-9.159,6.852-16.586,15.303-16.586h162.102C238.594,166.775,245.444,174.202,245.444,183.361L245.444,183.361z"/>
	<path fill="#3C2A27" d="M244.402,183.361c0,9.081-6.777,16.438-15.138,16.438H68.917c-8.359,0-15.137-7.357-15.137-16.438l0,0
		c0-9.076,6.778-16.435,15.137-16.435h160.348C237.625,166.927,244.402,174.285,244.402,183.361L244.402,183.361z"/>
	<path fill="#3D2A28" d="M243.359,183.361c0,8.997-6.702,16.286-14.971,16.286H69.793c-8.268,0-14.971-7.289-14.971-16.286l0,0
		c0-8.991,6.703-16.282,14.971-16.282h158.596C236.657,167.079,243.359,174.37,243.359,183.361L243.359,183.361z"/>
	<path fill="#3E2B29" d="M242.317,183.361c0,8.914-6.629,16.135-14.807,16.135H70.671c-8.177,0-14.807-7.221-14.807-16.135l0,0
		c0-8.908,6.63-16.131,14.807-16.131h156.84C235.688,167.23,242.317,174.453,242.317,183.361L242.317,183.361z"/>
	<path fill="#3F2C29" d="M241.274,183.361c0,8.83-6.554,15.982-14.64,15.982H71.547c-8.085,0-14.64-7.152-14.64-15.982l0,0
		c0-8.824,6.555-15.979,14.64-15.979h155.087C234.721,167.383,241.274,174.537,241.274,183.361L241.274,183.361z"/>
	<path fill="#402D2A" d="M240.232,183.361c0,8.746-6.48,15.831-14.476,15.831H72.424c-7.993,0-14.474-7.085-14.474-15.831l0,0
		c0-8.74,6.481-15.827,14.474-15.827h153.333C233.752,167.534,240.232,174.621,240.232,183.361L240.232,183.361z"/>
	<path fill="#412D2B" d="M239.189,183.361c0,8.662-6.406,15.68-14.309,15.68H73.301c-7.902,0-14.31-7.018-14.31-15.68l0,0
		c0-8.656,6.408-15.675,14.31-15.675h151.58C232.783,167.687,239.189,174.705,239.189,183.361L239.189,183.361z"/>
	<path fill="#422E2B" d="M238.146,183.361c0,8.578-6.331,15.527-14.143,15.527H74.178c-7.811,0-14.144-6.949-14.144-15.527l0,0
		c0-8.572,6.333-15.523,14.144-15.523h149.826C231.815,167.838,238.146,174.789,238.146,183.361L238.146,183.361z"/>
	<path fill="#432F2C" d="M237.104,183.361c0,8.494-6.258,15.376-13.978,15.376H75.055c-7.719,0-13.978-6.882-13.978-15.376l0,0
		c0-8.488,6.259-15.371,13.978-15.371h148.072C230.847,167.99,237.104,174.873,237.104,183.361L237.104,183.361z"/>
	<path fill="#44302D" d="M236.062,183.361c0,8.411-6.184,15.224-13.812,15.224H75.932c-7.627,0-13.812-6.812-13.812-15.224l0,0
		c0-8.404,6.185-15.22,13.812-15.22H222.25C229.879,168.142,236.062,174.957,236.062,183.361L236.062,183.361z"/>
	<path fill="#44302D" d="M235.02,183.361c0,8.327-6.109,15.072-13.646,15.072H76.809c-7.536,0-13.646-6.745-13.646-15.072l0,0
		c0-8.32,6.11-15.067,13.646-15.067h144.564C228.91,168.294,235.02,175.041,235.02,183.361L235.02,183.361z"/>
	<path fill="#45312E" d="M233.978,183.361c0,8.243-6.035,14.92-13.481,14.92H77.686c-7.444,0-13.481-6.677-13.481-14.92l0,0
		c0-8.237,6.037-14.916,13.481-14.916h142.811C227.942,168.445,233.978,175.124,233.978,183.361L233.978,183.361z"/>
	<path fill="#46322F" d="M232.936,183.361c0,8.158-5.962,14.768-13.316,14.768H78.562c-7.354,0-13.315-6.609-13.315-14.768l0,0
		c0-8.153,5.962-14.764,13.315-14.764h141.057C226.974,168.598,232.936,175.208,232.936,183.361L232.936,183.361z"/>
	<path fill="#47332F" d="M231.893,183.361c0,8.075-5.888,14.616-13.15,14.616H79.439c-7.262,0-13.15-6.541-13.15-14.616l0,0
		c0-8.069,5.889-14.612,13.15-14.612h139.303C226.005,168.749,231.893,175.292,231.893,183.361L231.893,183.361z"/>
	<path fill="#483330" d="M230.85,183.361c0,7.991-5.812,14.465-12.984,14.465H80.316c-7.171,0-12.984-6.474-12.984-14.465l0,0
		c0-7.985,5.813-14.46,12.984-14.46h137.549C225.037,168.901,230.85,175.376,230.85,183.361L230.85,183.361z"/>
	<path fill="#493431" d="M229.808,183.361c0,7.908-5.739,14.312-12.819,14.312H81.193c-7.079,0-12.819-6.404-12.819-14.312l0,0
		c0-7.901,5.74-14.309,12.819-14.309h135.795C224.068,169.053,229.808,175.46,229.808,183.361L229.808,183.361z"/>
	<path fill="#4A3531" d="M228.765,183.361c0,7.824-5.665,14.161-12.653,14.161H82.07c-6.987,0-12.654-6.337-12.654-14.161l0,0
		c0-7.817,5.667-14.156,12.654-14.156h134.041C223.1,169.205,228.765,175.544,228.765,183.361L228.765,183.361z"/>
	<path fill="#4B3632" d="M227.723,183.361c0,7.739-5.591,14.009-12.488,14.009H82.947c-6.896,0-12.488-6.27-12.488-14.009l0,0
		c0-7.734,5.592-14.005,12.488-14.005h132.287C222.132,169.356,227.723,175.627,227.723,183.361L227.723,183.361z"/>
	<path fill="#4C3633" d="M226.68,183.361c0,7.656-5.516,13.857-12.322,13.857H83.824c-6.805,0-12.322-6.201-12.322-13.857l0,0
		c0-7.65,5.517-13.854,12.322-13.854h130.533C221.164,169.508,226.68,175.711,226.68,183.361L226.68,183.361z"/>
	<path fill="#4D3733" d="M225.638,183.361c0,7.572-5.442,13.705-12.157,13.705H84.701c-6.714,0-12.157-6.133-12.157-13.705l0,0
		c0-7.566,5.443-13.701,12.157-13.701H213.48C220.195,169.66,225.638,175.795,225.638,183.361L225.638,183.361z"/>
	<path fill="#4E3834" d="M224.596,183.361c0,7.488-5.369,13.554-11.992,13.554H85.578c-6.622,0-11.992-6.065-11.992-13.554l0,0
		c0-7.482,5.37-13.549,11.992-13.549h127.025C219.227,169.812,224.596,175.879,224.596,183.361L224.596,183.361z"/>
	<path fill="#4F3934" d="M223.553,183.361c0,7.404-5.295,13.401-11.826,13.401H86.455c-6.531,0-11.826-5.997-11.826-13.401l0,0
		c0-7.398,5.295-13.397,11.826-13.397h125.271C218.258,169.964,223.553,175.963,223.553,183.361L223.553,183.361z"/>
	<path fill="#503935" d="M222.51,183.361c0,7.32-5.22,13.25-11.66,13.25H87.332c-6.439,0-11.66-5.93-11.66-13.25l0,0
		c0-7.314,5.221-13.246,11.66-13.246H210.85C217.29,170.115,222.51,176.047,222.51,183.361L222.51,183.361z"/>
	<path fill="#513A36" d="M221.468,183.361c0,7.236-5.146,13.099-11.495,13.099H88.209c-6.348,0-11.495-5.862-11.495-13.099l0,0
		c0-7.23,5.147-13.094,11.495-13.094h121.764C216.322,170.268,221.468,176.131,221.468,183.361L221.468,183.361z"/>
	<path fill="#523B36" d="M220.426,183.361c0,7.152-5.072,12.946-11.33,12.946H89.086c-6.257,0-11.33-5.794-11.33-12.946l0,0
		c0-7.147,5.073-12.942,11.33-12.942h120.01C215.354,170.419,220.426,176.214,220.426,183.361L220.426,183.361z"/>
	<path fill="#533B37" d="M219.383,183.361c0,7.069-4.998,12.795-11.164,12.795H89.962c-6.165,0-11.164-5.726-11.164-12.795l0,0
		c0-7.063,4.999-12.79,11.164-12.79h118.256C214.385,170.571,219.383,176.298,219.383,183.361L219.383,183.361z"/>
	<path fill="#543C38" d="M218.341,183.361c0,6.985-4.924,12.643-10.999,12.643H90.839c-6.074,0-10.998-5.657-10.998-12.643l0,0
		c0-6.979,4.924-12.639,10.998-12.639h116.502C213.417,170.723,218.341,176.382,218.341,183.361L218.341,183.361z"/>
	<path fill="#553D38" d="M217.298,183.361c0,6.901-4.85,12.491-10.833,12.491H91.717c-5.982,0-10.833-5.59-10.833-12.491l0,0
		c0-6.896,4.851-12.486,10.833-12.486h114.748C212.448,170.875,217.298,176.466,217.298,183.361L217.298,183.361z"/>
	<path fill="#563E39" d="M216.256,183.361c0,6.817-4.775,12.339-10.668,12.339H92.593c-5.891,0-10.667-5.521-10.667-12.339l0,0
		c0-6.812,4.776-12.335,10.667-12.335h112.995C211.48,171.026,216.256,176.55,216.256,183.361L216.256,183.361z"/>
	<path fill="#573E3A" d="M215.213,183.361c0,6.733-4.701,12.188-10.502,12.188H93.47c-5.799,0-10.501-5.454-10.501-12.188l0,0
		c0-6.728,4.702-12.183,10.501-12.183h111.241C210.512,171.179,215.213,176.634,215.213,183.361L215.213,183.361z"/>
	<path fill="#583F3A" d="M214.17,183.361c0,6.65-4.627,12.035-10.336,12.035H94.348c-5.709,0-10.336-5.385-10.336-12.035l0,0
		c0-6.645,4.627-12.03,10.336-12.03h109.486C209.543,171.331,214.17,176.717,214.17,183.361L214.17,183.361z"/>
	<path fill="#59403B" d="M213.128,183.361c0,6.566-4.553,11.884-10.171,11.884H95.224c-5.616,0-10.17-5.317-10.17-11.884l0,0
		c0-6.561,4.554-11.879,10.17-11.879h107.733C208.575,171.482,213.128,176.801,213.128,183.361L213.128,183.361z"/>
	<path fill="#5A413C" d="M212.086,183.361c0,6.482-4.479,11.731-10.006,11.731H96.101c-5.525,0-10.005-5.249-10.005-11.731l0,0
		c0-6.477,4.479-11.728,10.005-11.728H202.08C207.606,171.634,212.086,176.885,212.086,183.361L212.086,183.361z"/>
	<path fill="#5B413C" d="M211.043,183.361c0,6.398-4.405,11.58-9.84,11.58H96.978c-5.434,0-9.839-5.182-9.839-11.58l0,0
		c0-6.393,4.405-11.575,9.839-11.575h104.225C206.638,171.786,211.043,176.969,211.043,183.361L211.043,183.361z"/>
	<path fill="#5C423D" d="M210.001,183.361c0,6.314-4.331,11.428-9.675,11.428H97.854c-5.342,0-9.673-5.113-9.673-11.428l0,0
		c0-6.309,4.331-11.424,9.673-11.424h102.472C205.67,171.938,210.001,177.053,210.001,183.361L210.001,183.361z"/>
	<path fill="#5D433E" d="M208.958,183.361c0,6.23-4.257,11.276-9.509,11.276H98.732c-5.251,0-9.508-5.046-9.508-11.276l0,0
		c0-6.225,4.257-11.271,9.508-11.271h100.717C204.701,172.09,208.958,177.137,208.958,183.361L208.958,183.361z"/>
	<path fill="#5E443E" d="M207.916,183.361c0,6.146-4.183,11.125-9.344,11.125H99.608c-5.159,0-9.342-4.979-9.342-11.125l0,0
		c0-6.142,4.183-11.119,9.342-11.119h98.964C203.733,172.242,207.916,177.22,207.916,183.361L207.916,183.361z"/>
	<path fill="#5F443F" d="M206.873,183.361c0,6.062-4.108,10.973-9.178,10.973h-97.21c-5.068,0-9.177-4.91-9.177-10.973l0,0
		c0-6.058,4.109-10.968,9.177-10.968h97.21C202.765,172.394,206.873,177.304,206.873,183.361L206.873,183.361z"/>
	<path fill="#604540" d="M205.83,183.361c0,5.979-4.034,10.821-9.012,10.821h-95.456c-4.977,0-9.012-4.842-9.012-10.821l0,0
		c0-5.973,4.035-10.816,9.012-10.816h95.456C201.796,172.545,205.83,177.389,205.83,183.361L205.83,183.361z"/>
	<path fill="#614640" d="M204.788,183.361c0,5.896-3.96,10.669-8.846,10.669h-93.703c-4.886,0-8.846-4.773-8.846-10.669l0,0
		c0-5.89,3.96-10.664,8.846-10.664h93.703C200.828,172.697,204.788,177.472,204.788,183.361L204.788,183.361z"/>
	<path fill="#624741" d="M203.746,183.361c0,5.812-3.887,10.518-8.682,10.518h-91.948c-4.794,0-8.68-4.706-8.68-10.518l0,0
		c0-5.806,3.886-10.513,8.68-10.513h91.948C199.859,172.849,203.746,177.556,203.746,183.361L203.746,183.361z"/>
	<path fill="#634742" d="M202.703,183.361c0,5.728-3.812,10.365-8.515,10.365h-90.195c-4.703,0-8.515-4.638-8.515-10.365l0,0
		c0-5.722,3.812-10.36,8.515-10.36h90.195C198.892,173.001,202.703,177.64,202.703,183.361L202.703,183.361z"/>
	<path fill="#644842" d="M201.661,183.361c0,5.644-3.738,10.214-8.351,10.214h-88.44c-4.611,0-8.35-4.57-8.35-10.214l0,0
		c0-5.638,3.739-10.209,8.35-10.209h88.44C197.923,173.152,201.661,177.724,201.661,183.361L201.661,183.361z"/>
	<path fill="#654943" d="M200.618,183.361c0,5.561-3.663,10.062-8.184,10.062h-86.688c-4.52,0-8.184-4.501-8.184-10.062l0,0
		c0-5.554,3.664-10.058,8.184-10.058h86.688C196.955,173.304,200.618,177.808,200.618,183.361L200.618,183.361z"/>
	<path fill="#664A43" d="M199.576,183.361c0,5.477-3.59,9.91-8.019,9.91h-84.934c-4.429,0-8.018-4.434-8.018-9.91l0,0
		c0-5.471,3.589-9.905,8.018-9.905h84.934C195.986,173.456,199.576,177.891,199.576,183.361L199.576,183.361z"/>
	<path fill="#674A44" d="M198.533,183.361c0,5.392-3.516,9.758-7.853,9.758h-83.18c-4.337,0-7.853-4.366-7.853-9.758l0,0
		c0-5.387,3.516-9.753,7.853-9.753h83.18C195.018,173.608,198.533,177.975,198.533,183.361L198.533,183.361z"/>
	<path fill="#684B45" d="M197.491,183.361c0,5.309-3.441,9.606-7.688,9.606h-81.426c-4.246,0-7.688-4.298-7.688-9.606l0,0
		c0-5.303,3.442-9.602,7.688-9.602h81.426C194.05,173.76,197.491,178.059,197.491,183.361L197.491,183.361z"/>
	<path fill="#694C45" d="M196.449,183.361c0,5.225-3.368,9.455-7.522,9.455h-79.672c-4.154,0-7.522-4.23-7.522-9.455l0,0
		c0-5.219,3.368-9.449,7.522-9.449h79.672C193.081,173.912,196.449,178.143,196.449,183.361L196.449,183.361z"/>
	<path fill="#6A4D46" d="M195.406,183.361c0,5.141-3.293,9.303-7.356,9.303h-77.918c-4.062,0-7.356-4.162-7.356-9.303l0,0
		c0-5.135,3.293-9.298,7.356-9.298h77.918C192.113,174.063,195.406,178.227,195.406,183.361L195.406,183.361z"/>
	<path fill="#6B4D47" d="M194.363,183.361c0,5.057-3.219,9.15-7.19,9.15h-76.164c-3.972,0-7.191-4.094-7.191-9.15l0,0
		c0-5.051,3.219-9.146,7.191-9.146h76.164C191.145,174.216,194.363,178.311,194.363,183.361L194.363,183.361z"/>
	<path fill="#6C4E47" d="M193.321,183.361c0,4.973-3.145,8.999-7.025,8.999h-74.411c-3.879,0-7.025-4.026-7.025-8.999l0,0
		c0-4.967,3.146-8.994,7.025-8.994h74.411C190.177,174.367,193.321,178.395,193.321,183.361L193.321,183.361z"/>
	<path fill="#6D4F48" d="M192.278,183.361c0,4.89-3.07,8.848-6.859,8.848h-72.657c-3.788,0-6.859-3.958-6.859-8.848l0,0
		c0-4.883,3.071-8.842,6.859-8.842h72.657C189.208,174.52,192.278,178.479,192.278,183.361L192.278,183.361z"/>
	<path fill="#6E5049" d="M191.236,183.361c0,4.806-2.997,8.695-6.694,8.695h-70.903c-3.697,0-6.693-3.89-6.693-8.695l0,0
		c0-4.8,2.996-8.69,6.693-8.69h70.903C188.239,174.671,191.236,178.562,191.236,183.361L191.236,183.361z"/>
	<path fill="#6F5049" d="M190.193,183.361c0,4.722-2.922,8.543-6.528,8.543h-69.149c-3.605,0-6.528-3.821-6.528-8.543l0,0
		c0-4.716,2.923-8.539,6.528-8.539h69.149C187.271,174.822,190.193,178.646,190.193,183.361L190.193,183.361z"/>
	<path fill="#70514A" d="M189.151,183.361c0,4.638-2.849,8.392-6.363,8.392h-67.395c-3.514,0-6.363-3.754-6.363-8.392l0,0
		c0-4.632,2.849-8.387,6.363-8.387h67.395C186.303,174.975,189.151,178.729,189.151,183.361L189.151,183.361z"/>
</g>
<path fill="#61D45D" d="M277.363,169.405c-3.561,4.087-11.18-2.028-22.527,0c-8.757,1.564-27.862-4.537-39.755-3.944
	c-12.551,0.626-34.928,10.841-49.474,10.642c-19.088-0.261-34.431-9.07-53.888-10.232c-22.629-1.35-41.152,7.841-59.191,6.139
	c-27.554-2.596-25.583-11.869-46.823-2.604c-8.953,3.909,13.945-23.969,21.645-29.735c5.152-3.858,13.536,10.943,20.76,7.777
	c8.601-3.767,27.183-5.447,37.987-8.187c16.504-4.187,28.859,9.015,48.149,7.369c30.095-2.568,54.152-11.939,82.16-7.778
	c30.719,4.566,40.455-10.637,55.024,2.866C278.432,148.202,283.586,162.27,277.363,169.405z"/>
<path fill="#659941" d="M14.162,164.787c3.593,4.083,11.28-2.029,22.726,0c8.836,1.563,28.107-4.538,40.105-3.945
	c12.664,0.624,35.235,10.841,49.909,10.643c19.256-0.262,34.734-9.073,54.363-10.232c22.828-1.353,41.516,7.838,59.711,6.138
	c27.797-2.595,25.81-11.872,47.236-2.603c9.033,3.906-14.068-23.971-21.836-29.737c-5.196-3.856-13.653,10.942-20.943,7.778
	c-8.676-3.768-27.421-5.448-38.321-8.188c-16.647-4.185-29.112,9.015-48.572,7.368c-30.361-2.568-54.63-11.938-82.884-7.777
	c-30.99,4.565-40.812-10.638-55.51,2.864C13.086,143.583,7.885,157.651,14.162,164.787z"/>
<path fill="#61D45D" d="M22.193,161.299c3.562,4.086,11.181-2.026,22.528,0c8.757,1.563,27.862-4.538,39.755-3.945
	c12.551,0.627,34.927,10.844,49.473,10.643c19.088-0.262,34.431-9.073,53.888-10.232c22.63-1.353,41.152,7.838,59.191,6.141
	c27.554-2.598,25.582-11.873,46.823-2.605c8.953,3.906-13.945-23.969-21.646-29.735c-5.151-3.858-13.535,10.942-20.76,7.776
	c-8.601-3.766-27.184-5.446-37.987-8.188c-16.505-4.185-28.859,9.015-48.149,7.37c-30.095-2.568-54.152-11.94-82.161-7.778
	c-30.718,4.567-40.455-10.638-55.024,2.866C21.125,140.095,15.972,154.163,22.193,161.299z"/>
<path fill="#C88360" d="M279.408,137.899c0,31.554-58.909,12.114-131.579,12.114s-131.579,19.44-131.579-12.114
	c0-31.553,21.828-102.15,131.579-102.15C245.146,35.749,279.408,106.346,279.408,137.899z"/>
<path fill="#B26134" d="M147.83,128.904c-65.734,0-119.798,17.076-126.325-6.76c-0.455,3.7-0.661,7.14-0.661,10.203
	c0,31.553,56.852,12.114,126.986,12.114s126.986,19.439,126.986-12.114c0-2.905-0.284-6.146-0.867-9.628
	C266.677,145.665,213.003,128.904,147.83,128.904z"/>
<ellipse fill="#FFC717" cx="145.324" cy="77.407" rx="3.419" ry="3.141"/>
<ellipse fill="#FFC717" cx="99.128" cy="62.393" rx="3.419" ry="3.143"/>
<ellipse fill="#FFC717" cx="118.807" cy="89.435" rx="3.419" ry="3.141"/>
<ellipse fill="#FFC717" cx="72.611" cy="74.421" rx="3.419" ry="3.141"/>
<ellipse fill="#FFC717" cx="207.263" cy="89.435" rx="3.419" ry="3.141"/>
<ellipse fill="#FFC717" cx="178.894" cy="51.223" rx="3.419" ry="3.141"/>
<ellipse fill="#FFC717" cx="185.732" cy="74.266" rx="3.419" ry="3.141"/>
<ellipse fill="#FFC717" cx="118.807" cy="51.223" rx="3.419" ry="3.141"/>
<ellipse fill="#FFC717" cx="210.683" cy="67.983" rx="3.419" ry="3.141"/>
<ellipse fill="#FFC717" cx="92.29" cy="83.153" rx="3.419" ry="3.141"/>
<ellipse fill="#FFC717" cx="161.066" cy="74.421" rx="3.419" ry="3.141"/>
</svg>
