<?xml version="1.0" encoding="utf-8"?>
<!-- Generator: Adobe Illustrator 16.0.0, SVG Export Plug-In . SVG Version: 6.00 Build 0)  -->
<!DOCTYPE svg PUBLIC "-//W3C//DTD SVG 1.1 Basic//EN" "http://www.w3.org/Graphics/SVG/1.1/DTD/svg11-basic.dtd">
<svg version="1.1" baseProfile="basic" id="Layer_1"
	 xmlns="http://www.w3.org/2000/svg" xmlns:xlink="http://www.w3.org/1999/xlink" x="0px" y="0px" width="300px" height="300px"
	 viewBox="0 0 300 300" xml:space="preserve">
<path opacity="0.15" fill-rule="evenodd" clip-rule="evenodd" fill="#010101" d="M153.356,296.933
	c-11.061,0-20.026-12.044-20.026-26.9c0-10.459,4.445-95.01,10.935-144.147c0.955-7.235-2.171-13.947-8.325-17.871
	c-6.943-4.428-12.805-11.421-16.903-20.068c-9.379-19.784-0.539-47.775,5.369-65.393c0.107-0.322,0.427-0.515,0.762-0.459
	c0.336,0.055,0.578,0.339,0.578,0.679v42.704c0,2.921,2.39,5.31,5.31,5.31l0,0c2.92,0,5.014-2.404,5.31-5.31l5.473-53.657
	c0.035-0.354,0.333-0.621,0.689-0.618c0.355,0.002,0.648,0.272,0.681,0.626l4.839,53.649c0.262,2.909,2.389,5.31,5.31,5.31
	c2.92,0,5.047-2.401,5.31-5.31l4.839-53.649c0.032-0.354,0.325-0.624,0.682-0.626c0.355-0.002,0.652,0.264,0.688,0.618l5.473,53.657
	c0.297,2.906,2.389,5.31,5.311,5.31l0,0c2.92,0,5.31-2.389,5.31-5.31V22.772c0-0.34,0.242-0.624,0.577-0.679
	c0.335-0.055,0.654,0.138,0.763,0.459c5.907,17.618,14.748,45.609,5.368,65.393c-4.099,8.647-9.96,15.641-16.903,20.068
	c-6.153,3.924-9.28,10.635-8.325,17.871c6.49,49.137,10.935,133.688,10.935,144.147
	C173.382,284.889,164.416,296.933,153.356,296.933L153.356,296.933z M153.356,70.787"/>
<path fill-rule="evenodd" clip-rule="evenodd" fill="#CAE1DF" d="M145.265,289.303c-11.061,0-20.026-12.044-20.026-26.9
	c0-10.459,4.445-95.01,10.935-144.147c0.955-7.235-2.171-13.947-8.325-17.871c-6.943-4.428-12.805-11.421-16.903-20.068
	c-9.379-19.784-0.539-47.775,5.369-65.393c0.107-0.322,0.427-0.515,0.762-0.459c0.336,0.055,0.578,0.339,0.578,0.679v42.704
	c0,2.921,2.39,5.31,5.31,5.31l0,0c2.92,0,5.014-2.404,5.31-5.31l5.473-53.657c0.035-0.354,0.333-0.621,0.689-0.618
	c0.355,0.002,0.648,0.272,0.681,0.626l4.839,53.649c0.262,2.909,2.389,5.31,5.31,5.31c2.92,0,5.047-2.401,5.31-5.31l4.839-53.649
	c0.031-0.354,0.324-0.624,0.681-0.626c0.355-0.002,0.653,0.264,0.689,0.618l5.473,53.657c0.296,2.906,2.389,5.31,5.31,5.31l0,0
	c2.921,0,5.31-2.389,5.31-5.31V15.143c0-0.34,0.242-0.625,0.577-0.679c0.336-0.055,0.655,0.138,0.764,0.459
	c5.907,17.618,14.747,45.609,5.368,65.393c-4.1,8.647-9.961,15.641-16.904,20.068c-6.152,3.924-9.279,10.636-8.325,17.871
	c6.49,49.137,10.936,133.688,10.936,144.147C165.291,277.259,156.325,289.303,145.265,289.303L145.265,289.303z M145.265,63.157"/>
</svg>
