<?xml version="1.0" encoding="utf-8"?>
<!-- Generator: Adobe Illustrator 16.0.0, SVG Export Plug-In . SVG Version: 6.00 Build 0)  -->
<!DOCTYPE svg PUBLIC "-//W3C//DTD SVG 1.1 Basic//EN" "http://www.w3.org/Graphics/SVG/1.1/DTD/svg11-basic.dtd">
<svg version="1.1" baseProfile="basic" id="Layer_1"
	 xmlns="http://www.w3.org/2000/svg" xmlns:xlink="http://www.w3.org/1999/xlink" x="0px" y="0px" width="300px" height="300px"
	 viewBox="0 0 300 300" xml:space="preserve">
<path fill-rule="evenodd" clip-rule="evenodd" fill="#5E5753" d="M188.544,112.113c-19.179-3.085-32.688,4.597-38.993,15.804
	c-6.306-11.207-19.815-18.889-38.994-15.804c-27.214,4.377-50.103,54.285-75.983,49.717c-10.267-1.812-24.537-14.762,9.75-28.02
	c-31.214-5.311-86.564,58.254,23.22,55.576c43.048-1.05,71.888-17.875,82.007-33.915c10.118,16.04,38.96,32.865,82.008,33.915
	c109.783,2.679,54.433-60.886,23.22-55.576c34.286,13.258,20.016,26.208,9.749,28.02
	C238.647,166.397,215.759,116.49,188.544,112.113z"/>
<path fill-rule="evenodd" clip-rule="evenodd" fill="#999390" d="M292.674,168.511c-1.608,5.729-7.492,9.299-12.736,11.451
	c-13.794,5.66-33.613,6.186-48.292,5.828c-20.87-0.509-43.605-5.062-61.586-16.135c-5.862-3.61-11.688-8.237-15.854-13.767
	c-2.64-3.504-5.079-8.061-5.079-12.562c0-2.632,0.37-5.257,1.101-7.786c1.392-4.81,4.018-9.056,7.594-12.403
	c-0.769,1.52-1.4,3.121-1.884,4.79c-0.731,2.528-1.102,5.153-1.102,7.785c0,4.501,2.439,9.059,5.079,12.562
	c4.166,5.53,9.991,10.156,15.854,13.767c17.98,11.073,40.715,15.625,61.586,16.135c14.678,0.358,34.498-0.168,48.291-5.828
	C288.009,171.379,290.5,170.122,292.674,168.511z"/>
<path fill-rule="evenodd" clip-rule="evenodd" fill="#999390" d="M6.428,168.511c1.607,5.729,7.492,9.299,12.736,11.451
	c13.793,5.66,33.613,6.186,48.292,5.828c20.871-0.509,43.606-5.062,61.586-16.135c5.862-3.61,11.688-8.237,15.854-13.767
	c2.64-3.504,5.079-8.061,5.079-12.562c0-2.632-0.37-5.257-1.102-7.786c-1.392-4.81-4.018-9.056-7.593-12.403
	c0.769,1.52,1.4,3.121,1.883,4.79c0.732,2.528,1.102,5.153,1.102,7.785c0,4.501-2.439,9.059-5.079,12.562
	c-4.166,5.53-9.991,10.156-15.854,13.767c-17.98,11.073-40.715,15.625-61.586,16.135c-14.678,0.358-34.498-0.168-48.291-5.828
	C11.092,171.379,8.601,170.122,6.428,168.511z"/>
</svg>
