<?xml version="1.0" encoding="utf-8"?>
<!DOCTYPE svg PUBLIC "-//W3C//DTD SVG 1.1 Basic//EN" "http://www.w3.org/Graphics/SVG/1.1/DTD/svg11-basic.dtd">
<svg version="1.1" baseProfile="basic" id="Layer_1"
	 xmlns="http://www.w3.org/2000/svg" xmlns:xlink="http://www.w3.org/1999/xlink" x="0px" y="0px" width="300px" height="300px"
	 viewBox="0 0 300 300" xml:space="preserve">
<g>
	<polygon fill="#D4976F" points="141.735,298.276 76.688,138.677 206.78,138.838"/>
	<g>
		<polygon fill="#8C5935" points="188.408,173.536 190.005,169.622 168.027,147.645 162.512,147.638"/>
		<polygon fill="#8C5935" points="181.334,190.87 182.93,186.961 143.586,147.612 138.068,147.605"/>
		<polygon fill="#8C5935" points="174.261,208.209 175.856,204.296 119.146,147.583 113.629,147.576"/>
		<polygon fill="#8C5935" points="167.189,225.548 168.785,221.635 94.704,147.553 89.188,147.546"/>
		<polygon fill="#8C5935" points="160.114,242.883 161.711,238.969 94.23,171.49 98.021,180.791"/>
		<polygon fill="#8C5935" points="153.042,260.222 154.638,256.308 111.023,212.693 114.814,221.995"/>
		<polygon fill="#8C5935" points="145.969,277.557 147.564,273.646 127.818,253.897 131.606,263.199"/>
		<polygon fill="#8C5935" points="94.68,173.536 93.085,169.622 115.062,147.645 120.578,147.638"/>
		<polygon fill="#8C5935" points="101.755,190.87 100.157,186.961 139.502,147.612 145.018,147.605"/>
		<polygon fill="#8C5935" points="108.827,208.209 107.23,204.296 163.943,147.583 169.461,147.576"/>
		<polygon fill="#8C5935" points="115.9,225.548 114.304,221.635 188.387,147.553 193.902,147.546"/>
		<polygon fill="#8C5935" points="122.974,242.883 121.377,238.969 188.858,171.49 185.066,180.791"/>
		<polygon fill="#8C5935" points="130.047,260.222 128.449,256.308 172.064,212.693 168.272,221.995"/>
		<polygon fill="#8C5935" points="137.119,277.557 135.521,273.646 155.271,253.897 151.479,263.199"/>
	</g>
</g>
<rect x="76.688" y="126.631" fill="#8C5935" width="130.092" height="12.046"/>
<path fill="#F9EBBA" d="M199.541,102.833c6.479-2.124,8.533-6.776,4.909-19.431c-3.312-11.56-8.677-17.292-16.396-20.083
	c4.649-4.335,4.199-11.097,0.805-26.295c-5.953-26.622-44.116-35.301-44.116-35.301s1.74,12.565-24.164,28.017
	c-5.5,3.282-21.182,7.708-18.818,18.45c0.054,0.245,0.143,0.491,0.216,0.735c-8.066,2.786-13.633,7.936-19.327,17.192
	c-6.338,10.304-2.615,15.173,4.644,17.787c-9.204,3.033-15.58,9.367-19.495,22.324c-9.09,30.084,12.421,19.266,50.108,27.681
	c34.374,7.674,92.718,3.659,92.718-12.995C210.625,115.214,206.505,108.804,199.541,102.833z"/>
<path fill="#E5D4A0" d="M196.762,101.332c6.183-2.029,8.146-6.47,4.684-18.552c-3.161-11.035-8.283-16.508-15.652-19.172
	c4.438-4.139,4.011-10.595,0.767-25.104c-5.68-25.414-41.817-36.781-41.817-36.781s26.983,17.987,30.165,32.218
	c3.245,14.508-8.758,18.042-13.196,22.181c7.369,2.664,19.448,12.821,24.146,23.294c8.045,17.925-7.731,17.925-20.618,15.321
	c17.69,7.394,26.516,15.05,26.516,20.49c0,15.899-55.7,19.732-88.515,12.406c-11.896-2.656-22.09-3.304-30.111-4.021
	c7.213,4.45,23.513,2.433,45.698,7.385c32.814,7.326,88.514,3.493,88.514-12.406C207.34,113.151,203.406,107.031,196.762,101.332z"
	/>
<path opacity="0.25" fill="#E5D4A0" d="M102.784,49.209c0,0,9.465,2.878,12.81,3.509c4.64,0.877,19.128,2.527,19.128,2.527
	s-20.027-5.395-27.5-12.452C102.594,38.422,102.784,49.209,102.784,49.209z"/>
<path opacity="0.25" fill="#E5D4A0" d="M88.641,83.779c0,0,9.465,2.878,12.81,3.51c4.64,0.877,36.895,5.089,36.895,5.089
	s-13.832-4.493-26.963-11.232c-12.72-6.529-24.699-15.374-27.902-11.458C76.688,77.988,88.641,83.779,88.641,83.779z"/>
</svg>
