<?xml version="1.0" encoding="utf-8"?>
<!-- Generator: Adobe Illustrator 16.0.0, SVG Export Plug-In . SVG Version: 6.00 Build 0)  -->
<!DOCTYPE svg PUBLIC "-//W3C//DTD SVG 1.1 Basic//EN" "http://www.w3.org/Graphics/SVG/1.1/DTD/svg11-basic.dtd">
<svg version="1.1" baseProfile="basic" id="Layer_1"
	 xmlns="http://www.w3.org/2000/svg" xmlns:xlink="http://www.w3.org/1999/xlink" x="0px" y="0px" width="300px" height="300px"
	 viewBox="0 0 300 300" xml:space="preserve">
<path opacity="0.15" fill-rule="evenodd" clip-rule="evenodd" fill="#010101" d="M167.146,21.301l0.46,110.531
	c0.023,5.765-1.436,10.718-4.58,15.551c-1.899,2.92-2.711,6.454-2.222,10.155c5.337,40.414,8.993,109.952,8.993,118.555
	c0,12.22-7.374,22.125-16.471,22.125c-9.096,0-16.47-9.905-16.47-22.125c0-8.603,3.656-78.141,8.993-118.555
	c0.454-3.437-9.233-15.162-9.233-36.138C136.617,96.592,156.128,13.217,167.146,21.301z"/>
<path fill-rule="evenodd" clip-rule="evenodd" fill="#CAE1DF" d="M160.491,15.026l0.46,110.531
	c0.024,5.765-1.436,10.718-4.579,15.55c-1.9,2.92-2.711,6.455-2.223,10.156c5.338,40.413,8.993,109.952,8.993,118.555
	c0,12.219-7.373,22.125-16.47,22.125c-9.097,0-16.47-9.906-16.47-22.125c0-8.603,3.656-78.142,8.993-118.555
	c0.454-3.437-9.233-15.162-9.233-36.139C129.962,90.316,149.473,6.941,160.491,15.026z"/>
</svg>
