<?xml version="1.0" encoding="utf-8"?>
<!DOCTYPE svg PUBLIC "-//W3C//DTD SVG 1.1 Basic//EN" "http://www.w3.org/Graphics/SVG/1.1/DTD/svg11-basic.dtd">
<svg version="1.1" baseProfile="basic" id="Layer_1"
	 xmlns="http://www.w3.org/2000/svg" xmlns:xlink="http://www.w3.org/1999/xlink" x="0px" y="0px" width="300px" height="300px"
	 viewBox="0 0 300 300" xml:space="preserve">
<polygon fill="#D1B8B5" points="151.689,294.367 21.417,228.923 14.641,83.614 151.689,152.46 "/>
<polygon fill="#A9918E" points="150.098,294.367 279.721,229.25 285.557,83.941 151.689,152.46 "/>
<polygon fill="#DCCAC7" points="151.775,198.116 9.588,128.498 5.984,71.685 151.775,144.924 "/>
<polygon fill="#C4A8A4" points="151.775,198.116 292.116,123.483 294.183,72.033 151.775,144.924 "/>
<polygon fill="#E9CCC5" points="151.775,144.924 5.984,71.685 148.324,6.859 294.183,72.033 "/>
<path fill="#E0D384" d="M73.895,256.758"/>
<polygon fill="#AE2627" points="202.941,31.262 62.667,98.995 62.667,251.116 85.123,262.396 85.123,113.088 229.764,43.249 "/>
<polygon fill="#AE2627" points="100.72,29.357 240.992,97.089 240.992,249.211 218.536,260.49 218.536,111.183 73.895,41.343 "/>
<g>
	<path fill="#EE4037" d="M181.496,158.301l-16.791-4.98l-11.318,11.017c0,0-9.61-28.994-11.736-38.892
		c-4.979-23.175,3.367-49.462,3.367-49.462l13.464-2.892c0,0,4.079,34.728,6.516,46.075
		C167.186,129.365,181.496,158.301,181.496,158.301z"/>
	<path fill="#EE4037" d="M164.705,153.32l16.791,4.98c0,0-14.311-28.936-16.499-39.135c-2.437-11.348-6.516-46.075-6.516-46.075
		l-8.464,1.82C143.511,93.295,148.675,123.405,164.705,153.32z"/>
	<path fill="#EE4037" d="M217.079,137.519l3.913-17.069l15.156-4.445c0,0-20.536-22.615-28.109-29.333
		C190.3,70.948,163.307,65.3,163.307,65.3l-9.138,10.307c0,0,28.246,20.614,36.93,28.316
		C198.906,110.839,217.079,137.519,217.079,137.519z"/>
	<path fill="#EE4037" d="M220.989,120.45l-3.91,17.069c0,0-18.173-26.679-25.98-33.595c-8.684-7.702-36.93-28.316-36.93-28.316
		l5.745-6.477C179.125,72.496,202.81,91.79,220.989,120.45z"/>
</g>
<path fill="#EE4037" d="M146.254,80.228c0,0-9.382,14.082-18.209,24.447c-6.206,7.295-14.5,8.47-14.5,8.47
	s-10.295-8.056-13.289-12.454c-5.418-7.965-8.397-17.627-8.397-17.627s-0.006-10.349,8.77-15.473
	c14.98-8.75,36.941-5.324,36.941-5.324L146.254,80.228z"/>
<path fill="#CC2D29" d="M112.46,112.282L112.46,112.282c0.675,0.546,1.084,0.863,1.084,0.863s8.294-1.174,14.5-8.47
	c8.827-10.366,18.209-24.447,18.209-24.447S134.641,86.2,119.045,94.93C110.176,99.894,112.46,112.282,112.46,112.282z"/>
<path fill="#EE4037" d="M164.598,69.513c0,0,16.874-1.252,30.239-3.845c9.405-1.822,14.503-8.47,14.503-8.47
	s-1.959-12.924-4.317-17.693c-4.276-8.633-11.224-15.975-11.224-15.975s-9.011-5.088-17.788,0.037
	c-14.98,8.75-22.787,29.559-22.787,29.559L164.598,69.513z"/>
<path fill="#CC2D29" d="M209.121,55.829L209.121,55.829c0.144,0.857,0.219,1.369,0.219,1.369s-5.098,6.647-14.503,8.47
	c-13.365,2.593-30.239,3.845-30.239,3.845s10.909-7.178,26.177-16.474C199.457,47.754,209.121,55.829,209.121,55.829z"/>
<path fill="#CC2D29" d="M152.97,62.632c0.731,1.508-5.792,6.189-14.571,10.46c-8.781,4.274-16.492,6.516-17.225,5.005
	c-0.733-1.506,5.791-6.191,14.57-10.46C144.524,63.368,152.236,61.124,152.97,62.632z"/>
<path fill="#CC2D29" d="M149.086,64.898c0.905,1.403,7.358-1.747,14.41-7.037c7.055-5.29,12.037-10.717,11.136-12.118
	c-0.906-1.404-7.358,1.75-14.41,7.042C153.165,58.073,148.182,63.497,149.086,64.898z"/>
<path fill="#CC2D29" d="M164.037,64.42c3.889,6.66-0.95,9.238-6.788,12.649l0,0c-5.838,3.409-10.463,6.355-14.354-0.305
	l-4.917-8.418c-3.891-6.665-0.094-11.026,5.745-14.438l0,0c5.839-3.409,11.504-4.574,15.397,2.091L164.037,64.42z"/>
<path fill="#EE4037" d="M163.433,63.39c3.192,5.46-1.628,8.07-7.468,11.484l0,0c-5.836,3.406-10.48,6.323-13.671,0.862l-4.03-6.903
	c-3.187-5.46,0.778-9.535,6.616-12.944l0,0c5.838-3.411,11.337-4.863,14.523,0.597L163.433,63.39z"/>
</svg>
