<?xml version="1.0" encoding="utf-8"?>
<!DOCTYPE svg PUBLIC "-//W3C//DTD SVG 1.1 Basic//EN" "http://www.w3.org/Graphics/SVG/1.1/DTD/svg11-basic.dtd">
<svg version="1.1" baseProfile="basic" id="Layer_1"
	 xmlns="http://www.w3.org/2000/svg" xmlns:xlink="http://www.w3.org/1999/xlink" x="0px" y="0px" width="300px" height="300px"
	 viewBox="0 0 300 300" xml:space="preserve">
<g>
	<g>
		
			<linearGradient id="SVGID_1_" gradientUnits="userSpaceOnUse" x1="-56.3101" y1="46.8784" x2="-56.3101" y2="-37.4563" gradientTransform="matrix(0.8428 -0.5382 0.5382 0.8428 102.2363 179.5586)">
			<stop  offset="0" style="stop-color:#E3A1AC"/>
			<stop  offset="0.5455" style="stop-color:#FCE3E3"/>
			<stop  offset="1" style="stop-color:#E3A1AC"/>
		</linearGradient>
		<path fill="url(#SVGID_1_)" d="M95.555,255.793c0.316-0.3,0.639-0.595,0.941-0.902c9.51-9.478,21.931-32.245-2.045-69.79
			c-19.436-30.435-41.868-33.979-55.876-31.612c-3.473,0.389-6.866,1.434-10.039,3.17c-0.603,0.303-1.15,0.611-1.61,0.905
			c-13.602,8.688-16.951,27.763-7.474,42.603c0.173,0.272,0.372,0.515,0.55,0.779c-8.924,9.752-10.173,25.42-2.11,38.051
			c8.186,12.817,23.257,18.267,35.981,13.918c10.118,10.713,25.88,13.553,37.754,5.972c0.586-0.374,1.252-0.851,1.962-1.409
			c0.454-0.352,0.883-0.721,1.312-1.101C95.115,256.189,95.335,255.996,95.555,255.793z"/>
		<path opacity="0.65" fill="none" stroke="#C17CA4" stroke-width="2" stroke-miterlimit="10" d="M31.403,199.071
			c0,0,35.6-23.464,56.851-9.354"/>
		<path opacity="0.65" fill="none" stroke="#C17CA4" stroke-width="2" stroke-miterlimit="10" d="M60.39,244.461
			c0,0,36.263-22.424,32.399-47.641"/>
	</g>
	<g>
		
			<linearGradient id="SVGID_2_" gradientUnits="userSpaceOnUse" x1="622.4512" y1="46.8696" x2="622.4512" y2="-37.4644" gradientTransform="matrix(-0.8428 0.5382 0.5382 0.8428 768.0503 -245.6113)">
			<stop  offset="0" style="stop-color:#E3A1AC"/>
			<stop  offset="0.5455" style="stop-color:#FCE3E3"/>
			<stop  offset="1" style="stop-color:#E3A1AC"/>
		</linearGradient>
		<path fill="url(#SVGID_2_)" d="M267.957,145.697c-0.404,0.163-0.806,0.332-1.213,0.475c-12.604,4.645-38.479,6.334-62.454-31.21
			c-19.436-30.436-13.214-52.279-5.173-63.993c1.811-2.987,4.185-5.624,7.094-7.772c0.533-0.419,1.04-0.786,1.5-1.079
			c13.604-8.688,32.318-3.701,41.796,11.139c0.173,0.272,0.311,0.553,0.474,0.828c12.603-3.996,27.347,1.464,35.409,14.093
			c8.187,12.817,6.788,28.782-2.507,38.497c5.459,13.686,1.406,29.18-10.471,36.765c-0.583,0.373-1.296,0.776-2.1,1.185
			c-0.512,0.263-1.026,0.5-1.549,0.729C268.502,145.469,268.235,145.584,267.957,145.697z"/>
		<path opacity="0.65" fill="none" stroke="#C17CA4" stroke-width="2" stroke-miterlimit="10" d="M243.486,63.639
			c0,0-36.263,22.427-32.402,47.644"/>
		<path opacity="0.65" fill="none" stroke="#C17CA4" stroke-width="2" stroke-miterlimit="10" d="M272.473,109.03
			c0,0-35.6,23.466-56.854,9.354"/>
	</g>
	<g>
		<path fill="#D3D4D6" d="M209.441,112.332c20.819,32.601,13.47,74.502-16.417,93.588l-10.415,6.651
			c-29.89,19.086-70.993,8.126-91.812-24.477l0,0c-20.819-32.603-13.47-74.501,16.417-93.587l10.416-6.651
			C147.519,68.771,188.622,79.729,209.441,112.332L209.441,112.332z"/>
		<path fill="#D4D5D7" d="M208.367,113.018c20.442,32.011,13.226,73.153-16.12,91.893l-10.227,6.531
			c-29.348,18.74-69.707,7.979-90.149-24.033l0,0c-20.443-32.013-13.226-73.153,16.12-91.893l10.227-6.53
			C147.566,70.245,187.925,81.006,208.367,113.018L208.367,113.018z"/>
		<path fill="#D5D6D8" d="M207.293,113.704c20.065,31.42,12.981,71.804-15.822,90.198l-10.038,6.411
			c-28.808,18.395-68.421,7.831-88.487-23.59l0,0c-20.065-31.423-12.982-71.804,15.822-90.199l10.038-6.41
			C147.613,71.72,187.229,82.282,207.293,113.704L207.293,113.704z"/>
		<path fill="#D6D7D9" d="M206.219,114.39c19.688,30.83,12.738,70.455-15.525,88.505l-9.849,6.289
			c-28.267,18.05-67.137,7.686-86.825-23.146l0,0c-19.689-30.831-12.738-70.454,15.525-88.504l9.85-6.29
			C147.66,73.194,186.53,83.558,206.219,114.39L206.219,114.39z"/>
		<path fill="#D7D8DA" d="M205.145,115.075c19.312,30.24,12.494,69.106-15.228,86.81l-9.661,6.17
			c-27.725,17.704-65.851,7.538-85.163-22.703l0,0c-19.311-30.242-12.494-69.105,15.228-86.81l9.661-6.169
			C147.708,74.669,185.834,84.834,205.145,115.075L205.145,115.075z"/>
		<path fill="#D8D9DB" d="M204.07,115.761c18.936,29.65,12.251,67.757-14.931,85.116l-9.472,6.049
			c-27.184,17.358-64.565,7.391-83.5-22.261l0,0c-18.935-29.65-12.25-67.756,14.931-85.114l9.473-6.049
			C147.754,76.144,185.137,86.11,204.07,115.761L204.07,115.761z"/>
		<path fill="#D9DADB" d="M202.997,116.447c18.558,29.06,12.006,66.408-14.634,83.421l-9.283,5.929
			c-26.643,17.012-63.281,7.243-81.839-21.817l0,0c-18.557-29.061-12.006-66.408,14.634-83.42l9.284-5.928
			C147.802,77.618,184.439,87.387,202.997,116.447L202.997,116.447z"/>
		<path fill="#DADBDC" d="M201.923,117.133c18.181,28.469,11.763,65.059-14.337,81.726l-9.095,5.809
			c-26.102,16.666-61.995,7.096-80.176-21.375l0,0c-18.18-28.47-11.762-65.058,14.336-81.725l9.095-5.808
			C147.849,79.093,183.742,88.663,201.923,117.133L201.923,117.133z"/>
		<path fill="#DBDCDD" d="M200.849,117.819c17.804,27.879,11.519,63.71-14.04,80.031l-8.906,5.688
			c-25.56,16.32-60.709,6.948-78.513-20.932l0,0c-17.804-27.88-11.519-63.709,14.039-80.031l8.907-5.688
			C147.896,80.568,183.045,89.939,200.849,117.819L200.849,117.819z"/>
		<path fill="#DCDDDE" d="M199.774,118.505c17.427,27.289,11.274,62.361-13.742,78.337l-8.718,5.567
			c-25.019,15.976-59.424,6.803-76.851-20.487l0,0c-17.427-27.29-11.274-62.36,13.742-78.337l8.718-5.566
			C147.943,82.042,182.348,91.215,199.774,118.505L199.774,118.505z"/>
		<path fill="#DDDEDF" d="M198.701,119.191c17.049,26.698,11.029,61.012-13.446,76.642l-8.528,5.447
			c-24.478,15.63-58.139,6.655-75.188-20.044l0,0c-17.05-26.699-11.031-61.012,13.444-76.643l8.529-5.447
			C147.99,83.518,181.651,92.492,198.701,119.191L198.701,119.191z"/>
		<path fill="#DEDFE0" d="M197.627,119.877c16.672,26.108,10.786,59.663-13.148,74.947l-8.341,5.327
			c-23.937,15.284-56.853,6.508-73.526-19.601l0,0c-16.672-26.109-10.787-59.664,13.147-74.948l8.341-5.326
			C148.037,84.992,180.954,93.768,197.627,119.877L197.627,119.877z"/>
		<path fill="#DFDFE1" d="M196.553,120.562c16.295,25.518,10.542,58.314-12.852,73.254l-8.151,5.206
			c-23.396,14.938-55.567,6.36-71.864-19.158l0,0c-16.295-25.519-10.542-58.314,12.85-73.253l8.152-5.206
			C148.084,86.466,180.257,95.044,196.553,120.562L196.553,120.562z"/>
		<path fill="#E0E0E2" d="M195.479,121.249c15.918,24.927,10.298,56.965-12.555,71.559l-7.963,5.086
			c-22.854,14.593-54.282,6.213-70.201-18.716l0,0c-15.919-24.928-10.299-56.965,12.553-71.558l7.964-5.085
			C148.131,87.941,179.56,96.32,195.479,121.249L195.479,121.249z"/>
		<path fill="#E1E1E3" d="M194.404,121.935c15.541,24.337,10.055,55.616-12.257,69.864l-7.774,4.966
			c-22.312,14.247-52.997,6.065-68.539-18.272l0,0c-15.542-24.338-10.055-55.616,12.255-69.863l7.775-4.966
			C148.178,89.416,178.862,97.597,194.404,121.935L194.404,121.935z"/>
		<path fill="#E2E2E4" d="M193.33,122.62c15.164,23.747,9.811,54.267-11.959,68.17l-7.587,4.845
			c-21.771,13.902-51.711,5.92-66.876-17.828l0,0c-15.165-23.748-9.811-54.268,11.958-68.169l7.587-4.845
			C148.225,90.891,178.166,98.873,193.33,122.62L193.33,122.62z"/>
		<path fill="#E3E3E5" d="M192.256,123.306c14.787,23.157,9.566,52.918-11.662,66.475l-7.397,4.725
			c-21.229,13.557-50.426,5.772-65.214-17.385l0,0c-14.787-23.158-9.566-52.919,11.661-66.475l7.398-4.725
			C148.272,92.365,177.468,100.149,192.256,123.306L192.256,123.306z"/>
		<path fill="#E4E4E5" d="M191.182,123.992c14.41,22.566,9.322,51.569-11.365,64.78l-7.209,4.604
			c-20.688,13.21-49.14,5.625-63.551-16.942l0,0c-14.411-22.567-9.323-51.569,11.364-64.78l7.209-4.604
			C148.319,93.84,176.771,101.425,191.182,123.992L191.182,123.992z"/>
		<path fill="#E5E5E6" d="M190.107,124.678c14.034,21.977,9.079,50.221-11.067,63.086l-7.021,4.484
			c-20.147,12.865-47.854,5.478-61.889-16.499l0,0c-14.033-21.977-9.079-50.221,11.067-63.085l7.021-4.484
			C148.367,95.314,176.074,102.702,190.107,124.678L190.107,124.678z"/>
		<path fill="#E6E6E7" d="M189.033,125.364c13.656,21.386,8.836,48.87-10.77,61.392l-6.832,4.363
			c-19.606,12.52-46.57,5.33-60.227-16.056l0,0c-13.657-21.387-8.834-48.872,10.769-61.392l6.833-4.363
			C148.414,96.789,175.377,103.978,189.033,125.364L189.033,125.364z"/>
		<path fill="#E7E7E8" d="M187.959,126.05c13.28,20.795,8.592,47.522-10.473,59.697l-6.644,4.242
			c-19.064,12.174-45.284,5.185-58.564-15.612l0,0c-13.28-20.796-8.591-47.522,10.472-59.696l6.644-4.242
			C148.46,98.264,174.68,105.254,187.959,126.05L187.959,126.05z"/>
		<path fill="#E8E8E9" d="M186.886,126.735c12.902,20.206,8.347,46.173-10.177,58.003l-6.454,4.122
			c-18.524,11.828-43.999,5.037-56.902-15.169l0,0c-12.902-20.205-8.347-46.174,10.175-58.002l6.455-4.123
			C148.508,99.738,173.982,106.53,186.886,126.735L186.886,126.735z"/>
		<path fill="#E9E9EA" d="M185.812,127.421c12.525,19.615,8.103,44.824-9.879,56.308l-6.267,4.002
			c-17.982,11.482-42.713,4.89-55.239-14.726l0,0c-12.525-19.616-8.103-44.825,9.878-56.308l6.267-4.002
			C148.555,101.213,173.285,107.807,185.812,127.421L185.812,127.421z"/>
		<path fill="#E9EAEB" d="M184.737,128.107c12.148,19.024,7.859,43.475-9.582,54.613l-6.077,3.882
			c-17.441,11.137-41.428,4.742-53.577-14.282l0,0c-12.148-19.025-7.859-43.477,9.581-54.614l6.078-3.881
			C148.602,102.688,172.588,109.083,184.737,128.107L184.737,128.107z"/>
		<path fill="#EAEBEC" d="M183.663,128.793c11.771,18.435,7.615,42.126-9.284,52.92l-5.889,3.761
			c-16.9,10.791-40.143,4.595-51.915-13.84l0,0c-11.771-18.435-7.615-42.127,9.283-52.918l5.89-3.761
			C148.649,104.162,171.892,110.359,183.663,128.793L183.663,128.793z"/>
		<path fill="#EBECED" d="M182.589,129.479c11.396,17.844,7.372,40.776-8.987,51.224l-5.7,3.642
			c-16.358,10.445-38.856,4.448-50.252-13.396l0,0c-11.395-17.845-7.371-40.778,8.986-51.224l5.701-3.64
			C148.696,105.637,171.194,111.635,182.589,129.479L182.589,129.479z"/>
		<path fill="#ECEDEE" d="M181.516,130.165c11.017,17.254,7.127,39.429-8.691,49.53l-5.512,3.52
			c-15.817,10.1-37.571,4.301-48.589-12.953l0,0c-11.018-17.254-7.128-39.429,8.688-49.529l5.512-3.52
			C148.743,107.112,170.497,112.911,181.516,130.165L181.516,130.165z"/>
		<path fill="#EDEEEF" d="M180.441,130.851c10.64,16.664,6.883,38.079-8.394,47.836l-5.323,3.399
			c-15.276,9.755-36.286,4.154-46.927-12.51l0,0c-10.641-16.664-6.884-38.08,8.392-47.835l5.323-3.399
			C148.79,108.586,169.8,114.188,180.441,130.851L180.441,130.851z"/>
		<path fill="#EEEFF0" d="M179.367,131.537c10.264,16.074,6.639,36.73-8.096,46.141l-5.135,3.279
			c-14.735,9.408-35.001,4.007-45.265-12.066l0,0c-10.264-16.074-6.64-36.732,8.094-46.141l5.135-3.279
			C148.837,110.061,169.104,115.464,179.367,131.537L179.367,131.537z"/>
		<path fill="#EFF0F0" d="M178.293,132.223c9.887,15.483,6.395,35.381-7.799,44.446l-4.946,3.159
			c-14.193,9.062-33.715,3.859-43.603-11.624l0,0c-9.886-15.483-6.395-35.382,7.797-44.445l4.947-3.159
			C148.884,111.536,168.405,116.74,178.293,132.223L178.293,132.223z"/>
		<path fill="#F0F1F1" d="M177.219,132.908c9.51,14.894,6.151,34.032-7.502,42.752l-4.757,3.039
			c-13.653,8.717-32.43,3.713-41.94-11.181l0,0c-9.51-14.893-6.151-34.034,7.5-42.751l4.758-3.039
			C148.932,113.011,167.709,118.016,177.219,132.908L177.219,132.908z"/>
		<path fill="#F1F2F2" d="M176.145,133.595c9.133,14.303,5.907,32.683-7.205,41.057l-4.568,2.918
			c-13.111,8.372-31.144,3.565-40.277-10.737l0,0c-9.133-14.303-5.908-32.684,7.203-41.056l4.568-2.919
			C148.979,114.485,167.012,119.292,176.145,133.595L176.145,133.595z"/>
		<path fill="#F2F3F3" d="M175.07,134.28c8.756,13.713,5.664,31.335-6.907,39.362l-4.38,2.798
			c-12.57,8.026-29.859,3.419-38.615-10.294l0,0c-8.756-13.712-5.664-31.335,6.905-39.361l4.381-2.798
			C149.025,115.96,166.314,120.569,175.07,134.28L175.07,134.28z"/>
		<path fill="#F3F4F4" d="M173.996,134.966c8.379,13.122,5.42,29.985-6.609,37.667l-4.191,2.678
			c-12.029,7.681-28.574,3.271-36.953-9.851l0,0c-8.379-13.122-5.42-29.987,6.608-37.668l4.192-2.677
			C149.073,117.435,165.617,121.845,173.996,134.966L173.996,134.966z"/>
		<path fill="#F4F4F5" d="M172.922,135.652c8.002,12.532,5.176,28.636-6.312,35.974l-4.003,2.557
			c-11.487,7.335-27.288,3.124-35.29-9.407l0,0c-8.002-12.531-5.176-28.639,6.311-35.974l4.003-2.557
			C149.12,118.909,164.92,123.121,172.922,135.652L172.922,135.652z"/>
		<path fill="#F5F5F6" d="M171.849,136.338c7.624,11.942,4.932,27.287-6.017,34.279l-3.814,2.437
			c-10.946,6.989-26.002,2.977-33.627-8.965l0,0c-7.625-11.941-4.932-27.289,6.014-34.278l3.814-2.436
			C149.167,120.384,164.224,124.397,171.849,136.338L171.849,136.338z"/>
		<path fill="#F6F6F7" d="M170.774,137.023c7.247,11.352,4.688,25.938-5.719,32.585l-3.626,2.316
			c-10.405,6.644-24.717,2.829-31.965-8.521l0,0c-7.248-11.351-4.688-25.94,5.716-32.584l3.626-2.316
			C149.214,121.858,163.525,125.674,170.774,137.023L170.774,137.023z"/>
		<path fill="#F7F7F8" d="M169.7,137.71c6.87,10.761,4.444,24.589-5.422,30.89l-3.438,2.195c-9.864,6.299-23.431,2.684-30.302-8.077
			l0,0c-6.871-10.761-4.444-24.591,5.419-30.89l3.438-2.196C149.261,123.333,162.829,126.95,169.7,137.71L169.7,137.71z"/>
		<path fill="#F8F8F9" d="M168.626,138.396c6.493,10.171,4.2,23.24-5.124,29.195l-3.249,2.075
			c-9.323,5.953-22.146,2.536-28.641-7.635l0,0c-6.494-10.17-4.2-23.242,5.122-29.194l3.249-2.075
			C149.308,124.808,162.132,128.226,168.626,138.396L168.626,138.396z"/>
		<path fill="#F9F9FA" d="M167.552,139.082c6.116,9.581,3.956,21.891-4.827,27.5l-3.06,1.955
			c-8.782,5.606-20.861,2.389-26.979-7.191l0,0c-6.116-9.58-3.956-21.894,4.825-27.5l3.06-1.955
			C149.355,126.282,161.435,129.502,167.552,139.082L167.552,139.082z"/>
		<path fill="#FAFAFA" d="M166.478,139.768c5.74,8.99,3.712,20.542-4.529,25.806l-2.872,1.835
			c-8.24,5.262-19.575,2.241-25.315-6.748l0,0c-5.74-8.99-3.712-20.545,4.527-25.806l2.872-1.834
			C149.402,127.757,160.737,130.778,166.478,139.768L166.478,139.768z"/>
		<path fill="#FBFBFB" d="M165.403,140.454c5.362,8.4,3.468,19.193-4.232,24.111l-2.683,1.715
			c-7.699,4.916-18.29,2.094-23.653-6.306l0,0c-5.363-8.399-3.469-19.195,4.23-24.111l2.683-1.714
			C149.449,129.232,160.04,132.055,165.403,140.454L165.403,140.454z"/>
		<path fill="#FCFCFC" d="M164.33,141.139c4.985,7.811,3.224,17.845-3.936,22.418l-2.495,1.594
			c-7.157,4.569-17.004,1.947-21.991-5.862l0,0c-4.985-7.809-3.224-17.847,3.933-22.417l2.495-1.594
			C149.497,130.707,159.343,133.331,164.33,141.139L164.33,141.139z"/>
		<path fill="#FDFDFD" d="M163.256,141.825c4.608,7.22,2.979,16.496-3.639,20.723l-2.306,1.473
			c-6.617,4.225-15.719,1.8-20.329-5.418l0,0c-4.609-7.22-2.98-16.498,3.636-20.722l2.306-1.473
			C149.543,132.181,158.646,134.607,163.256,141.825L163.256,141.825z"/>
		<path fill="#FEFEFE" d="M162.182,142.511c4.231,6.629,2.736,15.146-3.341,19.028l-2.118,1.353
			c-6.075,3.879-14.433,1.653-18.666-4.976l0,0c-4.231-6.628-2.736-15.148,3.338-19.027l2.117-1.353
			C149.591,133.656,157.949,135.883,162.182,142.511L162.182,142.511z"/>
		<path fill="#FFFFFF" d="M161.107,143.197c3.854,6.039,2.492,13.797-3.044,17.333l-1.929,1.232
			c-5.534,3.533-13.148,1.506-17.003-4.532l0,0c-3.855-6.038-2.493-13.8,3.041-17.333l1.929-1.232
			C149.638,135.13,157.252,137.16,161.107,143.197L161.107,143.197z"/>
	</g>
	<g opacity="0.65">
		
			<ellipse transform="matrix(-0.5382 -0.8428 0.8428 -0.5382 27.6241 432.7849)" fill="#F3B7B9" cx="132.383" cy="208.824" rx="7.749" ry="7.104"/>
		
			<ellipse transform="matrix(-0.5383 -0.8427 0.8427 -0.5383 68.1285 430.0813)" fill="#F3B7B9" cx="151.872" cy="196.379" rx="7.75" ry="7.102"/>
		
			<ellipse transform="matrix(-0.5382 -0.8428 0.8428 -0.5382 108.5631 427.3516)" fill="#F3B7B9" cx="171.364" cy="183.933" rx="7.749" ry="7.101"/>
		
			<ellipse transform="matrix(-0.5383 -0.8427 0.8427 -0.5383 149.0722 424.6403)" fill="#F3B7B9" cx="190.854" cy="171.486" rx="7.75" ry="7.102"/>
		
			<ellipse transform="matrix(-0.5383 -0.8428 0.8428 -0.5383 189.5317 421.9172)" fill="#F3B7B9" cx="210.345" cy="159.039" rx="7.748" ry="7.102"/>
		<path fill="#F3B7B9" d="M117.527,191.562c-2.3-3.604-6.849-4.815-10.154-2.708c-3.308,2.113-4.122,6.75-1.819,10.358
			c2.303,3.604,6.852,4.815,10.16,2.704C119.019,199.806,119.831,195.169,117.527,191.562z"/>
		<path fill="#F3B7B9" d="M137.018,179.118c-2.3-3.607-6.849-4.821-10.154-2.708c-3.308,2.111-4.122,6.748-1.819,10.353
			c2.303,3.607,6.852,4.821,10.159,2.708C138.51,187.359,139.321,182.723,137.018,179.118z"/>
		<path fill="#F3B7B9" d="M156.509,166.669c-2.301-3.604-6.849-4.815-10.154-2.707c-3.308,2.113-4.122,6.747-1.819,10.354
			s6.852,4.818,10.159,2.708C158,174.913,158.812,170.277,156.509,166.669z"/>
		<path fill="#F3B7B9" d="M175.999,154.226c-2.3-3.607-6.849-4.821-10.153-2.71c-3.308,2.11-4.122,6.75-1.819,10.354
			c2.304,3.607,6.852,4.821,10.159,2.708C177.491,162.468,178.303,157.831,175.999,154.226z"/>
		
			<ellipse transform="matrix(0.8428 -0.5382 0.5382 0.8428 -48.5766 124.8853)" fill="#F3B7B9" cx="189.504" cy="145.601" rx="7.103" ry="7.748"/>
		
			<ellipse transform="matrix(-0.5382 -0.8428 0.8428 -0.5382 208.0367 381.044)" fill="#F3B7B9" cx="208.414" cy="133.526" rx="7.749" ry="7.103"/>
		<path fill="#F3B7B9" d="M102.511,175.244c2.3,3.604,6.849,4.818,10.154,2.707c3.308-2.113,4.122-6.747,1.819-10.354
			c-2.304-3.607-6.852-4.818-10.16-2.705C101.02,167,100.208,171.639,102.511,175.244z"/>
		
			<ellipse transform="matrix(0.5382 0.8428 -0.8428 0.5382 193.1002 -34.4508)" fill="#F3B7B9" cx="127.986" cy="158.974" rx="7.749" ry="7.105"/>
		<path fill="#F3B7B9" d="M151.646,153.06c3.308-2.112,4.122-6.749,1.819-10.355c-2.304-3.606-6.853-4.818-10.16-2.708
			c-3.305,2.111-4.116,6.748-1.813,10.355C143.793,153.956,148.342,155.17,151.646,153.06z"/>
		<path fill="#F3B7B9" d="M171.137,140.613c3.308-2.112,4.122-6.749,1.819-10.355c-2.304-3.606-6.852-4.82-10.159-2.708
			c-3.306,2.111-4.117,6.748-1.813,10.354C163.283,141.51,167.832,142.724,171.137,140.613z"/>
		<path fill="#F3B7B9" d="M190.628,128.167c3.308-2.112,4.122-6.749,1.818-10.355c-2.303-3.607-6.852-4.82-10.159-2.708
			c-3.305,2.11-4.116,6.747-1.813,10.354C182.774,129.064,187.323,130.277,190.628,128.167z"/>
		<path fill="#F3B7B9" d="M91.829,164.512c3.305-2.107,4.117-6.747,1.813-10.352c-2.303-3.608-6.852-4.82-10.157-2.709
			c-3.305,2.111-4.12,6.748-1.816,10.354C83.973,165.412,88.521,166.625,91.829,164.512z"/>
		
			<ellipse transform="matrix(0.5383 0.8427 -0.8427 0.5383 172.1116 -23.1093)" fill="#F3B7B9" cx="107.148" cy="145.535" rx="7.749" ry="7.101"/>
		
			<ellipse transform="matrix(0.5383 0.8427 -0.8427 0.5383 170.6239 -45.2793)" fill="#F3B7B9" cx="126.638" cy="133.089" rx="7.749" ry="7.102"/>
		
			<ellipse transform="matrix(0.5383 0.8427 -0.8427 0.5383 169.1332 -67.4509)" fill="#F3B7B9" cx="146.129" cy="120.643" rx="7.749" ry="7.102"/>
		
			<ellipse transform="matrix(0.5383 0.8428 -0.8428 0.5383 167.6576 -89.6222)" fill="#F3B7B9" cx="165.62" cy="108.196" rx="7.75" ry="7.101"/>
		
			<ellipse transform="matrix(-0.5381 -0.8429 0.8429 -0.5381 202.8115 303.3793)" fill="#F3B7B9" cx="184.528" cy="96.122" rx="7.749" ry="7.103"/>
		
			<ellipse transform="matrix(-0.5382 -0.8428 0.8428 -0.5382 31.0846 281.4759)" fill="#F3B7B9" cx="92.659" cy="132.222" rx="7.749" ry="7.103"/>
		<path fill="#F3B7B9" d="M95.381,107.916c-3.305,2.11-4.119,6.746-1.816,10.354c2.303,3.606,6.852,4.818,10.157,2.708
			c3.308-2.112,4.119-6.749,1.816-10.355C103.238,107.016,98.689,105.804,95.381,107.916z"/>
		
			<ellipse transform="matrix(-0.5382 -0.8428 0.8428 -0.5382 98.1352 272.0195)" fill="#F3B7B9" cx="123.591" cy="109.124" rx="7.748" ry="7.103"/>
		
			<ellipse transform="matrix(-0.5382 -0.8428 0.8428 -0.5382 137.6052 254.5087)" fill="#F3B7B9" cx="138.533" cy="89.553" rx="7.749" ry="7.102"/>
		<path fill="#F3B7B9" d="M162.028,84.578c-2.3-3.606-6.849-4.818-10.156-2.707c-3.305,2.11-4.119,6.746-1.816,10.352
			c2.303,3.607,6.852,4.82,10.157,2.709C163.521,92.821,164.332,88.184,162.028,84.578z"/>
		
			<ellipse transform="matrix(0.5382 0.8428 -0.8428 0.5382 250.5769 -72.9119)" fill="#F3B7B9" cx="191.821" cy="192.196" rx="7.749" ry="7.103"/>
		<path fill="#F3B7B9" d="M174.222,212.629c3.305-2.113,4.116-6.747,1.816-10.354c-2.304-3.607-6.852-4.818-10.157-2.708
			c-3.305,2.11-4.119,6.747-1.815,10.354C166.368,213.526,170.917,214.736,174.222,212.629z"/>
	</g>
</g>
<linearGradient id="SVGID_3_" gradientUnits="userSpaceOnUse" x1="-15.3843" y1="0.4253" x2="-7.5391" y2="0.4253" gradientTransform="matrix(0.8428 -0.5382 0.5382 0.8428 102.2363 179.5586)">
	<stop  offset="0" style="stop-color:#E3A1AC"/>
	<stop  offset="0.5455" style="stop-color:#FCE3E3"/>
	<stop  offset="1" style="stop-color:#E3A1AC"/>
</linearGradient>
<path fill="url(#SVGID_3_)" d="M111.091,207.434c1.167,1.827,0.63,4.252-1.194,5.416l0,0c-1.824,1.166-4.251,0.633-5.418-1.194
	l-29.961-46.918c-1.167-1.827-0.63-4.254,1.194-5.418l0,0c1.827-1.164,4.251-0.63,5.418,1.197L111.091,207.434z"/>
<linearGradient id="SVGID_4_" gradientUnits="userSpaceOnUse" x1="120.7822" y1="0.4253" x2="128.6274" y2="0.4253" gradientTransform="matrix(0.8428 -0.5382 0.5382 0.8428 102.2363 179.5586)">
	<stop  offset="0" style="stop-color:#E3A1AC"/>
	<stop  offset="0.5455" style="stop-color:#FCE3E3"/>
	<stop  offset="1" style="stop-color:#E3A1AC"/>
</linearGradient>
<path fill="url(#SVGID_4_)" d="M225.853,134.149c1.164,1.826,0.63,4.251-1.194,5.417l0,0c-1.824,1.166-4.251,0.632-5.418-1.194
	l-29.961-46.918c-1.167-1.826-0.63-4.253,1.194-5.418l0,0c1.824-1.166,4.251-0.63,5.415,1.195L225.853,134.149z"/>
</svg>
