<?xml version="1.0" encoding="utf-8"?>
<!DOCTYPE svg PUBLIC "-//W3C//DTD SVG 1.1 Basic//EN" "http://www.w3.org/Graphics/SVG/1.1/DTD/svg11-basic.dtd">
<svg version="1.1" baseProfile="basic" id="Layer_1"
	 xmlns="http://www.w3.org/2000/svg" xmlns:xlink="http://www.w3.org/1999/xlink" x="0px" y="0px" width="300px" height="300px"
	 viewBox="0 0 300 300" xml:space="preserve">
<g>
	<g>
		<path fill="none" stroke="#527360" stroke-width="2" stroke-miterlimit="10" d="M214.603,285.146c0,0-7.688-47.772-23.411-87.914"
			/>
		<path fill="none" stroke="#527360" stroke-width="2" stroke-miterlimit="10" d="M210.512,285.843c0,0-9.7-59.547-27.173-109.961"
			/>
		<path fill="none" stroke="#527360" stroke-width="2" stroke-miterlimit="10" d="M205.925,286.626c0,0-9.696-59.548-27.171-109.963
			"/>
		<path fill="none" stroke="#527360" stroke-width="2" stroke-miterlimit="10" d="M201.584,287.366
			c0,0-11.303-51.631-18.965-107.848"/>
		<path fill="none" stroke="#527360" stroke-width="2" stroke-miterlimit="10" d="M199.401,297.324c0,0-10.728-66.746-18.39-122.963
			"/>
	</g>
	<path fill="#559542" d="M108.968,120.968c3.494,4.358,2.435,11.013-7.887,19.288c-10.32,8.273-18.364,4.327-25.013,7.092
		c-5.159,2.143,2.04-14.599,12.36-22.874C98.749,116.198,105.474,116.61,108.968,120.968z"/>
	<path fill="#559542" d="M166.822,116.972c-3.712,4.173-2.996,10.874,6.891,19.666c9.883,8.792,18.119,5.263,24.618,8.362
		c5.041,2.405-1.29-14.682-11.173-23.476C177.271,112.731,170.536,112.798,166.822,116.972z"/>
	<path fill="#559542" d="M189.951,94.044c-1.887,5.257,1.277,11.206,13.731,15.675c12.448,4.471,18.773-1.877,25.96-1.427
		c5.574,0.351-6.675-13.141-19.125-17.611C198.065,86.212,191.841,88.787,189.951,94.044z"/>
	<path fill="#559542" d="M116.66,126.701c5.226,1.973,7.699,8.242,3.023,20.616c-4.676,12.373-13.609,13.068-17.925,18.831
		c-3.352,4.471-5.672-13.605-0.999-25.98C105.437,127.794,111.436,124.726,116.66,126.701z"/>
	<path fill="#559542" d="M144.621,125.359c5.226,1.973,7.699,8.242,3.023,20.616c-4.676,12.373-13.609,13.068-17.925,18.831
		c-3.352,4.471-5.672-13.605-0.999-25.98C133.398,126.452,139.397,123.384,144.621,125.359z"/>
	<path fill="#559542" d="M130.029,122.223c5.226,1.973,7.699,8.242,3.023,20.616c-4.676,12.373-13.61,13.069-17.925,18.832
		c-3.352,4.471-5.672-13.606-0.999-25.98C118.806,123.316,124.805,120.248,130.029,122.223z"/>
	<g>
		<path fill="#ECD9C5" d="M210.831,130.415c12.469,45.678,0.616,90.931-27.459,95.719c-28.073,4.788-48.928-16.317-68.938-58.636
			c-20.05-42.407,18.931-28.413,47.005-33.201C189.514,129.509,206.437,114.317,210.831,130.415z"/>
		<path fill="#D0C2B1" d="M178.813,207.005c-24.017,4.096-42.036-15.001-59.485-53.137c-1.237-2.708-2.196-5.133-2.946-7.354
			c-2.536,4.066-2.005,10.988,3.389,22.781c17.449,38.136,35.467,57.234,59.486,53.137c19.666-3.354,29.811-31.14,26.802-63.654
			C205.07,184.268,195.276,204.197,178.813,207.005z"/>
		<path opacity="0.5" fill="#D0C2B1" d="M130.291,146.061c9.047,46.431,34.71,82.921,55.932,76.243
			c21.22-6.679,27.453-34.065,24.907-80.406c-2.551-46.438-24.038-18.397-45.258-11.719
			C144.65,136.857,127.102,129.697,130.291,146.061z"/>
		<path fill="#ECD9C5" d="M134.326,143.476c9.045,46.43,34.709,82.921,55.932,76.243c21.218-6.678,28.474-48.416,25.93-94.758
			c-2.551-46.436-25.062-4.044-46.282,2.634C148.683,134.273,131.137,127.113,134.326,143.476z"/>
		<path fill="#D0C2B1" d="M186.01,200.535c18.156-5.715,23.206-30.161,20.512-71.691c-0.194-2.95-0.469-5.53-0.809-7.843
			c3.32,2.699,5.63,9.202,6.462,22.045c2.697,41.532-2.354,65.977-20.509,71.691c-14.867,4.677-32.602-16.6-43.088-47.348
			C159.108,190.178,173.567,204.45,186.01,200.535z"/>
	</g>
	<path fill="#559542" d="M150.599,127.105c4.013-3.886,10.738-3.452,19.939,6.054c9.201,9.502,6.023,17.879,9.396,24.242
		c2.615,4.936-14.725-0.668-23.928-10.171C146.804,137.725,146.586,130.993,150.599,127.105z"/>
	<path fill="#559542" d="M175.653,110.635c-1.887,5.257,1.277,11.206,13.731,15.675c12.448,4.471,18.773-1.877,25.96-1.427
		c5.574,0.351-6.675-13.141-19.125-17.611C183.768,102.803,177.543,105.378,175.653,110.635z"/>
	<g>
		<g>
			<path fill="#FE9AAA" d="M145.455,107.307c0-4.022-1.887-7.28-9.497-7.28c-1.292,0-2.667,0.102-4.059,0.277
				c0.89-0.718,1.729-1.462,2.483-2.215c5.382-5.38,4.411-9.019,1.567-11.859c-2.841-2.845-6.479-3.813-11.861,1.567
				c-0.842,0.844-1.674,1.798-2.474,2.81c0.122-1.148,0.196-2.281,0.196-3.357c0-7.611-3.26-9.495-7.28-9.495
				c-4.02,0-7.28,1.884-7.28,9.495c0,0.059,0.005,0.12,0.005,0.179c-0.17-0.179-0.339-0.365-0.511-0.537
				c-5.381-5.38-9.017-4.412-11.859-1.569c-2.845,2.844-3.815,6.482,1.567,11.863c1.178,1.178,2.569,2.337,4.042,3.406
				c-2.032-0.36-4.09-0.563-5.975-0.563c-7.61,0-9.497,3.258-9.497,7.278c0,4.022,1.887,7.28,9.497,7.28
				c2.154,0,4.53-0.266,6.837-0.731c-1.927,1.289-3.767,2.758-5.266,4.258c-5.382,5.381-4.41,9.019-1.569,11.86
				c2.844,2.844,6.482,3.815,11.863-1.567c0.041-0.042,0.081-0.087,0.122-0.127c-0.005,0.246-0.018,0.497-0.018,0.74
				c0,7.61,3.258,9.495,7.278,9.495c4.021,0,7.28-1.885,7.28-9.495c0-1.528-0.137-3.171-0.38-4.819
				c0.873,1.131,1.794,2.198,2.727,3.128c5.38,5.381,9.019,4.41,11.859,1.569c2.844-2.845,3.815-6.483-1.565-11.863
				c-1.015-1.017-2.187-2.025-3.437-2.966c1.944,0.332,3.906,0.519,5.709,0.519C143.568,114.585,145.455,111.327,145.455,107.307z"
				/>
			<path fill="#F3BBCD" d="M139.698,107.464c0-3.252-1.527-5.892-7.686-5.892c-1.049,0-2.162,0.079-3.288,0.223
				c0.72-0.582,1.401-1.181,2.01-1.792c4.354-4.354,3.571-7.301,1.268-9.601c-2.302-2.3-5.246-3.086-9.602,1.27
				c-0.681,0.681-1.355,1.455-2.001,2.272c0.098-0.931,0.157-1.846,0.157-2.715c0-6.16-2.638-7.688-5.892-7.688
				c-3.256,0-5.892,1.528-5.892,7.688c0,0.048,0.005,0.096,0.005,0.144c-0.139-0.146-0.275-0.297-0.416-0.436
				c-4.354-4.354-7.298-3.571-9.6-1.268c-2.3,2.3-3.088,5.246,1.268,9.603c0.954,0.952,2.08,1.888,3.274,2.756
				c-1.645-0.292-3.313-0.456-4.838-0.456c-6.162,0-7.686,2.64-7.686,5.892c0,3.254,1.524,5.892,7.686,5.892
				c1.743,0,3.668-0.216,5.534-0.592c-1.562,1.043-3.047,2.231-4.262,3.444c-4.356,4.358-3.572,7.302-1.27,9.604
				c2.302,2.3,5.248,3.088,9.602-1.27c0.035-0.033,0.066-0.07,0.102-0.104c-0.007,0.199-0.019,0.402-0.019,0.598
				c0,6.162,2.638,7.688,5.892,7.688s5.894-1.526,5.892-7.688c0-1.237-0.109-2.566-0.307-3.9c0.707,0.917,1.451,1.779,2.206,2.533
				c4.354,4.354,7.3,3.57,9.602,1.271c2.302-2.302,3.086-5.248-1.27-9.604c-0.821-0.823-1.77-1.637-2.782-2.401
				c1.574,0.27,3.164,0.421,4.624,0.421C138.171,113.355,139.698,110.718,139.698,107.464z"/>
			<circle fill="#F8E73E" cx="115.238" cy="108.132" r="8.275"/>
			<linearGradient id="SVGID_1_" gradientUnits="userSpaceOnUse" x1="121.3467" y1="114.6592" x2="110.5667" y2="103.1409">
				<stop  offset="0" style="stop-color:#EEB860"/>
				<stop  offset="1" style="stop-color:#F8E73E"/>
			</linearGradient>
			<circle fill="url(#SVGID_1_)" cx="115.238" cy="108.132" r="8.275"/>
		</g>
		<g>
			<path fill="#FE9AAA" d="M131.133,27.978c-1.115-3.081-3.793-4.932-10.948-2.339c-1.214,0.439-2.481,0.984-3.74,1.593
				c0.637-0.853,1.22-1.708,1.719-2.542c3.568-5.953,1.646-8.408-1.816-9.617c-3.459-1.209-7.149-0.712-10.717,5.242
				c-0.557,0.932-1.076,1.945-1.546,2.992c-0.203-0.919-0.449-1.812-0.748-2.638c-2.11-5.828-5.698-6.162-9.479-4.792
				s-6.322,3.924-4.21,9.752c0.017,0.044,0.039,0.09,0.055,0.135c-0.21-0.08-0.421-0.163-0.629-0.236
				c-6.553-2.287-9.702-0.309-11.586,2.837c-1.885,3.147-1.789,6.265,4.764,8.55c1.434,0.502,3.064,0.916,4.746,1.233
				c-2.01,0.415-4.001,0.961-5.774,1.604c-7.156,2.591-8.025,5.728-6.911,8.806c1.117,3.081,3.793,4.934,10.95,2.343
				c2.025-0.735,4.185-1.748,6.224-2.889c-1.453,1.643-2.776,3.394-3.769,5.054c-3.568,5.953-1.645,8.41,1.814,9.617
				c3.463,1.209,7.154,0.714,10.721-5.24c0.026-0.046,0.052-0.094,0.079-0.138c0.061,0.188,0.12,0.386,0.187,0.572
				c2.112,5.828,5.698,6.162,9.477,4.792c3.78-1.37,6.322-3.922,4.212-9.75c-0.425-1.17-1.008-2.383-1.695-3.561
				c1.134,0.569,2.296,1.073,3.432,1.466c6.551,2.287,9.702,0.306,11.584-2.837c1.885-3.147,1.789-6.263-4.762-8.552
				c-1.237-0.434-2.619-0.807-4.054-1.1c1.918-0.41,3.815-0.934,5.512-1.547C131.378,34.194,132.248,31.057,131.133,27.978z"/>
			<path fill="#F3BBCD" d="M125.763,30.06c-0.902-2.492-3.069-3.993-8.862-1.896c-0.986,0.358-2.01,0.797-3.027,1.292
				c0.515-0.692,0.99-1.382,1.392-2.058c2.887-4.816,1.333-6.806-1.471-7.782c-2.802-0.978-5.789-0.578-8.676,4.242
				c-0.45,0.753-0.869,1.575-1.25,2.422c-0.168-0.746-0.365-1.467-0.607-2.132c-1.707-4.718-4.613-4.991-7.671-3.882
				c-3.062,1.109-5.117,3.179-3.407,7.895c0.013,0.037,0.031,0.072,0.044,0.107c-0.17-0.063-0.34-0.133-0.511-0.192
				c-5.302-1.849-7.853-0.249-9.377,2.298c-1.525,2.545-1.449,5.07,3.856,6.922c1.161,0.406,2.479,0.738,3.843,0.997
				c-1.628,0.336-3.241,0.777-4.675,1.298c-5.792,2.099-6.494,4.639-5.591,7.13c0.903,2.492,3.068,3.993,8.86,1.894
				c1.639-0.594,3.389-1.414,5.039-2.339c-1.18,1.331-2.247,2.747-3.051,4.09c-2.887,4.822-1.333,6.808,1.469,7.786
				c2.802,0.976,5.791,0.578,8.676-4.242c0.024-0.039,0.042-0.078,0.066-0.115c0.048,0.155,0.094,0.314,0.149,0.463
				c1.709,4.72,4.613,4.991,7.673,3.882c3.059-1.107,5.117-3.177,3.405-7.895c-0.343-0.945-0.814-1.927-1.37-2.883
				c0.919,0.463,1.857,0.869,2.776,1.188c5.301,1.852,7.854,0.248,9.38-2.296c1.527-2.547,1.445-5.071-3.857-6.922
				c-1-0.351-2.119-0.649-3.282-0.891c1.556-0.331,3.092-0.755,4.465-1.253C125.963,35.091,126.666,32.552,125.763,30.06z"/>
			
				<ellipse transform="matrix(0.9402 -0.3406 0.3406 0.9402 -7.0941 37.393)" fill="#F8E73E" cx="102.952" cy="38.901" rx="8.275" ry="6.742"/>
			
				<linearGradient id="SVGID_2_" gradientUnits="userSpaceOnUse" x1="205.4834" y1="-29.1196" x2="195.7186" y2="-39.5533" gradientTransform="matrix(0.9402 -0.3406 0.3406 0.9402 -73.1104 139.9414)">
				<stop  offset="0" style="stop-color:#EEB860"/>
				<stop  offset="1" style="stop-color:#F8E73E"/>
			</linearGradient>
			<path fill="url(#SVGID_2_)" d="M110.732,36.083c1.268,3.502-1.187,7.6-5.484,9.157c-4.297,1.556-8.809-0.018-10.077-3.52
				c-1.268-3.501,1.187-7.597,5.484-9.155C104.953,31.008,109.464,32.583,110.732,36.083z"/>
		</g>
		<g>
			<path fill="#88BECD" d="M185.777,104.472c0-4.022-1.887-7.28-9.497-7.28c-1.292,0-2.667,0.102-4.059,0.277
				c0.89-0.718,1.729-1.462,2.482-2.215c5.383-5.381,4.412-9.019,1.567-11.86c-2.841-2.844-6.479-3.813-11.861,1.567
				c-0.842,0.843-1.675,1.798-2.474,2.809c0.122-1.148,0.195-2.281,0.195-3.357c0-7.61-3.26-9.495-7.279-9.495
				c-4.021,0-7.28,1.885-7.28,9.495c0,0.059,0.005,0.12,0.005,0.179c-0.17-0.179-0.34-0.366-0.511-0.537
				c-5.381-5.381-9.017-4.412-11.86-1.569c-2.844,2.845-3.815,6.483,1.567,11.863c1.178,1.178,2.569,2.337,4.042,3.406
				c-2.032-0.36-4.091-0.563-5.975-0.563c-7.61,0-9.497,3.258-9.497,7.278c0,4.022,1.887,7.28,9.497,7.28
				c2.154,0,4.53-0.266,6.837-0.731c-1.927,1.289-3.768,2.758-5.266,4.259c-5.383,5.38-4.41,9.019-1.569,11.859
				c2.844,2.844,6.482,3.815,11.863-1.567c0.041-0.042,0.081-0.086,0.122-0.127c-0.005,0.245-0.019,0.497-0.019,0.74
				c0,7.61,3.258,9.495,7.278,9.495s7.28-1.884,7.28-9.495c0-1.528-0.137-3.171-0.381-4.82c0.873,1.132,1.795,2.199,2.727,3.129
				c5.381,5.38,9.019,4.41,11.859,1.569c2.845-2.844,3.815-6.482-1.564-11.863c-1.016-1.017-2.188-2.025-3.438-2.966
				c1.943,0.333,3.906,0.519,5.709,0.519C183.891,111.75,185.777,108.492,185.777,104.472z"/>
			<path fill="#DFE4E0" d="M180.021,104.628c0-3.252-1.526-5.892-7.687-5.892c-1.048,0-2.161,0.08-3.287,0.224
				c0.72-0.582,1.4-1.182,2.01-1.792c4.354-4.354,3.572-7.3,1.269-9.6c-2.302-2.3-5.246-3.086-9.603,1.27
				c-0.681,0.681-1.354,1.455-2.001,2.272c0.098-0.93,0.157-1.846,0.157-2.715c0-6.16-2.638-7.688-5.893-7.688
				c-3.256,0-5.892,1.528-5.892,7.688c0,0.048,0.006,0.096,0.006,0.144c-0.139-0.146-0.275-0.297-0.416-0.436
				c-4.354-4.354-7.298-3.572-9.6-1.268c-2.3,2.3-3.088,5.246,1.268,9.602c0.954,0.953,2.08,1.888,3.274,2.756
				c-1.645-0.292-3.313-0.456-4.838-0.456c-6.162,0-7.686,2.64-7.686,5.892c0,3.254,1.524,5.892,7.686,5.892
				c1.742,0,3.667-0.216,5.534-0.593c-1.562,1.043-3.047,2.232-4.262,3.444c-4.356,4.358-3.571,7.302-1.27,9.604
				c2.302,2.3,5.248,3.088,9.602-1.27c0.035-0.033,0.066-0.07,0.102-0.103c-0.007,0.199-0.019,0.402-0.019,0.598
				c0,6.162,2.638,7.688,5.892,7.688c3.255,0,5.895-1.526,5.893-7.688c0-1.236-0.109-2.565-0.307-3.9
				c0.707,0.917,1.451,1.779,2.206,2.532c4.354,4.354,7.3,3.57,9.602,1.272c2.302-2.302,3.087-5.248-1.27-9.604
				c-0.821-0.823-1.771-1.637-2.782-2.401c1.575,0.27,3.164,0.421,4.624,0.421C178.494,110.521,180.021,107.883,180.021,104.628z"/>
			<circle fill="#F8E73E" cx="155.561" cy="105.296" r="8.275"/>
			<linearGradient id="SVGID_3_" gradientUnits="userSpaceOnUse" x1="161.6689" y1="111.8237" x2="150.8896" y2="100.3061">
				<stop  offset="0" style="stop-color:#EEB860"/>
				<stop  offset="1" style="stop-color:#F8E73E"/>
			</linearGradient>
			<circle fill="url(#SVGID_3_)" cx="155.561" cy="105.296" r="8.275"/>
		</g>
		<g>
			<path fill="#88BECD" d="M169.914,26.671c0-3.208-1.887-5.807-9.497-5.807c-1.292,0-2.667,0.079-4.059,0.22
				c0.89-0.572,1.729-1.167,2.482-1.767c5.383-4.293,4.412-7.195,1.567-9.462c-2.841-2.271-6.479-3.044-11.861,1.25
				c-0.842,0.674-1.674,1.435-2.474,2.241c0.122-0.916,0.196-1.82,0.196-2.679c0-6.071-3.26-7.575-7.28-7.575
				c-4.02,0-7.28,1.504-7.28,7.575c0,0.048,0.005,0.096,0.005,0.144c-0.17-0.144-0.34-0.292-0.511-0.43
				c-5.381-4.292-9.017-3.52-11.86-1.251c-2.844,2.271-3.815,5.172,1.567,9.466c1.178,0.939,2.569,1.864,4.042,2.717
				c-2.032-0.288-4.09-0.448-5.975-0.448c-7.61,0-9.497,2.599-9.497,5.805c0,3.21,1.887,5.809,9.497,5.809
				c2.154,0,4.53-0.212,6.837-0.583c-1.927,1.028-3.768,2.2-5.266,3.398c-5.383,4.293-4.41,7.195-1.569,9.462
				c2.844,2.269,6.482,3.044,11.863-1.25c0.041-0.035,0.081-0.07,0.122-0.102c-0.005,0.196-0.019,0.395-0.019,0.589
				c0,6.073,3.258,7.577,7.278,7.577c4.021,0,7.28-1.504,7.28-7.577c0-1.218-0.137-2.529-0.38-3.845
				c0.873,0.902,1.794,1.755,2.726,2.497c5.381,4.292,9.019,3.519,11.859,1.251c2.845-2.27,3.815-5.172-1.564-9.465
				c-1.016-0.812-2.188-1.615-3.438-2.366c1.943,0.266,3.906,0.413,5.709,0.413C168.027,32.478,169.914,29.879,169.914,26.671z"/>
			<path fill="#DFE4E0" d="M164.157,26.796c0-2.595-1.526-4.702-7.687-4.702c-1.048,0-2.161,0.065-3.287,0.179
				c0.72-0.463,1.4-0.943,2.01-1.431c4.354-3.474,3.572-5.824,1.269-7.658c-2.302-1.835-5.246-2.462-9.603,1.013
				c-0.681,0.543-1.354,1.159-2.001,1.812c0.098-0.742,0.157-1.473,0.157-2.167c0-4.914-2.638-6.134-5.892-6.134
				c-3.256,0-5.892,1.22-5.892,6.134c0,0.039,0.006,0.078,0.006,0.115c-0.139-0.117-0.275-0.236-0.416-0.347
				c-4.354-3.474-7.298-2.85-9.6-1.012c-2.3,1.835-3.088,4.185,1.268,7.661c0.954,0.76,2.08,1.506,3.274,2.198
				c-1.645-0.232-3.313-0.364-4.838-0.364c-6.162,0-7.686,2.106-7.686,4.702c0,2.597,1.524,4.701,7.686,4.701
				c1.743,0,3.667-0.173,5.534-0.473c-1.562,0.831-3.047,1.78-4.262,2.747c-4.356,3.478-3.572,5.828-1.27,7.664
				c2.302,1.835,5.248,2.462,9.602-1.013c0.035-0.028,0.066-0.057,0.102-0.083c-0.007,0.159-0.019,0.321-0.019,0.478
				c0,4.916,2.638,6.134,5.892,6.134c3.254,0,5.894-1.218,5.892-6.134c0-0.988-0.109-2.047-0.306-3.112
				c0.707,0.731,1.451,1.419,2.206,2.02c4.354,3.474,7.3,2.848,9.602,1.015c2.302-1.836,3.087-4.187-1.27-7.662
				c-0.821-0.657-1.771-1.307-2.782-1.916c1.575,0.214,3.164,0.336,4.624,0.336C162.631,31.498,164.157,29.394,164.157,26.796z"/>
			<ellipse fill="#F8E73E" cx="139.698" cy="27.33" rx="8.275" ry="6.603"/>
			<linearGradient id="SVGID_4_" gradientUnits="userSpaceOnUse" x1="145.1821" y1="33.1895" x2="135.5031" y2="22.8475">
				<stop  offset="0" style="stop-color:#EEB860"/>
				<stop  offset="1" style="stop-color:#F8E73E"/>
			</linearGradient>
			<ellipse fill="url(#SVGID_4_)" cx="139.698" cy="27.33" rx="8.275" ry="6.603"/>
		</g>
		<g>
			<path fill="#88BECD" d="M112.383,54.318c-2.444-2.08-5.645-2.328-10.579,3.466c-0.838,0.984-1.668,2.083-2.464,3.234
				c0.141-1.049,0.232-2.073,0.264-3.037c0.22-6.881-2.62-8.022-6.189-7.326c-3.57,0.69-6.516,2.96-6.737,9.842
				c-0.031,1.078,0.007,2.204,0.104,3.335c-0.618-0.687-1.259-1.329-1.912-1.884c-4.622-3.936-7.882-2.429-10.488,0.631
				c-2.606,3.062-3.574,6.52,1.05,10.455c0.035,0.032,0.076,0.057,0.112,0.089c-0.219,0.037-0.443,0.07-0.659,0.111
				c-6.756,1.314-8.526,4.583-8.641,8.219c-0.116,3.636,1.464,6.257,8.224,4.941c1.479-0.286,3.084-0.748,4.688-1.316
				c-1.536,1.36-2.992,2.824-4.214,4.258c-4.934,5.796-4.177,8.917-1.737,10.996c2.444,2.081,5.646,2.33,10.581-3.466
				c1.395-1.639,2.774-3.586,3.987-5.584c-0.467,2.134-0.766,4.295-0.825,6.213c-0.221,6.881,2.619,8.022,6.188,7.328
				c3.57-0.696,6.52-2.963,6.737-9.844c0-0.053,0-0.107,0.002-0.159c0.146,0.131,0.29,0.271,0.438,0.397
				c4.624,3.937,7.882,2.431,10.486-0.629c2.606-3.062,3.575-6.52-1.05-10.457c-0.927-0.788-2.014-1.534-3.173-2.202
				c1.253-0.08,2.5-0.229,3.668-0.458c6.756-1.314,8.526-4.585,8.642-8.218c0.114-3.638-1.466-6.259-8.223-4.945
				c-1.275,0.247-2.647,0.618-4.03,1.083c1.462-1.307,2.847-2.706,4.017-4.08C115.582,59.52,114.825,56.398,112.383,54.318z"/>
			<path fill="#DFE4E0" d="M108.747,58.783c-1.977-1.682-4.57-1.885-8.563,2.806c-0.679,0.797-1.353,1.687-1.996,2.619
				c0.115-0.849,0.19-1.68,0.214-2.459c0.177-5.567-2.119-6.495-5.01-5.931c-2.889,0.563-5.275,2.4-5.453,7.969
				c-0.028,0.871,0.004,1.783,0.083,2.699c-0.502-0.556-1.021-1.074-1.549-1.525c-3.741-3.184-6.379-1.968-8.489,0.511
				c-2.112,2.479-2.891,5.277,0.851,8.461c0.029,0.026,0.062,0.046,0.09,0.07c-0.179,0.031-0.358,0.057-0.534,0.092
				c-5.467,1.063-6.901,3.708-6.994,6.654c-0.094,2.94,1.185,5.063,6.654,4c1.198-0.234,2.496-0.607,3.797-1.069
				c-1.242,1.102-2.424,2.287-3.413,3.448c-3.995,4.692-3.378,7.217-1.403,8.9c1.979,1.684,4.568,1.887,8.563-2.806
				c1.129-1.327,2.245-2.905,3.227-4.519c-0.378,1.726-0.62,3.474-0.67,5.024c-0.177,5.573,2.121,6.498,5.011,5.937
				c2.889-0.565,5.277-2.4,5.453-7.969c0.002-0.044,0-0.089,0.004-0.131c0.116,0.109,0.232,0.221,0.351,0.323
				c3.743,3.188,6.381,1.968,8.491-0.509c2.11-2.479,2.893-5.277-0.851-8.463c-0.753-0.641-1.63-1.244-2.57-1.783
				c1.016-0.064,2.023-0.185,2.968-0.371c5.467-1.063,6.902-3.712,6.998-6.652c0.094-2.944-1.187-5.065-6.658-4
				c-1.032,0.2-2.141,0.5-3.262,0.875c1.183-1.06,2.307-2.191,3.254-3.302C111.336,62.993,110.723,60.466,108.747,58.783z"/>
			
				<ellipse transform="matrix(0.6482 -0.7614 0.7614 0.6482 -26.3864 98.3911)" fill="#F8E73E" cx="93.297" cy="77.754" rx="8.275" ry="6.601"/>
			
				<linearGradient id="SVGID_5_" gradientUnits="userSpaceOnUse" x1="360.3135" y1="-39.1816" x2="350.6339" y2="-49.5242" gradientTransform="matrix(0.6482 -0.7614 0.7614 0.6482 -102.4082 377.1157)">
				<stop  offset="0" style="stop-color:#EEB860"/>
				<stop  offset="1" style="stop-color:#F8E73E"/>
			</linearGradient>
			<path fill="url(#SVGID_5_)" d="M98.661,71.453c2.776,2.364,2.625,7.101-0.338,10.58c-2.962,3.479-7.614,4.386-10.39,2.021
				c-2.778-2.365-2.626-7.101,0.336-10.583C91.231,69.993,95.883,69.088,98.661,71.453z"/>
		</g>
		<g>
			<path fill="#FE9AAA" d="M161.32,62.514c0-4.022-1.887-7.28-9.497-7.28c-1.292,0-2.667,0.102-4.059,0.277
				c0.89-0.718,1.729-1.462,2.482-2.215c5.382-5.381,4.412-9.019,1.567-11.86c-2.84-2.844-6.479-3.813-11.861,1.567
				c-0.841,0.843-1.674,1.798-2.473,2.809c0.122-1.148,0.196-2.281,0.196-3.357c0-7.61-3.26-9.495-7.28-9.495
				s-7.28,1.885-7.28,9.495c0,0.059,0.006,0.12,0.006,0.179c-0.17-0.179-0.34-0.366-0.511-0.537
				c-5.381-5.381-9.017-4.412-11.86-1.569c-2.844,2.845-3.815,6.483,1.567,11.863c1.178,1.178,2.569,2.337,4.042,3.406
				c-2.033-0.36-4.091-0.563-5.975-0.563c-7.61,0-9.497,3.258-9.497,7.278c0,4.022,1.887,7.28,9.497,7.28
				c2.154,0,4.53-0.266,6.837-0.731c-1.927,1.289-3.768,2.758-5.266,4.258c-5.383,5.381-4.41,9.019-1.569,11.86
				c2.844,2.844,6.482,3.815,11.863-1.567c0.041-0.042,0.081-0.086,0.122-0.127c-0.005,0.245-0.019,0.496-0.019,0.74
				c0,7.61,3.258,9.495,7.278,9.495c4.02,0,7.28-1.884,7.28-9.495c0-1.529-0.136-3.171-0.38-4.82
				c0.873,1.131,1.794,2.198,2.726,3.129c5.381,5.38,9.019,4.41,11.86,1.569c2.845-2.844,3.815-6.482-1.565-11.863
				c-1.015-1.017-2.188-2.025-3.437-2.966c1.944,0.333,3.906,0.519,5.709,0.519C159.434,69.792,161.32,66.534,161.32,62.514z"/>
			<path fill="#F3BBCD" d="M155.562,62.67c0-3.252-1.526-5.892-7.686-5.892c-1.048,0-2.161,0.08-3.287,0.224
				c0.72-0.582,1.401-1.182,2.01-1.792c4.354-4.354,3.572-7.3,1.268-9.6c-2.302-2.3-5.246-3.086-9.602,1.27
				c-0.681,0.681-1.355,1.455-2.001,2.272c0.098-0.93,0.157-1.846,0.157-2.715c0-6.16-2.638-7.688-5.892-7.688
				c-3.256,0-5.892,1.528-5.892,7.688c0,0.048,0.006,0.096,0.006,0.144c-0.139-0.146-0.275-0.297-0.416-0.436
				c-4.354-4.354-7.298-3.572-9.6-1.268c-2.3,2.3-3.088,5.246,1.268,9.602c0.954,0.953,2.08,1.888,3.274,2.756
				c-1.645-0.292-3.313-0.456-4.838-0.456c-6.162,0-7.686,2.64-7.686,5.892c0,3.254,1.524,5.892,7.686,5.892
				c1.742,0,3.667-0.216,5.534-0.593c-1.562,1.043-3.047,2.232-4.262,3.444c-4.356,4.358-3.571,7.302-1.27,9.604
				c2.302,2.3,5.248,3.088,9.602-1.27c0.035-0.033,0.066-0.07,0.102-0.103c-0.007,0.199-0.019,0.402-0.019,0.598
				c0,6.162,2.638,7.688,5.892,7.688c3.254,0,5.894-1.526,5.892-7.688c0-1.236-0.109-2.565-0.306-3.9
				c0.707,0.917,1.451,1.779,2.206,2.532c4.354,4.354,7.3,3.57,9.602,1.272c2.302-2.302,3.086-5.248-1.27-9.604
				c-0.822-0.823-1.771-1.637-2.782-2.401c1.574,0.27,3.164,0.421,4.624,0.421C154.036,68.562,155.562,65.925,155.562,62.67z"/>
			<circle fill="#F8E73E" cx="131.104" cy="63.338" r="8.275"/>
			<linearGradient id="SVGID_6_" gradientUnits="userSpaceOnUse" x1="137.2114" y1="69.8652" x2="126.4321" y2="58.3476">
				<stop  offset="0" style="stop-color:#EEB860"/>
				<stop  offset="1" style="stop-color:#F8E73E"/>
			</linearGradient>
			<circle fill="url(#SVGID_6_)" cx="131.104" cy="63.338" r="8.275"/>
		</g>
		<g>
			<path fill="#FE9AAA" d="M215.994,88.237c0-4.022-1.887-7.28-9.497-7.28c-1.292,0-2.667,0.102-4.059,0.277
				c0.89-0.718,1.729-1.462,2.482-2.215c5.383-5.381,4.411-9.019,1.567-11.859c-2.841-2.845-6.479-3.814-11.861,1.567
				c-0.842,0.844-1.675,1.798-2.474,2.81c0.121-1.148,0.195-2.282,0.195-3.358c0-7.61-3.26-9.495-7.28-9.495
				c-4.02,0-7.279,1.885-7.279,9.495c0,0.059,0.005,0.12,0.005,0.179c-0.17-0.179-0.34-0.365-0.511-0.537
				c-5.381-5.381-9.018-4.412-11.86-1.569c-2.844,2.844-3.815,6.482,1.567,11.863c1.178,1.178,2.569,2.337,4.043,3.405
				c-2.032-0.36-4.091-0.563-5.976-0.563c-7.61,0-9.497,3.258-9.497,7.278c0,4.022,1.887,7.28,9.497,7.28
				c2.154,0,4.53-0.266,6.837-0.731c-1.927,1.288-3.768,2.757-5.266,4.258c-5.383,5.38-4.41,9.019-1.569,11.859
				c2.845,2.845,6.482,3.815,11.863-1.567c0.041-0.042,0.081-0.087,0.122-0.127c-0.006,0.246-0.019,0.497-0.019,0.74
				c0,7.61,3.258,9.495,7.278,9.495s7.28-1.885,7.28-9.495c0-1.528-0.137-3.171-0.381-4.82c0.873,1.132,1.794,2.199,2.727,3.129
				c5.381,5.381,9.019,4.41,11.859,1.569c2.845-2.844,3.815-6.482-1.565-11.863c-1.015-1.017-2.188-2.025-3.437-2.966
				c1.943,0.333,3.905,0.519,5.709,0.519C214.107,95.516,215.994,92.257,215.994,88.237z"/>
			<path fill="#F3BBCD" d="M210.237,88.394c0-3.252-1.527-5.892-7.687-5.892c-1.049,0-2.161,0.08-3.287,0.224
				c0.72-0.582,1.4-1.182,2.01-1.792c4.354-4.354,3.571-7.3,1.268-9.6c-2.302-2.3-5.245-3.086-9.602,1.27
				c-0.682,0.681-1.354,1.455-2.001,2.272c0.098-0.93,0.157-1.846,0.157-2.715c0-6.159-2.638-7.688-5.893-7.688
				c-3.256,0-5.892,1.529-5.892,7.688c0,0.048,0.006,0.096,0.006,0.144c-0.139-0.146-0.275-0.297-0.416-0.436
				c-4.354-4.354-7.298-3.572-9.6-1.268c-2.3,2.3-3.089,5.246,1.268,9.602c0.954,0.953,2.08,1.888,3.274,2.756
				c-1.645-0.292-3.313-0.456-4.838-0.456c-6.161,0-7.686,2.64-7.686,5.892c0,3.254,1.524,5.892,7.686,5.892
				c1.742,0,3.668-0.216,5.534-0.593c-1.562,1.043-3.048,2.232-4.262,3.444c-4.356,4.358-3.572,7.302-1.271,9.604
				c2.302,2.3,5.248,3.088,9.603-1.27c0.035-0.033,0.066-0.07,0.102-0.104c-0.008,0.199-0.019,0.402-0.019,0.598
				c0,6.161,2.638,7.688,5.892,7.688s5.894-1.527,5.892-7.688c0-1.237-0.108-2.566-0.306-3.9c0.707,0.917,1.45,1.779,2.205,2.532
				c4.354,4.354,7.301,3.57,9.603,1.272c2.302-2.302,3.086-5.248-1.27-9.604c-0.822-0.823-1.771-1.637-2.782-2.401
				c1.574,0.27,3.164,0.421,4.624,0.421C208.71,94.286,210.237,91.648,210.237,88.394z"/>
			<circle fill="#F8E73E" cx="185.778" cy="89.062" r="8.275"/>
			<linearGradient id="SVGID_7_" gradientUnits="userSpaceOnUse" x1="191.8857" y1="95.5894" x2="181.1064" y2="84.0718">
				<stop  offset="0" style="stop-color:#EEB860"/>
				<stop  offset="1" style="stop-color:#F8E73E"/>
			</linearGradient>
			<circle fill="url(#SVGID_7_)" cx="185.778" cy="89.062" r="8.275"/>
		</g>
		<g>
			<path fill="#FE9AAA" d="M201.288,34.684c0-4.022-1.887-7.28-9.497-7.28c-1.292,0-2.667,0.102-4.059,0.277
				c0.89-0.718,1.729-1.462,2.482-2.215c5.383-5.38,4.412-9.019,1.567-11.859c-2.841-2.845-6.479-3.814-11.861,1.567
				c-0.842,0.844-1.675,1.798-2.474,2.81c0.122-1.148,0.195-2.282,0.195-3.358c0-7.61-3.26-9.495-7.28-9.495
				c-4.02,0-7.279,1.885-7.279,9.495c0,0.059,0.005,0.12,0.005,0.179c-0.17-0.179-0.339-0.365-0.511-0.537
				c-5.381-5.381-9.018-4.412-11.86-1.569c-2.844,2.844-3.815,6.482,1.567,11.863c1.178,1.178,2.569,2.337,4.043,3.405
				c-2.032-0.36-4.091-0.563-5.975-0.563c-7.611,0-9.497,3.258-9.497,7.278c0,4.022,1.886,7.28,9.497,7.28
				c2.154,0,4.53-0.266,6.836-0.731c-1.927,1.288-3.767,2.757-5.266,4.258c-5.383,5.38-4.41,9.019-1.569,11.859
				c2.845,2.845,6.482,3.815,11.863-1.567c0.041-0.042,0.081-0.087,0.122-0.127c-0.006,0.246-0.019,0.497-0.019,0.74
				c0,7.61,3.258,9.495,7.278,9.495s7.28-1.885,7.28-9.495c0-1.528-0.137-3.171-0.381-4.82c0.873,1.132,1.795,2.199,2.727,3.129
				c5.381,5.381,9.019,4.41,11.859,1.569c2.845-2.844,3.815-6.482-1.565-11.863c-1.015-1.017-2.187-2.025-3.437-2.966
				c1.943,0.333,3.906,0.519,5.709,0.519C199.401,41.962,201.288,38.704,201.288,34.684z"/>
			<path fill="#F3BBCD" d="M195.531,34.84c0-3.252-1.526-5.892-7.687-5.892c-1.048,0-2.161,0.08-3.287,0.224
				c0.72-0.582,1.4-1.181,2.01-1.792c4.354-4.354,3.572-7.3,1.269-9.6c-2.302-2.3-5.246-3.086-9.603,1.27
				c-0.681,0.681-1.354,1.455-2.001,2.272c0.098-0.93,0.157-1.846,0.157-2.715c0-6.159-2.638-7.688-5.893-7.688
				c-3.256,0-5.892,1.529-5.892,7.688c0,0.048,0.006,0.096,0.006,0.144c-0.139-0.146-0.275-0.297-0.416-0.436
				c-4.354-4.354-7.298-3.572-9.6-1.268c-2.3,2.3-3.088,5.246,1.268,9.602c0.955,0.953,2.081,1.889,3.274,2.756
				c-1.645-0.292-3.312-0.456-4.838-0.456c-6.161,0-7.686,2.64-7.686,5.892c0,3.254,1.524,5.892,7.686,5.892
				c1.743,0,3.668-0.216,5.534-0.593c-1.562,1.043-3.048,2.232-4.262,3.445c-4.356,4.358-3.572,7.302-1.271,9.604
				c2.302,2.3,5.248,3.088,9.603-1.27c0.035-0.033,0.066-0.07,0.102-0.104c-0.008,0.199-0.019,0.402-0.019,0.598
				c0,6.161,2.638,7.688,5.892,7.688c3.255,0,5.895-1.527,5.893-7.688c0-1.237-0.109-2.566-0.307-3.9
				c0.707,0.917,1.451,1.779,2.206,2.533c4.354,4.354,7.3,3.57,9.602,1.271c2.302-2.302,3.087-5.248-1.27-9.604
				c-0.821-0.823-1.771-1.637-2.782-2.401c1.575,0.27,3.164,0.421,4.624,0.421C194.005,40.732,195.531,38.095,195.531,34.84z"/>
			<circle fill="#F8E73E" cx="171.072" cy="35.509" r="8.275"/>
			<linearGradient id="SVGID_8_" gradientUnits="userSpaceOnUse" x1="177.1797" y1="42.0361" x2="166.4004" y2="30.5185">
				<stop  offset="0" style="stop-color:#EEB860"/>
				<stop  offset="1" style="stop-color:#F8E73E"/>
			</linearGradient>
			<circle fill="url(#SVGID_8_)" cx="171.072" cy="35.509" r="8.275"/>
		</g>
		<g>
			<path fill="#88BECD" d="M194.433,78.19c1.636-2.762,1.337-5.958-5.211-9.838c-1.111-0.659-2.335-1.291-3.604-1.879
				c1.058-0.041,2.084-0.124,3.038-0.254c6.818-0.953,7.461-3.943,6.171-7.343c-1.287-3.402-4.024-5.92-10.843-4.971
				c-1.069,0.151-2.171,0.382-3.271,0.668c0.572-0.726,1.096-1.466,1.533-2.204c3.094-5.224,1.058-8.181-2.401-10.229
				c-3.459-2.049-7.03-2.417-10.124,2.809c-0.026,0.039-0.045,0.083-0.068,0.125c-0.074-0.21-0.145-0.424-0.222-0.631
				c-2.44-6.435-5.962-7.625-9.565-7.121c-3.604,0.502-5.92,2.505-3.476,8.943c0.533,1.408,1.261,2.913,2.092,4.396
				c-1.601-1.283-3.29-2.47-4.91-3.431c-6.549-3.878-9.497-2.603-11.133,0.155c-1.635,2.76-1.336,5.958,5.211,9.838
				c1.854,1.097,4.006,2.126,6.18,2.983c-2.182-0.1-4.363-0.028-6.263,0.24c-6.818,0.949-7.461,3.942-6.172,7.341
				c1.292,3.4,4.026,5.921,10.844,4.969c0.052-0.009,0.105-0.018,0.157-0.024c-0.105,0.167-0.22,0.331-0.317,0.499
				c-3.096,5.224-1.06,8.179,2.399,10.228s7.03,2.416,10.126-2.81c0.62-1.046,1.171-2.245,1.632-3.501
				c0.292,1.222,0.649,2.425,1.074,3.539c2.44,6.435,5.964,7.623,9.563,7.123c3.605-0.506,5.922-2.507,3.479-8.943
				c-0.46-1.216-1.058-2.505-1.752-3.788c1.536,1.218,3.149,2.346,4.701,3.267C189.85,82.224,192.797,80.95,194.433,78.19z"/>
			<path fill="#DFE4E0" d="M189.416,75.362c1.321-2.233,1.081-4.823-4.218-7.963c-0.901-0.533-1.893-1.046-2.919-1.521
				c0.854-0.031,1.688-0.098,2.459-0.207c5.518-0.77,6.041-3.19,4.995-5.942c-1.045-2.752-3.26-4.794-8.777-4.022
				c-0.864,0.12-1.757,0.304-2.646,0.539c0.463-0.588,0.886-1.188,1.24-1.785c2.503-4.227,0.856-6.621-1.944-8.279
				c-2.802-1.661-5.69-1.955-8.193,2.272c-0.021,0.035-0.035,0.07-0.056,0.102c-0.061-0.172-0.116-0.343-0.181-0.51
				c-1.975-5.209-4.825-6.172-7.743-5.765c-2.915,0.406-4.79,2.027-2.813,7.238c0.434,1.141,1.021,2.355,1.696,3.561
				c-1.296-1.037-2.665-2.001-3.976-2.78c-5.303-3.14-7.686-2.104-9.01,0.127c-1.323,2.235-1.085,4.823,4.216,7.963
				c1.501,0.888,3.245,1.719,5.001,2.413c-1.765-0.08-3.527-0.021-5.065,0.192c-5.521,0.771-6.043,3.193-5,5.947
				c1.047,2.75,3.262,4.794,8.779,4.022c0.045-0.008,0.087-0.017,0.13-0.021c-0.087,0.135-0.18,0.268-0.259,0.4
				c-2.507,4.231-0.856,6.623,1.941,8.283c2.803,1.659,5.693,1.955,8.198-2.274c0.502-0.851,0.948-1.818,1.321-2.835
				c0.234,0.989,0.524,1.962,0.867,2.863c1.976,5.207,4.829,6.172,7.743,5.768c2.919-0.408,4.79-2.03,2.813-7.241
				c-0.371-0.982-0.856-2.025-1.416-3.066c1.244,0.988,2.551,1.903,3.807,2.647C185.705,78.629,188.092,77.598,189.416,75.362z"/>
			
				<ellipse transform="matrix(0.8603 0.5097 -0.5097 0.8603 55.7692 -76.8349)" fill="#F8E73E" cx="168.1" cy="63.355" rx="8.275" ry="6.602"/>
			
				<linearGradient id="SVGID_9_" gradientUnits="userSpaceOnUse" x1="80.7554" y1="250.3867" x2="71.077" y2="240.0455" gradientTransform="matrix(0.8604 0.5097 -0.5097 0.8604 227.9722 -185.4033)">
				<stop  offset="0" style="stop-color:#EEB860"/>
				<stop  offset="1" style="stop-color:#F8E73E"/>
			</linearGradient>
			<path fill="url(#SVGID_9_)" d="M175.219,67.573c-1.858,3.136-6.553,3.792-10.484,1.462c-3.932-2.329-5.613-6.761-3.754-9.897
				c1.858-3.138,6.553-3.793,10.486-1.463C175.398,60.003,177.078,64.433,175.219,67.573z"/>
		</g>
	</g>
	<path fill="#E57725" d="M194.206,273.02l-7.757-4.355l-6.845,4.181c0,0-1.493-15.442-1.429-20.583
		c0.145-12.035,7.236-24.112,7.236-24.112l6.996,0.083c0,0-1.893,17.657-1.966,23.551
		C190.379,257.081,194.206,273.02,194.206,273.02z"/>
	<path fill="#F38D44" d="M186.451,268.664l7.755,4.355c0,0-3.827-15.938-3.764-21.236c0.073-5.894,1.966-23.551,1.966-23.551
		l-4.397-0.052C182.717,236.552,181.883,252.044,186.451,268.664z"/>
	<path fill="#E57725" d="M214.167,266.736l3.859-8.013l8.006-0.491c0,0-7.622-13.513-10.616-17.692
		c-7.012-9.783-19.743-15.621-19.743-15.621l-5.687,4.075c0,0,11.665,13.391,15.101,18.18
		C208.171,251.48,214.167,266.736,214.167,266.736z"/>
	<path fill="#F38D44" d="M218.026,258.726l-3.859,8.011c0,0-5.996-15.256-9.08-19.562c-3.436-4.789-15.101-18.18-15.101-18.18
		l3.575-2.562C202.694,230.263,212.251,242.486,218.026,258.726z"/>
	<path fill="#F38D44" d="M185.547,230.39c0,0-6.231,5.914-11.77,10.057c-3.896,2.913-8.135,2.562-8.135,2.562
		s-4.191-5.153-5.178-7.665c-1.788-4.556-2.174-9.675-2.174-9.675s1.165-5.124,6.088-6.674c8.402-2.646,18.89,1.524,18.89,1.524
		L185.547,230.39z"/>
	<path fill="#E57725" d="M165.203,242.456L165.203,242.456c0.271,0.348,0.439,0.552,0.439,0.552s4.238,0.352,8.135-2.562
		c5.538-4.143,11.77-10.057,11.77-10.057s-6.424,1.65-15.129,4.216C165.468,236.066,165.203,242.456,165.203,242.456z"/>
	<path fill="#F38D44" d="M195.837,227.15c0,0,8.497,1.279,15.409,1.503c4.86,0.156,8.135-2.561,8.135-2.561s0.485-6.623-0.146-9.248
		c-1.145-4.758-3.76-9.176-3.76-9.176s-3.888-3.534-8.812-1.983c-8.402,2.645-14.611,12.067-14.611,12.067L195.837,227.15z"/>
	<path fill="#E57725" d="M219.428,225.39L219.428,225.39c-0.026,0.439-0.047,0.703-0.047,0.703s-3.274,2.717-8.135,2.561
		c-6.912-0.224-15.409-1.503-15.409-1.503s6.212-2.326,14.819-5.209C215.549,220.303,219.428,225.39,219.428,225.39z"/>
	
		<ellipse transform="matrix(0.9739 -0.2271 0.2271 0.9739 -46.2165 47.2187)" fill="#E57725" cx="182.111" cy="224.473" rx="8.977" ry="1.54"/>
	<path fill="#E57725" d="M188.678,223.119c0.289,0.796,3.839-0.037,7.928-1.862c4.088-1.825,7.167-3.952,6.877-4.748
		c-0.291-0.795-3.841,0.039-7.928,1.864C191.467,220.197,188.386,222.321,188.678,223.119z"/>
	<path fill="#E57725" d="M196.133,224.562c1.178,3.738-1.512,4.471-4.786,5.501l0,0c-3.274,1.031-5.897,1.971-7.073-1.767
		l-1.486-4.724c-1.178-3.738,1.196-5.471,4.471-6.501l0,0c3.274-1.032,6.213-0.969,7.389,2.769L196.133,224.562z"/>
	<path fill="#F38D44" d="M195.952,223.984c0.963,3.064-1.719,3.814-4.993,4.846l0,0c-3.274,1.03-5.903,1.953-6.867-1.111
		l-1.218-3.87c-0.966-3.064,1.458-4.636,4.732-5.665l0,0c3.276-1.032,6.162-1.132,7.127,1.933L195.952,223.984z"/>
</g>
</svg>
