<?xml version="1.0" encoding="utf-8"?>
<!-- Generator: Adobe Illustrator 16.0.0, SVG Export Plug-In . SVG Version: 6.00 Build 0)  -->
<!DOCTYPE svg PUBLIC "-//W3C//DTD SVG 1.1 Basic//EN" "http://www.w3.org/Graphics/SVG/1.1/DTD/svg11-basic.dtd">
<svg version="1.1" baseProfile="basic" id="Layer_1"
	 xmlns="http://www.w3.org/2000/svg" xmlns:xlink="http://www.w3.org/1999/xlink" x="0px" y="0px" width="300px" height="300px"
	 viewBox="0 0 300 300" xml:space="preserve">
<g>
	<path fill-rule="evenodd" clip-rule="evenodd" fill="#2B1811" d="M150.07,129.949c-19.482,0-35.274,10.482-35.274,23.413
		c0,12.931,15.792,23.412,35.274,23.412c19.48,0,35.274-10.481,35.274-23.412C185.345,140.431,169.551,129.949,150.07,129.949z
		 M150.07,58.039c79.316,0,143.615,42.678,143.615,95.324c0,52.645-64.299,95.323-143.615,95.323
		c-79.317,0-143.615-42.679-143.615-95.323C6.455,100.716,70.753,58.039,150.07,58.039L150.07,58.039z"/>
	<path fill-rule="evenodd" clip-rule="evenodd" fill="#2C1911" d="M150.07,129.881c-19.538,0-35.376,10.512-35.376,23.481
		s15.838,23.479,35.376,23.479c19.537,0,35.377-10.511,35.377-23.479S169.607,129.881,150.07,129.881z M150.07,58.271
		c79.119,0,143.257,42.571,143.257,95.086c0,52.513-64.138,95.047-143.257,95.047S6.813,205.87,6.813,153.357
		C6.813,100.842,70.951,58.271,150.07,58.271L150.07,58.271z"/>
	<path fill-rule="evenodd" clip-rule="evenodd" fill="#2D1A11" d="M150.07,129.813c-19.595,0-35.479,10.543-35.479,23.549
		s15.883,23.548,35.479,23.548c19.594,0,35.479-10.542,35.479-23.548S169.664,129.813,150.07,129.813z M150.07,58.504
		c78.921,0,142.899,42.465,142.899,94.849c0,52.382-63.979,94.771-142.899,94.771c-78.921,0-142.899-42.39-142.899-94.771
		C7.171,100.969,71.149,58.504,150.07,58.504L150.07,58.504z"/>
	<path fill-rule="evenodd" clip-rule="evenodd" fill="#2E1A12" d="M150.07,129.746c-19.651,0-35.581,10.573-35.581,23.617
		c0,13.043,15.929,23.615,35.581,23.615c19.65,0,35.581-10.572,35.581-23.615C185.651,140.319,169.721,129.746,150.07,129.746z
		 M150.07,58.736c78.724,0,142.541,42.359,142.541,94.611c0,52.251-63.817,94.496-142.541,94.496S7.529,205.599,7.529,153.348
		C7.529,101.095,71.347,58.736,150.07,58.736L150.07,58.736z"/>
	<path fill-rule="evenodd" clip-rule="evenodd" fill="#2E1B12" d="M150.071,129.678c-19.708,0-35.683,10.604-35.683,23.685
		s15.975,23.684,35.683,23.684c19.707,0,35.683-10.603,35.683-23.684S169.777,129.678,150.071,129.678z M150.071,58.969
		c78.525,0,142.183,42.252,142.183,94.374c0,52.119-63.658,94.22-142.183,94.22c-78.527,0-142.184-42.101-142.184-94.22
		C7.887,101.222,71.544,58.969,150.071,58.969L150.071,58.969z"/>
	<path fill-rule="evenodd" clip-rule="evenodd" fill="#2F1B13" d="M150.07,129.61c-19.764,0-35.785,10.634-35.785,23.752
		s16.021,23.751,35.785,23.751c19.763,0,35.786-10.633,35.786-23.751S169.833,129.61,150.07,129.61z M150.07,59.202
		c78.328,0,141.826,42.146,141.826,94.136c0,51.988-63.498,93.944-141.826,93.944c-78.329,0-141.826-41.956-141.826-93.944
		C8.245,101.348,71.742,59.202,150.07,59.202L150.07,59.202z"/>
	<path fill-rule="evenodd" clip-rule="evenodd" fill="#301C13" d="M150.07,129.542c-19.821,0-35.888,10.664-35.888,23.82
		c0,13.155,16.067,23.819,35.888,23.819c19.819,0,35.888-10.664,35.888-23.819C185.958,140.206,169.89,129.542,150.07,129.542z
		 M150.07,59.434c78.13,0,141.468,42.04,141.468,93.898c0,51.857-63.338,93.669-141.468,93.669
		c-78.131,0-141.468-41.812-141.468-93.669C8.603,101.474,71.939,59.434,150.07,59.434L150.07,59.434z"/>
	<path fill-rule="evenodd" clip-rule="evenodd" fill="#301C14" d="M150.07,129.474c-19.877,0-35.99,10.695-35.99,23.888
		c0,13.192,16.112,23.887,35.99,23.887c19.876,0,35.99-10.694,35.99-23.887C186.061,140.169,169.946,129.474,150.07,129.474z
		 M150.07,59.667c77.933,0,141.109,41.934,141.109,93.661c0,51.727-63.177,93.394-141.109,93.394
		c-77.934,0-141.11-41.667-141.11-93.394C8.96,101.6,72.137,59.667,150.07,59.667L150.07,59.667z"/>
	<path fill-rule="evenodd" clip-rule="evenodd" fill="#311D14" d="M150.07,129.406c-19.934,0-36.092,10.725-36.092,23.956
		c0,13.23,16.158,23.955,36.092,23.955c19.932,0,36.092-10.725,36.092-23.955C186.162,140.131,170.002,129.406,150.07,129.406z
		 M150.07,59.9c77.734,0,140.752,41.826,140.752,93.422c0,51.595-63.018,93.118-140.752,93.118
		c-77.736,0-140.752-41.523-140.752-93.118C9.318,101.726,72.334,59.9,150.07,59.9L150.07,59.9z"/>
	<path fill-rule="evenodd" clip-rule="evenodd" fill="#321D14" d="M150.07,129.338c-19.99,0-36.194,10.755-36.194,24.024
		s16.204,24.022,36.194,24.022c19.989,0,36.194-10.754,36.194-24.022S170.06,129.338,150.07,129.338z M150.07,60.132
		c77.537,0,140.395,41.721,140.395,93.185c0,51.464-62.857,92.842-140.395,92.842c-77.538,0-140.394-41.378-140.394-92.842
		C9.676,101.853,72.532,60.132,150.07,60.132L150.07,60.132z"/>
	<path fill-rule="evenodd" clip-rule="evenodd" fill="#331E15" d="M150.07,129.271c-20.046,0-36.296,10.786-36.296,24.092
		s16.25,24.091,36.296,24.091c20.045,0,36.297-10.785,36.297-24.091S170.115,129.271,150.07,129.271z M150.07,60.365
		c77.34,0,140.036,41.614,140.036,92.948c0,51.333-62.696,92.566-140.036,92.566S10.035,204.646,10.035,153.312
		C10.035,101.979,72.73,60.365,150.07,60.365L150.07,60.365z"/>
	<path fill-rule="evenodd" clip-rule="evenodd" fill="#331E15" d="M150.071,129.203c-20.103,0-36.399,10.816-36.399,24.159
		c0,13.343,16.296,24.159,36.399,24.159c20.101,0,36.398-10.816,36.398-24.159C186.469,140.019,170.172,129.203,150.071,129.203z
		 M150.071,60.598c77.142,0,139.677,41.508,139.677,92.71s-62.535,92.291-139.677,92.291c-77.143,0-139.679-41.089-139.679-92.291
		S72.928,60.598,150.071,60.598L150.071,60.598z"/>
	<path fill-rule="evenodd" clip-rule="evenodd" fill="#341F16" d="M150.07,129.135c-20.16,0-36.5,10.847-36.5,24.228
		s16.341,24.227,36.5,24.227c20.158,0,36.502-10.846,36.502-24.227S170.229,129.135,150.07,129.135z M150.07,60.83
		c76.944,0,139.32,41.401,139.32,92.473c0,51.07-62.376,92.016-139.32,92.016S10.75,204.373,10.75,153.303
		C10.75,102.231,73.126,60.83,150.07,60.83L150.07,60.83z"/>
	<path fill-rule="evenodd" clip-rule="evenodd" fill="#351F16" d="M150.07,129.067c-20.216,0-36.604,10.877-36.604,24.295
		c0,13.417,16.387,24.294,36.604,24.294c20.214,0,36.604-10.877,36.604-24.294C186.674,139.944,170.284,129.067,150.07,129.067z
		 M150.07,61.062c76.746,0,138.962,41.295,138.962,92.235c0,50.938-62.216,91.739-138.962,91.739
		c-76.747,0-138.962-40.801-138.962-91.739C11.108,102.357,73.323,61.062,150.07,61.062L150.07,61.062z"/>
	<path fill-rule="evenodd" clip-rule="evenodd" fill="#352016" d="M150.07,128.999c-20.272,0-36.706,10.907-36.706,24.363
		c0,13.455,16.433,24.362,36.706,24.362c20.271,0,36.706-10.907,36.706-24.362C186.776,139.906,170.342,128.999,150.07,128.999z
		 M150.07,61.295c76.549,0,138.604,41.188,138.604,91.998c0,50.808-62.056,91.463-138.604,91.463
		c-76.549,0-138.604-40.655-138.604-91.463C11.466,102.483,73.521,61.295,150.07,61.295L150.07,61.295z"/>
	<path fill-rule="evenodd" clip-rule="evenodd" fill="#362017" d="M150.07,128.931c-20.329,0-36.807,10.938-36.807,24.431
		s16.479,24.431,36.807,24.431c20.328,0,36.808-10.938,36.808-24.431S170.397,128.931,150.07,128.931z M150.07,61.528
		c76.352,0,138.247,41.082,138.247,91.76c0,50.676-61.895,91.188-138.247,91.188c-76.351,0-138.246-40.512-138.246-91.188
		C11.824,102.61,73.719,61.528,150.07,61.528L150.07,61.528z"/>
	<path fill-rule="evenodd" clip-rule="evenodd" fill="#372117" d="M150.07,128.863c-20.386,0-36.91,10.968-36.91,24.499
		c0,13.53,16.524,24.498,36.91,24.498c20.384,0,36.91-10.968,36.91-24.498C186.98,139.832,170.454,128.863,150.07,128.863z
		 M150.07,61.76c76.153,0,137.889,40.977,137.889,91.523c0,50.545-61.735,90.912-137.889,90.912
		c-76.154,0-137.889-40.367-137.889-90.912C12.182,102.737,73.917,61.76,150.07,61.76L150.07,61.76z"/>
	<path fill-rule="evenodd" clip-rule="evenodd" fill="#372117" d="M150.07,128.795c-20.442,0-37.012,10.999-37.012,24.567
		c0,13.567,16.57,24.565,37.012,24.565c20.44,0,37.013-10.998,37.013-24.565C187.083,139.794,170.511,128.795,150.07,128.795z
		 M150.07,61.993c75.956,0,137.53,40.87,137.53,91.285c0,50.414-61.574,90.636-137.53,90.636S12.54,203.692,12.54,153.278
		C12.54,102.863,74.114,61.993,150.07,61.993L150.07,61.993z"/>
	<path fill-rule="evenodd" clip-rule="evenodd" fill="#382218" d="M150.07,128.728c-20.499,0-37.114,11.029-37.114,24.635
		s16.616,24.634,37.114,24.634c20.497,0,37.114-11.028,37.114-24.634S170.567,128.728,150.07,128.728z M150.07,62.226
		c75.759,0,137.173,40.763,137.173,91.047c0,50.283-61.414,90.36-137.173,90.36s-137.172-40.077-137.172-90.36
		C12.898,102.989,74.312,62.226,150.07,62.226L150.07,62.226z"/>
	<path fill-rule="evenodd" clip-rule="evenodd" fill="#392218" d="M150.07,128.66c-20.555,0-37.217,11.059-37.217,24.702
		c0,13.643,16.662,24.701,37.217,24.701c20.553,0,37.217-11.059,37.217-24.701C187.287,139.719,170.623,128.66,150.07,128.66z
		 M150.07,62.458c75.561,0,136.814,40.657,136.814,90.81c0,50.151-61.254,90.084-136.814,90.084
		c-75.561,0-136.815-39.933-136.815-90.084C13.255,103.115,74.509,62.458,150.07,62.458L150.07,62.458z"/>
	<path fill-rule="evenodd" clip-rule="evenodd" fill="#392218" d="M150.07,128.592c-20.611,0-37.319,11.09-37.319,24.771
		s16.708,24.77,37.319,24.77c20.61,0,37.319-11.089,37.319-24.77S170.681,128.592,150.07,128.592z M150.07,62.691
		c75.363,0,136.457,40.55,136.457,90.573c0,50.021-61.094,89.809-136.457,89.809S13.613,203.284,13.613,153.264
		C13.613,103.241,74.707,62.691,150.07,62.691L150.07,62.691z"/>
	<path fill-rule="evenodd" clip-rule="evenodd" fill="#3A2319" d="M150.07,128.524c-20.667,0-37.421,11.12-37.421,24.838
		s16.753,24.837,37.421,24.837c20.666,0,37.422-11.119,37.422-24.837S170.736,128.524,150.07,128.524z M150.07,62.924
		c75.165,0,136.099,40.444,136.099,90.334c0,49.89-60.934,89.534-136.099,89.534c-75.166,0-136.099-39.645-136.099-89.534
		C13.972,103.368,74.905,62.924,150.07,62.924L150.07,62.924z"/>
	<path fill-rule="evenodd" clip-rule="evenodd" fill="#3B2319" d="M150.07,128.456c-20.725,0-37.523,11.151-37.523,24.906
		c0,13.755,16.798,24.905,37.523,24.905c20.723,0,37.523-11.15,37.523-24.905C187.594,139.607,170.793,128.456,150.07,128.456z
		 M150.07,63.156c74.968,0,135.74,40.338,135.74,90.098c0,49.758-60.772,89.258-135.74,89.258s-135.741-39.5-135.741-89.258
		C14.329,103.494,75.103,63.156,150.07,63.156L150.07,63.156z"/>
	<path fill-rule="evenodd" clip-rule="evenodd" fill="#3C2419" d="M150.07,128.389c-20.781,0-37.625,11.18-37.625,24.974
		c0,13.793,16.845,24.973,37.625,24.973c20.779,0,37.626-11.18,37.626-24.973C187.696,139.569,170.85,128.389,150.07,128.389z
		 M150.07,63.389c74.77,0,135.383,40.232,135.383,89.859c0,49.627-60.613,88.982-135.383,88.982
		c-74.771,0-135.383-39.355-135.383-88.982C14.688,103.621,75.3,63.389,150.07,63.389L150.07,63.389z"/>
	<path fill-rule="evenodd" clip-rule="evenodd" fill="#3C241A" d="M150.07,128.321c-20.837,0-37.728,11.21-37.728,25.042
		c0,13.83,16.891,25.041,37.728,25.041c20.836,0,37.729-11.211,37.729-25.041C187.799,139.531,170.906,128.321,150.07,128.321z
		 M150.07,63.622c74.572,0,135.025,40.125,135.025,89.622c0,49.496-60.453,88.706-135.025,88.706
		c-74.573,0-135.025-39.21-135.025-88.706C15.045,103.747,75.498,63.622,150.07,63.622L150.07,63.622z"/>
	<path fill-rule="evenodd" clip-rule="evenodd" fill="#3D251A" d="M150.07,128.252c-20.894,0-37.83,11.242-37.83,25.11
		c0,13.867,16.936,25.108,37.83,25.108c20.893,0,37.83-11.241,37.83-25.108C187.9,139.494,170.963,128.252,150.07,128.252z
		 M150.07,63.854c74.374,0,134.667,40.019,134.667,89.384s-60.293,88.431-134.667,88.431c-74.375,0-134.667-39.065-134.667-88.431
		S75.695,63.854,150.07,63.854L150.07,63.854z"/>
	<path fill-rule="evenodd" clip-rule="evenodd" fill="#3E251A" d="M150.07,128.185c-20.95,0-37.933,11.271-37.933,25.177
		c0,13.905,16.982,25.177,37.933,25.177c20.949,0,37.933-11.271,37.933-25.177C188.003,139.457,171.02,128.185,150.07,128.185z
		 M150.07,64.087c74.177,0,134.309,39.912,134.309,89.146c0,49.233-60.132,88.155-134.309,88.155
		c-74.177,0-134.309-38.922-134.309-88.155C15.761,103.999,75.893,64.087,150.07,64.087L150.07,64.087z"/>
	<path fill-rule="evenodd" clip-rule="evenodd" fill="#3E251A" d="M150.07,128.117c-21.006,0-38.034,11.302-38.034,25.246
		c0,13.942,17.028,25.244,38.034,25.244c21.005,0,38.035-11.302,38.035-25.244C188.105,139.419,171.075,128.117,150.07,128.117z
		 M150.07,64.319c73.979,0,133.951,39.806,133.951,88.909c0,49.103-59.972,87.879-133.951,87.879S16.119,202.331,16.119,153.229
		C16.119,104.125,76.091,64.319,150.07,64.319L150.07,64.319z"/>
	<path fill-rule="evenodd" clip-rule="evenodd" fill="#3F261B" d="M150.07,128.049c-21.063,0-38.137,11.333-38.137,25.313
		c0,13.979,17.073,25.312,38.137,25.312c21.062,0,38.137-11.333,38.137-25.312C188.207,139.382,171.132,128.049,150.07,128.049z
		 M150.07,64.552c73.781,0,133.594,39.7,133.594,88.671s-59.812,87.604-133.594,87.604c-73.782,0-133.594-38.632-133.594-87.604
		S76.288,64.552,150.07,64.552L150.07,64.552z"/>
	<path fill-rule="evenodd" clip-rule="evenodd" fill="#40261B" d="M150.07,127.981c-21.12,0-38.239,11.363-38.239,25.381
		c0,14.018,17.12,25.38,38.239,25.38c21.118,0,38.239-11.362,38.239-25.38C188.31,139.344,171.188,127.981,150.07,127.981z
		 M150.07,64.785c73.584,0,133.235,39.593,133.235,88.434c0,48.84-59.651,87.327-133.235,87.327
		c-73.584,0-133.235-38.487-133.235-87.327C16.835,104.378,76.486,64.785,150.07,64.785L150.07,64.785z"/>
	<path fill-rule="evenodd" clip-rule="evenodd" fill="#40271B" d="M150.07,127.913c-21.176,0-38.341,11.394-38.341,25.449
		s17.166,25.448,38.341,25.448c21.175,0,38.342-11.393,38.342-25.448S171.245,127.913,150.07,127.913z M150.07,65.017
		c73.386,0,132.877,39.487,132.877,88.197c0,48.709-59.491,87.052-132.877,87.052c-73.387,0-132.878-38.343-132.878-87.052
		C17.192,104.504,76.684,65.017,150.07,65.017L150.07,65.017z"/>
	<path fill-rule="evenodd" clip-rule="evenodd" fill="#41271B" d="M150.07,127.846c-21.232,0-38.443,11.423-38.443,25.517
		c0,14.093,17.211,25.516,38.443,25.516c21.231,0,38.443-11.423,38.443-25.516C188.514,139.269,171.302,127.846,150.07,127.846z
		 M150.07,65.25c73.188,0,132.52,39.38,132.52,87.959c0,48.577-59.331,86.776-132.52,86.776c-73.189,0-132.52-38.199-132.52-86.776
		C17.551,104.63,76.881,65.25,150.07,65.25L150.07,65.25z"/>
	<path fill-rule="evenodd" clip-rule="evenodd" fill="#42281C" d="M150.07,127.777c-21.289,0-38.545,11.454-38.545,25.585
		c0,14.13,17.256,25.584,38.545,25.584c21.287,0,38.546-11.454,38.546-25.584C188.616,139.231,171.357,127.777,150.07,127.777z
		 M150.07,65.482c72.991,0,132.162,39.274,132.162,87.722c0,48.446-59.171,86.5-132.162,86.5s-132.162-38.054-132.162-86.5
		C17.909,104.757,77.079,65.482,150.07,65.482L150.07,65.482z"/>
	<path fill-rule="evenodd" clip-rule="evenodd" fill="#42281C" d="M150.07,127.71c-21.345,0-38.648,11.484-38.648,25.652
		c0,14.167,17.303,25.651,38.648,25.651c21.344,0,38.648-11.484,38.648-25.651C188.719,139.194,171.414,127.71,150.07,127.71z
		 M150.07,65.715c72.793,0,131.804,39.168,131.804,87.484c0,48.314-59.011,86.225-131.804,86.225
		c-72.794,0-131.804-37.91-131.804-86.225C18.266,104.883,77.276,65.715,150.07,65.715L150.07,65.715z"/>
	<path fill-rule="evenodd" clip-rule="evenodd" fill="#43281C" d="M150.07,127.642c-21.402,0-38.75,11.515-38.75,25.72
		c0,14.205,17.348,25.72,38.75,25.72c21.4,0,38.751-11.515,38.751-25.72C188.821,139.157,171.471,127.642,150.07,127.642z
		 M150.07,65.948c72.596,0,131.445,39.061,131.445,87.246c0,48.184-58.85,85.948-131.445,85.948
		c-72.596,0-131.446-37.765-131.446-85.948C18.624,105.009,77.474,65.948,150.07,65.948L150.07,65.948z"/>
	<path fill-rule="evenodd" clip-rule="evenodd" fill="#44291D" d="M150.07,127.574c-21.458,0-38.853,11.545-38.853,25.788
		c0,14.242,17.395,25.788,38.853,25.788c21.457,0,38.853-11.546,38.853-25.788C188.923,139.119,171.527,127.574,150.07,127.574z
		 M150.07,66.181c72.398,0,131.088,38.955,131.088,87.009c0,48.053-58.689,85.673-131.088,85.673s-131.088-37.62-131.088-85.673
		C18.982,105.136,77.672,66.181,150.07,66.181L150.07,66.181z"/>
	<path fill-rule="evenodd" clip-rule="evenodd" fill="#44291D" d="M150.07,127.506c-21.515,0-38.955,11.576-38.955,25.856
		s17.44,25.855,38.955,25.855c21.514,0,38.955-11.575,38.955-25.855S171.584,127.506,150.07,127.506z M150.07,66.413
		c72.2,0,130.729,38.849,130.729,86.771c0,47.921-58.529,85.397-130.729,85.397c-72.201,0-130.73-37.477-130.73-85.397
		C19.34,105.262,77.87,66.413,150.07,66.413L150.07,66.413z"/>
	<path fill-rule="evenodd" clip-rule="evenodd" fill="#452A1D" d="M150.07,127.438c-21.571,0-39.057,11.606-39.057,25.924
		c0,14.317,17.485,25.923,39.057,25.923c21.57,0,39.057-11.605,39.057-25.923C189.127,139.044,171.641,127.438,150.07,127.438z
		 M150.07,66.646c72.002,0,130.372,38.742,130.372,86.534c0,47.79-58.37,85.121-130.372,85.121
		c-72.003,0-130.372-37.331-130.372-85.121C19.698,105.388,78.067,66.646,150.07,66.646L150.07,66.646z"/>
	<path fill-rule="evenodd" clip-rule="evenodd" fill="#462A1D" d="M150.07,127.371c-21.628,0-39.159,11.636-39.159,25.992
		c0,14.354,17.531,25.991,39.159,25.991c21.627,0,39.159-11.637,39.159-25.991C189.229,139.007,171.697,127.371,150.07,127.371z
		 M150.07,66.878c71.805,0,130.014,38.636,130.014,86.296c0,47.659-58.209,84.847-130.014,84.847S20.056,200.833,20.056,153.174
		C20.056,105.514,78.266,66.878,150.07,66.878L150.07,66.878z"/>
	<path fill-rule="evenodd" clip-rule="evenodd" fill="#462A1E" d="M150.07,127.303c-21.684,0-39.261,11.667-39.261,26.06
		c0,14.392,17.577,26.059,39.261,26.059c21.683,0,39.262-11.667,39.262-26.059C189.332,138.97,171.753,127.303,150.07,127.303z
		 M150.07,67.111c71.607,0,129.656,38.53,129.656,86.059c0,47.527-58.049,84.57-129.656,84.57S20.414,200.697,20.414,153.17
		C20.414,105.641,78.463,67.111,150.07,67.111L150.07,67.111z"/>
	<path fill-rule="evenodd" clip-rule="evenodd" fill="#472B1E" d="M150.07,127.234c-21.74,0-39.363,11.697-39.363,26.128
		c0,14.43,17.623,26.126,39.363,26.126c21.739,0,39.363-11.696,39.363-26.126C189.434,138.932,171.81,127.234,150.07,127.234z
		 M150.07,67.344c71.41,0,129.298,38.423,129.298,85.82c0,47.396-57.888,84.295-129.298,84.295
		c-71.41,0-129.298-36.898-129.298-84.295C20.772,105.767,78.661,67.344,150.07,67.344L150.07,67.344z"/>
	<path fill-rule="evenodd" clip-rule="evenodd" fill="#482B1E" d="M150.07,127.167c-21.797,0-39.466,11.728-39.466,26.195
		s17.669,26.194,39.466,26.194c21.796,0,39.467-11.727,39.467-26.194S171.866,127.167,150.07,127.167z M150.07,67.576
		c71.212,0,128.94,38.317,128.94,85.583s-57.729,84.02-128.94,84.02s-128.94-36.754-128.94-84.02S78.858,67.576,150.07,67.576
		L150.07,67.576z"/>
	<path fill-rule="evenodd" clip-rule="evenodd" fill="#482C1E" d="M150.07,127.099c-21.854,0-39.568,11.758-39.568,26.264
		c0,14.505,17.714,26.263,39.568,26.263c21.853,0,39.568-11.758,39.568-26.263C189.639,138.857,171.923,127.099,150.07,127.099z
		 M150.07,67.809c71.014,0,128.582,38.211,128.582,85.346c0,47.134-57.568,83.743-128.582,83.743
		c-71.015,0-128.583-36.609-128.583-83.743C21.488,106.02,79.056,67.809,150.07,67.809L150.07,67.809z"/>
	<path fill-rule="evenodd" clip-rule="evenodd" fill="#492C1F" d="M150.07,127.031c-21.91,0-39.67,11.788-39.67,26.331
		c0,14.542,17.76,26.331,39.67,26.331c21.908,0,39.671-11.789,39.671-26.331C189.741,138.819,171.979,127.031,150.07,127.031z
		 M150.07,68.041c70.816,0,128.225,38.104,128.225,85.108c0,47.003-57.408,83.468-128.225,83.468S21.846,200.152,21.846,153.149
		C21.846,106.146,79.254,68.041,150.07,68.041L150.07,68.041z"/>
	<path fill-rule="evenodd" clip-rule="evenodd" fill="#4A2C1F" d="M150.07,126.964c-21.967,0-39.772,11.818-39.772,26.398
		s17.806,26.398,39.772,26.398c21.965,0,39.772-11.818,39.772-26.398S172.035,126.964,150.07,126.964z M150.07,68.274
		c70.619,0,127.866,37.997,127.866,84.87c0,46.872-57.247,83.191-127.866,83.191S22.203,200.017,22.203,153.145
		C22.203,106.271,79.451,68.274,150.07,68.274L150.07,68.274z"/>
	<path fill-rule="evenodd" clip-rule="evenodd" fill="#4A2D1F" d="M150.07,126.896c-22.023,0-39.875,11.849-39.875,26.467
		c0,14.617,17.852,26.466,39.875,26.466c22.021,0,39.875-11.849,39.875-26.466C189.945,138.745,172.092,126.896,150.07,126.896z
		 M150.07,68.507c70.421,0,127.508,37.891,127.508,84.633c0,46.74-57.087,82.917-127.508,82.917
		c-70.421,0-127.509-36.177-127.509-82.917C22.562,106.398,79.649,68.507,150.07,68.507L150.07,68.507z"/>
	<path fill-rule="evenodd" clip-rule="evenodd" fill="#4B2D1F" d="M150.07,126.828c-22.079,0-39.977,11.879-39.977,26.535
		c0,14.654,17.898,26.534,39.977,26.534c22.078,0,39.977-11.88,39.977-26.534C190.047,138.707,172.148,126.828,150.07,126.828z
		 M150.07,68.739c70.224,0,127.15,37.785,127.15,84.396c0,46.609-56.927,82.641-127.15,82.641S22.919,199.744,22.919,153.135
		C22.919,106.524,79.847,68.739,150.07,68.739L150.07,68.739z"/>
	<path fill-rule="evenodd" clip-rule="evenodd" fill="#4C2E1F" d="M150.07,126.76c-22.136,0-40.079,11.91-40.079,26.603
		s17.943,26.602,40.079,26.602c22.135,0,40.079-11.909,40.079-26.602S172.205,126.76,150.07,126.76z M150.07,68.972
		c70.025,0,126.793,37.679,126.793,84.157c0,46.479-56.768,82.365-126.793,82.365c-70.026,0-126.793-35.887-126.793-82.365
		C23.277,106.651,80.044,68.972,150.07,68.972L150.07,68.972z"/>
	<path fill-rule="evenodd" clip-rule="evenodd" fill="#4D2E20" d="M150.07,126.692c-22.192,0-40.182,11.94-40.182,26.67
		c0,14.729,17.989,26.669,40.182,26.669c22.191,0,40.182-11.939,40.182-26.669C190.252,138.632,172.262,126.692,150.07,126.692z
		 M150.07,69.204c69.828,0,126.435,37.573,126.435,83.921c0,46.347-56.606,82.089-126.435,82.089S23.635,199.472,23.635,153.125
		C23.635,106.777,80.242,69.204,150.07,69.204L150.07,69.204z"/>
	<path fill-rule="evenodd" clip-rule="evenodd" fill="#4D2E20" d="M150.07,126.624c-22.249,0-40.283,11.971-40.283,26.738
		S127.821,180.1,150.07,180.1c22.248,0,40.284-11.97,40.284-26.737S172.318,126.624,150.07,126.624z M150.07,69.437
		c69.631,0,126.076,37.467,126.076,83.683s-56.445,81.814-126.076,81.814S23.993,199.335,23.993,153.119
		S80.439,69.437,150.07,69.437L150.07,69.437z"/>
	<path fill-rule="evenodd" clip-rule="evenodd" fill="#4E2F20" d="M150.07,126.556c-22.306,0-40.386,12.001-40.386,26.806
		c0,14.805,18.08,26.806,40.386,26.806c22.304,0,40.387-12.001,40.387-26.806C190.457,138.557,172.374,126.556,150.07,126.556z
		 M150.07,69.67c69.433,0,125.719,37.359,125.719,83.445c0,46.084-56.286,81.537-125.719,81.537
		c-69.433,0-125.719-35.453-125.719-81.537C24.351,107.029,80.637,69.67,150.07,69.67L150.07,69.67z"/>
	<path fill-rule="evenodd" clip-rule="evenodd" fill="#4F2F20" d="M150.07,126.488c-22.362,0-40.488,12.031-40.488,26.874
		c0,14.842,18.126,26.873,40.488,26.873c22.36,0,40.488-12.031,40.488-26.873C190.559,138.52,172.431,126.488,150.07,126.488z
		 M150.07,69.902c69.235,0,125.361,37.253,125.361,83.208c0,45.953-56.126,81.262-125.361,81.262S24.709,199.063,24.709,153.11
		C24.709,107.155,80.835,69.902,150.07,69.902L150.07,69.902z"/>
	<path fill-rule="evenodd" clip-rule="evenodd" fill="#4F2F21" d="M150.07,126.421c-22.418,0-40.59,12.062-40.59,26.941
		s18.172,26.94,40.59,26.94c22.417,0,40.591-12.061,40.591-26.94S172.487,126.421,150.07,126.421z M150.07,70.135
		c69.037,0,125.003,37.147,125.003,82.971c0,45.821-55.966,80.985-125.003,80.985c-69.038,0-125.004-35.164-125.004-80.985
		C25.066,107.282,81.032,70.135,150.07,70.135L150.07,70.135z"/>
	<path fill-rule="evenodd" clip-rule="evenodd" fill="#503021" d="M150.07,126.353c-22.475,0-40.693,12.092-40.693,27.01
		c0,14.917,18.218,27.009,40.693,27.009c22.474,0,40.693-12.092,40.693-27.009C190.764,138.445,172.544,126.353,150.07,126.353z
		 M150.07,70.368c68.84,0,124.646,37.041,124.646,82.732s-55.806,80.711-124.646,80.711S25.425,198.791,25.425,153.1
		S81.23,70.368,150.07,70.368L150.07,70.368z"/>
	<path fill-rule="evenodd" clip-rule="evenodd" fill="#513021" d="M150.07,126.285c-22.531,0-40.795,12.122-40.795,27.077
		c0,14.954,18.264,27.077,40.795,27.077c22.53,0,40.795-12.123,40.795-27.077C190.865,138.407,172.601,126.285,150.07,126.285z
		 M150.07,70.6c68.643,0,124.287,36.935,124.287,82.496c0,45.559-55.645,80.435-124.287,80.435S25.783,198.654,25.783,153.096
		C25.783,107.535,81.428,70.6,150.07,70.6L150.07,70.6z"/>
	<path fill-rule="evenodd" clip-rule="evenodd" fill="#513121" d="M150.07,126.217c-22.588,0-40.897,12.153-40.897,27.146
		s18.309,27.145,40.897,27.145c22.586,0,40.897-12.152,40.897-27.145S172.656,126.217,150.07,126.217z M150.07,70.833
		c68.444,0,123.93,36.828,123.93,82.257s-55.485,80.16-123.93,80.16c-68.445,0-123.93-34.731-123.93-80.16
		S81.625,70.833,150.07,70.833L150.07,70.833z"/>
	<path fill-rule="evenodd" clip-rule="evenodd" fill="#523121" d="M150.07,126.149c-22.644,0-41,12.183-41,27.213
		c0,15.029,18.356,27.213,41,27.213c22.643,0,41-12.184,41-27.213C191.07,138.333,172.713,126.149,150.07,126.149z M150.07,71.065
		c68.247,0,123.571,36.722,123.571,82.021c0,45.297-55.324,79.883-123.571,79.883S26.499,198.383,26.499,153.086
		C26.499,107.787,81.823,71.065,150.07,71.065L150.07,71.065z"/>
	<path fill-rule="evenodd" clip-rule="evenodd" fill="#533122" d="M150.07,126.081c-22.701,0-41.102,12.214-41.102,27.281
		c0,15.066,18.401,27.28,41.102,27.28c22.699,0,41.102-12.214,41.102-27.28C191.172,138.295,172.77,126.081,150.07,126.081z
		 M150.07,71.298c68.049,0,123.214,36.615,123.214,81.782c0,45.166-55.165,79.607-123.214,79.607
		c-68.05,0-123.214-34.441-123.214-79.607C26.856,107.913,82.021,71.298,150.07,71.298L150.07,71.298z"/>
	<path fill-rule="evenodd" clip-rule="evenodd" fill="#533222" d="M150.07,126.013c-22.757,0-41.204,12.245-41.204,27.349
		s18.447,27.349,41.204,27.349c22.756,0,41.204-12.244,41.204-27.349S172.826,126.013,150.07,126.013z M150.07,71.53
		c67.852,0,122.855,36.509,122.855,81.545c0,45.034-55.004,79.332-122.855,79.332S27.214,198.109,27.214,153.075
		C27.214,108.039,82.219,71.53,150.07,71.53L150.07,71.53z"/>
	<path fill-rule="evenodd" clip-rule="evenodd" fill="#543222" d="M150.07,125.945c-22.813,0-41.306,12.274-41.306,27.417
		c0,15.142,18.492,27.416,41.306,27.416c22.812,0,41.307-12.274,41.307-27.416C191.377,138.22,172.883,125.945,150.07,125.945z
		 M150.07,71.763c67.653,0,122.498,36.403,122.498,81.308c0,44.904-54.845,79.057-122.498,79.057
		c-67.654,0-122.498-34.152-122.498-79.057C27.572,108.166,82.416,71.763,150.07,71.763L150.07,71.763z"/>
	<path fill-rule="evenodd" clip-rule="evenodd" fill="#553322" d="M150.07,125.877c-22.87,0-41.408,12.305-41.408,27.485
		s18.538,27.483,41.408,27.483c22.869,0,41.408-12.304,41.408-27.483S172.939,125.877,150.07,125.877z M150.07,71.996
		c67.456,0,122.14,36.296,122.14,81.069c0,44.772-54.684,78.78-122.14,78.78c-67.457,0-122.141-34.008-122.141-78.78
		C27.93,108.292,82.614,71.996,150.07,71.996L150.07,71.996z"/>
	<path fill-rule="evenodd" clip-rule="evenodd" fill="#563322" d="M150.07,125.81c-22.927,0-41.511,12.335-41.511,27.553
		c0,15.217,18.584,27.552,41.511,27.552c22.925,0,41.511-12.335,41.511-27.552C191.581,138.145,172.995,125.81,150.07,125.81z
		 M150.07,72.229c67.259,0,121.782,36.19,121.782,80.832c0,44.641-54.523,78.505-121.782,78.505S28.288,197.701,28.288,153.061
		C28.288,108.418,82.812,72.229,150.07,72.229L150.07,72.229z"/>
	<path fill-rule="evenodd" clip-rule="evenodd" fill="#563323" d="M150.07,125.742c-22.982,0-41.612,12.365-41.612,27.62
		s18.63,27.62,41.612,27.62c22.981,0,41.613-12.365,41.613-27.62S173.052,125.742,150.07,125.742z M150.07,72.461
		c67.061,0,121.424,36.084,121.424,80.595c0,44.51-54.363,78.229-121.424,78.229c-67.062,0-121.424-33.72-121.424-78.229
		C28.646,108.545,83.009,72.461,150.07,72.461L150.07,72.461z"/>
	<path fill-rule="evenodd" clip-rule="evenodd" fill="#573423" d="M150.07,125.674c-23.04,0-41.715,12.396-41.715,27.688
		s18.676,27.688,41.715,27.688c23.038,0,41.716-12.396,41.716-27.688S173.108,125.674,150.07,125.674z M150.07,72.694
		c66.863,0,121.066,35.977,121.066,80.357c0,44.379-54.203,77.953-121.066,77.953S29.004,197.43,29.004,153.051
		C29.004,108.671,83.207,72.694,150.07,72.694L150.07,72.694z"/>
	<path fill-rule="evenodd" clip-rule="evenodd" fill="#583423" d="M150.07,125.606c-23.096,0-41.817,12.426-41.817,27.756
		c0,15.329,18.722,27.756,41.817,27.756c23.095,0,41.817-12.427,41.817-27.756C191.888,138.033,173.165,125.606,150.07,125.606z
		 M150.07,72.926c66.665,0,120.708,35.871,120.708,80.119s-54.043,77.679-120.708,77.679S29.362,197.293,29.362,153.045
		S83.405,72.926,150.07,72.926L150.07,72.926z"/>
	<path fill-rule="evenodd" clip-rule="evenodd" fill="#583423" d="M150.07,125.538c-23.152,0-41.919,12.457-41.919,27.824
		c0,15.366,18.767,27.823,41.919,27.823c23.151,0,41.92-12.457,41.92-27.823C191.99,137.995,173.222,125.538,150.07,125.538z
		 M150.07,73.159c66.468,0,120.351,35.764,120.351,79.882c0,44.116-53.883,77.402-120.351,77.402S29.72,197.157,29.72,153.041
		C29.72,108.923,83.603,73.159,150.07,73.159L150.07,73.159z"/>
	<path fill-rule="evenodd" clip-rule="evenodd" fill="#593523" d="M150.07,125.471c-23.209,0-42.021,12.487-42.021,27.892
		c0,15.404,18.812,27.892,42.021,27.892c23.207,0,42.021-12.487,42.021-27.892C192.092,137.958,173.277,125.471,150.07,125.471z
		 M150.07,73.392c66.27,0,119.992,35.658,119.992,79.644c0,43.986-53.723,77.127-119.992,77.127
		c-66.271,0-119.993-33.141-119.993-77.127C30.078,109.05,83.8,73.392,150.07,73.392L150.07,73.392z"/>
	<path fill-rule="evenodd" clip-rule="evenodd" fill="#5A3524" d="M150.07,125.402c-23.265,0-42.124,12.518-42.124,27.96
		c0,15.441,18.859,27.959,42.124,27.959c23.264,0,42.124-12.518,42.124-27.959C192.194,137.92,173.334,125.402,150.07,125.402z
		 M150.07,73.625c66.072,0,119.635,35.551,119.635,79.407c0,43.854-53.562,76.851-119.635,76.851S30.436,196.885,30.436,153.031
		C30.436,109.176,83.998,73.625,150.07,73.625L150.07,73.625z"/>
	<path fill-rule="evenodd" clip-rule="evenodd" fill="#5B3624" d="M150.07,125.334c-23.322,0-42.226,12.548-42.226,28.028
		s18.904,28.026,42.226,28.026c23.32,0,42.227-12.547,42.227-28.026S173.391,125.334,150.07,125.334z M150.07,73.857
		c65.875,0,119.276,35.445,119.276,79.168c0,43.723-53.401,76.575-119.276,76.575S30.794,196.748,30.794,153.025
		C30.794,109.302,84.195,73.857,150.07,73.857L150.07,73.857z"/>
	<path fill-rule="evenodd" clip-rule="evenodd" fill="#5B3624" d="M150.07,125.267c-23.378,0-42.328,12.578-42.328,28.095
		c0,15.517,18.95,28.095,42.328,28.095c23.377,0,42.329-12.578,42.329-28.095C192.399,137.845,173.447,125.267,150.07,125.267z
		 M150.07,74.09c65.677,0,118.918,35.338,118.918,78.932c0,43.591-53.241,76.299-118.918,76.299
		c-65.678,0-118.919-32.708-118.919-76.299C31.151,109.428,84.393,74.09,150.07,74.09L150.07,74.09z"/>
	<path fill-rule="evenodd" clip-rule="evenodd" fill="#5C3624" d="M150.07,125.199c-23.435,0-42.431,12.608-42.431,28.163
		c0,15.554,18.996,28.163,42.431,28.163c23.434,0,42.431-12.609,42.431-28.163C192.501,137.808,173.504,125.199,150.07,125.199z
		 M150.07,74.322c65.479,0,118.561,35.232,118.561,78.693s-53.082,76.023-118.561,76.023c-65.479,0-118.562-32.562-118.562-76.023
		S84.591,74.322,150.07,74.322L150.07,74.322z"/>
	<path fill-rule="evenodd" clip-rule="evenodd" fill="#5D3724" d="M150.07,125.131c-23.491,0-42.533,12.639-42.533,28.231
		s19.042,28.23,42.533,28.23c23.49,0,42.533-12.639,42.533-28.23S173.561,125.131,150.07,125.131z M150.07,74.555
		c65.281,0,118.203,35.126,118.203,78.456c0,43.329-52.922,75.748-118.203,75.748c-65.282,0-118.203-32.419-118.203-75.748
		C31.867,109.681,84.789,74.555,150.07,74.555L150.07,74.555z"/>
	<path fill-rule="evenodd" clip-rule="evenodd" fill="#5E3724" d="M150.07,125.063c-23.548,0-42.635,12.669-42.635,28.299
		c0,15.629,19.087,28.298,42.635,28.298c23.547,0,42.635-12.669,42.635-28.298C192.705,137.732,173.617,125.063,150.07,125.063z
		 M150.07,74.787c65.084,0,117.845,35.021,117.845,78.219s-52.761,75.473-117.845,75.473S32.225,196.204,32.225,153.006
		S84.986,74.787,150.07,74.787L150.07,74.787z"/>
	<path fill-rule="evenodd" clip-rule="evenodd" fill="#5E3725" d="M150.07,124.995c-23.604,0-42.737,12.7-42.737,28.367
		s19.134,28.366,42.737,28.366c23.603,0,42.738-12.699,42.738-28.366S173.673,124.995,150.07,124.995z M150.07,75.02
		c64.886,0,117.486,34.914,117.486,77.981s-52.601,75.196-117.486,75.196c-64.886,0-117.487-32.129-117.487-75.196
		S85.184,75.02,150.07,75.02L150.07,75.02z"/>
	<path fill-rule="evenodd" clip-rule="evenodd" fill="#5F3825" d="M150.07,124.928c-23.661,0-42.84,12.73-42.84,28.435
		s19.179,28.435,42.84,28.435c23.659,0,42.84-12.73,42.84-28.435S173.729,124.928,150.07,124.928z M150.07,75.252
		c64.688,0,117.129,34.807,117.129,77.744c0,42.936-52.44,74.921-117.129,74.921c-64.689,0-117.129-31.985-117.129-74.921
		C32.941,110.06,85.381,75.252,150.07,75.252L150.07,75.252z"/>
	<path fill-rule="evenodd" clip-rule="evenodd" fill="#603825" d="M150.07,124.859c-23.717,0-42.942,12.761-42.942,28.503
		c0,15.741,19.225,28.502,42.942,28.502c23.716,0,42.941-12.761,42.941-28.502C193.012,137.62,173.786,124.859,150.07,124.859z
		 M150.07,75.485c64.491,0,116.771,34.701,116.771,77.506c0,42.804-52.28,74.645-116.771,74.645S33.299,195.795,33.299,152.991
		C33.299,110.186,85.579,75.485,150.07,75.485L150.07,75.485z"/>
	<path fill-rule="evenodd" clip-rule="evenodd" fill="#603925" d="M150.07,124.792c-23.773,0-43.044,12.791-43.044,28.57
		s19.271,28.569,43.044,28.569c23.772,0,43.044-12.79,43.044-28.569S173.843,124.792,150.07,124.792z M150.07,75.718
		c64.293,0,116.413,34.594,116.413,77.269c0,42.673-52.12,74.369-116.413,74.369c-64.293,0-116.413-31.696-116.413-74.369
		C33.657,110.312,85.777,75.718,150.07,75.718L150.07,75.718z"/>
	<path fill-rule="evenodd" clip-rule="evenodd" fill="#613925" d="M150.07,124.724c-23.83,0-43.146,12.821-43.146,28.639
		c0,15.816,19.316,28.638,43.146,28.638c23.828,0,43.146-12.821,43.146-28.638C193.217,137.545,173.898,124.724,150.07,124.724z
		 M150.07,75.951c64.096,0,116.055,34.488,116.055,77.031c0,42.542-51.959,74.094-116.055,74.094S34.015,195.523,34.015,152.981
		C34.015,110.438,85.975,75.951,150.07,75.951L150.07,75.951z"/>
	<path fill-rule="evenodd" clip-rule="evenodd" fill="#623926" d="M150.07,124.656c-23.886,0-43.249,12.852-43.249,28.706
		c0,15.854,19.362,28.706,43.249,28.706c23.885,0,43.249-12.853,43.249-28.706C193.319,137.508,173.955,124.656,150.07,124.656z
		 M150.07,76.184c63.898,0,115.697,34.381,115.697,76.793c0,42.41-51.799,73.817-115.697,73.817
		c-63.898,0-115.698-31.407-115.698-73.817C34.373,110.564,86.172,76.184,150.07,76.184L150.07,76.184z"/>
	<path fill-rule="evenodd" clip-rule="evenodd" fill="#633A26" d="M150.07,124.588c-23.942,0-43.351,12.882-43.351,28.774
		c0,15.892,19.408,28.773,43.351,28.773c23.941,0,43.351-12.882,43.351-28.773C193.421,137.47,174.012,124.588,150.07,124.588z
		 M150.07,76.416c63.7,0,115.339,34.274,115.339,76.556c0,42.279-51.639,73.542-115.339,73.542
		c-63.701,0-115.34-31.263-115.34-73.542C34.73,110.69,86.37,76.416,150.07,76.416L150.07,76.416z"/>
	<path fill-rule="evenodd" clip-rule="evenodd" fill="#633A26" d="M150.07,124.521c-24,0-43.453,12.912-43.453,28.842
		c0,15.929,19.454,28.841,43.453,28.841c23.998,0,43.453-12.912,43.453-28.841C193.523,137.433,174.068,124.521,150.07,124.521z
		 M150.07,76.648c63.503,0,114.981,34.169,114.981,76.318c0,42.148-51.479,73.267-114.981,73.267S35.088,195.115,35.088,152.967
		C35.088,110.817,86.567,76.648,150.07,76.648L150.07,76.648z"/>
	<path fill-rule="evenodd" clip-rule="evenodd" fill="#643A26" d="M150.07,124.453c-24.056,0-43.555,12.942-43.555,28.91
		c0,15.966,19.5,28.909,43.555,28.909c24.055,0,43.556-12.943,43.556-28.909C193.626,137.395,174.125,124.453,150.07,124.453z
		 M150.07,76.881c63.305,0,114.623,34.062,114.623,76.08s-51.318,72.991-114.623,72.991c-63.305,0-114.624-30.974-114.624-72.991
		S86.765,76.881,150.07,76.881L150.07,76.881z"/>
	<path fill-rule="evenodd" clip-rule="evenodd" fill="#653B26" d="M150.07,124.385c-24.112,0-43.657,12.973-43.657,28.978
		c0,16.004,19.545,28.977,43.657,28.977c24.111,0,43.658-12.973,43.658-28.977C193.729,137.358,174.182,124.385,150.07,124.385z
		 M150.07,77.113c63.107,0,114.266,33.957,114.266,75.843c0,41.887-51.158,72.716-114.266,72.716S35.805,194.843,35.805,152.956
		C35.805,111.07,86.963,77.113,150.07,77.113L150.07,77.113z"/>
	<path fill-rule="evenodd" clip-rule="evenodd" fill="#663B26" d="M150.07,124.317c-24.169,0-43.76,13.003-43.76,29.045
		s19.591,29.045,43.76,29.045c24.168,0,43.76-13.003,43.76-29.045S174.238,124.317,150.07,124.317z M150.07,77.346
		c62.91,0,113.907,33.85,113.907,75.605c0,41.755-50.997,72.439-113.907,72.439c-62.91,0-113.908-30.685-113.908-72.439
		C36.162,111.196,87.161,77.346,150.07,77.346L150.07,77.346z"/>
	<path fill-rule="evenodd" clip-rule="evenodd" fill="#663C27" d="M150.07,124.249c-24.225,0-43.862,13.034-43.862,29.113
		c0,16.079,19.637,29.112,43.862,29.112c24.224,0,43.862-13.033,43.862-29.112C193.933,137.283,174.294,124.249,150.07,124.249z
		 M150.07,77.579c62.712,0,113.55,33.744,113.55,75.368s-50.838,72.164-113.55,72.164c-62.712,0-113.55-30.54-113.55-72.164
		S87.358,77.579,150.07,77.579L150.07,77.579z"/>
	<path fill-rule="evenodd" clip-rule="evenodd" fill="#673C27" d="M150.07,124.181c-24.281,0-43.964,13.065-43.964,29.182
		c0,16.116,19.683,29.181,43.964,29.181c24.28,0,43.965-13.064,43.965-29.181C194.035,137.246,174.351,124.181,150.07,124.181z
		 M150.07,77.812c62.515,0,113.191,33.637,113.191,75.13S212.585,224.83,150.07,224.83S36.878,194.435,36.878,152.941
		S87.556,77.812,150.07,77.812L150.07,77.812z"/>
	<path fill-rule="evenodd" clip-rule="evenodd" fill="#683C27" d="M150.07,124.113c-24.338,0-44.066,13.095-44.066,29.249
		s19.729,29.249,44.066,29.249c24.337,0,44.066-13.095,44.066-29.249S174.407,124.113,150.07,124.113z M150.07,78.044
		c62.316,0,112.834,33.53,112.834,74.893c0,41.361-50.518,71.612-112.834,71.612S37.236,194.298,37.236,152.937
		C37.236,111.574,87.754,78.044,150.07,78.044L150.07,78.044z"/>
	<path fill-rule="evenodd" clip-rule="evenodd" fill="#693D27" d="M150.07,124.045c-24.395,0-44.169,13.125-44.169,29.317
		c0,16.191,19.774,29.315,44.169,29.315c24.394,0,44.169-13.124,44.169-29.315C194.239,137.17,174.464,124.045,150.07,124.045z
		 M150.07,78.277c62.119,0,112.476,33.424,112.476,74.655s-50.356,71.336-112.476,71.336S37.594,194.162,37.594,152.932
		S87.951,78.277,150.07,78.277L150.07,78.277z"/>
	<path fill-rule="evenodd" clip-rule="evenodd" fill="#6A3D27" d="M150.07,123.978c-24.451,0-44.271,13.155-44.271,29.385
		s19.82,29.384,44.271,29.384c24.449,0,44.271-13.154,44.271-29.384S174.52,123.978,150.07,123.978z M150.07,78.51
		c61.922,0,112.118,33.317,112.118,74.417c0,41.099-50.196,71.061-112.118,71.061c-61.921,0-112.119-29.962-112.119-71.061
		C37.952,111.827,88.149,78.51,150.07,78.51L150.07,78.51z"/>
	<path fill-rule="evenodd" clip-rule="evenodd" fill="#6A3E27" d="M150.07,123.91c-24.508,0-44.373,13.186-44.373,29.453
		s19.865,29.452,44.373,29.452c24.506,0,44.373-13.186,44.373-29.452S174.576,123.91,150.07,123.91z M150.07,78.742
		c61.724,0,111.76,33.211,111.76,74.18c0,40.968-50.036,70.785-111.76,70.785S38.31,193.89,38.31,152.922
		C38.31,111.954,88.347,78.742,150.07,78.742L150.07,78.742z"/>
	<path fill-rule="evenodd" clip-rule="evenodd" fill="#6B3E27" d="M150.07,123.842c-24.564,0-44.476,13.216-44.476,29.521
		c0,16.304,19.912,29.52,44.476,29.52c24.562,0,44.476-13.216,44.476-29.52C194.546,137.058,174.633,123.842,150.07,123.842z
		 M150.07,78.975c61.525,0,111.402,33.105,111.402,73.942s-49.877,70.51-111.402,70.51c-61.526,0-111.402-29.673-111.402-70.51
		S88.544,78.975,150.07,78.975L150.07,78.975z"/>
	<path fill-rule="evenodd" clip-rule="evenodd" fill="#6C3E28" d="M150.07,123.774c-24.62,0-44.578,13.247-44.578,29.588
		c0,16.341,19.958,29.588,44.578,29.588c24.619,0,44.578-13.247,44.578-29.588C194.648,137.021,174.689,123.774,150.07,123.774z
		 M150.07,79.207c61.328,0,111.044,32.999,111.044,73.705c0,40.705-49.716,70.233-111.044,70.233S39.025,193.617,39.025,152.912
		C39.025,112.206,88.742,79.207,150.07,79.207L150.07,79.207z"/>
	<path fill-rule="evenodd" clip-rule="evenodd" fill="#6D3F28" d="M150.07,123.706c-24.677,0-44.68,13.277-44.68,29.656
		c0,16.379,20.003,29.655,44.68,29.655c24.676,0,44.68-13.276,44.68-29.655C194.75,136.983,174.746,123.706,150.07,123.706z
		 M150.07,79.439c61.131,0,110.687,32.893,110.687,73.467c0,40.575-49.556,69.959-110.687,69.959S39.384,193.481,39.384,152.906
		C39.384,112.332,88.939,79.439,150.07,79.439L150.07,79.439z"/>
	<path fill-rule="evenodd" clip-rule="evenodd" fill="#6D3F28" d="M150.07,123.639c-24.733,0-44.782,13.307-44.782,29.724
		c0,16.416,20.049,29.724,44.782,29.724c24.732,0,44.782-13.308,44.782-29.724C194.853,136.946,174.803,123.639,150.07,123.639z
		 M150.07,79.672c60.933,0,110.328,32.786,110.328,73.23c0,40.442-49.396,69.682-110.328,69.682S39.741,193.345,39.741,152.902
		C39.741,112.458,89.138,79.672,150.07,79.672L150.07,79.672z"/>
	<path fill-rule="evenodd" clip-rule="evenodd" fill="#6E3F28" d="M150.07,123.57c-24.79,0-44.885,13.338-44.885,29.792
		s20.095,29.792,44.885,29.792c24.789,0,44.885-13.338,44.885-29.792S174.859,123.57,150.07,123.57z M150.07,79.905
		c60.735,0,109.971,32.68,109.971,72.992c0,40.312-49.235,69.407-109.971,69.407S40.1,193.209,40.1,152.896
		C40.1,112.585,89.335,79.905,150.07,79.905L150.07,79.905z"/>
	<path fill-rule="evenodd" clip-rule="evenodd" fill="#6F4028" d="M150.07,123.503c-24.847,0-44.987,13.368-44.987,29.859
		c0,16.491,20.14,29.859,44.987,29.859c24.846,0,44.986-13.368,44.986-29.859C195.057,136.871,174.916,123.503,150.07,123.503z
		 M150.07,80.138c60.537,0,109.612,32.573,109.612,72.755c0,40.18-49.075,69.131-109.612,69.131
		c-60.538,0-109.613-28.951-109.613-69.131C40.457,112.711,89.532,80.138,150.07,80.138L150.07,80.138z"/>
	<path fill-rule="evenodd" clip-rule="evenodd" fill="#704028" d="M150.07,123.435c-24.903,0-45.089,13.398-45.089,29.928
		c0,16.528,20.186,29.927,45.089,29.927c24.901,0,45.089-13.398,45.089-29.927C195.159,136.833,174.972,123.435,150.07,123.435z
		 M150.07,80.37c60.34,0,109.255,32.468,109.255,72.517c0,40.05-48.915,68.855-109.255,68.855S40.815,192.937,40.815,152.887
		C40.815,112.838,89.73,80.37,150.07,80.37L150.07,80.37z"/>
	<path fill-rule="evenodd" clip-rule="evenodd" fill="#714129" d="M150.07,123.367c-24.959,0-45.191,13.429-45.191,29.996
		s20.232,29.995,45.191,29.995c24.958,0,45.191-13.429,45.191-29.995S175.028,123.367,150.07,123.367z M150.07,80.603
		c60.143,0,108.896,32.361,108.896,72.28c0,39.918-48.754,68.578-108.896,68.578s-108.897-28.66-108.897-68.578
		C41.173,112.964,89.928,80.603,150.07,80.603L150.07,80.603z"/>
	<path fill-rule="evenodd" clip-rule="evenodd" fill="#714129" d="M150.07,123.299c-25.016,0-45.293,13.459-45.293,30.063
		c0,16.604,20.278,30.062,45.293,30.062c25.015,0,45.294-13.459,45.294-30.062C195.364,136.758,175.085,123.299,150.07,123.299z
		 M150.07,80.836c59.944,0,108.538,32.254,108.538,72.041s-48.594,68.304-108.538,68.304S41.531,192.664,41.531,152.877
		S90.126,80.836,150.07,80.836L150.07,80.836z"/>
	<path fill-rule="evenodd" clip-rule="evenodd" fill="#724129" d="M150.07,123.231c-25.072,0-45.396,13.49-45.396,30.131
		s20.323,30.131,45.396,30.131c25.071,0,45.396-13.489,45.396-30.131S175.142,123.231,150.07,123.231z M150.07,81.068
		c59.747,0,108.181,32.148,108.181,71.804c0,39.656-48.434,68.028-108.181,68.028S41.889,192.528,41.889,152.872
		C41.889,113.216,90.323,81.068,150.07,81.068L150.07,81.068z"/>
	<path fill-rule="evenodd" clip-rule="evenodd" fill="#734229" d="M150.07,123.163c-25.128,0-45.498,13.521-45.498,30.199
		s20.37,30.198,45.498,30.198c25.128,0,45.498-13.52,45.498-30.198S175.198,123.163,150.07,123.163z M150.07,81.301
		c59.549,0,107.823,32.042,107.823,71.566c0,39.525-48.274,67.753-107.823,67.753c-59.549,0-107.823-28.228-107.823-67.753
		C42.247,113.342,90.521,81.301,150.07,81.301L150.07,81.301z"/>
	<path fill-rule="evenodd" clip-rule="evenodd" fill="#744229" d="M150.07,123.095c-25.185,0-45.6,13.551-45.6,30.267
		c0,16.716,20.415,30.267,45.6,30.267c25.184,0,45.601-13.551,45.601-30.267C195.671,136.646,175.254,123.095,150.07,123.095z
		 M150.07,81.533c59.352,0,107.465,31.936,107.465,71.329s-48.113,67.477-107.465,67.477S42.604,192.256,42.604,152.862
		S90.719,81.533,150.07,81.533L150.07,81.533z"/>
	<path fill-rule="evenodd" clip-rule="evenodd" fill="#754229" d="M150.07,123.027c-25.242,0-45.702,13.581-45.702,30.335
		s20.46,30.334,45.702,30.334c25.24,0,45.703-13.58,45.703-30.334S175.311,123.027,150.07,123.027z M150.07,81.766
		c59.154,0,107.106,31.829,107.106,71.091s-47.952,67.201-107.106,67.201c-59.154,0-107.107-27.938-107.107-67.201
		S90.917,81.766,150.07,81.766L150.07,81.766z"/>
	<path fill-rule="evenodd" clip-rule="evenodd" fill="#754329" d="M150.07,122.96c-25.298,0-45.805,13.611-45.805,30.402
		c0,16.791,20.507,30.402,45.805,30.402c25.297,0,45.805-13.611,45.805-30.402C195.875,136.571,175.367,122.96,150.07,122.96z
		 M150.07,81.999c58.956,0,106.749,31.723,106.749,70.854s-47.793,66.925-106.749,66.925S43.32,191.983,43.32,152.853
		S91.114,81.999,150.07,81.999L150.07,81.999z"/>
	<path fill-rule="evenodd" clip-rule="evenodd" fill="#76432A" d="M150.07,122.892c-25.354,0-45.907,13.642-45.907,30.471
		c0,16.828,20.552,30.47,45.907,30.47c25.354,0,45.907-13.642,45.907-30.47C195.978,136.534,175.424,122.892,150.07,122.892z
		 M150.07,82.231c58.758,0,106.391,31.617,106.391,70.617s-47.633,66.649-106.391,66.649c-58.759,0-106.392-27.649-106.392-66.649
		S91.312,82.231,150.07,82.231L150.07,82.231z"/>
	<path fill-rule="evenodd" clip-rule="evenodd" fill="#77442A" d="M150.07,122.824c-25.411,0-46.009,13.672-46.009,30.538
		S124.659,183.9,150.07,183.9c25.41,0,46.009-13.672,46.009-30.538S175.48,122.824,150.07,122.824z M150.07,82.464
		c58.561,0,106.033,31.51,106.033,70.379c0,38.868-47.473,66.374-106.033,66.374c-58.561,0-106.034-27.506-106.034-66.374
		C44.037,113.974,91.509,82.464,150.07,82.464L150.07,82.464z"/>
	<path fill-rule="evenodd" clip-rule="evenodd" fill="#78442A" d="M150.07,122.756c-25.467,0-46.111,13.702-46.111,30.606
		c0,16.903,20.644,30.605,46.111,30.605c25.467,0,46.111-13.702,46.111-30.605C196.182,136.458,175.537,122.756,150.07,122.756z
		 M150.07,82.696c58.363,0,105.675,31.404,105.675,70.142c0,38.737-47.312,66.098-105.675,66.098s-105.676-27.36-105.676-66.098
		C44.395,114.1,91.707,82.696,150.07,82.696L150.07,82.696z"/>
	<path fill-rule="evenodd" clip-rule="evenodd" fill="#79442A" d="M150.07,122.688c-25.524,0-46.214,13.732-46.214,30.674
		c0,16.94,20.69,30.674,46.214,30.674c25.522,0,46.214-13.733,46.214-30.674C196.284,136.421,175.593,122.688,150.07,122.688z
		 M150.07,82.929c58.165,0,105.317,31.297,105.317,69.904c0,38.606-47.152,65.822-105.317,65.822
		c-58.166,0-105.318-27.216-105.318-65.822C44.752,114.226,91.905,82.929,150.07,82.929L150.07,82.929z"/>
	<path fill-rule="evenodd" clip-rule="evenodd" fill="#7A452A" d="M150.07,122.62c-25.58,0-46.316,13.764-46.316,30.742
		s20.736,30.741,46.316,30.741c25.579,0,46.315-13.763,46.315-30.741S175.649,122.62,150.07,122.62z M150.07,83.162
		c57.968,0,104.959,31.19,104.959,69.666c0,38.475-46.991,65.546-104.959,65.546S45.11,191.303,45.11,152.828
		C45.11,114.353,92.103,83.162,150.07,83.162L150.07,83.162z"/>
	<path fill-rule="evenodd" clip-rule="evenodd" fill="#7A452A" d="M150.07,122.552c-25.637,0-46.418,13.793-46.418,30.81
		c0,17.016,20.781,30.81,46.418,30.81c25.636,0,46.418-13.794,46.418-30.81C196.488,136.346,175.706,122.552,150.07,122.552z
		 M150.07,83.395c57.771,0,104.602,31.084,104.602,69.428s-46.831,65.271-104.602,65.271c-57.77,0-104.603-26.928-104.603-65.271
		S92.3,83.395,150.07,83.395L150.07,83.395z"/>
	<path fill-rule="evenodd" clip-rule="evenodd" fill="#7B462A" d="M150.07,122.485c-25.693,0-46.521,13.824-46.521,30.877
		s20.827,30.877,46.521,30.877c25.692,0,46.521-13.823,46.521-30.877S175.763,122.485,150.07,122.485z M150.07,83.627
		c57.572,0,104.243,30.979,104.243,69.191c0,38.212-46.671,64.995-104.243,64.995c-57.573,0-104.244-26.783-104.244-64.995
		C45.826,114.605,92.498,83.627,150.07,83.627L150.07,83.627z"/>
	<path fill-rule="evenodd" clip-rule="evenodd" fill="#7C462A" d="M150.07,122.417c-25.75,0-46.623,13.854-46.623,30.946
		c0,17.091,20.873,30.945,46.623,30.945c25.749,0,46.623-13.854,46.623-30.945C196.693,136.271,175.819,122.417,150.07,122.417z
		 M150.07,83.859c57.375,0,103.886,30.872,103.886,68.953c0,38.082-46.511,64.72-103.886,64.72s-103.886-26.638-103.886-64.72
		C46.184,114.731,92.695,83.859,150.07,83.859L150.07,83.859z"/>
	<path fill-rule="evenodd" clip-rule="evenodd" fill="#7D462B" d="M150.07,122.349c-25.806,0-46.725,13.884-46.725,31.013
		c0,17.128,20.918,31.013,46.725,31.013c25.806,0,46.725-13.885,46.725-31.013C196.795,136.233,175.876,122.349,150.07,122.349z
		 M150.07,84.092c57.177,0,103.527,30.766,103.527,68.716c0,37.949-46.351,64.443-103.527,64.443
		c-57.177,0-103.529-26.494-103.529-64.443C46.542,114.858,92.893,84.092,150.07,84.092L150.07,84.092z"/>
	<path fill-rule="evenodd" clip-rule="evenodd" fill="#7E472B" d="M150.07,122.281c-25.863,0-46.827,13.915-46.827,31.081
		s20.964,31.081,46.827,31.081c25.861,0,46.827-13.915,46.827-31.081S175.932,122.281,150.07,122.281z M150.07,84.325
		c56.979,0,103.17,30.659,103.17,68.478c0,37.819-46.19,64.168-103.17,64.168S46.9,190.622,46.9,152.803
		C46.9,114.984,93.091,84.325,150.07,84.325L150.07,84.325z"/>
	<path fill-rule="evenodd" clip-rule="evenodd" fill="#7F472B" d="M150.07,122.213c-25.919,0-46.929,13.945-46.929,31.149
		c0,17.203,21.01,31.148,46.929,31.148c25.918,0,46.93-13.945,46.93-31.148C197,136.158,175.988,122.213,150.07,122.213z
		 M150.07,84.558c56.782,0,102.812,30.552,102.812,68.24c0,37.688-46.029,63.893-102.812,63.893
		c-56.782,0-102.812-26.204-102.812-63.893C47.258,115.11,93.289,84.558,150.07,84.558L150.07,84.558z"/>
	<path fill-rule="evenodd" clip-rule="evenodd" fill="#80472B" d="M150.07,122.146c-25.976,0-47.031,13.976-47.031,31.217
		c0,17.24,21.056,31.217,47.031,31.217c25.975,0,47.031-13.977,47.031-31.217C197.102,136.121,176.045,122.146,150.07,122.146z
		 M150.07,84.79c56.584,0,102.454,30.446,102.454,68.003s-45.87,63.617-102.454,63.617S47.616,190.35,47.616,152.793
		S93.486,84.79,150.07,84.79L150.07,84.79z"/>
	<path fill-rule="evenodd" clip-rule="evenodd" fill="#80482B" d="M150.07,122.077c-26.032,0-47.134,14.006-47.134,31.285
		c0,17.278,21.102,31.284,47.134,31.284c26.031,0,47.134-14.006,47.134-31.284C197.204,136.083,176.102,122.077,150.07,122.077z
		 M150.07,85.022c56.386,0,102.096,30.34,102.096,67.766c0,37.425-45.71,63.341-102.096,63.341
		c-56.387,0-102.097-25.916-102.097-63.341C47.974,115.362,93.684,85.022,150.07,85.022L150.07,85.022z"/>
	<path fill-rule="evenodd" clip-rule="evenodd" fill="#81482B" d="M150.07,122.01c-26.088,0-47.236,14.036-47.236,31.353
		s21.148,31.353,47.236,31.353c26.088,0,47.236-14.036,47.236-31.353S176.158,122.01,150.07,122.01z M150.07,85.255
		c56.188,0,101.738,30.234,101.738,67.528s-45.55,63.065-101.738,63.065S48.331,190.077,48.331,152.783S93.882,85.255,150.07,85.255
		L150.07,85.255z"/>
	<path fill-rule="evenodd" clip-rule="evenodd" fill="#82492B" d="M150.07,121.941c-26.145,0-47.338,14.067-47.338,31.421
		c0,17.354,21.193,31.42,47.338,31.42c26.144,0,47.339-14.066,47.339-31.42C197.409,136.008,176.214,121.941,150.07,121.941z
		 M150.07,85.488c55.991,0,101.38,30.127,101.38,67.29s-45.389,62.79-101.38,62.79s-101.381-25.627-101.381-62.79
		S94.079,85.488,150.07,85.488L150.07,85.488z"/>
	<path fill-rule="evenodd" clip-rule="evenodd" fill="#83492B" d="M150.07,121.874c-26.202,0-47.44,14.097-47.44,31.488
		c0,17.391,21.239,31.488,47.44,31.488c26.2,0,47.44-14.098,47.44-31.488C197.511,135.971,176.271,121.874,150.07,121.874z
		 M150.07,85.721c55.793,0,101.022,30.021,101.022,67.053c0,37.031-45.229,62.514-101.022,62.514S49.047,189.805,49.047,152.773
		C49.047,115.741,94.277,85.721,150.07,85.721L150.07,85.721z"/>
	<path fill-rule="evenodd" clip-rule="evenodd" fill="#84492C" d="M150.07,121.806c-26.258,0-47.543,14.127-47.543,31.556
		s21.285,31.556,47.543,31.556c26.257,0,47.543-14.127,47.543-31.556S176.327,121.806,150.07,121.806z M150.07,85.953
		c55.596,0,100.664,29.915,100.664,66.815c0,36.9-45.068,62.238-100.664,62.238S49.405,189.669,49.405,152.769
		C49.405,115.868,94.475,85.953,150.07,85.953L150.07,85.953z"/>
	<path fill-rule="evenodd" clip-rule="evenodd" fill="#854A2C" d="M150.07,121.738c-26.314,0-47.645,14.158-47.645,31.625
		c0,17.466,21.331,31.623,47.645,31.623c26.313,0,47.645-14.157,47.645-31.623C197.715,135.896,176.384,121.738,150.07,121.738z
		 M150.07,86.186c55.398,0,100.307,29.808,100.307,66.578c0,36.769-44.908,61.962-100.307,61.962
		c-55.398,0-100.307-25.193-100.307-61.962C49.763,115.994,94.672,86.186,150.07,86.186L150.07,86.186z"/>
	<path fill-rule="evenodd" clip-rule="evenodd" fill="#864A2C" d="M150.07,121.67c-26.371,0-47.747,14.188-47.747,31.692
		c0,17.503,21.376,31.691,47.747,31.691c26.37,0,47.747-14.188,47.747-31.691C197.817,135.858,176.44,121.67,150.07,121.67z
		 M150.07,86.418c55.2,0,99.948,29.702,99.948,66.34c0,36.638-44.748,61.687-99.948,61.687s-99.949-25.049-99.949-61.687
		C50.121,116.12,94.87,86.418,150.07,86.418L150.07,86.418z"/>
	<path fill-rule="evenodd" clip-rule="evenodd" fill="#874A2C" d="M150.07,121.603c-26.427,0-47.849,14.219-47.849,31.76
		s21.422,31.759,47.849,31.759c26.427,0,47.85-14.218,47.85-31.759S176.497,121.603,150.07,121.603z M150.07,86.651
		c55.003,0,99.591,29.596,99.591,66.102c0,36.508-44.588,61.412-99.591,61.412c-55.002,0-99.591-24.904-99.591-61.412
		C50.479,116.247,95.068,86.651,150.07,86.651L150.07,86.651z"/>
	<path fill-rule="evenodd" clip-rule="evenodd" fill="#874B2C" d="M150.07,121.535c-26.483,0-47.952,14.249-47.952,31.828
		c0,17.578,21.468,31.827,47.952,31.827c26.482,0,47.951-14.249,47.951-31.827C198.021,135.784,176.553,121.535,150.07,121.535z
		 M150.07,86.884c54.805,0,99.232,29.489,99.232,65.865c0,36.375-44.428,61.135-99.232,61.135s-99.233-24.76-99.233-61.135
		C50.837,116.373,95.266,86.884,150.07,86.884L150.07,86.884z"/>
	<path fill-rule="evenodd" clip-rule="evenodd" fill="#884B2C" d="M150.07,121.467c-26.541,0-48.054,14.279-48.054,31.896
		c0,17.615,21.513,31.896,48.054,31.896c26.539,0,48.054-14.28,48.054-31.896C198.124,135.746,176.609,121.467,150.07,121.467z
		 M150.07,87.116c54.607,0,98.875,29.383,98.875,65.627c0,36.245-44.268,60.86-98.875,60.86s-98.875-24.615-98.875-60.86
		C51.195,116.499,95.463,87.116,150.07,87.116L150.07,87.116z"/>
	<path fill-rule="evenodd" clip-rule="evenodd" fill="#894C2C" d="M150.07,121.398c-26.597,0-48.156,14.31-48.156,31.964
		c0,17.653,21.559,31.963,48.156,31.963c26.596,0,48.156-14.31,48.156-31.963C198.227,135.708,176.666,121.398,150.07,121.398z
		 M150.07,87.349c54.41,0,98.517,29.276,98.517,65.39s-44.106,60.584-98.517,60.584c-54.41,0-98.518-24.471-98.518-60.584
		S95.661,87.349,150.07,87.349L150.07,87.349z"/>
	<path fill-rule="evenodd" clip-rule="evenodd" fill="#8A4C2C" d="M150.07,121.331c-26.653,0-48.259,14.34-48.259,32.031
		c0,17.69,21.606,32.031,48.259,32.031c26.652,0,48.259-14.341,48.259-32.031C198.329,135.671,176.723,121.331,150.07,121.331z
		 M150.07,87.582c54.212,0,98.158,29.17,98.158,65.152c0,35.982-43.946,60.309-98.158,60.309s-98.16-24.326-98.16-60.309
		C51.911,116.751,95.858,87.582,150.07,87.582L150.07,87.582z"/>
	<path fill-rule="evenodd" clip-rule="evenodd" fill="#8B4C2C" d="M150.07,121.263c-26.71,0-48.361,14.371-48.361,32.099
		s21.651,32.099,48.361,32.099c26.709,0,48.36-14.37,48.36-32.099S176.779,121.263,150.07,121.263z M150.07,87.814
		c54.015,0,97.801,29.063,97.801,64.914c0,35.852-43.786,60.033-97.801,60.033c-54.014,0-97.802-24.182-97.802-60.033
		C52.268,116.877,96.056,87.814,150.07,87.814L150.07,87.814z"/>
	<path fill-rule="evenodd" clip-rule="evenodd" fill="#8C4D2D" d="M150.07,121.195c-26.766,0-48.463,14.401-48.463,32.167
		c0,17.766,21.697,32.166,48.463,32.166c26.766,0,48.463-14.4,48.463-32.166C198.533,135.596,176.836,121.195,150.07,121.195z
		 M150.07,88.047c53.816,0,97.443,28.958,97.443,64.677c0,35.72-43.627,59.757-97.443,59.757s-97.444-24.037-97.444-59.757
		C52.626,117.004,96.254,88.047,150.07,88.047L150.07,88.047z"/>
	<path fill-rule="evenodd" clip-rule="evenodd" fill="#8D4D2D" d="M150.07,121.127c-26.822,0-48.565,14.431-48.565,32.235
		c0,17.803,21.743,32.234,48.565,32.234c26.821,0,48.565-14.432,48.565-32.234C198.636,135.559,176.892,121.127,150.07,121.127z
		 M150.07,88.279c53.619,0,97.085,28.851,97.085,64.439c0,35.589-43.466,59.481-97.085,59.481s-97.086-23.893-97.086-59.481
		C52.984,117.13,96.451,88.279,150.07,88.279L150.07,88.279z"/>
	<path fill-rule="evenodd" clip-rule="evenodd" fill="#8E4D2D" d="M150.07,121.06c-26.879,0-48.667,14.462-48.667,32.303
		s21.788,32.302,48.667,32.302c26.878,0,48.667-14.461,48.667-32.302S176.948,121.06,150.07,121.06z M150.07,88.512
		c53.422,0,96.728,28.745,96.728,64.202s-43.306,59.205-96.728,59.205c-53.421,0-96.728-23.748-96.728-59.205
		S96.649,88.512,150.07,88.512L150.07,88.512z"/>
	<path fill-rule="evenodd" clip-rule="evenodd" fill="#8E4E2D" d="M150.07,120.992c-26.936,0-48.77,14.492-48.77,32.371
		c0,17.878,21.834,32.37,48.77,32.37c26.935,0,48.77-14.492,48.77-32.37C198.84,135.484,177.005,120.992,150.07,120.992z
		 M150.07,88.745c53.224,0,96.369,28.638,96.369,63.964s-43.146,58.93-96.369,58.93s-96.37-23.604-96.37-58.93
		S96.847,88.745,150.07,88.745L150.07,88.745z"/>
</g>
<path fill-rule="evenodd" clip-rule="evenodd" fill="#FAD2E4" d="M151.701,52.422c81.92,0,139.111,33.627,144.032,95.917
	c0.336,4.248-0.977,8.028-3.867,11.158c-2.892,3.13-6.56,4.735-10.822,4.735c-3.771,0-7.541,0-11.312,0
	c-15.202,14.422-21.828,0-32.741,0c-11.305,0-12.083-14.812-33.91,0c-2.454,0-4.831,1.188-7.365,2.146
	c-3.119,1.178-6.353,0.729-9.032-1.256s-4.053-4.947-3.835-8.273c0.058-0.894,0.088-2.023,0.088-3.474
	c0-8.148-13.092-21.875-32.865-21.875c-19.775,0-32.445,12.467-32.445,20.616c0,2.009,0.057,3.404,0.168,4.406
	c0.321,2.902-0.567,5.529-2.587,7.638c-3.734,3.9-7.731,9.101-17.756,0.071c-9.354-15.202-19.488,0-29.233,0
	c-14.291,0-29.362,15.201-42.874,0c-2.083,0-4.166,0-6.248,0c-4.262,0-7.93-1.605-10.821-4.735
	c-2.892-3.129-4.204-6.911-3.869-11.158C9.328,86.049,69.781,52.422,151.701,52.422z"/>
<path opacity="0.65" fill-rule="evenodd" clip-rule="evenodd" fill="#FEF5F9" d="M151.587,56.569
	c44.165,0,80.599,10.51,104.318,30.628c-23.527-15.87-56.584-24.12-95.71-24.12c-76.189,0-132.414,31.275-136.991,89.207
	c-0.228,2.886,0.363,5.541,1.747,7.897c-2.575-0.61-4.849-1.962-6.757-4.028c-2.689-2.911-3.909-6.428-3.598-10.378
	C19.173,87.844,75.397,56.569,151.587,56.569z"/>
<rect x="97.476" y="95.92" fill-rule="evenodd" clip-rule="evenodd" fill="#20BE60" width="13.438" height="3.106"/>
<rect x="148.188" y="79.742" fill-rule="evenodd" clip-rule="evenodd" fill="#20BE60" width="13.438" height="3.106"/>
<rect x="160.932" y="116.096" transform="matrix(0.7416 -0.6708 0.6708 0.7416 -35.6041 142.8585)" fill-rule="evenodd" clip-rule="evenodd" fill="#C7567F" width="13.438" height="3.105"/>
<rect x="131.136" y="92.669" transform="matrix(-0.9101 -0.4144 0.4144 -0.9101 224.2743 237.0977)" fill-rule="evenodd" clip-rule="evenodd" fill="#20BE60" width="13.437" height="3.106"/>
<rect x="117.503" y="82.514" transform="matrix(-0.9529 0.3032 -0.3032 -0.9529 268.0869 126.509)" fill-rule="evenodd" clip-rule="evenodd" fill="#C7567F" width="13.438" height="3.106"/>
<rect x="68.245" y="111.991" transform="matrix(-0.9529 0.3032 -0.3032 -0.9529 180.8267 199.0108)" fill-rule="evenodd" clip-rule="evenodd" fill="#C7567F" width="13.438" height="3.105"/>
<rect x="93.209" y="124.911" transform="matrix(0.7416 -0.6708 0.6708 0.7416 -59.0162 99.7155)" fill-rule="evenodd" clip-rule="evenodd" fill="#FFBE36" width="13.438" height="3.106"/>
<rect x="43.033" y="95.92" fill-rule="evenodd" clip-rule="evenodd" fill="#20BE60" width="13.438" height="3.106"/>
<rect x="93.746" y="79.742" fill-rule="evenodd" clip-rule="evenodd" fill="#20BE60" width="13.438" height="3.106"/>
<rect x="106.489" y="116.096" transform="matrix(0.7416 -0.6708 0.6708 0.7416 -49.6706 106.3377)" fill-rule="evenodd" clip-rule="evenodd" fill="#FFBE36" width="13.438" height="3.105"/>
<rect x="199.925" y="95.92" fill-rule="evenodd" clip-rule="evenodd" fill="#20BE60" width="13.438" height="3.106"/>
<rect x="233.585" y="92.669" transform="matrix(-0.9101 -0.4144 0.4144 -0.9101 419.9656 279.5469)" fill-rule="evenodd" clip-rule="evenodd" fill="#20BE60" width="13.437" height="3.106"/>
<rect x="219.952" y="82.514" transform="matrix(-0.9529 0.3032 -0.3032 -0.9529 468.1618 95.4448)" fill-rule="evenodd" clip-rule="evenodd" fill="#FFBE36" width="13.438" height="3.106"/>
<rect x="195.659" y="124.911" transform="matrix(0.7416 -0.6708 0.6708 0.7416 -32.5437 168.438)" fill-rule="evenodd" clip-rule="evenodd" fill="#FFBE36" width="13.438" height="3.105"/>
<rect x="196.194" y="79.742" fill-rule="evenodd" clip-rule="evenodd" fill="#20BE60" width="13.438" height="3.106"/>
<rect x="240.343" y="141.662" transform="matrix(0.7416 -0.6708 0.6708 0.7416 -32.2365 202.7337)" fill-rule="evenodd" clip-rule="evenodd" fill="#FFBE36" width="13.438" height="3.105"/>
<rect x="59.596" y="120.88" transform="matrix(-0.9101 -0.4144 0.4144 -0.9101 75.938 261.3389)" fill-rule="evenodd" clip-rule="evenodd" fill="#20BE60" width="13.437" height="3.105"/>
<rect x="63.06" y="82.514" transform="matrix(-0.9529 0.3032 -0.3032 -0.9529 161.7638 143.017)" fill-rule="evenodd" clip-rule="evenodd" fill="#C7567F" width="13.438" height="3.106"/>
<rect x="38.767" y="124.911" transform="matrix(0.7416 -0.6708 0.6708 0.7416 -73.0845 63.1927)" fill-rule="evenodd" clip-rule="evenodd" fill="#FFBE36" width="13.438" height="3.106"/>
<rect x="169.946" y="67.71" fill-rule="evenodd" clip-rule="evenodd" fill="#20BE60" width="13.438" height="3.105"/>
<rect x="212.82" y="110.438" fill-rule="evenodd" clip-rule="evenodd" fill="#20BE60" width="13.438" height="3.106"/>
<rect x="233.402" y="87.886" transform="matrix(0.7416 -0.6708 0.6708 0.7416 2.044 184.1838)" fill-rule="evenodd" clip-rule="evenodd" fill="#FFBE36" width="13.438" height="3.105"/>
<rect x="186.51" y="92.669" transform="matrix(-0.9101 -0.4144 0.4144 -0.9101 330.0467 260.041)" fill-rule="evenodd" clip-rule="evenodd" fill="#C7567F" width="13.437" height="3.106"/>
<rect x="240.342" y="116.096" transform="matrix(-0.9529 0.3032 -0.3032 -0.9529 518.1626 154.8558)" fill-rule="evenodd" clip-rule="evenodd" fill="#FFBE36" width="13.438" height="3.105"/>
<rect x="165.68" y="96.701" transform="matrix(0.7416 -0.6708 0.6708 0.7416 -21.3669 141.0324)" fill-rule="evenodd" clip-rule="evenodd" fill="#FFBE36" width="13.438" height="3.105"/>
</svg>
