<?xml version="1.0" encoding="utf-8"?>
<!-- Generator: Adobe Illustrator 16.0.0, SVG Export Plug-In . SVG Version: 6.00 Build 0)  -->
<!DOCTYPE svg PUBLIC "-//W3C//DTD SVG 1.1 Basic//EN" "http://www.w3.org/Graphics/SVG/1.1/DTD/svg11-basic.dtd">
<svg version="1.1" baseProfile="basic" id="Layer_1"
	 xmlns="http://www.w3.org/2000/svg" xmlns:xlink="http://www.w3.org/1999/xlink" x="0px" y="0px" width="300px" height="300px"
	 viewBox="0 0 300 300" xml:space="preserve">
<path fill-rule="evenodd" clip-rule="evenodd" fill="#E93F4B" stroke="#010101" stroke-width="0.5669" stroke-miterlimit="22.9256" d="
	M177.091,66.845l56.726,224.61c-23.724,5.229-53.636,6.393-85.618,2.32c-31.983-4.071-60.649-12.694-82.306-23.7L177.091,66.845z"/>
<path fill-rule="evenodd" clip-rule="evenodd" fill="#FFC99B" d="M231.161,280.939c-8.518,5.708-17.579,10.626-27.069,14.666
	c-9.768,0.683-20.103,0.811-30.826,0.333c20.138-4.416,38.976-12.805,55.52-24.403L231.161,280.939z"/>
<path fill-rule="evenodd" clip-rule="evenodd" fill="#FFC99B" d="M224.12,253.06c-28.976,20.741-65.55,31.022-103.685,26.168
	c-18.294-2.33-35.367-7.942-50.704-16.169l4.371-7.987c14.365,7.694,30.354,12.945,47.483,15.126
	c37.045,4.717,72.519-5.796,100.129-26.665L224.12,253.06z"/>
<path fill-rule="evenodd" clip-rule="evenodd" fill="#FFC99B" d="M217.031,224.991l-0.21,0.165
	c-26.168,20.257-60.065,30.531-95.486,26.021c-13.859-1.764-26.924-5.661-38.909-11.319l4.38-8.005
	c11.006,5.135,22.984,8.679,35.679,10.295c32.929,4.191,64.439-5.359,88.766-24.19c1.125-0.871,2.235-1.763,3.329-2.673
	L217.031,224.991z"/>
<path fill-rule="evenodd" clip-rule="evenodd" fill="#FFC99B" d="M209.87,196.636c-1.557,1.347-3.147,2.652-4.774,3.912
	c-22.708,17.578-52.123,26.495-82.86,22.581c-9.431-1.2-18.437-3.541-26.901-6.862l4.409-8.058
	c7.463,2.832,15.375,4.838,23.643,5.89c28.244,3.597,55.272-4.596,76.138-20.748c2.717-2.104,5.327-4.342,7.823-6.706
	L209.87,196.636z"/>
<path fill-rule="evenodd" clip-rule="evenodd" fill="#FFC99B" d="M202.587,167.802c-2.896,2.909-5.977,5.629-9.219,8.138
	c-19.248,14.9-44.179,22.457-70.232,19.14c-5.002-0.636-9.864-1.652-14.561-3.013l4.488-8.203c3.64,0.962,7.385,1.698,11.223,2.187
	c23.56,3,46.105-3.834,63.511-17.308c4.397-3.404,8.467-7.232,12.141-11.434L202.587,167.802z"/>
<path fill-rule="evenodd" clip-rule="evenodd" fill="#FFC99B" d="M195.075,138.055c-3.936,4.964-8.452,9.421-13.434,13.277
	c-15.787,12.221-36.236,18.419-57.605,15.699c-0.548-0.07-1.094-0.147-1.638-0.228l4.698-8.587
	c18.182,1.811,35.5-3.652,48.973-14.082c6.304-4.879,11.765-10.847,16.08-17.663L195.075,138.055z"/>
<path fill-rule="evenodd" clip-rule="evenodd" fill="#FFC99B" d="M186.995,106.061c-4.125,8.153-10.002,15.184-17.081,20.663
	c-9.197,7.121-20.423,11.622-32.462,12.566l5.436-9.934c7.898-1.594,15.224-5.005,21.455-9.829
	c9.139-7.074,15.924-17.188,18.712-29.066L186.995,106.061z"/>
<path fill-rule="evenodd" clip-rule="evenodd" fill="#C7567F" d="M177.091,66.845c19.28-5.875,36.834-5.758,50.894,6.48
	c-0.462,3.629-0.924,7.258-1.386,10.887C212.279,72.026,195.54,66.932,177.091,66.845z"/>
<path fill-rule="evenodd" clip-rule="evenodd" fill="#C7567F" d="M177.091,66.845c14.186-14.319,29.693-22.542,47.877-18.438
	c1.314,3.414,2.629,6.827,3.944,10.241C210.525,54.713,193.373,58.169,177.091,66.845z"/>
<path fill-rule="evenodd" clip-rule="evenodd" fill="#C7567F" d="M177.091,66.845c5.695-19.334,15.446-33.931,33.399-38.944
	c2.777,2.381,5.555,4.763,8.331,7.145C200.769,40.304,187.309,51.484,177.091,66.845z"/>
<path fill-rule="evenodd" clip-rule="evenodd" fill="#C7567F" d="M177.091,66.845c-4.158-19.723-2.498-37.197,10.929-50.127
	c3.574,0.779,7.148,1.559,10.723,2.338C185.345,32.248,178.799,48.475,177.091,66.845z"/>
<path fill-rule="evenodd" clip-rule="evenodd" fill="#C7567F" d="M177.48,67.03c-16.198-19.152-24.696-39.276-17.62-61.369
	c4.376-1.257,8.752-2.513,13.127-3.77C166.099,24.254,168.507,45.896,177.48,67.03z"/>
</svg>
