<?xml version="1.0" encoding="utf-8"?>
<!-- Generator: Adobe Illustrator 16.0.0, SVG Export Plug-In . SVG Version: 6.00 Build 0)  -->
<!DOCTYPE svg PUBLIC "-//W3C//DTD SVG 1.1 Basic//EN" "http://www.w3.org/Graphics/SVG/1.1/DTD/svg11-basic.dtd">
<svg version="1.1" baseProfile="basic" id="Layer_1"
	 xmlns="http://www.w3.org/2000/svg" xmlns:xlink="http://www.w3.org/1999/xlink" x="0px" y="0px" width="300px" height="300px"
	 viewBox="0 0 300 300" xml:space="preserve">
<path fill-rule="evenodd" clip-rule="evenodd" fill="#ED1C24" stroke="#010101" stroke-width="0.5669" stroke-miterlimit="22.9256" d="
	M103.489,233.488h174.951c-19.819-87.784-44.321-149.029-73.561-183.436c-11.49-13.521-29.134-18.393-45.936-12.685
	C113.21,52.906,54.365,103.311,19.154,146.91c45.417-10.924,95.148-20.356,112.305,1.915c1.042-2.938,21.042-53.197-6.259-39.092
	c-2.647,2.271-5.167,7.616-6.43,12.321c1.101-5.317,3.765-11.814,6.389-13.022c30.204-13.903,6.374,40.768,4.71,45.493
	L103.489,233.488z"/>
<path fill-rule="evenodd" clip-rule="evenodd" fill="#F6F3F9" stroke="#8C9792" stroke-width="4" stroke-miterlimit="22.9256" d="
	M106.371,210.991c2.019,0,3.942,0.404,5.696,1.136c1.963-5.874,7.508-10.107,14.042-10.107c5.524,0,10.341,3.026,12.885,7.511
	c2.049-1.071,4.38-1.679,6.854-1.679c5.523,0,10.341,3.025,12.885,7.511c2.049-1.072,4.38-1.68,6.854-1.68
	c2.018,0,3.941,0.404,5.695,1.137c1.963-5.875,7.508-10.108,14.042-10.108c4.407,0,8.363,1.926,11.075,4.981
	c0.961-0.196,1.955-0.299,2.973-0.299c4.615,0,8.735,2.111,11.45,5.421c2.703-2.903,6.559-4.721,10.838-4.721
	c5.681,0,10.613,3.2,13.095,7.896c2.209-1.311,4.787-2.063,7.541-2.063c0.752,0,1.49,0.057,2.212,0.165
	c2.5-4.639,7.401-7.791,13.039-7.791c4.082,0,7.777,1.651,10.455,4.322c1.229-0.331,2.52-0.508,3.854-0.508
	c5.778,0,10.782,3.311,13.221,8.139c4.844,2.434,8.168,7.445,8.168,13.235c0,4.342-1.869,8.247-4.847,10.955
	c0.005,0.149,0.008,0.3,0.008,0.45c0,8.176-6.628,14.804-14.804,14.804c-2.019,0-3.942-0.404-5.695-1.136
	c-1.963,5.874-7.509,10.107-14.042,10.107c-5.524,0-10.342-3.026-12.886-7.511c-2.049,1.072-4.38,1.68-6.853,1.68
	c-5.524,0-10.341-3.026-12.886-7.512c-2.049,1.072-4.38,1.68-6.853,1.68c-2.019,0-3.942-0.404-5.696-1.136
	c-1.963,5.874-7.508,10.107-14.042,10.107c-4.406,0-8.363-1.926-11.075-4.981c-0.961,0.196-1.955,0.299-2.973,0.299
	c-4.614,0-8.735-2.111-11.45-5.421c-2.703,2.903-6.558,4.721-10.838,4.721c-5.681,0-10.612-3.2-13.095-7.895
	c-2.208,1.31-4.786,2.062-7.541,2.062c-0.752,0-1.491-0.057-2.212-0.165c-2.5,4.639-7.401,7.791-13.04,7.791
	c-4.081,0-7.776-1.651-10.454-4.322c-1.229,0.331-2.521,0.508-3.854,0.508c-5.778,0-10.783-3.311-13.221-8.139
	c-4.844-2.434-8.168-7.446-8.168-13.235c0-4.342,1.869-8.247,4.847-10.955c-0.004-0.149-0.007-0.3-0.007-0.45
	C91.568,217.619,98.195,210.991,106.371,210.991z"/>
<path fill-rule="evenodd" clip-rule="evenodd" fill="#DED5E1" stroke="#8C9792" stroke-width="4" stroke-miterlimit="22.9256" d="
	M19.537,159.643c-0.845,0.493-1.828,0.775-2.877,0.775c-3.159,0-5.719-2.561-5.719-5.719c0-1.955,0.981-3.682,2.478-4.712
	c-0.012-0.149-0.018-0.3-0.018-0.453c0-0.944,0.229-1.834,0.634-2.619c-2.317-0.73-3.998-2.896-3.998-5.456
	c0-1.289,0.426-2.478,1.145-3.434c-2.465-0.636-4.285-2.874-4.285-5.538c0-2.398,1.476-4.452,3.569-5.301
	c-1.223-1.049-1.999-2.606-1.999-4.344c0-2.254,1.303-4.202,3.197-5.135c-0.603-0.906-0.955-1.994-0.955-3.164
	c0-3.159,2.561-5.719,5.72-5.719c0.948,0,1.841,0.23,2.628,0.638c-0.032-0.245-0.049-0.496-0.049-0.75c0-3.159,2.561-5.72,5.72-5.72
	c1.361,0,2.61,0.476,3.592,1.27c1.048-1.32,2.666-2.167,4.482-2.167c3.067,0,5.569,2.414,5.713,5.445
	c0.964-0.742,2.172-1.183,3.483-1.183c3.159,0,5.72,2.561,5.72,5.719c0,1.028-0.271,1.991-0.745,2.825
	c2.93,0.248,5.231,2.704,5.231,5.699c0,0.99-0.251,1.922-0.695,2.733c1.875,0.939,3.162,2.877,3.162,5.117
	c0,0.901-0.208,1.752-0.579,2.511c2.519,0.599,4.392,2.862,4.392,5.564c0,2.284-1.339,4.255-3.274,5.172
	c0.786,0.979,1.255,2.223,1.255,3.576c0,2.411-1.492,4.474-3.603,5.315c0.155,0.519,0.238,1.069,0.238,1.638
	c0,3.159-2.561,5.72-5.719,5.72c-1.137,0-2.196-0.332-3.086-0.903c-0.979,1.744-2.847,2.922-4.989,2.922
	c-0.19,0-0.377-0.01-0.562-0.027c0.001,0.046,0.001,0.093,0.001,0.14c0,3.159-2.561,5.72-5.719,5.72
	c-2.334,0-4.341-1.398-5.23-3.402c-0.862,0.521-1.874,0.822-2.956,0.822C22.44,163.216,20.386,161.738,19.537,159.643z"/>
</svg>
