<?xml version="1.0" encoding="utf-8"?>
<!-- Generator: Adobe Illustrator 16.0.0, SVG Export Plug-In . SVG Version: 6.00 Build 0)  -->
<!DOCTYPE svg PUBLIC "-//W3C//DTD SVG 1.1//EN" "http://www.w3.org/Graphics/SVG/1.1/DTD/svg11.dtd">
<svg version="1.1" id="Layer_1" xmlns="http://www.w3.org/2000/svg" xmlns:xlink="http://www.w3.org/1999/xlink" x="0px" y="0px"
	 width="286px" height="260px" viewBox="0 0 286 260" enable-background="new 0 0 286 260" xml:space="preserve">
<g>
	
		<path fill="#CACACA" stroke="#000000" stroke-width="3" stroke-linecap="round" stroke-linejoin="round" stroke-miterlimit="10" d="
		M89.259,39.241c0,0-34.111,4.529-13.119,38.014c0,0-28.863,3.614-19.68,29.373c0,0,7.787,31.251,48.375,13.296
		c0,0,2.459,41.571,48.458,23.122c0,0,15.988,18.941,39.851,1.726c0,0,14.354-8.609,15.172-28.535c0,0,39.191,15.251,44.602-29.519
		c0,0,24.847,0.738,27.308-19.433c0,0,5.166-19.679-24.355-17.71c0,0-9.346-30.256-39.602-16.973c0,0-7.873-17.957-29.273-18.941
		c0,0-19.186-1.969-30.502,12.054c0,0-10.332-25.091-36.651-18.694C119.839,7.017,91.394,11.199,89.259,39.241z"/>
	<g>
		<path d="M132.139,93.112c-3.554-1.571-7.397-2.719-11.234-2.574c-1.899,0.062-3.794,0.534-5.337,1.566
			c-1.557,1.019-2.679,2.58-3.391,4.304c-0.082,0.22-0.178,0.433-0.25,0.657l-0.113,0.332l-0.028,0.084
			c0.011-0.032-0.005,0.024-0.008,0.041l-0.03,0.156c-0.076,0.432-0.117,0.885-0.106,1.332c0.013,0.898,0.209,1.785,0.588,2.584
			c0.754,1.614,2.264,2.778,3.961,3.496c3.457,1.437,7.42,1.475,11.241,1.348c0.386-0.014,0.711,0.287,0.726,0.673
			c0.004,0.11-0.021,0.223-0.063,0.317c-0.754,1.648-1.379,3.426-1.821,5.202c-0.435,1.779-0.699,3.619-0.494,5.375
			c0.185,1.753,1.039,3.354,2.57,4.121c1.512,0.8,3.401,0.896,5.219,0.752c0.037-0.003,0.08-0.002,0.117,0.002
			c1.45,0.167,3.047-0.035,4.465-0.557c1.433-0.526,2.722-1.42,3.744-2.573c1.022-1.157,1.772-2.562,2.282-4.048
			c0.514-1.489,0.824-3.054,1.002-4.634c-0.055,1.589-0.238,3.188-0.687,4.732c-0.434,1.544-1.118,3.046-2.135,4.337
			c-1.003,1.301-2.378,2.32-3.913,2.943c-1.546,0.619-3.182,0.905-4.896,0.771l0.119,0.002c-1.906,0.209-3.959,0.228-5.857-0.68
			c-0.936-0.457-1.758-1.204-2.303-2.104c-0.551-0.9-0.842-1.911-0.976-2.905c-0.254-2.002,0.022-3.963,0.454-5.844
			c0.45-1.889,1.061-3.695,1.854-5.487l0.662,0.99c-1.977,0.114-3.97,0.104-5.959-0.104c-1.984-0.211-3.986-0.603-5.875-1.431
			c-1.867-0.812-3.666-2.19-4.563-4.171c-0.448-0.975-0.668-2.041-0.672-3.096c0-0.529,0.04-1.055,0.157-1.581l0.047-0.202
			l0.039-0.137l0.035-0.09l0.135-0.354c0.088-0.239,0.199-0.469,0.298-0.703c0.836-1.849,2.153-3.562,3.928-4.632
			c1.761-1.089,3.828-1.51,5.821-1.507c2.005,0.012,3.964,0.415,5.844,0.987C128.615,91.388,130.435,92.149,132.139,93.112z"/>
	</g>
	<g>
		<path fill="#CACACA" d="M150.185,69.251c0,0-29.854,50.426,20.82,57.314"/>
		<path d="M150.185,69.251c-1.43,2.834-2.707,5.735-3.793,8.704c-1.121,2.953-2.078,5.966-2.797,9.028
			c-0.703,3.062-1.244,6.164-1.399,9.283c-0.173,3.112-0.003,6.246,0.708,9.256c0.68,3.014,1.926,5.89,3.723,8.391
			c1.771,2.524,4.115,4.615,6.712,6.331c2.604,1.711,5.489,3.003,8.477,3.997c2.979,1.039,6.072,1.739,9.191,2.326
			c-3.164-0.271-6.31-0.835-9.396-1.662c-3.072-0.875-6.076-2.076-8.852-3.738c-2.781-1.644-5.271-3.842-7.22-6.466
			c-1.94-2.631-3.277-5.69-4.015-8.858c-1.438-6.386-0.673-12.986,1.021-19.129C144.269,80.552,146.831,74.649,150.185,69.251z"/>
	</g>
	<path fill="#B7B7B7" d="M144.191,97.909c0,0,25.09,27.427,51.656,0c0,0-5.904,26.935-27.06,23.981
		C168.791,121.892,148.62,119.432,144.191,97.909z"/>
	<path fill="#E6E7E8" stroke="#E6E7E8" stroke-linecap="round" stroke-linejoin="round" stroke-miterlimit="10" d="M147.882,81.797
		c0,0,5.762-14.477,19.729-2.811c0,0,21.104,18.061-7.186,17.077C160.427,96.063,141.732,93.356,147.882,81.797z"/>
	<path fill="none" stroke="#000000" stroke-width="3" stroke-linecap="round" stroke-linejoin="round" stroke-miterlimit="10" d="
		M111.034,113.774c0,0-26.369,47.228-69.418,25.335c0,0-23.859-16.234,3.938-25.335c0,0,17.218-5.031-2.952,15.562"/>
	<path fill="none" stroke="#000000" stroke-width="3" stroke-linecap="round" stroke-linejoin="round" stroke-miterlimit="10" d="
		M118.118,122.118c0,0-74.287,68.404-55.839,106.779c0,0,17.466,38.862,51.165,19.924c0,0,26.564-16.48,4.674-40.588
		c0,0-14.514-18.201-36.898,4.674c0,0-9.592,9.84,5.412,20.172c0,0,19.679,16.479,20.172-10.332"/>
	<g>
		<path d="M81.161,72.126c2.07-0.121,4.141-0.176,6.211-0.266l6.213-0.159c2.072-0.063,4.144-0.056,6.215-0.086l6.214-0.058
			c0.271-0.004,0.493,0.213,0.495,0.484c0.004,0.168-0.084,0.321-0.213,0.411c-3.252,2.231-6.474,4.506-9.752,6.7
			c-3.272,2.201-6.558,4.387-9.899,6.488c3.112-2.428,6.284-4.773,9.469-7.103c3.179-2.337,6.414-4.592,9.619-6.892l0.283,0.895
			l-6.214-0.02c-2.07-0.019-4.143,0.004-6.213-0.047l-6.215-0.121C85.302,72.277,83.231,72.235,81.161,72.126z"/>
	</g>
	<g>
		<path d="M83.204,79.089c3.559-1.544,7.205-2.802,10.877-3.99c3.68-1.16,7.383-2.246,11.178-3.045
			c-3.557,1.545-7.205,2.803-10.877,3.989C90.702,77.201,86.999,78.288,83.204,79.089z"/>
	</g>
	<g>
		<path d="M165.203,56.866c-1.858,0.102-3.719,0.135-5.578,0.206l-5.575,0.098c-3.722,0.06-7.439,0.048-11.154,0.024
			c-0.273-0.002-0.494-0.223-0.492-0.496c0-0.167,0.088-0.317,0.217-0.406c2.926-1.992,5.854-3.982,8.824-5.91
			c2.963-1.939,5.938-3.861,8.969-5.699c-2.807,2.168-5.67,4.25-8.545,6.317c-2.867,2.079-5.777,4.093-8.688,6.106l-0.275-0.901
			c3.718,0.032,7.437,0.076,11.152,0.19l5.576,0.182C161.486,56.675,163.347,56.738,165.203,56.866z"/>
	</g>
	<g>
		<path d="M163.435,50.599c-3.195,1.391-6.48,2.494-9.785,3.526c-3.314,1.004-6.65,1.937-10.076,2.58
			c3.195-1.394,6.479-2.496,9.785-3.526C156.673,52.175,160.009,51.243,163.435,50.599z"/>
	</g>
	<path fill="none" stroke="#000000" stroke-width="3" stroke-linecap="round" stroke-linejoin="round" stroke-miterlimit="10" d="
		M69.934,157.688c0,0-33.452,36.327-52.218,27.307c0,0-19.006-8.541-9.743-25.021c0,0,8.058-12.989,19.848-2.284
		c0,0,8.901,7.1-2.284,18.045c0,0-4.812,4.688-9.865-2.646c0,0-8.061-9.623,5.054-9.862"/>
	<g>
		<path fill="#E6E7E8" d="M80.603,79.519c-1.979-3.252-3.785-6.66-4.938-10.352c-1.148-3.658-1.742-7.674-0.795-11.602
			c0.467-1.948,1.34-3.824,2.555-5.449c1.213-1.627,2.729-3.018,4.408-4.119c1.678-1.109,3.491-1.975,5.36-2.648
			c1.892-0.668,3.759-1.168,5.834-1.447L91.8,45.2c0.164-3.727,0.955-7.182,2.168-10.6c1.224-3.389,2.931-6.635,5.144-9.539
			c2.205-2.905,4.925-5.449,7.996-7.444c3.069-2.004,6.452-3.479,9.935-4.495l-0.277,0.102c1.135-0.496,2.095-0.799,3.154-1.104
			c1.039-0.291,2.09-0.525,3.147-0.712c2.116-0.366,4.271-0.545,6.426-0.481c4.31,0.114,8.615,1.129,12.524,2.963
			c3.919,1.826,7.416,4.431,10.401,7.444c3.007,3.011,5.482,6.454,7.609,10.042l-3.213-0.482c2.381-2.051,4.779-3.709,7.352-5.283
			c2.562-1.551,5.236-2.92,8.029-4.051c5.566-2.26,11.715-3.5,17.861-2.938c3.062,0.276,6.09,1.021,8.93,2.19
			c2.846,1.162,5.473,2.779,7.846,4.656c4.752,3.781,8.479,8.557,11.494,13.615l-1.84-0.521c2.014-0.901,3.961-1.527,6.006-2.062
			c2.031-0.521,4.104-0.89,6.195-1.075c4.176-0.389,8.502,0.059,12.424,1.646c3.932,1.562,7.299,4.324,9.734,7.658
			c2.473,3.33,4.045,7.185,5.141,11.089c-1.397-3.813-3.307-7.447-5.854-10.53c-2.548-3.076-5.871-5.455-9.593-6.68
			c-3.719-1.254-7.721-1.395-11.604-0.893c-3.865,0.521-7.769,1.709-11.185,3.383c-0.655,0.321-1.44,0.092-1.832-0.508l-0.008-0.015
			c-3.073-4.74-6.723-9.122-11.151-12.413c-4.414-3.289-9.605-5.393-15.021-5.754c-5.416-0.408-10.895,0.834-16.002,2.936
			c-2.561,1.055-5.039,2.342-7.414,3.801c-2.352,1.449-4.705,3.123-6.693,4.859l-0.022,0.022c-0.877,0.764-2.205,0.673-2.969-0.202
			c-0.082-0.094-0.158-0.201-0.222-0.303c-2.006-3.351-4.338-6.475-7.012-9.219c-2.68-2.738-5.756-5.045-9.161-6.658
			c-3.397-1.619-7.114-2.521-10.884-2.646c-1.883-0.062-3.779,0.038-5.648,0.331c-0.934,0.146-1.86,0.336-2.772,0.572
			c-0.888,0.229-1.856,0.537-2.582,0.836l-0.091,0.038c-0.059,0.024-0.127,0.047-0.187,0.062c-3.179,0.863-6.231,2.133-8.997,3.863
			c-2.758,1.738-5.236,3.912-7.303,6.455s-3.717,5.441-4.939,8.525c-0.61,1.543-1.115,3.133-1.514,4.75
			c-0.396,1.597-0.717,3.299-0.84,4.848l-0.004,0.05c-0.053,0.667-0.578,1.185-1.223,1.249c-3.502,0.355-7.183,1.436-10.258,3.271
			c-1.539,0.932-2.957,2.057-4.104,3.426c-1.151,1.363-2.021,2.963-2.55,4.691c-1.07,3.478-0.777,7.331,0.134,10.963
			C77.427,72.581,78.87,76.125,80.603,79.519z"/>
	</g>
</g>
</svg>
