<?xml version="1.0" encoding="utf-8"?>
<!-- Generator: Adobe Illustrator 16.0.0, SVG Export Plug-In . SVG Version: 6.00 Build 0)  -->
<!DOCTYPE svg PUBLIC "-//W3C//DTD SVG 1.1 Basic//EN" "http://www.w3.org/Graphics/SVG/1.1/DTD/svg11-basic.dtd">
<svg version="1.1" baseProfile="basic" id="Layer_1"
	 xmlns="http://www.w3.org/2000/svg" xmlns:xlink="http://www.w3.org/1999/xlink" x="0px" y="0px" width="300px" height="300px"
	 viewBox="0 0 300 300" xml:space="preserve">
<g>
	<g id="XMLID_7_">
		<g>
			<linearGradient id="SVGID_1_" gradientUnits="userSpaceOnUse" x1="176.2529" y1="112.0366" x2="183.7988" y2="112.0366">
				<stop  offset="0" style="stop-color:#26A9E0"/>
				<stop  offset="0" style="stop-color:#26A9E0"/>
				<stop  offset="0" style="stop-color:#26A9E0"/>
				<stop  offset="0" style="stop-color:#26A9E0"/>
				<stop  offset="0" style="stop-color:#26A9E0"/>
				<stop  offset="0.3197" style="stop-color:#FFFFFF"/>
				<stop  offset="0.5218" style="stop-color:#FFFFFF"/>
				<stop  offset="0.6672" style="stop-color:#FFFFFF"/>
				<stop  offset="1" style="stop-color:#26A9E0"/>
				<stop  offset="1" style="stop-color:#26A9E0"/>
			</linearGradient>
			<path fill="url(#SVGID_1_)" d="M180.667,102.337c5.117,6.095,3.737,15.706-2.491,19.398
				C174.928,116.797,175.817,109.145,180.667,102.337z"/>
			<path d="M188.543,127.208c-2.092,3.648-4.806,6.051-8.721,6.94c-4.627,1.068-7.742-0.979-10.812-7.475
				c-1.424-2.981-1.913-6.407-2.714-9.343c1.201-5.428,1.957-10.367,3.426-15.083c1.824-5.962,6.852-8.854,12.146-7.608
				c6.14,1.468,10.321,7.208,9.654,13.17C190.812,114.306,192.058,121.024,188.543,127.208z M178.176,121.736
				c6.229-3.693,7.608-13.303,2.491-19.398C175.817,109.145,174.928,116.797,178.176,121.736z"/>
			<path d="M192.458,74.619c-1.335-1.913-2.67-3.871-4.094-5.74c-2.313-2.981-4.182-6.718-7.163-8.809
				c-4.404-2.981-7.652,1.334-10.678,3.737c-2.091,1.69-3.471,3.203-6.096,0.578c3.248-2.536,6.362-4.983,9.521-7.386
				c2.98-2.269,6.54-2.269,8.81,0.089c4.049,4.227,7.341,9.121,10.812,13.881C194.015,71.638,193.525,73.017,192.458,74.619z"/>
			<linearGradient id="SVGID_2_" gradientUnits="userSpaceOnUse" x1="110.3252" y1="118.0205" x2="118.2207" y2="118.0205">
				<stop  offset="0" style="stop-color:#26A9E0"/>
				<stop  offset="0" style="stop-color:#26A9E0"/>
				<stop  offset="0" style="stop-color:#26A9E0"/>
				<stop  offset="0" style="stop-color:#26A9E0"/>
				<stop  offset="0" style="stop-color:#26A9E0"/>
				<stop  offset="0.3197" style="stop-color:#FFFFFF"/>
				<stop  offset="0.5218" style="stop-color:#FFFFFF"/>
				<stop  offset="0.6672" style="stop-color:#FFFFFF"/>
				<stop  offset="1" style="stop-color:#26A9E0"/>
				<stop  offset="1" style="stop-color:#26A9E0"/>
			</linearGradient>
			<path fill="url(#SVGID_2_)" d="M115.042,107.721c5.117,6.407,3.871,15.973-2.402,20.6
				C108.857,121.335,109.748,112.837,115.042,107.721z"/>
			<path d="M127.9,108.655c0,3.07,0.312,6.14,0.445,8.631c1.068,7.964-2.314,14.148-6.006,19.977
				c-3.381,5.294-11.568,5.25-15.973,0.712c-6.14-6.362-7.608-13.659-6.006-22.202c1.201-6.185,1.913-12.324,6.362-17.307
				c2.581-2.892,5.072-4.449,8.809-2.581c2.18,1.068,4.36,2.046,6.541,3.07C126.209,100.869,127.855,104.206,127.9,108.655z
				 M112.64,128.321c6.273-4.627,7.519-14.193,2.402-20.6C109.748,112.837,108.857,121.335,112.64,128.321z"/>
			<path d="M125.008,203.156c-12.992,1.424-22.958,7.786-31.056,18.553c-1.246-1.112-2.135-1.913-3.336-2.98
				c9.744-8.943,18.731-18.064,32.968-19.221c9.343-0.712,14.549,0.979,19.443,9.21c2.225,3.692,4.004,7.696,6.318,11.345
				c4.227,6.808,7.43,7.92,14.104,3.382c6.896-4.672,13.614-9.877,19.31-15.839c10.411-10.99,20.021-22.691,30.032-34.081
				c0.756-0.846,2.002-1.379,3.114-1.69c0.312-0.134,1.513,1.245,1.379,1.513c-0.489,1.023-1.29,1.913-2.091,2.803
				c-7.608,8.721-15.528,17.174-22.78,26.206c-7.919,9.921-16.951,18.598-27.451,25.538c-8.632,5.739-15.75,1.112-20.956-7.697
				c-2.18-3.737-3.96-7.697-6.185-11.435C135.241,204.49,129.813,202.622,125.008,203.156z"/>
			<path d="M93.152,60.693c6.763,0.312,15.083,9.521,15.216,18.687c-1.78-1.869-3.292-2.714-3.47-3.826
				c-1.201-6.095-6.096-8.542-10.723-10.9c-1.379-0.756-4.093,0-5.695,0.935c-2.714,1.557-5.028,3.826-8.275,6.362
				C80.917,66.21,88.169,60.471,93.152,60.693z"/>
			<linearGradient id="SVGID_3_" gradientUnits="userSpaceOnUse" x1="7.3511" y1="150.9346" x2="290.7754" y2="150.9346">
				<stop  offset="0" style="stop-color:#FAAF40"/>
				<stop  offset="0.1259" style="stop-color:#FAAF40"/>
				<stop  offset="0.1924" style="stop-color:#FAAF40"/>
				<stop  offset="0.4415" style="stop-color:#F9EC31"/>
				<stop  offset="0.4735" style="stop-color:#F9EC31"/>
				<stop  offset="0.5321" style="stop-color:#F9EC31"/>
				<stop  offset="0.7123" style="stop-color:#FAAF40"/>
				<stop  offset="0.7777" style="stop-color:#FAAF40"/>
				<stop  offset="0.9613" style="stop-color:#FAAF40"/>
			</linearGradient>
			<path fill="url(#SVGID_3_)" d="M106.366,137.976c4.405,4.538,12.591,4.583,15.973-0.712c3.692-5.829,7.074-12.013,6.006-19.977
				c-0.134-2.492-0.445-5.562-0.445-8.631c-0.044-4.449-1.69-7.786-5.828-9.699c-2.18-1.023-4.36-2.002-6.541-3.07
				c-3.737-1.869-6.229-0.312-8.809,2.581c-4.449,4.983-5.161,11.123-6.362,17.307C98.758,124.316,100.226,131.613,106.366,137.976z
				 M169.011,126.674c3.069,6.496,6.185,8.542,10.812,7.475c3.915-0.89,6.629-3.292,8.721-6.94
				c3.515-6.185,2.269-12.903,2.98-19.398c0.667-5.962-3.515-11.702-9.654-13.17c-5.295-1.246-10.322,1.646-12.146,7.608
				c-1.469,4.716-2.225,9.655-3.426,15.083C167.098,120.268,167.587,123.693,169.011,126.674z M163.449,223.444
				c-6.674,4.538-9.877,3.426-14.104-3.382c-2.313-3.648-4.093-7.652-6.318-11.345c-4.894-8.231-10.1-9.922-19.443-9.21
				c-14.237,1.156-23.225,10.277-32.968,19.221c1.201,1.067,2.091,1.868,3.336,2.98c8.098-10.767,18.064-17.129,31.056-18.553
				c4.805-0.534,10.233,1.334,12.813,5.605c2.225,3.737,4.004,7.697,6.185,11.435c5.206,8.81,12.324,13.437,20.956,7.697
				c10.5-6.94,19.532-15.617,27.451-25.538c7.252-9.032,15.172-17.485,22.78-26.206c0.801-0.89,1.602-1.779,2.091-2.803
				c0.134-0.268-1.067-1.646-1.379-1.513c-1.112,0.312-2.358,0.845-3.114,1.69c-10.011,11.39-19.621,23.091-30.032,34.081
				C177.063,213.567,170.346,218.772,163.449,223.444z M170.523,63.808c3.025-2.403,6.273-6.718,10.678-3.737
				c2.981,2.091,4.85,5.828,7.163,8.809c1.424,1.869,2.759,3.827,4.094,5.74c1.067-1.602,1.557-2.981,1.112-3.648
				c-3.471-4.761-6.763-9.655-10.812-13.881c-2.27-2.358-5.829-2.358-8.81-0.089c-3.159,2.403-6.273,4.85-9.521,7.386
				C167.053,67.011,168.433,65.498,170.523,63.808z M94.175,64.653c4.627,2.358,9.521,4.805,10.723,10.9
				c0.178,1.112,1.69,1.958,3.47,3.826c-0.133-9.165-8.454-18.375-15.216-18.687c-4.983-0.222-12.235,5.517-12.947,11.257
				c3.248-2.536,5.562-4.805,8.275-6.362C90.082,64.653,92.796,63.896,94.175,64.653z M41.319,16.068
				c3.07-0.312,6.051-1.824,9.077-1.913c17.263-0.534,34.481-0.801,51.699-1.202c7.252-0.178,14.504-0.623,21.757-0.756
				c3.381-0.044,6.718,0.4,10.055,0.534c8.231,0.312,16.462,0.756,24.648,0.89c13.348,0.223,26.695,0.267,40.043,0.356
				c11.123,0.044,22.201-0.133,33.28,0.178c8.408,0.222,16.995,0.044,25.004,2.002c6.318,1.513,12.102,5.739,17.797,9.299
				c4.494,2.803,9.076,6.051,9.966,11.879c1.38,9.521,3.07,19.042,3.471,28.608c0.712,16.773,0.312,33.636,0.757,50.41
				c0.311,11.301,1.468,22.557,1.823,33.813c0.268,8.231-0.222,16.462-0.222,24.693c0,9.165,0.489,18.375,0.222,27.54
				c-0.622,19.621,1.824,39.509-4.938,58.507c-1.201,3.426-3.737,6.451-5.962,9.433c-1.646,2.18-4.359,3.692-5.605,6.051
				c-3.382,6.273-9.344,7.563-15.395,8.498c-12.057,1.779-24.114,4.004-36.261,4.538c-14.904,0.667-29.854-0.178-44.803-0.489
				c-10.011-0.179-20.021-0.268-30.032-0.846c-13.125-0.712-26.25-1.023-39.331-3.915c-12.235-2.67-24.871-3.426-37.417-4.538
				c-10.99-0.979-22.068-1.112-33.102-1.869c-11.167-0.801-21.756-11.968-22.691-23.937c-0.578-8.142-0.845-16.373-1.246-24.56
				c-0.267,0-0.534,0-0.845,0c0-20.288,0.133-40.621-0.044-60.909c-0.089-11.746-0.356-23.536-1.068-35.282
				c-0.667-11.568-2.225-23.136-2.892-34.704C8.217,83.874,7.772,69.369,7.372,54.82c-0.356-11.123,3.96-21.045,8.81-30.7
				c3.025-5.962,9.254-6.94,14.949-8.053C34.423,15.445,37.938,16.379,41.319,16.068z"/>
			<linearGradient id="SVGID_4_" gradientUnits="userSpaceOnUse" x1="3.3257" y1="152.0713" x2="294.6738" y2="152.0713">
				<stop  offset="0" style="stop-color:#231F20"/>
				<stop  offset="0" style="stop-color:#231F20"/>
				<stop  offset="0" style="stop-color:#FAAF40"/>
				<stop  offset="0" style="stop-color:#FAAF40"/>
				<stop  offset="0" style="stop-color:#FAAF40"/>
				<stop  offset="0" style="stop-color:#1B75BB"/>
				<stop  offset="0" style="stop-color:#FAAF40"/>
				<stop  offset="0" style="stop-color:#231F20"/>
				<stop  offset="0.4124" style="stop-color:#231F20"/>
				<stop  offset="0.6001" style="stop-color:#231F20"/>
				<stop  offset="1" style="stop-color:#231F20"/>
			</linearGradient>
			<path fill="url(#SVGID_4_)" d="M41.319,16.068c-3.381,0.312-6.896-0.623-10.188,0c-5.695,1.112-11.924,2.091-14.949,8.053
				c-4.85,9.655-9.166,19.577-8.81,30.7c0.4,14.549,0.846,29.053,1.691,43.557c0.667,11.568,2.225,23.136,2.892,34.704
				c0.712,11.746,0.979,23.536,1.068,35.282c0.178,20.288,0.044,40.621,0.044,60.909c0.311,0,0.578,0,0.845,0
				c0.4,8.187,0.667,16.418,1.246,24.56c0.935,11.969,11.523,23.136,22.691,23.937c11.034,0.757,22.112,0.89,33.102,1.869
				c12.546,1.112,25.182,1.868,37.417,4.538c13.081,2.892,26.206,3.203,39.331,3.915c10.011,0.578,20.021,0.667,30.032,0.846
				c14.949,0.312,29.898,1.156,44.803,0.489c12.146-0.534,24.204-2.759,36.261-4.538c6.051-0.935,12.013-2.225,15.395-8.498
				c1.246-2.358,3.96-3.871,5.605-6.051c2.225-2.981,4.761-6.007,5.962-9.433c6.763-18.998,4.316-38.886,4.938-58.507
				c0.268-9.165-0.222-18.375-0.222-27.54c0-8.231,0.489-16.462,0.222-24.693c-0.355-11.256-1.513-22.513-1.823-33.813
				c-0.445-16.773-0.045-33.636-0.757-50.41c-0.4-9.565-2.091-19.087-3.471-28.608c-0.89-5.829-5.472-9.077-9.966-11.879
				c-5.695-3.56-11.479-7.786-17.797-9.299c-8.009-1.958-16.596-1.78-25.004-2.002c-11.079-0.312-22.157-0.134-33.28-0.178
				c-13.348-0.089-26.695-0.133-40.043-0.356c-8.186-0.133-16.417-0.578-24.648-0.89c-3.337-0.134-6.674-0.579-10.055-0.534
				c-7.252,0.134-14.504,0.579-21.757,0.756c-17.218,0.4-34.437,0.667-51.699,1.202C47.37,14.244,44.389,15.756,41.319,16.068z
				 M11.554,252.854c-0.223-10.589-0.267-21.134-0.579-31.679c-0.489-17.218-1.112-34.392-1.646-51.61
				c-0.356-11.924-0.445-23.892-1.157-35.816C6.882,112.837,5.236,91.926,3.59,71.06c-1.201-15.617,1.735-30.21,7.919-44.759
				c4.36-10.277,11.39-14.771,21.445-16.239c2.581-0.356,5.294,0.534,7.964,0.489C51.686,10.373,62.453,9.839,73.22,9.75
				c10.812-0.089,21.623,0.312,32.435,0.312c11.968-0.044,23.981-0.4,35.994-0.4c7.119,0,14.193,0.445,21.267,0.667
				c10.989,0.312,21.979,0.667,32.969,0.89c12.235,0.267,24.515,1.246,36.706,0.356c8.809-0.667,17.663-0.4,25.627,1.913
				c12.279,3.47,25.138,8.409,30.165,21.89c2.67,7.074,2.937,15.127,3.737,22.78c0.534,4.983,0.089,10.01,0.089,15.038
				c-0.133,0-0.267,0-0.444,0.044c0.444,6.718,0.979,13.481,1.201,20.244c0.134,3.07-0.623,6.14-0.489,9.166
				c0.667,16.951,1.602,33.903,2.136,50.854c0.267,7.697-0.4,15.438-0.445,23.181c0,9.832,0.712,19.71,0.312,29.498
				c-0.801,17.663,0.445,35.326-4.538,52.856c-3.07,10.812-10.011,18.019-17.44,24.692c-4.094,3.693-11.212,4.405-17.174,5.562
				c-22.469,4.449-45.293,6.407-68.028,4.405c-16.284-1.469-32.523-0.579-48.719-1.691c-10.5-0.756-20.911-2.758-31.367-4.004
				c-4.004-0.489-8.098-0.312-12.057-0.846c-7.786-1.067-15.528-2.937-23.358-3.515c-9.299-0.712-18.775,0.534-27.941-0.712
				c-7.03-0.979-14.104-3.737-20.511-7.029C14.268,271.272,11.732,262.464,11.554,252.854z"/>
		</g>
		<g>
		</g>
	</g>
</g>
<g>
</g>
<g>
</g>
<g>
</g>
<g>
</g>
<g>
</g>
<g>
</g>
<g>
</g>
<g>
</g>
<g>
</g>
<g>
</g>
<g>
</g>
<g>
</g>
<g>
</g>
<g>
</g>
<g>
</g>
</svg>
