<?xml version="1.0" encoding="utf-8"?>
<!-- Generator: Adobe Illustrator 16.0.0, SVG Export Plug-In . SVG Version: 6.00 Build 0)  -->
<!DOCTYPE svg PUBLIC "-//W3C//DTD SVG 1.1 Basic//EN" "http://www.w3.org/Graphics/SVG/1.1/DTD/svg11-basic.dtd">
<svg version="1.1" baseProfile="basic" id="Layer_1"
	 xmlns="http://www.w3.org/2000/svg" xmlns:xlink="http://www.w3.org/1999/xlink" x="0px" y="0px" width="300px" height="300px"
	 viewBox="0 0 300 300" xml:space="preserve">
<g>
	<g id="XMLID_2_">
		<g>
			<linearGradient id="SVGID_1_" gradientUnits="userSpaceOnUse" x1="6.2861" y1="152.8408" x2="293.4941" y2="152.8408">
				<stop  offset="0" style="stop-color:#231F20"/>
				<stop  offset="1" style="stop-color:#000000"/>
			</linearGradient>
			<path fill="url(#SVGID_1_)" d="M288.054,214.075c-0.877,5.416-1.716,10.831-2.593,16.247c0.419,0.038,0.801,0.114,1.22,0.152
				c0.916-5.377,1.831-10.793,2.784-16.209C288.969,214.189,288.512,214.113,288.054,214.075z M156.439,125.442
				c-0.306,0-0.572,0-0.877,0c-5.607,0-8.505-0.305-12.243,0.038h-2.517c0,1.373-11.251,0.954-19.069,0.763
				c-1.64-0.038-3.127-0.076-4.31-0.076c-4.31,1.563-10.602,1.945-11.823,2.098c-9.153,1.258-18.268,2.555-27.459,3.547
				c-12.624,1.411-20.938,9.496-28.871,18.23c-1.907,2.097-0.839,13.5,1.488,14.95c3.508,2.174,7.093,4.806,11.021,5.606
				c16.819,3.395,33.295,8.543,50.609,9.573c1.602,0.114,3.166,0.19,4.768,0.305c13.462,0.991,26.925,2.67,40.388,3.471
				c18.535,1.145,36.728-0.763,54.347-6.941c10.794-3.775,18.917-10.717,25.248-20.137c1.792-2.67,1.602-4.652-0.687-6.369
				c-4.157-3.089-8.2-6.445-12.738-8.81c-9.802-5.149-19.107-13.806-31.197-14.607c-7.895-0.534-27.345-1.602-28.68-1.602
				l-6.14-0.038H156.439z M293.47,211.291c0.305,20.404-2.212,40.427-10.488,59.305c-1.221,2.708-3.852,5.683-6.521,6.713
				c-5.797,2.212-11.938,3.89-18.077,4.614c-18.23,2.174-36.46,4.31-54.767,5.454c-20.366,1.297-40.77,1.563-61.174,2.098
				c-14.225,0.381-28.451,0.953-42.638,0.687c-13.348-0.268-48.436-5.416-52.554-6.637c-10.221-3.013-19.603-8.123-24.409-17.849
				c-4.691-9.534-9.268-19.336-10.221-30.319c-1.221-13.234-2.86-26.43-4.233-39.664c-0.839-7.895-2.06-15.789-2.098-23.684
				c-0.038-21.7,0.267-43.401,0.801-65.102c0.305-13.12,0.305-26.354,2.327-39.282c1.296-8.39,5.683-16.399,9.191-24.37
				c3.471-7.704,9.153-13.692,17.277-16.438c4.958-1.678,10.335-2.365,15.599-2.822c14.568-1.221,29.175-2.136,43.782-3.051
				c9.84-0.61,90.12-3.585,107.969-4.577c14.912-0.839,29.9-0.915,44.851-0.915c7.208,0,10.45,1.945,15.637,3.852
				c10.03,3.699,16.057,20.48,18.573,46.414c1.373,14.187,2.518,28.375,3.699,42.562c-0.533,0.038,2.594,30.167,4.31,45.231
				c0.878,7.476,0.916,15.026,1.335,22.578C292.287,187.798,293.278,199.545,293.47,211.291z M132.908,91.729
				c-6.979-1.831-11.327-0.877-12.738,1.869C124.479,92.949,128.713,92.338,132.908,91.729z"/>
			<linearGradient id="SVGID_2_" gradientUnits="userSpaceOnUse" x1="117.1572" y1="154.7891" x2="238.3438" y2="154.7891">
				<stop  offset="0" style="stop-color:#FAAF40"/>
				<stop  offset="0.1259" style="stop-color:#FAAF40"/>
				<stop  offset="0.1924" style="stop-color:#FAAF40"/>
				<stop  offset="0.4415" style="stop-color:#F9EC31"/>
				<stop  offset="0.4735" style="stop-color:#F9EC31"/>
				<stop  offset="0.5321" style="stop-color:#F9EC31"/>
				<stop  offset="0.7123" style="stop-color:#FAAF40"/>
				<stop  offset="0.7777" style="stop-color:#FAAF40"/>
				<stop  offset="0.9613" style="stop-color:#FAAF40"/>
			</linearGradient>
			<path fill="url(#SVGID_2_)" d="M179.627,135.015c-5.987-0.038-9.648,5.416-10.717,10.679c-1.182,6.026-1.411,12.585-0.381,18.611
				c1.182,7.132,10.907,10.184,15.521,5.226c4.577-4.958,8.887-10.412,8.429-18.039c-0.381-1.945-0.457-4.043-1.258-5.797
				C188.933,140.469,185.729,135.053,179.627,135.015z M143.32,125.48c3.737-0.343,6.636-0.038,12.243-0.038
				c0.305,0,0.571,0,0.877,0h1.259l6.14,0.038c1.335,0,20.785,1.068,28.68,1.602c12.09,0.801,21.396,9.458,31.197,14.607
				c4.538,2.364,8.581,5.721,12.738,8.81c2.288,1.717,2.479,3.699,0.687,6.369c-6.331,9.42-14.454,16.361-25.248,20.137
				c-17.619,6.179-35.812,8.086-54.347,6.941c-13.462-0.801-26.925-2.479-40.388-3.471l0.763-11.327
				c4.233,0.382,8.657-1.525,11.327-5.415c4.958-7.208,6.103-14.188,2.403-22.54c-2.174-4.958-5.759-8.009-10.068-8.009l0.152-6.941
				c7.818,0.191,19.069,0.61,19.069-0.763H143.32z"/>
			<linearGradient id="SVGID_3_" gradientUnits="userSpaceOnUse" x1="285.4609" y1="222.2754" x2="289.4648" y2="222.2754">
				<stop  offset="0" style="stop-color:#231F20"/>
				<stop  offset="1" style="stop-color:#000000"/>
			</linearGradient>
			<path fill="url(#SVGID_3_)" d="M289.465,214.266c-0.953,5.416-1.868,10.832-2.784,16.209c-0.419-0.038-0.801-0.114-1.22-0.152
				c0.877-5.416,1.716-10.831,2.593-16.247C288.512,214.113,288.969,214.189,289.465,214.266z"/>
			<path d="M192.479,151.491c0.458,7.627-3.852,13.081-8.429,18.039c-4.614,4.958-14.34,1.906-15.521-5.226
				c-1.03-6.025-0.801-12.585,0.381-18.611c1.068-5.263,4.729-10.717,10.717-10.679c6.103,0.038,9.306,5.454,11.595,10.679
				C192.022,147.448,192.099,149.546,192.479,151.491z M180.962,145.122c0.382-0.687-0.648-2.708-1.563-3.394
				c-0.534-0.42-2.86,0.343-3.165,1.106c-1.106,2.898-1.755,6.026-2.556,9.077c0.572,0.229,1.145,0.458,1.716,0.687
				C177.301,150.118,179.398,147.792,180.962,145.122z"/>
			<linearGradient id="SVGID_4_" gradientUnits="userSpaceOnUse" x1="173.6777" y1="147.1025" x2="181.0439" y2="147.1025">
				<stop  offset="0" style="stop-color:#26A9E0"/>
				<stop  offset="0" style="stop-color:#26A9E0"/>
				<stop  offset="0" style="stop-color:#26A9E0"/>
				<stop  offset="0" style="stop-color:#26A9E0"/>
				<stop  offset="0" style="stop-color:#26A9E0"/>
				<stop  offset="0.3197" style="stop-color:#FFFFFF"/>
				<stop  offset="0.5218" style="stop-color:#FFFFFF"/>
				<stop  offset="0.6672" style="stop-color:#FFFFFF"/>
				<stop  offset="1" style="stop-color:#26A9E0"/>
				<stop  offset="1" style="stop-color:#26A9E0"/>
			</linearGradient>
			<path fill="url(#SVGID_4_)" d="M179.398,141.728c0.915,0.687,1.945,2.708,1.563,3.394c-1.563,2.67-3.661,4.996-5.568,7.475
				c-0.571-0.229-1.144-0.458-1.716-0.687c0.801-3.051,1.449-6.178,2.556-9.077C176.538,142.071,178.864,141.308,179.398,141.728z"
				/>
			<path d="M131.649,141.193c3.7,8.353,2.555,15.332-2.403,22.54c-2.669,3.89-7.093,5.797-11.327,5.415
				c-2.632-0.267-5.187-1.449-7.208-3.623c-2.822-3.089-5.454-6.331-5.339-11.06c1.068-5.263,0.915-11.327,3.661-15.522
				c2.136-3.28,7.856-5.53,12.09-5.759c0.152,0,0.305,0,0.458,0C125.891,133.185,129.476,136.235,131.649,141.193z M123.106,138.905
				c-7.513-1.716-7.017,4.271-9.306,7.284c-0.152-0.801-0.267-1.563-0.419-2.364c-0.343,0.038-0.725,0.038-1.068,0.076
				c-0.191,3.813-0.381,7.59-0.534,11.403c0.496,0.114,0.992,0.267,1.488,0.381C116.394,150.385,119.483,145.045,123.106,138.905z"
				/>
			<linearGradient id="SVGID_5_" gradientUnits="userSpaceOnUse" x1="120.1699" y1="92.1919" x2="132.9082" y2="92.1919">
				<stop  offset="0" style="stop-color:#231F20"/>
				<stop  offset="1" style="stop-color:#000000"/>
			</linearGradient>
			<path fill="url(#SVGID_5_)" d="M120.17,93.597c1.411-2.746,5.759-3.7,12.738-1.869C128.713,92.338,124.479,92.949,120.17,93.597z
				"/>
			<linearGradient id="SVGID_6_" gradientUnits="userSpaceOnUse" x1="111.7793" y1="147.1436" x2="123.1064" y2="147.1436">
				<stop  offset="0" style="stop-color:#26A9E0"/>
				<stop  offset="0" style="stop-color:#26A9E0"/>
				<stop  offset="0" style="stop-color:#26A9E0"/>
				<stop  offset="0" style="stop-color:#26A9E0"/>
				<stop  offset="0" style="stop-color:#26A9E0"/>
				<stop  offset="0.3197" style="stop-color:#FFFFFF"/>
				<stop  offset="0.5218" style="stop-color:#FFFFFF"/>
				<stop  offset="0.6672" style="stop-color:#FFFFFF"/>
				<stop  offset="1" style="stop-color:#26A9E0"/>
				<stop  offset="1" style="stop-color:#26A9E0"/>
			</linearGradient>
			<path fill="url(#SVGID_6_)" d="M113.801,146.189c2.289-3.013,1.792-9,9.306-7.284c-3.623,6.14-6.712,11.479-9.839,16.78
				c-0.496-0.114-0.992-0.267-1.488-0.381c0.153-3.813,0.343-7.59,0.534-11.403c0.343-0.038,0.725-0.038,1.068-0.076
				C113.534,144.626,113.648,145.389,113.801,146.189z"/>
			<linearGradient id="SVGID_7_" gradientUnits="userSpaceOnUse" x1="48.2881" y1="153.3213" x2="121.7334" y2="153.3213">
				<stop  offset="0" style="stop-color:#FAAF40"/>
				<stop  offset="0.1259" style="stop-color:#FAAF40"/>
				<stop  offset="0.1924" style="stop-color:#FAAF40"/>
				<stop  offset="0.4415" style="stop-color:#F9EC31"/>
				<stop  offset="0.4735" style="stop-color:#F9EC31"/>
				<stop  offset="0.5321" style="stop-color:#F9EC31"/>
				<stop  offset="0.7123" style="stop-color:#FAAF40"/>
				<stop  offset="0.7777" style="stop-color:#FAAF40"/>
				<stop  offset="0.9613" style="stop-color:#FAAF40"/>
			</linearGradient>
			<path fill="url(#SVGID_7_)" d="M121.733,126.243l-0.152,6.941c-0.152,0-0.305,0-0.458,0c-4.233,0.229-9.954,2.479-12.09,5.759
				c-2.746,4.195-2.593,10.259-3.661,15.522c-0.115,4.729,2.517,7.971,5.339,11.06c2.021,2.174,4.577,3.356,7.208,3.623
				l-0.763,11.327c-1.602-0.114-3.166-0.19-4.768-0.305c-17.314-1.03-33.79-6.179-50.609-9.573
				c-3.928-0.801-7.513-3.433-11.021-5.606c-2.327-1.449-3.395-12.853-1.488-14.95c7.933-8.734,16.247-16.819,28.871-18.23
				c9.191-0.992,18.307-2.289,27.459-3.547c1.221-0.152,7.513-0.534,11.823-2.098C118.606,126.167,120.094,126.205,121.733,126.243z
				"/>
		</g>
		<g>
		</g>
	</g>
</g>
<g>
</g>
<g>
</g>
<g>
</g>
<g>
</g>
<g>
</g>
<g>
</g>
<g>
</g>
<g>
</g>
<g>
</g>
<g>
</g>
<g>
</g>
<g>
</g>
<g>
</g>
<g>
</g>
<g>
</g>
</svg>
