<?xml version="1.0" encoding="utf-8"?>
<!-- Generator: Adobe Illustrator 16.0.0, SVG Export Plug-In . SVG Version: 6.00 Build 0)  -->
<!DOCTYPE svg PUBLIC "-//W3C//DTD SVG 1.1//EN" "http://www.w3.org/Graphics/SVG/1.1/DTD/svg11.dtd">
<svg version="1.1" id="Layer_1" xmlns="http://www.w3.org/2000/svg" xmlns:xlink="http://www.w3.org/1999/xlink" x="0px" y="0px"
	 width="227px" height="222px" viewBox="0 0 227 222" enable-background="new 0 0 227 222" xml:space="preserve">
<g>
	
		<path fill="#FFFFFF" stroke="#000000" stroke-width="3" stroke-linecap="round" stroke-linejoin="round" stroke-miterlimit="10" d="
		M60.872,38.342c0,0,2.5-29.75,34.75-32c0,0,34-4.5,38.5,22.75c0,0,15.5-18.25,25.75,6c0,0,57.25-17,37,34.5
		c0,0,22.25-5.25,24.25,15.5c0,0,2.75,15.25-17.75,11.75c0,0,4.25,47-78.25,15.5c0,0-22.5,36.5-55,2.75
		c0,0-61.667,10.75-64.25-28.75c0,0-4-39.75,34.75-33C40.622,53.342,33.872,30.092,60.872,38.342z"/>
	<path fill="#AFD6E8" d="M21.879,58.362c0,0-12.552,27.48,3.948,38.231c0,0,24.25,16.75,37.25-13.001c0,0,6.25,20.501,25,8.001
		c0,0,10.5,20,27,2.25c0,0,21.5,13.25,43-10.251c0,0,2,25.251,27.75,13.001c0,0,15.5-8.501-5.5-25.001c0,0,23.887-2.066,11.127-34.5
		c0,0,13.963,7.416,3.668,33.668c0,0,16.832-3.021,23.166,8.166c0,0,9.166,19.667-16.5,15c0,0,4.334,48.333-76.666,16.334
		c0,0-23.045,35.083-54.795,2.083c0,0-58.872,10.291-62.872-28.583C7.455,83.76,7.455,62.725,21.879,58.362z"/>
	<g>
		<path fill="#78BAD5" d="M61.372,86.592c0.453,1.441,1.001,2.841,1.643,4.184c0.625,1.347,1.348,2.639,2.184,3.82
			c1.623,2.383,3.807,4.336,6.272,5.007c2.456,0.72,5.095,0.118,7.527-1.062c2.45-1.176,4.739-2.889,6.896-4.765l2.315-2.015
			l1.358,3.017c0.215,0.479,0.554,1.133,0.869,1.689c0.327,0.574,0.683,1.138,1.06,1.679c0.75,1.084,1.604,2.069,2.514,2.932
			c1.83,1.731,3.972,2.799,6.209,2.992c2.244,0.199,4.646-0.466,6.946-1.645c2.299-1.192,4.506-2.83,6.576-4.676l1.097-0.975
			l1.452,0.334c2.229,0.513,4.664,0.975,7.024,1.304c2.384,0.325,4.771,0.599,7.156,0.706c2.381,0.112,4.765,0.127,7.094-0.086
			c2.332-0.186,4.621-0.597,6.761-1.305c2.129-0.719,4.096-1.771,5.643-3.273c1.562-1.496,2.594-3.495,3.172-5.718
			c0.584-2.23,0.617-4.654,0.455-7.083c-0.199-2.433-0.651-4.878-1.221-7.313c1.104,2.246,2.018,4.604,2.645,7.078
			c0.642,2.471,0.933,5.086,0.654,7.766c-0.252,2.676-1.334,5.396-3.127,7.59c-1.783,2.216-4.193,3.807-6.688,4.885
			c-5.043,2.149-10.366,2.646-15.524,2.654c-2.588-0.024-5.16-0.167-7.713-0.471c-2.568-0.312-5.045-0.668-7.665-1.271l2.547-0.643
			c-2.312,2.082-4.831,4.044-7.788,5.525c-1.475,0.742-3.059,1.362-4.754,1.762c-1.694,0.389-3.51,0.529-5.316,0.322
			c-1.806-0.207-3.584-0.764-5.15-1.618c-1.572-0.848-2.946-1.94-4.129-3.147c-1.188-1.205-2.17-2.543-3.025-3.926
			c-0.426-0.693-0.816-1.402-1.177-2.129c-0.367-0.746-0.669-1.423-0.987-2.314l3.674,1.002c-2.511,1.897-5.229,3.636-8.336,4.785
			c-1.549,0.573-3.212,0.96-4.936,1.048c-1.719,0.09-3.504-0.174-5.112-0.847c-1.619-0.656-2.989-1.742-4.093-2.951
			c-1.104-1.221-1.971-2.578-2.65-3.99C62.39,92.614,61.624,89.613,61.372,86.592z"/>
	</g>
	
		<path fill="none" stroke="#000000" stroke-width="1.4173" stroke-linecap="round" stroke-linejoin="round" stroke-miterlimit="10" d="
		M60.872,38.342c0,0-0.932,34.916,37.318-9.834"/>
	
		<path fill="#AFD6E8" stroke="#000000" stroke-width="1.4173" stroke-linecap="round" stroke-linejoin="round" stroke-miterlimit="10" d="
		M37.81,153.42c0,0,8.221,10.51,10.74-22.494"/>
	
		<path fill="#AFD6E8" stroke="#000000" stroke-width="1.4173" stroke-linecap="round" stroke-linejoin="round" stroke-miterlimit="10" d="
		M48.55,130.926c0,0-16.75,17.84-10.453,22.812"/>
	<g>
		<path fill="#FFFFFF" d="M45.481,138.617c-0.523,1.322-1.09,2.48-1.646,3.619c-0.561,1.129-1.104,2.223-1.611,3.312
			c-0.505,1.092-0.975,2.174-1.381,3.309c-0.415,1.139-0.747,2.316-1.087,3.707c-0.829-1.178-1.14-2.652-1.11-4.084
			c0.037-1.441,0.412-2.855,1.01-4.129c0.599-1.277,1.412-2.43,2.38-3.416C43.012,139.961,44.129,139.107,45.481,138.617z"/>
	</g>
	<path fill="#AFD6E8" stroke="#000000" stroke-miterlimit="10" d="M77.183,62.268c0,0-4.75-8.5,6.75-8c0,0,11-5.25,10,6
		c0,0,3.75,14.75-5.5,13.75c0,0-7.75,6.25-8-2.5C80.433,71.518,72.683,68.268,77.183,62.268z"/>
	<path fill="#FFFFFF" stroke="#FFFFFF" stroke-linecap="round" stroke-linejoin="round" d="M79.933,61.018c0,0-2-4.25,7-3.5
		c0,0,2.916,1.668-2.166,6.084c0,0,0.998,5.666-4.168,4.166C80.599,67.768,75.515,66.768,79.933,61.018z"/>
	<path fill="#FFFFFF" stroke="#FFFFFF" stroke-linecap="round" stroke-linejoin="round" d="M83.349,72.102
		c0,0,0.748-3.917,4.416-4.834c0,0,2.667-2.332,4.834,2.418c0,0,0.418,3.166-5.666,2.75C86.933,72.436,84.599,74.936,83.349,72.102z
		"/>
	<path fill="#FFFFFF" stroke="#FFFFFF" stroke-linecap="round" stroke-linejoin="round" d="M87.978,63.418
		c0,0,2.871-1.906,1.705-4.15c0,0-0.084-2.332,2.416,0.484c0,0,1.29,4.5-1.416,4.084C90.683,63.836,87.854,65.836,87.978,63.418z"/>
	<path fill="#AFD6E8" stroke="#000000" stroke-miterlimit="10" d="M140.706,62.268c0,0,4.75-8.5-6.75-8c0,0-11-5.25-10,6
		c0,0-3.75,14.75,5.5,13.75c0,0,7.75,6.25,8-2.5C137.456,71.518,145.206,68.268,140.706,62.268z"/>
	<path fill="#FFFFFF" stroke="#FFFFFF" stroke-linecap="round" stroke-linejoin="round" d="M137.956,61.018c0,0,2-4.25-7-3.5
		c0,0-2.918,1.668,2.166,6.084c0,0-1,5.666,4.166,4.166C137.288,67.768,142.372,66.768,137.956,61.018z"/>
	<path fill="#FFFFFF" stroke="#FFFFFF" stroke-linecap="round" stroke-linejoin="round" d="M134.538,72.102
		c0,0-0.748-3.917-4.416-4.834c0,0-2.666-2.332-4.834,2.418c0,0-0.418,3.166,5.666,2.75
		C130.954,72.436,133.288,74.936,134.538,72.102z"/>
	<path fill="#FFFFFF" stroke="#FFFFFF" stroke-linecap="round" stroke-linejoin="round" d="M129.911,63.418
		c0,0-2.873-1.906-1.707-4.15c0,0,0.084-2.332-2.416,0.484c0,0-1.289,4.5,1.416,4.084C127.204,63.836,130.032,65.836,129.911,63.418
		z"/>
	<path fill="none" stroke="#000000" stroke-linecap="round" stroke-linejoin="round" d="M85.231,102.259c0,0,21.293-30.333,51.627,0
		"/>
	
		<path fill="#AFD6E8" stroke="#000000" stroke-width="1.4173" stroke-linecap="round" stroke-linejoin="round" stroke-miterlimit="10" d="
		M45.875,176.549c0,0,8.222,10.512,10.741-22.494"/>
	
		<path fill="#AFD6E8" stroke="#000000" stroke-width="1.4173" stroke-linecap="round" stroke-linejoin="round" stroke-miterlimit="10" d="
		M56.616,154.055c0,0-16.75,17.84-10.453,22.812"/>
	<g>
		<path fill="#FFFFFF" d="M53.547,161.746c-0.524,1.324-1.091,2.48-1.647,3.619c-0.56,1.131-1.104,2.225-1.61,3.314
			c-0.505,1.09-0.976,2.172-1.382,3.307c-0.414,1.139-0.746,2.318-1.086,3.707c-0.83-1.178-1.141-2.65-1.11-4.084
			c0.036-1.439,0.412-2.854,1.01-4.127c0.599-1.279,1.411-2.43,2.38-3.416C51.078,163.092,52.194,162.238,53.547,161.746z"/>
	</g>
	
		<path fill="#AFD6E8" stroke="#000000" stroke-width="1.4173" stroke-linecap="round" stroke-linejoin="round" stroke-miterlimit="10" d="
		M73.321,160.154c0,0,8.223,10.512,10.742-22.494"/>
	
		<path fill="#AFD6E8" stroke="#000000" stroke-width="1.4173" stroke-linecap="round" stroke-linejoin="round" stroke-miterlimit="10" d="
		M84.063,137.66c0,0-16.75,17.84-10.453,22.814"/>
	<g>
		<path fill="#FFFFFF" d="M80.995,145.352c-0.524,1.324-1.092,2.48-1.647,3.619c-0.56,1.131-1.104,2.223-1.61,3.312
			c-0.506,1.09-0.976,2.172-1.381,3.309c-0.416,1.139-0.748,2.316-1.088,3.707c-0.828-1.178-1.14-2.65-1.109-4.084
			c0.035-1.439,0.412-2.854,1.01-4.127c0.598-1.279,1.411-2.432,2.379-3.416C78.524,146.697,79.642,145.844,80.995,145.352z"/>
	</g>
	
		<path fill="#AFD6E8" stroke="#000000" stroke-width="1.4173" stroke-linecap="round" stroke-linejoin="round" stroke-miterlimit="10" d="
		M62.669,191.213c0,0,8.223,10.512,10.741-22.494"/>
	
		<path fill="#AFD6E8" stroke="#000000" stroke-width="1.4173" stroke-linecap="round" stroke-linejoin="round" stroke-miterlimit="10" d="
		M73.41,168.719c0,0-16.75,17.84-10.453,22.812"/>
	<g>
		<path fill="#FFFFFF" d="M70.341,176.41c-0.523,1.324-1.091,2.48-1.646,3.619c-0.561,1.131-1.104,2.223-1.611,3.314
			c-0.505,1.09-0.975,2.172-1.381,3.307c-0.415,1.139-0.747,2.318-1.088,3.707c-0.828-1.178-1.139-2.65-1.109-4.084
			c0.036-1.439,0.412-2.855,1.01-4.127c0.598-1.279,1.411-2.43,2.379-3.416C67.872,177.756,68.987,176.902,70.341,176.41z"/>
	</g>
	
		<path fill="#AFD6E8" stroke="#000000" stroke-width="1.4173" stroke-linecap="round" stroke-linejoin="round" stroke-miterlimit="10" d="
		M70.733,214.344c0,0,8.223,10.51,10.742-22.494"/>
	
		<path fill="#AFD6E8" stroke="#000000" stroke-width="1.4173" stroke-linecap="round" stroke-linejoin="round" stroke-miterlimit="10" d="
		M81.476,191.85c0,0-16.75,17.84-10.453,22.812"/>
	<g>
		<path fill="#FFFFFF" d="M78.407,199.541c-0.524,1.322-1.092,2.48-1.647,3.619c-0.56,1.129-1.104,2.223-1.61,3.312
			c-0.506,1.092-0.976,2.174-1.381,3.309c-0.416,1.139-0.748,2.316-1.088,3.707c-0.828-1.178-1.14-2.652-1.109-4.084
			c0.035-1.441,0.412-2.854,1.01-4.129c0.598-1.277,1.41-2.43,2.379-3.416C75.937,200.885,77.053,200.031,78.407,199.541z"/>
	</g>
	
		<path fill="#AFD6E8" stroke="#000000" stroke-width="1.4173" stroke-linecap="round" stroke-linejoin="round" stroke-miterlimit="10" d="
		M98.181,197.949c0,0,8.223,10.51,10.741-22.494"/>
	
		<path fill="#AFD6E8" stroke="#000000" stroke-width="1.4173" stroke-linecap="round" stroke-linejoin="round" stroke-miterlimit="10" d="
		M108.922,175.455c0,0-16.75,17.84-10.453,22.814"/>
	<g>
		<path fill="#FFFFFF" d="M105.854,183.146c-0.524,1.322-1.092,2.48-1.647,3.619c-0.56,1.129-1.104,2.223-1.611,3.311
			c-0.505,1.096-0.975,2.174-1.381,3.312c-0.415,1.139-0.747,2.314-1.087,3.707c-0.829-1.182-1.141-2.652-1.109-4.084
			c0.035-1.441,0.411-2.855,1.01-4.129c0.598-1.277,1.41-2.432,2.379-3.416C103.384,184.49,104.501,183.637,105.854,183.146z"/>
	</g>
	
		<path fill="#AFD6E8" stroke="#000000" stroke-width="1.4173" stroke-linecap="round" stroke-linejoin="round" stroke-miterlimit="10" d="
		M110.094,160.633c0,0,8.222,10.51,10.741-22.494"/>
	
		<path fill="#AFD6E8" stroke="#000000" stroke-width="1.4173" stroke-linecap="round" stroke-linejoin="round" stroke-miterlimit="10" d="
		M120.835,138.139c0,0-16.75,17.84-10.453,22.812"/>
	<g>
		<path fill="#FFFFFF" d="M117.767,145.83c-0.521,1.322-1.091,2.48-1.646,3.619c-0.561,1.129-1.104,2.223-1.611,3.312
			c-0.505,1.092-0.975,2.174-1.381,3.309c-0.415,1.139-0.747,2.316-1.087,3.707c-0.829-1.178-1.14-2.652-1.11-4.084
			c0.036-1.441,0.412-2.854,1.01-4.129c0.599-1.277,1.412-2.43,2.379-3.416C115.297,147.174,116.413,146.32,117.767,145.83z"/>
	</g>
	
		<path fill="#AFD6E8" stroke="#000000" stroke-width="1.4173" stroke-linecap="round" stroke-linejoin="round" stroke-miterlimit="10" d="
		M118.159,183.762c0,0,8.223,10.512,10.742-22.494"/>
	
		<path fill="#AFD6E8" stroke="#000000" stroke-width="1.4173" stroke-linecap="round" stroke-linejoin="round" stroke-miterlimit="10" d="
		M128.901,161.268c0,0-16.75,17.84-10.453,22.812"/>
	<g>
		<path fill="#FFFFFF" d="M125.833,168.959c-0.525,1.324-1.092,2.48-1.648,3.619c-0.559,1.131-1.104,2.225-1.609,3.314
			c-0.504,1.09-0.975,2.172-1.381,3.307c-0.414,1.139-0.746,2.318-1.086,3.707c-0.83-1.178-1.143-2.65-1.11-4.084
			c0.036-1.439,0.411-2.854,1.01-4.127c0.599-1.279,1.412-2.43,2.379-3.416C123.362,170.305,124.479,169.451,125.833,168.959z"/>
	</g>
	
		<path fill="#AFD6E8" stroke="#000000" stroke-width="1.4173" stroke-linecap="round" stroke-linejoin="round" stroke-miterlimit="10" d="
		M145.605,167.367c0,0,8.226,10.514,10.742-22.494"/>
	
		<path fill="#AFD6E8" stroke="#000000" stroke-width="1.4173" stroke-linecap="round" stroke-linejoin="round" stroke-miterlimit="10" d="
		M156.348,144.873c0,0-16.75,17.842-10.453,22.814"/>
	<g>
		<path fill="#FFFFFF" d="M153.28,152.564c-0.525,1.324-1.093,2.48-1.648,3.619c-0.559,1.131-1.104,2.223-1.611,3.311
			c-0.504,1.094-0.975,2.172-1.381,3.311c-0.414,1.139-0.746,2.314-1.086,3.707c-0.83-1.18-1.141-2.65-1.108-4.084
			c0.034-1.439,0.409-2.855,1.01-4.127c0.598-1.279,1.412-2.434,2.379-3.416C150.809,153.91,151.926,153.057,153.28,152.564z"/>
	</g>
	
		<path fill="#AFD6E8" stroke="#000000" stroke-width="1.4173" stroke-linecap="round" stroke-linejoin="round" stroke-miterlimit="10" d="
		M62.58,94.254c0,0,8.222,10.51,10.741-22.496"/>
	
		<path fill="#AFD6E8" stroke="#000000" stroke-width="1.4173" stroke-linecap="round" stroke-linejoin="round" stroke-miterlimit="10" d="
		M73.321,71.76c0,0-16.75,17.839-10.453,22.812"/>
	<g>
		<path fill="#FFFFFF" d="M70.253,79.452c-0.523,1.322-1.091,2.48-1.646,3.618c-0.561,1.13-1.104,2.224-1.611,3.312
			c-0.506,1.093-0.975,2.175-1.381,3.31c-0.416,1.139-0.748,2.317-1.088,3.707c-0.828-1.178-1.14-2.651-1.109-4.084
			c0.036-1.44,0.412-2.854,1.01-4.129c0.598-1.277,1.411-2.429,2.379-3.415C67.782,80.795,68.899,79.942,70.253,79.452z"/>
	</g>
</g>
</svg>
