<?xml version="1.0" encoding="utf-8"?>
<!-- Generator: Adobe Illustrator 16.0.0, SVG Export Plug-In . SVG Version: 6.00 Build 0)  -->
<!DOCTYPE svg PUBLIC "-//W3C//DTD SVG 1.1 Basic//EN" "http://www.w3.org/Graphics/SVG/1.1/DTD/svg11-basic.dtd">
<svg version="1.1" baseProfile="basic" id="Layer_1"
	 xmlns="http://www.w3.org/2000/svg" xmlns:xlink="http://www.w3.org/1999/xlink" x="0px" y="0px" width="300px" height="300px"
	 viewBox="0 0 300 300" xml:space="preserve">
<g>
	<g id="XMLID_8_">
		<g>
			<linearGradient id="SVGID_1_" gradientUnits="userSpaceOnUse" x1="230.3164" y1="91.5938" x2="241.1904" y2="91.5938">
				<stop  offset="0" style="stop-color:#26A9E0"/>
				<stop  offset="0" style="stop-color:#26A9E0"/>
				<stop  offset="0" style="stop-color:#26A9E0"/>
				<stop  offset="0" style="stop-color:#26A9E0"/>
				<stop  offset="0" style="stop-color:#26A9E0"/>
				<stop  offset="0.3197" style="stop-color:#FFFFFF"/>
				<stop  offset="0.5218" style="stop-color:#FFFFFF"/>
				<stop  offset="0.6672" style="stop-color:#FFFFFF"/>
				<stop  offset="1" style="stop-color:#26A9E0"/>
				<stop  offset="1" style="stop-color:#26A9E0"/>
			</linearGradient>
			<path fill="url(#SVGID_1_)" d="M232.78,101.922c-5.578-7.496-1.221-18.608,8.41-20.657
				C240.406,89.11,236.267,95.298,232.78,101.922z"/>
			<path d="M232.78,101.922c3.486-6.624,7.626-12.812,8.41-20.657C231.56,83.314,227.202,94.427,232.78,101.922z M224.936,85.929
				c0.349-1.917,1.003-3.748,1.308-5.622c1.264-6.886,3.225-8.629,10.677-8.847c6.145-1.22,9.282,2.396,11.592,8.193
				c4.751,11.766,3.269,22.922-2.048,33.992c-1.612,3.225-3.835,5.578-7.801,5.316c-4.794-0.305-8.716-2.004-10.895-6.667
				C223.89,103.796,223.192,94.993,224.936,85.929z"/>
			<path fill="#FFFFFF" d="M207.199,55.467c0.043-0.131,0.043-0.087,0,0.261C207.199,55.641,207.199,55.51,207.199,55.467z"/>
			<path d="M221.101,26.705c5.927-4.358,12.812-2.92,16.343,3.443c3.094,5.534,5.447,11.461,7.844,17.344
				c0.218,0.61-2.048,3.051-2.44,2.876c-1.787-0.741-3.53-1.917-4.925-3.269c-2.745-2.702-5.186-5.622-9.631-5.317
				c-5.752,0.349-7.364,5.099-9.631,8.978c-1.568,2.615-2.44,5.578-3.966,8.193c-1.133,1.917-2.483,3.355-5.534,2.135
				c-3.007-1.264-2.048-3.138-2.005-5.055c0-0.087,0-0.218,0.044-0.305c0.043-0.349,0.043-0.392,0-0.261
				c-0.175-8.672,3.704-14.773,7.277-20.918C216.177,31.585,218.398,28.666,221.101,26.705z"/>
			<path d="M264.506,171.039c-8.149,14.206-18.913,24.709-32.729,31.115c-5.883,2.789-13.553,2.702-20.308,2.396
				c-7.539-0.392-15.078-2.004-22.399-4.009c-4.576-1.308-8.76-4.228-12.986-6.711c-0.872-0.523-0.916-2.44-0.741-3.966
				c11.679,8.498,25.319,9.151,38.219,10.502c15.993,1.656,28.675-6.406,38.785-18.434c2.267-2.658,4.271-5.622,6.188-8.585
				c0.654-1.046,0.784-2.527,1.308-4.401C261.281,169.601,262.763,170.254,264.506,171.039z"/>
			<linearGradient id="SVGID_2_" gradientUnits="userSpaceOnUse" x1="5.4858" y1="150.1406" x2="290.2412" y2="150.1406">
				<stop  offset="0" style="stop-color:#FAAF40"/>
				<stop  offset="0.1259" style="stop-color:#FAAF40"/>
				<stop  offset="0.1924" style="stop-color:#FAAF40"/>
				<stop  offset="0.4415" style="stop-color:#F9EC31"/>
				<stop  offset="0.4735" style="stop-color:#F9EC31"/>
				<stop  offset="0.5321" style="stop-color:#F9EC31"/>
				<stop  offset="0.7123" style="stop-color:#FAAF40"/>
				<stop  offset="0.7777" style="stop-color:#FAAF40"/>
				<stop  offset="0.9613" style="stop-color:#FAAF40"/>
			</linearGradient>
			<path fill="url(#SVGID_2_)" d="M157.214,203.156c6.449-2.832,12.551-17.954,10.503-23.141
				C164.317,187.425,160.962,194.877,157.214,203.156z M178.654,99.002c-11.81,6.667-23.707,13.161-35.517,19.872
				c-1.046,0.566-1.482,2.179-2.179,3.312c0.436,0.392,0.872,0.741,1.308,1.089c1.656-0.872,3.399-1.569,4.968-2.571
				c9.326-5.97,18.434-12.42,28.065-17.824c5.709-3.225,11.244-8.454,18.826-5.447c2.005-2.528,1.525-3.878-1.307-5.186
				c-14.6-6.842-29.024-13.945-43.667-20.657c-1.917-0.915-4.619-0.13-7.016-0.13c-0.043,0.392-0.087,0.828-0.131,1.22
				c14.207,6.406,28.414,12.769,44.146,19.829c-2.31,1.612-3.617,2.31-4.663,3.268C180.441,96.736,179.831,98.349,178.654,99.002z
				 M175.343,189.865c-0.175,1.525-0.131,3.442,0.741,3.966c4.227,2.483,8.41,5.403,12.986,6.711
				c7.321,2.005,14.86,3.617,22.399,4.009c6.755,0.306,14.425,0.393,20.308-2.396c13.815-6.406,24.579-16.909,32.729-31.115
				c-1.743-0.785-3.225-1.438-4.663-2.092c-0.523,1.874-0.653,3.355-1.308,4.401c-1.917,2.963-3.922,5.927-6.188,8.585
				c-10.11,12.027-22.792,20.09-38.785,18.434C200.662,199.017,187.021,198.363,175.343,189.865z M209.16,61.088
				c3.051,1.22,4.401-0.218,5.534-2.135c1.525-2.615,2.397-5.578,3.966-8.193c2.267-3.878,3.879-8.629,9.631-8.978
				c4.445-0.305,6.886,2.615,9.631,5.317c1.395,1.351,3.138,2.527,4.925,3.269c0.393,0.174,2.658-2.266,2.44-2.876
				c-2.396-5.883-4.75-11.81-7.844-17.344c-3.53-6.363-10.416-7.801-16.343-3.443c-2.702,1.961-4.924,4.881-6.624,7.844
				c-3.573,6.145-7.452,12.246-7.277,20.918c0,0.043,0,0.174,0,0.261c-0.044,0.087-0.044,0.218-0.044,0.305
				C207.112,57.951,206.153,59.825,209.16,61.088z M246.464,113.645c5.316-11.069,6.799-22.226,2.048-33.992
				c-2.31-5.796-5.447-9.413-11.592-8.193c-7.452,0.218-9.413,1.961-10.677,8.847c-0.305,1.874-0.959,3.704-1.308,5.622
				c-1.743,9.064-1.046,17.867,2.833,26.365c2.179,4.663,6.101,6.363,10.895,6.667C242.629,119.223,244.852,116.87,246.464,113.645z
				 M20.724,23.698c0.741-0.567,1.656-1.656,2.354-1.569c6.842,1.133,12.507-4.445,19.306-3.312
				c12.333,2.135,24.056-3.007,36.301-3.007c12.29-0.043,24.579-2.179,36.912-2.702c12.986-0.566,26.017-0.262,39.047-0.349
				c12.595-0.087,25.232,0.392,37.783-0.436c18.173-1.176,36.302-1.525,54.518-0.436c16.69,0.958,27.586,9.805,35.256,23.489
				c1.612,2.876,1.524,6.798,1.83,10.285c1.046,10.895,1.874,21.833,2.876,32.728c0.218,2.396,1.133,4.75,1.177,7.147
				c0.087,5.622-0.349,11.287-0.218,16.909c0.262,8.28,0.828,16.516,1.308,24.796c0.087,0.043,0.218,0.043,0.349,0.087
				c0.13-1.046,0.261-2.092,0.261-2.135c0,5.229,0.044,11.461,0,17.693c-0.043,6.275-0.218,12.594-0.174,18.87
				c0.043,4.881,0.871,9.762,0.566,14.599c-0.61,10.546-2.179,21.092-2.484,31.639c-0.218,7.19,1.264,14.381,1.569,21.615
				c0.349,8.759,0.392,17.562,0.349,26.321c0,10.59-6.058,18.565-16.517,20.962c-18.216,4.184-36.476,8.367-55.39,7.844
				c-18.129-0.436-36.258-1.133-54.387-1.046c-15.383,0.088-30.81,1.046-46.193,1.918c-8.28,0.479-16.56,1.743-24.884,2.396
				c-7.321,0.61-14.687,1.046-22.051,1.046c-2.746,0-5.491-1.961-8.324-2.135c-9.674-0.654-18.347-4.097-26.409-9.108
				c-2.223-1.395-4.489-3.312-5.752-5.491c-4.184-7.233-7.278-14.773-7.583-23.489c-0.261-8.454-2.31-16.821-3.138-25.275
				c-1.176-12.071-1.961-24.23-2.876-36.345c-0.828-10.938-1.438-21.877-2.528-32.772c-0.958-9.849-2.702-19.61-3.53-29.459
				c-0.872-10.851-0.915-21.79-1.612-32.641c-0.305-4.62-1.482-9.152-1.831-13.771C5.994,70.85,5.34,63.093,5.515,55.379
				c0.043-3.007,2.266-5.883,3.269-8.934c0.261-0.828-0.828-2.179-0.523-3.007C11.093,36.074,14.1,28.753,20.724,23.698z"/>
			<path d="M167.717,180.016c2.048,5.187-4.054,20.309-10.503,23.141C160.962,194.877,164.317,187.425,167.717,180.016z"/>
			<path d="M181.487,95.777c1.046-0.958,2.354-1.656,4.663-3.268c-15.732-7.06-29.939-13.422-44.146-19.829
				c0.044-0.393,0.087-0.828,0.131-1.22c2.397,0,5.099-0.785,7.016,0.13c14.643,6.711,29.067,13.815,43.667,20.657
				c2.832,1.308,3.312,2.658,1.307,5.186c-7.582-3.007-13.117,2.223-18.826,5.447c-9.631,5.404-18.739,11.854-28.065,17.824
				c-1.569,1.002-3.312,1.7-4.968,2.571c-0.436-0.349-0.872-0.697-1.308-1.089c0.697-1.133,1.133-2.746,2.179-3.312
				c11.81-6.711,23.707-13.205,35.517-19.872C179.831,98.349,180.441,96.736,181.487,95.777z"/>
			<linearGradient id="SVGID_3_" gradientUnits="userSpaceOnUse" x1="2" y1="150.457" x2="294.4395" y2="150.457">
				<stop  offset="0" style="stop-color:#231F20"/>
				<stop  offset="0" style="stop-color:#231F20"/>
				<stop  offset="0" style="stop-color:#FAAF40"/>
				<stop  offset="0" style="stop-color:#FAAF40"/>
				<stop  offset="0" style="stop-color:#FAAF40"/>
				<stop  offset="0" style="stop-color:#1B75BB"/>
				<stop  offset="0" style="stop-color:#FAAF40"/>
				<stop  offset="0" style="stop-color:#231F20"/>
				<stop  offset="0.4124" style="stop-color:#231F20"/>
				<stop  offset="0.6001" style="stop-color:#231F20"/>
				<stop  offset="1" style="stop-color:#231F20"/>
			</linearGradient>
			<path fill="url(#SVGID_3_)" d="M273.57,281.163c-9.806,2.049-19.523,4.576-29.416,5.665c-10.154,1.134-20.482,1.046-30.724,1.09
				c-12.115,0.044-24.229-0.566-36.345-0.436c-8.193,0.087-16.386,0.959-24.579,1.308c-10.677,0.479-21.31,0.522-31.943,1.133
				c-15.732,0.915-31.464,2.266-47.24,3.181c-3.443,0.175-6.929-0.74-10.416-1.002c-9.979-0.784-19.305-4.053-27.498-9.413
				c-4.009-2.571-6.494-7.626-9.5-11.679c-5.883-7.976-6.842-17.258-7.583-26.802c-0.872-11.069-2.789-22.051-3.705-33.12
				c-1.612-19.959-2.658-39.962-4.227-59.921c-0.654-8.15-2.397-16.255-3.181-24.405C5.428,108.851,3.859,90.984,2.42,73.073
				C1.2,58.299,2.246,43.918,10.832,31.106c2.615-3.966,5.099-8.019,7.975-11.766c0.872-1.09,2.876-1.7,4.402-1.787
				c8.716-0.653,17.475-0.872,26.191-1.612c5.535-0.479,10.982-1.961,16.473-2.484c6.188-0.566,12.464-1.089,18.652-0.741
				c5.927,0.349,11.548-0.523,17.344-1.351c10.198-1.525,20.526-2.833,30.811-3.225c8.803-0.305,17.649,1.133,26.496,1.133
				c12.812-0.043,25.625-0.741,38.48-1.046c11.854-0.262,23.707-0.436,35.604-0.436c7.016-0.043,14.076,0.349,21.092,0.697
				c1.918,0.087,4.097,0.044,5.622,0.959c10.938,6.581,22.226,12.986,26.539,26.147c1.308,4.053,1.352,8.585,1.743,12.899
				c1.308,14.12,2.615,28.239,3.705,42.359c0.392,5.143,0.043,10.328,0.043,15.514c0.175,0,0.349,0,0.523,0
				c0.566,14.512,1.351,29.024,1.699,43.579c0.262,11.243,0.349,22.574-0.131,33.817c-0.305,7.496-2.571,14.991-2.527,22.443
				c0.087,11.505,1.656,23.054,2.136,34.559c0.261,7.539,1.438,15.688-0.916,22.486C289.869,271.837,283.506,279.071,273.57,281.163
				z M115.596,13.108c-12.333,0.523-24.622,2.658-36.912,2.702c-12.246,0-23.969,5.143-36.301,3.007
				c-6.798-1.133-12.464,4.445-19.306,3.312c-0.697-0.087-1.612,1.002-2.354,1.569C14.1,28.753,11.093,36.074,8.26,43.439
				c-0.305,0.828,0.784,2.179,0.523,3.007c-1.002,3.051-3.225,5.927-3.269,8.934C5.34,63.093,5.994,70.85,6.604,78.564
				c0.349,4.619,1.525,9.151,1.831,13.771c0.697,10.851,0.741,21.79,1.612,32.641c0.828,9.849,2.571,19.61,3.53,29.459
				c1.09,10.896,1.7,21.834,2.528,32.772c0.915,12.114,1.7,24.273,2.876,36.345c0.828,8.454,2.876,16.821,3.138,25.275
				c0.305,8.716,3.399,16.256,7.583,23.489c1.264,2.18,3.53,4.097,5.752,5.491c8.062,5.012,16.734,8.454,26.409,9.108
				c2.833,0.174,5.578,2.135,8.324,2.135c7.365,0,14.73-0.436,22.051-1.046c8.324-0.653,16.604-1.917,24.884-2.396
				c15.383-0.872,30.81-1.83,46.193-1.918c18.129-0.087,36.258,0.61,54.387,1.046c18.914,0.523,37.174-3.66,55.39-7.844
				c10.459-2.396,16.517-10.372,16.517-20.962c0.043-8.759,0-17.562-0.349-26.321c-0.306-7.234-1.787-14.425-1.569-21.615
				c0.306-10.547,1.874-21.093,2.484-31.639c0.305-4.837-0.523-9.718-0.566-14.599c-0.044-6.276,0.131-12.595,0.174-18.87
				c0.044-6.232,0-12.464,0-17.693c0,0.043-0.131,1.089-0.261,2.135c-0.131-0.043-0.262-0.043-0.349-0.087
				c-0.479-8.28-1.046-16.517-1.308-24.796c-0.131-5.622,0.305-11.287,0.218-16.909c-0.044-2.397-0.959-4.75-1.177-7.147
				c-1.002-10.895-1.83-21.833-2.876-32.728c-0.306-3.486-0.218-7.409-1.83-10.285c-7.67-13.684-18.565-22.531-35.256-23.489
				c-18.216-1.089-36.345-0.741-54.518,0.436c-12.551,0.828-25.188,0.349-37.783,0.436
				C141.612,12.846,128.582,12.542,115.596,13.108z"/>
		</g>
		<g>
		</g>
	</g>
</g>
<g>
</g>
<g>
</g>
<g>
</g>
<g>
</g>
<g>
</g>
<g>
</g>
<g>
</g>
<g>
</g>
<g>
</g>
<g>
</g>
<g>
</g>
<g>
</g>
<g>
</g>
<g>
</g>
<g>
</g>
</svg>
