<?xml version="1.0" encoding="utf-8"?>
<!-- Generator: Adobe Illustrator 16.0.0, SVG Export Plug-In . SVG Version: 6.00 Build 0)  -->
<!DOCTYPE svg PUBLIC "-//W3C//DTD SVG 1.1 Basic//EN" "http://www.w3.org/Graphics/SVG/1.1/DTD/svg11-basic.dtd">
<svg version="1.1" baseProfile="basic" id="Layer_1"
	 xmlns="http://www.w3.org/2000/svg" xmlns:xlink="http://www.w3.org/1999/xlink" x="0px" y="0px" width="300px" height="300px"
	 viewBox="0 0 300 300" xml:space="preserve">
<g>
	<g id="XMLID_6_">
		<g>
			<linearGradient id="SVGID_1_" gradientUnits="userSpaceOnUse" x1="8.8662" y1="147.9814" x2="283.0674" y2="147.9814">
				<stop  offset="0" style="stop-color:#FAAF40"/>
				<stop  offset="0.1259" style="stop-color:#FAAF40"/>
				<stop  offset="0.1924" style="stop-color:#FAAF40"/>
				<stop  offset="0.4415" style="stop-color:#F9EC31"/>
				<stop  offset="0.4735" style="stop-color:#F9EC31"/>
				<stop  offset="0.5321" style="stop-color:#F9EC31"/>
				<stop  offset="0.7123" style="stop-color:#FAAF40"/>
				<stop  offset="0.7777" style="stop-color:#FAAF40"/>
				<stop  offset="0.9613" style="stop-color:#FAAF40"/>
			</linearGradient>
			<path fill="url(#SVGID_1_)" d="M131.473,117.158c-3.525-7.781-13.026-8.813-17.625-2.494c-2.837,3.783-4.127,7.781-4.127,12.639
				c0.043,8.512,1.849,16.551,5.459,24.117c2.322,4.729,8.426,7.223,13.413,5.804c4.643-1.333,5.202-5.503,5.674-9.5
				c0.559-4.385,0.989-8.77,1.634-15.003C134.741,128.55,133.881,122.531,131.473,117.158z M184.265,78.768
				c0.301,6.147,3.912,8.942,9.156,10.532c6.75,1.978,13.37,4.17,16.637,11.349c0.259,0.559,0.774,1.204,1.247,1.333
				c1.118,0.301,2.192,0.258,3.311,0.387c-0.129-0.989-0.086-2.106-0.603-2.923c-4.514-7.265-10.833-11.951-19.345-13.799
				c-4.471-0.946-7.652-3.654-7.738-8.856c-0.043-2.192-0.645-4.385-1.247-6.535c-1.16-4.342-3.267-8.297-8.125-8.855
				c-5.029-0.559-9.543,1.032-12.768,5.159c0.215,0.473,0.387,0.903,0.602,1.333c1.29-0.731,2.537-1.418,3.783-2.149
				c6.19-3.611,9.974-2.708,12.983,3.869C183.404,72.406,184.179,75.673,184.265,78.768z M182.674,138.738
				c0.43-9.888,0.43-19.861-7.137-27.556c-1.892-1.935-5.502-2.751-8.426-2.837c-1.375-0.043-3.912,2.407-4.299,4.127
				c-2.493,11.478-2.45,22.914,2.579,33.875c1.935,4.17,7.309,7.222,11.822,6.062c4.471-1.118,5.546-4.729,5.288-8.899
				C182.416,141.919,182.588,140.329,182.674,138.738z M168.53,198.622c-6.792-0.645-13.843,0.044-20.721,0.989
				c-20.334,2.794-36.455,13.542-50.512,27.857c-1.161,1.203-1.591,3.095-2.408,4.686c0.387,0.258,0.688,0.516,1.075,0.773
				c1.462-1.289,3.095-2.45,4.342-3.912c13.413-14.917,30.049-23.944,49.868-27.04c16.164-2.536,29.447-0.172,37.96,15.82
				c2.837,5.288,5.76,10.532,8.77,15.691c0.688,1.16,2.106,1.892,3.138,2.837c0.13-1.505,0.946-3.396,0.302-4.471
				c-4.127-7.266-8.384-14.487-13.069-21.452C182.889,203.781,176.397,199.311,168.53,198.622z M10.071,146.605
				C9.727,130.441,9.297,114.32,9.04,98.199c-0.086-8.555,0.258-17.153-0.086-25.665c-0.516-14.315,1.161-28.201,7.394-41.227
				c1.375-2.794,3.525-5.159,5.717-8.211c0,0-0.516-0.946-1.032-2.106l1.505-0.086c2.794-1.075,5.976,1.849,6.964-2.494
				c0.086-0.344,1.161-0.73,1.676-0.602c3.826,0.989,7.566,2.063,11.35,3.138c0.086-0.387,0.129-0.731,0.215-1.118
				c1.333-0.688,2.536-1.72,3.955-2.063c4.6-1.161,9.286-1.935,13.928-3.052c26.439-6.492,53.264-9.286,80.391-8.684
				c19.947,0.43,39.894,0.86,59.841,1.806c6.448,0.301,13.499-0.817,19.001,4.127c0.603,0.473,2.278,0.645,2.666,0.215
				c2.708-3.009,5.717-1.247,8.34-0.43c12.381,3.74,20.678,12.983,28.803,22.269c3.267,3.697,7.265,7.308,8.77,11.693
				c3.826,11.521,7.395,23.257,9.501,35.208c2.235,12.768,2.837,25.836,3.783,38.776c0.816,11.865,1.634,23.773,1.246,35.595
				c-0.43,13.241-2.192,26.396-3.181,39.594c-1.247,15.992-2.536,31.897-7.438,47.331c-4.9,15.391-15.046,26.009-30.007,30.222
				c-11.908,3.354-24.633,4.299-37.143,5.029c-16.594,0.989-33.188,1.677-49.438,5.546c-7.954,1.892-15.992,4.729-24.117,5.288
				c-16.551,1.16-33.188,0.902-49.782,1.547c-11.822,0.474-23.472,0.043-34.993-2.665c-12.295-2.923-22.569-8.641-25.493-21.839
				c-3.224-14.444-5.847-29.104-7.48-43.763c-1.676-15.734-2.021-31.598-2.794-47.418C10.587,164.962,10.329,155.762,10.071,146.605
				z M120.984,68.494c-0.946-0.559-1.806-1.462-2.794-1.677c-4.471-0.946-9.028-1.247-13.284-2.536
				c-4.428-1.376-7.867-0.731-10.661,2.665c-6.664,7.824-11.393,16.68-13.671,26.74c-1.849,8.555-7.437,11.564-15.562,8.168
				c-1.161-0.516-2.494-0.903-3.697-1.376c6.492,9.028,17.067,7.566,20.506-2.192c3.568-10.36,6.964-20.678,14.617-28.932
				c2.149-2.322,3.826-3.139,7.308-1.72c4.6,1.806,9.716,2.235,14.659,2.966C119.135,70.729,120.124,69.224,120.984,68.494z"/>
			<linearGradient id="SVGID_2_" gradientUnits="userSpaceOnUse" x1="169.1865" y1="129.646" x2="176.9365" y2="129.646">
				<stop  offset="0" style="stop-color:#26A9E0"/>
				<stop  offset="0" style="stop-color:#26A9E0"/>
				<stop  offset="0" style="stop-color:#26A9E0"/>
				<stop  offset="0" style="stop-color:#26A9E0"/>
				<stop  offset="0" style="stop-color:#26A9E0"/>
				<stop  offset="0.3197" style="stop-color:#FFFFFF"/>
				<stop  offset="0.5218" style="stop-color:#FFFFFF"/>
				<stop  offset="0.6672" style="stop-color:#FFFFFF"/>
				<stop  offset="1" style="stop-color:#26A9E0"/>
				<stop  offset="1" style="stop-color:#26A9E0"/>
			</linearGradient>
			<path fill="url(#SVGID_2_)" d="M171.97,140.028c-3.182-7.179-3.783-13.885-1.032-20.764c3.697,2.278,4.084,4.17,2.021,7.222
				c-1.074,1.504-1.29,3.525-1.849,5.331c0.646,0.258,1.333,0.559,2.021,0.817c0.817-1.634,1.677-3.224,2.407-4.729
				C177.988,132.763,177.472,134.912,171.97,140.028z"/>
			<path fill="#231F20" d="M210.058,100.649c-3.267-7.179-9.887-9.372-16.637-11.349c-5.244-1.59-8.855-4.385-9.156-10.532
				c-0.086-3.095-0.86-6.362-2.106-9.157c-3.01-6.578-6.793-7.48-12.983-3.869c-1.246,0.731-2.493,1.418-3.783,2.149
				c-0.215-0.43-0.387-0.86-0.602-1.333c3.225-4.127,7.738-5.718,12.768-5.159c4.858,0.559,6.965,4.514,8.125,8.855
				c0.603,2.15,1.204,4.342,1.247,6.535c0.086,5.202,3.268,7.91,7.738,8.856c8.512,1.848,14.831,6.534,19.345,13.799
				c0.517,0.817,0.474,1.935,0.603,2.923c-1.118-0.129-2.192-0.086-3.311-0.387C210.832,101.854,210.316,101.208,210.058,100.649z"
				/>
			<path fill="#231F20" d="M170.938,119.264c-2.751,6.878-2.149,13.584,1.032,20.764c5.502-5.116,6.019-7.265,3.567-12.123
				c-0.73,1.505-1.59,3.095-2.407,4.729c-0.688-0.258-1.375-0.559-2.021-0.817c0.559-1.806,0.774-3.826,1.849-5.331
				C175.021,123.434,174.635,121.542,170.938,119.264z M175.537,111.182c7.566,7.695,7.566,17.668,7.137,27.556
				c-0.086,1.591-0.258,3.181-0.172,4.772c0.258,4.17-0.817,7.781-5.288,8.899c-4.514,1.16-9.888-1.892-11.822-6.062
				c-5.029-10.962-5.072-22.397-2.579-33.875c0.387-1.72,2.924-4.17,4.299-4.127C170.035,108.431,173.646,109.248,175.537,111.182z"
				/>
			<linearGradient id="SVGID_3_" gradientUnits="userSpaceOnUse" x1="121.4463" y1="131.7959" x2="124.1221" y2="131.7959">
				<stop  offset="0" style="stop-color:#26A9E0"/>
				<stop  offset="0" style="stop-color:#26A9E0"/>
				<stop  offset="0" style="stop-color:#26A9E0"/>
				<stop  offset="0.2638" style="stop-color:#FFFFFF"/>
				<stop  offset="0.4735" style="stop-color:#FFFFFF"/>
				<stop  offset="0.7984" style="stop-color:#FFFFFF"/>
				<stop  offset="1" style="stop-color:#26A9E0"/>
				<stop  offset="1" style="stop-color:#26A9E0"/>
				<stop  offset="1" style="stop-color:#26A9E0"/>
			</linearGradient>
			<path fill="url(#SVGID_3_)" d="M123.133,123.176c0.301,5.502,0.645,10.962,0.989,17.239
				C121.199,137.406,120.382,127.26,123.133,123.176z"/>
			<path fill="#231F20" d="M124.122,140.415c-0.344-6.277-0.688-11.736-0.989-17.239
				C120.382,127.26,121.199,137.406,124.122,140.415z M128.593,157.224c-4.987,1.419-11.091-1.074-13.413-5.804
				c-3.611-7.566-5.417-15.605-5.459-24.117c0-4.858,1.29-8.856,4.127-12.639c4.6-6.319,14.101-5.288,17.625,2.494
				c2.408,5.374,3.268,11.392,4.428,15.562c-0.645,6.233-1.075,10.618-1.634,15.003
				C133.795,151.721,133.236,155.891,128.593,157.224z"/>
			<path fill="#231F20" d="M150.174,201.976c-19.818,3.096-36.455,12.123-49.868,27.04c-1.247,1.462-2.88,2.623-4.342,3.912
				c-0.387-0.258-0.688-0.516-1.075-0.773c0.817-1.591,1.247-3.482,2.408-4.686c14.058-14.315,30.178-25.063,50.512-27.857
				c6.878-0.945,13.929-1.634,20.721-0.989c7.867,0.688,14.358,5.159,18.743,11.779c4.686,6.965,8.942,14.187,13.069,21.452
				c0.645,1.074-0.172,2.966-0.302,4.471c-1.031-0.945-2.45-1.677-3.138-2.837c-3.01-5.159-5.933-10.403-8.77-15.691
				C179.621,201.804,166.338,199.439,150.174,201.976z"/>
			<path fill="#231F20" d="M104.906,64.281c4.256,1.29,8.813,1.59,13.284,2.536c0.989,0.215,1.849,1.118,2.794,1.677
				c-0.86,0.73-1.849,2.235-2.58,2.106c-4.943-0.731-10.059-1.161-14.659-2.966c-3.482-1.419-5.159-0.602-7.308,1.72
				c-7.652,8.254-11.048,18.571-14.617,28.932c-3.439,9.759-14.014,11.22-20.506,2.192c1.204,0.473,2.537,0.86,3.697,1.376
				c8.125,3.396,13.713,0.387,15.562-8.168c2.278-10.06,7.007-18.916,13.671-26.74C97.039,63.55,100.478,62.905,104.906,64.281z"/>
			<linearGradient id="SVGID_4_" gradientUnits="userSpaceOnUse" x1="5.5684" y1="149.001" x2="285.9951" y2="149.001">
				<stop  offset="0" style="stop-color:#231F20"/>
				<stop  offset="0" style="stop-color:#231F20"/>
				<stop  offset="0" style="stop-color:#FAAF40"/>
				<stop  offset="0" style="stop-color:#FAAF40"/>
				<stop  offset="0" style="stop-color:#FAAF40"/>
				<stop  offset="0" style="stop-color:#1B75BB"/>
				<stop  offset="0" style="stop-color:#FAAF40"/>
				<stop  offset="0" style="stop-color:#231F20"/>
				<stop  offset="0.4124" style="stop-color:#231F20"/>
				<stop  offset="0.6001" style="stop-color:#231F20"/>
				<stop  offset="1" style="stop-color:#231F20"/>
			</linearGradient>
			<path fill="url(#SVGID_4_)" d="M9.04,98.199c0.258,16.121,0.688,32.242,1.032,48.406c0.258,9.156,0.516,18.356,1.032,27.556
				c0.773,15.82,1.118,31.684,2.794,47.418c1.634,14.659,4.256,29.318,7.48,43.763c2.923,13.198,13.198,18.916,25.493,21.839
				c11.521,2.708,23.171,3.139,34.993,2.665c16.594-0.645,33.231-0.387,49.782-1.547c8.125-0.56,16.164-3.396,24.117-5.288
				c16.25-3.869,32.844-4.557,49.438-5.546c12.51-0.73,25.234-1.676,37.143-5.029c14.961-4.213,25.106-14.831,30.007-30.222
				c4.901-15.434,6.19-31.339,7.438-47.331c0.988-13.198,2.751-26.353,3.181-39.594c0.388-11.822-0.43-23.73-1.246-35.595
				c-0.946-12.94-1.548-26.008-3.783-38.776c-2.106-11.951-5.675-23.687-9.501-35.208c-1.505-4.385-5.503-7.996-8.77-11.693
				c-8.125-9.286-16.422-18.529-28.803-22.269c-2.623-0.817-5.632-2.58-8.34,0.43c-0.388,0.43-2.063,0.258-2.666-0.215
				c-5.502-4.944-12.553-3.826-19.001-4.127C180.911,6.89,160.964,6.46,141.017,6.03c-27.126-0.602-53.952,2.192-80.391,8.684
				c-4.643,1.118-9.329,1.892-13.928,3.052c-1.419,0.344-2.623,1.375-3.955,2.063c-0.086,0.387-0.129,0.73-0.215,1.118
				c-3.783-1.075-7.523-2.149-11.35-3.138c-0.516-0.129-1.59,0.258-1.676,0.602c-0.989,4.342-4.17,1.419-6.964,2.494
				c2.623-5.288,6.75-6.362,11.177-6.362c4.041-0.043,8.168,0.816,12.209,0.473c4.17-0.387,8.297-1.978,12.51-2.708
				c16.508-2.837,32.973-6.405,49.696-7.953c14.875-1.375,29.964-0.516,45.053-0.473c15.047,0.043,30.093-0.258,45.054,0.559
				c17.023,0.902,34.606,0.43,48.621,12.639c10.704,9.329,22.354,18.271,26.396,32.758c4.514,16.422,10.146,32.629,10.36,50.083
				c0.215,13.241,2.278,26.438,2.364,39.679c0.172,12.596-0.989,25.235-1.677,37.874c-0.559,9.458-0.945,18.958-1.849,28.373
				c-1.333,14.53-3.268,28.889-8.941,42.56c-8.34,20.205-24.547,28.846-45.011,30.952c-19.86,2.021-39.808,3.053-59.669,5.116
				c-7.609,0.816-15.089,3.611-22.698,4.9c-11.22,1.892-22.44,4.256-33.704,4.687c-16.594,0.688-33.274,0.344-49.825-0.517
				c-9.5-0.516-19.302-1.504-27.9-6.835c-12.381-7.695-18.271-19.131-19.732-33.317c-2.106-21.408-4.729-42.731-6.534-64.183
				c-1.032-13.112-0.645-26.31-1.118-39.464c-0.516-13.456-1.548-26.912-1.72-40.41C5.428,98.887,5.987,88.44,6.374,77.994
				c0.172-8.383,0.258-16.809,0.86-25.149c0.688-10.575,6.104-19.56,10.618-28.76c0.559-1.204,1.935-1.978,3.181-3.095
				c0.516,1.161,1.032,2.106,1.032,2.106c-2.192,3.052-4.342,5.417-5.717,8.211c-6.233,13.026-7.91,26.912-7.394,41.227
				C9.297,81.046,8.954,89.645,9.04,98.199z"/>
		</g>
		<g>
		</g>
	</g>
</g>
<g>
</g>
<g>
</g>
<g>
</g>
<g>
</g>
<g>
</g>
<g>
</g>
<g>
</g>
<g>
</g>
<g>
</g>
<g>
</g>
<g>
</g>
<g>
</g>
<g>
</g>
<g>
</g>
<g>
</g>
</svg>
