<?xml version="1.0" encoding="utf-8"?>
<!DOCTYPE svg PUBLIC "-//W3C//DTD SVG 1.1 Basic//EN" "http://www.w3.org/Graphics/SVG/1.1/DTD/svg11-basic.dtd">
<svg version="1.1" baseProfile="basic" id="Layer_1"
	 xmlns="http://www.w3.org/2000/svg" xmlns:xlink="http://www.w3.org/1999/xlink" x="0px" y="0px" width="300px" height="300px"
	 viewBox="0 0 300 300" xml:space="preserve">
<g>
	<path fill="#607633" d="M251.301,155.219c0,61.414-63.539,142.369-101.853,142.369c-28.237,0-101.854-80.955-101.854-142.369
		c0-61.413,45.602-80.028,101.854-80.028C205.698,75.191,251.301,93.806,251.301,155.219z"/>
	<path fill="#617734" d="M250.295,155.526c0,60.808-62.911,140.965-100.847,140.965c-27.958,0-100.849-80.157-100.849-140.965
		c0-60.807,45.152-79.238,100.849-79.238C205.144,76.289,250.295,94.719,250.295,155.526z"/>
	<path fill="#627835" d="M249.29,155.834c0,60.202-62.285,139.559-99.842,139.559c-27.68,0-99.844-79.356-99.844-139.559
		c0-60.201,44.702-78.448,99.844-78.448C204.588,77.386,249.29,95.633,249.29,155.834z"/>
	<path fill="#637935" d="M248.285,156.142c0,59.596-61.658,138.154-98.837,138.154c-27.401,0-98.839-78.559-98.839-138.154
		c0-59.595,44.252-77.658,98.839-77.658C204.033,78.483,248.285,96.547,248.285,156.142z"/>
	<path fill="#647A36" d="M247.28,156.449c0,58.99-61.031,136.749-97.833,136.749c-27.122,0-97.834-77.759-97.834-136.749
		c0-58.989,43.802-76.868,97.834-76.868C203.478,79.581,247.28,97.46,247.28,156.449z"/>
	<path fill="#647B37" d="M246.274,156.757c0,58.384-60.403,135.344-96.827,135.344c-26.844,0-96.829-76.96-96.829-135.344
		c0-58.383,43.352-76.079,96.829-76.079C202.922,80.678,246.274,98.374,246.274,156.757z"/>
	<path fill="#657C38" d="M245.27,157.064c0,57.777-59.776,133.938-95.822,133.938c-26.564,0-95.823-76.161-95.823-133.938
		c0-57.777,42.901-75.289,95.823-75.289C202.367,81.775,245.27,99.288,245.27,157.064z"/>
	<path fill="#667D39" d="M244.265,157.372c0,57.171-59.15,132.534-94.817,132.534c-26.286,0-94.818-75.363-94.818-132.534
		c0-57.17,42.452-74.499,94.818-74.499C201.812,82.873,244.265,100.202,244.265,157.372z"/>
	<path fill="#677E3A" d="M243.259,157.68c0,56.565-58.522,131.129-93.811,131.129c-26.007,0-93.813-74.563-93.813-131.129
		c0-56.564,42.002-73.709,93.813-73.709C201.257,83.97,243.259,101.115,243.259,157.68z"/>
	<path fill="#687F3A" d="M242.254,157.987c0,55.96-57.896,129.724-92.806,129.724c-25.729,0-92.808-73.764-92.808-129.724
		c0-55.958,41.552-72.919,92.808-72.919C200.702,85.068,242.254,102.029,242.254,157.987z"/>
	<path fill="#69803B" d="M241.249,158.295c0,55.354-57.269,128.318-91.801,128.318c-25.451,0-91.803-72.965-91.803-128.318
		c0-55.353,41.102-72.13,91.803-72.13C200.146,86.165,241.249,102.942,241.249,158.295z"/>
	<path fill="#6A813C" d="M240.243,158.603c0,54.747-56.641,126.913-90.796,126.913c-25.171,0-90.797-72.166-90.797-126.913
		c0-54.746,40.651-71.34,90.797-71.34C199.592,87.263,240.243,103.856,240.243,158.603z"/>
	<path fill="#6B823D" d="M239.238,158.91c0,54.141-56.014,125.509-89.791,125.509c-24.893,0-89.792-71.368-89.792-125.509
		c0-54.14,40.202-70.55,89.792-70.55C199.036,88.36,239.238,104.771,239.238,158.91z"/>
	<path fill="#6C833E" d="M238.233,159.218c0,53.535-55.388,124.104-88.786,124.104c-24.614,0-88.787-70.568-88.787-124.104
		c0-53.534,39.752-69.76,88.787-69.76C198.481,89.458,238.233,105.684,238.233,159.218z"/>
	<path fill="#6C843F" d="M237.228,159.525c0,52.929-54.76,122.699-87.78,122.699c-24.335,0-87.781-69.771-87.781-122.699
		c0-52.928,39.301-68.971,87.781-68.971C197.926,90.555,237.228,106.598,237.228,159.525z"/>
	<path fill="#6D853F" d="M236.223,159.833c0,52.323-54.133,121.294-86.775,121.294c-24.057,0-86.777-68.971-86.777-121.294
		c0-52.322,38.852-68.181,86.777-68.181C197.371,91.652,236.223,107.511,236.223,159.833z"/>
	<path fill="#6E8640" d="M235.218,160.141c0,51.717-53.506,119.889-85.77,119.889c-23.778,0-85.771-68.172-85.771-119.889
		c0-51.715,38.401-67.391,85.771-67.391C196.815,92.75,235.218,108.425,235.218,160.141z"/>
	<path fill="#6F8741" d="M234.212,160.448c0,51.11-52.878,118.483-84.765,118.483c-23.499,0-84.766-67.373-84.766-118.483
		c0-51.109,37.951-66.601,84.766-66.601C196.261,93.847,234.212,109.339,234.212,160.448z"/>
	<path fill="#708842" d="M233.207,160.756c0,50.505-52.252,117.078-83.759,117.078c-23.221,0-83.761-66.573-83.761-117.078
		c0-50.503,37.502-65.812,83.761-65.812C195.705,94.944,233.207,110.252,233.207,160.756z"/>
	<path fill="#718943" d="M232.202,161.063c0,49.898-51.625,115.674-82.754,115.674c-22.942,0-82.756-65.775-82.756-115.674
		c0-49.897,37.052-65.021,82.756-65.021C195.15,96.042,232.202,111.166,232.202,161.063z"/>
	<path fill="#728A44" d="M231.197,161.371c0,49.293-50.998,114.269-81.75,114.269c-22.663,0-81.75-64.976-81.75-114.269
		c0-49.292,36.602-64.231,81.75-64.231C194.595,97.14,231.197,112.08,231.197,161.371z"/>
	<path fill="#738B44" d="M230.191,161.679c0,48.687-50.37,112.863-80.744,112.863c-22.385,0-80.746-64.177-80.746-112.863
		c0-48.685,36.151-63.441,80.746-63.441C194.04,98.237,230.191,112.994,230.191,161.679z"/>
	<path fill="#748C45" d="M229.187,161.986c0,48.08-49.743,111.458-79.739,111.458c-22.106,0-79.741-63.378-79.741-111.458
		c0-48.079,35.701-62.652,79.741-62.652C193.484,99.334,229.187,113.907,229.187,161.986z"/>
	<path fill="#748D46" d="M228.182,162.294c0,47.474-49.117,110.053-78.734,110.053c-21.827,0-78.735-62.579-78.735-110.053
		c0-47.473,35.251-61.862,78.735-61.862C192.93,100.432,228.182,114.821,228.182,162.294z"/>
	<path fill="#758E47" d="M227.176,162.602c0,46.868-48.489,108.648-77.728,108.648c-21.549,0-77.73-61.78-77.73-108.648
		c0-46.867,34.801-61.072,77.73-61.072C192.375,101.529,227.176,115.734,227.176,162.602z"/>
	<path fill="#768F48" d="M226.17,162.91c0,46.262-47.861,107.242-76.722,107.242c-21.27,0-76.725-60.98-76.725-107.242
		s34.352-60.284,76.725-60.284C191.819,102.626,226.17,116.648,226.17,162.91z"/>
	<path fill="#779049" d="M225.166,163.217c0,45.656-47.236,105.838-75.719,105.838c-20.991,0-75.719-60.182-75.719-105.838
		c0-45.654,33.902-59.493,75.719-59.493C191.264,103.724,225.166,117.562,225.166,163.217z"/>
	<path fill="#789149" d="M224.16,163.525c0,45.049-46.607,104.432-74.712,104.432c-20.713,0-74.714-59.383-74.714-104.432
		c0-45.05,33.451-58.704,74.714-58.704C190.709,104.821,224.16,118.476,224.16,163.525z"/>
	<path fill="#79924A" d="M223.154,163.832c0,44.443-45.98,103.027-73.707,103.027c-20.434,0-73.709-58.584-73.709-103.027
		c0-44.442,33.001-57.913,73.709-57.913C190.153,105.919,223.154,119.39,223.154,163.832z"/>
	<path fill="#7A934B" d="M222.15,164.141c0,43.837-45.354,101.621-72.703,101.621c-20.155,0-72.704-57.784-72.704-101.621
		c0-43.837,32.552-57.124,72.704-57.124C189.599,107.017,222.15,120.303,222.15,164.141z"/>
	<path fill="#7B944C" d="M221.145,164.447c0,43.231-44.727,100.218-71.697,100.218c-19.876,0-71.699-56.986-71.699-100.218
		c0-43.23,32.101-56.333,71.699-56.333C189.043,108.114,221.145,121.217,221.145,164.447z"/>
	<path fill="#7C954D" d="M220.14,164.756c0,42.625-44.101,98.812-70.692,98.812c-19.598,0-70.694-56.187-70.694-98.812
		s31.651-55.544,70.694-55.544C188.488,109.211,220.14,122.131,220.14,164.756z"/>
	<path fill="#7C954E" d="M219.135,165.062c0,42.02-43.473,97.408-69.687,97.408c-19.32,0-69.688-55.389-69.688-97.408
		c0-42.018,31.201-54.754,69.688-54.754C187.934,110.309,219.135,123.044,219.135,165.062z"/>
	<path fill="#7D964E" d="M218.129,165.371c0,41.412-42.846,96.002-68.681,96.002c-19.041,0-68.683-54.59-68.683-96.002
		c0-41.413,30.751-53.965,68.683-53.965C187.378,111.406,218.129,123.958,218.129,165.371z"/>
	<path fill="#7E974F" d="M217.124,165.678c0,40.808-42.219,94.598-67.676,94.598c-18.762,0-67.678-53.79-67.678-94.598
		c0-40.806,30.301-53.174,67.678-53.174C186.823,112.504,217.124,124.872,217.124,165.678z"/>
	<path fill="#7F9850" d="M216.119,165.986c0,40.2-41.592,93.191-66.672,93.191c-18.483,0-66.673-52.991-66.673-93.191
		c0-40.201,29.851-52.386,66.673-52.386C186.268,113.601,216.119,125.785,216.119,165.986z"/>
	<path fill="#809951" d="M215.113,166.293c0,39.596-40.964,91.787-65.666,91.787c-18.205,0-65.667-52.191-65.667-91.787
		c0-39.594,29.4-51.595,65.667-51.595C185.713,114.698,215.113,126.699,215.113,166.293z"/>
	<path fill="#819A52" d="M214.108,166.602c0,38.988-40.337,90.381-64.661,90.381c-17.926,0-64.663-51.393-64.663-90.381
		c0-38.989,28.951-50.806,64.663-50.806C185.157,115.796,214.108,127.613,214.108,166.602z"/>
	<path fill="#829B53" d="M213.104,166.908c0,38.383-39.711,88.978-63.656,88.978c-17.647,0-63.657-50.595-63.657-88.978
		c0-38.382,28.501-50.015,63.657-50.015C184.602,116.893,213.104,128.526,213.104,166.908z"/>
	<path fill="#839C53" d="M212.098,167.217c0,37.775-39.083,87.571-62.65,87.571c-17.369,0-62.652-49.796-62.652-87.571
		c0-37.776,28.05-49.227,62.652-49.227C184.047,117.99,212.098,129.44,212.098,167.217z"/>
	<path fill="#839D54" d="M211.093,167.523c0,37.171-38.456,86.167-61.645,86.167c-17.09,0-61.647-48.996-61.647-86.167
		c0-37.169,27.601-48.436,61.647-48.436C183.492,119.088,211.093,130.354,211.093,167.523z"/>
	<path fill="#849E55" d="M210.088,167.832c0,36.564-37.829,84.762-60.641,84.762c-16.811,0-60.642-48.197-60.642-84.762
		c0-36.564,27.151-47.646,60.642-47.646C182.937,120.186,210.088,131.268,210.088,167.832z"/>
	<path fill="#859F56" d="M209.082,168.139c0,35.959-37.201,83.357-59.634,83.357c-16.533,0-59.636-47.398-59.636-83.357
		c0-35.957,26.7-46.855,59.636-46.855C182.382,121.283,209.082,132.182,209.082,168.139z"/>
	<path fill="#86A057" d="M208.077,168.447c0,35.352-36.575,81.951-58.629,81.951c-16.254,0-58.631-46.6-58.631-81.951
		s26.25-46.066,58.631-46.066C181.826,122.381,208.077,133.096,208.077,168.447z"/>
	<path fill="#87A158" d="M207.072,168.754c0,34.746-35.948,80.547-57.625,80.547c-15.975,0-57.626-45.801-57.626-80.547
		c0-34.745,25.801-45.276,57.626-45.276C181.271,123.478,207.072,134.009,207.072,168.754z"/>
	<path fill="#88A258" d="M206.066,169.062c0,34.14-35.32,79.142-56.619,79.142c-15.697,0-56.622-45.002-56.622-79.142
		s25.351-44.487,56.622-44.487C180.716,124.575,206.066,134.923,206.066,169.062z"/>
	<path fill="#89A359" d="M205.062,169.369c0,33.534-34.693,77.737-55.614,77.737c-15.418,0-55.616-44.203-55.616-77.737
		c0-33.533,24.9-43.697,55.616-43.697C180.16,125.672,205.062,135.836,205.062,169.369z"/>
	<path fill="#8AA45A" d="M204.057,169.678c0,32.928-34.066,76.331-54.609,76.331c-15.139,0-54.61-43.403-54.61-76.331
		s24.451-42.908,54.61-42.908C179.605,126.77,204.057,136.75,204.057,169.678z"/>
	<path fill="#8BA55B" d="M203.051,169.985c0,32.321-33.439,74.927-53.603,74.927c-14.861,0-53.605-42.605-53.605-74.927
		s24-42.118,53.605-42.118C179.051,127.868,203.051,137.664,203.051,169.985z"/>
	<path fill="#8BA65C" d="M202.046,170.293c0,31.715-32.812,73.521-52.598,73.521c-14.583,0-52.6-41.807-52.6-73.521
		c0-31.715,23.55-41.328,52.6-41.328C178.495,128.965,202.046,138.578,202.046,170.293z"/>
	<path fill="#8CA75D" d="M201.04,170.601c0,31.109-32.185,72.116-51.593,72.116c-14.303,0-51.595-41.007-51.595-72.116
		s23.101-40.538,51.595-40.538C177.94,130.062,201.04,139.491,201.04,170.601z"/>
	<path fill="#8DA85D" d="M200.035,170.908c0,30.503-31.559,70.711-50.587,70.711c-14.025,0-50.59-40.208-50.59-70.711
		c0-30.503,22.65-39.748,50.59-39.748C177.385,131.16,200.035,140.405,200.035,170.908z"/>
	<path fill="#8EA95E" d="M199.03,171.216c0,29.897-30.932,69.306-49.583,69.306c-13.746,0-49.584-39.408-49.584-69.306
		s22.2-38.959,49.584-38.959C176.83,132.257,199.03,141.318,199.03,171.216z"/>
	<path fill="#8FAA5F" d="M198.025,171.523c0,29.291-30.305,67.9-48.578,67.9c-13.467,0-48.579-38.609-48.579-67.9
		s21.75-38.169,48.579-38.169C176.274,133.354,198.025,142.232,198.025,171.523z"/>
	<path fill="#90AB60" d="M197.02,171.831c0,28.685-29.677,66.495-47.572,66.495c-13.189,0-47.574-37.811-47.574-66.495
		c0-28.685,21.3-37.379,47.574-37.379C175.72,134.452,197.02,143.146,197.02,171.831z"/>
	<path fill="#91AC61" d="M196.015,172.139c0,28.079-29.05,65.091-46.567,65.091c-12.91,0-46.569-37.012-46.569-65.091
		s20.85-36.589,46.569-36.589C175.164,135.549,196.015,144.06,196.015,172.139z"/>
	<path fill="#92AD62" d="M195.01,172.446c0,27.473-28.424,63.686-45.562,63.686c-12.632,0-45.564-36.213-45.564-63.686
		s20.4-35.799,45.564-35.799C174.609,136.647,195.01,144.974,195.01,172.446z"/>
	<path fill="#93AE62" d="M194.004,172.754c0,26.866-27.796,62.28-44.556,62.28c-12.353,0-44.559-35.414-44.559-62.28
		s19.95-35.009,44.559-35.009C174.054,137.745,194.004,145.888,194.004,172.754z"/>
	<path fill="#93AF63" d="M192.999,173.062c0,26.261-27.169,60.875-43.551,60.875c-12.075,0-43.554-34.614-43.554-60.875
		c0-26.26,19.5-34.22,43.554-34.22C173.499,138.842,192.999,146.801,192.999,173.062z"/>
	<path fill="#94B064" d="M191.994,173.369c0,25.654-26.542,59.471-42.546,59.471c-11.795,0-42.548-33.816-42.548-59.471
		s19.05-33.43,42.548-33.43C172.943,139.939,191.994,147.715,191.994,173.369z"/>
	<path fill="#95B165" d="M190.988,173.677c0,25.048-25.914,58.065-41.541,58.065c-11.517,0-41.543-33.018-41.543-58.065
		c0-25.048,18.6-32.641,41.543-32.641C172.389,141.036,190.988,148.628,190.988,173.677z"/>
	<path fill="#96B266" d="M189.983,173.984c0,24.442-25.287,56.66-40.536,56.66c-11.238,0-40.538-32.218-40.538-56.66
		s18.15-31.851,40.538-31.851C171.834,142.134,189.983,149.542,189.983,173.984z"/>
	<path fill="#97B367" d="M188.979,174.292c0,23.836-24.661,55.255-39.531,55.255c-10.959,0-39.533-31.419-39.533-55.255
		s17.7-31.061,39.533-31.061C171.278,143.231,188.979,150.456,188.979,174.292z"/>
	<path fill="#98B467" d="M187.973,174.6c0,23.23-24.033,53.851-38.525,53.851c-10.681,0-38.528-30.62-38.528-53.851
		s17.25-30.271,38.528-30.271C170.724,144.329,187.973,151.369,187.973,174.6z"/>
	<path fill="#99B568" d="M186.968,174.907c0,22.624-23.406,52.445-37.52,52.445c-10.402,0-37.522-29.821-37.522-52.445
		s16.8-29.481,37.522-29.481C170.168,145.426,186.968,152.283,186.968,174.907z"/>
</g>
<g>
	<path fill="#231F20" d="M129.987,158.461c3.295,24.13-5.778,57.768-22.328,60.029c-16.55,2.261-34.311-27.714-37.607-51.842
		c-3.295-24.129,9.124-33.274,25.674-35.536S126.691,134.333,129.987,158.461z"/>
	<path fill="#231F20" d="M230.905,172.288c-7.451,23.186-30.168,49.604-46.069,44.492c-15.902-5.11-18.973-39.815-11.521-62.999
		c7.452-23.186,22.604-26.068,38.506-20.959C227.723,137.933,238.355,149.104,230.905,172.288z"/>
</g>
<path fill="#434345" d="M79.809,171.669c-2.748-21.97,7.606-30.296,21.405-32.355c4.43-0.662,8.67-0.581,12.485,0.541
	c-5.246-4.64-12.204-5.636-19.705-4.517c-13.798,2.06-24.153,10.385-21.405,32.355c2.48,19.832,14.791,43.995,27.314,46.992
	C90.178,206.409,81.806,187.639,79.809,171.669z"/>
<path fill="#434345" d="M181.568,161.267c7.05-20.99,19.99-24.005,33.317-19.878c4.278,1.325,8.064,3.236,11.016,5.899
	c-2.715-6.455-8.555-10.37-15.798-12.612c-13.327-4.126-26.268-1.113-33.316,19.876c-6.363,18.948-5.744,46.058,4.241,54.188
	C175.854,197.065,176.446,176.522,181.568,161.267z"/>
<path fill="none" stroke="#28585A" stroke-width="3" stroke-miterlimit="10" d="M138.645,262.696c0,0,8.14-7.542,21.601,0"/>
<path fill="none" stroke="#607633" stroke-width="4" stroke-linecap="round" stroke-miterlimit="10" d="M160.246,79.3
	c0,0,4.107-46.658,27.716-63.719"/>
<circle fill="#607633" cx="187.962" cy="15.581" r="13.431"/>
</svg>
