<?xml version="1.0" encoding="utf-8"?>
<!DOCTYPE svg PUBLIC "-//W3C//DTD SVG 1.1 Basic//EN" "http://www.w3.org/Graphics/SVG/1.1/DTD/svg11-basic.dtd">
<svg version="1.1" baseProfile="basic" id="Layer_1"
	 xmlns="http://www.w3.org/2000/svg" xmlns:xlink="http://www.w3.org/1999/xlink" x="0px" y="0px" width="300px" height="300px"
	 viewBox="0 0 300 300" xml:space="preserve">
<path fill="#D58298" d="M272.35,28.055c24.14,24.141,28.479,58.941,9.694,77.727l-37.756,37.759
	c-18.789,18.786-53.589,14.446-77.729-9.697l0,0c-24.141-24.141-28.484-58.939-9.7-77.726l37.763-37.759
	C213.407-0.427,248.204,3.915,272.35,28.055L272.35,28.055z"/>
<polygon fill="#CEA57E" points="147.601,240.227 101.569,286.258 3.412,296.992 14.146,198.836 60.177,152.805 "/>
<polygon fill="#BA802B" points="269.36,118.464 104.453,283.372 98.396,246.458 62.966,241.884 57.281,205.341 17.03,195.951 
	181.938,31.041 "/>
<polygon fill="#F5A637" points="206.759,55.861 57.281,205.341 62.966,241.884 98.396,246.458 247.879,96.978 "/>
<rect x="216.3" y="14.952" transform="matrix(0.7071 -0.7071 0.7071 0.7071 11.2175 180.6195)" fill="#FEE100" width="14.672" height="123.634"/>
<polygon fill="#5E5755" points="6.878,265.293 3.412,296.992 35.112,293.526 "/>
<g opacity="0.65">
	<path fill="#FFFFFF" d="M120.647,197.057l-12.681-12.672l1.556-1.558l7.231,7.227l-0.055-7.419l2.014-2.016l-0.102,6.918
		l9.643,1.908l-1.919,1.92l-7.731-1.657l-0.042,2.153l3.642,3.639L120.647,197.057z"/>
	<path fill="#FFFFFF" d="M118.608,177.316l-1.791-1.789l1.556-1.558l1.791,1.789L118.608,177.316z M129.499,188.199l-9.187-9.18
		l1.556-1.558l9.187,9.181L129.499,188.199z"/>
	<path fill="#FFFFFF" d="M133.423,184.272l-9.187-9.181l1.4-1.4l1.307,1.305c-0.334-1.683,0.134-3.161,1.408-4.436
		c0.553-0.554,1.161-0.964,1.825-1.229c0.662-0.266,1.271-0.353,1.824-0.261c0.554,0.093,1.099,0.314,1.634,0.665
		c0.346,0.231,0.879,0.706,1.6,1.427l5.648,5.645l-1.556,1.557l-5.587-5.583c-0.635-0.635-1.17-1.048-1.605-1.241
		c-0.435-0.192-0.9-0.229-1.397-0.107c-0.495,0.121-0.95,0.39-1.365,0.805c-0.663,0.663-1.025,1.446-1.085,2.348
		c-0.06,0.902,0.498,1.941,1.675,3.117l5.017,5.014L133.423,184.272z"/>
	<path fill="#FFFFFF" d="M146.596,165.176l1.806-1.41c0.687,1.193,0.947,2.393,0.781,3.598c-0.167,1.204-0.784,2.341-1.85,3.407
		c-1.343,1.344-2.822,1.996-4.436,1.956s-3.168-0.807-4.663-2.3c-1.545-1.544-2.346-3.141-2.404-4.789
		c-0.059-1.648,0.546-3.107,1.814-4.376c1.228-1.229,2.648-1.814,4.262-1.757c1.615,0.058,3.18,0.844,4.696,2.359
		c0.092,0.092,0.229,0.234,0.406,0.423l-6.847,6.851c1.067,0.951,2.125,1.438,3.174,1.461c1.049,0.022,1.958-0.349,2.724-1.116
		c0.571-0.57,0.907-1.208,1.011-1.912C147.175,166.868,147.017,166.069,146.596,165.176z M138.969,167.772l5.126-5.13
		c-0.842-0.702-1.617-1.085-2.326-1.149c-1.095-0.103-2.038,0.24-2.827,1.03c-0.715,0.715-1.076,1.556-1.084,2.521
		C137.849,166.01,138.221,166.92,138.969,167.772z"/>
	<path fill="#FFFFFF" d="M153.115,164.568l-9.187-9.181l1.392-1.393l1.289,1.288c-0.161-0.737-0.14-1.482,0.064-2.234
		c0.204-0.753,0.612-1.435,1.223-2.046c0.68-0.68,1.378-1.097,2.097-1.25c0.717-0.153,1.419-0.065,2.106,0.263
		c-0.347-1.798,0.062-3.28,1.227-4.444c0.91-0.911,1.862-1.36,2.857-1.346c0.994,0.014,2.016,0.546,3.065,1.594l6.306,6.302
		l-1.547,1.549l-5.786-5.783c-0.623-0.623-1.122-1.02-1.497-1.194c-0.375-0.172-0.778-0.209-1.211-0.112
		c-0.433,0.098-0.826,0.326-1.184,0.684c-0.646,0.646-0.967,1.397-0.964,2.253c0.002,0.856,0.478,1.757,1.423,2.703l5.337,5.333
		l-1.556,1.557l-5.968-5.964c-0.692-0.692-1.339-1.084-1.938-1.176c-0.6-0.092-1.188,0.15-1.764,0.727
		c-0.438,0.438-0.728,0.959-0.869,1.562c-0.141,0.602-0.074,1.208,0.204,1.819c0.277,0.611,0.834,1.335,1.67,2.171l4.766,4.763
		L153.115,164.568z"/>
	<path fill="#FFFFFF" d="M172.721,142.686c-0.086,1.066-0.295,1.967-0.627,2.702c-0.331,0.735-0.802,1.409-1.412,2.02
		c-1.009,1.009-2.031,1.539-3.065,1.587c-1.035,0.049-1.936-0.309-2.702-1.076c-0.449-0.449-0.759-0.962-0.926-1.54
		c-0.168-0.576-0.197-1.142-0.092-1.699c0.106-0.556,0.311-1.1,0.609-1.63c0.225-0.386,0.607-0.925,1.149-1.618
		c1.106-1.407,1.852-2.511,2.238-3.312c-0.207-0.219-0.34-0.357-0.397-0.415c-0.635-0.634-1.228-0.934-1.781-0.898
		c-0.749,0.046-1.516,0.462-2.3,1.246c-0.731,0.732-1.145,1.4-1.236,2.006c-0.093,0.605,0.104,1.317,0.589,2.135l-1.729,1.315
		c-0.514-0.79-0.812-1.543-0.896-2.262c-0.084-0.717,0.065-1.484,0.449-2.3c0.384-0.816,0.97-1.618,1.759-2.408
		c0.784-0.784,1.513-1.33,2.188-1.636c0.675-0.305,1.267-0.434,1.776-0.386c0.511,0.049,1.025,0.241,1.544,0.575
		c0.317,0.214,0.821,0.666,1.514,1.357l2.076,2.076c1.447,1.446,2.396,2.327,2.845,2.644c0.451,0.318,0.949,0.555,1.497,0.709
		l-1.625,1.626C173.682,143.345,173.199,143.072,172.721,142.686z M169.113,139.341c-0.333,0.795-0.985,1.838-1.953,3.13
		c-0.547,0.733-0.896,1.289-1.046,1.669c-0.149,0.381-0.186,0.754-0.107,1.119c0.078,0.367,0.252,0.685,0.523,0.957
		c0.415,0.414,0.918,0.603,1.51,0.565c0.59-0.038,1.188-0.359,1.794-0.964c0.599-0.6,1-1.265,1.205-1.994
		c0.204-0.73,0.188-1.431-0.048-2.105c-0.185-0.519-0.62-1.121-1.307-1.808L169.113,139.341z"/>
	<path fill="#FFFFFF" d="M174.345,137.842l1.296-1.781c0.704,0.53,1.418,0.762,2.142,0.694c0.723-0.066,1.439-0.454,2.148-1.163
		c0.714-0.715,1.098-1.392,1.153-2.028c0.055-0.637-0.113-1.152-0.506-1.543c-0.352-0.352-0.782-0.475-1.289-0.372
		c-0.352,0.075-1.058,0.429-2.118,1.064c-1.43,0.854-2.47,1.396-3.121,1.627c-0.651,0.23-1.277,0.273-1.876,0.13
		c-0.6-0.144-1.125-0.441-1.574-0.891c-0.41-0.409-0.695-0.881-0.856-1.417c-0.162-0.536-0.197-1.082-0.105-1.635
		c0.064-0.42,0.243-0.901,0.536-1.444c0.294-0.542,0.681-1.052,1.158-1.531c0.721-0.721,1.457-1.25,2.208-1.588
		c0.753-0.337,1.437-0.458,2.05-0.364c0.615,0.096,1.269,0.391,1.959,0.886l-1.313,1.73c-0.542-0.403-1.111-0.572-1.708-0.505
		c-0.596,0.066-1.197,0.402-1.802,1.008c-0.715,0.715-1.107,1.343-1.176,1.885c-0.069,0.542,0.056,0.972,0.373,1.289
		c0.201,0.201,0.445,0.319,0.733,0.354c0.295,0.041,0.632-0.02,1.013-0.181c0.213-0.099,0.804-0.424,1.772-0.978
		c1.395-0.808,2.403-1.335,3.025-1.583c0.623-0.248,1.236-0.317,1.843-0.208c0.604,0.109,1.172,0.429,1.703,0.959
		c0.519,0.518,0.856,1.159,1.012,1.919c0.156,0.761,0.075,1.552-0.246,2.374c-0.319,0.822-0.839,1.593-1.559,2.313
		c-1.193,1.194-2.351,1.855-3.472,1.986C176.626,138.979,175.492,138.643,174.345,137.842z"/>
	<path fill="#FFFFFF" d="M188.565,126.312l1.6,1.15c-0.346,0.53-0.69,0.968-1.036,1.314c-0.565,0.565-1.092,0.915-1.583,1.047
		c-0.49,0.133-0.943,0.117-1.361-0.047c-0.419-0.165-1.094-0.714-2.027-1.646l-5.286-5.283l-1.142,1.142l-1.211-1.21l1.142-1.142
		l-2.274-2.273l0.612-2.482l3.209,3.208l1.564-1.565l1.211,1.21l-1.564,1.565l5.372,5.369c0.444,0.444,0.757,0.702,0.938,0.773
		c0.182,0.072,0.372,0.083,0.571,0.035c0.197-0.049,0.413-0.188,0.644-0.419C188.116,126.883,188.323,126.634,188.565,126.312z"/>
	<path fill="#FFFFFF" d="M194.807,116.936l1.806-1.411c0.687,1.193,0.946,2.393,0.78,3.599c-0.167,1.204-0.783,2.34-1.85,3.407
		c-1.343,1.344-2.821,1.996-4.436,1.956c-1.613-0.04-3.168-0.807-4.662-2.3c-1.545-1.544-2.347-3.14-2.404-4.79
		c-0.059-1.648,0.546-3.106,1.814-4.375c1.228-1.228,2.648-1.814,4.262-1.757c1.615,0.057,3.18,0.844,4.696,2.36
		c0.092,0.092,0.229,0.233,0.406,0.423l-6.846,6.851c1.067,0.951,2.125,1.438,3.174,1.461c1.049,0.022,1.957-0.35,2.724-1.117
		c0.57-0.571,0.907-1.208,1.011-1.912C195.386,118.628,195.228,117.83,194.807,116.936z M187.18,119.533l5.126-5.129
		c-0.841-0.703-1.616-1.086-2.326-1.15c-1.095-0.103-2.037,0.24-2.827,1.03c-0.714,0.715-1.076,1.556-1.084,2.521
		C186.06,117.77,186.431,118.68,187.18,119.533z"/>
	<path fill="#FFFFFF" d="M201.309,116.346l-9.187-9.18l1.4-1.401l1.393,1.392c-0.294-1.008-0.394-1.768-0.299-2.278
		c0.095-0.51,0.324-0.946,0.688-1.31c0.524-0.524,1.225-0.891,2.102-1.099l0.908,1.979c-0.605,0.157-1.098,0.424-1.479,0.805
		c-0.34,0.34-0.544,0.748-0.609,1.223c-0.065,0.477,0.024,0.953,0.272,1.432c0.381,0.726,0.899,1.418,1.558,2.075l4.809,4.806
		L201.309,116.346z"/>
</g>
</svg>
