<?xml version="1.0" encoding="utf-8"?>
<!-- Generator: Adobe Illustrator 16.0.0, SVG Export Plug-In . SVG Version: 6.00 Build 0)  -->
<!DOCTYPE svg PUBLIC "-//W3C//DTD SVG 1.1 Basic//EN" "http://www.w3.org/Graphics/SVG/1.1/DTD/svg11-basic.dtd">
<svg version="1.1" baseProfile="basic" id="Layer_1"
	 xmlns="http://www.w3.org/2000/svg" xmlns:xlink="http://www.w3.org/1999/xlink" x="0px" y="0px" width="300px" height="300px"
	 viewBox="0 0 300 300" xml:space="preserve">
<path fill-rule="evenodd" clip-rule="evenodd" fill="#F0EACC" d="M149.438,8.609c81.186,0,146.999,56.076,146.999,125.25
	s-47.253,92.004-146.999,125.25c-99.747,33.246-147-56.076-147-125.25S68.251,8.609,149.438,8.609z"/>
<path opacity="0.65" fill-rule="evenodd" clip-rule="evenodd" fill="#FFFFFF" d="M149.438,16.497
	c55.723,0,103.727,28.144,125.515,68.655c-25.213-28.151-64.995-46.321-109.766-46.321c-76.215,0-138,52.643-138,117.583
	c0,23.869,6.002,50.29,18.234,72.617c-22.861-25.182-33.984-62.438-33.984-94.953C11.437,69.14,73.222,16.497,149.438,16.497z"/>
<path fill-rule="evenodd" clip-rule="evenodd" fill="#FFBE36" d="M100.688,220.86c29.123,0,52.876-23.753,52.876-52.876
	c0-29.124-23.753-52.876-52.876-52.876c-29.124,0-52.877,23.753-52.877,52.876C47.811,197.107,71.563,220.86,100.688,220.86z"/>
<path opacity="0.65" fill-rule="evenodd" clip-rule="evenodd" fill="#FFFFFF" d="M98.816,120.671
	c19.004,0,35.375,9.598,42.805,23.414c-8.598-9.601-22.166-15.797-37.434-15.797c-25.992,0-47.064,17.953-47.064,40.101
	c0,8.14,2.047,17.15,6.219,24.765c-7.796-8.588-11.59-21.293-11.59-32.382C51.752,138.625,72.824,120.671,98.816,120.671z"/>
</svg>
